<?xml version="1.0" standalone="no"?>
<!DOCTYPE svg PUBLIC "-//W3C//DTD SVG 20010904//EN"
 "http://www.w3.org/TR/2001/REC-SVG-20010904/DTD/svg10.dtd">
<svg version="1.0" xmlns="http://www.w3.org/2000/svg"
 width="1024.000000pt" height="1024.000000pt" viewBox="0 0 1024.000000 1024.000000"
 preserveAspectRatio="xMidYMid meet">
<metadata>
Created by potrace 1.16, written by Peter Selinger 2001-2019
</metadata>
<g transform="translate(0.000000,1024.000000) scale(0.100000,-0.100000)"
fill="#000000" stroke="none">
<path d="M4450 9350 c-25 -4 -99 -15 -165 -25 -175 -26 -380 -88 -520 -158
-85 -42 -252 -158 -307 -212 -47 -46 -108 -152 -108 -186 0 -13 -22 -30 -72
-55 -126 -63 -282 -237 -383 -428 -31 -59 -85 -217 -85 -251 0 -7 14 -16 30
-21 l30 -9 -23 -35 c-127 -190 -143 -596 -36 -920 33 -101 102 -246 152 -320
56 -83 247 -261 335 -313 97 -57 218 -101 325 -117 82 -12 406 -8 441 6 17 7
18 6 3 -17 -26 -41 -64 -180 -76 -274 -20 -161 -9 -306 26 -369 9 -17 5 -23
-27 -45 -109 -73 -191 -166 -248 -277 -27 -53 -88 -240 -103 -314 l-11 -57
-37 13 c-49 18 -126 17 -160 -1 -69 -35 -145 -148 -227 -336 -70 -162 -74
-235 -13 -301 23 -24 25 -29 10 -25 -10 2 -23 2 -27 -2 -11 -8 -66 -138 -110
-261 -39 -110 -42 -157 -14 -192 l19 -25 -44 -5 c-49 -6 -85 -31 -134 -95 -86
-112 -109 -131 -249 -203 -75 -40 -186 -91 -247 -115 -136 -53 -144 -68 -43
-85 108 -19 303 -7 403 23 227 69 303 125 327 241 10 46 16 56 33 56 11 0 43
11 72 24 91 43 121 111 173 389 17 89 32 162 34 164 1 2 27 -7 57 -20 30 -13
67 -27 83 -31 26 -6 28 -5 22 16 -4 13 -10 84 -13 158 -7 169 23 377 56 388
10 3 12 -5 6 -38 -29 -174 -7 -790 35 -947 7 -28 4 -36 -25 -67 -130 -138
-161 -458 -86 -871 39 -209 62 -305 95 -387 19 -46 22 -64 13 -67 -17 -5 -111
-105 -168 -181 -27 -36 -90 -144 -138 -240 -49 -96 -106 -209 -127 -250 -44
-85 -94 -194 -91 -197 2 -1 21 2 42 7 22 5 103 21 180 36 210 38 208 38 234
85 19 34 23 51 18 93 -3 28 -8 58 -12 67 -5 13 2 18 32 24 81 15 140 90 190
243 26 79 28 82 58 82 51 0 91 31 162 125 38 49 81 96 96 103 l27 13 -50 40
c-28 22 -64 59 -82 82 -47 64 -142 269 -182 392 -84 262 -101 366 -90 550 l7
120 12 -70 c44 -244 151 -549 276 -783 58 -109 165 -271 258 -392 74 -96 290
-314 372 -376 30 -22 88 -65 129 -96 99 -73 324 -182 442 -213 111 -29 280
-49 346 -40 211 28 223 30 387 82 196 62 444 221 616 395 248 250 479 616 603
953 56 152 82 246 116 415 27 132 28 134 35 88 4 -26 5 -55 1 -63 -3 -9 -2
-13 4 -10 16 10 12 -122 -6 -216 -34 -187 -154 -534 -227 -659 -51 -89 -94
-143 -128 -162 l-38 -21 32 -21 c28 -19 64 -59 170 -189 25 -31 46 -47 60 -47
19 0 29 -15 61 -90 24 -57 54 -108 82 -139 45 -50 113 -91 152 -91 19 0 20 -3
12 -26 -6 -14 -10 -49 -10 -77 0 -63 24 -107 71 -130 31 -14 449 -90 457 -82
7 6 -47 101 -97 170 -92 128 -198 290 -242 367 -81 147 -226 318 -268 318 -7
0 -11 3 -9 8 34 66 65 146 103 267 118 370 135 643 54 859 -23 63 -84 165
-120 204 l-26 27 18 115 c53 344 62 445 56 685 l-6 230 19 -52 c29 -82 43
-195 44 -366 1 -135 3 -156 16 -151 8 3 40 15 70 25 29 11 58 25 62 32 5 7 8
-1 8 -20 0 -50 36 -222 65 -314 50 -159 99 -217 200 -235 47 -8 65 -20 65 -43
0 -40 24 -96 57 -132 93 -103 409 -195 589 -171 42 6 81 15 87 21 16 16 -15
44 -80 70 -32 13 -114 53 -182 90 -126 67 -173 105 -305 249 -51 55 -102 84
-148 84 l-26 -1 25 37 c18 28 23 45 19 70 -9 57 -157 374 -177 379 -17 5 -16
7 4 35 17 23 22 43 22 89 -1 55 -7 73 -74 203 -83 161 -171 290 -222 324 -28
20 -44 23 -97 20 l-63 -3 -14 53 c-8 28 -22 78 -30 110 -26 94 -56 163 -101
233 -46 69 -165 190 -234 235 -39 26 -40 28 -23 47 16 17 18 39 17 171 0 128
-4 169 -28 271 -16 66 -37 143 -47 170 -10 28 -19 51 -19 52 0 1 12 -2 27 -8
15 -5 119 -12 231 -15 228 -5 262 0 427 63 293 111 538 387 630 708 80 277 87
584 18 756 -9 24 -41 77 -71 119 l-54 75 43 5 c38 4 44 9 47 30 4 40 -43 166
-102 270 -93 163 -253 325 -385 389 -67 32 -76 40 -79 66 -20 163 -272 357
-615 470 -239 79 -463 112 -696 102 -208 -9 -296 -41 -403 -148 -38 -37 -68
-71 -68 -77 0 -5 12 -12 28 -15 19 -4 35 -18 50 -45 35 -62 29 -101 -27 -195
-27 -45 -58 -102 -69 -127 -20 -47 -42 -110 -38 -110 2 0 36 18 77 39 41 22
103 47 139 57 81 21 274 24 380 5 84 -15 219 -60 295 -98 68 -35 201 -132 250
-183 73 -78 109 -98 159 -93 66 8 80 -19 85 -164 3 -113 3 -114 31 -128 82
-42 118 -167 97 -333 l-8 -64 23 16 c12 9 37 16 55 16 26 0 37 -6 52 -31 63
-103 39 -374 -50 -558 -51 -105 -148 -207 -224 -235 -146 -55 -274 -148 -346
-252 l-31 -46 -77 76 c-79 78 -123 113 -228 184 -34 23 -71 55 -83 72 -37 52
-88 220 -110 366 -64 422 -85 508 -159 642 -85 155 -246 326 -386 411 -60 37
-80 36 -45 -1 46 -47 142 -185 170 -243 58 -120 95 -356 81 -517 -11 -123 -43
-132 -203 -54 -104 50 -222 86 -283 86 -69 0 -166 -29 -275 -80 -58 -27 -125
-52 -150 -56 -39 -5 -49 -3 -72 19 -36 34 -44 95 -29 243 24 249 89 398 239
554 42 43 68 80 58 80 -3 0 -36 -17 -73 -37 -119 -66 -337 -309 -412 -460 -60
-121 -76 -190 -131 -568 -27 -186 -33 -207 -75 -297 -46 -99 -74 -133 -186
-226 -52 -44 -115 -102 -138 -128 -41 -47 -43 -48 -57 -29 -30 41 -119 127
-159 155 -23 16 -89 48 -146 72 -91 37 -112 50 -169 108 -77 77 -136 183 -176
315 -24 80 -27 107 -28 235 -1 125 2 150 17 174 16 24 24 27 55 23 21 -3 46
-8 57 -11 20 -7 20 -5 11 74 -19 157 22 277 103 301 l39 11 1 98 c3 164 18
193 95 184 57 -7 59 -5 208 127 68 61 212 153 293 188 98 41 205 63 345 68
162 7 231 -7 332 -67 36 -22 69 -40 73 -40 24 0 -52 176 -134 310 -36 59 -22
113 43 167 l35 29 -40 47 c-50 58 -159 124 -247 149 -74 21 -321 32 -402 18z
m1295 -2470 c8 -13 -5 -13 -25 0 -13 8 -13 10 2 10 9 0 20 -4 23 -10z m52 -7
c-15 -2 -25 -9 -22 -14 4 -5 1 -9 -4 -9 -12 0 -14 13 -4 23 3 4 18 6 32 6 26
-2 26 -2 -2 -6z m-592 -24 c-4 -5 -13 -9 -21 -9 -8 0 -14 -3 -14 -8 0 -17 -41
-33 -58 -22 -14 9 -13 10 7 4 17 -4 21 -3 16 6 -9 15 12 30 43 30 15 0 21 4
16 12 -4 7 -3 8 5 4 6 -4 9 -12 6 -17z m232 15 c-3 -3 -12 -4 -19 -1 -8 3 -5
6 6 6 11 1 17 -2 13 -5z m196 -1 c-7 -2 -19 -2 -25 0 -7 3 -2 5 12 5 14 0 19
-2 13 -5z m77 -3 c11 -7 5 -10 -25 -11 -32 0 -36 -2 -20 -9 25 -11 -212 -12
-239 -1 -10 4 21 6 70 4 57 -3 107 1 139 10 28 8 52 15 55 16 3 0 12 -4 20 -9z
m-410 -16 c0 -2 -9 -4 -21 -4 -11 0 -18 4 -14 10 5 8 35 3 35 -6z m78 9 c-10
-2 -26 -2 -35 0 -10 3 -2 5 17 5 19 0 27 -2 18 -5z m-294 -21 c3 -5 -19 -8
-47 -9 -38 0 -45 2 -27 8 35 10 68 11 74 1z m276 0 c0 -9 -201 -45 -208 -37
-3 3 2 5 11 5 10 0 17 4 17 8 0 4 24 9 53 10 28 1 66 6 82 11 39 12 45 12 45
3z m388 -9 c-10 -2 -26 -2 -35 0 -10 3 -2 5 17 5 19 0 27 -2 18 -5z m339 1
c-3 -3 -12 -4 -19 -1 -8 3 -5 6 6 6 11 1 17 -2 13 -5z m-1111 -19 c-5 -14 2
-17 69 -31 11 -2 14 -1 7 2 -10 5 -10 9 -1 20 8 9 8 14 1 14 -6 0 -14 -4 -17
-10 -3 -5 -14 -10 -23 -10 -15 1 -14 3 3 16 21 16 61 12 103 -10 23 -12 20
-14 -44 -35 -79 -26 -192 -81 -283 -137 -68 -42 -218 -158 -238 -183 -8 -10
-15 -12 -20 -6 -5 6 -14 10 -22 10 -8 0 -15 6 -17 13 -1 7 0 8 3 2 7 -16 26
-12 20 4 -4 11 -1 13 10 9 12 -5 14 -3 8 7 -5 9 -4 11 4 6 9 -6 9 -11 0 -22
-7 -8 -7 -14 -1 -14 16 0 34 27 22 35 -5 3 -10 11 -10 18 0 6 7 2 16 -9 14
-18 15 -18 9 6 -5 20 -4 22 5 10 9 -13 12 -13 23 1 6 8 20 18 30 22 10 4 16
11 12 16 -3 5 0 13 6 17 8 4 9 3 5 -4 -12 -20 13 -13 31 8 10 11 23 20 29 20
15 0 37 27 27 32 -4 3 -2 3 6 1 15 -4 100 47 101 60 0 5 -9 5 -20 2 -11 -3
-20 -2 -20 3 0 10 73 28 96 24 5 -1 10 10 10 24 0 27 -11 28 -86 10 -14 -3
-19 -4 -12 0 6 3 10 10 7 15 -7 10 57 39 99 44 15 2 31 6 34 9 11 12 24 5 18
-9z m938 -6 c23 -10 -14 -5 -94 11 -42 9 -41 9 14 4 33 -3 69 -10 80 -15z
m296 -9 c8 -5 11 -10 5 -10 -5 0 -17 5 -25 10 -8 5 -10 10 -5 10 6 0 17 -5 25
-10z m-145 -31 c22 -11 31 -17 20 -13 -11 3 -47 12 -80 21 -33 8 -62 17 -65
20 -12 12 88 -11 125 -28z m-1280 -9 c-3 -5 -12 -10 -18 -10 -7 0 -6 4 3 10
19 12 23 12 15 0z m95 -10 c0 -5 -8 -10 -17 -10 -15 0 -16 2 -3 10 19 12 20
12 20 0z m1274 -19 c4 -5 -3 -7 -14 -4 -23 6 -26 13 -6 13 8 0 17 -4 20 -9z
m-1439 -31 c-3 -5 -12 -10 -18 -10 -7 0 -6 4 3 10 19 12 23 12 15 0z m1745
-34 c0 0 -12 -2 -28 -2 -15 -1 -21 1 -14 3 10 4 10 8 0 21 -10 12 -7 12 15 -2
15 -10 27 -19 27 -20z m-1916 -71 c-4 -8 -11 -15 -16 -15 -6 0 -5 6 2 15 7 8
14 15 16 15 2 0 1 -7 -2 -15z m1837 -12 c13 -16 12 -17 -3 -4 -10 7 -18 15
-18 17 0 8 8 3 21 -13z m-1811 -33 c0 -5 -5 -10 -11 -10 -5 0 -7 5 -4 10 3 6
8 10 11 10 2 0 4 -4 4 -10z m2051 -47 c13 -16 12 -17 -3 -4 -10 7 -18 15 -18
17 0 8 8 3 21 -13z m45 -60 c17 -27 17 -28 -1 -13 -17 14 -18 13 -11 -5 4 -11
3 -16 -1 -11 -7 6 -13 56 -7 56 1 0 10 -12 20 -27z m-2136 -10 c0 -6 -27 -33
-34 -33 -3 0 -10 8 -15 18 -8 15 -5 17 20 18 16 1 29 0 29 -3z m-94 -105 c-31
-35 -56 -67 -56 -71 0 -5 -6 -14 -12 -22 -7 -7 -35 -45 -61 -85 -27 -39 -51
-70 -52 -68 -7 7 45 152 61 169 9 10 13 22 10 27 -3 5 0 17 8 27 11 16 13 14
13 -14 0 -17 -5 -31 -11 -31 -6 0 -5 -5 2 -12 10 -10 15 -10 22 2 13 20 12 30
0 30 -6 0 -8 11 -4 25 4 16 2 25 -6 25 -7 0 -6 6 4 16 9 8 14 20 11 25 -4 5
-2 9 4 9 5 0 13 -9 16 -20 4 -11 11 -18 16 -15 5 4 9 1 9 -5 0 -6 -11 -8 -25
-6 -15 3 -23 1 -20 -5 4 -5 11 -7 16 -4 5 4 9 -2 9 -11 0 -14 3 -13 20 6 16
18 17 26 8 44 -10 19 -10 20 6 7 22 -18 31 -8 11 13 -17 16 -10 21 24 17 8 -2
10 3 6 11 -4 7 0 5 10 -4 17 -16 15 -20 -39 -80z m2187 49 c4 3 7 4 7 0 0 -17
-20 -14 -36 6 -19 22 -19 22 2 4 11 -9 24 -14 27 -10z m96 -24 c6 -12 7 -24 3
-27 -5 -3 -9 0 -9 7 0 7 -4 21 -8 32 -10 25 -2 18 14 -12z m-69 -25 c0 -5 5
-6 10 -3 6 3 10 4 10 1 0 -15 -20 -13 -36 5 -16 18 -16 19 -1 13 9 -3 17 -10
17 -16z m58 -33 c-3 -3 -9 2 -12 12 -6 14 -5 15 5 6 7 -7 10 -15 7 -18z m52
-29 c0 -6 -7 -1 -15 10 -8 10 -14 26 -14 34 0 16 28 -28 29 -44z m-79 17 c13
-16 12 -17 -3 -4 -10 7 -18 15 -18 17 0 8 8 3 21 -13z m113 -130 c2 -15 7 -37
10 -48 4 -11 -2 -4 -12 15 -11 19 -17 41 -14 49 3 9 1 12 -5 8 -7 -5 -9 0 -6
14 5 18 7 19 15 6 4 -9 10 -28 12 -44z m149 -717 c66 -31 198 -190 181 -217
-4 -7 -3 -9 3 -6 6 4 20 -14 31 -41 65 -151 101 -451 85 -701 l-8 -126 -6 75
c-3 52 -5 27 -5 -80 -1 -202 -31 -372 -135 -765 -126 -470 -230 -722 -427
-1023 l-80 -123 -16 47 c-19 56 -19 57 -7 49 5 -3 12 3 15 12 2 10 5 5 4 -12
-1 -68 2 -79 14 -67 7 7 8 15 1 24 -5 7 -7 24 -3 38 8 28 -13 80 -33 80 -7 1
-5 6 6 14 9 7 17 21 17 30 0 13 51 117 121 246 41 75 83 189 202 540 17 49 12
60 -24 65 -13 1 -42 7 -64 12 -54 12 -72 7 -80 -24 -3 -14 -7 -24 -9 -22 -2 2
7 45 19 94 13 50 21 92 18 95 -7 7 -22 -21 -35 -65 -7 -22 -14 -42 -18 -45 -3
-3 -6 -14 -6 -25 -1 -11 -9 -45 -18 -75 -15 -53 -16 -53 -12 -14 1 23 6 46 10
52 4 7 9 31 12 54 3 24 9 45 13 48 5 3 11 14 15 25 5 19 2 20 -54 18 l-60 -1
0 36 c0 21 12 98 26 172 43 233 56 391 51 645 -4 227 -11 285 -52 438 -22 83
-56 150 -85 166 -62 33 -187 -48 -214 -140 -16 -51 -9 -159 13 -239 19 -64 59
-324 65 -415 4 -49 9 -122 12 -162 l6 -72 -34 -21 c-36 -22 -88 -26 -105 -9
-8 8 -8 20 -1 41 16 44 3 456 -16 538 -19 81 -47 163 -75 218 -12 24 -19 48
-15 55 4 7 4 9 -1 5 -11 -10 -58 59 -49 73 4 8 9 7 15 -2 6 -10 9 -10 9 -2 0
16 -17 26 -25 13 -3 -5 -34 19 -68 55 -59 62 -97 82 -97 51 0 -7 7 -19 15 -26
8 -7 15 -18 15 -24 0 -6 -7 -3 -14 7 -15 19 -31 24 -20 5 4 -6 3 -8 -3 -5 -6
4 -9 22 -7 42 1 19 -2 35 -7 35 -5 0 -9 -4 -9 -10 0 -5 -4 -10 -10 -10 -6 0
-5 10 2 25 6 14 14 21 18 16 3 -6 11 -1 18 10 10 15 10 20 0 24 -26 9 -87 12
-82 4 3 -5 -2 -9 -10 -9 -19 0 -48 -29 -41 -41 4 -5 15 -9 26 -9 21 0 26 -24
7 -36 -9 -6 -31 13 -40 36 -2 4 -14 11 -28 15 -24 6 -24 6 5 -18 17 -14 30
-31 30 -39 0 -7 5 -13 10 -13 6 0 16 -4 23 -8 6 -5 16 -6 21 -3 5 3 15 -1 22
-10 7 -8 8 -14 3 -13 -32 6 -31 -6 3 -38 21 -20 41 -36 45 -35 5 1 7 -1 7 -6
-3 -19 2 -33 11 -27 6 3 10 1 10 -4 0 -20 -13 -11 -66 48 -29 32 -76 75 -103
97 -36 27 -47 40 -38 47 7 5 4 6 -10 2 -12 -3 -24 -2 -27 3 -7 11 92 64 105
56 5 -3 9 -1 9 4 0 16 65 40 490 183 139 47 377 114 430 121 39 5 128 -9 163
-26z m-2591 9 c71 -15 625 -196 698 -229 19 -8 27 -15 18 -16 -22 0 -24 -19
-3 -27 13 -5 13 -8 -5 -20 -18 -12 -19 -17 -8 -31 7 -10 9 -14 4 -10 -14 11
-80 -28 -121 -71 -24 -25 -44 -37 -54 -34 -12 4 -13 3 -3 -5 11 -7 9 -16 -9
-46 -15 -25 -25 -34 -32 -27 -7 7 -6 15 3 26 8 10 9 15 1 15 -6 0 -11 -6 -11
-12 0 -9 -3 -8 -10 2 -5 8 -12 11 -17 7 -4 -5 -3 -11 2 -15 37 -26 37 -38 -3
-138 -76 -192 -96 -324 -90 -605 l4 -199 -29 0 c-35 0 -83 24 -91 46 -8 21 10
303 30 458 8 65 26 165 39 222 25 105 25 143 -2 196 -24 49 -74 97 -120 118
-88 39 -114 10 -162 -180 -50 -201 -64 -419 -41 -680 26 -301 47 -462 61 -471
11 -7 1 -39 -12 -39 -5 0 -9 8 -9 18 -1 9 -7 28 -15 42 l-14 25 0 -35 c1 -50
13 -88 23 -72 11 19 25 14 23 -8 -1 -16 -9 -20 -37 -21 -22 0 -29 -3 -19 -7 9
-4 15 -18 15 -33 -1 -15 4 -26 12 -26 9 0 12 8 7 26 -4 20 -3 22 5 11 8 -12
10 -13 10 -1 0 8 2 12 5 9 3 -3 -3 -26 -12 -52 -14 -37 -15 -50 -6 -65 7 -10
9 -22 5 -25 -9 -9 -73 174 -65 187 4 6 1 7 -7 2 -8 -5 -11 -3 -8 6 3 8 14 12
24 11 10 -2 16 -1 12 4 -4 4 -23 8 -43 9 -31 2 -33 1 -25 -15 14 -25 13 -30
-5 -24 -17 7 -19 -12 -8 -67 5 -28 7 -30 14 -14 7 17 8 18 8 3 1 -10 5 -18 10
-18 4 0 5 19 0 43 -4 24 -4 46 2 51 5 6 9 1 9 -13 0 -13 9 -55 21 -94 17 -59
19 -74 8 -94 -14 -26 1 -57 16 -32 5 8 4 10 -3 5 -7 -4 -12 -1 -12 8 0 29 18
26 29 -6 6 -17 11 -32 11 -33 0 -1 -10 -2 -22 -1 -13 1 -25 -2 -28 -6 -10 -14
-90 -27 -90 -14 0 6 -4 4 -10 -4 -5 -8 -11 -12 -13 -10 -8 11 -87 267 -87 283
0 11 -5 15 -11 11 -7 -4 -9 0 -5 14 6 19 -9 40 -20 29 -9 -9 44 -210 65 -252
12 -21 21 -47 21 -57 0 -9 4 -27 9 -40 5 -13 17 -50 26 -83 10 -33 29 -85 44
-115 18 -39 25 -69 24 -105 -1 -43 1 -47 12 -32 11 16 14 14 25 -15 7 -18 26
-62 42 -97 16 -34 27 -70 24 -78 -4 -11 -2 -13 9 -9 9 3 15 0 15 -7 0 -7 16
-40 36 -73 20 -32 44 -72 54 -89 51 -88 125 -203 148 -232 59 -71 74 -94 67
-101 -4 -4 -10 -1 -12 6 -10 27 -50 61 -60 51 -10 -10 -43 -2 -43 11 0 5 9 6
20 3 23 -6 28 15 6 23 -8 3 -13 11 -11 17 6 18 -49 57 -65 47 -11 -7 -10 -11
3 -25 10 -9 17 -22 17 -28 0 -6 -10 2 -22 18 -13 15 -32 38 -43 49 -11 11 -43
56 -72 101 -29 44 -56 85 -60 90 -48 60 -106 173 -99 191 3 8 2 12 -4 9 -14
-8 -42 53 -36 78 3 12 3 16 0 9 -8 -18 -57 66 -50 85 3 8 1 11 -4 8 -12 -7
-33 42 -24 56 3 5 0 9 -5 9 -6 0 -11 5 -11 11 0 5 4 7 10 4 6 -3 7 1 3 10 -4
12 -8 13 -13 5 -7 -11 -26 54 -21 74 1 5 -6 17 -15 27 -9 10 -16 30 -16 45 0
20 -3 23 -9 12 -9 -16 10 -78 24 -78 4 0 6 -4 3 -9 -10 -16 51 -173 125 -326
41 -82 73 -155 72 -162 0 -7 4 -11 9 -10 5 1 17 -17 27 -41 9 -23 20 -40 24
-36 7 7 11 -10 8 -34 -1 -6 6 -12 16 -13 12 0 14 -2 5 -6 -10 -4 -7 -9 10 -17
15 -7 24 -22 26 -41 3 -29 3 -29 -11 -10 -11 15 -12 22 -4 27 11 7 3 12 -15 9
-11 -1 -94 131 -143 229 -110 220 -252 634 -315 922 -67 309 -91 639 -71 1008
13 239 23 322 53 425 40 139 104 226 212 290 69 40 110 44 228 20z m1581 -302
c-7 -3 -9 -11 -6 -20 4 -11 2 -14 -8 -11 -8 3 -13 11 -11 18 2 7 -5 9 -20 5
-22 -6 -22 -5 1 9 14 7 32 11 40 8 9 -3 11 -7 4 -9z m-626 -23 c-16 -5 -35
-14 -43 -21 -8 -6 -14 -7 -14 -2 0 13 39 32 65 31 14 0 11 -2 -8 -8z m-140
-111 c-39 -41 -92 -95 -115 -122 -24 -26 -47 -47 -52 -47 -4 0 22 33 58 73 75
81 175 178 179 173 2 -1 -30 -36 -70 -77z m374 64 c-11 -5 -11 -7 0 -15 10 -6
7 -7 -8 -3 -26 7 -28 3 -12 -28 7 -12 8 -19 4 -15 -5 4 -14 3 -21 -3 -7 -6
-19 -7 -25 -3 -9 5 -5 10 10 16 12 4 19 13 16 18 -5 8 -11 7 -21 -1 -11 -9
-14 -8 -14 2 0 10 -3 10 -8 3 -4 -6 -18 -14 -32 -18 -19 -6 -21 -5 -10 3 8 6
11 11 5 11 -5 0 1 7 15 15 14 7 36 11 50 9 17 -4 21 -3 12 4 -9 6 -3 9 20 9
18 1 27 -2 19 -4z m-471 -7 c0 -2 -7 -7 -16 -10 -8 -3 -12 -2 -9 4 6 10 25 14
25 6z m-43 -31 c0 -8 -2 -13 -5 -11 -2 3 -15 -7 -29 -22 -25 -26 -14 -5 16 31
17 21 18 21 18 2z m437 -20 c-4 -8 -1 -15 5 -15 6 0 11 -5 11 -11 0 -8 -4 -9
-13 0 -8 6 -17 7 -22 3 -4 -4 -2 3 4 16 13 25 23 30 15 7z m239 -38 c26 -21
47 -45 47 -54 0 -8 4 -12 9 -8 5 3 12 2 15 -3 3 -5 -2 -9 -10 -9 -9 0 -20 10
-24 23 -5 12 -29 36 -54 53 -25 17 -48 36 -52 43 -10 16 13 1 69 -45z m-336
20 c0 -8 -6 -14 -14 -14 -9 0 -10 4 -2 14 6 7 12 13 14 13 1 0 2 -6 2 -13z
m43 9 c0 -2 -7 -7 -16 -10 -8 -3 -12 -2 -9 4 6 10 25 14 25 6z m234 -25 c-2
-3 -12 3 -22 13 -16 17 -16 18 5 5 12 -7 20 -15 17 -18z m385 15 c9 -11 9 -16
-1 -22 -7 -4 -10 -4 -6 1 4 4 3 14 -3 22 -6 7 -9 13 -6 13 2 0 10 -6 16 -14z
m-436 -67 c36 -39 66 -72 66 -75 3 -20 53 -103 66 -107 8 -4 15 -12 14 -19 0
-10 -2 -10 -6 0 -2 6 -9 9 -15 6 -11 -7 -18 2 -93 114 -31 45 -60 80 -66 77
-5 -4 -8 -1 -7 5 2 6 -6 18 -17 25 -17 12 -23 12 -39 0 -18 -14 -18 -16 -2
-40 9 -14 22 -23 28 -19 7 4 6 9 -3 15 -10 6 -10 9 -2 9 16 0 26 -17 13 -25
-6 -4 -8 -10 -5 -15 3 -5 0 -12 -6 -15 -6 -4 -13 2 -16 14 -3 12 -11 21 -19
21 -8 0 -11 6 -7 18 4 11 -5 7 -26 -13 -19 -18 -29 -35 -26 -44 3 -9 3 -12 -1
-8 -4 4 -13 2 -20 -4 -10 -8 -11 -16 -3 -31 8 -15 8 -19 -1 -13 -6 4 -26 -8
-46 -29 -19 -20 -28 -33 -20 -30 8 3 17 1 21 -5 3 -7 0 -8 -9 -5 -9 3 -16 1
-16 -6 0 -6 -4 -9 -9 -5 -6 3 -15 -3 -20 -14 -13 -24 -14 -42 -2 -22 11 17 31
6 30 -17 0 -14 -2 -14 -8 2 -6 14 -10 16 -15 7 -5 -7 -14 -10 -22 -7 -7 3 -16
0 -20 -6 -5 -7 -2 -8 7 -3 8 5 11 4 6 0 -11 -13 -47 -16 -47 -5 0 6 6 13 14
16 8 3 33 35 56 70 23 36 66 93 96 127 30 34 52 68 49 75 -3 7 -1 11 4 8 4 -3
19 6 31 19 13 14 29 25 35 25 7 0 42 -32 78 -71z m-3 41 c0 -6 -9 -2 -20 7
-11 10 -20 19 -20 21 0 1 9 -2 20 -8 11 -6 20 -15 20 -20z m-125 0 c-3 -5 -12
-7 -20 -3 -21 7 -19 13 6 13 11 0 18 -4 14 -10z m195 -21 c-9 -15 -8 -24 1
-35 9 -11 9 -14 -2 -14 -11 0 -11 -2 1 -10 12 -8 12 -10 1 -10 -25 0 -68 65
-49 76 6 4 8 3 5 -2 -3 -5 4 -21 15 -34 14 -18 18 -20 14 -7 -6 17 8 57 20 57
2 0 0 -9 -6 -21z m-580 7 c0 -2 -8 -10 -17 -17 -16 -13 -17 -12 -4 4 13 16 21
21 21 13z m220 -16 c-8 -5 -17 -7 -19 -4 -3 3 1 9 9 14 8 5 17 7 19 4 3 -3 -1
-9 -9 -14z m233 7 c7 3 8 2 4 -2 -14 -16 -36 -14 -29 3 4 10 7 12 10 4 2 -7 9
-9 15 -5z m-140 -19 c-6 -23 -6 -22 16 2 l23 25 -23 -40 c-12 -22 -37 -54 -55
-72 -19 -18 -34 -40 -34 -49 0 -16 -1 -16 -14 2 -8 10 -19 20 -25 20 -6 1 -18
2 -28 3 -15 1 -15 2 0 19 10 10 17 24 17 31 0 7 5 9 11 5 8 -4 8 -9 0 -17 -6
-6 -11 -18 -11 -26 1 -12 7 -9 22 9 20 24 20 24 14 3 -4 -13 -4 -23 1 -23 13
0 34 40 28 50 -4 6 0 10 7 10 10 0 9 3 -2 11 -12 8 -10 9 8 4 21 -6 23 -4 17
17 -4 15 -3 19 3 10 7 -11 10 -9 15 7 3 12 7 21 10 21 3 0 3 -10 0 -22z m321
6 c5 -14 4 -15 -9 -4 -10 8 -15 9 -15 1 0 -6 -5 -11 -11 -11 -8 0 -8 5 1 15
16 19 26 19 34 -1z m366 -15 c15 -28 5 -23 -15 7 -9 15 -12 23 -6 20 6 -4 16
-16 21 -27z m-1146 -14 c-9 -14 -18 -25 -21 -25 -5 0 5 18 20 38 17 22 18 13
1 -13z m328 -17 c-21 -39 -43 -59 -59 -53 -14 5 -22 -6 -28 -36 -2 -11 -7 -30
-10 -42 -6 -22 -6 -22 11 -2 16 20 16 20 11 -3 l-5 -23 24 25 c18 17 33 23 54
21 22 -3 28 0 23 11 -3 7 -1 14 5 14 6 0 9 -10 8 -22 -3 -26 -27 -68 -39 -68
-4 0 -5 -6 -1 -12 5 -9 2 -9 -9 1 -18 14 -23 26 -8 16 5 -3 12 -2 15 3 2 4 -8
8 -24 7 -22 0 -27 -4 -24 -19 2 -10 6 -21 10 -25 4 -3 4 3 0 14 -5 15 -4 17 4
9 29 -29 -31 -70 -82 -57 -18 5 -18 6 3 29 20 21 21 27 10 51 l-13 28 -10 -25
c-5 -13 -20 -39 -33 -56 -15 -20 -22 -39 -18 -53 8 -30 25 -26 23 7 -3 41 -1
49 10 32 5 -8 7 -25 4 -36 -3 -12 -1 -30 4 -41 5 -10 7 -24 5 -30 -7 -18 -33
-16 -33 2 0 8 5 15 10 15 19 0 10 16 -10 17 -11 1 -20 -2 -20 -8 0 -5 -5 -9
-12 -9 -9 0 -9 3 0 12 7 7 12 17 12 23 0 5 -7 2 -14 -8 -10 -13 -12 -27 -6
-47 8 -28 4 -170 -6 -219 -4 -20 -7 -22 -15 -10 -6 9 -9 0 -8 -31 0 -36 2 -41
10 -25 6 14 7 2 3 -35 -4 -30 -7 -84 -7 -120 0 -46 -2 -58 -8 -40 -4 14 -5
-58 -2 -159 4 -137 3 -182 -6 -177 -13 9 -14 200 -2 480 5 103 6 198 3 209 -5
20 -6 20 -13 1 -6 -16 -8 -15 -8 8 -1 15 3 29 8 33 6 3 9 13 9 23 -4 76 109
289 210 394 50 52 70 55 44 6z m73 32 c-3 -5 -13 -10 -21 -10 -8 0 -12 5 -9
10 3 6 13 10 21 10 8 0 12 -4 9 -10z m375 -14 c0 -3 -4 -8 -10 -11 -5 -3 -10
-1 -10 4 0 6 5 11 10 11 6 0 10 -2 10 -4z m-400 -16 c0 -5 -4 -10 -10 -10 -5
0 -10 5 -10 10 0 6 5 10 10 10 6 0 10 -4 10 -10z m500 -19 c11 -22 1 -34 -19
-22 -10 7 -10 10 -1 16 9 6 9 10 -1 16 -10 6 -10 9 -2 9 7 0 17 -9 23 -19z
m289 -32 c-27 -17 -65 -10 -90 19 l-24 27 26 -22 c25 -23 76 -33 64 -13 -4 6
1 7 11 3 13 -5 15 -2 10 18 l-6 24 12 -23 c9 -19 9 -25 -3 -33z m-1492 0 c-26
-17 -59 -45 -73 -62 l-26 -32 17 30 c16 28 99 95 119 95 5 0 -12 -14 -37 -31z
m311 6 c-3 -3 -9 2 -12 12 -6 14 -5 15 5 6 7 -7 10 -15 7 -18z m772 5 c0 -5
-4 -10 -9 -10 -6 0 -13 5 -16 10 -3 6 1 10 9 10 9 0 16 -4 16 -10z m169 -62
c-14 -27 -10 -34 7 -12 13 16 15 16 10 2 -3 -10 0 -17 5 -15 19 4 78 -115 119
-242 22 -68 38 -127 35 -130 -3 -3 -9 6 -13 19 -6 25 -6 25 -13 -5 -4 -22 -6
-16 -6 25 -1 53 -24 119 -40 112 -5 -2 -13 14 -20 35 -6 21 -12 32 -12 24 -1
-8 -4 -11 -7 -8 -4 4 0 17 8 29 11 18 12 28 2 46 -6 13 -14 22 -17 20 -3 -2
-17 9 -31 25 -14 15 -22 27 -18 27 4 0 -1 5 -11 11 -14 8 -17 18 -12 40 4 18
3 28 -3 27 -6 -2 -10 0 -11 5 -3 25 1 27 18 6 13 -17 16 -29 10 -41z m-426 34
c-3 -7 -9 -10 -12 -5 -3 4 -10 11 -15 15 -4 4 1 6 12 5 12 -1 18 -6 15 -15z
m341 2 c3 -8 2 -12 -4 -9 -6 3 -10 10 -10 16 0 14 7 11 14 -7z m-556 -12 c-9
-2 -19 -11 -21 -20 -3 -9 -4 -5 -4 9 1 21 5 25 22 20 16 -4 17 -6 3 -9z m272
8 c0 -5 -4 -10 -9 -10 -6 0 -13 5 -16 10 -3 6 1 10 9 10 9 0 16 -4 16 -10z
m256 -20 c15 3 15 -17 -1 -30 -13 -11 -15 -9 -15 10 0 18 -3 20 -14 11 -10 -9
-15 -8 -19 3 -4 10 -1 13 9 9 8 -3 14 1 14 8 0 12 2 12 9 1 4 -8 12 -13 17
-12z m-79 -38 c19 -25 19 -28 3 -28 -10 0 -16 6 -13 13 3 7 1 13 -5 13 -5 0
-12 -7 -16 -15 -3 -8 -11 -15 -17 -15 -8 0 -6 7 4 18 10 10 17 24 17 30 0 17
4 15 27 -16z m-270 12 c-3 -3 -12 -4 -19 -1 -8 3 -5 6 6 6 11 1 17 -2 13 -5z
m369 -31 c-10 -10 -19 5 -10 18 6 11 8 11 12 0 2 -7 1 -15 -2 -18z m-1271 -45
c-21 -66 -26 -76 -21 -43 5 34 23 85 30 85 3 0 -1 -19 -9 -42z m856 -5 c-12
-20 -14 -14 -5 12 4 9 9 14 11 11 3 -2 0 -13 -6 -23z m-884 -110 c-3 -10 -5
-4 -5 12 0 17 2 24 5 18 2 -7 2 -21 0 -30z m2090 -5 c-3 -8 -6 -5 -6 6 -1 11
2 17 5 13 3 -3 4 -12 1 -19z m-1056 -38 c5 0 9 -281 9 -710 l0 -710 -22 4
c-27 4 -29 29 -28 274 1 99 -2 142 -9 137 -8 -4 -10 33 -9 117 l2 123 6 -85 6
-85 2 117 c1 69 -2 119 -8 123 -5 3 -10 42 -10 86 0 104 19 96 22 -9 1 -64 2
-70 7 -32 3 25 6 -82 7 -237 0 -156 -3 -283 -8 -283 -4 0 -8 -18 -8 -40 0 -23
5 -40 11 -40 8 0 9 -26 6 -82 -5 -74 -5 -77 4 -28 5 30 7 80 4 110 -2 30 -1
47 3 38 8 -19 6 1167 -2 1217 -3 17 -3 22 0 13 3 -10 10 -18 15 -18z m46 -247
c3 -163 9 -273 15 -281 7 -7 8 -31 3 -60 -3 -26 -8 -146 -10 -267 -2 -121 -6
-275 -9 -343 -4 -113 -3 -124 15 -135 10 -6 19 -15 19 -20 0 -4 -4 -6 -9 -2
-5 3 -11 -9 -13 -27 -2 -17 -9 -33 -15 -36 -10 -3 -14 50 -15 240 -4 370 -4
408 5 471 5 44 4 57 -4 51 -9 -5 -11 31 -6 152 4 87 7 244 7 348 0 104 3 187
6 183 3 -3 8 -126 11 -274z m20 240 c-3 -10 -5 -4 -5 12 0 17 2 24 5 18 2 -7
2 -21 0 -30z m370 -5 c-3 -7 -5 -2 -5 12 0 14 2 19 5 13 2 -7 2 -19 0 -25z
m-1480 -40 c-2 -13 -4 -5 -4 17 -1 22 1 32 4 23 2 -10 2 -28 0 -40z m1015 27
c3 -13 1 -22 -3 -19 -9 5 -13 44 -5 44 2 0 6 -11 8 -25z m127 -284 c2 -132 -6
-70 -12 89 -4 112 -3 132 3 70 4 -47 8 -118 9 -159z m-1152 117 c-2 -13 -4 -3
-4 22 0 25 2 35 4 23 2 -13 2 -33 0 -45z m1120 -5 c-3 -10 -5 -2 -5 17 0 19 2
27 5 18 2 -10 2 -26 0 -35z m-100 -135 c-2 -24 -4 -5 -4 42 0 47 2 66 4 43 2
-24 2 -62 0 -85z m552 15 c-2 -54 -2 -55 -8 -18 -6 38 -3 75 5 75 2 0 3 -26 3
-57z m-1576 -98 c2 -66 1 -106 -3 -90 -8 30 -13 222 -6 214 2 -2 6 -58 9 -124z
m1138 -35 c5 0 9 -18 9 -40 0 -22 -4 -40 -10 -40 -5 0 -10 10 -10 23 0 12 -2
45 -4 72 -2 28 -1 35 1 18 2 -18 8 -33 14 -33z m429 -7 c-11 -17 -11 -17 -6 0
3 10 7 26 7 35 1 15 2 15 6 0 2 -10 -1 -25 -7 -35z m87 -60 c-3 -10 -5 -2 -5
17 0 19 2 27 5 18 2 -10 2 -26 0 -35z m-1602 -370 c10 -62 13 -108 8 -118 -7
-11 -9 -5 -10 22 -2 54 -4 70 -18 143 -7 36 -15 110 -18 165 l-5 100 13 -105
c8 -58 21 -151 30 -207z m1095 258 c0 -11 -4 -23 -10 -26 -6 -4 -10 5 -10 19
0 14 5 26 10 26 6 0 10 -9 10 -19z m-553 -53 c-3 -8 -6 -5 -6 6 -1 11 2 17 5
13 3 -3 4 -12 1 -19z m543 -48 c0 -22 -4 -40 -10 -40 -5 0 -10 18 -10 40 0 22
5 40 10 40 6 0 10 -18 10 -40z m1006 -27 c-4 -16 -8 -48 -11 -73 -3 -25 -9
-58 -15 -75 -9 -28 -10 -27 -5 10 3 22 8 68 12 103 3 34 10 62 15 62 5 0 7
-12 4 -27z m-1528 -21 c-20 -4 -25 -22 -5 -22 6 0 21 7 31 15 28 21 45 19 19
-2 -17 -14 -19 -21 -10 -46 5 -17 12 -24 17 -18 4 7 21 -3 47 -28 22 -22 38
-42 35 -45 -8 -8 -10 -76 -4 -126 5 -39 7 -42 13 -20 l7 25 7 -22 c4 -13 11
-23 16 -23 5 0 6 -7 3 -15 -7 -17 14 -85 26 -85 5 0 10 6 13 13 2 6 4 -3 4
-20 0 -18 -2 -33 -4 -33 -1 0 -15 19 -30 43 -15 23 -31 44 -34 47 -3 3 -16 32
-28 64 -20 54 -56 136 -100 225 -9 18 -24 36 -33 39 -11 2 -18 14 -18 27 0 19
4 22 23 17 18 -5 19 -7 5 -10z m220 -34 c-3 -38 -6 -43 -28 -43 -16 0 -26 -6
-28 -17 -5 -24 -22 -23 -22 1 0 20 -18 31 -51 31 -10 0 -19 7 -19 15 0 10 11
15 35 15 28 0 35 4 35 20 0 17 7 20 41 20 l40 0 -3 -42z m742 7 c-7 -9 -15
-13 -19 -10 -3 3 1 10 9 15 21 14 24 12 10 -5z m87 -32 c-3 -10 -5 -4 -5 12 0
17 2 24 5 18 2 -7 2 -21 0 -30z m-747 -53 l0 -40 -60 0 c-33 0 -60 3 -60 6 0
11 28 33 34 27 3 -4 6 6 6 20 0 25 3 27 40 27 l40 0 0 -40z m603 12 c-3 -12
-9 -22 -13 -22 -5 0 -11 -14 -15 -31 -6 -28 -36 -94 -83 -186 -9 -18 -20 -33
-24 -33 -14 0 -8 20 12 42 11 12 20 29 20 38 0 9 4 20 9 26 5 5 13 27 17 49 6
36 6 39 -9 27 -9 -8 -18 -26 -20 -40 -3 -22 -4 -20 -6 9 -1 28 6 44 28 68 16
17 36 31 45 31 9 0 16 6 16 13 0 13 21 39 26 34 2 -2 1 -13 -3 -25z m-1663 14
c0 -3 -4 -8 -10 -11 -5 -3 -10 -1 -10 4 0 6 5 11 10 11 6 0 10 -2 10 -4z m920
-78 c0 -7 -5 -20 -10 -28 -8 -12 -10 -9 -10 13 0 15 5 27 10 27 6 0 10 -6 10
-12z m1331 -58 c-6 -28 -11 -65 -11 -83 -1 -25 -3 -28 -10 -16 -9 15 4 131 17
151 12 21 14 -4 4 -52z m-1288 29 c7 -25 -2 -51 -14 -43 -12 7 -12 64 0 64 5
0 11 -9 14 -21z m304 -26 c-3 -10 -5 -4 -5 12 0 17 2 24 5 18 2 -7 2 -21 0
-30z m-370 -25 c-3 -7 -5 -2 -5 12 0 14 2 19 5 13 2 -7 2 -19 0 -25z m1460 16
c-3 -4 -1 -16 5 -28 7 -11 11 -25 9 -31 -2 -5 -5 -21 -8 -35 -7 -41 -14 -37
-10 5 3 22 1 49 -3 61 -8 20 -4 34 8 34 3 0 2 -3 -1 -6z m-2140 -36 c-3 -7 -5
-2 -5 12 0 14 2 19 5 13 2 -7 2 -19 0 -25z m1080 -90 c-2 -24 -4 -5 -4 42 0
47 2 66 4 43 2 -24 2 -62 0 -85z m223 112 c0 -5 -5 -10 -11 -10 -5 0 -7 5 -4
10 3 6 8 10 11 10 2 0 4 -4 4 -10z m277 -12 c-3 -8 -6 -5 -6 6 -1 11 2 17 5
13 3 -3 4 -12 1 -19z m-1140 -50 c-2 -13 -4 -5 -4 17 -1 22 1 32 4 23 2 -10 2
-28 0 -40z m-564 -13 c-3 -9 -8 -14 -10 -11 -3 3 -2 9 2 15 9 16 15 13 8 -4z
m1054 -32 c-3 -10 -5 -4 -5 12 0 17 2 24 5 18 2 -7 2 -21 0 -30z m383 27 c0
-5 -2 -10 -4 -10 -3 0 -8 5 -11 10 -3 6 -1 10 4 10 6 0 11 -4 11 -10z m885
-30 c-9 -41 -17 -33 -9 9 4 17 9 30 11 27 3 -2 2 -19 -2 -36z m-925 -14 c0
-29 -3 -34 -23 -32 -18 1 -23 6 -19 19 4 15 7 16 14 5 7 -9 8 -4 4 15 -5 20
-3 27 9 27 10 0 15 -10 15 -34z m-1371 -46 c0 -8 -7 -1 -14 15 -8 17 -14 37
-14 45 0 8 7 2 14 -15 8 -16 14 -37 14 -45z m2098 28 c-3 -7 -5 -2 -5 12 0 14
2 19 5 13 2 -7 2 -19 0 -25z m-546 -15 c-12 -20 -14 -14 -5 12 4 9 9 14 11 11
3 -2 0 -13 -6 -23z m-157 -5 c-4 -13 -16 -35 -28 -49 -11 -14 -28 -36 -36 -48
-15 -23 -102 -91 -115 -91 -5 0 0 9 10 20 10 11 22 20 27 20 17 0 73 73 72 94
-1 12 5 27 12 34 8 8 14 8 14 2 0 -18 16 -10 30 15 17 31 24 32 14 3z m-1245
-53 c0 -5 -4 -3 -9 5 -5 8 -9 22 -9 30 0 16 17 -16 18 -35z m2031 -101 c-28
-71 -53 -130 -54 -132 -2 -1 -3 11 -2 27 1 16 4 27 7 26 9 -6 31 64 24 75 -4
6 -1 9 7 8 9 -2 12 7 11 31 -1 21 2 29 7 21 6 -9 10 -6 16 11 4 13 7 28 6 32
-2 8 21 37 26 32 2 -2 -20 -61 -48 -131z m-643 94 c-3 -7 -5 -2 -5 12 0 14 2
19 5 13 2 -7 2 -19 0 -25z m-1375 -37 c2 -17 1 -28 -4 -25 -8 5 -12 54 -4 54
2 0 6 -13 8 -29z m769 -16 c0 6 4 0 9 -12 5 -13 18 -23 29 -23 11 0 22 -4 25
-9 3 -5 -8 -8 -26 -7 -19 1 -35 9 -42 20 -6 11 -19 28 -28 38 -10 10 -18 23
-18 30 0 6 11 -2 25 -18 14 -16 25 -24 26 -19z m216 23 c-3 -8 -6 -5 -6 6 -1
11 2 17 5 13 3 -3 4 -12 1 -19z m35 -66 c6 -7 8 -15 4 -19 -12 -12 -19 6 -21
54 -1 28 0 33 2 13 3 -19 9 -41 15 -48z m122 80 c-5 -4 -17 -15 -26 -24 -15
-16 -16 -16 -14 5 1 16 8 23 25 24 13 0 20 -2 15 -5z m-1263 -39 c-12 -20 -14
-14 -5 12 4 9 9 14 11 11 3 -2 0 -13 -6 -23z m979 -13 c0 -5 -4 -10 -10 -10
-5 0 -10 5 -10 10 0 6 5 10 10 10 6 0 10 -4 10 -10z m-40 -50 c0 -14 28 -12
33 3 2 6 4 0 4 -14 0 -26 0 -27 -28 -10 -29 16 -38 31 -19 31 6 0 10 -4 10
-10z m510 -37 c-11 -17 -11 -17 -6 0 3 10 6 24 7 30 0 9 2 9 5 0 3 -7 0 -20
-6 -30z m544 3 c-3 -15 -8 -25 -11 -23 -2 3 -1 17 3 31 3 15 8 25 11 23 2 -3
1 -17 -3 -31z m-840 13 c-7 -13 -44 -17 -44 -6 0 7 11 12 24 12 13 0 22 -3 20
-6z m280 -73 c-3 -15 -8 -25 -11 -23 -2 3 -1 17 3 31 3 15 8 25 11 23 2 -3 1
-17 -3 -31z m637 -53 c-12 -20 -14 -14 -5 12 4 9 9 14 11 11 3 -2 0 -13 -6
-23z m-474 -5 c-3 -8 -6 -5 -6 6 -1 11 2 17 5 13 3 -3 4 -12 1 -19z m360 0
c-3 -8 -6 -5 -6 6 -1 11 2 17 5 13 3 -3 4 -12 1 -19z m-550 -20 c-3 -8 -6 -5
-6 6 -1 11 2 17 5 13 3 -3 4 -12 1 -19z m530 -50 c-3 -8 -6 -5 -6 6 -1 11 2
17 5 13 3 -3 4 -12 1 -19z m-363 -72 c-3 -21 -8 -35 -11 -32 -2 2 -1 20 3 40
3 21 8 35 11 32 2 -2 1 -20 -3 -40z m-216 -27 c-6 -16 -12 -28 -14 -26 -5 5
13 57 20 57 3 0 0 -14 -6 -31z m-618 -34 c0 -5 -5 -3 -10 5 -5 8 -10 20 -10
25 0 6 5 3 10 -5 5 -8 10 -19 10 -25z m597 -27 c-3 -8 -6 -5 -6 6 -1 11 2 17
5 13 3 -3 4 -12 1 -19z m-568 -43 c0 -5 -6 1 -14 15 -8 14 -14 30 -14 35 0 6
6 -1 14 -15 8 -14 14 -29 14 -35z m-112 -127 c-3 -8 -6 -5 -6 6 -1 11 2 17 5
13 3 -3 4 -12 1 -19z m840 -30 c-3 -8 -6 -5 -6 6 -1 11 2 17 5 13 3 -3 4 -12
1 -19z m-820 -20 c-3 -8 -6 -5 -6 6 -1 11 2 17 5 13 3 -3 4 -12 1 -19z m1413
2 c0 -5 -5 -10 -11 -10 -5 0 -7 5 -4 10 3 6 8 10 11 10 2 0 4 -4 4 -10z m-613
-52 c-3 -8 -6 -5 -6 6 -1 11 2 17 5 13 3 -3 4 -12 1 -19z m581 2 c-7 -10 -14
-17 -17 -15 -4 4 18 35 25 35 2 0 -1 -9 -8 -20z m-2055 -65 c-2 -8 5 -20 16
-27 12 -7 21 -19 21 -26 0 -7 5 -10 12 -6 6 4 8 3 5 -3 -4 -6 0 -14 8 -17 8
-3 14 -11 13 -18 -2 -7 3 -12 10 -10 8 1 11 -2 8 -7 -3 -5 0 -11 8 -14 8 -3
21 -18 28 -34 8 -15 20 -27 27 -25 7 1 10 -2 6 -8 -9 -14 107 -133 183 -187
73 -52 84 -69 15 -22 -70 47 -254 231 -248 247 2 7 1 11 -4 8 -15 -10 -135
139 -125 155 3 5 1 8 -4 7 -6 -2 -10 0 -11 5 -3 25 1 28 18 13 11 -10 17 -24
14 -31z m734 -47 c-3 -8 -6 -5 -6 6 -1 11 2 17 5 13 3 -3 4 -12 1 -19z m-612
2 c3 -5 1 -10 -4 -10 -6 0 -11 5 -11 10 0 6 2 10 4 10 3 0 8 -4 11 -10z m1929
-35 c-4 -8 -11 -15 -16 -15 -6 0 -5 6 2 15 7 8 14 15 16 15 2 0 1 -7 -2 -15z
m-120 -40 c-6 -14 -2 -16 35 -19 8 -1 16 -7 17 -14 1 -7 0 -8 -2 -3 -3 6 -19
-5 -35 -24 -19 -21 -36 -32 -45 -28 -9 3 -14 0 -12 -7 2 -6 -6 -17 -17 -23
-11 -7 -28 -21 -38 -32 -14 -15 -20 -16 -26 -7 -6 9 -23 -2 -59 -39 -82 -83
-70 -52 14 37 188 197 179 188 168 159z m74 1 c-7 -8 -15 -12 -17 -11 -5 6 10
25 20 25 5 0 4 -6 -3 -14z m-617 -33 c-12 -20 -14 -14 -5 12 4 9 9 14 11 11 3
-2 0 -13 -6 -23z m-552 -92 c-2 -6 -10 2 -17 17 -11 25 -11 25 4 10 9 -9 15
-21 13 -27z m-569 23 c0 -8 -19 -13 -24 -6 -3 5 1 9 9 9 8 0 15 -2 15 -3z
m1083 -9 c-3 -9 -8 -14 -10 -11 -3 3 -2 9 2 15 9 16 15 13 8 -4z m-1063 -15
c0 -5 -4 -10 -10 -10 -5 0 -10 5 -10 10 0 6 5 10 10 10 6 0 10 -4 10 -10z
m108 -92 l16 -23 -25 20 c-13 11 -28 26 -32 33 -5 7 -13 9 -19 6 -7 -4 -8 -2
-4 5 9 14 40 -6 64 -41z m922 44 c0 -5 -7 -17 -15 -28 -14 -18 -14 -17 -4 9
12 27 19 34 19 19z m-440 -22 c6 -11 8 -20 6 -20 -3 0 -10 9 -16 20 -6 11 -8
20 -6 20 3 0 10 -9 16 -20z m1029 17 c-2 -1 -13 -9 -24 -17 -19 -14 -19 -14
-6 3 7 9 18 17 24 17 6 0 8 -1 6 -3z m1016 -117 c27 -36 53 -71 59 -79 16 -21
-24 2 -46 26 -18 20 -78 120 -78 130 0 9 8 -1 65 -77z m-3677 29 c-31 -57
-100 -129 -123 -129 -16 0 -13 6 15 38 67 73 124 132 127 132 2 0 -7 -19 -19
-41z m1996 -43 c-20 -31 -39 -56 -42 -56 -2 0 4 12 14 28 9 15 27 41 38 59 11
17 22 30 24 28 2 -2 -13 -28 -34 -59z m431 54 c-3 -5 -12 -10 -18 -10 -7 0 -6
4 3 10 19 12 23 12 15 0z m-1170 -118 c-3 -3 -11 0 -18 7 -9 10 -8 11 6 5 10
-3 15 -9 12 -12z m640 -69 c-8 -16 -21 -37 -29 -47 -15 -18 -16 -18 -35 5 -11
13 -17 26 -14 29 2 3 11 -4 19 -14 14 -20 14 -20 29 0 9 10 20 27 26 37 16 28
21 19 4 -10z"/>
<path d="M4845 6770 c-13 -6 -15 -9 -5 -9 8 0 22 4 30 9 18 12 2 12 -25 0z"/>
<path d="M4981 6759 c-13 -5 -22 -12 -19 -14 6 -6 58 12 58 20 0 7 -11 5 -39
-6z"/>
<path d="M4440 6384 c0 -1 6 -7 14 -13 10 -9 15 -8 19 2 3 8 -3 13 -14 13 -11
0 -19 -1 -19 -2z"/>
<path d="M4370 6286 c0 -9 5 -16 10 -16 6 0 10 4 10 9 0 6 -4 13 -10 16 -5 3
-10 -1 -10 -9z"/>
<path d="M6880 5416 c0 -2 7 -9 15 -16 9 -7 15 -8 15 -2 0 5 -7 12 -15 16 -8
3 -15 4 -15 2z"/>
<path d="M6860 5379 c-21 -6 -19 -7 13 -6 20 0 37 1 37 3 0 7 -29 10 -50 3z"/>
<path d="M6973 5375 c0 -7 6 -11 14 -8 7 3 13 6 13 8 0 2 -6 5 -13 8 -8 3 -14
-1 -14 -8z"/>
<path d="M6553 5333 c0 -9 5 -9 21 -1 31 16 32 18 4 16 -13 -1 -25 -8 -25 -15z"/>
<path d="M6457 5289 c7 -7 15 -10 18 -7 3 3 -2 9 -12 12 -14 6 -15 5 -6 -5z"/>
<path d="M6340 5269 c0 -6 -7 -8 -16 -5 -8 3 -12 2 -9 -4 3 -5 -9 -14 -27 -19
-18 -5 -25 -10 -16 -10 9 -1 25 -4 35 -7 15 -5 15 -4 3 5 -13 9 -12 11 3 11
10 0 25 6 33 14 16 17 18 26 4 26 -5 0 -10 -5 -10 -11z"/>
<path d="M6370 5240 c0 -5 7 -10 16 -10 8 0 12 5 9 10 -3 6 -10 10 -16 10 -5
0 -9 -4 -9 -10z"/>
<path d="M6338 5223 c7 -3 16 -2 19 1 4 3 -2 6 -13 5 -11 0 -14 -3 -6 -6z"/>
<path d="M6268 5213 c7 -3 16 -2 19 1 4 3 -2 6 -13 5 -11 0 -14 -3 -6 -6z"/>
<path d="M6203 5194 c0 -7 9 -14 19 -14 10 0 18 2 18 5 0 2 -8 9 -18 14 -14 8
-19 6 -19 -5z"/>
<path d="M6059 5196 c-2 -2 -24 -7 -48 -10 -59 -8 -62 -13 -8 -14 24 -1 53 5
63 13 11 8 14 15 8 15 -6 0 -13 -2 -15 -4z"/>
<path d="M6324 5163 c10 -10 46 -11 40 -1 -3 4 -15 8 -26 8 -12 0 -18 -3 -14
-7z"/>
<path d="M7007 5143 c-4 -3 -7 -15 -7 -25 0 -10 -4 -18 -10 -18 -5 0 -10 -9
-10 -20 0 -33 14 -22 28 21 13 40 12 56 -1 42z"/>
<path d="M6912 5118 c-6 -8 -8 -34 -5 -62 6 -47 6 -48 19 -25 15 27 19 99 5
99 -5 0 -13 -6 -19 -12z"/>
<path d="M6612 5108 c5 -15 28 -23 28 -10 0 5 -7 13 -16 16 -10 4 -14 1 -12
-6z"/>
<path d="M7015 5096 c-3 -9 -7 -23 -10 -32 -3 -9 1 -30 9 -47 8 -18 17 -39 19
-47 3 -8 3 19 0 60 -6 80 -9 92 -18 66z"/>
<path d="M5800 5065 c7 -8 17 -15 22 -15 6 0 5 7 -2 15 -7 8 -17 15 -22 15 -6
0 -5 -7 2 -15z"/>
<path d="M6115 5016 c10 -14 19 -26 22 -26 7 0 -17 39 -28 46 -6 3 -3 -5 6
-20z"/>
<path d="M6145 5030 c-3 -5 -2 -18 4 -27 7 -14 9 -12 8 10 -2 30 -3 31 -12 17z"/>
<path d="M6980 5025 c0 -19 21 -65 30 -65 4 0 2 18 -3 40 -11 39 -27 55 -27
25z"/>
<path d="M5850 5026 c0 -2 8 -10 18 -17 15 -13 16 -12 3 4 -13 16 -21 21 -21
13z"/>
<path d="M6086 5017 c3 -10 9 -15 12 -12 3 3 0 11 -7 18 -10 9 -11 8 -5 -6z"/>
<path d="M7043 4865 c0 -38 2 -53 4 -32 2 20 2 52 0 70 -2 17 -4 1 -4 -38z"/>
<path d="M7052 4615 c0 -16 2 -22 5 -12 2 9 2 23 0 30 -3 6 -5 -1 -5 -18z"/>
<path d="M7172 4562 c-1 -46 -6 -81 -10 -78 -4 2 -6 -12 -3 -32 l5 -37 8 49
c5 26 7 78 5 115 -3 65 -3 64 -5 -17z"/>
<path d="M7213 4585 c0 -33 2 -45 4 -27 2 18 2 45 0 60 -2 15 -4 0 -4 -33z"/>
<path d="M7042 4390 c0 -19 2 -27 5 -17 2 9 2 25 0 35 -3 9 -5 1 -5 -18z"/>
<path d="M7194 4195 c0 -55 1 -76 3 -47 2 29 2 74 0 100 -2 26 -3 2 -3 -53z"/>
<path d="M7032 4140 c0 -14 2 -19 5 -12 2 6 2 18 0 25 -3 6 -5 1 -5 -13z"/>
<path d="M6702 4100 c0 -14 2 -19 5 -12 2 6 2 18 0 25 -3 6 -5 1 -5 -13z"/>
<path d="M7002 4060 c0 -14 2 -19 5 -12 2 6 2 18 0 25 -3 6 -5 1 -5 -13z"/>
<path d="M7023 4035 c0 -27 2 -38 4 -22 2 15 2 37 0 50 -2 12 -4 0 -4 -28z"/>
<path d="M7182 4060 c0 -14 2 -19 5 -12 2 6 2 18 0 25 -3 6 -5 1 -5 -13z"/>
<path d="M6700 4014 c0 -8 5 -12 10 -9 6 4 8 11 5 16 -9 14 -15 11 -15 -7z"/>
<path d="M7171 4004 c0 -11 3 -14 6 -6 3 7 2 16 -1 19 -3 4 -6 -2 -5 -13z"/>
<path d="M7162 3950 c0 -14 2 -19 5 -12 2 6 2 18 0 25 -3 6 -5 1 -5 -13z"/>
<path d="M6670 3931 c0 -6 5 -13 10 -16 6 -3 10 1 10 9 0 9 -4 16 -10 16 -5 0
-10 -4 -10 -9z"/>
<path d="M7142 3865 c0 -16 2 -22 5 -12 2 9 2 23 0 30 -3 6 -5 -1 -5 -18z"/>
<path d="M6990 3819 c-6 -23 -9 -43 -6 -46 3 -3 8 8 11 23 4 16 9 37 12 47 2
9 2 17 -1 17 -3 0 -10 -18 -16 -41z"/>
<path d="M6910 3826 c0 -24 17 -28 23 -6 3 13 0 20 -9 20 -8 0 -14 -6 -14 -14z"/>
<path d="M7121 3774 c0 -11 3 -14 6 -6 3 7 2 16 -1 19 -3 4 -6 -2 -5 -13z"/>
<path d="M6981 3744 c0 -11 3 -14 6 -6 3 7 2 16 -1 19 -3 4 -6 -2 -5 -13z"/>
<path d="M7101 3715 c-1 -17 -3 -18 -12 -5 -9 12 -10 12 -5 -3 3 -10 6 -28 7
-40 1 -16 4 -12 10 11 6 19 8 39 5 45 -2 7 -5 3 -5 -8z"/>
<path d="M6963 3693 c-17 -41 -27 -93 -26 -135 0 -21 -4 -38 -9 -38 -5 0 -6
-4 -3 -10 3 -5 1 -10 -5 -10 -6 0 -8 -5 -4 -11 12 -20 23 5 44 104 22 103 24
149 3 100z"/>
<path d="M7056 3625 c-4 -17 -1 -31 8 -40 12 -13 15 -11 20 11 4 15 5 29 1 32
-3 3 -5 -2 -5 -11 0 -9 -5 -17 -10 -17 -6 0 -8 11 -4 25 3 14 4 25 1 25 -3 0
-8 -11 -11 -25z"/>
<path d="M6888 3537 c-3 -14 0 -24 7 -24 7 0 10 10 7 24 -2 13 -6 23 -7 23 -1
0 -5 -10 -7 -23z"/>
<path d="M7029 3497 c0 -18 -2 -50 -3 -72 l-4 -40 14 45 c8 25 12 51 9 58 -3
7 0 10 5 7 6 -3 10 0 10 8 0 8 -7 17 -15 21 -11 4 -15 -2 -16 -27z"/>
<path d="M6925 3449 c-4 -6 -5 -12 -2 -15 2 -3 7 2 10 11 7 17 1 20 -8 4z"/>
<path d="M7000 3369 c0 -5 -5 -7 -12 -3 -7 5 -8 3 -3 -7 5 -7 8 -27 8 -44 -2
-33 1 -28 16 28 5 22 6 37 0 37 -5 0 -9 -5 -9 -11z"/>
<path d="M6966 3325 c-4 -14 -14 -25 -23 -25 -9 0 -13 -3 -10 -6 3 -4 2 -14
-2 -23 -6 -10 -5 -23 3 -33 12 -16 14 -16 24 5 11 23 25 107 18 107 -2 0 -7
-11 -10 -25z"/>
<path d="M6965 3223 c-33 -108 -61 -137 -58 -60 0 23 -2 35 -5 27 -3 -10 -9
-3 -18 20 -7 19 -13 27 -13 18 -1 -9 4 -29 9 -43 8 -20 6 -31 -6 -48 -16 -22
-16 -22 -10 6 4 16 1 33 -6 41 -13 14 -30 -24 -88 -198 -23 -68 -23 -66 -11
-66 5 0 11 14 15 31 3 17 10 28 16 24 5 -3 10 0 11 7 0 7 5 0 10 -17 5 -16 7
-35 4 -42 -2 -7 0 -15 5 -18 10 -6 14 7 11 33 -1 6 3 12 9 12 5 0 10 11 10 24
0 14 5 28 11 32 6 3 8 15 6 26 -8 31 2 51 19 37 16 -13 19 -33 4 -24 -6 3 -7
-1 -4 -10 4 -8 2 -21 -4 -28 -5 -6 -17 -35 -26 -64 -10 -28 -24 -57 -32 -63
-7 -7 -14 -18 -14 -26 0 -7 -7 -20 -16 -28 -8 -9 -16 -25 -17 -35 -2 -26 -12
-16 -12 12 0 11 -6 22 -12 25 -17 5 -16 -16 0 -48 14 -27 12 -50 -5 -50 -6 0
-7 8 -4 18 5 14 3 14 -9 -2 -9 -12 -11 -24 -6 -29 10 -10 -7 -57 -21 -57 -4 0
-8 -7 -8 -16 0 -8 -4 -13 -8 -10 -4 2 -8 -4 -8 -15 0 -10 1 -19 2 -19 9 0 63
103 59 111 -4 5 -2 9 4 9 16 0 59 81 131 249 64 148 116 298 107 307 -2 2 -12
-22 -22 -53z m-118 -95 c-3 -7 -5 -2 -5 12 0 14 2 19 5 13 2 -7 2 -19 0 -25z
m54 -32 c5 3 9 -2 9 -12 0 -13 -3 -14 -15 -4 -8 7 -15 18 -14 24 0 7 2 6 6 -2
2 -6 9 -10 14 -6z m-49 -68 c-7 -7 -12 -24 -12 -39 0 -15 -4 -31 -10 -34 -6
-3 -10 5 -10 19 0 13 -3 32 -7 42 -5 13 -3 16 10 11 9 -3 17 -2 17 3 0 6 5 10
12 10 9 0 9 -3 0 -12z"/>
<path d="M6920 3165 c-7 -20 -10 -39 -7 -41 3 -3 10 11 17 31 7 20 10 39 7 41
-3 3 -10 -11 -17 -31z"/>
<path d="M6790 2924 c0 -9 -8 -23 -17 -31 -17 -13 -16 -14 5 -10 12 3 20 1 16
-4 -3 -5 -1 -9 5 -9 15 0 23 18 11 25 -6 4 -8 15 -5 26 4 11 2 19 -4 19 -6 0
-11 -7 -11 -16z"/>
<path d="M6703 2850 c-6 -16 -7 -30 -2 -30 5 0 9 7 9 16 0 9 9 18 20 21 25 7
26 23 2 23 -10 0 -22 -12 -29 -30z"/>
<path d="M6682 2790 c0 -14 2 -19 5 -12 2 6 2 18 0 25 -3 6 -5 1 -5 -13z"/>
<path d="M6646 2615 c-3 -8 -3 -22 1 -31 4 -10 -1 -17 -16 -21 -11 -3 -21 -10
-21 -15 0 -5 5 -6 10 -3 15 9 12 -4 -5 -21 -8 -9 -15 -25 -14 -37 l0 -22 9 23
c5 12 18 32 29 43 13 14 18 31 16 50 -3 17 0 27 5 24 6 -3 7 1 4 9 -8 20 -10
20 -18 1z"/>
<path d="M6600 2600 c0 -5 5 -10 10 -10 6 0 10 5 10 10 0 6 -4 10 -10 10 -5 0
-10 -4 -10 -10z"/>
<path d="M4036 5301 c-3 -5 1 -11 9 -14 9 -4 12 -1 8 9 -6 16 -10 17 -17 5z"/>
<path d="M4354 5289 c-3 -5 6 -9 20 -9 31 0 34 6 6 13 -11 3 -23 1 -26 -4z"/>
<path d="M4508 5293 c7 -3 16 -2 19 1 4 3 -2 6 -13 5 -11 0 -14 -3 -6 -6z"/>
<path d="M4695 5260 c28 -12 37 -12 30 0 -3 6 -16 10 -28 9 -21 0 -21 -1 -2
-9z"/>
<path d="M4748 5243 c7 -3 16 -2 19 1 4 3 -2 6 -13 5 -11 0 -14 -3 -6 -6z"/>
<path d="M4800 5216 c7 -7 13 -7 20 0 6 6 3 10 -10 10 -13 0 -16 -4 -10 -10z"/>
<path d="M4848 5203 c7 -3 16 -2 19 1 4 3 -2 6 -13 5 -11 0 -14 -3 -6 -6z"/>
<path d="M4650 5174 c0 -8 11 -14 25 -14 14 0 25 4 25 9 0 5 -11 11 -25 13
-17 4 -25 1 -25 -8z"/>
<path d="M4885 5179 c-5 -8 -26 -10 -62 -6 -51 5 -54 4 -51 -16 3 -20 7 -21
93 -18 49 1 94 5 99 8 5 4 6 0 1 -7 -6 -10 -4 -12 9 -7 10 4 31 7 47 7 16 0
29 3 29 8 0 7 -21 10 -87 13 -18 0 -31 6 -30 12 3 16 -39 21 -48 6z"/>
<path d="M4980 5115 c0 -8 5 -15 10 -15 6 0 10 4 10 10 0 5 7 6 17 3 11 -4 14
-3 9 5 -10 17 -46 15 -46 -3z"/>
<path d="M4801 5076 c2 -25 6 -43 11 -40 5 3 6 10 3 15 -4 5 5 20 19 34 33 33
33 35 -4 35 -30 0 -31 -1 -29 -44z"/>
<path d="M4916 5097 c-14 -10 -26 -24 -26 -30 0 -6 9 -1 20 11 12 12 30 22 40
22 11 0 20 4 20 8 0 15 -26 9 -54 -11z"/>
<path d="M3986 5075 c-3 -9 -6 -22 -5 -28 0 -7 5 -1 10 12 5 13 8 26 5 28 -2
2 -6 -3 -10 -12z"/>
<path d="M4950 5079 c0 -5 5 -7 10 -4 6 3 10 8 10 11 0 2 -4 4 -10 4 -5 0 -10
-5 -10 -11z"/>
<path d="M4021 5063 c-1 -25 14 -39 25 -22 4 7 3 9 -4 5 -6 -3 -12 3 -15 16
-4 23 -4 23 -6 1z"/>
<path d="M4061 5064 c0 -11 3 -14 6 -6 3 7 2 16 -1 19 -3 4 -6 -2 -5 -13z"/>
<path d="M4120 5063 c0 -13 5 -23 10 -23 13 0 13 11 0 30 -8 12 -10 11 -10 -7z"/>
<path d="M4920 5065 c-8 -9 -8 -15 -2 -15 12 0 26 19 19 26 -2 2 -10 -2 -17
-11z"/>
<path d="M4836 5025 c-11 -8 -17 -18 -13 -21 3 -3 16 3 28 15 26 24 14 28 -15
6z"/>
<path d="M3965 5000 c-4 -17 -5 -34 -2 -36 2 -3 7 10 11 27 8 42 0 50 -9 9z"/>
<path d="M4051 4994 c0 -11 3 -14 6 -6 3 7 2 16 -1 19 -3 4 -6 -2 -5 -13z"/>
<path d="M4072 4975 c0 -16 2 -22 5 -12 2 9 2 23 0 30 -3 6 -5 -1 -5 -18z"/>
<path d="M4092 4947 c-6 -7 -8 -18 -4 -24 6 -9 11 -6 20 7 13 22 0 36 -16 17z"/>
<path d="M3952 4905 c0 -16 2 -22 5 -12 2 9 2 23 0 30 -3 6 -5 -1 -5 -18z"/>
<path d="M4060 4901 c0 -25 6 -27 13 -6 4 8 2 17 -3 20 -6 4 -10 -3 -10 -14z"/>
<path d="M3892 4695 c0 -16 2 -22 5 -12 2 9 2 23 0 30 -3 6 -5 -1 -5 -18z"/>
<path d="M4021 4245 c-1 -78 16 -236 27 -247 11 -12 2 155 -10 179 -6 12 -9
34 -6 50 3 15 2 42 -2 58 -6 22 -8 12 -9 -40z"/>
<path d="M4052 4260 c0 -8 4 -26 8 -40 6 -20 8 -21 8 -5 0 11 -3 29 -8 40 -5
12 -8 14 -8 5z"/>
<path d="M4322 4180 c0 -14 2 -19 5 -12 2 6 2 18 0 25 -3 6 -5 1 -5 -13z"/>
<path d="M4062 4105 c0 -16 2 -22 5 -12 2 9 2 23 0 30 -3 6 -5 -1 -5 -18z"/>
<path d="M4322 4070 c0 -14 2 -19 5 -12 2 6 2 18 0 25 -3 6 -5 1 -5 -13z"/>
<path d="M4608 4062 c-11 -15 -11 -16 4 -4 13 10 17 10 20 0 3 -8 6 -9 11 -1
12 18 -21 23 -35 5z"/>
<path d="M4040 3939 c0 -16 4 -28 9 -25 8 5 3 56 -5 56 -2 0 -4 -14 -4 -31z"/>
<path d="M4352 3890 c0 -19 2 -27 5 -17 2 9 2 25 0 35 -3 9 -5 1 -5 -18z"/>
<path d="M4061 3894 c0 -11 3 -14 6 -6 3 7 2 16 -1 19 -3 4 -6 -2 -5 -13z"/>
<path d="M4352 3780 c0 -14 2 -19 5 -12 2 6 2 18 0 25 -3 6 -5 1 -5 -13z"/>
<path d="M3962 3695 c0 -16 2 -22 5 -12 2 9 2 23 0 30 -3 6 -5 -1 -5 -18z"/>
<path d="M4131 3671 c-12 -7 -11 -12 1 -30 13 -19 16 -20 22 -6 4 11 2 14 -6
9 -7 -5 -9 0 -6 14 4 12 5 22 5 22 -1 0 -8 -4 -16 -9z"/>
<path d="M4197 3673 c-4 -3 -7 -15 -7 -26 0 -16 3 -17 15 -7 8 7 15 19 15 26
0 15 -12 19 -23 7z"/>
<path d="M3972 3640 c0 -14 2 -19 5 -12 2 6 2 18 0 25 -3 6 -5 1 -5 -13z"/>
<path d="M3986 3565 c8 -37 14 -45 14 -19 0 10 -5 26 -10 34 -8 11 -9 7 -4
-15z"/>
<path d="M4190 3548 c0 -32 17 -46 26 -23 4 9 0 24 -10 33 -15 15 -16 14 -16
-10z"/>
<path d="M4000 3516 c0 -28 34 -146 41 -146 6 0 7 -5 4 -11 -10 -15 4 -61 15
-54 6 3 10 11 10 16 0 6 -4 7 -10 4 -5 -3 -10 3 -10 15 0 13 4 18 11 15 13 -8
-12 37 -26 47 -7 5 -6 14 2 27 7 11 9 23 4 26 -5 3 -12 -1 -14 -7 -3 -7 -6 -1
-7 15 -2 15 -3 31 -4 36 -1 12 -16 27 -16 17z"/>
<path d="M4210 3479 c0 -5 5 -9 10 -9 6 0 10 -9 10 -21 0 -19 1 -19 16 -5 8 9
24 16 36 16 11 0 18 5 16 13 -5 14 -88 20 -88 6z"/>
<path d="M4196 3451 c-4 -6 -2 -11 4 -11 7 0 9 -9 5 -22 -5 -20 -4 -21 5 -5 7
11 8 23 2 33 -6 11 -11 13 -16 5z"/>
<path d="M4104 3270 c3 -8 9 -23 12 -32 4 -10 10 -18 15 -18 15 0 10 16 -12
41 -11 13 -18 17 -15 9z"/>
<path d="M4192 3200 c0 -14 2 -19 5 -12 2 6 2 18 0 25 -3 6 -5 1 -5 -13z"/>
<path d="M4140 3174 c0 -10 5 -26 10 -34 8 -11 9 -7 4 15 -8 37 -14 45 -14 19z"/>
<path d="M4250 3043 c0 -13 5 -23 10 -23 13 0 13 11 0 30 -8 12 -10 11 -10 -7z"/>
<path d="M4190 3025 c-7 -9 -8 -15 -2 -15 5 0 12 7 16 15 3 8 4 15 2 15 -2 0
-9 -7 -16 -15z"/>
<path d="M4206 3005 c-9 -26 -7 -32 5 -12 6 10 9 21 6 23 -2 3 -7 -2 -11 -11z"/>
<path d="M4287 2846 c-10 -25 -8 -34 2 -17 7 11 10 9 16 -8 6 -21 25 -29 25
-11 0 6 -5 10 -11 10 -6 0 -8 9 -4 23 4 15 3 18 -3 8 -8 -11 -10 -11 -14 0 -3
9 -6 8 -11 -5z"/>
<path d="M4410 2695 c0 -9 -3 -14 -7 -12 -5 3 -8 -8 -9 -23 -1 -19 3 -27 12
-23 7 2 10 11 7 19 -3 8 0 21 6 28 8 10 9 16 1 21 -5 3 -10 -1 -10 -10z"/>
<path d="M4431 2664 c0 -11 3 -14 6 -6 3 7 2 16 -1 19 -3 4 -6 -2 -5 -13z"/>
<path d="M4468 2587 c-2 -20 2 -43 9 -53 7 -10 13 -13 13 -7 0 7 -5 15 -10 18
-7 4 -7 13 0 26 7 12 7 25 2 36 -7 12 -10 8 -14 -20z"/>
<path d="M4495 2560 c-3 -5 -1 -10 4 -10 6 0 11 5 11 10 0 6 -2 10 -4 10 -3 0
-8 -4 -11 -10z"/>
<path d="M5365 4870 c-10 -11 -13 -20 -7 -20 6 0 16 9 22 20 6 11 9 20 7 20
-2 0 -12 -9 -22 -20z"/>
<path d="M5236 4877 c-29 -38 -34 -56 -11 -37 8 7 15 17 15 23 0 6 7 19 17 29
9 10 13 18 10 18 -3 0 -17 -15 -31 -33z"/>
<path d="M5140 4759 c0 -5 5 -7 10 -4 6 3 10 8 10 11 0 2 -4 4 -10 4 -5 0 -10
-5 -10 -11z"/>
<path d="M5190 4660 c0 -5 5 -10 10 -10 6 0 10 5 10 10 0 6 -4 10 -10 10 -5 0
-10 -4 -10 -10z"/>
<path d="M5022 4450 c0 -14 2 -19 5 -12 2 6 2 18 0 25 -3 6 -5 1 -5 -13z"/>
<path d="M5533 3720 c0 -25 2 -35 4 -22 2 12 2 32 0 45 -2 12 -4 2 -4 -23z"/>
<path d="M5542 3175 c0 -16 2 -22 5 -12 2 9 2 23 0 30 -3 6 -5 -1 -5 -18z"/>
<path d="M5162 3570 c0 -14 2 -19 5 -12 2 6 2 18 0 25 -3 6 -5 1 -5 -13z"/>
<path d="M5900 3580 c0 -5 5 -10 10 -10 6 0 10 5 10 10 0 6 -4 10 -10 10 -5 0
-10 -4 -10 -10z"/>
<path d="M6370 2311 c0 -5 -23 -32 -50 -61 -28 -29 -48 -55 -46 -57 10 -10
107 87 100 99 -3 4 0 8 5 8 6 0 11 5 11 10 0 6 -4 10 -10 10 -5 0 -10 -4 -10
-9z"/>
<path d="M6397 2303 c-4 -3 -7 -11 -7 -17 0 -6 5 -5 12 2 6 6 9 14 7 17 -3 3
-9 2 -12 -2z"/>
<path d="M27 103 c-25 -4 -27 -8 -27 -54 0 -48 1 -49 30 -49 30 0 30 1 30 55
0 30 -1 54 -2 54 -2 -1 -15 -4 -31 -6z"/>
</g>
</svg>
