<?xml version="1.0" standalone="no"?>
<!DOCTYPE svg PUBLIC "-//W3C//DTD SVG 20010904//EN"
 "http://www.w3.org/TR/2001/REC-SVG-20010904/DTD/svg10.dtd">
<svg version="1.0" xmlns="http://www.w3.org/2000/svg"
 width="1024.000000pt" height="1024.000000pt" viewBox="0 0 1024.000000 1024.000000"
 preserveAspectRatio="xMidYMid meet">
<metadata>
Created by potrace 1.16, written by Peter Selinger 2001-2019
</metadata>
<g transform="translate(0.000000,1024.000000) scale(0.100000,-0.100000)"
fill="#000000" stroke="none">
<path d="M3435 8849 c-278 -37 -491 -189 -616 -439 -48 -98 -93 -231 -155
-463 -25 -95 -63 -233 -84 -307 -21 -74 -71 -252 -109 -395 -39 -143 -80 -291
-90 -330 -31 -112 -116 -442 -289 -1115 -169 -665 -262 -1126 -337 -1675 -42
-305 -78 -779 -95 -1233 -13 -363 -28 -628 -41 -727 -20 -159 -37 -259 -45
-262 -5 -2 -37 -21 -71 -42 -208 -132 -279 -433 -174 -734 46 -132 137 -250
224 -290 115 -54 -96 -51 3817 -60 272 0 644 4 825 11 182 6 526 18 765 27
239 8 788 19 1220 23 774 8 786 8 825 29 116 62 202 222 235 438 20 133 -5
261 -75 381 -38 65 -148 173 -209 204 -57 29 -58 32 -81 190 -20 141 -30 258
-60 705 -14 209 -29 421 -35 470 -5 50 -12 126 -15 170 -16 201 -80 659 -146
1045 -52 300 -116 598 -274 1265 -20 83 -47 197 -60 255 -41 177 -366 1480
-442 1770 -146 560 -177 660 -241 760 -57 90 -156 179 -257 232 -205 107 -330
118 -1030 93 -578 -21 -1648 -23 -2125 -6 -465 18 -681 21 -755 10z m121 -174
c-48 -17 -55 -28 -46 -70 l7 -33 -64 -16 c-85 -22 -186 -74 -246 -126 -52 -46
-198 -236 -240 -314 -34 -61 -37 -136 -7 -166 11 -11 24 -20 28 -20 16 0 61
57 123 155 148 237 183 267 330 280 l74 7 0 -231 0 -230 -35 -3 c-19 -2 -173
-2 -342 0 -286 2 -308 4 -308 20 0 34 102 327 145 419 26 56 62 112 91 143
109 116 301 198 469 199 l60 0 -39 -14z m3516 -6 c163 -28 339 -142 407 -263
40 -71 85 -206 120 -366 16 -74 29 -135 28 -136 -1 -1 -45 -4 -99 -7 -106 -6
-118 -1 -132 57 -16 66 -119 295 -157 349 -22 32 -39 60 -37 63 7 6 76 -49 95
-76 10 -14 37 -61 59 -105 47 -90 73 -106 93 -57 15 36 16 98 2 134 -20 53
-92 156 -136 197 -46 42 -85 52 -124 31 -13 -6 -34 -3 -72 11 -30 12 -56 22
-58 24 -2 2 12 24 30 49 18 25 30 48 28 50 -8 8 -142 46 -163 46 -11 0 -28 5
-36 10 -17 11 59 5 152 -11z m-592 -33 c93 -13 257 -50 267 -60 14 -13 27
-230 27 -441 1 -181 -4 -298 -18 -423 -10 -95 -22 -169 -25 -164 -19 31 -238
119 -415 167 -275 75 -446 89 -1096 89 -550 1 -648 -5 -930 -55 -228 -40 -363
-88 -503 -176 -21 -13 -41 -22 -44 -19 -5 5 -16 82 -53 391 -11 91 -14 443 -4
553 5 55 11 75 24 82 19 10 138 31 295 51 112 15 1168 28 1865 23 373 -3 532
-7 610 -18z m-3285 -902 l221 -7 -18 -36 c-14 -29 -19 -66 -21 -162 -2 -95 -6
-131 -18 -150 -15 -22 -90 -65 -188 -107 -35 -15 -35 -15 -11 -22 14 -4 -45
-8 -130 -9 -85 -1 -207 -6 -270 -10 -63 -4 -116 -7 -117 -6 -6 3 87 333 143
514 4 11 22 13 97 8 50 -4 191 -10 312 -13z m4489 -21 c27 -95 116 -469 116
-491 0 -6 -8 -8 -18 -5 -9 2 -105 7 -212 11 l-195 7 5 100 c6 121 3 340 -5
372 l-5 23 154 0 c139 0 155 -2 160 -17z m-1989 -118 c409 -20 555 -41 810
-117 164 -49 205 -65 205 -82 -1 -100 -72 -567 -110 -716 -10 -41 -28 -124
-39 -185 -25 -129 -60 -266 -72 -280 -5 -5 -9 -16 -9 -25 0 -8 -18 -50 -39
-93 -103 -200 -307 -397 -515 -496 -109 -52 -121 -61 -131 -104 -7 -27 9 -40
18 -14 2 6 2 0 0 -15 -4 -24 -1 -28 21 -28 14 0 35 4 48 9 13 5 42 15 66 22
23 7 42 16 42 21 0 5 4 7 9 4 9 -6 234 102 239 116 2 4 8 5 14 2 6 -4 8 1 4
14 -5 13 -1 22 10 26 14 5 15 4 4 -9 -18 -21 -3 -19 31 6 16 11 26 25 23 31
-4 7 -2 8 4 4 15 -9 55 31 46 46 -4 7 -3 8 5 4 16 -10 43 13 37 31 -3 8 -2 11
3 8 12 -7 26 14 26 40 0 13 7 20 18 20 22 0 41 30 33 51 -3 8 -2 12 3 9 15 -9
95 165 82 178 -6 6 -11 16 -11 22 0 5 6 1 12 -10 10 -18 12 -16 24 20 13 39
13 39 7 5 -17 -106 -126 -303 -218 -396 -112 -112 -238 -182 -505 -280 -363
-134 -769 -149 -1150 -43 -41 11 -109 30 -150 41 -69 18 -183 64 -220 88 -8 5
-29 16 -47 24 -95 43 -259 176 -249 202 3 8 0 16 -6 20 -7 5 -8 2 -3 -7 5 -8
-4 -3 -18 10 -42 38 -113 194 -151 331 -50 177 -65 308 -71 622 -5 234 -33
598 -51 659 -11 38 224 123 463 169 285 54 886 73 1458 45z m-2557 -558 l-1
-42 -4 38 c-4 31 -8 37 -28 37 -12 0 -26 -8 -30 -17 -4 -10 -18 -49 -32 -88
-14 -38 -30 -76 -35 -83 -8 -9 -3 -15 20 -23 34 -12 37 -18 47 -94 4 -27 16
-88 27 -134 10 -45 18 -84 16 -86 -2 -2 -668 -13 -668 -10 0 0 7 23 16 50 24
76 105 384 117 440 l10 50 274 2 273 1 -2 -41z m394 17 c55 -9 128 -14 163
-12 l63 3 -29 -32 c-42 -49 -51 -91 -56 -290 l-5 -183 -27 6 c-139 31 -241
106 -300 224 -32 62 -44 134 -36 220 l7 80 60 0 c33 0 105 -7 160 -16z m3635
-14 c17 -34 16 -156 -2 -217 -22 -73 -91 -162 -165 -211 -60 -40 -93 -53 -172
-68 l-38 -6 0 146 c0 164 -13 272 -40 328 l-17 36 121 2 c66 1 148 5 181 10
93 12 118 9 132 -20z m693 10 c7 -15 22 -75 85 -348 42 -182 42 -184 13 -177
-13 2 -147 9 -297 15 -151 6 -277 12 -279 15 -2 2 4 89 13 195 18 203 14 263
-23 304 -17 18 -10 18 231 15 209 -3 250 -6 257 -19z m-1193 -502 c-1 -51 -3
-12 -3 87 0 99 2 141 3 93 2 -48 2 -129 0 -180z m-12 -225 c-4 -41 -9 -73 -11
-70 -2 2 -1 44 3 93 4 49 9 80 11 70 2 -11 1 -52 -3 -93z m-3305 35 c0 -7 27
-61 59 -120 33 -60 56 -109 53 -111 -4 -2 -173 -5 -377 -6 -203 -1 -451 -6
-549 -12 -98 -5 -181 -7 -183 -5 -3 2 10 57 29 121 l33 117 105 5 c192 9 523
20 678 21 116 2 152 -1 152 -10z m4330 2 c85 -5 199 -12 252 -16 l96 -6 30
-122 c17 -66 29 -122 27 -124 -1 -1 -67 2 -146 8 -79 6 -265 15 -414 20 -148
5 -273 9 -276 9 -4 1 5 31 20 69 15 37 36 91 46 120 l19 52 95 0 c53 0 166 -5
251 -10z m-1045 -160 c-4 -17 -9 -30 -11 -27 -2 2 -1 18 2 36 4 17 9 30 11 27
3 -2 2 -19 -2 -36z m-160 -160 c-4 -12 -9 -19 -12 -17 -3 3 -2 15 2 27 4 12 9
19 12 17 3 -3 2 -15 -2 -27z m-20 -39 c-2 -2 -11 3 -19 12 -8 8 -12 17 -9 21
3 3 12 -2 19 -12 7 -9 11 -19 9 -21z m-59 -70 c-9 -14 -36 -15 -36 -1 0 5 8 6
17 3 13 -5 15 -3 9 13 -5 14 -4 16 5 7 6 -6 8 -16 5 -22z m-2756 -6 c0 -9 23
-65 50 -125 45 -98 50 -117 50 -179 l0 -69 -147 -6 c-317 -14 -581 -27 -873
-46 -168 -10 -356 -22 -418 -25 l-113 -7 6 24 c3 12 27 113 54 223 l49 200
193 11 c107 6 409 12 672 12 422 2 477 0 477 -13z m4376 5 l122 0 5 -32 c2
-18 26 -124 52 -236 26 -112 45 -205 44 -206 -2 -2 -47 2 -99 10 -52 7 -223
22 -380 33 -397 29 -540 42 -536 50 3 4 -2 36 -9 71 -21 96 -16 231 11 309 4
12 55 13 336 8 182 -4 386 -7 454 -7z m-1901 -340 c-28 -12 -37 -12 -30 0 3 6
16 10 28 9 21 0 21 -1 2 -9z m41 -10 c-22 -11 -44 -20 -50 -19 -13 1 65 39 79
38 6 0 -8 -9 -29 -19z m-296 -124 c0 -3 -7 -6 -15 -6 -9 0 -15 9 -15 21 0 18
2 19 15 5 8 -8 15 -17 15 -20z m-1975 -148 c-4 -29 -15 -89 -25 -133 -11 -44
-26 -117 -34 -162 -14 -81 -31 -122 -68 -175 l-19 -28 -777 -1 c-427 0 -808
-4 -847 -8 -38 -5 -72 -7 -74 -5 -1 1 8 51 22 111 13 59 39 176 58 259 l32
152 336 7 c185 4 530 13 766 20 237 7 476 13 533 14 l103 1 -6 -52z m3700 27
c363 -17 393 -19 576 -36 l126 -12 47 -216 c26 -119 49 -232 52 -251 l6 -36
-123 16 c-94 12 -125 19 -127 31 -3 17 -194 133 -302 182 -41 19 -145 65 -230
102 -141 60 -500 231 -500 238 0 3 73 0 475 -18z m-2812 -151 c32 -5 36 -8 25
-22 -11 -13 -10 -14 9 -4 12 7 30 12 40 12 10 -1 0 -7 -22 -15 -49 -18 -45
-18 -45 0 0 8 -4 15 -9 15 -6 0 -6 -12 -2 -27 4 -16 7 -34 5 -41 -1 -7 0 -8 3
-2 8 18 21 11 16 -9 -3 -12 0 -19 9 -18 23 1 78 -15 78 -23 0 -5 -15 -12 -32
-16 -31 -6 -32 -7 -10 -15 33 -12 27 -21 -10 -15 -30 5 -29 5 7 -10 105 -40
477 -64 590 -37 28 7 90 19 140 28 49 9 91 17 92 19 2 1 5 18 7 36 2 19 9 36
15 38 15 5 14 35 -1 50 -8 8 -9 12 -1 12 6 0 14 -6 16 -12 4 -10 8 -9 16 2 6
8 11 20 11 25 0 6 -4 5 -8 -2 -5 -8 -13 -8 -32 2 -22 12 -23 14 -5 14 11 0 33
3 48 7 l29 7 -30 -59 c-59 -118 -122 -341 -122 -436 0 -89 62 -164 106 -127
22 18 29 39 58 169 26 114 97 288 142 347 13 18 28 42 34 55 6 16 8 -23 8
-117 -1 -109 -3 -125 -8 -75 -4 36 -7 50 -8 32 -1 -18 -20 -78 -42 -133 -50
-126 -70 -203 -70 -265 0 -76 25 -218 60 -344 17 -63 36 -135 41 -160 5 -25
13 -54 18 -65 5 -11 15 -51 21 -88 9 -55 8 -72 -2 -85 -22 -28 -33 -32 -39
-14 -6 14 -9 13 -18 -8 l-11 -25 4 28 c2 21 0 27 -11 23 -8 -3 -11 -2 -8 3 3
5 1 12 -4 15 -11 7 -22 -19 -12 -30 4 -5 16 -31 26 -59 24 -66 76 -161 147
-265 92 -136 85 -130 115 -95 16 19 27 26 30 18 5 -15 54 -6 65 11 5 7 8 6 8
-3 0 -8 12 0 28 19 15 18 35 40 44 49 14 12 15 18 5 30 -10 12 -9 14 5 8 11
-4 22 2 32 18 19 28 20 35 6 35 -5 0 -13 -12 -16 -26 -5 -19 -9 -23 -18 -14
-8 8 -7 13 3 19 7 5 11 13 8 19 -4 5 4 9 16 8 14 -1 28 9 40 27 18 29 22 41
10 34 -5 -3 -8 14 -8 38 0 29 4 41 12 38 7 -3 11 -17 9 -31 -2 -15 -1 -19 1
-9 2 9 9 17 14 17 14 0 4 -31 -33 -105 -39 -79 -67 -115 -153 -201 -90 -89
-197 -162 -339 -229 -150 -72 -210 -91 -351 -114 -174 -29 -274 -34 -418 -22
-348 29 -605 129 -840 325 -49 41 -157 176 -220 277 l-36 56 59 41 c78 56 163
134 205 191 147 202 248 615 224 926 -4 61 -10 157 -13 214 l-4 105 19 -25
c64 -80 131 -255 160 -417 29 -163 55 -206 100 -166 34 31 49 81 49 167 0 68
-6 99 -41 201 -22 66 -56 151 -75 188 -39 78 -40 81 -16 74 9 -3 34 -8 55 -12z
m163 -33 c-4 -5 0 -12 6 -14 7 -3 0 -6 -17 -6 -23 -1 -26 2 -15 9 24 15 -7 13
-55 -5 -22 -8 -49 -14 -60 -14 -30 0 85 38 118 38 16 1 26 -3 23 -8z m709 -1
c-7 -12 -42 -13 -48 -2 -3 4 8 8 24 9 17 1 27 -2 24 -7z m-87 -7 c-10 -2 -28
-2 -40 0 -13 2 -5 4 17 4 22 1 32 -1 23 -4z m-208 -17 c8 -2 -39 -4 -105 -4
-66 0 -133 3 -150 7 -16 4 31 5 105 3 74 -2 142 -5 150 -6z m105 4 c-11 -5
-29 -9 -40 -9 -17 -1 -17 1 -5 9 8 5 26 9 40 9 23 0 23 -1 5 -9z m68 -7 c-7
-2 -19 -2 -25 0 -7 3 -2 5 12 5 14 0 19 -2 13 -5z m-570 -90 c-7 -2 -21 -2
-30 0 -10 3 -4 5 12 5 17 0 24 -2 18 -5z m597 -2 c21 -7 15 -9 -32 -16 -31 -4
-63 -5 -70 -2 -7 3 7 6 32 7 38 2 41 3 20 10 l-25 8 25 0 c14 0 36 -3 50 -7z
m-622 -11 c31 0 32 -1 17 -16 -14 -15 -19 -14 -58 6 -25 13 -32 20 -17 16 14
-3 40 -6 58 -6z m539 -36 c-3 -3 -12 -4 -19 -1 -8 3 -5 6 6 6 11 1 17 -2 13
-5z m2356 -161 c-13 -2 -33 -2 -45 0 -13 2 -3 4 22 4 25 0 35 -2 23 -4z m94 1
c-3 -3 -12 -4 -19 -1 -8 3 -5 6 6 6 11 1 17 -2 13 -5z m-1960 -126 c-2 -13 -4
-3 -4 22 0 25 2 35 4 23 2 -13 2 -33 0 -45z m2431 -84 c23 -3 42 -9 42 -14 0
-5 13 -87 29 -182 16 -95 32 -196 36 -224 l7 -52 -69 5 c-117 7 -104 -8 -158
185 -26 95 -56 197 -66 227 -11 30 -19 58 -19 62 0 8 111 4 198 -7z m-4860 1
c60 -11 24 -21 -80 -24 -57 -2 -143 -6 -193 -11 -70 -5 -35 -7 158 -9 136 0
247 -5 247 -9 0 -16 -184 -140 -256 -173 -38 -18 -186 -73 -329 -122 l-260
-90 -439 -9 c-241 -5 -440 -7 -443 -5 -4 5 26 211 53 356 l17 91 601 2 c330 2
666 4 746 6 80 1 160 0 178 -3z m2489 -267 c-3 -8 -6 -5 -6 6 -1 11 2 17 5 13
3 -3 4 -12 1 -19z m87 -225 c9 -18 14 -33 12 -33 -6 0 -36 55 -36 66 0 11 5 3
24 -33z m39 -85 c9 -21 14 -38 12 -38 -7 0 -35 58 -35 71 0 18 6 9 23 -33z
m38 -63 c5 4 6 -2 2 -11 -4 -11 -2 -15 4 -11 6 4 19 -3 29 -16 l19 -22 -24 20
-24 20 6 -20 c7 -19 6 -19 -7 -2 -14 18 -14 18 -19 0 -2 -10 -4 0 -3 21 0 21
2 34 4 27 2 -6 8 -9 13 -6z m-3848 -82 c-86 -99 -139 -171 -158 -217 -12 -28
-31 -190 -35 -287 0 -4 -30 -10 -67 -14 -38 -4 -95 -13 -128 -21 -91 -21 -86
-24 -80 64 3 42 12 178 21 302 8 124 17 231 19 238 3 9 62 12 250 12 l246 0
-68 -77z m6201 33 c3 -23 12 -99 21 -171 9 -71 23 -190 32 -263 9 -72 13 -135
10 -139 -4 -3 -38 -1 -77 6 -69 13 -70 13 -70 44 0 53 -39 346 -60 451 -11 54
-20 102 -20 107 0 4 36 7 80 6 l79 0 5 -41z m-2264 -50 c23 -26 23 -28 4 -18
-12 6 -23 10 -25 7 -2 -2 -5 8 -5 21 -1 14 -1 24 0 22 0 -2 12 -16 26 -32z
m-2730 -40 c26 -8 89 -17 142 -21 l96 -7 51 -105 c28 -58 61 -118 72 -134 l20
-28 -28 -6 c-15 -3 -66 -16 -112 -28 -98 -26 -112 -42 -87 -100 18 -44 38 -47
105 -17 49 23 40 26 131 -48 48 -39 70 -46 70 -21 0 6 -4 7 -10 4 -6 -3 -7 1
-4 9 3 9 1 16 -5 16 -6 0 -11 -5 -11 -11 0 -5 -5 -7 -11 -3 -8 5 -6 10 5 16 9
5 21 6 28 2 8 -5 9 -2 5 10 -4 10 -3 15 4 11 5 -4 7 -16 4 -28 -5 -20 -5 -20
5 -4 15 23 6 47 -17 47 -15 0 -16 2 -3 10 11 7 19 4 32 -12 15 -21 15 -25 -8
-70 -13 -26 -31 -73 -39 -103 -8 -31 -21 -62 -30 -71 -18 -18 -18 -19 -4 -47
16 -29 28 -37 60 -37 34 0 61 31 100 115 l31 70 15 -34 c11 -27 17 -31 23 -20
8 11 12 11 22 1 10 -10 10 -14 0 -21 -9 -5 -3 -16 20 -37 18 -16 37 -28 42
-26 5 2 17 -5 27 -14 10 -9 23 -13 28 -9 17 10 13 25 -5 18 -10 -4 -17 2 -21
16 -5 19 -7 20 -22 7 -14 -13 -18 -11 -34 10 -20 27 -16 29 16 13 12 -6 4 5
-18 24 -22 20 -45 35 -51 33 -6 -2 -11 2 -11 10 0 19 8 18 37 -8 14 -13 51
-43 82 -67 32 -24 55 -48 52 -53 -4 -6 0 -14 7 -19 9 -6 10 -9 2 -9 -6 0 -15
5 -18 10 -4 6 -11 8 -16 4 -6 -3 -19 2 -30 12 -10 9 -19 13 -19 8 0 -5 23 -27
50 -49 l50 -40 -39 -37 c-22 -20 -43 -49 -46 -65 -4 -15 -9 -34 -11 -41 -6
-20 51 -72 78 -72 33 0 85 34 102 68 8 16 18 53 21 83 10 80 11 82 37 65 45
-29 176 -75 303 -107 72 -18 131 -32 132 -33 1 -1 -12 -39 -28 -86 -16 -47
-29 -96 -29 -109 0 -66 100 -98 136 -44 9 15 18 41 18 58 1 17 12 47 25 68 12
20 26 50 30 65 l7 27 162 3 162 2 0 -27 c0 -16 9 -45 20 -65 13 -25 18 -47 14
-67 -10 -48 3 -81 38 -95 39 -17 80 -5 98 29 11 21 11 48 -2 167 -1 9 -5 15
-9 13 -3 -2 -11 12 -17 32 -6 21 -10 38 -9 38 17 10 212 42 228 38 15 -4 20
-3 15 5 -4 7 -3 12 3 12 5 0 18 3 28 6 15 5 15 4 3 -5 -12 -9 -11 -11 7 -11
14 0 21 5 17 13 -3 8 10 17 37 24 36 10 43 9 61 -9 15 -15 23 -17 31 -9 8 8 7
11 -5 11 -35 0 -26 28 15 44 22 9 42 14 45 11 2 -2 8 -35 12 -74 9 -86 35
-126 91 -142 35 -11 43 -10 67 8 21 16 28 30 30 66 3 39 -1 50 -28 81 -17 19
-40 38 -51 41 -30 10 -23 21 40 64 32 22 70 54 85 72 15 17 28 30 30 28 2 -2
14 -24 26 -49 31 -62 68 -110 86 -110 8 0 19 11 24 25 7 17 17 25 34 25 47 0
73 72 41 114 -12 16 -12 22 0 46 39 76 121 140 180 140 29 0 37 5 51 31 15 30
15 33 -3 58 -28 37 -92 71 -135 71 -21 0 -38 3 -38 6 0 3 26 49 59 103 32 53
68 115 80 139 15 30 28 42 44 43 87 2 196 21 249 43 20 9 22 17 -50 -189 -122
-347 -145 -396 -258 -553 -99 -140 -152 -197 -274 -298 -177 -146 -288 -204
-511 -267 -331 -93 -561 -121 -814 -98 -353 33 -663 133 -918 297 -101 65
-301 267 -371 376 -57 88 -181 337 -238 478 -45 110 -98 270 -90 270 4 0 27
-6 52 -14z m2795 -36 c-4 -6 -1 -19 6 -28 12 -16 12 -16 -5 0 -16 14 -15 38 0
38 3 0 2 -5 -1 -10z m45 -41 c0 -5 -5 -9 -12 -9 -6 0 -8 3 -5 7 4 3 1 13 -6
22 -11 14 -10 14 6 2 9 -7 17 -17 17 -22z m-460 11 c0 -5 -4 -10 -10 -10 -5 0
-10 5 -10 10 0 6 5 10 10 10 6 0 10 -4 10 -10z m-2660 -129 c0 -37 32 -155 79
-292 112 -326 298 -639 463 -779 101 -86 135 -109 244 -164 243 -122 519 -211
784 -251 142 -22 527 -30 710 -16 394 31 823 163 1066 328 92 63 251 227 323
334 74 110 162 288 220 446 41 113 111 367 111 405 0 15 5 19 18 15 9 -3 78
-24 152 -45 338 -100 444 -160 504 -286 22 -46 33 -96 87 -416 16 -94 23 -629
10 -733 -6 -50 -14 -111 -17 -134 l-5 -43 -312 1 c-172 1 -353 4 -403 8 l-91
6 14 30 14 30 -4 -27 c-2 -16 0 -28 4 -28 5 0 7 33 6 73 -1 39 2 86 7 102 l9
30 7 -32 c4 -18 4 -48 0 -65 -7 -27 -8 -29 -9 -9 -1 13 -4 22 -7 19 -8 -9 7
-98 17 -98 5 0 9 7 9 15 0 10 11 15 35 15 34 0 35 1 37 43 l1 42 4 -42 c2 -24
8 -43 14 -43 5 0 8 38 7 93 -2 50 1 99 7 107 5 8 9 56 9 105 l-1 90 6 -80 c5
-64 8 -75 15 -55 8 24 9 24 17 5 12 -32 10 186 -3 272 -7 43 -14 70 -16 61 -4
-21 -18 -24 -25 -5 -3 6 -6 2 -6 -10 -1 -12 4 -23 10 -25 7 -2 7 -11 0 -28
l-10 -25 0 28 c-1 32 -26 37 -36 7 -9 -29 -35 -26 -33 4 2 16 7 22 16 18 15
-5 32 14 32 38 -1 12 -3 12 -14 -2 -7 -10 -16 -18 -20 -18 -10 0 -7 38 4 45
12 8 13 35 1 35 -5 0 -11 -10 -14 -22 -3 -13 -16 -53 -30 -90 -14 -38 -23 -68
-19 -68 4 0 2 -4 -4 -8 -6 -4 -15 -20 -21 -37 -5 -17 -18 -32 -29 -34 -54 -10
-84 -82 -119 -292 -14 -83 -25 -155 -25 -160 0 -5 -6 -9 -14 -9 -14 0 -26 21
-26 47 0 27 -78 183 -92 183 -8 0 -22 -14 -32 -31 -14 -24 -18 -51 -17 -124
l1 -94 -558 -3 c-812 -4 -1536 -4 -2129 2 -515 5 -523 5 -522 25 0 11 3 36 7
55 7 34 8 35 32 23 14 -7 19 -13 13 -13 -7 0 -13 -4 -13 -10 0 -6 10 -5 25 2
33 15 31 20 -13 40 -26 13 -45 33 -64 68 -16 27 -32 50 -36 50 -13 0 -62 -109
-81 -180 -18 -65 -18 -65 -52 -62 -19 2 -35 5 -36 6 -1 1 -9 60 -18 131 -23
194 -63 307 -116 336 -26 13 -76 -5 -84 -31 -3 -9 10 -108 30 -219 19 -111 35
-206 35 -211 0 -10 -744 -14 -783 -5 -24 6 -24 9 -36 213 -10 157 -10 270 -2
467 17 424 63 639 162 765 64 81 240 153 479 196 52 9 102 20 110 25 21 11 30
2 30 -30z m2713 24 c-3 -9 -8 -14 -10 -11 -3 3 -2 9 2 15 9 16 15 13 8 -4z
m57 -85 c0 -5 -4 -10 -10 -10 -5 0 -10 5 -10 10 0 6 5 10 10 10 6 0 10 -4 10
-10z m48 -105 c-3 -3 -9 2 -12 12 -6 14 -5 15 5 6 7 -7 10 -15 7 -18z m936
-76 c-37 -129 -157 -416 -231 -554 -18 -34 -63 -81 -63 -66 0 5 5 13 10 16 6
3 10 15 10 25 0 10 49 118 110 239 60 122 124 262 141 311 35 99 48 116 23 29z
m-884 11 c0 -5 -2 -10 -4 -10 -3 0 -8 5 -11 10 -3 6 -1 10 4 10 6 0 11 -4 11
-10z m-2599 -82 c71 -181 262 -518 293 -518 6 0 43 -30 81 -67 39 -36 74 -65
78 -64 5 1 6 -2 3 -7 -6 -10 28 -44 62 -61 17 -9 27 -9 37 -1 10 8 15 8 21 -1
5 -8 3 -9 -6 -4 -9 5 -11 4 -6 -4 4 -7 13 -10 19 -8 7 2 35 -9 62 -24 28 -15
94 -44 149 -64 315 -114 797 -168 1181 -132 211 20 269 21 260 7 -4 -6 -13 -9
-19 -7 -7 3 -19 1 -27 -4 -9 -7 0 -8 31 -5 90 10 212 31 207 36 -3 3 13 6 35
7 22 0 38 0 36 -2 -7 -8 -180 -48 -258 -60 -291 -47 -601 -54 -825 -20 -403
62 -687 144 -900 260 -174 94 -287 226 -416 485 -33 66 -139 321 -139 335 0
17 12 -5 41 -77z m402 45 c-7 -2 -19 -2 -25 0 -7 3 -2 5 12 5 14 0 19 -2 13
-5z m4670 -199 c25 -5 27 -9 27 -57 0 -29 4 -99 10 -157 5 -58 16 -226 25
-375 16 -270 38 -500 55 -564 5 -19 8 -36 7 -37 -4 -4 -167 22 -171 27 -2 4
-10 92 -36 439 -5 63 -14 196 -20 295 -12 211 -29 402 -37 429 -5 17 -1 18 53
12 33 -4 71 -9 87 -12z m-6468 -28 c-56 -57 -78 -263 -79 -748 l-1 -376 -55
-7 c-30 -4 -59 -10 -65 -15 -5 -4 -48 -10 -95 -12 l-86 -6 18 87 c27 132 46
323 58 576 13 271 29 505 35 516 3 4 70 8 150 8 l144 1 -24 -24z m1905 -502
c0 -2 -9 0 -20 6 -11 6 -20 13 -20 16 0 2 9 0 20 -6 11 -6 20 -13 20 -16z
m3367 -96 c-2 -13 -4 -5 -4 17 -1 22 1 32 4 23 2 -10 2 -28 0 -40z m-37 12 c0
-11 -7 -20 -15 -20 -8 0 -15 5 -15 11 0 5 5 7 10 4 6 -3 10 1 10 9 0 9 2 16 5
16 3 0 5 -9 5 -20z m-90 -106 c0 -8 -5 -12 -10 -9 -6 4 -8 11 -5 16 9 14 15
11 15 -7z m-1115 -4 c-3 -5 -12 -10 -18 -10 -7 0 -6 4 3 10 19 12 23 12 15 0z
m-38 -16 c-3 -3 -12 -4 -19 -1 -8 3 -5 6 6 6 11 1 17 -2 13 -5z m-40 -10 c-3
-3 -12 -4 -19 -1 -8 3 -5 6 6 6 11 1 17 -2 13 -5z m1187 -105 c-12 -36 -14
-38 -9 -10 3 18 5 54 6 80 l1 46 8 -36 c6 -25 4 -49 -6 -80z m93 -21 c-3 -8
-6 -5 -6 6 -1 11 2 17 5 13 3 -3 4 -12 1 -19z m-110 -50 c-3 -8 -6 -5 -6 6 -1
11 2 17 5 13 3 -3 4 -12 1 -19z m1443 -444 c150 -29 270 -114 329 -232 31 -62
56 -154 48 -175 -3 -7 -24 -19 -48 -27 -24 -7 -57 -20 -73 -28 -52 -26 -322
-119 -521 -180 -199 -61 -428 -112 -441 -99 -2 2 24 12 58 21 55 16 92 29 183
67 11 4 58 22 105 39 47 17 108 40 135 50 80 31 198 66 370 111 88 22 164 44
169 46 35 22 -184 48 -275 34 -106 -17 -290 -67 -390 -106 -143 -55 -257 -91
-324 -101 -33 -5 -143 -9 -245 -10 -925 -8 -2416 -19 -2418 -18 -5 3 27 32
132 122 203 174 306 287 306 335 0 34 -37 57 -91 57 -55 0 -60 -3 -145 -106
-56 -67 -291 -260 -312 -256 -12 2 -13 0 -4 -6 9 -6 7 -14 -11 -30 l-24 -22
-40 42 c-22 24 -68 69 -102 101 -56 51 -69 77 -40 77 6 0 8 -4 5 -9 -3 -5 1
-14 9 -21 13 -11 14 -10 9 4 -8 21 4 21 28 -1 10 -9 21 -14 24 -11 3 3 -12 16
-32 28 -30 19 -40 21 -56 11 -16 -10 -25 -7 -59 19 -21 18 -39 36 -39 42 0 6
7 5 16 -3 17 -14 74 -26 61 -13 -4 4 -17 8 -29 9 -12 1 -24 7 -26 15 -3 8 0
10 9 5 8 -5 11 -4 6 0 -10 11 -48 14 -41 3 3 -4 1 -8 -4 -8 -5 0 -25 21 -43
46 -58 79 -65 84 -115 84 -66 0 -84 -13 -84 -61 0 -75 56 -146 225 -283 120
-96 205 -175 205 -189 0 -6 -8 -3 -17 5 -16 12 -58 13 -303 6 -420 -13 -1682
6 -1847 28 -36 4 -53 3 -53 -4 0 -8 -31 -10 -97 -7 -97 4 -97 4 -28 -6 39 -5
75 -11 80 -13 28 -12 -167 -3 -285 13 -130 17 -133 18 -83 25 28 4 62 5 75 1
17 -5 19 -4 9 3 -11 8 -9 11 10 15 14 2 5 5 -21 5 -25 1 -65 -3 -90 -9 -24 -5
-92 -17 -150 -25 -58 -8 -126 -21 -153 -30 -45 -15 -49 -15 -81 5 -18 12 -42
21 -53 21 -10 0 -92 20 -181 44 -178 49 -257 86 -335 159 -55 51 -55 57 -7
164 41 90 94 142 192 189 l83 39 2009 2 c1105 1 2011 5 2014 8 3 2 642 4 1421
4 1188 -1 1428 -3 1491 -15z m-4063 -830 c-3 -3 -12 -4 -19 -1 -8 3 -5 6 6 6
11 1 17 -2 13 -5z m1346 -1 c-13 -2 -33 -2 -45 0 -13 2 -3 4 22 4 25 0 35 -2
23 -4z m-980 -10 c-24 -2 -62 -2 -85 0 -24 2 -5 4 42 4 47 0 66 -2 43 -4z"/>
<path d="M4096 8203 c-6 -14 -5 -15 5 -6 7 7 10 15 7 18 -3 3 -9 -2 -12 -12z"/>
<path d="M4138 8093 c7 -3 16 -2 19 1 4 3 -2 6 -13 5 -11 0 -14 -3 -6 -6z"/>
<path d="M5615 7890 c3 -5 8 -10 11 -10 2 0 4 5 4 10 0 6 -5 10 -11 10 -5 0
-7 -4 -4 -10z"/>
<path d="M4285 7300 c-67 -14 -185 -60 -237 -92 -57 -35 -131 -122 -148 -174
-43 -130 55 -243 255 -293 191 -48 347 -48 523 0 192 51 305 163 271 266 -34
106 -195 224 -371 273 -82 23 -233 34 -293 20z m268 -199 c60 -21 227 -118
227 -131 0 -14 -80 -40 -182 -60 -120 -24 -242 -25 -346 -4 -81 16 -224 75
-201 83 8 2 32 16 54 31 56 38 121 70 185 92 69 23 180 18 263 -11z"/>
<path d="M5941 7289 c-125 -26 -231 -72 -300 -128 -126 -102 -148 -173 -83
-270 57 -85 165 -138 333 -167 250 -42 572 23 655 131 26 35 29 46 29 114 -1
121 -48 187 -190 266 -133 75 -267 91 -444 54z m314 -192 c61 -29 165 -101
165 -116 0 -12 -89 -49 -162 -66 -147 -35 -360 -26 -458 19 -19 9 -26 14 -15
11 70 -15 79 -15 40 0 -22 9 -60 18 -84 21 -42 4 -59 10 -50 18 13 10 151 88
176 97 141 57 285 63 388 16z"/>
<path d="M5136 6520 c-145 -26 -226 -126 -230 -282 -1 -47 3 -61 21 -80 22
-21 30 -22 265 -25 322 -4 319 -4 345 12 63 42 30 225 -54 294 -80 66 -232
101 -347 81z"/>
<path d="M3951 6464 c0 -11 3 -14 6 -6 3 7 2 16 -1 19 -3 4 -6 -2 -5 -13z"/>
<path d="M3961 6334 c0 -11 3 -14 6 -6 3 7 2 16 -1 19 -3 4 -6 -2 -5 -13z"/>
<path d="M3901 6243 c0 -12 -4 -30 -7 -40 -5 -17 -5 -17 6 0 6 10 9 28 7 40
-4 22 -4 22 -6 0z"/>
<path d="M5175 6006 c-172 -43 -293 -178 -209 -232 24 -16 27 -16 57 0 124 68
119 66 197 65 81 -1 110 -9 182 -52 77 -46 128 -27 114 45 -9 51 -67 113 -139
147 -75 36 -135 44 -202 27z"/>
<path d="M4150 5868 c0 -9 -6 -19 -12 -21 -10 -4 -10 -6 0 -6 14 -1 28 26 18
36 -3 4 -6 -1 -6 -9z"/>
<path d="M6450 5820 c0 -5 5 -10 10 -10 6 0 10 5 10 10 0 6 -4 10 -10 10 -5 0
-10 -4 -10 -10z"/>
<path d="M4200 5810 c0 -5 5 -10 11 -10 5 0 7 5 4 10 -3 6 -8 10 -11 10 -2 0
-4 -4 -4 -10z"/>
<path d="M4107 5736 c-9 -24 17 -38 39 -21 10 8 14 15 7 15 -6 0 -15 -5 -18
-10 -4 -6 -11 -8 -16 -4 -6 4 -6 11 2 20 7 8 7 14 1 14 -5 0 -12 -6 -15 -14z"/>
<path d="M4280 5730 c0 -6 7 -13 15 -16 21 -8 19 -24 -2 -25 -12 0 -13 -2 -5
-6 7 -3 20 1 29 9 14 10 15 10 9 0 -5 -8 -1 -19 10 -28 18 -15 18 -15 -1 -8
-42 15 -105 21 -104 10 3 -25 -2 -37 -12 -30 -8 4 -7 9 2 15 11 7 11 9 1 9 -7
0 -10 5 -6 11 5 8 -1 10 -19 7 -15 -3 -24 -2 -22 2 6 10 -16 18 -33 13 -17 -6
75 -81 110 -88 15 -4 26 -10 23 -15 -6 -9 194 -110 219 -110 9 0 25 -5 35 -12
22 -13 107 8 116 29 3 11 0 11 -16 2 -16 -8 -27 -8 -45 1 -13 7 -21 16 -19 21
3 4 -3 5 -13 2 -10 -2 -26 5 -36 16 -18 20 -18 20 40 19 32 -1 53 -3 46 -6
-17 -5 -15 -22 3 -22 8 0 15 5 15 11 0 6 7 8 16 5 9 -3 14 -1 12 4 -2 6 -39
26 -83 44 -44 18 -124 58 -178 89 -105 61 -107 62 -107 47z m125 -90 c-3 -11
-2 -20 3 -20 6 0 12 5 14 12 3 8 11 7 29 -6 l24 -17 -30 6 c-18 4 -25 3 -18
-2 9 -6 1 -9 -22 -10 -28 -1 -35 3 -35 18 0 10 7 19 15 19 8 0 15 5 15 10 0 6
3 10 6 10 3 0 2 -9 -1 -20z m-48 -46 c-3 -3 -12 -4 -19 -1 -8 3 -5 6 6 6 11 1
17 -2 13 -5z m126 -40 c-3 -8 -11 -14 -19 -14 -15 0 -18 18 -7 46 6 16 7 16
19 -1 7 -9 10 -23 7 -31z m54 -50 c-3 -3 -12 -4 -19 -1 -8 3 -5 6 6 6 11 1 17
-2 13 -5z"/>
<path d="M4663 5518 c6 -17 -15 -40 -45 -51 -10 -4 -18 -11 -18 -16 0 -12 24
-4 58 17 24 15 29 46 10 58 -7 5 -9 2 -5 -8z"/>
<path d="M4588 5513 c6 -2 18 -2 25 0 6 3 1 5 -13 5 -14 0 -19 -2 -12 -5z"/>
<path d="M5241 4826 c-16 -28 -8 -46 20 -46 20 0 44 44 33 61 -10 17 -41 9
-53 -15z"/>
<path d="M4561 4674 c0 -11 3 -14 6 -6 3 7 2 16 -1 19 -3 4 -6 -2 -5 -13z"/>
<path d="M5783 4410 c0 -25 2 -35 4 -22 2 12 2 32 0 45 -2 12 -4 2 -4 -23z"/>
<path d="M5801 4334 c0 -11 3 -14 6 -6 3 7 2 16 -1 19 -3 4 -6 -2 -5 -13z"/>
<path d="M5777 4178 c-2 -7 -1 -22 4 -33 6 -16 8 -14 8 13 1 33 -4 41 -12 20z"/>
<path d="M5850 4175 c0 -8 5 -15 10 -15 6 0 10 7 10 15 0 8 -4 15 -10 15 -5 0
-10 -7 -10 -15z"/>
<path d="M5800 4145 c0 -8 2 -15 4 -15 2 0 6 7 10 15 3 8 1 15 -4 15 -6 0 -10
-7 -10 -15z"/>
<path d="M5860 4117 c0 -20 4 -37 10 -37 5 0 7 14 3 33 -8 45 -13 47 -13 4z"/>
<path d="M5791 4104 c-2 -40 12 -114 21 -114 6 0 7 11 3 28 -5 15 -11 45 -15
67 -4 22 -8 31 -9 19z"/>
<path d="M5542 4019 c-18 -4 -43 -15 -55 -26 -12 -11 -47 -41 -77 -68 -53 -46
-162 -105 -195 -105 -28 0 -78 31 -172 106 -63 51 -101 74 -119 74 -26 0 -27
-1 -20 -46 13 -99 96 -213 184 -254 107 -51 211 -48 315 8 87 47 172 163 184
252 7 53 -4 68 -45 59z"/>
<path d="M5822 3940 c0 -14 2 -19 5 -12 2 6 2 18 0 25 -3 6 -5 1 -5 -13z"/>
<path d="M5911 3904 c0 -11 3 -14 6 -6 3 7 2 16 -1 19 -3 4 -6 -2 -5 -13z"/>
<path d="M5830 3896 c0 -15 18 -31 26 -23 7 7 -7 37 -17 37 -5 0 -9 -6 -9 -14z"/>
<path d="M5900 3869 c0 -17 19 -29 46 -29 22 0 17 36 -6 37 -11 1 -20 -4 -20
-10 0 -7 -4 -6 -10 3 -8 13 -10 13 -10 -1z"/>
<path d="M6154 3399 c-3 -6 -1 -16 5 -22 8 -8 11 -5 11 11 0 24 -5 28 -16 11z"/>
<path d="M6186 3385 c-7 -19 3 -19 28 0 19 15 19 15 -1 15 -11 0 -23 -7 -27
-15z"/>
<path d="M6143 3353 c14 -14 19 -15 29 -4 11 10 10 11 -4 6 -11 -4 -18 -2 -18
4 0 6 -5 11 -12 11 -8 0 -6 -6 5 -17z"/>
<path d="M5893 2943 c-20 -8 -15 -19 15 -32 23 -10 25 -10 10 2 -22 17 -23 31
-3 23 8 -3 15 -1 15 4 0 11 -16 12 -37 3z"/>
<path d="M5800 2900 c-17 -6 -9 -7 25 -3 28 3 52 7 54 9 8 7 -54 2 -79 -6z"/>
<path d="M5748 2883 c7 -3 16 -2 19 1 4 3 -2 6 -13 5 -11 0 -14 -3 -6 -6z"/>
<path d="M5846 2878 c4 -7 -5 -8 -27 -4 -22 4 -27 3 -15 -2 19 -8 18 -9 -5
-17 -13 -4 -34 -9 -46 -11 -26 -3 -96 -35 -90 -40 2 -2 21 2 43 10 21 7 72 24
112 37 83 27 95 36 51 37 -18 0 -27 -3 -23 -10z"/>
<path d="M7567 3413 c-28 -27 35 -94 150 -161 39 -23 75 -42 80 -42 4 0 21
-19 37 -41 51 -73 103 -30 55 47 -31 51 -55 72 -124 106 -33 17 -85 45 -116
64 -58 35 -71 39 -82 27z"/>
<path d="M7338 2803 c-5 -56 -1 -69 8 -25 4 18 10 29 15 26 10 -6 12 7 3 30
-11 29 -22 16 -26 -31z"/>
<path d="M7602 2776 c-66 -17 -70 -21 -44 -45 19 -16 22 -29 22 -94 0 -72 1
-77 24 -83 32 -8 158 -10 176 -3 8 3 12 4 8 2 -15 -8 -8 -23 10 -23 12 0 7
-10 -20 -35 -47 -44 -36 -46 16 -4 27 23 34 34 25 40 -7 4 -13 29 -13 58 -1
28 -4 51 -8 51 -5 0 -8 9 -8 19 0 10 -7 21 -15 25 -11 4 -15 -1 -15 -18 0 -14
6 -26 13 -29 10 -4 10 -7 0 -18 -11 -11 -13 -10 -13 4 0 13 -9 17 -40 17 -40
0 -40 0 -40 39 0 22 -5 41 -12 44 -7 2 6 10 30 16 46 13 85 3 42 -11 -26 -8
-17 -7 73 7 23 4 26 3 13 -3 -19 -8 -19 -9 2 -14 14 -4 20 -2 15 5 -4 7 0 8
12 3 18 -6 18 -6 2 12 -33 36 -176 58 -255 38z m138 -10 c0 -8 -48 -12 -66 -5
-13 5 -7 8 24 8 23 1 42 -1 42 -3z m45 -16 c3 -5 -1 -10 -9 -10 -9 0 -16 5
-16 10 0 6 4 10 9 10 6 0 13 -4 16 -10z m-161 -9 c3 -5 -1 -11 -9 -15 -9 -3
-15 0 -15 9 0 16 16 20 24 6z"/>
<path d="M7377 2749 c4 -13 8 -18 11 -10 2 7 -1 18 -6 23 -8 8 -9 4 -5 -13z"/>
<path d="M7880 2710 c0 -5 5 -10 10 -10 6 0 10 5 10 10 0 6 -4 10 -10 10 -5 0
-10 -4 -10 -10z"/>
<path d="M7850 2680 c-9 -6 -10 -10 -3 -10 6 0 15 5 18 10 8 12 4 12 -15 0z"/>
<path d="M7500 2651 c0 -6 4 -13 10 -16 6 -3 7 1 4 9 -7 18 -14 21 -14 7z"/>
<path d="M7866 2615 c-24 -18 -29 -75 -8 -97 20 -23 55 -23 75 0 20 22 22 83
5 100 -16 16 -49 15 -72 -3z"/>
<path d="M7588 2518 c-4 -10 -14 -18 -22 -18 -7 0 -17 -7 -20 -16 -9 -23 -8
-24 12 -24 15 0 15 2 2 11 -12 9 -10 10 8 5 32 -9 59 -14 45 -9 -6 2 -13 19
-15 36 -2 24 -5 28 -10 15z"/>
<path d="M7700 2450 c0 -5 4 -10 9 -10 6 0 13 5 16 10 3 6 -1 10 -9 10 -9 0
-16 -4 -16 -10z"/>
<path d="M7398 2283 c-5 -36 -3 -51 6 -42 10 10 17 79 8 79 -5 0 -12 -17 -14
-37z"/>
<path d="M7390 2195 c-1 -11 -5 -44 -9 -72 -4 -29 -4 -53 0 -53 10 0 23 101
16 126 -4 18 -5 18 -7 -1z"/>
<path d="M3778 2083 c6 -2 18 -2 25 0 6 3 1 5 -13 5 -14 0 -19 -2 -12 -5z"/>
<path d="M3818 2063 c7 -3 16 -2 19 1 4 3 -2 6 -13 5 -11 0 -14 -3 -6 -6z"/>
<path d="M7280 2060 c0 -5 15 -10 34 -10 19 0 41 -3 50 -6 9 -3 16 -1 16 6 0
6 -4 8 -10 5 -5 -3 -10 -1 -10 4 0 6 -18 11 -40 11 -22 0 -40 -4 -40 -10z"/>
<path d="M7288 2033 c12 -2 30 -2 40 0 9 3 -1 5 -23 4 -22 0 -30 -2 -17 -4z"/>
<path d="M5563 2363 c9 -2 23 -2 30 0 6 3 -1 5 -18 5 -16 0 -22 -2 -12 -5z"/>
<path d="M5650 2356 c0 -2 9 -6 20 -9 11 -3 18 -1 14 4 -5 9 -34 13 -34 5z"/>
<path d="M7370 1712 c-28 -22 -30 -84 -4 -113 42 -46 134 0 134 67 0 58 -80
86 -130 46z"/>
<path d="M6198 1713 c7 -3 16 -2 19 1 4 3 -2 6 -13 5 -11 0 -14 -3 -6 -6z"/>
<path d="M6882 1708 c-26 -13 -37 -47 -27 -85 17 -70 84 -86 129 -32 39 46 34
89 -15 114 -33 17 -55 18 -87 3z"/>
<path d="M7941 1704 c-33 -14 -55 -55 -46 -84 15 -48 75 -76 111 -52 18 12 34
49 34 79 0 56 -43 81 -99 57z"/>
<path d="M2470 1678 c-11 -18 -20 -43 -20 -56 0 -31 43 -72 75 -72 67 0 101
98 49 139 -41 32 -80 28 -104 -11z"/>
<path d="M3022 1700 c-28 -12 -46 -51 -38 -84 16 -63 86 -77 130 -25 29 34 33
65 12 92 -16 21 -72 31 -104 17z"/>
<path d="M3559 1671 c-23 -23 -29 -36 -24 -53 15 -50 79 -75 118 -45 23 16 31
77 15 98 -7 9 -28 20 -46 23 -27 7 -36 3 -63 -23z"/>
<path d="M4246 1679 c-15 -12 -26 -30 -26 -44 0 -30 54 -85 84 -85 31 0 66 40
72 82 5 29 2 38 -17 52 -32 22 -81 20 -113 -5z"/>
<path d="M6060 1680 c-45 -45 -11 -120 54 -120 61 0 106 77 72 123 -19 25
-100 23 -126 -3z"/>
<path d="M1941 1666 c-17 -18 -22 -32 -17 -50 8 -33 44 -66 72 -66 49 0 72 82
34 120 -27 27 -62 25 -89 -4z"/>
<path d="M6470 1663 c-50 -64 29 -143 93 -93 34 27 39 93 8 110 -36 19 -78 12
-101 -17z"/>
<path d="M8252 1668 c-29 -29 4 -108 46 -108 48 0 78 65 46 101 -19 21 -73 26
-92 7z"/>
<path d="M8446 1658 c-23 -32 -20 -74 6 -98 26 -24 12 -27 -20 -4 -12 8 -22
12 -23 7 0 -4 -4 2 -9 15 -5 12 -15 22 -22 22 -9 0 -10 -3 -2 -8 6 -4 14 -17
18 -29 4 -14 12 -20 22 -16 7 3 14 0 14 -6 0 -6 7 -11 16 -11 14 0 14 -3 4
-15 -23 -27 -5 -25 30 3 60 49 80 75 80 102 0 56 -82 84 -114 38z"/>
<path d="M8141 1594 c1 -63 3 -73 10 -49 8 27 3 114 -7 124 -2 2 -4 -31 -3
-75z"/>
<path d="M5520 1641 c0 -3 4 -13 10 -21 6 -9 5 -20 -3 -30 -10 -13 -10 -13 5
-2 9 8 14 20 11 28 -3 8 4 17 18 23 22 8 21 9 -8 9 -18 -1 -33 -4 -33 -7z"/>
<path d="M4895 1628 c11 -7 38 -13 60 -14 22 0 60 -3 85 -6 25 -3 34 -3 20 0
-20 5 -17 7 20 12 39 6 35 7 -31 8 -42 1 -98 5 -125 8 -43 5 -46 4 -29 -8z"/>
<path d="M5215 1630 c-38 -3 -51 -7 -35 -10 30 -6 119 3 105 10 -5 3 -37 3
-70 0z"/>
<path d="M5315 1630 c-12 -5 15 -7 70 -3 50 3 92 7 94 9 9 8 -145 2 -164 -6z"/>
<path d="M5010 1586 c0 -9 5 -16 10 -16 6 0 10 4 10 9 0 6 -4 13 -10 16 -5 3
-10 -1 -10 -9z"/>
<path d="M5445 1590 c-3 -6 1 -7 9 -4 18 7 21 14 7 14 -6 0 -13 -4 -16 -10z"/>
<path d="M8247 1559 c7 -7 15 -10 18 -7 3 3 -2 9 -12 12 -14 6 -15 5 -6 -5z"/>
<path d="M5092 1548 c3 -7 12 -14 21 -16 12 -2 15 1 11 12 -7 19 -38 22 -32 4z"/>
<path d="M5164 1503 c-4 -10 -8 -20 -8 -23 -4 -19 -19 -31 -26 -21 -4 7 -11 3
-18 -13 -9 -20 -7 -27 8 -41 14 -13 23 -15 32 -8 9 8 19 5 33 -9 14 -14 16
-19 5 -16 -8 2 -18 7 -21 12 -4 4 -10 3 -13 -3 -4 -6 -2 -11 4 -11 6 0 8 -4 5
-10 -3 -5 0 -7 8 -4 8 3 18 0 23 -7 5 -8 3 -10 -5 -4 -9 5 -9 1 1 -14 7 -12
14 -17 16 -11 2 6 7 8 11 6 4 -3 8 1 8 9 0 8 -4 12 -9 9 -4 -3 -8 -1 -8 4 0 6
7 12 15 16 19 7 19 45 0 52 -23 9 -7 24 26 24 23 0 29 4 29 21 0 11 3 18 8 16
11 -7 54 12 48 21 -3 5 -35 7 -71 5 -42 -3 -65 -1 -65 6 0 18 -27 13 -36 -6z
m94 -30 c-10 -2 -28 -2 -40 0 -13 2 -5 4 17 4 22 1 32 -1 23 -4z m-61 -55 c1
-11 -3 -15 -13 -11 -8 3 -14 10 -14 17 0 6 -7 2 -16 -9 -12 -17 -16 -18 -24
-5 -13 21 -5 28 33 26 23 -1 33 -6 34 -18z"/>
<path d="M5366 1511 c-4 -7 -5 -15 -2 -18 9 -9 19 4 14 18 -4 11 -6 11 -12 0z"/>
<path d="M5399 1483 c-13 -16 -12 -17 4 -4 16 13 21 21 13 21 -2 0 -10 -8 -17
-17z"/>
<path d="M5080 1449 c0 -5 5 -7 10 -4 6 3 10 8 10 11 0 2 -4 4 -10 4 -5 0 -10
-5 -10 -11z"/>
<path d="M5285 1390 c-3 -6 1 -7 9 -4 18 7 21 14 7 14 -6 0 -13 -4 -16 -10z"/>
<path d="M7951 1313 c-46 -23 -75 -43 -65 -43 11 0 30 -3 44 -6 19 -4 22 -3
10 5 -8 5 -12 11 -10 13 28 18 50 30 78 42 17 8 32 20 32 25 0 6 -1 10 -2 9
-2 0 -41 -21 -87 -45z"/>
<path d="M7978 1263 c7 -3 16 -2 19 1 4 3 -2 6 -13 5 -11 0 -14 -3 -6 -6z"/>
<path d="M7865 1249 c52 -10 95 -17 73 -12 -10 2 -18 9 -18 14 0 5 -21 8 -47
8 l-48 -2 40 -8z"/>
<path d="M2638 1233 c29 -2 74 -2 100 0 26 2 2 3 -53 3 -55 0 -76 -1 -47 -3z"/>
<path d="M7788 1233 c7 -3 16 -2 19 1 4 3 -2 6 -13 5 -11 0 -14 -3 -6 -6z"/>
<path d="M2803 1223 c9 -2 25 -2 35 0 9 3 1 5 -18 5 -19 0 -27 -2 -17 -5z"/>
<path d="M3823 1213 c15 -2 37 -2 50 0 12 2 0 4 -28 4 -27 0 -38 -2 -22 -4z"/>
<path d="M3978 1213 c34 -2 90 -2 125 0 34 2 6 3 -63 3 -69 0 -97 -1 -62 -3z"/>
<path d="M27 103 c-25 -4 -27 -8 -27 -54 0 -48 1 -49 30 -49 30 0 30 1 30 55
0 30 -1 54 -2 54 -2 -1 -15 -4 -31 -6z"/>
</g>
</svg>
