<?xml version="1.0" standalone="no"?>
<!DOCTYPE svg PUBLIC "-//W3C//DTD SVG 20010904//EN"
 "http://www.w3.org/TR/2001/REC-SVG-20010904/DTD/svg10.dtd">
<svg version="1.0" xmlns="http://www.w3.org/2000/svg"
 width="1024.000000pt" height="1024.000000pt" viewBox="0 0 1024.000000 1024.000000"
 preserveAspectRatio="xMidYMid meet">
<metadata>
Created by potrace 1.16, written by Peter Selinger 2001-2019
</metadata>
<g transform="translate(0.000000,1024.000000) scale(0.100000,-0.100000)"
fill="#000000" stroke="none">
<path d="M3420 8251 c-44 -26 -284 -89 -551 -146 -73 -15 -80 -19 -133 -75
-31 -33 -65 -78 -76 -102 -22 -49 -17 -66 45 -169 59 -96 102 -199 166 -392
97 -293 126 -397 159 -554 43 -204 113 -450 155 -538 l35 -74 -91 -143 c-182
-284 -277 -418 -473 -673 -348 -452 -823 -962 -1095 -1176 -66 -51 -119 -95
-118 -95 1 -1 88 -11 192 -23 105 -11 294 -32 420 -46 127 -15 286 -32 355
-40 69 -7 260 -23 425 -34 165 -11 365 -26 445 -32 80 -6 153 -11 163 -11 14
1 11 -7 -16 -41 -139 -172 -231 -372 -257 -556 -33 -236 101 -540 281 -631 52
-27 141 -48 258 -59 57 -6 107 -11 111 -11 5 0 -12 -48 -37 -108 -100 -236
-192 -494 -207 -575 -6 -33 -4 -41 22 -65 16 -15 53 -40 83 -56 30 -16 55 -30
56 -30 1 -1 -4 -20 -12 -41 -39 -110 2 -181 118 -204 29 -6 228 -22 442 -36
814 -53 2287 -41 2729 21 189 26 211 45 211 170 0 80 1 85 23 90 29 8 29 48 2
138 -60 193 -323 681 -550 1021 -37 55 -80 120 -97 145 -16 25 -46 76 -67 113
l-37 69 48 -40 c96 -80 300 -199 428 -250 123 -48 164 -56 228 -42 126 26 325
148 395 242 25 33 43 48 59 48 54 0 199 78 274 147 25 22 26 23 58 7 71 -35
184 2 308 101 138 110 163 187 102 309 -17 33 -35 66 -39 71 -4 6 -8 27 -8 47
0 49 -38 131 -95 200 -33 41 -44 62 -40 78 8 30 -23 90 -64 124 -41 34 -122
65 -174 66 -104 1 -238 -48 -315 -114 l-41 -35 -33 107 c-37 117 -124 365
-190 537 -88 234 -183 499 -279 780 -43 127 -93 267 -110 312 l-30 83 39 6
c21 4 46 14 54 23 39 43 113 299 135 466 36 272 125 539 261 785 20 36 62 111
93 166 62 111 63 124 17 198 -28 47 -57 63 -147 85 -222 53 -406 111 -419 132
-3 5 -9 9 -14 9 -4 0 -62 -51 -128 -113 -182 -172 -313 -231 -512 -231 -163 0
-216 20 -385 148 -44 33 -81 60 -82 61 -1 1 -8 46 -14 101 l-12 99 -65 60
c-84 77 -112 96 -194 128 -153 61 -364 82 -623 61 -88 -7 -166 -13 -172 -14
-10 0 -13 -27 -13 -102 0 -57 -3 -133 -7 -170 l-6 -68 -33 0 c-65 0 -421 50
-579 81 -182 35 -429 114 -525 167 -36 20 -89 55 -118 79 -52 42 -82 51 -112
34z m2000 -155 c112 -31 207 -74 261 -117 34 -27 39 -36 39 -72 0 -64 46 -341
80 -484 16 -71 48 -173 70 -227 24 -60 38 -108 34 -120 -4 -16 -3 -17 4 -7 8
11 12 9 22 -10 13 -25 98 -129 114 -141 13 -9 4 -17 -25 -24 -68 -14 -339 -25
-455 -19 l-132 7 75 123 c40 67 88 139 106 160 30 34 35 37 56 26 12 -7 24
-11 26 -9 8 10 -141 444 -207 603 l-34 80 -89 3 -90 3 -24 -68 c-13 -37 -48
-124 -77 -193 -63 -151 -103 -269 -111 -330 -5 -41 -1 -53 30 -100 19 -30 62
-111 96 -179 l62 -123 -73 6 c-83 8 -257 30 -398 51 -52 8 -134 18 -182 21
-49 4 -88 11 -88 15 0 5 4 9 9 9 17 0 118 110 164 178 100 150 160 291 228
542 35 126 41 164 46 289 l6 143 181 -5 c155 -4 195 -9 276 -31z m-1860 -59
c129 -69 269 -121 445 -165 188 -47 343 -69 589 -82 99 -6 181 -12 183 -13 1
-2 -2 -17 -7 -33 -5 -16 -19 -67 -31 -114 -26 -100 -111 -295 -159 -365 -43
-63 -125 -146 -171 -174 -134 -79 -348 -82 -488 -6 -62 34 -213 163 -205 176
3 5 0 9 -7 9 -7 0 -10 3 -6 6 3 3 14 1 24 -5 13 -7 14 -10 4 -11 -12 0 -12 -3
-3 -12 10 -10 15 -10 23 2 8 12 10 12 7 1 -4 -13 41 -68 52 -64 3 1 14 5 25 8
17 6 18 5 5 -5 -13 -10 -11 -11 8 -7 12 3 20 1 16 -4 -3 -5 -12 -9 -20 -9 -8
0 -14 -4 -14 -10 0 -5 5 -10 10 -10 6 0 24 -10 39 -21 18 -13 34 -18 43 -14 7
5 10 5 6 0 -4 -4 3 -16 15 -25 18 -15 25 -16 37 -5 10 8 22 10 35 5 19 -8 19
-9 -2 -9 -23 -1 -41 -17 -20 -18 7 0 35 -3 62 -7 123 -15 178 -15 213 0 19 8
32 17 28 21 -3 4 -12 1 -18 -5 -7 -7 -19 -12 -27 -12 -13 1 -12 4 3 15 17 13
18 15 3 15 -9 0 -17 4 -17 9 0 5 10 7 22 3 12 -3 19 -1 15 5 -4 5 6 10 23 10
36 0 38 -5 8 -16 -18 -6 -13 -8 22 -8 34 0 40 2 25 8 -14 6 -9 7 15 3 19 -4
32 -3 28 1 -4 4 -1 17 7 28 10 15 11 25 4 39 -6 11 -8 22 -5 26 3 3 6 0 6 -7
0 -7 4 -10 10 -6 5 3 6 13 3 22 -4 11 -3 14 5 9 7 -4 12 -1 12 9 0 9 -4 13
-10 10 -6 -4 -10 5 -10 19 0 23 4 26 32 26 30 0 31 1 12 15 -17 13 -17 14 -1
15 9 0 17 5 17 10 0 6 -8 10 -17 11 -10 0 -74 2 -143 4 -175 5 -184 6 -192 19
-4 6 -29 11 -55 10 -26 -1 -40 2 -30 5 13 5 -5 14 -60 31 -43 14 -84 30 -91
37 -6 6 -22 15 -35 19 -12 4 -40 18 -62 32 -22 14 -41 25 -43 24 -2 -2 -14 4
-98 56 -28 18 -56 32 -62 32 -15 0 -4 -27 11 -27 23 -1 119 -61 108 -67 -6 -4
-11 -3 -11 1 0 5 -21 20 -47 33 -47 23 -102 27 -114 8 -6 -10 -32 11 -43 34
-5 10 -7 10 -12 0 -3 -6 -10 -10 -15 -6 -5 3 1 14 13 24 13 10 20 22 15 26 -4
4 -14 -1 -22 -12 -9 -12 -18 -15 -22 -9 -5 6 -15 11 -23 13 -11 2 -11 -1 3
-11 9 -8 17 -17 17 -21 0 -14 48 -77 52 -69 3 4 3 2 2 -4 -2 -7 9 -26 24 -43
41 -45 79 -97 59 -81 -10 8 -41 44 -70 80 -28 36 -54 68 -57 71 -11 10 -70 88
-70 93 0 2 12 3 26 1 38 -4 55 6 52 29 -2 11 3 22 11 25 8 2 11 0 8 -5 -4 -6
4 -20 17 -32 19 -18 26 -20 32 -9 4 7 4 10 -1 6 -7 -7 -35 14 -35 26 0 3 -25
30 -55 59 -30 29 -55 50 -55 46 0 -4 19 -26 43 -49 23 -24 34 -40 25 -37 -10
4 -17 3 -15 -1 1 -4 -6 -18 -17 -32 -13 -18 -20 -21 -23 -11 -4 9 -7 10 -13 2
-4 -7 -28 16 -62 61 -54 72 -123 186 -117 193 2 1 24 10 49 18 25 8 44 18 43
21 -2 3 -3 13 -3 21 0 12 -6 14 -27 8 -16 -4 -37 -7 -48 -7 -11 -1 -27 -8 -35
-18 -8 -9 -39 -24 -68 -33 -52 -17 -53 -18 -47 -48 4 -18 19 -68 35 -112 15
-44 76 -224 135 -400 59 -176 112 -328 116 -337 10 -20 2 -23 -99 -37 -44 -5
-65 -5 -67 3 -2 6 -9 38 -16 71 -16 82 -91 329 -136 445 -39 103 -143 320
-186 387 l-27 42 38 11 c20 5 93 24 162 41 163 40 392 108 404 120 6 5 16 3
25 -5 9 -8 54 -34 101 -59z m-351 -204 c18 -38 80 -137 137 -220 57 -84 104
-155 104 -158 0 -4 -6 -3 -12 1 -8 4 -10 3 -5 -2 5 -5 14 -9 20 -9 7 0 11 -8
11 -18 -1 -9 2 -14 6 -12 5 3 21 -12 37 -32 15 -21 52 -68 81 -105 53 -68 62
-88 21 -45 -19 19 -21 19 -15 3 6 -16 4 -17 -9 -6 -13 11 -13 15 -3 21 7 5 10
9 6 9 -5 0 -10 -1 -12 -2 -10 -7 -46 37 -41 49 2 8 1 11 -4 8 -13 -7 -64 61
-56 75 4 6 2 9 -3 8 -14 -4 -75 81 -76 106 -1 12 -8 20 -15 18 -7 -1 -10 2 -7
7 3 5 -1 12 -9 15 -8 3 -15 9 -14 13 3 20 -2 33 -12 31 -6 -2 -16 6 -22 17
-25 41 -103 143 -159 204 -64 71 -63 82 7 90 6 0 26 -29 44 -66z m2218 -106
c25 -52 173 -444 173 -458 0 -21 -18 -7 -25 19 -8 31 -114 271 -141 319 -11
18 -23 33 -29 33 -20 0 -110 -109 -185 -223 -43 -65 -81 -114 -84 -108 -4 6
25 74 64 151 39 78 80 166 91 196 22 58 80 129 101 122 7 -3 23 -26 35 -51z
m1768 -44 c66 -18 136 -36 156 -39 l37 -6 -40 -71 c-23 -39 -79 -132 -126
-206 -47 -75 -125 -203 -175 -286 -88 -148 -157 -249 -142 -210 4 11 12 36 17
55 11 39 93 252 204 531 41 102 74 191 74 197 0 21 -17 13 -29 -15 -25 -55
-73 -123 -84 -116 -6 3 -7 1 -3 -5 9 -15 -86 -166 -167 -267 -107 -133 -213
-227 -308 -274 -120 -60 -278 -89 -330 -61 -21 12 -27 35 -6 27 6 -3 20 -8 30
-12 10 -4 17 -3 17 5 0 6 -5 8 -12 4 -7 -5 -8 -3 -3 6 6 10 4 12 -8 7 -9 -3
-19 -1 -23 5 -4 7 -9 6 -14 -2 -4 -7 -13 -9 -19 -6 -6 4 -9 11 -6 16 3 5 0 12
-6 16 -8 4 -9 3 -5 -4 13 -21 -10 -13 -32 11 -12 13 -19 27 -15 32 5 4 3 5 -4
2 -6 -4 -21 5 -33 20 -12 16 -24 27 -26 25 -10 -6 -87 94 -113 147 -40 79 -78
200 -96 306 -8 50 -15 96 -15 102 0 7 32 -12 71 -42 142 -110 272 -155 449
-155 112 0 245 32 355 85 81 39 204 141 231 191 22 40 10 41 199 -13z m-3749
-40 c-10 -10 -19 5 -10 18 6 11 8 11 12 0 2 -7 1 -15 -2 -18z m54 -93 c0 -5
-2 -10 -4 -10 -3 0 -8 5 -11 10 -3 6 -1 10 4 10 6 0 11 -4 11 -10z m127 -16
c-3 -3 -12 -4 -19 -1 -8 3 -5 6 6 6 11 1 17 -2 13 -5z m-53 -16 c-5 -7 -2 -9
8 -6 11 5 15 -1 15 -24 l0 -30 -16 26 c-9 14 -22 26 -31 27 -10 0 -9 3 5 9 27
12 27 12 19 -2z m226 -43 c0 -2 -10 -10 -22 -16 -21 -11 -22 -11 -9 4 13 16
31 23 31 12z m20 -25 c-8 -5 -22 -9 -30 -9 -10 0 -8 3 5 9 27 12 43 12 25 0z
m-180 -15 c0 -8 -2 -15 -4 -15 -2 0 -6 7 -10 15 -3 8 -1 15 4 15 6 0 10 -7 10
-15z m234 -7 c-3 -5 -12 -4 -20 3 -19 16 -18 18 6 12 11 -3 17 -9 14 -15z m26
-38 c0 -5 -4 -10 -10 -10 -5 0 -10 5 -10 10 0 6 5 10 10 10 6 0 10 -4 10 -10z
m100 -10 c20 -6 21 -8 5 -8 -11 0 -31 4 -45 8 -20 6 -21 8 -5 8 11 0 31 -4 45
-8z m-334 -35 c10 -8 15 -14 9 -13 -5 2 -11 -1 -11 -7 -1 -5 2 -9 7 -7 5 1 9
-2 9 -8 0 -5 -3 -10 -7 -10 -10 0 -53 42 -53 52 0 13 25 9 46 -7z m554 -27
c11 -7 8 -8 -10 -4 -14 3 -31 6 -37 6 -7 0 -13 5 -13 11 0 11 33 4 60 -13z
m116 -7 c-4 -5 0 -12 6 -14 7 -3 -3 -5 -22 -5 -19 0 -27 2 -17 5 9 2 17 9 17
14 0 5 5 9 11 9 5 0 8 -4 5 -9z m87 2 c-13 -2 -33 -2 -45 0 -13 2 -3 4 22 4
25 0 35 -2 23 -4z m-186 -19 c-3 -3 -12 -4 -19 -1 -8 3 -5 6 6 6 11 1 17 -2
13 -5z m181 -1 c-11 -3 -18 -14 -18 -29 0 -20 -5 -24 -29 -24 -16 0 -32 -6
-35 -12 -5 -10 -7 -10 -12 0 -3 6 -11 12 -18 12 -7 0 -20 8 -29 18 -16 17 -14
18 23 20 23 2 51 7 63 12 12 5 33 8 47 8 16 0 19 -2 8 -5z m-178 -34 c0 -6 -4
-7 -10 -4 -5 3 -10 11 -10 16 0 6 5 7 10 4 6 -3 10 -11 10 -16z m-325 -118
c-3 -6 -11 -11 -16 -11 -5 0 -4 6 3 14 14 16 24 13 13 -3z m-165 -72 c0 -8 -4
-8 -15 1 -8 7 -15 17 -15 23 0 6 -8 20 -17 32 -10 12 -3 6 15 -12 17 -18 32
-38 32 -44z m570 72 c0 -12 -20 -25 -27 -18 -7 7 6 27 18 27 5 0 9 -4 9 -9z
m-619 -38 c13 -16 12 -17 -3 -4 -10 7 -18 15 -18 17 0 8 8 3 21 -13z m346 1
c-3 -3 -12 -4 -19 -1 -8 3 -5 6 6 6 11 1 17 -2 13 -5z m138 -204 c380 -43 792
-67 1445 -85 800 -23 1015 -32 1120 -50 121 -19 173 -39 205 -76 23 -28 25
-39 25 -117 -1 -48 -7 -112 -14 -142 -23 -97 -49 -170 -61 -170 -6 0 -168 9
-360 19 -193 11 -462 25 -600 31 -137 6 -353 15 -478 20 -458 20 -932 4 -1487
-51 -379 -36 -439 -34 -500 19 -25 21 -39 40 -36 49 3 8 2 11 -4 8 -39 -24
-110 249 -110 423 0 81 -1 80 73 58 25 -7 48 -12 51 -9 2 2 21 -4 43 -15 51
-26 83 -35 83 -25 0 5 -25 17 -55 27 -53 17 -66 36 -23 36 11 0 48 7 82 16 33
9 93 22 131 29 81 15 354 18 470 5z m310 -805 c-36 -170 -48 -368 -42 -678 3
-150 10 -303 16 -342 5 -38 17 -131 26 -205 21 -164 43 -264 89 -395 36 -103
39 -127 11 -78 -12 22 -14 23 -10 6 5 -20 2 -23 -20 -23 -39 0 -167 44 -267
93 -86 41 -88 43 -89 77 0 19 -6 69 -14 110 -7 41 -11 79 -8 83 3 4 0 14 -6
21 -7 8 -11 38 -10 67 1 30 -2 74 -6 99 -18 111 -16 664 2 612 3 -6 9 -10 14
-6 5 3 9 -49 9 -125 0 -81 -4 -131 -10 -131 -6 0 -10 -33 -10 -80 0 -73 2 -80
20 -80 18 0 19 -7 19 -82 0 -46 3 -99 6 -118 5 -26 4 -31 -4 -20 -6 8 -11 23
-11 33 0 10 -7 26 -16 35 -15 15 -16 14 -9 -8 14 -44 24 -92 20 -104 -2 -6 -6
-27 -9 -46 -5 -27 -3 -31 5 -20 9 13 10 12 5 -2 -3 -10 -1 -20 5 -24 6 -4 8
12 3 45 -5 43 -4 51 9 51 22 0 36 30 26 55 -4 11 -7 34 -7 50 0 17 2 22 5 13
5 -20 5 -20 27 -12 13 5 16 22 16 81 0 66 -2 75 -20 80 -15 4 -20 14 -20 39 0
27 4 34 20 34 17 0 20 7 20 40 0 22 5 40 10 40 6 0 10 33 10 80 0 47 4 80 10
80 6 0 10 -35 10 -85 0 -50 4 -85 10 -85 6 0 10 -8 10 -17 0 -14 -2 -15 -9 -5
-5 9 -10 -3 -15 -34 -10 -73 -8 -94 9 -94 11 0 15 11 15 39 0 35 19 68 32 56
3 -3 5 9 4 27 -1 25 -6 34 -21 36 -19 3 -20 8 -14 90 3 48 4 89 2 91 -2 2 -3
-2 -4 -10 -1 -18 -18 21 -18 41 0 9 4 8 9 -5 5 -12 6 4 3 43 -4 44 -2 66 6 71
9 6 8 15 -4 37 l-16 29 2 -30 c1 -16 -2 -38 -6 -48 -4 -9 -5 -29 -3 -42 4 -19
1 -25 -13 -25 -15 0 -19 8 -19 35 0 19 -4 35 -10 35 -5 0 -10 -16 -10 -35 0
-19 -4 -35 -9 -35 -14 0 -22 29 -15 56 4 14 2 24 -5 24 -6 0 -11 10 -11 23 0
12 -5 29 -10 37 -7 11 -10 -3 -10 -45 0 -71 -19 -58 -21 15 l-2 45 -8 -40 c-4
-23 -5 22 -2 103 2 78 5 209 5 291 l0 149 36 6 c20 3 80 6 132 6 52 1 113 5
135 9 22 4 41 7 42 6 1 0 -9 -50 -22 -110z m580 94 c-22 -4 -65 -9 -95 -10
-30 -1 -47 -3 -37 -6 9 -2 15 -8 13 -12 -3 -4 0 -8 7 -8 7 0 23 -3 37 -6 14
-4 19 -4 13 -1 -20 9 -15 24 8 24 11 0 17 -4 14 -10 -4 -7 2 -9 17 -6 91 19
124 13 111 -20 -5 -14 18 -20 57 -14 12 1 13 -1 3 -11 -21 -21 -15 -34 6 -15
17 15 44 17 228 17 114 -1 222 3 238 8 21 5 0 7 -65 5 -65 -2 -84 0 -60 5 l35
8 -42 2 c-24 0 -43 -3 -43 -7 0 -9 -68 -7 -125 3 -33 7 -36 9 -20 16 16 6 14
8 -12 8 -36 1 -89 19 -80 27 6 6 395 -9 727 -27 107 -6 267 -15 355 -19 l160
-8 -215 2 c-118 2 -199 0 -180 -4 l35 -7 -43 -2 c-24 0 -41 2 -39 7 7 9 -59
13 -103 4 -35 -6 -35 -6 15 -12 43 -6 36 -7 -45 -10 l-95 -3 80 -9 c44 -4 108
-7 143 -6 34 2 62 -1 62 -5 0 -11 190 -5 197 5 2 5 61 9 131 9 93 1 116 4 87
10 -38 7 -37 7 13 5 29 -2 54 0 57 3 2 4 18 8 37 9 28 1 22 -3 -35 -28 -71
-31 -103 -38 -92 -20 4 6 -19 10 -62 9 -54 0 -63 -2 -44 -10 14 -5 31 -7 38
-5 7 3 13 1 13 -4 0 -5 15 -10 33 -12 30 -3 27 -7 -83 -80 -110 -73 -250 -199
-275 -249 -7 -13 -16 -38 -19 -55 -6 -27 -3 -35 20 -53 30 -23 112 -29 160
-11 39 15 39 7 2 -33 -41 -44 -138 -106 -206 -132 -32 -12 -52 -25 -52 -35 1
-26 67 -107 116 -141 84 -57 137 -73 254 -73 97 -1 111 1 182 32 42 18 98 52
123 74 l47 41 -5 -354 c-4 -350 -4 -356 -35 -494 -44 -201 -35 -188 -157 -245
-225 -107 -339 -133 -580 -134 -203 -1 -464 22 -424 36 24 9 48 7 83 -7 11 -5
17 -5 14 1 -4 5 13 7 38 5 24 -1 41 -7 38 -12 -3 -5 7 -4 23 2 15 6 53 9 83 8
87 -4 160 0 160 10 0 4 -23 6 -52 3 l-51 -5 6 42 c5 37 3 41 -16 42 -12 1 -2
7 23 14 27 7 39 14 30 18 -35 13 -125 27 -168 25 -43 -1 -44 -2 -12 -6 l35 -5
-30 -8 c-22 -6 -13 -7 30 -5 38 3 53 1 40 -4 -18 -8 -18 -9 5 -10 l25 -2 -25
-8 c-14 -4 -34 -8 -45 -8 -16 0 -15 2 5 9 20 7 19 8 -10 3 -19 -3 -69 -7 -110
-8 l-75 -3 70 7 70 6 -80 2 c-84 1 -182 -16 -185 -33 0 -5 -22 -9 -48 -8 -38
2 -43 1 -24 -7 34 -14 26 -20 -14 -9 -19 6 -41 8 -47 6 -17 -6 57 -25 131 -33
39 -4 60 -10 54 -16 -20 -20 -717 113 -740 141 -54 68 -140 297 -126 335 3 8
1 17 -5 21 -6 3 -11 30 -12 58 0 29 -4 61 -9 72 -6 14 -8 7 -5 -25 6 -64 -33
130 -44 219 -6 44 -6 82 0 95 8 18 9 17 7 -9 0 -16 3 -39 7 -49 8 -18 9 -18
16 2 16 43 37 19 44 -51 6 -63 26 -142 35 -145 6 -2 10 -16 10 -30 0 -15 5
-34 10 -42 5 -8 10 -10 10 -5 0 13 -39 176 -46 195 -12 28 -14 64 -20 280 -6
211 -6 216 14 216 11 0 18 -5 15 -12 -7 -20 121 -127 203 -170 136 -70 267
-92 412 -69 158 26 336 84 347 114 5 13 4 14 -6 4 -7 -7 -37 -13 -66 -13 -74
0 -116 37 -144 130 l-20 67 -52 7 c-148 17 -241 92 -291 232 l-14 41 81 -23
c45 -13 127 -35 182 -49 112 -29 195 -56 195 -64 0 -4 -7 -15 -15 -25 -36 -48
-8 -130 62 -182 50 -38 177 -164 191 -189 9 -18 12 -18 38 -5 16 8 58 44 93
80 59 59 63 65 42 68 -18 3 -39 -12 -87 -59 -35 -35 -65 -61 -66 -58 -2 2 -18
23 -35 45 l-32 42 34 -8 c38 -9 53 -1 117 62 22 22 37 43 32 47 -5 4 -47 17
-94 28 -137 33 -230 83 -230 124 0 17 2 17 43 -1 76 -35 127 -17 127 45 0 115
-329 335 -635 424 -184 54 -229 67 -294 81 -81 19 -197 -1 -239 -40 -21 -20
-22 -20 -22 -1 0 12 9 21 25 25 14 4 23 11 20 16 -3 5 3 8 12 8 10 0 45 4 78
9 33 5 83 8 110 6 28 -3 61 0 75 5 20 8 14 10 -30 7 -48 -2 -50 -2 -15 5 59
10 282 10 230 -1z m78 4 c-7 -2 -19 -2 -25 0 -7 3 -2 5 12 5 14 0 19 -2 13 -5z
m1054 -69 c-3 -3 -12 -4 -19 -1 -8 3 -5 6 6 6 11 1 17 -2 13 -5z m76 -11 c-7
-2 -21 -2 -30 0 -10 3 -4 5 12 5 17 0 24 -2 18 -5z m80 0 c-7 -2 -21 -2 -30 0
-10 3 -4 5 12 5 17 0 24 -2 18 -5z m95 0 c-10 -2 -26 -2 -35 0 -10 3 -2 5 17
5 19 0 27 -2 18 -5z m-3048 -71 c0 -14 -11 -21 -26 -15 -21 8 -17 23 6 23 11
0 20 -4 20 -8z m103 -17 c40 -8 144 -23 232 -34 235 -30 255 -33 251 -40 -2
-3 -9 -73 -16 -156 -7 -82 -16 -154 -19 -158 -4 -4 -100 5 -212 22 -112 16
-266 37 -341 47 -76 10 -138 21 -138 24 0 3 50 1 111 -6 62 -6 120 -9 130 -7
11 3 54 2 97 -3 62 -6 71 -9 47 -15 -23 -5 -20 -6 13 -3 23 2 42 0 42 -4 0 -4
20 -7 45 -8 25 0 63 -7 84 -14 30 -10 47 -10 72 -1 18 6 35 9 37 6 3 -3 0 -5
-7 -5 -7 0 -9 -5 -5 -11 4 -8 -1 -9 -17 -5 -19 6 -21 5 -7 -4 35 -22 45 -3 52
98 3 53 9 120 12 148 5 39 3 51 -7 52 -8 0 -29 3 -46 6 -18 2 -33 2 -33 0 0
-12 28 -32 35 -26 5 4 5 1 1 -6 -4 -7 -11 -10 -16 -7 -5 3 -11 -8 -15 -25 -7
-32 -65 -100 -103 -120 -13 -6 -57 -14 -97 -17 -62 -5 -80 -2 -118 16 -53 26
-78 62 -108 159 -12 37 -28 72 -35 78 -16 13 -19 34 -4 34 6 0 43 -7 83 -15z
m-107 -35 c25 0 15 -18 -13 -25 -16 -3 -37 -18 -47 -32 -11 -15 -14 -23 -8
-19 7 4 12 1 12 -8 0 -9 -6 -16 -14 -16 -7 0 -16 -9 -19 -21 -4 -14 -10 -18
-19 -13 -7 4 -10 4 -6 0 4 -5 -2 -24 -13 -43 -11 -20 -18 -42 -15 -50 4 -9 2
-11 -6 -7 -8 5 -9 2 -5 -9 5 -13 1 -17 -19 -17 l-25 0 20 29 c11 16 30 50 41
75 13 31 24 45 31 40 7 -4 9 -3 5 4 -9 14 25 83 37 75 6 -3 7 -1 3 5 -3 6 -2
22 4 37 9 24 11 25 26 11 8 -9 22 -16 30 -16z m564 -70 c0 -5 -2 -10 -4 -10
-3 0 -8 5 -11 10 -3 6 -1 10 4 10 6 0 11 -4 11 -10z m690 -30 c12 -7 10 -9 -8
-7 -12 0 -22 5 -22 9 0 11 12 10 30 -2z m-702 -35 c-1 -14 -6 -25 -11 -25 -5
0 -6 7 -3 16 3 9 6 20 6 25 0 5 2 9 5 9 3 0 4 -11 3 -25z m677 -38 c-9 -34 21
-55 104 -74 62 -15 71 -20 71 -39 0 -30 57 -106 128 -171 31 -29 52 -53 46
-53 -7 0 -34 20 -60 45 -27 25 -52 45 -57 45 -4 0 -12 11 -17 25 -5 14 -14 25
-19 25 -6 0 -7 7 -4 17 5 12 3 14 -7 8 -9 -5 -11 -4 -6 3 4 7 2 12 -4 12 -6 0
-9 4 -6 9 11 17 -21 31 -72 33 -29 1 -52 6 -52 10 0 4 28 6 63 3 58 -4 59 -4
22 6 -22 6 -59 8 -83 6 -37 -4 -42 -2 -38 12 6 15 5 15 -6 0 -9 -10 -13 -51
-13 -116 0 -97 -1 -100 -17 -80 -19 22 -24 16 -9 -11 5 -9 6 -35 2 -57 l-8
-40 -8 40 c-11 56 31 365 51 365 2 0 2 -10 -1 -23z m-748 -9 c-3 -8 -6 -5 -6
6 -1 11 2 17 5 13 3 -3 4 -12 1 -19z m1033 -17 c0 -5 -9 -7 -20 -4 -11 3 -20
7 -20 9 0 2 9 4 20 4 11 0 20 -4 20 -9z m19 -34 c-7 -27 -14 -35 -26 -30 -14
6 -14 7 1 18 9 7 16 19 16 27 0 15 11 31 16 25 2 -2 -1 -20 -7 -40z m1921 -4
c1 -16 7 -55 15 -88 20 -83 20 -86 -12 -81 -16 2 -33 5 -39 5 -6 1 -14 20 -17
44 -3 23 -9 58 -12 77 -6 31 -3 37 22 52 39 23 43 22 43 -9z m-1976 -11 c3 -5
-8 -6 -25 -4 -16 2 -29 6 -29 8 0 8 49 4 54 -4z m-1447 -8 c-3 -3 -12 -4 -19
-1 -8 3 -5 6 6 6 11 1 17 -2 13 -5z m276 -11 c-7 -2 -21 -2 -30 0 -10 3 -4 5
12 5 17 0 24 -2 18 -5z m2933 -75 c-9 -57 -30 -92 -78 -131 -43 -35 -100 -57
-150 -57 -17 0 -26 -5 -24 -12 1 -7 1 -10 -1 -5 -3 4 -9 5 -13 2 -5 -3 2 14
15 37 30 52 31 77 5 111 -30 37 -25 44 32 52 29 4 86 18 128 30 41 12 79 20
84 18 4 -3 5 -23 2 -45z m-2009 -20 c-3 -8 -6 -5 -6 6 -1 11 2 17 5 13 3 -3 4
-12 1 -19z m0 -60 c-3 -8 -6 -5 -6 6 -1 11 2 17 5 13 3 -3 4 -12 1 -19z m388
-98 c3 -6 -1 -7 -9 -4 -18 7 -21 14 -7 14 6 0 13 -4 16 -10z m-395 -68 c0 -20
-4 -42 -8 -49 -4 -6 -7 13 -7 42 0 29 3 51 8 48 4 -2 7 -21 7 -41z m486 -40
c-12 -11 -15 5 -8 44 l7 39 3 -39 c2 -21 1 -41 -2 -44z m-454 46 c-7 -7 -12
-8 -12 -2 0 14 12 26 19 19 2 -3 -1 -11 -7 -17z m1798 -110 c0 -10 -104 -10
-114 -1 -4 4 -22 8 -41 9 -34 1 -119 33 -111 41 2 3 18 -3 34 -11 17 -9 50
-17 74 -20 24 -2 55 -7 71 -11 18 -5 33 -3 44 6 14 12 16 12 8 0 -5 -9 -4 -12
3 -7 15 9 3 38 -14 32 -11 -4 -11 -2 -2 14 12 19 14 18 30 -13 9 -17 17 -35
18 -39z m-1873 40 c-3 -8 -6 -5 -6 6 -1 11 2 17 5 13 3 -3 4 -12 1 -19z
m-1592 -7 c167 -26 511 -86 515 -91 3 -3 29 -7 58 -8 29 -2 65 -8 80 -12 18
-6 6 -7 -38 -4 -62 4 -63 3 -35 -10 42 -19 105 -31 85 -16 -12 10 -11 11 9 6
13 -3 32 -1 42 4 18 10 175 -6 194 -19 6 -4 22 -7 38 -6 l27 1 1 -116 c0 -63
4 -135 8 -160 l7 -45 -142 15 c-78 8 -146 18 -149 22 -4 4 -13 4 -21 1 -7 -2
-53 0 -101 6 -48 7 -176 20 -283 31 -423 41 -625 62 -628 65 -2 1 26 43 61 91
35 49 69 100 76 113 9 15 16 20 23 13 14 -14 0 -50 -23 -57 -10 -4 -19 -15
-19 -25 0 -10 -4 -22 -10 -25 -5 -3 -10 -14 -10 -23 0 -13 2 -14 9 -4 6 10 11
6 19 -17 7 -18 7 -29 2 -26 -6 4 -10 14 -11 23 0 11 -2 13 -6 4 -4 -10 -9 -9
-20 5 -14 17 -14 17 -10 -5 5 -20 3 -22 -11 -10 -9 7 -14 8 -9 3 4 -4 -1 -18
-10 -29 -10 -12 -14 -18 -10 -15 5 4 36 0 70 -7 34 -8 73 -12 85 -9 13 3 30 1
38 -6 10 -8 14 -8 14 0 0 6 12 11 28 10 l27 -1 -25 -8 c-21 -7 -16 -8 25 -10
28 -2 66 -4 85 -6 19 -2 71 -5 115 -7 44 -2 90 -8 102 -15 12 -7 72 -14 135
-16 62 -2 121 -7 131 -11 9 -4 27 -5 38 -2 11 3 36 -1 54 -9 41 -17 59 -18 49
-3 -4 7 2 7 17 -1 30 -17 140 -30 160 -19 11 6 21 4 29 -6 15 -18 50 -20 51
-2 0 10 2 10 6 0 2 -7 10 -13 17 -13 17 0 9 202 -10 249 -12 29 -12 32 1 27 8
-3 15 -1 15 3 0 5 -17 11 -37 14 -21 3 -49 8 -63 12 -19 5 -22 4 -10 -4 9 -7
10 -11 3 -11 -6 0 -15 5 -18 10 -7 12 -72 14 -79 2 -2 -4 3 -8 12 -9 24 -2 76
-23 70 -28 -2 -3 -18 -1 -34 4 -42 12 -140 -8 -249 -51 -117 -46 -232 -72
-300 -66 -34 3 -52 1 -48 -5 7 -11 -2 -6 -55 29 -86 59 -123 105 -151 187 -10
28 -23 53 -29 55 -7 2 -10 -2 -9 -10 2 -7 2 -10 0 -7 -2 4 -25 4 -50 1 -36 -4
-44 -2 -38 8 5 8 4 11 -3 6 -6 -4 -9 -13 -6 -20 3 -8 1 -17 -5 -21 -6 -3 -11
-16 -11 -28 0 -20 -1 -20 -16 -5 -15 15 -14 21 15 72 36 62 40 63 146 47z
m2273 -38 c-10 -2 -26 -2 -35 0 -10 3 -2 5 17 5 19 0 27 -2 18 -5z m180 -10
c-26 -2 -71 -2 -100 0 -29 2 -8 3 47 3 55 0 79 -1 53 -3z m85 0 c-7 -2 -19 -2
-25 0 -7 3 -2 5 12 5 14 0 19 -2 13 -5z m-946 -70 c-2 -16 -4 -5 -4 22 0 28 2
40 4 28 2 -13 2 -35 0 -50z m2493 43 c0 -26 26 -186 46 -279 13 -64 24 -121
24 -126 0 -4 -42 -14 -92 -20 -51 -7 -100 -14 -108 -17 -13 -3 -15 26 -18 216
l-3 219 68 4 c37 2 71 4 76 5 4 1 7 0 7 -2z m-4207 -31 c-3 -9 -8 -14 -10 -11
-3 3 -2 9 2 15 9 16 15 13 8 -4z m138 -59 c5 -6 9 -15 9 -20 0 -6 -7 -2 -15 8
-8 11 -14 29 -14 40 1 20 1 21 6 1 3 -11 9 -24 14 -29z m1646 -38 c-3 -7 -5
-2 -5 12 0 14 2 19 5 13 2 -7 2 -19 0 -25z m-60 -15 c-3 -10 -5 -4 -5 12 0 17
2 24 5 18 2 -7 2 -21 0 -30z m-1477 -63 c8 -5 11 -10 5 -10 -5 0 -17 5 -25 10
-8 5 -10 10 -5 10 6 0 17 -5 25 -10z m-373 -26 c-3 -3 -12 -4 -19 -1 -8 3 -5
6 6 6 11 1 17 -2 13 -5z m290 0 c-3 -3 -12 -4 -19 -1 -8 3 -5 6 6 6 11 1 17
-2 13 -5z m-240 -10 c-3 -3 -12 -4 -19 -1 -8 3 -5 6 6 6 11 1 17 -2 13 -5z
m56 -1 c-7 -2 -19 -2 -25 0 -7 3 -2 5 12 5 14 0 19 -2 13 -5z m550 -10 c-7 -2
-19 -2 -25 0 -7 3 -2 5 12 5 14 0 19 -2 13 -5z m-380 -10 c-7 -2 -19 -2 -25 0
-7 3 -2 5 12 5 14 0 19 -2 13 -5z m270 -20 c-7 -2 -19 -2 -25 0 -7 3 -2 5 12
5 14 0 19 -2 13 -5z m374 -19 c-3 -3 -12 -4 -19 -1 -8 3 -5 6 6 6 11 1 17 -2
13 -5z m-100 -20 c-3 -3 -12 -4 -19 -1 -8 3 -5 6 6 6 11 1 17 -2 13 -5z
m-1017 -300 c91 -14 199 -29 240 -34 41 -5 129 -18 195 -29 66 -12 190 -30
275 -40 85 -11 177 -25 204 -31 27 -6 141 -27 255 -47 353 -61 335 -57 318
-71 -8 -7 -23 -10 -33 -6 -14 4 -15 3 -5 -4 10 -7 4 -16 -25 -38 -35 -26 -78
-61 -229 -186 -43 -35 -48 -36 -103 -33 -167 13 -538 36 -772 50 -434 25 -788
55 -843 71 -14 4 -2 24 65 103 46 54 110 133 143 176 90 117 115 145 134 145
9 0 90 -12 181 -26z m4804 -136 c8 -66 61 -315 77 -355 8 -23 7 -23 -59 -25
-37 -1 -80 -3 -97 -5 -16 -2 -149 -3 -294 -4 -192 0 -267 3 -275 12 -8 8 -8
13 1 16 6 2 32 20 57 39 26 19 51 32 58 28 6 -4 8 -3 4 4 -3 6 4 35 18 65 13
30 32 88 42 131 10 42 21 76 25 76 15 0 296 51 354 64 33 8 65 14 71 15 7 1
14 -25 18 -61z m671 -249 c25 -6 56 -22 71 -35 40 -38 36 -41 -163 -116 -104
-38 -273 -125 -273 -139 0 -3 29 -9 65 -12 93 -9 154 -41 184 -98 l24 -45 -29
-55 c-29 -55 -37 -59 -134 -86 -10 -3 -6 -11 15 -32 17 -16 33 -27 36 -25 9 5
44 -36 63 -73 l16 -31 -55 -50 c-77 -70 -133 -96 -193 -88 -82 12 -109 25
-161 81 -47 50 -50 56 -39 79 6 14 15 26 20 26 5 0 1 11 -8 25 -9 14 -21 22
-27 18 -6 -3 -7 -1 -3 6 8 12 -10 77 -24 86 -4 3 -7 -22 -5 -55 1 -33 1 -60
-1 -60 -9 0 -99 220 -92 225 2 1 11 6 20 11 9 5 88 79 175 164 166 163 252
227 356 266 71 26 100 29 162 13z m-2425 -34 c0 -12 -5 -13 -17 -7 -10 5 -25
12 -33 15 -8 3 0 6 18 6 22 1 32 -4 32 -14z m194 -50 c-4 -8 -12 -15 -20 -15
-8 0 -11 6 -8 15 4 8 12 15 20 15 8 0 11 -6 8 -15z m91 5 c-28 -12 -45 -12
-45 0 0 6 15 10 33 9 27 0 29 -2 12 -9z m32 -16 c-3 -3 -12 -4 -19 -1 -8 3 -5
6 6 6 11 1 17 -2 13 -5z m-1414 -108 c-3 -45 -1 -98 5 -119 6 -20 7 -35 2 -32
-12 7 -23 74 -21 136 1 35 -3 60 -11 66 -19 15 -478 28 -478 14 0 -6 -9 -11
-21 -11 -11 0 -18 -4 -15 -9 4 -5 -2 -7 -13 -4 -21 5 -32 -7 -36 -43 -2 -19 2
-24 21 -24 25 0 40 -15 24 -25 -6 -4 -8 -11 -5 -16 4 -5 0 -9 -7 -9 -8 0 -29
-14 -48 -31 -31 -28 -32 -31 -10 -24 14 4 22 4 18 0 -4 -5 0 -14 10 -21 15
-12 14 -12 -8 -8 l-25 6 24 -20 25 -20 -30 5 c-16 3 -26 3 -23 -1 4 -4 24 -8
45 -9 22 -1 38 -7 37 -13 -1 -6 9 -10 23 -8 14 1 22 -2 18 -8 -4 -6 1 -8 14
-4 14 5 28 0 43 -15 15 -15 35 -21 68 -23 37 -1 45 -3 33 -12 -12 -9 -12 -11
-1 -12 44 -5 85 -16 90 -24 4 -6 27 -13 53 -15 25 -3 46 -10 46 -15 0 -6 11
-7 26 -4 17 5 23 3 19 -4 -4 -6 11 -10 40 -10 31 0 44 -4 39 -11 -5 -8 -1 -8
14 0 25 14 43 14 22 1 -12 -8 -10 -10 10 -9 14 0 43 -6 65 -14 51 -18 135 -29
135 -17 0 5 -12 11 -27 13 -21 4 -19 4 7 3 19 0 34 -5 32 -11 -3 -12 60 -27
68 -16 3 3 21 7 40 8 19 0 49 3 65 5 17 3 36 0 43 -5 11 -9 29 -8 135 9 33 5
37 4 37 -14 0 -14 -8 -22 -22 -25 -20 -3 -21 -4 -5 -11 10 -5 23 -3 33 5 18
15 143 13 162 -4 18 -15 232 -23 232 -9 0 6 -27 13 -62 15 -35 2 16 4 112 4
108 1 180 -3 188 -9 7 -6 15 -8 19 -4 3 3 1 6 -5 6 -7 0 -12 4 -12 10 0 16 69
24 86 9 32 -26 191 -11 228 23 14 12 28 10 20 -3 -7 -12 27 -4 56 12 11 6 12
8 1 9 -7 0 -27 11 -45 25 -17 14 -35 29 -41 33 -5 4 -19 12 -30 17 -16 6 -10
10 30 17 78 14 168 46 219 78 26 17 49 30 51 30 2 0 16 11 31 25 15 14 32 24
38 21 6 -2 46 -20 89 -40 84 -39 108 -41 28 -3 -26 13 -83 45 -125 72 -64 39
-82 46 -109 41 -17 -3 -58 -6 -89 -6 -32 1 -58 -3 -58 -7 0 -5 -36 -6 -81 -4
-111 5 -124 -3 -126 -80 -1 -33 -9 -74 -17 -91 -17 -33 -22 -63 -7 -39 6 9 8
2 7 -20 -2 -25 -7 -34 -19 -33 -9 1 -15 -3 -14 -9 3 -16 -118 -29 -167 -18
-37 8 -33 9 42 10 74 1 86 4 107 26 14 13 25 32 25 43 0 10 5 23 10 28 6 6 13
53 16 105 l7 94 66 -3 c36 -2 120 1 186 6 99 8 141 17 237 50 64 22 126 45
137 52 21 11 25 4 95 -142 60 -125 71 -155 59 -161 -8 -5 -21 -6 -28 -3 -8 3
-14 0 -12 -6 3 -16 -278 -93 -503 -138 -225 -44 -406 -60 -693 -60 -592 0
-950 55 -1412 216 -104 36 -219 75 -255 87 -36 12 -67 22 -68 23 -2 2 4 18 14
36 26 46 95 118 107 111 6 -3 7 -1 4 4 -9 14 19 37 34 27 7 -4 9 -3 6 4 -6 9
37 35 93 56 8 3 128 5 266 4 l252 -2 -5 -80z m-316 58 c-3 -3 -12 -4 -19 -1
-8 3 -5 6 6 6 11 1 17 -2 13 -5z m3974 -129 c21 -47 45 -95 53 -107 14 -19 13
-22 -9 -40 -26 -20 -124 -68 -141 -68 -5 0 -18 24 -28 53 -10 28 -27 67 -37
85 -11 19 -17 37 -14 41 2 5 -2 17 -11 27 -14 18 -15 18 -4 -3 14 -30 6 -29
-14 2 -16 24 -16 25 36 51 59 30 121 53 127 48 2 -2 21 -42 42 -89z m-3914 3
c21 -18 54 -48 73 -66 48 -44 128 -97 178 -117 119 -48 -24 -46 -233 3 -118
28 -245 67 -292 90 -71 35 -71 56 0 76 197 57 222 58 274 14z m-244 5 c-7 -2
-19 -2 -25 0 -7 3 -2 5 12 5 14 0 19 -2 13 -5z m3204 -62 c-12 -13 -49 -41
-82 -63 -33 -23 -79 -59 -102 -81 -24 -23 -44 -39 -46 -36 -44 60 -135 187
-140 194 -3 7 64 10 193 10 l199 0 -22 -24z m-1497 -75 c0 -64 0 -64 -32 -72
-81 -20 -375 -3 -568 32 -70 13 -268 73 -258 78 2 1 100 -1 218 -4 118 -4 204
-7 191 -8 -78 -6 -201 -26 -201 -32 0 -12 53 -19 71 -10 9 5 28 5 45 0 l29
-10 -27 4 c-16 2 -28 0 -28 -4 0 -4 19 -10 43 -13 23 -3 53 -9 66 -13 14 -4
22 -3 18 2 -3 6 6 10 21 11 24 2 25 1 7 -8 -15 -7 -10 -8 20 -4 28 3 35 2 25
-5 -10 -7 15 -10 80 -11 154 -3 163 -3 213 5 43 8 46 10 30 22 -17 12 -16 13
6 14 24 0 24 0 5 15 -16 13 -17 16 -4 25 13 8 12 10 -3 10 -10 0 -15 5 -12 11
5 7 -5 8 -29 4 -23 -5 -36 -3 -36 3 0 6 19 13 43 15 23 2 48 4 55 5 8 1 12
-17 12 -62z m-197 37 c-7 -2 -19 -2 -25 0 -7 3 -2 5 12 5 14 0 19 -2 13 -5z
m-882 -125 c56 -35 190 -57 424 -68 l170 -8 -220 3 c-227 4 -335 13 -315 25 7
4 -8 12 -34 19 -25 6 -50 19 -55 29 -9 15 -12 15 -21 2 -9 -13 -10 -13 -11 0
-1 8 -1 19 0 23 1 4 -8 17 -19 29 -11 12 -20 28 -20 35 0 8 -4 11 -10 8 -11
-7 -14 8 -4 18 3 3 21 -15 39 -41 17 -26 52 -59 76 -74z m817 115 c-15 -2 -42
-2 -60 0 -18 2 -6 4 27 4 33 0 48 -2 33 -4z m522 -3 c0 -5 -4 -10 -10 -10 -5
0 -10 5 -10 10 0 6 5 10 10 10 6 0 10 -4 10 -10z m-343 -6 c-3 -3 -12 -4 -19
-1 -8 3 -5 6 6 6 11 1 17 -2 13 -5z m-110 -40 c-3 -3 -12 -4 -19 -1 -8 3 -5 6
6 6 11 1 17 -2 13 -5z m-34 -21 c-7 -2 -21 -2 -30 0 -10 3 -4 5 12 5 17 0 24
-2 18 -5z m-1818 -48 c71 -7 155 -26 155 -35 0 -3 -23 -12 -51 -19 -77 -20
-224 -86 -278 -124 -26 -19 -57 -40 -69 -46 l-22 -12 22 43 c49 97 142 209
168 203 8 -2 42 -7 75 -10z m4621 -52 c8 -31 -24 -72 -104 -131 -91 -67 -127
-85 -140 -69 -22 27 -42 78 -36 89 4 6 3 8 -3 5 -6 -4 -13 3 -17 16 -8 29 28
61 60 53 25 -7 150 52 179 84 l19 21 18 -23 c10 -13 21 -33 24 -45z m-3991 19
c-3 -3 -11 0 -18 7 -9 10 -8 11 6 5 10 -3 15 -9 12 -12z m245 8 c0 -5 -2 -10
-4 -10 -3 0 -8 5 -11 10 -3 6 -1 10 4 10 6 0 11 -4 11 -10z m2640 -13 c0 -6
31 -74 69 -152 47 -95 86 -158 121 -197 30 -34 48 -63 44 -69 -4 -7 -3 -9 3
-6 6 4 23 -3 37 -14 l27 -22 -28 -29 c-37 -40 -139 -112 -183 -130 -95 -40
-239 -27 -343 30 -72 39 -92 85 -92 217 0 84 4 107 22 141 26 49 177 174 248
205 25 11 49 27 52 35 6 15 23 9 23 -9z m-358 -66 c-61 -83 -93 -174 -101
-288 l-6 -81 -60 51 c-60 53 -145 135 -145 141 0 6 104 81 158 114 29 18 57
30 63 27 5 -4 8 -1 7 5 -3 11 92 70 101 63 3 -2 -5 -16 -17 -32z m-1340 22
c-40 -2 -103 -2 -140 0 -37 2 -4 3 73 3 77 0 107 -2 67 -3z m-785 -9 c-3 -3
-12 -4 -19 -1 -8 3 -5 6 6 6 11 1 17 -2 13 -5z m952 2 c-12 -10 -79 -16 -79
-6 0 5 19 10 42 10 23 0 39 -2 37 -4z m-1032 -12 c-3 -3 -12 -4 -19 -1 -8 3
-5 6 6 6 11 1 17 -2 13 -5z m173 -15 c0 -11 -27 -12 -34 0 -3 4 -3 11 0 14 8
8 34 -3 34 -14z m843 -6 c-7 -2 -19 -2 -25 0 -7 3 -2 5 12 5 14 0 19 -2 13 -5z
m80 0 c-7 -2 -19 -2 -25 0 -7 3 -2 5 12 5 14 0 19 -2 13 -5z m-70 -20 c-7 -2
-21 -2 -30 0 -10 3 -4 5 12 5 17 0 24 -2 18 -5z m-273 -23 c11 -8 7 -9 -15 -4
-37 8 -45 14 -19 14 10 0 26 -5 34 -10z m2085 -20 c3 -5 1 -19 -5 -30 -9 -16
-13 -18 -24 -8 -10 9 -11 18 -5 31 11 19 25 22 34 7z m-3572 -7 c-7 -2 -19 -2
-25 0 -7 3 -2 5 12 5 14 0 19 -2 13 -5z m392 -23 c3 -6 -1 -7 -9 -4 -18 7 -21
14 -7 14 6 0 13 -4 16 -10z m3 -67 c9 -7 20 -13 25 -13 4 0 5 6 1 13 -6 8 -3
8 9 -1 9 -8 15 -19 14 -25 -1 -7 4 -11 11 -9 6 1 11 -3 10 -9 -2 -6 3 -14 11
-17 9 -3 11 0 6 8 -5 9 -4 11 4 6 6 -4 8 -12 5 -18 -5 -8 -1 -9 10 -5 9 4 15
3 13 -1 -2 -4 14 -25 36 -47 22 -22 37 -35 34 -29 -4 7 1 18 11 25 14 11 15
11 5 0 -9 -10 -9 -18 0 -32 26 -41 -8 -30 -54 18 -27 28 -49 49 -49 46 0 -3
-18 11 -39 30 -22 20 -53 43 -69 51 -25 13 -28 19 -23 43 5 28 5 28 9 3 2 -14
11 -31 20 -37z m-195 16 c20 -5 37 -11 37 -13 0 -1 -9 -28 -19 -58 -10 -31
-24 -81 -31 -113 -14 -69 -23 -69 -10 1 5 27 10 58 12 69 2 11 6 22 9 25 4 3
10 15 14 28 5 18 -3 13 -34 -21 -23 -24 -41 -49 -41 -56 0 -6 -3 -11 -7 -11
-5 0 -19 -17 -33 -38 -14 -20 -29 -40 -34 -43 -13 -10 2 -59 18 -59 8 0 16 3
19 8 2 4 2 1 1 -5 -5 -19 100 -17 176 3 46 12 65 13 75 4 22 -18 45 -99 45
-160 0 -193 -108 -283 -340 -283 -96 0 -260 34 -260 54 0 5 12 6 26 3 21 -5
25 -4 19 6 -6 10 -4 11 11 5 64 -26 98 -35 103 -26 4 5 32 11 63 12 31 1 56 5
55 8 -5 16 31 46 58 49 17 2 41 10 54 19 22 14 24 14 18 -1 -4 -10 -1 -24 7
-32 22 -21 32 -17 12 5 -13 15 -14 20 -4 24 11 5 11 7 0 15 -9 6 -27 4 -50 -4
-50 -18 -196 -17 -257 1 -27 9 -73 31 -102 51 -29 20 -57 33 -63 29 -5 -3 -11
0 -11 7 -1 7 -2 18 -3 23 -2 20 -44 54 -50 42 -4 -7 -4 -2 -2 10 2 12 -2 39
-10 60 -7 21 -13 58 -14 82 0 24 -3 41 -7 37 -11 -10 -12 -139 -2 -156 5 -10
8 -11 9 -2 0 6 4 12 9 12 6 0 9 -12 8 -27 -1 -18 3 -27 10 -26 14 3 45 -49 41
-68 -2 -8 10 -13 29 -14 19 0 41 -9 52 -21 19 -21 19 -21 -8 -22 -14 0 -37 -5
-51 -10 -20 -7 -28 -5 -43 11 -18 21 -37 17 -20 -5 5 -7 13 -21 17 -32 4 -13
-4 -9 -30 13 -43 38 -57 35 -18 -4 30 -30 71 -48 91 -40 21 8 58 -14 45 -27
-15 -15 -145 38 -162 65 -34 55 -82 164 -83 192 -1 19 -7 32 -15 32 -30 0 19
-166 71 -242 l20 -30 -32 30 c-40 37 -91 123 -84 141 3 8 1 14 -4 14 -15 0
-33 86 -33 158 0 58 4 75 28 113 36 55 119 138 164 163 28 15 26 12 -15 -24
-47 -41 -84 -96 -73 -108 3 -3 16 4 29 15 86 78 195 131 317 154 53 9 229 2
283 -12z m439 -14 l43 -13 -55 0 c-39 -1 -49 2 -35 8 17 7 16 9 -10 10 -16 1
-41 6 -55 11 -41 14 63 0 112 -16z m1094 -11 c10 -39 -1 -206 -16 -237 -18
-37 -92 -84 -149 -94 -59 -10 -215 -10 -263 0 -47 10 -93 48 -120 100 -18 36
-19 52 -14 139 4 54 9 103 11 110 4 10 65 12 275 10 l270 -3 6 -25z m744 -33
c-24 -76 -26 -134 -5 -151 14 -12 13 -16 -7 -37 -35 -37 -187 -137 -262 -171
-37 -18 -70 -32 -72 -32 -2 0 -4 17 -4 38 0 20 -9 89 -20 152 -11 63 -20 124
-20 135 0 17 18 25 118 54 137 40 286 79 289 77 1 -1 -7 -30 -17 -65z m-1585
-32 c-4 -5 -15 -34 -26 -62 -10 -29 -18 -44 -19 -35 0 19 37 108 45 108 4 0 3
-5 0 -11z m1081 -107 c3 -41 4 -99 0 -130 -7 -63 -41 -146 -55 -138 -5 4 -13
1 -17 -5 -4 -8 -3 -9 4 -5 27 17 9 -15 -24 -42 -99 -82 -225 -117 -424 -116
-122 0 -142 3 -204 27 -201 79 -305 195 -293 331 6 79 33 146 58 146 13 0 19
-7 19 -22 0 -13 12 -58 26 -101 52 -156 120 -192 364 -192 127 0 155 3 220 24
63 21 84 34 130 80 59 59 80 106 80 178 l0 39 54 0 55 -1 7 -73z m-1341 -11
c-3 -5 -1 -12 5 -16 5 -3 10 -1 10 4 0 20 19 11 26 -11 7 -24 42 -57 60 -58 6
0 18 -10 26 -21 12 -19 17 -20 36 -10 20 11 22 10 22 -19 l0 -30 -40 26 c-22
15 -37 31 -33 37 3 6 1 7 -6 3 -13 -8 -134 88 -124 98 10 10 25 7 18 -3z m203
-49 c-6 -23 -14 -42 -19 -42 -12 0 -12 17 0 24 4 3 11 20 15 37 3 18 8 30 11
28 2 -3 -1 -24 -7 -47z m-114 -1 c-2 -3 -12 3 -22 13 -16 17 -16 18 5 5 12 -7
20 -15 17 -18z m-168 -63 c-6 -4 -15 -8 -21 -8 -5 0 -3 5 5 10 8 5 10 10 4 10
-7 0 -15 7 -18 15 -4 13 -1 12 18 -2 16 -12 20 -20 12 -25z m-9 -40 c-3 -8 -6
-5 -6 6 -1 11 2 17 5 13 3 -3 4 -12 1 -19z m-890 -20 c-3 -7 -5 -2 -5 12 0 14
2 19 5 13 2 -7 2 -19 0 -25z m996 10 c19 -13 42 -28 52 -33 16 -9 16 -12 2
-23 -12 -10 -17 -10 -23 -1 -4 7 -3 9 4 5 6 -3 13 -2 17 4 3 5 1 10 -6 10 -7
0 -27 11 -46 26 -18 14 -38 22 -45 18 -7 -4 -8 -3 -4 4 9 16 10 16 49 -10z
m1891 -10 c11 -18 46 -75 78 -127 32 -51 58 -94 58 -96 0 -2 -24 -9 -52 -15
-75 -18 -333 -107 -392 -135 -28 -13 -51 -23 -52 -22 -6 6 -24 229 -19 237 3
5 31 18 63 30 77 29 248 119 268 142 23 24 27 23 48 -14z m-1975 -68 c-4 -3
-9 -21 -12 -40 -2 -21 -4 -9 -5 30 -2 59 -1 63 11 40 7 -14 10 -27 6 -30z m71
20 c0 -5 -2 -10 -4 -10 -2 0 -12 -3 -22 -7 -16 -6 -17 -5 -4 10 17 19 30 22
30 7z m97 -5 c0 -8 -4 -12 -9 -9 -5 3 -6 10 -3 15 9 13 12 11 12 -6z m103 -83
c0 -11 -78 49 -84 65 -3 7 15 -3 39 -24 25 -20 45 -39 45 -41z m-243 -29 c1
-32 -1 -34 -8 -15 -7 18 -3 52 5 52 1 0 2 -17 3 -37z m343 -50 c0 -7 -89 62
-90 70 0 5 20 -8 45 -29 25 -20 45 -38 45 -41z m1150 -323 c17 -91 37 -199 45
-240 8 -41 11 -78 7 -81 -21 -21 -384 -71 -707 -98 -195 -17 -181 -19 -188 37
-3 26 -15 108 -26 182 -28 182 -29 197 -31 260 -1 37 -4 49 -9 36 -6 -15 -10
-2 -18 45 -6 35 -10 65 -9 65 0 1 44 -9 96 -23 86 -22 108 -24 225 -18 143 6
198 14 264 38 25 9 48 14 53 11 4 -3 8 -1 8 5 0 5 8 12 18 15 10 4 49 27 88
52 l69 45 6 -35 c9 -55 23 -58 15 -3 -4 26 -4 57 -1 69 9 27 52 -137 95 -362z
m-1530 327 c0 -5 -4 -5 -10 -2 -6 4 -10 -6 -10 -24 0 -16 -5 -33 -11 -36 -6
-4 -8 -13 -5 -21 3 -7 1 -16 -4 -19 -18 -11 -19 14 -4 61 9 27 18 56 20 64 5
13 6 13 14 0 6 -8 10 -19 10 -23z m-680 -5 c-5 -2 -8 -8 -4 -13 3 -5 -7 -4
-21 1 -33 12 -45 13 -45 1 0 -5 12 -12 28 -14 23 -3 22 -4 -8 -5 -19 -1 -42 3
-50 9 -13 9 -13 10 2 6 9 -3 19 0 21 7 4 9 21 13 47 12 22 0 36 -2 30 -4z
m1130 -70 c0 -15 6 -58 14 -97 26 -127 28 -159 12 -180 -23 -31 -31 -14 -35
72 -1 20 -6 31 -13 29 -7 -1 -10 -1 -5 1 4 3 5 9 1 14 -3 5 0 8 8 7 10 -2 12
14 10 72 -1 41 -7 76 -12 78 -5 2 -6 10 -3 18 3 8 0 14 -6 14 -6 0 -11 5 -11
10 0 7 6 7 20 0 12 -7 20 -21 20 -38z m-1183 22 c-3 -3 -12 -4 -19 -1 -8 3 -5
6 6 6 11 1 17 -2 13 -5z m2962 -117 c30 -51 68 -111 83 -134 l28 -42 -53 -5
c-28 -3 -83 -8 -122 -11 -109 -9 -291 -44 -386 -74 l-86 -28 -13 81 c-7 45
-17 89 -21 98 -19 37 211 141 411 186 47 11 90 20 95 21 6 0 35 -41 64 -92z
m-2169 61 c0 -6 -6 -5 -15 2 -8 7 -15 14 -15 16 0 2 7 1 15 -2 8 -4 15 -11 15
-16z m-110 -14 c0 -8 -7 -17 -15 -20 -8 -4 -12 -10 -9 -15 3 -5 10 -6 16 -3 7
4 8 2 4 -4 -4 -6 -13 -9 -21 -5 -18 6 -19 -8 -2 -26 10 -11 10 -13 0 -7 -7 4
-13 2 -13 -3 0 -6 6 -11 13 -11 9 0 9 -2 0 -8 -7 -5 -9 -13 -3 -22 13 -22 110
-17 128 6 13 17 13 16 7 -13 -6 -29 -4 -33 15 -33 21 0 22 3 16 68 -4 37 -9
80 -12 95 -6 28 -5 28 75 -27 44 -30 96 -62 116 -72 19 -9 35 -23 35 -31 0 -7
6 -13 13 -12 24 3 37 -1 37 -12 0 -8 -5 -8 -15 1 -23 19 -18 -2 8 -32 13 -15
36 -30 53 -34 16 -3 34 -12 39 -18 14 -17 45 -27 45 -16 0 6 5 10 10 10 6 0
10 -12 10 -26 0 -25 -1 -26 -22 -12 -34 23 -188 65 -323 89 -104 19 -141 21
-275 15 -85 -4 -177 -11 -205 -15 -27 -5 -51 -8 -53 -6 -1 1 3 15 10 29 9 21
17 27 35 23 12 -2 20 -1 18 3 -7 12 22 20 68 20 29 0 38 -3 28 -9 -11 -7 -5
-11 22 -16 38 -7 61 0 52 16 -7 11 -42 12 -48 2 -2 -5 -2 -2 -1 5 2 7 -6 12
-19 12 -20 1 -21 1 -4 11 10 6 25 8 34 5 8 -4 22 -1 30 5 7 7 17 9 20 5 4 -4
2 -11 -6 -15 -10 -6 -9 -10 5 -15 10 -4 15 -4 11 0 -4 4 -2 13 4 21 9 10 8 13
0 13 -7 0 -9 5 -4 13 4 6 -5 4 -20 -5 -44 -30 -40 -21 21 40 56 58 72 66 72
36z m245 16 c-3 -5 -12 -10 -18 -10 -7 0 -6 4 3 10 19 12 23 12 15 0z m-34
-27 c13 -16 12 -17 -3 -4 -10 7 -18 15 -18 17 0 8 8 3 21 -13z m-91 -15 c0 -6
-6 -5 -15 2 -8 7 -15 14 -15 16 0 2 7 1 15 -2 8 -4 15 -11 15 -16z m239 -55
c2 -2 -3 -3 -11 -3 -9 0 -19 7 -22 16 -6 15 -4 15 11 3 10 -7 20 -15 22 -16z
m41 -43 c0 -18 -19 -11 -30 11 -11 19 -10 20 9 9 12 -6 21 -15 21 -20z m-273
-10 c-1 -11 -5 -20 -9 -20 -10 0 -10 4 -2 24 8 22 13 20 11 -4z m-77 -130
c148 -11 337 -49 437 -87 l72 -28 6 -45 c4 -25 15 -95 26 -157 10 -62 28 -176
39 -255 11 -79 23 -156 26 -173 l7 -29 -39 34 c-22 19 -38 38 -37 42 2 4 -1 7
-6 5 -12 -3 -141 101 -141 114 0 5 11 2 24 -8 13 -10 21 -22 18 -27 -3 -5 2
-6 12 -3 11 5 15 3 10 -4 -4 -7 -1 -10 7 -7 8 3 13 11 11 18 -2 10 3 9 20 -2
13 -9 24 -22 24 -29 1 -8 2 -19 3 -25 0 -6 15 -14 32 -18 17 -3 28 -10 24 -16
-4 -6 -11 -8 -16 -5 -16 10 -10 -2 9 -16 9 -7 14 -9 10 -5 -4 5 -3 15 3 22 9
10 7 15 -5 20 -9 3 -16 14 -16 23 0 14 2 14 11 1 8 -12 9 -9 4 10 -4 14 -9 52
-11 85 -2 33 -9 82 -16 110 -13 48 -14 50 -73 71 -33 11 -68 24 -77 28 -9 4
-22 8 -30 10 -7 1 -19 5 -26 10 -7 4 -25 5 -40 2 -18 -5 -23 -4 -13 3 10 7 -2
14 -45 26 -94 28 -184 80 -184 108 0 5 13 29 30 53 21 32 25 42 12 35 -10 -5
-24 -21 -31 -35 -8 -14 -18 -23 -22 -20 -5 3 -6 -2 -3 -10 9 -24 -38 -20 -54
4 -15 24 -29 26 -34 4 -2 -13 -12 -8 -43 21 -22 20 -35 36 -30 35 6 -2 20 -2
33 -1 24 1 31 21 7 21 -8 0 -15 5 -15 11 0 7 -7 8 -17 4 -10 -4 -24 -9 -32
-13 -10 -4 -13 3 -9 30 l4 35 -51 -3 c-37 -2 -44 -1 -25 6 23 7 22 8 -12 9
-20 1 -39 -3 -42 -7 -3 -5 -26 -6 -50 -2 -25 4 -43 3 -40 -1 8 -13 -17 -22
-29 -10 -6 6 -16 11 -21 11 -6 0 -5 -4 2 -8 10 -7 8 -15 -9 -36 -13 -16 -22
-43 -23 -66 0 -21 -3 -34 -7 -29 -3 6 -9 1 -12 -10 -3 -14 -1 -19 6 -14 7 3 2
-5 -11 -19 -13 -14 -20 -32 -17 -40 4 -9 0 -18 -9 -21 -9 -4 -16 -4 -16 -2 0
13 44 131 51 139 5 6 9 19 9 31 0 11 7 31 16 43 8 12 12 22 8 22 -3 0 -1 7 6
15 9 10 40 15 118 18 59 1 123 4 142 5 19 1 91 -3 160 -8z m2408 -85 c2 -11
35 -85 73 -164 38 -79 68 -145 67 -146 -2 -1 -52 2 -113 7 -60 5 -156 6 -212
3 -68 -4 -103 -2 -103 5 0 5 3 9 8 9 25 -4 134 2 129 7 -8 8 -397 6 -457 -2
-25 -4 -51 -11 -57 -16 -18 -14 -21 0 -26 120 -6 117 -14 105 103 145 114 39
243 55 425 54 151 -2 160 -3 163 -22z m-2698 -9 c0 -3 -4 -8 -10 -11 -5 -3
-10 -1 -10 4 0 6 5 11 10 11 6 0 10 -2 10 -4z m360 -148 c0 -6 -7 -5 -15 2 -8
7 -15 17 -15 22 0 6 7 5 15 -2 8 -7 15 -17 15 -22z m-530 12 c0 -5 -5 -10 -11
-10 -5 0 -7 5 -4 10 3 6 8 10 11 10 2 0 4 -4 4 -10z m-40 -59 c0 -6 -4 -13
-10 -16 -5 -3 -10 -23 -10 -43 0 -26 -3 -33 -11 -25 -7 7 -7 22 2 52 11 37 29
56 29 32z m640 -21 c0 -5 -4 -10 -10 -10 -5 0 -10 5 -10 10 0 6 5 10 10 10 6
0 10 -4 10 -10z m57 4 c-3 -3 -12 -4 -19 -1 -8 3 -5 6 6 6 11 1 17 -2 13 -5z
m11 -31 c-10 -2 -26 -2 -35 0 -10 3 -2 5 17 5 19 0 27 -2 18 -5z m-331 -39
c-3 -3 -12 -4 -19 -1 -8 3 -5 6 6 6 11 1 17 -2 13 -5z m1722 -91 c7 -54 14
-107 16 -119 4 -18 -8 -24 -133 -57 -75 -20 -180 -43 -232 -52 -187 -32 -255
-56 -373 -137 -34 -23 -68 -38 -80 -36 -23 3 -27 20 -51 220 l-7 57 158 5
c246 8 222 6 194 17 -15 6 -78 5 -176 -2 -84 -7 -160 -9 -168 -6 -13 5 -45
113 -35 121 1 2 100 8 218 14 194 10 440 37 560 61 101 20 96 23 109 -86z
m-2136 73 c3 -8 0 -19 -7 -25 -10 -9 -12 -6 -8 14 5 29 8 31 15 11z m2592 -4
c-3 -3 -11 0 -18 7 -9 10 -8 11 6 5 10 -3 15 -9 12 -12z m-2212 1 c-24 -2 -62
-2 -85 0 -24 2 -5 4 42 4 47 0 66 -2 43 -4z m644 -9 c-3 -3 -12 -4 -19 -1 -8
3 -5 6 6 6 11 1 17 -2 13 -5z m1542 2 c-2 -2 -17 -6 -34 -10 -22 -5 -26 -4
-15 4 14 9 59 15 49 6z m-2011 -27 c18 -6 45 -8 60 -5 21 5 24 4 12 -5 -11 -8
-4 -9 30 -5 34 5 41 4 30 -5 -12 -9 -11 -10 8 -6 12 3 20 1 17 -3 -3 -5 3 -9
12 -8 23 0 86 -24 95 -37 4 -5 13 -10 20 -11 55 -4 54 -4 38 -14 -13 -8 -12
-10 3 -10 9 0 17 -5 17 -11 0 -12 4 -14 -75 27 -87 45 -145 62 -278 79 -137
17 -244 19 -336 5 -36 -6 -97 -15 -136 -21 -38 -6 -78 -13 -87 -15 -12 -4 -18
0 -18 11 0 12 5 15 16 11 15 -6 123 8 274 33 59 10 256 3 298 -10z m1736 -35
c-4 -15 -2 -24 6 -24 6 0 9 4 5 9 -3 5 -1 12 5 16 5 3 10 2 10 -3 0 -19 28
-20 47 -2 11 9 28 20 39 23 10 3 30 8 44 12 14 4 -15 -14 -63 -39 -48 -25 -89
-46 -91 -46 -4 0 -26 83 -26 96 0 3 7 1 15 -6 9 -8 13 -21 9 -36z m-1513 -2
c-7 -2 -18 1 -23 6 -8 8 -4 9 13 5 13 -4 18 -8 10 -11z m299 -129 c-11 -17
-11 -17 -6 0 3 10 7 26 7 35 1 15 2 15 6 0 2 -10 -1 -25 -7 -35z m-25 -3 c3
-6 -1 -7 -9 -4 -18 7 -21 14 -7 14 6 0 13 -4 16 -10z m-488 -200 c43 -6 92
-15 108 -20 17 -5 48 -12 69 -16 21 -3 48 -10 60 -15 24 -11 26 -11 -194 27
-80 14 -149 27 -155 29 -20 7 36 5 112 -5z"/>
<path d="M5091 7474 c0 -11 3 -14 6 -6 3 7 2 16 -1 19 -3 4 -6 -2 -5 -13z"/>
<path d="M5006 7339 c3 -5 10 -7 15 -4 14 9 11 -11 -4 -24 -10 -8 -17 -7 -28
2 -7 6 -3 0 10 -15 23 -27 42 -29 40 -5 0 9 -2 8 -6 -1 -2 -6 -9 -9 -15 -6 -5
3 -2 14 8 25 9 11 14 22 10 26 -10 11 -37 12 -30 2z"/>
<path d="M4756 7215 c-9 -26 -7 -32 5 -12 6 10 9 21 6 23 -2 3 -7 -2 -11 -11z"/>
<path d="M5022 7198 c0 -29 1 -30 9 -10 10 26 23 30 15 5 -3 -10 -2 -24 3 -31
16 -26 22 18 6 46 -8 15 -14 20 -15 12 0 -12 -2 -12 -9 -2 -5 9 -8 2 -9 -20z"/>
<path d="M4706 7146 c5 -12 4 -17 -3 -13 -5 3 -10 0 -10 -8 0 -20 13 -19 21 2
4 9 2 21 -4 27 -8 8 -9 6 -4 -8z"/>
<path d="M5031 7144 c0 -11 3 -14 6 -6 3 7 2 16 -1 19 -3 4 -6 -2 -5 -13z"/>
<path d="M4730 7115 c0 -8 -5 -15 -11 -15 -6 0 -9 -7 -6 -15 4 -8 2 -17 -3
-20 -15 -9 -12 -35 4 -35 8 0 22 10 30 22 25 36 18 44 -10 12 l-25 -29 12 30
c7 17 16 34 21 40 11 13 10 25 -2 25 -5 0 -10 -7 -10 -15z"/>
<path d="M4659 7093 c-13 -16 -12 -17 4 -4 16 13 21 21 13 21 -2 0 -10 -8 -17
-17z"/>
<path d="M4682 7078 c-15 -15 -15 -38 0 -38 6 0 8 3 5 7 -4 3 -2 12 5 20 14
17 6 27 -10 11z"/>
<path d="M5021 7053 c12 -15 12 -16 -3 -11 -9 4 -24 0 -35 -7 -10 -8 -34 -15
-53 -16 l-35 -1 35 -7 c19 -4 60 -4 90 0 30 3 50 7 44 8 -6 0 -17 12 -24 26
-7 14 -18 25 -23 25 -5 0 -3 -8 4 -17z m19 -23 c0 -5 -5 -10 -11 -10 -5 0 -7
5 -4 10 3 6 8 10 11 10 2 0 4 -4 4 -10z"/>
<path d="M4628 7041 c4 -10 7 -11 10 -3 2 7 8 10 13 6 5 -3 9 -1 9 5 0 5 -9 9
-19 8 -12 -1 -17 -6 -13 -16z"/>
<path d="M4600 7020 c0 -5 5 -10 10 -10 6 0 10 5 10 10 0 6 -4 10 -10 10 -5 0
-10 -4 -10 -10z"/>
<path d="M4845 7010 c27 -12 35 -12 35 0 0 6 -12 10 -27 9 -25 0 -26 -1 -8 -9z"/>
<path d="M5815 7010 c-16 -4 -49 -8 -73 -9 -29 -1 -41 -5 -36 -12 7 -12 87 -7
174 10 3 1 -2 6 -10 11 -8 5 -17 9 -20 9 -3 -1 -18 -5 -35 -9z"/>
<path d="M5945 6991 c7 -22 -10 -30 -18 -8 -4 9 -6 9 -6 0 -1 -19 20 -26 34
-12 11 12 11 16 -2 28 -13 12 -14 11 -8 -8z"/>
<path d="M5164 6989 c-3 -6 -2 -15 3 -20 5 -5 9 -1 9 11 0 23 -2 24 -12 9z"/>
<path d="M5650 6990 c0 -5 5 -10 10 -10 6 0 10 5 10 10 0 6 -4 10 -10 10 -5 0
-10 -4 -10 -10z"/>
<path d="M5125 6970 c-7 -21 -34 -27 -51 -10 -5 5 -24 6 -46 1 -20 -5 -49 -7
-65 -5 -27 4 -27 3 -3 -5 14 -5 43 -7 65 -5 32 3 36 2 20 -6 -15 -7 -7 -8 29
-3 40 5 47 3 41 -8 -5 -8 -4 -11 1 -6 5 5 10 13 10 18 1 5 2 14 3 20 0 5 5 7
11 4 6 -3 7 1 4 9 -8 21 -11 20 -19 -4z"/>
<path d="M5675 6970 c-3 -5 1 -10 9 -10 9 0 16 5 16 10 0 6 -4 10 -9 10 -6 0
-13 -4 -16 -10z"/>
<path d="M5786 6955 c-6 -16 19 -21 29 -6 3 5 22 7 43 5 28 -4 33 -3 22 5 -23
16 -87 14 -94 -4z"/>
<path d="M4928 6933 c6 -2 18 -2 25 0 6 3 1 5 -13 5 -14 0 -19 -2 -12 -5z"/>
<path d="M4988 6923 c7 -3 16 -2 19 1 4 3 -2 6 -13 5 -11 0 -14 -3 -6 -6z"/>
<path d="M5928 6923 c6 -2 18 -2 25 0 6 3 1 5 -13 5 -14 0 -19 -2 -12 -5z"/>
<path d="M5038 6913 c12 -2 30 -2 40 0 9 3 -1 5 -23 4 -22 0 -30 -2 -17 -4z"/>
<path d="M5928 6903 c6 -2 18 -2 25 0 6 3 1 5 -13 5 -14 0 -19 -2 -12 -5z"/>
<path d="M3330 7863 c0 -6 8 -17 18 -24 16 -13 16 -13 2 6 -8 11 -16 22 -17
24 -2 2 -3 0 -3 -6z"/>
<path d="M3071 7800 c0 -8 4 -22 9 -30 12 -18 12 -2 0 25 -6 13 -9 15 -9 5z"/>
<path d="M3375 7710 c-3 -6 1 -7 9 -4 18 7 21 14 7 14 -6 0 -13 -4 -16 -10z"/>
<path d="M3128 7635 c5 -11 12 -27 15 -35 5 -13 6 -13 6 1 1 8 -6 24 -15 35
-15 19 -15 19 -6 -1z"/>
<path d="M3526 7615 c-11 -8 -15 -15 -10 -15 6 0 19 7 30 15 10 8 15 14 9 14
-5 0 -19 -6 -29 -14z"/>
<path d="M3150 7571 c0 -7 -4 -9 -10 -6 -5 3 -10 2 -10 -4 0 -5 4 -12 9 -15
10 -6 25 24 16 32 -3 3 -5 0 -5 -7z"/>
<path d="M3121 7504 c0 -11 3 -14 6 -6 3 7 2 16 -1 19 -3 4 -6 -2 -5 -13z"/>
<path d="M3170 7480 c0 -5 5 -10 11 -10 5 0 7 5 4 10 -3 6 -8 10 -11 10 -2 0
-4 -4 -4 -10z"/>
<path d="M3130 7470 c0 -5 5 -10 10 -10 6 0 10 5 10 10 0 6 -4 10 -10 10 -5 0
-10 -4 -10 -10z"/>
<path d="M4636 7423 c-6 -14 -5 -15 5 -6 7 7 10 15 7 18 -3 3 -9 -2 -12 -12z"/>
<path d="M3201 7404 c0 -11 3 -14 6 -6 3 7 2 16 -1 19 -3 4 -6 -2 -5 -13z"/>
<path d="M4550 7380 c-8 -5 -10 -10 -5 -10 6 0 17 5 25 10 8 5 11 10 5 10 -5
0 -17 -5 -25 -10z"/>
<path d="M3145 7370 c-3 -5 -2 -10 4 -10 5 0 13 5 16 10 3 6 2 10 -4 10 -5 0
-13 -4 -16 -10z"/>
<path d="M3200 7354 c0 -8 5 -12 10 -9 6 4 8 11 5 16 -9 14 -15 11 -15 -7z"/>
<path d="M4575 7361 c3 -5 1 -13 -5 -16 -6 -4 -8 -16 -4 -27 4 -14 2 -19 -7
-16 -16 5 -45 -20 -34 -30 4 -4 10 -1 12 6 3 6 12 12 21 12 15 0 15 -2 2 -11
-10 -7 -11 -9 -2 -7 8 2 12 6 10 8 -1 3 8 23 22 44 13 22 18 36 12 32 -7 -4
-12 -2 -12 3 0 6 -5 11 -11 11 -5 0 -8 -4 -4 -9z m7 -33 c-7 -7 -12 -8 -12 -2
0 14 12 26 19 19 2 -3 -1 -11 -7 -17z"/>
<path d="M3151 7284 c0 -11 3 -14 6 -6 3 7 2 16 -1 19 -3 4 -6 -2 -5 -13z"/>
<path d="M3169 7275 c-12 -58 5 -107 27 -77 9 13 12 11 18 -11 10 -40 29 -34
21 6 -4 17 -9 35 -11 39 -8 12 -34 -3 -34 -20 0 -21 -6 -12 -14 21 -4 18 -3
26 3 23 5 -4 13 -1 17 5 4 7 3 9 -4 5 -5 -3 -13 0 -15 6 -3 7 -6 9 -8 3z"/>
<path d="M4485 7269 c-11 -16 -1 -19 13 -3 7 8 8 14 3 14 -5 0 -13 -5 -16 -11z"/>
<path d="M4493 7245 c-8 -9 -9 -16 -3 -20 6 -3 10 -11 10 -17 0 -6 -7 -5 -17
3 -16 13 -17 12 -4 -3 7 -10 12 -18 10 -19 -2 0 -14 -2 -27 -3 -24 -3 -55 -26
-35 -26 7 0 15 5 18 11 4 6 14 8 22 5 10 -4 28 7 49 31 39 45 45 67 9 33 -25
-23 -37 -16 -13 8 7 7 8 12 3 12 -6 -1 -16 -7 -22 -15z"/>
<path d="M3250 7235 c0 -8 7 -15 15 -15 8 0 15 4 15 9 0 5 -7 11 -15 15 -9 3
-15 0 -15 -9z"/>
<path d="M4430 7140 c-13 -11 -21 -22 -19 -24 2 -2 17 7 32 20 15 13 24 24 19
24 -5 0 -19 -9 -32 -20z"/>
<path d="M3230 7139 c0 -4 7 -12 15 -19 8 -7 13 -16 10 -20 -3 -4 6 -10 19
-12 22 -4 23 -3 15 26 -5 17 -9 32 -9 33 0 2 -11 2 -25 1 -14 -1 -25 -5 -25
-9z"/>
<path d="M3190 7092 c0 -44 11 -58 45 -59 l34 -1 -25 24 c-13 14 -24 29 -24
33 0 5 -7 11 -15 15 -10 3 -15 -1 -15 -12z"/>
<path d="M3301 7058 c-10 -30 -9 -31 4 -14 8 11 15 26 15 33 0 22 -8 14 -19
-19z"/>
<path d="M3323 7035 c-3 -9 -3 -18 -1 -21 3 -3 8 4 11 16 6 23 -1 27 -10 5z"/>
<path d="M3210 7020 c-12 -8 -12 -10 5 -10 17 0 17 -2 5 -10 -21 -13 -13 -12
40 5 42 14 43 15 8 10 -20 -3 -38 -1 -40 4 -2 7 -8 7 -18 1z"/>
<path d="M3320 7611 c0 -5 5 -13 10 -16 6 -3 10 -2 10 4 0 5 -4 13 -10 16 -5
3 -10 2 -10 -4z"/>
<path d="M3410 7482 c6 -13 14 -21 18 -18 3 4 -2 14 -12 24 -18 16 -18 16 -6
-6z"/>
<path d="M3500 7360 c6 -11 13 -20 16 -20 2 0 0 9 -6 20 -6 11 -13 20 -16 20
-2 0 0 -9 6 -20z"/>
<path d="M3540 7296 c0 -2 7 -9 15 -16 13 -11 14 -10 9 4 -5 14 -24 23 -24 12z"/>
<path d="M7012 7449 c-47 -44 -52 -52 -41 -67 8 -9 14 -18 15 -20 0 -1 13 16
28 38 14 22 23 40 20 40 -4 0 0 8 8 18 17 19 31 42 26 42 -2 0 -27 -23 -56
-51z m-4 -39 c-23 -31 -28 -35 -28 -22 0 9 38 52 46 52 2 0 -5 -13 -18 -30z"/>
<path d="M6905 7330 c-3 -5 -1 -10 4 -10 6 0 11 5 11 10 0 6 -2 10 -4 10 -3 0
-8 -4 -11 -10z"/>
<path d="M6926 7304 c-5 -14 -4 -15 9 -4 17 14 19 20 6 20 -5 0 -12 -7 -15
-16z"/>
<path d="M6780 7280 c-9 -6 -10 -10 -3 -10 6 0 15 5 18 10 8 12 4 12 -15 0z"/>
<path d="M6740 7250 c0 -5 5 -10 10 -10 6 0 10 5 10 10 0 6 -4 10 -10 10 -5 0
-10 -4 -10 -10z"/>
<path d="M6715 7221 c4 -37 11 -48 23 -36 4 4 1 10 -6 12 -6 3 -10 9 -7 14 4
5 2 17 -4 26 -8 14 -9 11 -6 -16z"/>
<path d="M6648 7203 c6 -2 18 -2 25 0 6 3 1 5 -13 5 -14 0 -19 -2 -12 -5z"/>
<path d="M6590 7191 c-8 -5 -55 -21 -105 -36 l-90 -27 4 -44 3 -44 -41 0 c-23
0 -41 5 -41 10 0 6 -10 10 -22 9 -23 0 -23 0 1 -10 31 -12 17 -27 -29 -31 -22
-2 -34 1 -33 8 1 6 -7 11 -19 10 -25 -1 -32 -30 -11 -48 12 -10 14 -9 11 3 -1
7 2 15 7 16 6 1 9 -5 7 -13 -2 -8 4 -14 12 -14 7 0 40 -13 71 -30 64 -34 65
-34 65 -20 0 6 -7 10 -15 10 -8 0 -15 5 -15 11 0 6 7 8 16 5 9 -3 20 -6 26 -6
6 0 8 -7 5 -15 -4 -8 -1 -17 5 -21 7 -4 8 -3 4 4 -5 8 4 12 26 13 l33 1 -30 7
c-39 8 -48 41 -11 41 14 0 26 -3 26 -7 0 -14 48 -31 75 -26 14 3 32 14 39 25
8 11 19 17 25 14 13 -8 54 18 44 27 -3 4 1 7 11 7 11 0 14 4 10 12 -5 7 -2 9
8 6 11 -5 14 0 10 18 -5 28 17 41 46 25 16 -8 25 -4 50 22 18 18 32 39 32 46
0 7 4 10 9 7 17 -11 30 18 14 33 -13 12 -14 11 -9 -6 4 -14 2 -21 -6 -20 -34
1 -46 -5 -56 -29 -7 -15 -17 -22 -24 -18 -7 4 -8 3 -4 -4 4 -6 14 -8 23 -5 15
6 16 5 3 -9 -8 -9 -16 -12 -18 -7 -2 5 -19 9 -38 9 -30 0 -34 -3 -35 -27 0
-25 -1 -26 -9 -8 -5 11 -9 28 -9 39 -1 16 4 17 37 12 20 -3 31 -3 24 0 -7 3
-24 16 -36 29 -20 20 -30 23 -67 18 -24 -3 -52 -10 -61 -14 -9 -5 -27 -9 -40
-8 -17 1 -15 3 12 11 19 5 49 12 67 15 33 5 69 34 42 32 -8 0 -21 -4 -29 -8z
m5 -60 c2 -5 -34 -8 -82 -8 -48 0 -80 3 -70 6 27 10 146 11 152 2z m-151 -87
c26 -10 18 -24 -14 -24 -29 0 -38 9 -23 23 8 9 17 9 37 1z m171 -10 c9 3 13 2
10 -4 -3 -6 -14 -10 -23 -11 -14 0 -14 -2 2 -8 14 -5 16 -10 8 -15 -7 -4 -19
0 -28 8 -20 21 -26 20 -22 -1 2 -15 -4 -18 -35 -18 -35 0 -51 -17 -27 -28 6
-3 5 -4 -2 -3 -7 1 -14 17 -16 34 -3 31 -2 32 38 32 27 0 43 5 46 15 5 12 10
13 20 4 8 -6 21 -9 29 -5z"/>
<path d="M6290 7113 c-19 -2 -51 -6 -70 -10 l-35 -7 50 -6 50 -7 -64 -1 c-50
-2 -67 2 -77 16 -13 16 -14 16 -7 -3 6 -18 5 -18 -10 -6 -9 7 -17 10 -17 6 0
-4 -8 -2 -17 6 -10 7 -7 2 7 -12 14 -13 33 -33 43 -44 10 -11 15 -13 11 -5 -7
13 -5 13 9 1 15 -11 17 -11 17 2 0 8 -6 18 -12 20 -7 3 3 6 22 6 26 1 31 -2
20 -9 -11 -7 -7 -10 18 -10 17 0 32 5 32 10 0 6 13 10 29 10 16 0 34 7 41 15
9 11 9 15 1 15 -7 0 -9 5 -6 10 3 6 5 9 3 8 -2 0 -19 -3 -38 -5z m27 -19 c-3
-3 -12 -4 -19 -1 -8 3 -5 6 6 6 11 1 17 -2 13 -5z"/>
<path d="M3635 7340 c3 -5 8 -10 11 -10 2 0 4 5 4 10 0 6 -5 10 -11 10 -5 0
-7 -4 -4 -10z"/>
<path d="M3400 6811 l25 -7 -25 -9 c-24 -8 -24 -8 9 -12 45 -6 64 13 27 27
-15 5 -35 10 -44 9 -10 -1 -7 -4 8 -8z"/>
<path d="M3351 6794 c0 -11 3 -14 6 -6 3 7 2 16 -1 19 -3 4 -6 -2 -5 -13z"/>
<path d="M3532 6760 c-9 -15 -26 -20 -84 -22 -80 -3 -80 -3 -63 -75 6 -27 30
-30 39 -5 11 29 31 57 43 59 18 4 37 -35 24 -51 -6 -8 -7 -23 -2 -42 l9 -29 1
35 c1 19 12 59 26 89 26 54 29 76 7 41z"/>
<path d="M3352 6740 c0 -14 2 -19 5 -12 2 6 2 18 0 25 -3 6 -5 1 -5 -13z"/>
<path d="M3467 6673 c-3 -16 -2 -34 2 -40 4 -7 7 5 8 27 2 46 -2 52 -10 13z"/>
<path d="M6952 6615 c-7 -22 -16 -46 -19 -54 -4 -10 -1 -12 11 -8 20 8 21 -3
2 -28 -8 -11 -12 -25 -9 -31 2 -7 -1 -30 -7 -53 -8 -30 -8 -46 0 -59 8 -11 10
-12 7 -2 -2 8 4 37 15 64 14 37 18 69 16 130 l-3 81 -13 -40z"/>
<path d="M3438 6577 c-3 -19 -2 -25 4 -19 6 6 8 18 6 28 -3 14 -5 12 -10 -9z"/>
<path d="M3500 6574 c0 -8 -4 -12 -10 -9 -19 12 -10 -22 10 -40 12 -10 18 -25
15 -32 -2 -8 0 -11 5 -8 6 3 10 -1 10 -11 0 -9 8 -23 18 -30 15 -12 15 -13 0
-14 -9 0 -19 -6 -22 -12 -2 -7 -4 -2 -3 12 1 15 -3 24 -10 23 -7 -2 -13 4 -13
12 0 8 -5 15 -10 15 -7 0 -7 6 -2 18 6 12 4 22 -9 34 -20 19 -38 6 -21 -15 5
-7 8 -29 7 -51 -3 -52 4 -78 22 -72 9 4 11 2 7 -6 -5 -7 -2 -9 9 -5 11 4 14 2
11 -8 -4 -10 0 -13 13 -10 11 2 26 -1 33 -5 10 -6 6 -11 -15 -16 -22 -5 -32
-2 -45 12 -21 25 -60 47 -60 34 0 -5 11 -17 25 -26 14 -9 25 -24 25 -33 0 -27
20 -40 54 -34 17 3 47 0 66 -6 l35 -10 -40 4 c-22 3 -46 1 -54 -4 -9 -6 35 -9
115 -8 80 0 116 3 94 7 -24 5 -4 8 60 8 104 0 159 8 199 28 14 8 35 14 46 14
34 1 -4 17 -58 24 -91 14 -34 29 101 28 72 0 89 -16 27 -25 -40 -5 -45 -27 -7
-27 17 0 32 5 34 12 3 9 15 9 50 0 52 -13 325 -14 385 -1 31 7 28 8 -22 4 -44
-2 -52 -1 -30 5 33 9 127 21 108 13 -7 -3 -13 -9 -13 -14 0 -6 4 -7 10 -4 5 3
69 6 142 6 99 1 125 3 101 10 -18 5 -33 11 -33 12 0 1 42 2 94 2 94 0 117 -10
41 -18 -35 -3 138 -7 630 -12 77 -1 175 -6 218 -10 56 -6 77 -5 77 4 0 6 11
11 25 11 14 0 25 -4 25 -10 0 -5 7 -10 15 -10 8 0 15 5 15 10 0 6 17 9 38 9
l37 -2 -35 -7 c-29 -6 -24 -8 32 -9 37 0 70 -5 73 -11 3 -5 25 -10 48 -9 34 0
38 2 22 10 -15 7 -11 7 14 3 19 -4 71 -7 115 -9 45 -1 91 -7 103 -13 26 -14
113 -16 113 -3 0 5 -6 11 -12 14 -7 2 -4 2 7 -1 45 -10 172 -13 205 -5 24 7
50 6 83 -3 44 -11 47 -11 35 4 -11 14 -11 15 5 9 10 -4 20 -7 23 -7 2 0 1 -8
-3 -17 -3 -10 -3 -15 1 -12 13 12 15 48 3 43 -7 -2 -12 6 -13 23 0 16 -4 37
-9 47 -6 14 -5 17 3 12 16 -10 15 42 -1 71 -9 16 -16 20 -27 13 -8 -5 -25 -10
-37 -10 -13 0 -23 -5 -23 -10 0 -6 -10 -8 -22 -6 -38 8 -305 15 -273 8 25 -6
27 -9 12 -15 -30 -12 -47 -8 -47 11 -1 10 -9 2 -23 -22 l-22 -38 -345 7 c-190
4 -363 9 -385 11 -22 2 -103 10 -181 18 -77 8 -167 19 -200 25 -67 12 -244 36
-349 47 -200 21 -440 28 -546 15 -104 -12 -127 -19 -264 -86 -129 -63 -245
-82 -407 -68 l-120 11 -44 43 c-24 24 -50 58 -56 76 -7 18 -16 33 -20 33 -5 0
-6 11 -2 25 3 14 3 25 0 25 -3 0 -6 -7 -6 -16z m1203 -51 c-13 -2 -33 -2 -45
0 -13 2 -3 4 22 4 25 0 35 -2 23 -4z m204 -19 c-3 -3 -12 -4 -19 -1 -8 3 -5 6
6 6 11 1 17 -2 13 -5z m-714 -78 c16 -13 16 -14 -5 -19 -12 -4 -24 -4 -27 -2
-2 3 1 5 9 5 10 0 10 3 0 15 -15 19 -1 19 23 1z m2277 4 c0 -5 -4 -10 -10 -10
-5 0 -10 5 -10 10 0 6 5 10 10 10 6 0 10 -4 10 -10z m-2900 -20 c0 -5 -8 -10
-17 -10 -15 0 -16 2 -3 10 19 12 20 12 20 0z m3227 4 c-3 -3 -12 -4 -19 -1 -8
3 -5 6 6 6 11 1 17 -2 13 -5z m-1970 -30 c-3 -3 -12 -4 -19 -1 -8 3 -5 6 6 6
11 1 17 -2 13 -5z m130 0 c-3 -3 -12 -4 -19 -1 -8 3 -5 6 6 6 11 1 17 -2 13
-5z m631 -1 c-10 -2 -26 -2 -35 0 -10 3 -2 5 17 5 19 0 27 -2 18 -5z m-1132
-21 c-9 -9 -29 -11 -69 -6 -80 9 -71 24 13 21 56 -2 67 -4 56 -15z m137 11
c-7 -2 -19 -2 -25 0 -7 3 -2 5 12 5 14 0 19 -2 13 -5z m622 -3 c-11 -5 -38 -8
-60 -8 l-40 1 45 7 c64 10 78 10 55 0z m590 0 c3 -6 -1 -7 -9 -4 -18 7 -21 14
-7 14 6 0 13 -4 16 -10z m-978 -6 c-3 -3 -12 -4 -19 -1 -8 3 -5 6 6 6 11 1 17
-2 13 -5z m1066 -1 c-13 -2 -33 -2 -45 0 -13 2 -3 4 22 4 25 0 35 -2 23 -4z
m821 1 c29 -11 17 -24 -23 -24 -51 0 -78 10 -59 21 15 10 60 12 82 3z m176 -9
c0 -10 -11 -15 -35 -15 -44 0 -46 17 -2 23 17 2 33 5 35 5 1 1 2 -5 2 -13z
m-3263 -1 c-3 -3 -12 -4 -19 -1 -8 3 -5 6 6 6 11 1 17 -2 13 -5z m206 -1 c-7
-2 -19 -2 -25 0 -7 3 -2 5 12 5 14 0 19 -2 13 -5z m100 0 c-13 -2 -33 -2 -45
0 -13 2 -3 4 22 4 25 0 35 -2 23 -4z m1580 0 c-7 -2 -19 -2 -25 0 -7 3 -2 5
12 5 14 0 19 -2 13 -5z m100 0 c-7 -2 -21 -2 -30 0 -10 3 -4 5 12 5 17 0 24
-2 18 -5z m790 -8 c2 -12 -38 -19 -61 -10 -14 5 -14 7 -2 16 18 11 60 8 63 -6z
m-2655 -2 c-10 -2 -26 -2 -35 0 -10 3 -2 5 17 5 19 0 27 -2 18 -5z m258 -1 c9
-5 8 -10 -2 -19 -8 -8 -15 -9 -19 -3 -3 6 0 10 7 11 7 1 2 5 -12 9 -21 7 -21
8 -5 9 11 0 25 -3 31 -7z m-116 -12 c-13 -9 -13 -10 0 -10 12 -1 12 -2 -2 -10
-20 -12 -45 -4 -45 15 0 10 11 15 31 15 24 0 27 -3 16 -10z m57 4 c-3 -3 -12
-4 -19 -1 -8 3 -5 6 6 6 11 1 17 -2 13 -5z m-384 -21 c-7 -2 -19 -2 -25 0 -7
3 -2 5 12 5 14 0 19 -2 13 -5z m121 -4 c-4 -8 4 -9 27 -5 27 6 31 5 16 -4 -10
-7 -31 -9 -50 -4 -28 6 -30 8 -12 15 27 10 27 10 19 -2z m259 -6 c-7 -2 -19
-2 -25 0 -7 3 -2 5 12 5 14 0 19 -2 13 -5z m2570 0 c-7 -2 -19 -2 -25 0 -7 3
-2 5 12 5 14 0 19 -2 13 -5z"/>
<path d="M3410 6553 c0 -6 -2 -18 -5 -26 -4 -8 0 -14 10 -14 8 0 15 5 15 11 0
15 -20 44 -20 29z"/>
<path d="M6903 6515 c-7 -8 -13 -19 -13 -25 0 -18 15 -10 27 15 12 27 5 32
-14 10z"/>
<path d="M3403 6477 c-3 -6 -1 -7 5 -3 5 3 12 1 14 -6 3 -8 6 -7 10 3 7 17
-19 22 -29 6z"/>
<path d="M3420 6431 c0 -6 4 -13 10 -16 6 -3 7 1 4 9 -7 18 -14 21 -14 7z"/>
<path d="M3460 6341 c0 -5 5 -13 10 -16 6 -3 10 -2 10 4 0 5 -4 13 -10 16 -5
3 -10 2 -10 -4z"/>
<path d="M6784 6299 c-3 -5 6 -9 20 -9 31 0 34 6 6 13 -11 3 -23 1 -26 -4z"/>
<path d="M3818 6273 c7 -3 16 -2 19 1 4 3 -2 6 -13 5 -11 0 -14 -3 -6 -6z"/>
<path d="M4192 6007 c-2 -74 11 -117 35 -117 7 0 13 5 13 11 0 5 -4 8 -9 5 -5
-3 -12 1 -15 10 -8 22 -8 26 4 19 6 -4 10 9 9 32 0 33 -1 35 -9 16 -16 -38
-20 -26 -13 37 3 33 2 60 -3 60 -5 0 -10 -33 -12 -73z"/>
<path d="M4351 6030 c-1 -19 -5 -30 -9 -23 -4 6 -6 -53 -5 -130 2 -78 3 -159
3 -179 0 -41 17 -52 25 -15 2 12 1 103 -4 202 -4 99 -9 164 -10 145z m6 -322
c-2 -18 -4 -6 -4 27 0 33 2 48 4 33 2 -15 2 -42 0 -60z"/>
<path d="M4250 6028 c0 -32 15 -45 24 -21 4 9 0 23 -9 32 -13 14 -15 13 -15
-11z"/>
<path d="M4220 6020 c0 -5 5 -10 11 -10 5 0 7 5 4 10 -3 6 -8 10 -11 10 -2 0
-4 -4 -4 -10z"/>
<path d="M4250 5950 c0 -20 5 -30 15 -30 10 0 15 10 15 30 0 20 -5 30 -15 30
-10 0 -15 -10 -15 -30z"/>
<path d="M4322 5945 c0 -16 2 -22 5 -12 2 9 2 23 0 30 -3 6 -5 -1 -5 -18z"/>
<path d="M4245 5881 c-3 -11 -13 -21 -21 -21 -10 0 -14 -13 -14 -50 0 -48 -19
-73 -21 -27 0 12 -3 17 -5 11 -2 -6 2 -35 9 -64 l14 -53 6 48 c4 26 8 64 8 84
1 20 3 28 6 19 5 -18 33 -26 33 -9 0 5 9 7 20 4 13 -3 20 -14 20 -29 0 -33 17
-39 24 -8 9 36 -3 94 -21 94 -8 0 -11 -4 -8 -10 3 -5 -3 -10 -15 -10 -12 0
-19 4 -16 8 2 4 1 14 -4 21 -6 10 -9 8 -15 -8z"/>
<path d="M4182 5860 c0 -14 2 -19 5 -12 2 6 2 18 0 25 -3 6 -5 1 -5 -13z"/>
<path d="M4230 5743 c0 -29 12 -63 21 -63 5 0 9 18 9 40 0 29 -4 40 -15 40 -8
0 -15 -8 -15 -17z"/>
<path d="M4322 5705 c0 -16 2 -22 5 -12 2 9 2 23 0 30 -3 6 -5 -1 -5 -18z"/>
<path d="M4411 5664 c0 -11 3 -14 6 -6 3 7 2 16 -1 19 -3 4 -6 -2 -5 -13z"/>
<path d="M4364 5637 c-2 -7 -4 -22 -3 -32 1 -11 1 -36 -1 -55 l-2 -35 -8 30
c-7 28 -8 28 -9 5 0 -14 4 -32 9 -40 8 -12 10 -12 10 -1 0 11 3 11 15 1 10 -9
15 -9 15 -1 0 6 -4 11 -8 11 -4 0 -6 29 -4 65 4 60 -2 83 -14 52z"/>
<path d="M4361 5474 c0 -11 3 -14 6 -6 3 7 2 16 -1 19 -3 4 -6 -2 -5 -13z"/>
<path d="M4392 5465 c0 -16 2 -22 5 -12 2 9 2 23 0 30 -3 6 -5 -1 -5 -18z"/>
<path d="M4417 5093 c-4 -3 -7 -13 -7 -22 1 -13 3 -13 11 2 11 19 8 33 -4 20z"/>
<path d="M4320 5011 c0 -19 17 -38 25 -29 7 7 -7 48 -16 48 -5 0 -9 -9 -9 -19z"/>
<path d="M4403 4940 c0 -25 2 -35 4 -22 2 12 2 32 0 45 -2 12 -4 2 -4 -23z"/>
<path d="M4329 4963 c0 -4 0 -27 1 -51 1 -32 -3 -44 -17 -49 -10 -4 -24 -13
-32 -20 -10 -10 -16 -11 -27 -2 -11 9 -15 7 -20 -6 -5 -13 -9 -14 -15 -3 -6 9
-9 8 -9 -7 0 -11 4 -27 10 -35 5 -8 5 -19 1 -25 -5 -5 -11 -28 -14 -50 l-6
-40 14 30 c8 17 14 25 15 18 0 -6 3 -20 6 -30 4 -13 3 -15 -4 -5 -15 21 -24
-45 -13 -101 4 -25 6 -49 3 -51 -3 -3 4 -9 14 -12 10 -4 30 -16 43 -26 13 -10
32 -18 42 -18 11 0 19 -4 19 -10 0 -5 7 -6 17 -3 11 4 14 3 9 -5 -4 -7 -1 -12
9 -12 9 0 30 -7 46 -16 17 -8 40 -16 52 -18 12 -1 35 -8 50 -14 37 -16 46 -15
23 3 -17 13 -17 18 -6 46 12 28 15 30 21 13 4 -10 8 -14 8 -7 1 6 -2 19 -5 27
-5 14 -9 14 -22 4 -12 -10 -14 -10 -8 0 4 6 2 12 -3 12 -6 0 -11 -5 -11 -12 0
-6 -3 -9 -6 -5 -4 3 -13 0 -21 -8 -8 -8 -24 -14 -36 -14 -21 2 -21 2 1 6 13 3
28 15 34 29 6 13 15 24 20 24 5 0 6 9 3 20 -4 11 -2 20 4 20 6 0 13 -11 17
-25 4 -14 9 -24 12 -21 2 3 -1 19 -8 36 -10 23 -16 28 -25 20 -17 -14 -27 2
-18 26 4 12 3 15 -6 10 -9 -6 -11 0 -7 25 2 18 -1 47 -9 66 -8 18 -10 33 -5
33 4 0 12 -15 16 -32 4 -18 8 -28 10 -23 2 6 -5 51 -15 100 -14 64 -19 79 -20
53 -1 -35 -19 -64 -22 -36 -1 7 -3 20 -4 28 -1 8 -3 33 -4 55 -1 36 -3 38 -14
20 -7 -11 -12 -36 -12 -55 0 -28 -4 -36 -22 -38 -21 -3 -22 1 -25 79 -2 55 -7
84 -15 87 -7 2 -13 0 -14 -5z m91 -173 c0 -5 -4 -10 -10 -10 -5 0 -10 5 -10
10 0 6 5 10 10 10 6 0 10 -4 10 -10z m37 -42 c-3 -8 -6 -5 -6 6 -1 11 2 17 5
13 3 -3 4 -12 1 -19z m-137 -118 c0 -5 -4 -10 -10 -10 -5 0 -10 5 -10 10 0 6
5 10 10 10 6 0 10 -4 10 -10z m-60 -38 c0 -16 -6 -36 -13 -46 -12 -16 -13 -16
-14 6 -2 35 6 68 17 68 6 0 10 -13 10 -28z m240 -46 c0 -8 -4 -17 -8 -20 -4
-2 -8 4 -8 15 0 10 4 19 8 19 4 0 8 -6 8 -14z m-180 -6 c0 -5 -2 -10 -4 -10
-3 0 -8 5 -11 10 -3 6 -1 10 4 10 6 0 11 -4 11 -10z m-35 -10 c3 -5 2 -10 -4
-10 -5 0 -13 5 -16 10 -3 6 -2 10 4 10 5 0 13 -4 16 -10z m150 -80 c8 -13 -5
-13 -25 0 -13 8 -13 10 2 10 9 0 20 -4 23 -10z m45 -20 c0 -5 -7 -7 -15 -4 -8
4 -15 8 -15 10 0 2 7 4 15 4 8 0 15 -4 15 -10z"/>
<path d="M4452 4900 c0 -14 2 -19 5 -12 2 6 2 18 0 25 -3 6 -5 1 -5 -13z"/>
<path d="M4300 4890 c0 -5 5 -10 10 -10 6 0 10 5 10 10 0 6 -4 10 -10 10 -5 0
-10 -4 -10 -10z"/>
<path d="M4502 4645 c0 -11 3 -29 8 -40 11 -25 11 1 0 35 -6 20 -8 21 -8 5z"/>
<path d="M5827 6129 c12 -5 6 -8 -22 -9 -80 -4 -104 -16 -32 -17 37 0 67 3 67
7 0 4 19 12 43 17 l42 10 -58 -1 c-35 0 -51 -3 -40 -7z"/>
<path d="M6160 5809 c0 -5 -4 -7 -10 -4 -16 10 -12 -1 6 -15 12 -11 15 -11 12
0 -2 8 2 14 9 15 22 0 26 15 5 15 -12 0 -22 -5 -22 -11z"/>
<path d="M6096 5763 c-13 -21 -28 -51 -31 -68 -4 -19 4 -8 21 28 23 49 30 56
48 52 12 -4 17 -3 11 2 -5 5 -13 12 -17 17 -3 4 -18 -9 -32 -31z"/>
<path d="M4631 4974 c0 -11 3 -14 6 -6 3 7 2 16 -1 19 -3 4 -6 -2 -5 -13z"/>
<path d="M4661 4983 c-1 -6 -4 -20 -7 -30 -5 -17 -5 -17 6 0 6 10 9 23 6 30
-3 9 -5 9 -5 0z"/>
<path d="M4671 4908 c-1 -16 4 -28 9 -28 12 0 12 8 0 35 -8 18 -9 17 -9 -7z"/>
<path d="M4652 4875 c0 -11 3 -29 8 -40 11 -25 11 1 0 35 -6 20 -8 21 -8 5z"/>
<path d="M5989 4816 c-36 -8 -88 -22 -115 -31 -62 -21 -343 -165 -322 -165 9
0 73 20 143 45 190 67 255 79 435 79 176 0 279 -19 429 -81 45 -19 85 -32 87
-30 9 9 -93 90 -148 118 -96 49 -190 70 -323 75 -78 2 -143 -1 -186 -10z"/>
<path d="M4691 4754 c0 -11 3 -14 6 -6 3 7 2 16 -1 19 -3 4 -6 -2 -5 -13z"/>
<path d="M4757 4709 c4 -13 8 -18 11 -10 2 7 -1 18 -6 23 -8 8 -9 4 -5 -13z"/>
<path d="M4692 4700 c0 -14 2 -19 5 -12 2 6 2 18 0 25 -3 6 -5 1 -5 -13z"/>
<path d="M4715 4680 c-3 -5 -1 -10 4 -10 6 0 11 5 11 10 0 6 -2 10 -4 10 -3 0
-8 -4 -11 -10z"/>
<path d="M4702 4630 c0 -19 2 -27 5 -17 2 9 2 25 0 35 -3 9 -5 1 -5 -18z"/>
<path d="M4806 4611 c-3 -5 -3 -16 0 -24 3 -8 1 -18 -5 -22 -6 -3 -11 -1 -11
4 0 6 -19 11 -41 11 l-41 0 6 -44 c4 -24 18 -66 32 -93 14 -26 23 -40 20 -30
-4 11 -2 16 5 11 6 -3 9 -15 6 -25 -3 -12 -1 -17 6 -12 7 4 8 0 3 -13 -4 -10
-4 -16 -1 -12 9 9 47 -31 40 -41 -6 -11 20 -33 29 -24 4 4 11 1 16 -7 6 -8 10
-10 10 -4 0 7 10 9 25 6 14 -2 22 -9 19 -14 -3 -5 2 -9 12 -7 11 1 37 -2 59
-6 22 -5 44 -8 48 -7 4 1 20 -4 35 -12 15 -8 39 -12 53 -9 13 2 61 -5 106 -16
83 -21 140 -28 98 -12 -14 6 -3 9 39 13 38 3 63 11 71 21 9 13 40 17 154 23
78 4 137 10 130 14 -8 6 -8 9 2 12 13 4 -47 13 -286 43 -109 14 -183 29 -272
56 -18 6 -38 7 -44 3 -7 -4 -9 -3 -6 2 3 6 -9 16 -26 23 -18 8 -57 26 -87 40
-30 15 -62 25 -72 24 -9 -2 -20 1 -24 8 -5 9 -2 10 11 5 15 -5 16 -4 5 9 -7 9
-19 14 -27 11 -8 -3 -12 -2 -9 3 9 13 -44 61 -60 54 -8 -3 -14 -1 -14 5 0 6 5
12 11 14 7 2 6 8 -4 16 -9 8 -18 9 -21 3z m50 -54 c4 -4 -2 -7 -14 -7 -11 0
-23 4 -26 8 -6 10 30 9 40 -1z m-95 -100 c-10 -9 -11 -8 -5 6 3 10 9 15 12 12
3 -3 0 -11 -7 -18z m38 -47 c0 -9 -4 -8 -9 5 -5 11 -9 27 -9 35 0 9 4 8 9 -5
5 -11 9 -27 9 -35z m506 -66 c37 -7 38 -8 15 -15 -14 -4 -36 -7 -50 -7 -22 0
-22 1 5 8 28 7 29 8 5 10 -14 1 -34 6 -45 11 -22 10 -23 10 70 -7z m-72 -11
c-7 -2 -19 -2 -25 0 -7 3 -2 5 12 5 14 0 19 -2 13 -5z m207 -24 c0 -5 -18 -9
-40 -9 -48 0 -54 17 -7 22 36 4 47 1 47 -13z m-470 -19 c8 -5 11 -10 5 -10 -5
0 -17 5 -25 10 -8 5 -10 10 -5 10 6 0 17 -5 25 -10z m639 -1 c-16 -6 -35 -6
-50 0 -20 8 -16 10 26 10 43 -1 46 -2 24 -10z m-279 -46 c-16 -11 -24 -11 -42
-2 -12 6 -33 15 -47 20 -18 5 -20 8 -8 8 10 1 16 5 13 10 -3 4 19 1 49 -7 51
-14 53 -16 35 -29z m347 41 c-3 -3 -12 -4 -19 -1 -8 3 -5 6 6 6 11 1 17 -2 13
-5z m-284 -51 c-7 -2 -19 -2 -25 0 -7 3 -2 5 12 5 14 0 19 -2 13 -5z"/>
<path d="M5962 4253 c-19 -4 -20 -6 -8 -19 8 -8 22 -14 30 -14 9 0 16 -6 16
-14 0 -8 7 -17 16 -20 28 -11 30 4 5 23 -17 13 -20 20 -12 26 7 4 21 -2 32
-14 22 -23 35 -26 44 -11 3 6 -1 10 -9 10 -9 0 -16 4 -16 8 0 7 -61 34 -71 31
-2 -1 -14 -4 -27 -6z m45 -9 c-3 -3 -12 -4 -19 -1 -8 3 -5 6 6 6 11 1 17 -2
13 -5z"/>
<path d="M5468 4233 c7 -3 16 -2 19 1 4 3 -2 6 -13 5 -11 0 -14 -3 -6 -6z"/>
<path d="M6090 4200 c-8 -5 -11 -12 -7 -17 5 -4 11 -3 15 3 4 6 14 14 22 17
13 5 13 5 0 6 -8 0 -22 -3 -30 -9z"/>
<path d="M6098 4143 c7 -3 16 -2 19 1 4 3 -2 6 -13 5 -11 0 -14 -3 -6 -6z"/>
<path d="M3563 5703 c9 -2 23 -2 30 0 6 3 -1 5 -18 5 -16 0 -22 -2 -12 -5z"/>
<path d="M3808 5663 c7 -3 16 -2 19 1 4 3 -2 6 -13 5 -11 0 -14 -3 -6 -6z"/>
<path d="M4603 5605 c0 -22 2 -30 4 -17 2 12 2 30 0 40 -3 9 -5 -1 -4 -23z"/>
<path d="M2890 5312 c0 -13 61 -22 80 -11 11 6 9 8 -10 9 -14 0 -35 3 -47 6
-13 4 -23 2 -23 -4z"/>
<path d="M3188 4953 c6 -2 18 -2 25 0 6 3 1 5 -13 5 -14 0 -19 -2 -12 -5z"/>
<path d="M3498 4923 c7 -3 16 -2 19 1 4 3 -2 6 -13 5 -11 0 -14 -3 -6 -6z"/>
<path d="M6970 4980 c-6 -11 -8 -20 -6 -20 3 0 10 9 16 20 6 11 8 20 6 20 -3
0 -10 -9 -16 -20z"/>
<path d="M2298 4574 c-12 -12 -14 -23 -7 -46 4 -17 11 -33 15 -37 4 -3 4 2 1
12 -8 21 2 49 14 41 5 -3 9 -10 9 -15 0 -6 -4 -7 -10 -4 -6 4 -9 -3 -7 -16 2
-17 -4 -22 -28 -25 -22 -2 -26 -1 -15 6 12 8 12 10 1 10 -11 0 -11 3 -1 15 7
9 11 18 8 21 -3 2 -18 -12 -33 -32 -16 -21 -22 -34 -14 -29 11 6 12 5 2 -6
-15 -16 -17 -33 -3 -24 6 4 7 -1 3 -11 -4 -11 -8 -13 -11 -6 -2 7 -8 12 -14
12 -6 0 -8 -7 -5 -15 7 -18 -9 -30 -19 -14 -5 8 -3 9 6 4 9 -5 11 -4 6 4 -4 6
-11 9 -16 6 -12 -7 -1 -43 16 -49 24 -9 15 -25 -13 -23 -21 2 -28 -2 -27 -15
1 -10 -2 -15 -8 -12 -5 3 -6 15 -3 27 5 19 4 19 -5 5 -7 -11 -7 -25 0 -43 5
-14 10 -28 10 -30 0 -3 -19 -3 -42 -1 -38 3 -40 2 -23 -10 10 -8 29 -14 41
-14 13 0 30 -7 38 -16 10 -10 24 -13 38 -9 18 5 20 4 8 -4 -15 -11 13 -10 103
4 37 6 34 -3 -5 -13 -28 -7 -22 -8 32 -8 43 0 56 2 40 7 -25 7 -25 7 -2 8 13
1 33 -4 45 -11 12 -6 48 -11 80 -10 32 1 56 -2 53 -6 -2 -4 42 -8 97 -9 56 -2
134 -5 173 -9 48 -4 74 -2 78 5 4 6 24 10 44 10 l37 -2 -35 -7 c-19 -4 32 -6
115 -4 82 1 154 -1 160 -4 5 -4 12 -7 15 -7 3 -1 19 -4 35 -8 101 -24 472 -47
419 -26 -19 8 -14 11 18 13 10 1 17 5 17 10 0 4 18 17 41 28 27 14 39 26 36
35 -4 8 0 13 9 11 7 -2 21 6 30 17 9 11 14 13 10 5 -6 -13 -5 -13 7 0 8 8 20
21 28 29 12 11 12 12 1 6 -10 -5 -12 -4 -7 4 4 6 11 9 16 6 5 -3 26 11 47 31
34 32 35 34 8 17 -23 -15 -35 -17 -53 -9 -26 13 -24 31 4 31 10 0 18 3 17 8
-2 4 -3 11 -3 15 0 4 -19 8 -42 7 -24 -1 -54 5 -68 12 -40 20 -180 5 -180 -20
0 -8 3 -8 12 1 7 7 30 11 53 11 27 -1 32 -3 15 -6 -14 -3 -30 -9 -35 -13 -12
-10 -101 -7 -126 4 -10 4 -36 -1 -60 -13 -84 -38 -124 -53 -158 -57 -18 -2
-43 -10 -54 -16 -13 -7 -83 -11 -187 -11 -154 1 -172 3 -240 27 -58 21 -75 24
-83 14 -7 -10 -8 -9 -4 3 3 10 -13 33 -44 64 -27 26 -49 43 -49 37 0 -6 5 -14
10 -17 6 -3 10 -12 10 -18 0 -7 -9 -1 -20 13 -11 14 -18 31 -15 38 9 26 -16
48 -51 46 -26 -2 -34 1 -39 17 -4 11 -4 23 -1 26 3 4 6 -1 6 -10 0 -24 17 -21
23 3 4 17 0 20 -31 22 -88 4 -114 7 -144 17 -28 10 -35 9 -45 -6 -12 -16 -14
-16 -29 3 -13 15 -15 16 -10 2 3 -12 1 -15 -9 -11 -8 3 -12 9 -9 14 8 14 0 11
-18 -7z m117 -12 c-3 -3 -11 0 -18 7 -9 10 -8 11 6 5 10 -3 15 -9 12 -12z
m229 -105 c-7 -19 -20 -22 -29 -7 -8 13 17 41 28 31 4 -4 5 -15 1 -24z m1129
-44 c-7 -2 -19 -2 -25 0 -7 3 -2 5 12 5 14 0 19 -2 13 -5z m62 -43 c-3 -5 -17
-10 -31 -10 -14 0 -22 4 -19 10 3 6 17 10 31 10 14 0 22 -4 19 -10z m-1095
-21 c-13 -8 -13 -10 0 -19 9 -6 10 -10 3 -10 -19 0 -26 20 -12 36 6 8 14 12
18 9 3 -3 -1 -10 -9 -16z m-500 -20 c0 -5 -4 -9 -10 -9 -5 0 -10 7 -10 16 0 8
5 12 10 9 6 -3 10 -10 10 -16z m1210 10 c-12 -8 -9 -9 12 -5 14 3 33 8 40 11
8 3 15 0 15 -7 0 -9 -20 -14 -66 -15 -63 -2 -65 -1 -36 12 36 16 56 19 35 4z
m410 -46 c0 -19 -13 -9 -16 12 -1 8 2 13 7 9 5 -3 9 -12 9 -21z m-470 13 c0
-3 -4 -8 -10 -11 -5 -3 -10 -1 -10 4 0 6 5 11 10 11 6 0 10 -2 10 -4z m-1197
-13 c-7 -2 -19 -2 -25 0 -7 3 -2 5 12 5 14 0 19 -2 13 -5z m440 -10 c-7 -2
-19 -2 -25 0 -7 3 -2 5 12 5 14 0 19 -2 13 -5z m342 -11 c-3 -3 -11 0 -18 7
-9 10 -8 11 6 5 10 -3 15 -9 12 -12z m270 -39 c-21 -14 -45 -17 -45 -5 0 10
43 29 54 24 5 -3 1 -11 -9 -19z m-728 1 c-3 -3 -12 -4 -19 -1 -8 3 -5 6 6 6
11 1 17 -2 13 -5z m120 0 c-3 -3 -12 -4 -19 -1 -8 3 -5 6 6 6 11 1 17 -2 13
-5z m218 -4 c-11 -5 -31 -8 -45 -8 l-25 0 25 8 c14 4 34 8 45 8 l20 1 -20 -9z
m935 -10 c0 -4 -6 -10 -13 -13 -7 -3 -13 3 -13 13 0 10 6 16 13 13 7 -3 13 -9
13 -13z m-1203 4 c-3 -3 -12 -4 -19 -1 -8 3 -5 6 6 6 11 1 17 -2 13 -5z m148
-4 c17 -6 14 -9 -17 -15 -20 -4 -43 -5 -50 -2 -7 3 3 6 22 7 l35 2 -30 8 c-27
7 -28 8 -5 8 14 0 34 -3 45 -8z m222 4 c-3 -3 -12 -4 -19 -1 -8 3 -5 6 6 6 11
1 17 -2 13 -5z m193 -4 c8 -5 13 -10 10 -11 -3 0 -13 -2 -22 -4 -10 -2 -18 3
-18 11 0 16 9 18 30 4z m-273 -6 c-3 -3 -12 -4 -19 -1 -8 3 -5 6 6 6 11 1 17
-2 13 -5z m-64 -11 c-7 -2 -21 -2 -30 0 -10 3 -4 5 12 5 17 0 24 -2 18 -5z
m50 -10 c-7 -2 -19 -2 -25 0 -7 3 -2 5 12 5 14 0 19 -2 13 -5z m730 -50 c-7
-2 -19 -2 -25 0 -7 3 -2 5 12 5 14 0 19 -2 13 -5z"/>
<path d="M3650 4440 c-29 -6 -25 -7 25 -7 40 0 53 2 40 8 -23 9 -19 9 -65 -1z"/>
<path d="M3588 4413 c6 -2 18 -2 25 0 6 3 1 5 -13 5 -14 0 -19 -2 -12 -5z"/>
<path d="M3945 4380 c-3 -5 -2 -10 4 -10 5 0 13 5 16 10 3 6 2 10 -4 10 -5 0
-13 -4 -16 -10z"/>
<path d="M6913 4436 c-6 -7 -7 -19 -3 -26 5 -7 6 -19 3 -27 -4 -9 0 -11 11 -7
12 5 14 10 6 20 -8 9 -8 18 0 33 12 23 1 28 -17 7z"/>
<path d="M6958 4366 c-10 -7 -18 -23 -18 -35 0 -16 -6 -21 -26 -21 -14 0 -22
-4 -19 -10 3 -5 -11 -26 -31 -45 -20 -20 -34 -39 -31 -42 10 -10 37 18 30 31
-3 6 -2 8 2 4 5 -5 10 -20 11 -35 2 -20 1 -24 -6 -13 -7 12 -12 12 -22 2 -6
-6 -20 -12 -29 -12 -20 0 -45 -27 -35 -38 4 -4 48 -8 98 -9 123 -3 125 -13 2
-14 l-99 -2 115 -8 c76 -6 131 -5 163 2 26 6 57 9 67 6 11 -3 23 -1 26 4 3 5
-12 10 -33 10 -23 1 -29 3 -15 6 12 2 20 9 17 14 -7 10 24 1 43 -14 7 -6 12
-6 12 0 0 5 -22 22 -48 36 -58 32 -73 47 -106 112 -39 77 -48 87 -68 71z m-98
-186 c0 -11 -3 -12 -42 -15 -15 -1 -25 2 -22 6 2 4 11 6 18 3 8 -3 17 -1 21 5
8 14 25 14 25 1z m205 -19 c-6 -5 -25 10 -25 20 0 5 6 4 14 -3 8 -7 12 -15 11
-17z m45 8 c0 -4 -7 -6 -15 -3 -8 4 -15 10 -15 15 0 4 7 6 15 3 8 -4 15 -10
15 -15z m-54 -40 c-32 -9 -42 -6 -32 9 3 5 18 7 33 4 l28 -5 -29 -8z"/>
<path d="M7190 4132 c0 -4 12 -9 28 -10 21 -1 23 0 12 8 -18 12 -40 13 -40 2z"/>
<path d="M7375 3770 c3 -5 8 -10 11 -10 2 0 4 5 4 10 0 6 -5 10 -11 10 -5 0
-7 -4 -4 -10z"/>
<path d="M7380 3726 c0 -8 5 -18 10 -21 6 -3 10 1 10 9 0 8 -4 18 -10 21 -5 3
-10 -1 -10 -9z"/>
<path d="M7790 3571 c0 -30 -59 -100 -85 -102 -95 -6 -148 6 -188 41 -33 29
-35 29 -51 11 -15 -17 -15 -19 1 -32 16 -13 17 -12 4 4 -12 15 -12 17 5 14 35
-7 54 -19 47 -30 -4 -6 -12 -3 -21 9 -14 18 -14 18 -7 -1 4 -11 8 -26 8 -33 0
-8 4 -9 10 -3 5 5 17 7 26 4 14 -4 14 -3 1 6 -8 5 -11 13 -8 16 4 4 17 0 30
-9 14 -10 17 -16 8 -16 -11 0 -11 -3 -2 -12 10 -10 15 -10 22 2 6 10 10 11 10
3 0 -9 16 -11 55 -8 30 3 57 0 60 -5 3 -6 1 -10 -6 -10 -7 0 -10 -2 -7 -5 3
-3 15 -2 27 3 22 8 22 8 -5 21 l-27 12 54 33 c37 22 55 40 57 55 l4 24 16 -24
c18 -26 54 -36 45 -13 -3 8 -10 11 -16 7 -7 -4 -8 0 -4 11 5 14 3 17 -8 12
-11 -4 -15 1 -15 17 0 16 -6 23 -20 24 -16 1 -20 -4 -20 -26z"/>
<path d="M7540 3431 c13 -9 13 -11 0 -11 -12 -1 -11 -3 3 -11 9 -5 22 -7 28
-3 6 3 15 0 20 -7 6 -10 9 -11 9 -1 0 6 8 12 17 12 25 0 10 10 -23 14 -16 2
-38 7 -49 11 -16 5 -17 5 -5 -4z"/>
<path d="M3867 4025 c-15 -14 -25 -25 -21 -25 4 0 -2 -8 -12 -18 -10 -9 -27
-26 -36 -37 -16 -20 -16 -21 2 -21 10 0 16 4 13 9 -9 14 18 36 40 32 16 -3 27
3 39 25 15 27 9 45 -7 20 -3 -5 -12 -10 -18 -10 -7 0 0 8 16 18 15 9 27 20 27
24 0 14 -14 8 -43 -17z"/>
<path d="M3810 3900 c8 -5 20 -10 25 -10 6 0 3 5 -5 10 -8 5 -19 10 -25 10 -5
0 -3 -5 5 -10z"/>
<path d="M5895 3700 c3 -5 8 -10 11 -10 2 0 4 5 4 10 0 6 -5 10 -11 10 -5 0
-7 -4 -4 -10z"/>
<path d="M5808 3603 c6 -2 18 -2 25 0 6 3 1 5 -13 5 -14 0 -19 -2 -12 -5z"/>
<path d="M5640 3580 l-45 -7 40 0 c22 0 54 3 70 7 26 7 27 8 5 7 -14 0 -45 -3
-70 -7z"/>
<path d="M5213 3573 c9 -2 23 -2 30 0 6 3 -1 5 -18 5 -16 0 -22 -2 -12 -5z"/>
<path d="M5053 3863 c15 -2 37 -2 50 0 12 2 0 4 -28 4 -27 0 -38 -2 -22 -4z"/>
<path d="M3571 3736 c-9 -11 -9 -16 0 -22 8 -5 9 -3 4 6 -6 10 -4 12 8 7 11
-4 14 -2 10 9 -6 17 -8 17 -22 0z"/>
<path d="M3586 3693 c-6 -14 -5 -15 5 -6 7 7 10 15 7 18 -3 3 -9 -2 -12 -12z"/>
<path d="M3530 3686 c4 -4 16 -4 26 2 16 9 14 10 -8 9 -15 -1 -23 -6 -18 -11z"/>
<path d="M3548 3663 c7 -3 16 -2 19 1 4 3 -2 6 -13 5 -11 0 -14 -3 -6 -6z"/>
<path d="M8008 3643 c-21 -5 -23 -19 -6 -29 7 -5 8 -3 3 6 -6 10 -4 12 9 7 9
-4 15 -3 11 2 -3 5 1 12 7 14 16 7 0 6 -24 0z"/>
<path d="M6912 3435 c0 -16 2 -22 5 -12 2 9 2 23 0 30 -3 6 -5 -1 -5 -18z"/>
<path d="M6890 3394 c0 -7 27 -34 34 -34 4 0 1 9 -6 20 -12 19 -28 27 -28 14z"/>
<path d="M6852 3330 c0 -19 2 -27 5 -17 2 9 2 25 0 35 -3 9 -5 1 -5 -18z"/>
<path d="M6886 3325 c-21 -32 -20 -45 4 -45 17 0 20 -7 20 -46 0 -34 -3 -45
-13 -41 -8 3 -14 -1 -14 -8 0 -7 5 -12 11 -11 6 1 13 -3 15 -9 5 -12 33 -34
44 -35 5 0 5 5 2 10 -3 6 1 13 10 16 14 6 12 9 -10 24 l-26 17 36 1 c19 1 35
-3 35 -8 0 -6 23 -10 50 -10 28 0 50 5 50 10 0 6 -4 10 -10 10 -5 0 -7 6 -5
13 3 7 -24 41 -60 77 -36 35 -65 59 -65 53 0 -7 11 -22 24 -35 19 -17 22 -25
12 -33 -19 -16 -36 -16 -36 0 0 9 6 12 18 9 11 -4 7 4 -11 20 -16 15 -33 24
-38 21 -5 -4 -9 1 -9 9 0 23 -16 19 -34 -9z m184 -104 c0 -5 -7 -12 -16 -15
-14 -5 -15 -4 -4 9 14 17 20 19 20 6z m-118 -56 c0 -5 -5 -10 -11 -11 -8 -2
-7 -1 0 3 8 4 7 8 -2 15 -11 8 -11 9 -1 6 8 -2 14 -8 14 -13z"/>
<path d="M7176 3313 c4 -14 12 -19 24 -16 10 3 21 -1 26 -8 5 -9 2 -11 -9 -6
-10 3 -17 3 -17 -1 0 -12 63 -36 90 -33 30 3 52 20 24 19 -26 -1 -74 19 -74
32 0 5 -10 10 -23 10 -13 0 -28 5 -34 11 -9 9 -11 7 -7 -8z"/>
<path d="M7260 3306 c0 -2 7 -9 15 -16 9 -7 15 -8 15 -2 0 5 -7 12 -15 16 -8
3 -15 4 -15 2z"/>
<path d="M7364 3274 c-11 -33 -10 -34 6 -17 9 10 16 23 16 30 -4 25 -12 21
-22 -13z"/>
<path d="M7375 3239 c-11 -17 1 -21 15 -4 8 9 8 15 2 15 -6 0 -14 -5 -17 -11z"/>
<path d="M6871 3224 c0 -11 3 -14 6 -6 3 7 2 16 -1 19 -3 4 -6 -2 -5 -13z"/>
<path d="M7037 3136 c-9 -13 -13 -26 -10 -29 5 -6 14 -2 60 21 12 7 29 9 38 6
11 -5 14 -2 9 10 -10 27 -78 21 -97 -8z"/>
<path d="M6752 3590 c0 -14 2 -19 5 -12 2 6 2 18 0 25 -3 6 -5 1 -5 -13z"/>
<path d="M6683 3583 c-19 -7 -15 -21 8 -28 11 -4 18 -9 16 -11 -2 -3 -16 1
-31 7 -23 11 -29 10 -44 -6 -11 -12 -12 -15 -2 -8 9 7 22 7 35 2 18 -9 18 -9
-2 -5 -13 2 -25 0 -28 -5 -3 -4 -12 -6 -20 -3 -7 3 -18 -3 -24 -14 -6 -11 -25
-24 -43 -27 l-31 -7 33 -29 c18 -16 30 -29 26 -29 -4 0 6 -11 22 -25 35 -30
39 -30 45 -7 3 9 5 2 6 -16 1 -38 21 -35 21 3 0 13 5 27 10 30 13 8 13 -30 1
-54 -7 -13 -5 -17 8 -17 13 0 16 7 13 29 -3 16 1 46 8 68 10 31 11 41 0 54 -7
8 -9 22 -6 31 5 13 9 14 21 4 10 -9 15 -9 15 -1 0 6 -3 11 -7 11 -5 0 -17 13
-27 27 -18 24 -18 26 -2 20 10 -4 15 -3 11 3 -7 11 -13 11 -32 3z m-48 -163
c-2 -8 -4 -17 -5 -20 -1 -3 -2 -9 -1 -15 1 -5 -8 1 -19 14 -22 26 -19 40 9 38
11 -1 17 -7 16 -17z"/>
<path d="M6608 3423 c6 -2 9 -10 6 -15 -4 -7 -2 -8 5 -4 13 9 5 26 -12 25 -9
0 -8 -2 1 -6z"/>
<path d="M6730 3561 c0 -6 4 -13 10 -16 6 -3 7 1 4 9 -7 18 -14 21 -14 7z"/>
<path d="M3612 3414 c-38 -41 -29 -44 16 -5 19 16 30 31 25 34 -5 3 -23 -10
-41 -29z"/>
<path d="M3412 3307 c10 -8 16 -16 14 -18 -3 -2 7 -5 22 -6 24 -1 24 0 7 10
-11 5 -22 13 -25 16 -3 3 -12 7 -20 9 -12 2 -11 -1 2 -11z"/>
<path d="M3545 3279 c-4 -6 -5 -12 -2 -15 2 -3 7 2 10 11 7 17 1 20 -8 4z"/>
<path d="M3460 3110 c0 -5 5 -10 10 -10 6 0 10 5 10 10 0 6 -4 10 -10 10 -5 0
-10 -4 -10 -10z"/>
<path d="M4232 3068 c-7 -24 -15 -49 -17 -56 -2 -7 -1 -8 2 -2 2 5 11 10 20
10 10 0 12 -6 8 -20 -3 -11 -2 -20 3 -20 11 0 22 48 22 96 0 48 -23 43 -38 -8z"/>
<path d="M3466 3025 c-9 -26 -7 -32 5 -12 6 10 9 21 6 23 -2 3 -7 -2 -11 -11z"/>
<path d="M3481 2984 c0 -11 3 -14 6 -6 3 7 2 16 -1 19 -3 4 -6 -2 -5 -13z"/>
<path d="M4180 2979 c0 -5 5 -7 10 -4 6 3 10 8 10 11 0 2 -4 4 -10 4 -5 0 -10
-5 -10 -11z"/>
<path d="M4220 2981 c0 -6 4 -13 10 -16 6 -3 7 1 4 9 -7 18 -14 21 -14 7z"/>
<path d="M4148 2956 c-19 -14 -23 -26 -10 -26 4 0 13 9 20 20 14 23 13 24 -10
6z"/>
<path d="M4161 2844 c0 -11 3 -14 6 -6 3 7 2 16 -1 19 -3 4 -6 -2 -5 -13z"/>
<path d="M3888 2793 c18 -2 30 -8 27 -12 -2 -5 8 -6 23 -3 l27 6 -25 7 c-14 4
-38 7 -55 6 -30 0 -30 0 3 -4z"/>
<path d="M5320 3334 c-34 -15 -80 -51 -80 -63 0 -4 11 -19 25 -34 20 -20 35
-27 65 -27 79 0 98 18 103 100 2 34 1 35 -38 37 -22 2 -56 -4 -75 -13z"/>
<path d="M5077 3290 c-3 -11 -1 -18 4 -14 5 3 9 0 9 -7 0 -8 4 -8 15 1 8 7 15
18 14 24 0 7 -2 6 -6 -1 -2 -7 -9 -13 -14 -13 -6 0 -8 4 -4 9 3 5 1 12 -4 15
-5 3 -11 -3 -14 -14z"/>
<path d="M5168 3273 c6 -2 18 -2 25 0 6 3 1 5 -13 5 -14 0 -19 -2 -12 -5z"/>
<path d="M5095 3239 c-4 -6 -5 -12 -2 -15 2 -3 7 2 10 11 7 17 1 20 -8 4z"/>
<path d="M5160 3215 c0 -8 -5 -15 -12 -15 -6 0 -9 -3 -6 -6 8 -8 48 14 48 26
0 6 -7 10 -15 10 -8 0 -15 -7 -15 -15z"/>
<path d="M5156 3181 c-13 -5 -16 -10 -9 -14 7 -4 14 -3 18 3 3 5 13 10 21 10
8 0 12 -4 9 -10 -3 -6 1 -7 10 -3 13 5 14 7 3 14 -15 10 -26 10 -52 0z"/>
<path d="M4966 3117 c3 -10 9 -15 12 -12 3 3 0 11 -7 18 -10 9 -11 8 -5 -6z"/>
<path d="M5781 3064 c0 -11 3 -14 6 -6 3 7 2 16 -1 19 -3 4 -6 -2 -5 -13z"/>
<path d="M4975 3061 c-3 -5 -2 -12 3 -15 5 -3 9 1 9 9 0 17 -3 19 -12 6z"/>
<path d="M5663 3055 c0 -8 4 -12 9 -9 5 3 6 10 3 15 -9 13 -12 11 -12 -6z"/>
<path d="M5028 3023 c6 -2 18 -2 25 0 6 3 1 5 -13 5 -14 0 -19 -2 -12 -5z"/>
<path d="M4980 3016 c0 -2 9 -6 20 -9 11 -3 18 -1 14 4 -5 9 -34 13 -34 5z"/>
<path d="M5078 2998 c5 -19 18 -21 67 -8 l30 8 -27 1 c-15 0 -29 5 -33 10 -10
18 -42 8 -37 -11z"/>
<path d="M5438 3003 c12 -2 30 -2 40 0 9 3 -1 5 -23 4 -22 0 -30 -2 -17 -4z"/>
<path d="M5328 2993 c6 -2 18 -2 25 0 6 3 1 5 -13 5 -14 0 -19 -2 -12 -5z"/>
<path d="M4998 2978 c6 -6 18 -8 28 -6 14 3 12 5 -9 10 -19 3 -25 2 -19 -4z"/>
<path d="M5122 2968 c2 -6 10 -14 16 -16 7 -2 10 2 6 12 -7 18 -28 22 -22 4z"/>
<path d="M5170 2970 c-8 -5 -10 -10 -5 -10 6 0 17 5 25 10 8 5 11 10 5 10 -5
0 -17 -5 -25 -10z"/>
<path d="M5343 2973 c9 -2 25 -2 35 0 9 3 1 5 -18 5 -19 0 -27 -2 -17 -5z"/>
<path d="M4675 3150 c3 -5 8 -10 11 -10 2 0 4 5 4 10 0 6 -5 10 -11 10 -5 0
-7 -4 -4 -10z"/>
<path d="M5829 2873 c-1 -5 -1 -12 0 -17 1 -5 -6 -6 -15 -2 -12 5 -15 2 -10
-10 5 -12 2 -15 -9 -10 -11 4 -14 2 -9 -6 5 -7 2 -9 -8 -6 -8 4 -21 2 -29 -3
-8 -5 -9 -9 -4 -10 94 -11 117 -1 108 44 -5 24 -21 38 -24 20z m-4 -53 c-3 -5
-12 -10 -18 -10 -7 0 -6 4 3 10 19 12 23 12 15 0z"/>
<path d="M5881 2794 c0 -11 3 -14 6 -6 3 7 2 16 -1 19 -3 4 -6 -2 -5 -13z"/>
<path d="M5723 2783 c9 -2 23 -2 30 0 6 3 -1 5 -18 5 -16 0 -22 -2 -12 -5z"/>
<path d="M5845 2770 c-4 -7 -19 -9 -36 -5 -16 4 -29 3 -29 -2 0 -5 -21 -13
-47 -19 -39 -9 -52 -9 -70 3 -22 15 -58 13 -106 -6 -16 -6 -33 -9 -38 -5 -5 3
-9 1 -9 -4 0 -5 -30 -9 -66 -9 -36 0 -70 -5 -75 -10 -5 -5 -29 -7 -52 -3 -23
3 -63 5 -89 4 -26 -1 -45 2 -42 7 3 5 -3 9 -13 10 -10 1 -34 2 -53 4 -31 3
-33 2 -15 -11 10 -8 33 -15 49 -16 39 -1 47 -3 71 -14 34 -15 292 -9 395 10
97 18 229 51 238 61 3 3 3 8 0 11 -3 3 -9 0 -13 -6z m-190 -30 c19 -8 19 -9
-2 -9 -12 -1 -25 4 -28 9 -7 12 2 12 30 0z"/>
<path d="M5728 2763 c6 -2 18 -2 25 0 6 3 1 5 -13 5 -14 0 -19 -2 -12 -5z"/>
<path d="M5082 2700 c0 -14 2 -19 5 -12 2 6 2 18 0 25 -3 6 -5 1 -5 -13z"/>
<path d="M5110 2675 c0 -8 5 -15 10 -15 6 0 10 7 10 15 0 8 -4 15 -10 15 -5 0
-10 -7 -10 -15z"/>
<path d="M5142 2560 c0 -19 2 -27 5 -17 2 9 2 25 0 35 -3 9 -5 1 -5 -18z"/>
<path d="M5323 2223 c9 -2 23 -2 30 0 6 3 -1 5 -18 5 -16 0 -22 -2 -12 -5z"/>
<path d="M4895 2627 c-6 -15 -1 -75 7 -83 12 -12 19 38 8 51 -7 8 -10 22 -6
30 3 8 3 15 0 15 -2 0 -7 -6 -9 -13z"/>
<path d="M4340 2745 c-7 -9 -10 -18 -7 -21 3 -3 10 4 17 15 13 25 8 27 -10 6z"/>
<path d="M4448 2613 c6 -2 18 -2 25 0 6 3 1 5 -13 5 -14 0 -19 -2 -12 -5z"/>
<path d="M4317 2494 c-9 -10 4 -34 19 -34 8 0 14 4 14 9 0 5 10 12 23 14 12 2
5 3 -16 2 -20 -2 -34 1 -31 6 6 10 0 12 -9 3z"/>
<path d="M4450 2496 c0 -2 9 -6 20 -9 11 -3 18 -1 14 4 -5 9 -34 13 -34 5z"/>
<path d="M4566 2455 c-9 -26 -7 -32 5 -12 6 10 9 21 6 23 -2 3 -7 -2 -11 -11z"/>
<path d="M4400 2410 c0 -5 7 -10 15 -10 8 0 15 5 15 10 0 6 -7 10 -15 10 -8 0
-15 -4 -15 -10z"/>
<path d="M4917 1884 c-12 -12 -8 -23 12 -33 15 -9 18 -7 17 11 -1 22 -17 34
-29 22z"/>
<path d="M5888 1993 c7 -3 16 -2 19 1 4 3 -2 6 -13 5 -11 0 -14 -3 -6 -6z"/>
<path d="M5780 1971 c0 -6 17 -7 38 -4 51 8 53 13 4 13 -23 0 -42 -4 -42 -9z"/>
<path d="M5683 1963 c9 -2 23 -2 30 0 6 3 -1 5 -18 5 -16 0 -22 -2 -12 -5z"/>
<path d="M5585 1950 c3 -5 18 -10 32 -10 32 0 28 5 -10 14 -19 4 -26 3 -22 -4z"/>
<path d="M27 103 c-25 -4 -27 -8 -27 -54 0 -48 1 -49 30 -49 30 0 30 1 30 55
0 30 -1 54 -2 54 -2 -1 -15 -4 -31 -6z"/>
</g>
</svg>
