<?xml version="1.0" standalone="no"?>
<!DOCTYPE svg PUBLIC "-//W3C//DTD SVG 20010904//EN"
 "http://www.w3.org/TR/2001/REC-SVG-20010904/DTD/svg10.dtd">
<svg version="1.0" xmlns="http://www.w3.org/2000/svg"
 width="1024.000000pt" height="1024.000000pt" viewBox="0 0 1024.000000 1024.000000"
 preserveAspectRatio="xMidYMid meet">
<metadata>
Created by potrace 1.16, written by Peter Selinger 2001-2019
</metadata>
<g transform="translate(0.000000,1024.000000) scale(0.100000,-0.100000)"
fill="#000000" stroke="none">
<path d="M3094 9844 c-38 -92 -137 -509 -177 -751 -12 -71 -23 -80 -32 -25 -4
20 -32 118 -62 217 -31 99 -64 212 -74 250 l-18 70 -1 -55 c-2 -30 -2 -58 -2
-61 1 -3 -6 -48 -15 -100 -9 -52 -17 -104 -17 -116 -1 -11 -5 -19 -9 -16 -5 3
-7 -3 -5 -13 2 -11 9 -18 15 -17 6 1 10 -5 9 -14 0 -9 5 -18 13 -21 8 -2 11 0
8 6 -4 5 -1 15 7 21 11 9 15 -4 21 -76 4 -49 13 -124 21 -168 8 -44 17 -132
19 -195 l5 -115 -167 -18 c-217 -24 -336 -48 -497 -101 -197 -65 -328 -132
-531 -273 -153 -106 -333 -318 -440 -519 -31 -59 -50 -72 -166 -114 -96 -36
-175 -79 -211 -115 -40 -39 -62 -133 -62 -255 1 -116 19 -195 57 -252 20 -29
25 -51 29 -126 4 -79 9 -99 41 -164 49 -98 87 -142 151 -172 39 -19 57 -33 64
-55 13 -36 73 -104 117 -131 55 -34 139 -58 243 -70 88 -11 112 -9 228 10 148
25 204 23 241 -11 111 -102 79 -320 -94 -649 -84 -158 -222 -375 -248 -389
l-20 -12 20 7 c11 3 85 10 165 15 279 18 635 64 800 103 130 31 451 130 568
175 234 89 287 106 317 103 20 -2 48 8 83 30 110 69 246 155 338 214 59 39
102 60 113 57 10 -3 22 1 27 8 5 9 2 11 -9 6 -32 -12 -16 8 31 40 26 18 56 40
68 48 19 14 21 14 18 -7 -1 -13 -3 -25 -4 -28 -1 -3 -2 -7 -2 -10 0 -3 -11 -6
-26 -7 -48 -1 -53 -3 -46 -15 4 -6 3 -8 -4 -4 -6 3 -13 2 -16 -3 -3 -5 1 -11
9 -15 8 -3 15 -11 15 -18 0 -10 -2 -10 -9 1 -5 7 -14 10 -20 7 -6 -4 -9 -11
-7 -15 3 -3 -11 -6 -30 -6 -25 1 -33 -2 -30 -12 3 -8 -2 -13 -12 -13 -9 0 -26
-8 -37 -17 l-20 -16 20 8 c40 15 65 17 65 6 0 -7 -4 -10 -10 -6 -8 5 -28 -2
-70 -27 -8 -5 -23 -11 -32 -14 -21 -7 -22 -13 -4 -37 13 -17 15 -16 20 10 6
25 11 29 41 29 19 0 35 -5 35 -11 0 -6 15 -19 34 -29 19 -10 36 -27 39 -37 4
-13 11 -17 24 -13 10 4 0 -7 -22 -24 -22 -18 -52 -32 -67 -32 -19 0 -28 -5
-28 -16 0 -33 70 8 217 126 45 36 86 72 91 81 8 13 3 32 -23 80 -19 35 -44
100 -56 144 -11 44 -25 87 -30 96 -13 26 -59 300 -74 449 -17 159 -13 457 10
810 19 298 19 392 -1 560 -44 385 -147 733 -320 1086 -99 201 -352 572 -483
707 -67 69 -95 74 -117 21z m-1002 -1996 l76 -12 -31 -44 c-34 -47 -152 -156
-215 -197 -39 -25 -194 -87 -249 -99 l-33 -8 0 136 0 136 38 18 c34 18 171 65
217 75 39 9 121 7 197 -5z m-477 -346 c-1 -1 -36 3 -79 9 l-76 11 29 51 c16
28 49 78 73 111 l43 59 6 -119 c3 -65 5 -120 4 -122z m2505 -1557 c14 -19 14
-19 -2 -6 -10 7 -18 18 -18 24 0 6 1 8 3 6 1 -2 9 -13 17 -24z m-2 -88 c2 -8
-7 -21 -20 -28 -19 -9 -21 -9 -10 2 14 16 16 33 2 24 -11 -7 -14 8 -3 19 10
10 28 1 31 -17z m-201 7 c-3 -3 -12 -4 -19 -1 -8 3 -5 6 6 6 11 1 17 -2 13 -5z
m-40 -10 c-3 -3 -12 -4 -19 -1 -8 3 -5 6 6 6 11 1 17 -2 13 -5z m148 -34 c0
-7 -5 -15 -12 -17 -7 -3 -11 4 -10 16 1 23 22 23 22 1z m22 -25 c-30 -27 -47
-32 -47 -14 0 5 5 7 10 4 6 -3 10 -2 10 3 0 5 10 14 23 20 34 16 35 14 4 -13z"/>
<path d="M2661 9274 c0 -11 3 -14 6 -6 3 7 2 16 -1 19 -3 4 -6 -2 -5 -13z"/>
<path d="M2675 9210 c3 -5 8 -10 11 -10 2 0 4 5 4 10 0 6 -5 10 -11 10 -5 0
-7 -4 -4 -10z"/>
<path d="M2636 9159 c-4 -23 -5 -44 -2 -46 2 -2 7 14 11 37 4 23 5 43 2 46 -2
3 -7 -14 -11 -37z"/>
<path d="M2661 9184 c0 -11 3 -14 6 -6 3 7 2 16 -1 19 -3 4 -6 -2 -5 -13z"/>
<path d="M2692 9150 c0 -14 2 -19 5 -12 2 6 2 18 0 25 -3 6 -5 1 -5 -13z"/>
<path d="M2730 9135 c0 -5 5 -17 10 -25 5 -8 10 -10 10 -5 0 6 -5 17 -10 25
-5 8 -10 11 -10 5z"/>
<path d="M2611 9059 c-7 -22 -11 -43 -8 -45 2 -2 9 14 16 37 7 22 11 43 8 45
-2 2 -9 -14 -16 -37z"/>
<path d="M2541 8854 c0 -11 3 -14 6 -6 3 7 2 16 -1 19 -3 4 -6 -2 -5 -13z"/>
<path d="M7690 6087 c-178 -67 -250 -231 -171 -391 36 -74 75 -109 213 -190
142 -83 241 -160 348 -272 168 -174 295 -383 398 -654 83 -218 134 -444 162
-723 20 -188 8 -715 -19 -892 -67 -433 -186 -771 -364 -1038 -80 -119 -264
-304 -382 -384 -292 -197 -701 -311 -1176 -329 l-176 -7 -7 84 c-30 349 -131
836 -248 1184 -185 556 -410 1039 -676 1458 -183 287 -487 617 -727 788 -66
47 -136 95 -155 106 -155 90 -230 136 -230 142 0 3 7 16 15 28 12 18 13 26 4
41 -9 15 -2 34 43 113 66 114 168 351 168 389 0 4 -31 10 -68 13 -43 4 -93 18
-133 36 l-64 29 -31 -79 c-35 -86 -102 -212 -147 -274 -78 -111 -108 -164 -73
-136 11 10 27 6 73 -17 99 -50 98 -50 124 13 12 30 24 53 26 51 2 -2 -3 -21
-12 -42 -9 -22 -15 -52 -13 -69 3 -30 3 -30 -42 -27 -91 6 -336 5 -360 -1 -64
-16 -94 -25 -83 -26 7 -1 10 -7 7 -15 -4 -10 5 -16 26 -21 57 -13 23 -17 -48
-6 -54 8 -80 8 -123 -3 -30 -8 -83 -20 -119 -26 -85 -15 -285 -90 -380 -143
-232 -127 -370 -220 -478 -321 -91 -85 -280 -227 -355 -266 -34 -18 -94 -59
-133 -91 l-70 -57 -19 34 c-18 33 -214 217 -350 329 -38 31 -106 78 -150 104
-89 53 -371 168 -383 156 -14 -14 -4 -202 18 -305 45 -218 149 -486 251 -648
159 -251 360 -453 554 -558 83 -44 104 -61 160 -134 193 -250 288 -609 289
-1095 0 -165 -4 -246 -17 -323 -28 -167 -52 -224 -119 -289 -60 -59 -118 -82
-224 -88 -143 -10 -168 -19 -251 -98 -98 -93 -121 -143 -135 -284 -13 -137 -5
-238 20 -273 l19 -25 589 -1 c324 -1 1667 -5 2984 -8 l2395 -7 65 21 c125 40
362 238 541 453 320 381 553 890 653 1424 60 319 76 517 76 938 0 407 -22 652
-85 970 -56 283 -116 469 -226 706 -81 175 -127 253 -235 404 -194 271 -400
460 -628 576 -104 52 -108 53 -204 56 -63 2 -109 -1 -132 -10z m-3136 -579
c-10 -18 -35 -76 -55 -128 -21 -52 -38 -90 -38 -85 -1 16 66 192 86 225 23 40
29 30 7 -12z m-216 -565 c-10 -2 -28 -2 -40 0 -13 2 -5 4 17 4 22 1 32 -1 23
-4z m-772 -3350 c50 -73 212 -262 268 -311 l31 -27 -250 0 c-268 0 -299 -4
-355 -52 l-30 -25 11 28 c6 16 16 36 23 44 7 8 50 80 96 160 45 80 97 166 116
191 19 26 34 52 34 60 0 16 -1 17 56 -68z"/>
<path d="M4040 6025 c-14 -8 -20 -14 -14 -15 5 0 19 7 30 15 24 18 16 19 -16
0z"/>
<path d="M4190 5865 c-39 -42 -274 -215 -409 -300 -97 -62 -119 -80 -105 -86
11 -4 48 -32 84 -63 36 -31 96 -72 133 -92 l68 -36 80 82 c79 81 141 165 213
290 21 36 43 68 49 72 6 3 -5 29 -29 66 -21 32 -44 67 -49 76 -9 16 -12 15
-35 -9z"/>
<path d="M3827 5792 c-6 -30 6 -51 18 -31 5 8 4 10 -3 5 -7 -4 -12 -2 -12 3 0
9 19 15 41 13 3 -1 6 6 6 14 0 10 -4 11 -11 4 -13 -13 -29 -13 -21 -1 3 5 1
12 -4 15 -5 3 -11 -7 -14 -22z"/>
<path d="M3933 5743 c11 -12 19 -13 33 -4 19 11 18 12 -24 16 -21 2 -22 1 -9
-12z"/>
<path d="M4336 5712 c-4 -7 -4 -17 0 -24 4 -6 3 -8 -4 -4 -7 4 -38 -35 -79
-96 -87 -130 -138 -199 -201 -267 -28 -30 -48 -60 -46 -66 3 -7 39 -31 80 -55
73 -42 75 -42 95 -24 65 59 226 346 236 421 5 38 2 45 -34 84 -26 28 -42 38
-47 31z"/>
<path d="M3809 5622 c-13 -10 -43 -29 -66 -42 -24 -13 -41 -25 -39 -28 8 -7
124 59 130 74 7 18 3 18 -25 -4z"/>
<path d="M3650 5540 c-21 -7 -21 -8 -5 -9 11 0 27 4 35 9 18 11 5 11 -30 0z"/>
<path d="M3005 5255 c-106 -29 -283 -76 -343 -91 -34 -9 -61 -18 -59 -21 9 -9
47 -11 42 -2 -4 5 1 9 9 9 8 0 18 -5 21 -10 4 -6 11 -7 18 -3 7 4 4 9 -9 15
-15 7 -14 8 8 5 15 -2 29 -1 30 3 2 4 18 11 37 15 23 5 31 4 27 -4 -10 -16 3
-13 20 4 9 8 22 15 30 15 21 0 7 -20 -14 -20 -16 -1 -16 -2 1 -14 9 -7 38 -14
64 -14 25 -1 51 -6 57 -12 13 -13 56 -13 56 0 0 6 -12 10 -27 10 -20 0 -34 10
-50 32 -22 32 -22 48 0 48 7 0 6 -4 -3 -10 -13 -9 -13 -10 0 -10 8 0 22 5 30
10 13 9 13 10 0 11 -8 0 5 7 29 14 38 12 47 12 65 -1 11 -8 15 -14 9 -14 -6 0
-23 -4 -37 -10 -31 -12 -25 -36 11 -43 22 -4 24 -2 20 19 -3 17 0 24 11 24 9
0 23 7 32 15 14 13 21 13 41 2 13 -7 25 -19 27 -26 1 -7 -2 -10 -7 -7 -5 4
-19 -3 -30 -15 -11 -12 -24 -18 -30 -15 -17 11 -51 -17 -51 -42 0 -12 8 -26
18 -29 9 -4 20 -11 24 -16 11 -18 111 -26 126 -11 11 12 9 16 -13 24 -14 5
-34 10 -43 10 -9 0 -23 4 -30 9 -10 6 -3 10 22 15 35 7 43 19 37 64 -2 15 15
16 24 2 4 -6 1 -18 -7 -27 -12 -15 -11 -15 10 -2 12 8 22 16 22 20 0 3 -17 15
-37 26 -132 73 -113 68 -188 48z"/>
<path d="M2993 5229 c-25 -9 -30 -19 -10 -19 15 0 43 17 37 23 -3 3 -15 1 -27
-4z"/>
<path d="M3100 5210 c-13 -8 -12 -10 3 -10 9 0 17 5 17 10 0 12 -1 12 -20 0z"/>
<path d="M1526 5171 c-11 -22 -22 -41 -26 -41 -4 0 -35 -37 -68 -82 -33 -46
-72 -94 -86 -107 -19 -18 -23 -28 -15 -37 6 -7 16 -11 23 -8 6 2 31 -2 55 -11
62 -22 69 -20 76 23 4 20 15 62 26 93 22 63 24 90 8 106 -7 7 -4 21 11 46 12
20 20 42 18 48 -2 6 -12 -7 -22 -30z"/>
<path d="M3219 5151 c-28 -22 -23 -25 56 -37 28 -4 42 -9 33 -11 -10 -3 -18
-9 -18 -14 0 -12 6 -11 31 4 17 10 23 10 26 0 3 -7 12 -13 21 -12 11 0 12 2 4
6 -6 2 -9 10 -6 15 4 6 3 8 -3 5 -5 -3 -20 0 -34 7 -13 7 -31 10 -38 8 -8 -3
-11 0 -7 6 3 6 1 14 -5 18 -8 4 -9 3 -5 -4 5 -8 -5 -12 -31 -11 -32 0 -34 2
-17 9 24 9 41 30 26 30 -6 0 -20 -9 -33 -19z"/>
<path d="M2742 5140 c-47 -11 -50 -19 -5 -15 21 1 46 -2 57 -7 13 -7 21 -6 27
3 14 24 -22 33 -79 19z"/>
<path d="M2540 5130 c0 -5 6 -10 14 -10 8 0 18 5 21 10 3 6 -3 10 -14 10 -12
0 -21 -4 -21 -10z"/>
<path d="M2415 5110 l-40 -7 37 -2 c20 0 40 4 43 9 3 6 5 9 3 9 -2 -1 -21 -5
-43 -9z"/>
<path d="M2313 5093 c9 -2 23 -2 30 0 6 3 -1 5 -18 5 -16 0 -22 -2 -12 -5z"/>
<path d="M2260 5080 c0 -5 7 -7 15 -4 8 4 15 8 15 10 0 2 -7 4 -15 4 -8 0 -15
-4 -15 -10z"/>
<path d="M3287 5073 c-27 -3 -37 -8 -33 -18 6 -16 -15 -25 -43 -18 -13 3 -21
1 -21 -6 0 -7 5 -9 12 -5 7 4 8 3 4 -5 -5 -7 -16 -9 -28 -5 -15 4 -18 3 -13
-6 5 -9 2 -10 -14 -5 -13 4 -21 2 -21 -5 0 -6 -5 -8 -12 -4 -7 5 -5 11 8 21
18 13 17 14 -9 7 -23 -5 -29 -3 -34 14 -8 32 -43 24 -43 -10 0 -21 5 -28 20
-28 15 0 20 -7 20 -25 0 -15 -5 -25 -12 -24 -31 4 -58 -2 -58 -12 0 -6 7 -8
18 -4 13 5 14 3 6 -5 -9 -9 -17 -9 -33 0 -28 14 -39 7 -36 -25 3 -22 0 -25
-31 -25 -24 0 -42 -8 -58 -25 -13 -14 -28 -25 -33 -25 -13 0 -38 -29 -31 -35
8 -9 128 57 121 68 -3 5 0 7 8 5 8 -3 25 3 39 12 27 19 82 50 250 138 110 58
119 63 104 60 -5 -1 -26 -3 -47 -5z m-292 -153 c3 -6 -1 -7 -9 -4 -18 7 -21
14 -7 14 6 0 13 -4 16 -10z m-86 -71 c-19 -12 -29 -11 -29 2 0 5 5 7 10 4 6
-3 10 -1 10 5 0 6 5 8 11 4 8 -4 7 -9 -2 -15z"/>
<path d="M2890 4956 c0 -2 7 -6 15 -10 8 -3 15 -1 15 4 0 6 -7 10 -15 10 -8 0
-15 -2 -15 -4z"/>
<path d="M3400 4890 c-8 -5 -10 -10 -5 -10 6 0 17 5 25 10 8 5 11 10 5 10 -5
0 -17 -5 -25 -10z"/>
<path d="M3335 4864 c-16 -8 -37 -22 -45 -31 -13 -14 -12 -14 10 0 14 10 35
22 48 27 12 5 22 12 22 15 0 7 -1 7 -35 -11z"/>
<path d="M1252 4842 c5 -17 2 -22 -12 -22 -23 0 -74 -64 -67 -84 8 -21 48 -13
68 14 21 29 31 97 16 107 -6 4 -8 -2 -5 -15z"/>
<path d="M3200 4794 c-14 -8 -18 -14 -10 -13 8 0 26 6 40 14 14 8 18 14 10 14
-8 -1 -26 -7 -40 -15z"/>
<path d="M2767 4777 c3 -5 -1 -13 -8 -18 -8 -5 -9 -9 -3 -9 6 0 18 8 27 18 15
16 15 18 -3 18 -10 0 -16 -4 -13 -9z"/>
<path d="M1450 4692 c0 -9 60 -46 64 -40 2 1 -12 13 -30 25 -19 12 -34 19 -34
15z"/>
<path d="M2566 4635 c-11 -8 -15 -15 -9 -15 6 0 16 7 23 15 16 19 11 19 -14 0z"/>
<path d="M2515 4610 c-3 -6 1 -7 9 -4 18 7 21 14 7 14 -6 0 -13 -4 -16 -10z"/>
<path d="M2464 4584 c-18 -14 -18 -14 6 -3 31 14 36 19 24 19 -6 0 -19 -7 -30
-16z"/>
<path d="M27 103 c-25 -4 -27 -8 -27 -54 0 -48 1 -49 30 -49 30 0 30 1 30 55
0 30 -1 54 -2 54 -2 -1 -15 -4 -31 -6z"/>
</g>
</svg>
