<?xml version="1.0" standalone="no"?>
<!DOCTYPE svg PUBLIC "-//W3C//DTD SVG 20010904//EN"
 "http://www.w3.org/TR/2001/REC-SVG-20010904/DTD/svg10.dtd">
<svg version="1.0" xmlns="http://www.w3.org/2000/svg"
 width="1024.000000pt" height="1024.000000pt" viewBox="0 0 1024.000000 1024.000000"
 preserveAspectRatio="xMidYMid meet">
<metadata>
Created by potrace 1.16, written by Peter Selinger 2001-2019
</metadata>
<g transform="translate(0.000000,1024.000000) scale(0.100000,-0.100000)"
fill="#000000" stroke="none">
<path d="M3604 8573 c-45 -9 -39 6 -198 -463 -40 -118 -82 -233 -93 -255 -20
-38 -38 -93 -123 -380 -22 -71 -62 -197 -90 -280 -28 -82 -71 -217 -96 -300
-24 -82 -64 -206 -88 -275 -70 -200 -276 -848 -353 -1110 -13 -47 -71 -229
-128 -405 -57 -176 -126 -394 -154 -485 -28 -91 -71 -228 -96 -305 -25 -76
-45 -153 -45 -170 0 -58 40 -99 160 -162 92 -48 700 -340 790 -379 127 -54
178 -102 201 -188 8 -28 10 -200 8 -559 -4 -504 -3 -519 15 -533 29 -20 54
-17 81 11 l25 24 2 343 c2 189 2 370 1 403 -2 45 0 56 8 42 10 -18 36 -164 36
-207 1 -33 13 -131 19 -149 3 -8 5 -378 4 -823 0 -444 2 -819 6 -832 4 -19 14
-26 37 -29 18 -2 -8 -4 -56 -3 -82 1 -90 -1 -108 -23 -25 -31 -24 -54 4 -86
l22 -26 1685 1 c1623 0 1686 1 1710 18 31 23 38 67 14 93 -14 15 -33 19 -93
21 -68 2 -70 2 -20 5 l56 4 12 57 c17 81 27 267 14 259 -5 -3 -35 17 -66 46
-57 53 -95 82 -299 227 l-118 83 -2 86 c-6 252 0 273 116 386 103 100 126 128
204 242 83 122 122 186 122 203 0 8 5 22 10 30 8 11 9 7 4 -15 -3 -16 -8 -37
-11 -45 -3 -8 -7 -44 -8 -80 -1 -45 1 -56 6 -35 7 27 25 126 33 180 2 11 9 47
17 80 10 43 14 121 12 272 -1 221 -8 262 -53 353 l-18 35 60 0 60 1 -8 -31
c-11 -37 -13 -449 -5 -642 6 -119 10 -145 25 -162 21 -23 84 -29 91 -8 3 6 6
197 7 422 3 389 4 412 23 443 21 35 72 67 169 109 32 13 145 65 250 115 431
203 628 311 662 363 20 31 9 92 -55 308 -26 89 -65 223 -86 297 -21 74 -47
160 -57 190 -27 79 -171 551 -238 785 -196 675 -295 1018 -310 1075 -75 276
-118 419 -175 575 -37 99 -93 259 -125 355 -32 96 -74 213 -93 260 -48 115
-139 326 -188 432 -29 64 -39 98 -37 128 1 31 -3 46 -20 63 l-23 22 -1512 1
c-831 1 -1522 0 -1533 -3z m1500 -133 l1453 0 -25 -53 c-14 -30 -31 -54 -38
-54 -18 0 -18 14 0 24 12 8 36 45 36 57 0 3 -24 6 -52 6 -54 -1 -95 -20 -83
-39 3 -6 0 -9 -8 -5 -9 3 -20 -8 -32 -33 -10 -21 -21 -40 -25 -43 -14 -10 -80
-212 -104 -318 -28 -120 -74 -351 -87 -427 -4 -27 -19 -99 -33 -160 -13 -60
-28 -136 -31 -167 -4 -32 -10 -58 -14 -58 -3 0 -46 7 -96 15 -79 12 -172 21
-442 41 -40 3 -73 10 -73 16 0 5 16 80 36 166 47 207 64 327 64 442 -1 100 -8
122 -47 134 -45 14 -83 -34 -83 -106 0 -26 -2 -27 -20 -16 -14 9 -20 24 -20
49 0 63 -17 95 -63 115 -36 16 -67 19 -232 19 -251 0 -259 -4 -291 -142 -24
-106 -47 -123 -58 -41 -4 28 -14 64 -22 79 -16 32 -58 48 -83 32 -21 -14 -21
-122 2 -268 10 -60 29 -183 42 -273 14 -90 27 -173 30 -185 6 -21 3 -22 -92
-25 -54 -2 -145 -10 -203 -18 -183 -27 -395 -53 -398 -49 -6 5 -63 166 -113
320 -66 200 -126 413 -193 681 -30 122 -61 236 -70 252 -20 39 -20 46 0 38 9
-3 669 -6 1468 -6z m1361 -50 c-3 -5 -13 -6 -21 -3 -12 4 -13 8 -3 14 15 9 32
2 24 -11z m-45 -40 c0 -5 -5 -10 -11 -10 -5 0 -7 5 -4 10 3 6 8 10 11 10 2 0
4 -4 4 -10z m-25 -28 c-8 -8 -25 10 -19 20 4 6 9 5 15 -3 4 -7 6 -15 4 -17z
m65 -12 c0 -5 -5 -10 -11 -10 -5 0 -7 5 -4 10 3 6 8 10 11 10 2 0 4 -4 4 -10z
m-11 -170 c-27 -96 -60 -213 -73 -260 -13 -47 -47 -170 -76 -275 -76 -281
-114 -408 -118 -396 -2 6 4 33 13 61 9 27 13 55 9 61 -4 8 -3 9 4 5 7 -4 12
-1 13 6 2 33 31 144 88 342 18 59 29 116 26 124 -3 9 -3 13 1 9 9 -8 104 306
128 418 5 24 28 86 31 83 2 -2 -19 -82 -46 -178z m-1102 -322 c-3 -8 -6 -5 -6
6 -1 11 2 17 5 13 3 -3 4 -12 1 -19z m-11 -76 c-11 -10 -15 4 -8 28 l7 25 3
-23 c2 -13 1 -26 -2 -30z m-1856 -204 c43 -157 117 -306 186 -375 60 -60 160
-113 214 -113 33 -1 37 -4 63 -62 l27 -60 -49 -67 c-65 -89 -93 -140 -131
-241 -17 -47 -41 -105 -52 -130 -19 -42 -21 -43 -34 -25 -8 10 -14 31 -14 47
0 18 -5 28 -14 28 -8 0 -20 17 -26 38 -24 72 -123 258 -175 328 -74 99 -224
254 -245 254 -16 0 -15 5 5 68 33 97 88 279 126 415 l33 119 28 -55 c15 -30
41 -106 58 -169z m3395 137 c16 -61 13 -87 -5 -41 -5 15 -10 31 -10 35 0 4 -7
8 -15 8 -17 0 -30 -31 -19 -48 5 -8 3 -9 -6 -4 -10 6 -12 4 -7 -8 3 -10 2 -17
-3 -17 -6 0 -10 5 -10 11 0 15 52 130 57 126 2 -2 10 -30 18 -62z m-1548 33
c-3 -8 -6 -5 -6 6 -1 11 2 17 5 13 3 -3 4 -12 1 -19z m-15 -55 c-3 -16 -7 -22
-10 -15 -4 13 4 42 11 42 2 0 2 -12 -1 -27z m-15 -55 c-3 -8 -6 -5 -6 6 -1 11
2 17 5 13 3 -3 4 -12 1 -19z m1622 -103 c-2 -17 -27 69 -27 90 0 11 6 -2 14
-30 7 -27 13 -54 13 -60z m-1632 53 c-3 -8 -6 -5 -6 6 -1 11 2 17 5 13 3 -3 4
-12 1 -19z m1491 -55 c-11 -43 -25 -82 -31 -88 -7 -7 -8 -4 -4 8 4 10 14 43
23 75 21 77 23 82 28 82 2 0 -5 -35 -16 -77z m-1981 25 c-3 -8 -6 -5 -6 6 -1
11 2 17 5 13 3 -3 4 -12 1 -19z m474 -49 c-5 -26 -9 -34 -10 -19 -1 27 9 73
15 67 2 -2 0 -23 -5 -48z m1656 -9 c-3 -11 -1 -20 4 -20 5 0 9 -8 9 -17 0 -15
-2 -14 -15 4 -8 12 -12 28 -9 37 9 23 17 20 11 -4z m-1672 -70 c-4 -12 -9 -19
-12 -17 -3 3 -2 15 2 27 4 12 9 19 12 17 3 -3 2 -15 -2 -27z m1724 -125 c-1
-15 -39 108 -38 125 0 8 9 -14 20 -50 10 -36 19 -69 18 -75z m-234 105 c3 -5
1 -10 -4 -10 -6 0 -11 5 -11 10 0 6 2 10 4 10 3 0 8 -4 11 -10z m-1507 -41
c-6 -16 -12 -28 -14 -26 -5 5 13 57 20 57 3 0 0 -14 -6 -31z m1489 -13 c-1
-19 -6 -34 -12 -33 -8 2 -10 -2 -14 -34 0 -5 -6 -7 -13 -3 -8 5 -9 2 -5 -10 4
-10 3 -15 -3 -11 -6 3 -10 1 -10 -5 0 -7 -14 -25 -31 -41 -17 -16 -27 -29 -21
-29 5 0 13 -8 16 -17 6 -15 5 -15 -13 1 -18 17 -21 17 -27 3 -3 -9 -14 -19
-24 -22 -12 -4 -17 -13 -15 -26 3 -16 1 -18 -16 -9 -15 9 -19 7 -19 -5 0 -12
-6 -15 -19 -10 -10 3 -43 -3 -72 -15 -30 -11 -68 -20 -86 -20 -21 0 -31 -4
-29 -12 1 -7 1 -10 -1 -5 -3 4 -9 5 -14 2 -5 -4 -6 1 -3 9 3 9 16 16 28 16 35
0 137 29 185 53 74 36 144 108 182 186 19 38 35 70 36 70 1 1 1 -14 0 -33z
m-1516 -67 c-5 -13 -10 -19 -10 -12 -1 15 10 45 15 40 3 -2 0 -15 -5 -28z
m-328 -49 c3 -11 2 -20 -3 -20 -4 0 -10 11 -12 25 -6 29 7 25 15 -5z m314 4
c-3 -3 -12 -4 -19 -1 -8 3 -5 6 6 6 11 1 17 -2 13 -5z m1768 -49 c-97 -55
-220 -187 -285 -305 -41 -74 -115 -254 -125 -302 -5 -26 -8 -28 -60 -28 l-54
0 2 40 c1 41 9 46 13 7 1 -12 3 -25 3 -28 1 -4 19 -7 41 -7 35 -1 40 2 40 22
0 13 7 37 15 52 8 16 12 38 9 49 -4 13 -2 16 4 7 10 -15 65 115 55 131 -3 6
-2 7 4 4 10 -7 67 102 58 111 -3 3 -8 -4 -12 -16 -3 -12 -9 -19 -14 -16 -5 3
-6 -2 -3 -10 3 -9 1 -16 -5 -16 -17 0 -13 22 10 46 17 19 19 26 9 46 -11 22
-10 22 4 4 10 -12 16 -15 16 -7 0 7 6 11 14 8 15 -6 39 15 31 26 -3 4 -2 5 1
2 9 -6 35 23 38 43 2 9 9 17 17 17 8 1 13 7 11 14 -1 7 1 10 6 7 5 -3 19 2 31
11 19 12 20 17 10 25 -11 8 -10 9 3 5 15 -5 34 17 30 35 -1 4 6 4 15 1 12 -5
14 -3 8 7 -5 9 -4 11 4 6 14 -9 43 12 36 24 -3 5 0 12 6 16 8 4 9 3 5 -4 -8
-13 4 -15 28 -6 9 3 16 14 16 23 0 13 2 14 10 1 7 -11 -3 -21 -45 -45z m-2248
3 c-3 -7 -5 -2 -5 12 0 14 2 19 5 13 2 -7 2 -19 0 -25z m1458 2 c-4 -12 -9
-19 -12 -17 -3 3 -2 15 2 27 4 12 9 19 12 17 3 -3 2 -15 -2 -27z m-1425 -72
c0 -5 -109 -7 -242 -6 l-243 3 232 2 232 3 -5 28 -4 27 15 -25 c8 -14 14 -28
15 -32z m-701 35 c-4 -24 2 -53 12 -53 5 0 7 6 3 13 -6 9 -5 9 7 0 8 -6 36
-11 62 -11 32 1 44 4 35 10 -8 6 1 7 26 3 27 -4 42 -2 48 7 8 10 9 10 5 -2 -2
-10 -26 -19 -68 -26 -35 -6 -76 -15 -90 -18 -23 -7 -28 -3 -43 28 -9 20 -14
41 -11 46 7 12 16 13 14 3z m1377 -12 c-4 -5 0 -12 6 -14 8 -3 6 -6 -4 -6 -18
-1 -24 10 -11 22 9 10 15 8 9 -2z m719 -37 l-15 -39 6 35 c7 38 14 54 20 47 2
-2 -3 -21 -11 -43z m-362 9 c-35 -2 -91 -2 -125 0 -35 2 -7 3 62 3 69 0 97 -1
63 -3z m140 -10 c-7 -2 -21 -2 -30 0 -10 3 -4 5 12 5 17 0 24 -2 18 -5z m90
-10 c-7 -2 -19 -2 -25 0 -7 3 -2 5 12 5 14 0 19 -2 13 -5z m542 -13 c3 -6 -1
-7 -9 -4 -18 7 -21 14 -7 14 6 0 13 -4 16 -10z m-265 -12 c0 -2 -6 -26 -14
-55 -12 -45 -12 -53 2 -67 15 -15 17 -14 28 6 l12 23 0 -25 c0 -37 5 -52 30
-91 12 -19 22 -27 22 -19 1 8 5 5 11 -8 5 -13 7 -27 4 -32 -2 -4 6 -19 18 -32
13 -14 21 -30 19 -37 -2 -7 3 -20 12 -30 13 -14 14 -23 6 -42 -10 -23 -10 -23
-6 -1 2 12 1 22 -4 22 -4 0 -11 12 -15 27 -11 47 -77 156 -125 208 -25 28 -46
55 -46 60 2 23 30 95 38 95 4 0 8 -1 8 -2z m19 -69 c-16 -10 -23 -4 -14 10 3
6 11 8 17 5 6 -4 5 -9 -3 -15z m-9 -29 c0 -5 -5 -10 -11 -10 -5 0 -7 5 -4 10
3 6 8 10 11 10 2 0 4 -4 4 -10z m-247 -32 c31 -15 57 -30 57 -33 0 -3 -14 2
-31 10 -36 19 -47 15 -24 -9 9 -9 12 -16 6 -16 -17 0 11 -39 32 -46 9 -3 15
-9 13 -13 -3 -4 9 -21 26 -37 36 -34 78 -117 78 -156 0 -44 -15 -39 -16 5 -3
116 -122 217 -255 217 -21 0 -41 5 -45 11 -5 9 -50 10 -163 6 -231 -10 -305
-36 -354 -126 -26 -48 -34 -108 -21 -157 5 -20 13 -21 197 -27 136 -4 221 -12
292 -27 213 -44 266 -43 315 2 11 10 20 14 20 9 0 -13 -82 -61 -103 -61 -10 0
-17 -7 -17 -16 0 -8 3 -13 8 -11 4 3 5 -26 4 -65 l-4 -70 42 -38 c25 -24 49
-37 61 -35 21 4 35 -10 19 -20 -15 -10 -12 -28 4 -22 16 6 43 -19 33 -30 -4
-3 2 -20 13 -37 12 -21 18 -47 17 -78 -3 -60 -17 -51 -17 10 0 54 -24 100 -73
141 -18 14 -42 36 -54 48 -35 34 -162 92 -228 104 -98 18 -220 8 -290 -25 -33
-15 -67 -34 -77 -42 -9 -9 -22 -13 -30 -8 -7 4 -10 4 -6 -1 4 -4 -13 -31 -38
-59 -61 -69 -107 -164 -98 -200 8 -32 57 -66 95 -66 14 0 52 19 85 42 32 22
87 55 122 71 60 28 69 29 160 25 111 -6 144 -19 235 -93 46 -38 55 -50 44 -59
-7 -6 -31 -99 -52 -206 -22 -117 -57 -255 -87 -345 -28 -85 -53 -185 -59 -230
-12 -100 -27 -171 -44 -210 -8 -17 -25 -69 -38 -115 l-24 -84 -189 -43 c-241
-55 -425 -71 -624 -53 -166 14 -371 64 -503 121 -105 46 -139 47 -159 4 -6
-13 -15 -22 -20 -19 -17 11 -77 112 -98 165 -31 77 -112 386 -165 623 -25 115
-64 265 -86 334 -56 178 -102 412 -93 476 11 87 63 247 110 343 57 116 141
200 231 231 57 20 75 21 933 19 l875 -2 58 -27z m107 -68 c8 -5 11 -10 5 -10
-5 0 -17 5 -25 10 -8 5 -10 10 -5 10 6 0 17 -5 25 -10z m115 -165 c38 -80 52
-121 37 -111 -5 3 -14 25 -20 48 -13 52 -85 173 -102 173 -7 0 -14 9 -16 20
-5 35 64 -54 101 -130z m-78 66 c0 -11 -5 -18 -9 -15 -4 3 -5 11 -1 19 7 21
12 19 10 -4z m384 -48 c-12 -20 -14 -14 -5 12 4 9 9 14 11 11 3 -2 0 -13 -6
-23z m-3027 -180 c-16 -54 -9 -95 19 -119 l27 -23 -44 -44 c-24 -24 -50 -61
-57 -81 -9 -25 -19 -36 -34 -37 -11 0 -143 -1 -293 -3 -243 -2 -272 0 -266 13
7 19 47 148 76 249 l21 72 280 0 279 0 -8 -27z m2792 -50 c4 -32 2 -43 -4 -34
-5 7 -7 22 -4 34 3 11 1 18 -4 15 -5 -4 -9 10 -10 29 -1 49 15 17 22 -44z
m814 53 c0 -12 4 -36 9 -52 5 -16 19 -72 30 -124 28 -126 30 -129 75 -107 20
9 36 22 36 27 0 6 -5 8 -12 4 -8 -5 -9 0 -5 17 4 13 2 38 -3 54 -5 17 -18 66
-28 110 l-18 80 -40 6 -39 6 47 2 c47 1 47 1 53 -36 3 -21 19 -93 35 -160 17
-67 30 -125 30 -128 0 -3 -102 -4 -227 -3 -126 1 -180 4 -120 5 59 2 107 7
107 11 0 20 -65 115 -122 179 -34 39 -73 83 -85 97 -20 24 -27 26 -112 26 -76
0 -91 -3 -91 -16 0 -8 -4 -12 -10 -9 -6 4 -10 -7 -10 -26 0 -43 -6 -34 -13 19
l-5 42 259 0 259 0 0 -24z m-483 -68 c-3 -8 -6 -5 -6 6 -1 11 2 17 5 13 3 -3
4 -12 1 -19z m-21 -32 c0 -13 -4 -22 -7 -20 -12 7 -28 -21 -20 -35 6 -8 17
-11 32 -6 18 5 20 4 9 -4 -13 -9 -12 -12 5 -24 10 -8 30 -14 44 -12 21 2 22 1
10 -9 -14 -10 -14 -13 4 -31 10 -11 25 -33 33 -50 8 -16 9 -21 2 -10 -20 31
-106 111 -136 126 -15 7 -28 14 -30 15 -3 2 50 82 54 84 1 0 1 -11 0 -24z
m-299 -63 c-3 -10 -5 -2 -5 17 0 19 2 27 5 18 2 -10 2 -26 0 -35z m-2 -223
c-14 -52 -14 -52 -9 -12 3 28 1 41 -6 37 -6 -3 -7 0 -4 9 3 9 10 16 15 16 5 0
10 33 11 73 l2 72 3 -70 c2 -40 -3 -94 -12 -125z m405 145 c14 -19 14 -19 -2
-6 -10 7 -18 18 -18 24 0 6 1 8 3 6 1 -2 9 -13 17 -24z m494 -19 c-3 -15 -8
-25 -11 -23 -2 3 -1 17 3 31 3 15 8 25 11 23 2 -3 1 -17 -3 -31z m-3525 -63
c6 -32 14 -67 17 -79 4 -15 -10 -39 -51 -89 -31 -38 -54 -74 -51 -82 3 -7 0
-12 -6 -10 -24 4 -19 -34 9 -71 76 -97 89 -144 52 -176 -21 -18 -22 -17 -76
36 -29 29 -66 77 -80 106 -23 47 -25 58 -15 86 7 18 12 48 12 67 0 50 59 166
113 222 25 26 50 47 55 47 5 0 15 -26 21 -57z m2816 30 c3 -9 1 -21 -5 -27 -8
-8 -9 -6 -5 7 4 9 3 17 -3 17 -11 0 -22 -76 -14 -98 3 -9 8 -9 17 -2 15 12 26
3 18 -16 -3 -8 -10 -11 -17 -7 -6 3 -2 -3 8 -15 11 -12 17 -24 14 -27 -3 -3
-21 14 -41 38 l-36 44 16 56 c15 55 33 66 48 30z m-318 -7 c-3 -7 0 -20 6 -27
10 -11 9 -11 -5 0 -15 11 -15 41 -1 41 3 0 3 -6 0 -14z m403 -63 c44 -50 80
-131 87 -197 11 -110 -50 -210 -181 -296 -58 -37 -174 -84 -185 -74 -2 2 4 22
14 44 12 27 23 39 33 35 7 -3 18 -5 23 -5 5 0 8 -5 7 -11 -2 -6 3 -14 11 -17
9 -3 11 0 6 8 -5 9 -2 10 15 5 16 -5 20 -4 16 4 -4 6 -4 11 1 10 24 -4 43 3
43 16 0 11 -11 14 -45 13 -25 -1 -45 -6 -45 -10 0 -4 -6 -8 -12 -8 -7 1 5 15
27 33 66 53 169 150 186 174 8 13 19 20 23 16 25 -25 -22 61 -55 99 -22 27
-37 53 -34 58 4 6 1 17 -5 25 -18 21 6 20 27 -1 11 -11 13 -18 5 -23 -7 -4 0
-20 19 -45 16 -22 29 -35 29 -28 0 6 -6 17 -13 24 -22 22 -27 46 -11 59 12 10
12 14 2 20 -10 7 -9 9 3 9 9 0 20 -7 23 -16 3 -8 11 -12 16 -9 15 9 7 30 -11
30 -8 0 -13 9 -12 20 1 11 0 14 -3 8 -8 -17 -27 -17 -21 0 3 8 1 20 -4 28 -6
10 -9 8 -10 -11 0 -23 -1 -23 -8 -5 -5 11 -7 23 -5 26 2 4 -3 12 -11 19 -13
11 -14 10 -9 -6 4 -15 4 -16 -4 -5 -6 8 -8 20 -5 27 7 19 32 4 73 -43z m-60
-19 c0 -5 -5 -3 -12 4 -8 8 -15 9 -25 1 -16 -14 -17 -3 -1 15 10 11 15 11 25
0 7 -7 13 -16 13 -20z m-3202 -60 c39 -5 52 -11 51 -23 0 -10 -2 -12 -6 -3 -2
6 -13 12 -23 12 -32 0 -80 -149 -80 -250 0 -44 34 -98 106 -163 36 -33 54 -44
60 -36 4 7 3 10 -4 5 -6 -3 -16 3 -22 15 -7 12 -8 19 -2 15 5 -3 15 1 21 8 9
11 9 16 0 22 -8 4 -9 3 -5 -4 4 -7 3 -12 -2 -12 -6 0 -9 12 -8 26 1 25 2 25
40 -18 21 -23 50 -51 64 -60 25 -16 6 -17 -414 -18 l-441 0 63 190 c34 105 68
215 74 245 l11 55 232 0 c128 0 256 -3 285 -6z m2970 -30 c-3 -14 -5 -12 -10
9 -3 19 -2 25 4 19 6 -6 8 -18 6 -28z m960 1 c2 -16 16 -75 32 -130 16 -55 36
-138 45 -185 9 -47 18 -95 21 -107 4 -19 11 -23 41 -23 20 0 33 -3 30 -7 -9
-8 -667 -10 -667 -2 0 3 12 16 26 30 46 43 72 101 107 245 20 77 42 157 51
178 l15 37 148 -3 148 -3 3 -30z m102 -43 c23 -84 23 -82 8 -82 -6 0 -9 2 -6
6 3 3 -3 37 -13 77 -21 80 -21 83 -14 75 3 -3 14 -37 25 -76z m-60 64 c0 -2
-7 -6 -15 -10 -8 -3 -15 -1 -15 4 0 6 7 10 15 10 8 0 15 -2 15 -4z m-3927 -56
c-3 -12 -8 -19 -11 -16 -5 6 5 36 12 36 2 0 2 -9 -1 -20z m2881 -146 c-43
-165 -91 -357 -128 -509 -30 -129 -97 -353 -131 -445 -34 -89 -89 -149 -185
-200 -34 -18 -22 -4 22 26 66 45 113 95 98 104 -9 5 -9 9 -1 14 6 4 11 1 11
-6 1 -19 40 34 40 54 0 9 -4 20 -10 23 -5 3 -10 14 -10 23 1 13 5 10 16 -8
l15 -25 -6 25 c-4 17 -3 21 3 12 7 -11 11 -8 15 10 9 33 8 50 -2 44 -5 -4 -7
4 -3 16 5 21 6 21 12 2 5 -14 11 -5 25 41 10 33 18 75 19 92 0 18 3 28 7 22 9
-15 31 79 24 104 -4 15 -3 18 3 9 11 -17 46 105 47 165 0 22 4 39 8 36 5 -3 8
3 6 13 -1 11 3 32 9 47 7 16 12 33 12 38 0 5 14 56 30 112 17 56 29 110 26
120 -2 9 -1 15 3 13 4 -3 18 39 31 92 13 53 25 92 27 86 2 -6 -13 -73 -33
-150z m590 57 c-8 -9 -12 5 -14 39 -3 59 2 68 10 15 4 -27 6 -52 4 -54z m-659
31 c-15 -16 -16 -15 -4 12 7 15 15 23 17 16 3 -7 -3 -19 -13 -28z m-2828 -49
c-3 -10 -5 -4 -5 12 0 17 2 24 5 18 2 -7 2 -21 0 -30z m2733 27 c0 -5 -5 -10
-11 -10 -5 0 -7 5 -4 10 3 6 8 10 11 10 2 0 4 -4 4 -10z m1247 -32 c-3 -8 -6
-5 -6 6 -1 11 2 17 5 13 3 -3 4 -12 1 -19z m63 -43 c18 -63 6 -67 -14 -6 -18
57 -19 64 -7 57 4 -3 14 -26 21 -51z m-3612 -60 c-3 -3 -9 2 -12 12 -6 14 -5
15 5 6 7 -7 10 -15 7 -18z m-404 -21 c3 -8 2 -12 -4 -9 -6 3 -10 10 -10 16 0
14 7 11 14 -7z m4072 -139 c-3 -11 -36 96 -35 117 0 7 9 -14 19 -47 11 -33 18
-64 16 -70z m-4052 99 c3 -8 2 -12 -4 -9 -6 3 -10 10 -10 16 0 14 7 11 14 -7z
m2956 -24 c0 -16 -4 -30 -8 -30 -5 0 -7 14 -4 30 2 17 6 30 8 30 2 0 4 -13 4
-30z m405 7 c-8 -13 -12 -27 -8 -32 5 -4 2 -5 -4 -1 -7 4 -13 3 -13 -3 0 -5 6
-12 13 -15 6 -3 1 -3 -13 0 -25 7 -25 7 -6 -15 l19 -21 31 27 c28 26 29 26 8
2 -12 -14 -22 -29 -22 -34 0 -19 -38 -34 -86 -35 l-51 0 71 74 c39 41 72 75
74 75 1 1 -4 -9 -13 -22z m-2948 -19 c-3 -8 -6 -5 -6 6 -1 11 2 17 5 13 3 -3
4 -12 1 -19z m10 -40 c-3 -8 -6 -5 -6 6 -1 11 2 17 5 13 3 -3 4 -12 1 -19z
m-110 0 c7 -1 10 -5 7 -10 -6 -10 56 -49 68 -42 4 3 8 1 8 -3 0 -5 8 -9 18
-10 15 -1 18 4 16 25 l-4 27 9 -27 c5 -14 12 -31 16 -38 10 -16 -39 -2 -112
33 -69 32 -102 60 -61 51 12 -3 28 -6 35 -6z m2310 -25 c-3 -10 -5 -4 -5 12 0
17 2 24 5 18 2 -7 2 -21 0 -30z m1453 -45 c0 -5 -5 -8 -11 -8 -5 0 -7 5 -4 10
3 6 1 10 -5 10 -6 0 -8 5 -4 11 6 11 23 -6 24 -23z m-1331 -28 c0 -10 -3 -8
-9 5 -12 27 -12 43 0 25 5 -8 9 -22 9 -30z m-3110 -95 c52 -26 57 -91 12 -136
-29 -28 -32 -29 -130 -29 -114 0 -143 10 -172 56 -18 29 -19 38 -8 73 14 47
16 48 162 50 77 1 116 -3 136 -14z m3058 -137 c-3 -8 -6 -5 -6 6 -1 11 2 17 5
13 3 -3 4 -12 1 -19z m-30 -110 c-3 -8 -6 -5 -6 6 -1 11 2 17 5 13 3 -3 4 -12
1 -19z m-200 -100 c-3 -8 -6 -5 -6 6 -1 11 2 17 5 13 3 -3 4 -12 1 -19z m-6
-81 c-10 -9 -11 -8 -5 6 3 10 9 15 12 12 3 -3 0 -11 -7 -18z m-8 -82 c-3 -9
-8 -14 -10 -11 -3 3 -2 9 2 15 9 16 15 13 8 -4z m-2163 -32 c-56 -11 -93 -98
-71 -166 6 -19 24 -46 40 -61 l29 -28 203 3 c144 3 203 7 206 16 5 15 43 -15
43 -34 0 -8 20 -26 44 -41 l44 -28 -56 -14 c-46 -11 -229 -15 -946 -17 -850
-4 -888 -3 -881 14 4 10 27 90 52 178 25 88 47 166 49 173 3 9 138 12 636 11
348 -1 622 -4 608 -6z m2470 -3 c-8 -5 -15 -13 -16 -17 0 -4 -6 -19 -13 -33
l-12 -25 6 25 c2 14 5 33 5 43 0 11 8 17 23 17 18 0 19 -2 7 -10z m1530 -1 c0
-6 -7 -9 -15 -5 -8 3 -15 2 -15 -2 0 -4 -24 -7 -52 -7 l-53 0 0 -95 c0 -52 4
-132 9 -178 l9 -83 -734 3 c-688 3 -739 4 -821 23 -90 20 -104 29 -67 40 22 7
83 67 105 102 10 15 14 16 25 5 12 -11 11 -12 -3 -7 -13 5 -18 2 -18 -9 0 -9
-16 -34 -36 -56 -20 -21 -33 -43 -30 -48 6 -11 71 -23 139 -26 l47 -2 0 48 0
48 151 0 c170 0 169 0 209 85 25 53 14 102 -31 144 l-34 30 608 1 c437 0 607
-3 607 -11z m-1573 -111 c-3 -8 -6 -5 -6 6 -1 11 2 17 5 13 3 -3 4 -12 1 -19z
m1630 -130 c-3 -8 -6 -5 -6 6 -1 11 2 17 5 13 3 -3 4 -12 1 -19z m-3240 -68
c29 -13 51 -25 48 -28 -5 -6 -166 68 -185 85 -8 7 8 3 35 -10 28 -13 74 -34
102 -47z m1203 46 c0 -6 -101 -52 -151 -69 -108 -37 -287 -79 -382 -89 -111
-12 -301 -3 -291 14 3 5 13 6 23 3 26 -11 257 -15 240 -4 -9 6 0 7 28 4 55 -7
124 9 140 31 7 10 13 13 13 7 0 -15 63 -6 104 13 16 8 36 14 45 14 9 0 34 5
55 11 30 8 36 13 25 21 -10 7 -8 8 7 3 13 -3 44 4 75 19 54 24 69 29 69 22z
m2064 -49 l14 -47 -86 2 -87 2 75 5 c81 6 80 6 65 66 -12 46 3 24 19 -28z
m-1623 11 c-3 -21 -6 -26 -9 -15 -3 17 3 47 11 47 2 0 1 -15 -2 -32z m-67 -17
c3 -4 -6 -6 -19 -3 -14 2 -25 6 -25 8 0 8 39 4 44 -5z m-1489 -21 c-3 -5 -12
-10 -18 -10 -7 0 -6 4 3 10 19 12 23 12 15 0z m118 -29 c16 -6 33 -9 38 -5 5
3 9 0 9 -6 0 -12 -40 -7 -119 16 l-46 13 45 -3 c25 -2 58 -9 73 -15z m147 -26
c20 4 22 3 8 -5 -19 -12 -100 -2 -92 11 2 4 17 4 31 -2 15 -6 39 -8 53 -4z
m267 9 c-3 -3 -12 -4 -19 -1 -8 3 -5 6 6 6 11 1 17 -2 13 -5z m106 -1 c-7 -2
-19 -2 -25 0 -7 3 -2 5 12 5 14 0 19 -2 13 -5z m315 -270 c-4 -134 -11 -198
-27 -259 -16 -62 -18 -88 -11 -114 12 -42 4 -52 -11 -14 -13 33 -13 105 0 113
20 13 35 134 35 288 1 90 5 163 10 163 5 0 7 -76 4 -177z m-931 70 c-3 -10 -5
-4 -5 12 0 17 2 24 5 18 2 -7 2 -21 0 -30z m340 21 c-3 -3 -12 -4 -19 -1 -8 3
-5 6 6 6 11 1 17 -2 13 -5z m-297 -68 c0 -5 -7 -1 -15 10 -8 10 -14 24 -14 29
0 6 6 1 14 -9 8 -11 15 -24 15 -30z m-37 -91 c-2 -58 -8 -116 -14 -128 -9 -21
-9 -21 -4 3 2 14 5 74 5 133 0 60 4 106 9 103 4 -3 6 -53 4 -111z m92 27 c-3
-3 -11 0 -18 7 -9 10 -8 11 6 5 10 -3 15 -9 12 -12z m645 -12 c0 -5 -5 -10
-11 -10 -5 0 -7 5 -4 10 3 6 8 10 11 10 2 0 4 -4 4 -10z m-723 -42 c-3 -8 -6
-5 -6 6 -1 11 2 17 5 13 3 -3 4 -12 1 -19z m-36 -179 c-6 -24 -9 -28 -10 -12
-1 24 9 56 16 50 2 -3 0 -20 -6 -38z m-539 -55 c54 -5 75 -10 75 -21 0 -9 -4
-10 -10 -4 -7 7 -15 7 -24 0 -8 -7 -13 -8 -13 -1 0 5 -11 9 -24 8 -13 0 -21
-5 -18 -11 3 -5 -2 -3 -13 5 -15 13 -93 15 -538 18 -367 2 -523 -1 -533 -9 -7
-6 -23 -8 -36 -4 -18 5 -20 4 -8 -4 23 -17 6 -13 -41 9 l-44 20 576 0 c317 0
610 -3 651 -6z m2486 -1 c-42 -5 -82 -45 -75 -74 3 -11 0 -16 -8 -13 -14 6
-36 -49 -32 -79 6 -37 36 -59 80 -57 63 3 68 -2 12 -10 -57 -8 -75 0 -100 43
-17 29 -17 30 26 113 l43 84 45 -2 c44 -1 44 -2 9 -5z m185 0 c-23 -2 -64 -2
-90 0 -26 2 -7 3 42 3 50 0 71 -1 48 -3z m544 -9 c-15 -8 -33 -12 -39 -8 -7 4
-8 3 -4 -4 10 -16 -5 -15 -31 3 -16 11 -62 15 -204 18 -169 2 -165 3 61 4 223
2 243 1 217 -13z m-2997 -1 c-8 -3 -23 -10 -32 -15 -14 -6 -16 -5 -12 7 4 8
18 15 33 14 15 0 20 -3 11 -6z m-201 -27 c-2 -2 -24 -15 -49 -28 -25 -14 -69
-39 -97 -56 -29 -17 -53 -27 -53 -22 0 6 3 10 8 10 4 0 45 23 92 50 71 42 117
63 99 46z m3141 -3 c0 -5 -14 -16 -30 -25 -35 -20 -41 -8 -7 15 25 18 37 21
37 10z m-4220 -13 c0 -5 -8 -10 -17 -10 -15 0 -16 2 -3 10 19 12 20 12 20 0z
m1600 -20 c0 -11 -4 -20 -9 -20 -5 0 -7 9 -4 20 3 11 7 20 9 20 2 0 4 -9 4
-20z m-155 -113 c22 -21 64 -49 93 -63 77 -37 259 -82 401 -100 69 -8 128 -17
133 -20 4 -3 8 0 8 5 0 6 21 11 50 11 42 0 50 -3 50 -19 0 -20 -26 -37 -32
-19 -2 5 -14 8 -27 6 -19 -2 -7 -12 63 -51 99 -56 116 -75 116 -133 0 -41 0
-41 -43 -47 -197 -27 -412 -13 -632 43 -206 52 -401 144 -508 242 -68 62 -79
78 -52 78 25 0 216 94 260 128 l40 31 20 -27 c10 -15 37 -44 60 -65z m1080 73
c-8 -13 -116 -62 -122 -56 -3 2 16 14 42 25 26 11 44 25 41 30 -3 5 3 7 14 4
12 -3 20 0 20 8 0 7 3 10 6 6 3 -3 3 -11 -1 -17z m255 -1 c0 -4 -7 -6 -15 -3
-8 4 -15 10 -15 15 0 4 7 6 15 3 8 -4 15 -10 15 -15z m-1153 -2 c2 -3 -3 -7
-11 -10 -8 -3 -20 0 -26 8 -10 12 -8 13 10 10 13 -2 25 -6 27 -8z m-1428 -33
c14 -12 -19 -1 -35 12 -18 14 -18 14 6 3 14 -6 27 -13 29 -15z m31 16 c8 -5
11 -10 5 -10 -5 0 -17 5 -25 10 -8 5 -10 10 -5 10 6 0 17 -5 25 -10z m1461
-21 c30 -21 135 -45 196 -44 26 0 43 -5 43 -12 0 -7 -14 -9 -42 -6 -70 8 -203
43 -206 53 -2 6 -9 7 -14 4 -7 -5 -8 -2 -3 6 5 9 2 10 -13 6 -11 -4 -23 -2
-26 3 -10 16 37 9 65 -10z m1167 -4 c2 -1 -8 -2 -21 -2 -13 0 -24 5 -24 13 0
10 5 10 21 2 12 -6 22 -12 24 -13z m-144 -10 c-4 -8 -11 -12 -16 -9 -6 4 -5
10 3 15 19 12 19 11 13 -6z m244 -47 c2 -5 7 -6 12 -3 4 3 23 -1 41 -9 19 -7
43 -16 53 -20 17 -6 14 -12 -29 -56 -89 -90 -424 -243 -610 -279 -33 -7 -71
-14 -85 -17 -18 -3 -21 -2 -10 5 8 4 34 11 58 15 24 3 51 11 60 16 9 5 34 12
55 15 21 3 47 15 59 27 16 16 22 18 29 7 8 -12 11 -12 18 1 6 8 21 15 35 16
14 0 31 5 38 11 7 6 26 13 42 17 24 6 27 9 15 17 -10 7 -5 8 16 3 24 -4 27 -3
15 6 -13 9 -12 11 5 9 35 -4 113 40 110 61 -2 10 7 16 24 17 l26 1 -25 -14
c-14 -7 -20 -13 -13 -14 20 0 75 59 67 73 -5 7 -1 7 10 -2 15 -12 19 -12 33 2
9 9 13 20 9 24 -4 4 -11 1 -17 -7 -8 -13 -11 -12 -24 4 -12 16 -12 20 0 33 15
15 48 5 45 -13 -1 -5 4 -10 11 -13 7 -2 9 1 4 9 -5 8 -4 11 3 6 6 -3 13 -2 17
4 3 5 -2 10 -12 10 -10 0 -29 7 -42 16 -19 14 -25 14 -32 3 -6 -10 -9 -10 -9
-2 0 9 -7 10 -26 3 -14 -6 -31 -10 -37 -9 -7 0 4 6 23 13 l35 13 -36 16 c-20
8 -39 19 -43 25 -3 5 14 0 37 -11 23 -12 44 -25 45 -29z m-2592 2 c19 -7 34
-14 31 -16 -2 -2 -33 5 -68 17 -67 22 -94 37 -46 25 18 -4 27 -2 27 6 0 8 4 6
10 -4 6 -9 26 -22 46 -28z m439 32 c-18 -16 -116 -53 -128 -49 -7 2 6 9 28 16
22 6 51 18 65 26 28 16 50 20 35 7z m1552 -7 c-21 -8 -62 -17 -90 -20 -51 -5
-51 -5 12 10 35 8 69 16 75 19 6 2 18 4 26 5 8 0 -2 -7 -23 -14z m331 1 c-2 0
-14 -10 -27 -21 l-25 -20 20 26 c10 15 23 25 27 22 5 -3 7 -6 5 -7z m1217 4
c-27 -12 -43 -12 -25 0 8 5 22 9 30 9 10 0 8 -3 -5 -9z m-410 -20 c3 -5 -1
-10 -9 -10 -9 0 -16 5 -16 10 0 6 4 10 9 10 6 0 13 -4 16 -10z m351 -5 c-11
-8 -27 -15 -35 -15 -10 1 -7 6 9 15 33 19 50 18 26 0z m-1881 -5 c3 -5 1 -10
-4 -10 -6 0 -11 5 -11 10 0 6 2 10 4 10 3 0 8 -4 11 -10z m244 -6 c10 -9 -45
-3 -59 6 -11 7 -5 8 20 4 19 -4 37 -8 39 -10z m-101 -11 c-21 -2 -55 -2 -75 0
-21 2 -4 4 37 4 41 0 58 -2 38 -4z m512 -3 c-8 -5 -19 -10 -25 -10 -5 0 -3 5
5 10 8 5 20 10 25 10 6 0 3 -5 -5 -10z m1013 3 c-7 -2 -19 -2 -25 0 -7 3 -2 5
12 5 14 0 19 -2 13 -5z m-1073 -43 c-12 -12 -25 -18 -31 -14 -6 4 -1 12 13 19
34 19 40 17 18 -5z m-50 -18 c0 -5 -20 -13 -45 -19 -54 -12 -60 -1 -7 14 50
14 52 14 52 5z m435 -22 c-5 -8 -11 -8 -17 -2 -6 6 -7 16 -3 22 5 8 11 8 17 2
6 -6 7 -16 3 -22z m-550 -10 c-3 -5 -18 -10 -33 -9 l-27 1 25 8 c35 11 42 11
35 0z m-1275 -162 c178 -118 439 -211 730 -260 108 -18 467 -14 487 5 3 4 16
7 27 7 18 0 17 -2 -8 -15 -15 -8 -39 -15 -53 -15 -13 0 -21 -4 -18 -10 3 -5 2
-10 -4 -10 -5 0 -14 -24 -20 -52 -25 -124 -31 -160 -31 -186 0 -26 1 -27 57
-25 53 2 51 1 -27 -12 -47 -8 -128 -17 -180 -21 -251 -17 -713 101 -990 253
-167 92 -356 246 -410 335 l-18 29 117 60 c64 33 120 64 125 69 5 5 35 -14 70
-44 33 -28 99 -77 146 -108z m2105 133 c-3 -3 -10 1 -15 9 -6 8 -10 13 -11 10
0 -3 -2 -13 -4 -24 -2 -10 -9 -24 -15 -30 -8 -8 -9 -6 -4 9 5 15 -3 11 -32
-15 -29 -26 -26 -21 10 17 39 41 53 50 63 41 7 -6 11 -13 8 -17z m-911 4 c-4
-8 -8 -15 -10 -15 -2 0 -4 7 -4 15 0 8 4 15 10 15 5 0 7 -7 4 -15z m-54 -5 c0
-5 -9 -10 -21 -10 -11 0 -17 5 -14 10 3 6 13 10 21 10 8 0 14 -4 14 -10z m-50
-20 c0 -11 -4 -20 -8 -20 -4 0 -8 9 -9 20 -1 11 2 20 8 20 5 0 9 -9 9 -20z
m1090 0 c8 -5 11 -10 5 -10 -5 0 -17 5 -25 10 -8 5 -10 10 -5 10 6 0 17 -5 25
-10z m-1057 -35 c-3 -9 -8 -14 -10 -11 -3 3 -2 9 2 15 9 16 15 13 8 -4z m502
-15 c3 -6 -1 -7 -9 -4 -18 7 -21 14 -7 14 6 0 13 -4 16 -10z m650 1 c3 -5 1
-12 -5 -16 -5 -3 -10 0 -10 7 0 9 -3 9 -10 -2 -5 -8 -10 -10 -10 -4 0 22 24
32 35 15z m-289 -22 c1 -5 2 -10 4 -11 5 -8 7 -39 2 -33 -4 4 -7 12 -7 18 0 7
-9 13 -19 15 -14 3 -17 0 -12 -13 5 -14 3 -15 -6 -7 -17 13 -38 -7 -38 -38 0
-5 -5 -10 -11 -10 -5 0 -7 5 -4 10 9 15 -2 12 -30 -6 -14 -9 -22 -20 -19 -25
3 -5 -1 -6 -9 -3 -8 3 -21 -1 -28 -9 -8 -7 -23 -16 -34 -19 -46 -14 -150 -61
-153 -69 -5 -12 -22 -12 -22 0 0 5 30 21 67 35 69 27 225 116 278 160 29 23
39 25 41 5z m305 -71 c-74 -92 -115 -124 -329 -257 -93 -58 -172 -96 -317
-152 -122 -47 -305 -103 -313 -95 -3 3 3 6 13 6 18 0 18 1 -1 16 -19 15 -19
15 1 5 23 -10 99 6 149 32 16 9 35 13 44 10 10 -5 13 -2 8 6 -5 8 -3 11 6 9
21 -5 127 34 191 69 33 18 63 30 68 27 5 -3 8 0 7 8 -2 8 7 13 24 14 14 1 38
11 53 22 15 12 34 22 41 22 7 0 18 9 24 20 6 11 19 19 28 18 9 -2 17 3 18 10
1 6 2 16 3 21 0 5 8 11 15 14 10 4 13 1 9 -9 -3 -7 -10 -14 -16 -14 -6 0 -8
-2 -5 -5 8 -8 84 45 81 56 -2 4 5 5 14 2 10 -4 14 -2 10 4 -4 7 6 16 24 22 23
8 30 15 25 27 -5 14 -4 15 9 4 12 -10 15 -10 15 4 0 9 3 15 8 14 15 -3 42 15
42 28 0 8 5 14 10 14 6 0 9 6 8 13 -2 6 3 11 10 10 6 -2 12 1 12 6 0 13 51 73
57 67 3 -2 -18 -33 -46 -68z m-2933 52 c44 0 45 -1 26 -15 -24 -16 -57 -87
-78 -167 -9 -32 -15 -43 -15 -28 -1 22 -20 124 -37 199 -5 22 -3 23 27 17 17
-3 52 -6 77 -6z m2923 -13 c-10 -9 -11 -8 -5 6 3 10 9 15 12 12 3 -3 0 -11 -7
-18z m199 -58 c12 -27 11 -36 -9 -77 -54 -113 -156 -248 -273 -365 -65 -65
-123 -115 -129 -112 -5 4 -8 2 -7 -3 4 -15 -134 -114 -240 -173 -156 -87 -318
-149 -447 -173 -16 -3 -50 -10 -74 -16 -24 -6 -51 -9 -60 -7 -9 3 -4 5 12 6
15 0 27 6 27 11 0 6 13 10 29 10 17 0 33 5 37 11 3 6 15 8 26 6 15 -4 17 -3 8
8 -9 11 -7 14 12 13 58 -4 96 4 115 22 15 13 23 16 26 7 3 -9 9 -9 26 1 11 6
29 12 38 12 19 1 75 29 58 30 -24 1 34 27 60 27 27 0 116 50 130 74 4 5 11 7
16 4 7 -5 60 29 114 73 6 4 18 11 27 14 9 4 15 15 13 25 -2 10 -4 18 -5 18 -1
0 -3 8 -5 18 -2 9 1 14 6 11 32 -19 66 -13 94 16 16 16 24 30 18 30 -6 0 -18
-11 -27 -25 -9 -14 -21 -25 -26 -25 -6 0 2 14 17 30 15 18 33 28 41 25 17 -6
44 13 36 26 -3 5 0 8 8 7 8 -2 12 6 10 22 -1 19 0 22 8 10 7 -12 12 -12 22 -2
10 10 10 15 -2 23 -12 9 -12 10 4 5 28 -10 48 11 33 35 -10 16 -8 22 9 40 17
17 23 18 29 8 5 -8 5 -11 0 -7 -11 11 -35 -11 -35 -31 1 -15 2 -15 13 0 7 9
17 14 24 12 17 -6 26 16 13 32 -9 11 -9 15 -1 15 6 0 11 -5 11 -11 0 -23 29
13 74 89 25 43 50 82 55 88 33 39 47 124 20 124 -5 0 -9 5 -9 10 0 21 18 9 30
-21z m-1080 1 c-8 -5 -22 -9 -30 -9 -10 0 -8 3 5 9 27 12 43 12 25 0z m-1909
-52 c37 -69 225 -227 378 -318 84 -50 279 -135 421 -183 103 -35 284 -74 450
-97 78 -11 422 -9 490 3 14 2 17 2 8 0 -10 -2 -18 -8 -18 -13 0 -4 -9 -10 -20
-13 -11 -3 -20 -1 -20 4 0 5 -4 9 -10 9 -5 0 -10 -13 -10 -28 0 -16 -7 -51
-15 -78 -18 -59 -18 -67 -3 -58 7 4 8 3 4 -5 -4 -6 -11 -9 -15 -6 -5 2 -13
-18 -18 -46 l-10 -50 53 2 c30 2 56 0 59 -3 11 -11 -245 -20 -375 -14 -166 8
-331 42 -492 101 -385 139 -652 321 -816 555 -25 36 -58 82 -74 103 l-30 38
18 60 c10 32 21 59 26 59 4 0 13 -10 19 -22z m2919 -12 c0 -2 -8 -10 -17 -17
-16 -13 -17 -12 -4 4 13 16 21 21 21 13z m-650 -36 c0 -5 -8 -10 -17 -10 -15
0 -16 2 -3 10 19 12 20 12 20 0z m634 -12 c-3 -4 -11 -5 -19 -1 -21 7 -19 12
4 10 11 0 18 -5 15 -9z m-877 -32 c-21 -6 -34 -16 -30 -20 4 -5 0 -6 -10 -3
-10 4 -24 7 -30 8 -16 1 74 27 93 27 8 0 -2 -5 -23 -12z m-82 -26 c3 -5 2 -10
-4 -10 -5 0 -13 5 -16 10 -3 6 -2 10 4 10 5 0 13 -4 16 -10z m-45 -9 c-24 -13
-80 -21 -80 -11 0 8 30 15 75 18 16 1 17 0 5 -7z m559 -34 c-2 -1 -11 -8 -21
-15 -12 -10 -18 -10 -24 -1 -4 7 -3 9 4 5 6 -3 13 -2 17 4 3 5 11 10 17 10 6
0 9 -1 7 -3z m265 -35 c3 -5 -1 -9 -9 -9 -8 0 -12 4 -9 9 3 4 7 8 9 8 2 0 6
-4 9 -8z m-1041 -37 c-7 -21 -12 -19 -10 4 0 11 5 18 9 15 4 -3 5 -11 1 -19z
m32 16 c3 -5 1 -12 -5 -16 -5 -3 -10 1 -10 9 0 18 6 21 15 7z m585 -19 c0 -12
-49 -37 -57 -29 -3 4 2 7 13 8 15 1 14 3 -6 10 -25 9 -25 9 3 5 15 -2 27 1 27
5 0 5 5 9 10 9 6 0 10 -4 10 -8z m366 -7 c-1 -8 -6 -18 -11 -22 -4 -4 -5 -2
-1 5 4 6 2 12 -4 12 -6 0 -13 -7 -16 -15 -4 -8 -11 -12 -16 -9 -5 4 3 15 19
25 34 23 32 22 29 4z m-436 -29 c0 -2 -7 -7 -16 -10 -8 -3 -12 -2 -9 4 6 10
25 14 25 6z m357 -17 c-9 -6 -14 -15 -11 -21 4 -7 2 -8 -5 -4 -6 4 -23 -2 -37
-13 -15 -11 -30 -18 -35 -15 -5 3 -9 0 -9 -6 0 -6 -5 -8 -11 -4 -6 4 12 19 42
36 30 16 58 33 63 38 5 5 12 7 15 4 3 -3 -2 -10 -12 -15z m-2614 -69 c-3 -3
-8 1 -10 8 -3 6 -9 10 -13 7 -5 -3 -8 3 -8 12 0 10 -3 27 -6 38 -4 11 4 2 18
-20 14 -21 23 -42 19 -45z m2477 -10 c-8 -5 -19 -10 -25 -10 -5 0 -3 5 5 10 8
5 20 10 25 10 6 0 3 -5 -5 -10z m-83 -46 c-3 -3 -12 -4 -19 -1 -8 3 -5 6 6 6
11 1 17 -2 13 -5z m-2372 -45 c9 -17 15 -33 13 -35 -3 -2 -12 12 -21 31 -21
43 -13 47 8 4z m1833 16 c-8 -7 -88 -11 -88 -4 0 9 47 16 73 10 10 -2 16 -5
15 -6z m482 6 c0 -5 -10 -11 -22 -14 -22 -6 -22 -6 -4 8 23 17 26 18 26 6z
m-60 -21 c-8 -5 -19 -10 -25 -10 -5 0 -3 5 5 10 8 5 20 10 25 10 6 0 3 -5 -5
-10z m650 -24 c-44 -117 -136 -252 -240 -354 -79 -78 -230 -192 -230 -175 0 5
-4 3 -8 -3 -11 -18 -143 -85 -153 -78 -5 3 -9 1 -9 -5 0 -25 -336 -131 -495
-156 -36 -6 -38 -5 -20 8 29 20 58 29 49 15 -5 -8 0 -9 17 -5 13 4 33 7 44 7
17 0 18 2 5 11 -12 9 -10 10 9 5 13 -3 40 2 59 9 19 8 38 13 42 10 4 -3 19 4
33 15 27 21 42 26 32 10 -6 -9 51 7 70 20 6 4 22 10 38 14 15 3 27 11 27 17 0
6 5 7 10 4 6 -3 10 -2 10 4 0 6 7 8 15 5 8 -3 22 2 31 11 9 9 22 14 29 12 6
-3 18 -1 26 4 11 7 11 9 1 9 -7 0 -10 5 -6 11 4 8 9 7 16 -2 7 -11 11 -11 15
-1 2 6 11 12 18 12 7 0 16 7 19 16 4 10 13 13 26 9 11 -4 20 -2 20 4 0 6 11
13 25 17 13 3 23 11 22 18 -1 6 5 10 14 8 19 -3 73 44 65 57 -3 4 4 17 17 27
22 19 22 19 4 -2 -29 -34 -7 -35 32 -1 142 127 219 224 286 360 38 76 53 99
35 53z m-3053 -8 c-3 -8 -6 -5 -6 6 -1 11 2 17 5 13 3 -3 4 -12 1 -19z m2353
12 c-8 -5 -19 -10 -25 -10 -5 0 -3 5 5 10 8 5 20 10 25 10 6 0 3 -5 -5 -10z
m-35 -20 c3 -5 -3 -10 -14 -10 -11 0 -23 5 -26 10 -3 6 3 10 14 10 11 0 23 -4
26 -10z m652 -2 c-2 -7 -9 -12 -15 -11 -6 1 -23 -12 -39 -31 -16 -18 -36 -36
-44 -41 -8 -4 8 15 36 44 48 49 72 64 62 39z m-727 -18 c11 -8 8 -9 -12 -4
-18 4 -28 2 -28 -5 0 -6 -8 -11 -18 -11 -18 0 -103 -22 -137 -35 -14 -6 -17
-5 -10 3 6 6 43 20 84 31 41 11 76 23 79 26 8 8 25 6 42 -5z m-2044 -30 c0
-12 -4 -16 -9 -11 -5 5 -6 14 -3 20 10 15 12 14 12 -9z m2403 -27 c-6 -7 -19
-12 -28 -12 -13 1 -13 2 2 6 9 2 15 8 13 12 -3 4 1 8 9 8 11 0 12 -4 4 -14z
m-589 -3 c-8 -5 -19 -10 -25 -10 -5 0 -3 5 5 10 8 5 20 10 25 10 6 0 3 -5 -5
-10z m-1737 -74 c2 2 10 -3 18 -13 9 -11 10 -14 2 -9 -7 4 -13 3 -13 -3 0 -15
38 -33 52 -25 7 5 8 3 4 -5 -5 -7 -15 -10 -23 -7 -8 3 4 -12 26 -34 23 -23 41
-43 41 -46 0 -16 -73 55 -107 104 -51 73 -61 94 -30 60 14 -15 27 -25 30 -22z
m2192 4 c3 -5 2 -10 -4 -10 -5 0 -13 5 -16 10 -3 6 -2 10 4 10 5 0 13 -4 16
-10z m-175 -95 c0 -2 -6 -5 -13 -8 -8 -3 -14 1 -14 8 0 7 6 11 14 8 7 -3 13
-6 13 -8z m370 2 c-14 -8 -24 -19 -22 -26 1 -7 -2 -10 -8 -6 -6 4 -27 -4 -48
-16 -49 -30 -35 -15 25 26 26 18 55 33 63 34 8 0 4 -5 -10 -12z m-533 -53 c-3
-3 -12 -4 -19 -1 -8 3 -5 6 6 6 11 1 17 -2 13 -5z m-1338 -59 c87 -37 239 -92
311 -110 82 -22 282 -55 292 -49 4 3 16 0 27 -5 10 -6 92 -11 182 -13 90 -1
157 -4 148 -6 -10 -2 -26 -28 -39 -62 -12 -33 -32 -70 -44 -83 l-22 -24 -110
27 c-60 15 -163 38 -229 50 -155 29 -267 66 -399 131 -107 54 -179 109 -189
148 -7 27 3 26 72 -4z m-348 -2 c13 -16 12 -17 -3 -4 -17 13 -22 21 -14 21 2
0 10 -8 17 -17z m1991 -13 c-42 -26 -56 -26 -17 0 17 11 35 20 40 20 6 0 -5
-9 -23 -20z m258 -6 c0 -8 -19 -13 -24 -6 -3 5 1 9 9 9 8 0 15 -2 15 -3z
m-2219 -21 c13 -16 12 -17 -3 -4 -17 13 -22 21 -14 21 2 0 10 -8 17 -17z
m1884 -13 c-11 -5 -29 -9 -40 -9 l-20 0 20 9 c11 5 29 9 40 9 l20 0 -20 -9z
m-1805 -46 c27 -30 5 -17 -39 25 -19 17 -21 21 -6 13 11 -5 31 -23 45 -38z
m2390 42 c0 -2 -8 -10 -17 -17 -16 -13 -17 -12 -4 4 13 16 21 21 21 13z m-47
-51 c-3 -9 -8 -14 -10 -11 -3 3 -2 9 2 15 9 16 15 13 8 -4z m-720 -2 c-7 -2
-19 -2 -25 0 -7 3 -2 5 12 5 14 0 19 -2 13 -5z m-1577 -12 c-3 -5 8 -14 24
-21 17 -7 33 -17 36 -22 3 -5 -13 0 -35 12 -23 11 -39 25 -36 30 4 6 8 10 11
10 3 0 3 -4 0 -9z m1544 -1 c18 -12 2 -12 -25 0 -13 6 -15 9 -5 9 8 0 22 -4
30 -9z m-108 -26 c-11 -7 -27 -12 -34 -9 -8 3 -28 1 -44 -5 -27 -10 -28 -9 -9
6 13 9 30 13 48 10 15 -3 26 -2 23 2 -2 4 5 9 16 9 l21 2 -21 -15z m-112 -8
c0 -2 -7 -6 -15 -10 -8 -3 -15 -1 -15 4 0 6 7 10 15 10 8 0 15 -2 15 -4z m-41
-10 c-2 -2 -29 -6 -59 -9 -36 -4 -46 -3 -30 3 25 8 97 13 89 6z m-1121 -49
c39 -20 72 -39 72 -42 0 -3 -36 13 -80 35 -44 22 -80 43 -80 46 0 7 -3 8 88
-39z m1982 -22 c-7 -8 -17 -15 -23 -15 -6 0 -2 7 9 15 25 19 30 19 14 0z
m-1850 -40 c19 -7 28 -14 20 -14 -8 0 -28 6 -45 14 -39 17 -21 18 25 0z m1317
9 c-3 -3 -12 -4 -19 -1 -8 3 -5 6 6 6 11 1 17 -2 13 -5z m488 -4 c-3 -5 -14
-10 -23 -9 -14 0 -13 2 3 9 27 11 27 11 20 0z m-448 -6 c-3 -3 -12 -4 -19 -1
-8 3 -5 6 6 6 11 1 17 -2 13 -5z m408 -13 c3 -5 2 -12 -3 -15 -5 -3 -9 1 -9 9
0 17 3 19 12 6z m-1698 -17 c-3 -3 -12 -4 -19 -1 -8 3 -5 6 6 6 11 1 17 -2 13
-5z m1643 -15 c-13 -6 -27 -13 -30 -18 -5 -8 -85 -41 -98 -41 -14 1 123 69
138 69 8 0 4 -5 -10 -10z m-1514 -20 c43 -12 108 -27 143 -35 68 -15 102 -32
41 -19 -90 17 -244 56 -258 65 -25 14 -14 12 74 -11z m809 -29 c8 -13 -5 -13
-25 0 -13 8 -13 10 2 10 9 0 20 -4 23 -10z m-26 -34 c-2 -2 -33 -6 -69 -9 -41
-4 -56 -3 -40 3 14 4 42 8 63 9 22 1 37 6 38 14 0 9 2 9 6 -1 3 -7 3 -15 2
-16z m-434 -6 c42 -7 38 -8 -25 -3 -41 3 -82 9 -90 14 -15 9 17 6 115 -11z
m1005 16 c0 -2 -7 -7 -16 -10 -8 -3 -12 -2 -9 4 6 10 25 14 25 6z m-777 -33
c-29 -2 -78 -2 -110 0 -32 2 -8 3 52 3 61 0 87 -1 58 -3z m484 -69 c-3 -3 -12
-4 -19 -1 -8 3 -5 6 6 6 11 1 17 -2 13 -5z m-42 -14 c3 -6 -1 -7 -9 -4 -18 7
-21 14 -7 14 6 0 13 -4 16 -10z m-918 -6 c-3 -3 -12 -4 -19 -1 -8 3 -5 6 6 6
11 1 17 -2 13 -5z m851 1 c-11 -11 -68 -23 -68 -15 0 5 12 11 28 13 15 2 31 5
36 6 5 0 7 -1 4 -4z m-791 -11 c-3 -3 -12 -4 -19 -1 -8 3 -5 6 6 6 11 1 17 -2
13 -5z m63 -8 c0 -11 -19 -15 -25 -6 -3 5 1 10 9 10 9 0 16 -2 16 -4z m617 -2
c-3 -3 -12 -4 -19 -1 -8 3 -5 6 6 6 11 1 17 -2 13 -5z m-690 -10 c-3 -3 -12
-4 -19 -1 -8 3 -5 6 6 6 11 1 17 -2 13 -5z m646 -1 c-7 -2 -21 -2 -30 0 -10 3
-4 5 12 5 17 0 24 -2 18 -5z m-446 -9 c-3 -3 -12 -4 -19 -1 -8 3 -5 6 6 6 11
1 17 -2 13 -5z m201 -11 c-16 -2 -40 -2 -55 0 -16 2 -3 4 27 4 30 0 43 -2 28
-4z m1292 -293 c0 -5 -2 -10 -4 -10 -3 0 -8 5 -11 10 -3 6 -1 10 4 10 6 0 11
-4 11 -10z"/>
<path d="M5038 8264 c-3 -2 -23 -6 -44 -8 -98 -10 -234 -52 -287 -89 -22 -15
-27 -26 -25 -51 3 -30 4 -31 53 -30 28 0 106 8 175 18 143 21 269 17 395 -11
44 -9 105 -17 135 -18 45 0 55 3 58 18 7 34 -7 62 -38 80 -60 36 -202 77 -284
82 -45 3 -93 8 -107 10 -15 2 -29 2 -31 -1z"/>
<path d="M6697 6933 c-4 -3 -7 -11 -7 -17 0 -6 5 -5 12 2 6 6 9 14 7 17 -3 3
-9 2 -12 -2z"/>
<path d="M6300 6891 c0 -6 4 -13 10 -16 6 -3 7 1 4 9 -7 18 -14 21 -14 7z"/>
<path d="M4290 6854 c0 -18 -8 -22 -45 -27 -123 -17 -213 -119 -203 -229 6
-59 30 -96 75 -115 33 -13 46 -13 147 6 173 32 268 41 434 41 87 0 162 5 173
10 41 23 17 146 -40 199 -84 80 -226 117 -414 108 -92 -4 -109 -2 -117 12 -8
14 -9 13 -10 -5z"/>
<path d="M4345 6345 c-116 -21 -195 -59 -277 -133 -92 -82 -113 -136 -84 -207
32 -75 92 -76 209 -2 105 66 163 82 263 73 88 -7 121 -20 209 -80 98 -67 161
-73 185 -17 20 49 -12 130 -87 218 -75 88 -195 151 -297 157 -28 2 -82 -3
-121 -9z"/>
<path d="M6166 6208 c3 -5 10 -6 15 -3 13 9 11 12 -6 12 -8 0 -12 -4 -9 -9z"/>
<path d="M6206 6167 c3 -10 9 -15 12 -12 3 3 0 11 -7 18 -10 9 -11 8 -5 -6z"/>
<path d="M5018 5895 c-66 -43 -115 -154 -97 -219 17 -61 141 -146 214 -146
108 0 199 114 166 208 -31 86 -143 183 -210 181 -20 0 -52 -11 -73 -24z"/>
<path d="M4638 5400 c-40 -12 -130 -65 -157 -94 -34 -36 -40 -105 -13 -148 42
-68 149 -98 412 -117 232 -16 633 0 755 30 105 26 145 64 145 139 0 81 -97
168 -219 195 l-34 7 5 -53 c5 -48 10 -57 47 -89 l42 -36 -98 -23 c-229 -54
-822 -37 -892 25 -11 10 -9 15 14 30 29 19 55 68 55 103 0 26 -28 40 -62 31z"/>
<path d="M6657 6034 c-13 -25 -12 -29 16 -57 25 -26 28 -35 23 -71 -4 -34 -4
-37 5 -16 11 27 4 90 -11 90 -5 0 -9 8 -9 18 -2 33 -5 62 -8 62 -1 0 -9 -12
-16 -26z m17 -19 c3 -8 1 -15 -4 -15 -6 0 -10 7 -10 15 0 8 2 15 4 15 2 0 6
-7 10 -15z"/>
<path d="M6626 6037 c3 -10 9 -15 12 -12 3 3 0 11 -7 18 -10 9 -11 8 -5 -6z"/>
<path d="M6675 5850 c-3 -5 -1 -10 4 -10 6 0 11 5 11 10 0 6 -2 10 -4 10 -3 0
-8 -4 -11 -10z"/>
<path d="M6641 5822 c-10 -24 -10 -25 3 -9 10 13 15 14 18 6 3 -8 7 -9 10 -4
3 6 0 15 -7 22 -10 9 -15 6 -24 -15z"/>
<path d="M6567 5754 c-3 -3 -1 -14 5 -24 10 -16 13 -16 26 -3 8 7 12 17 8 20
-3 4 -6 3 -6 -2 0 -4 -6 -2 -13 4 -8 6 -17 8 -20 5z"/>
<path d="M6495 5720 c-3 -5 1 -10 9 -10 9 0 16 5 16 10 0 6 -4 10 -9 10 -6 0
-13 -4 -16 -10z"/>
<path d="M6460 5700 c-9 -6 -10 -10 -3 -10 6 0 15 5 18 10 8 12 4 12 -15 0z"/>
<path d="M6739 5639 c-12 -8 -12 -11 1 -20 12 -8 10 -9 -7 -4 -13 3 -23 2 -23
-3 0 -5 16 -8 35 -8 19 1 35 4 35 9 0 4 0 11 0 16 0 14 -25 20 -41 10z"/>
<path d="M5160 3566 c0 -2 11 -6 25 -8 13 -3 22 -1 19 3 -5 9 -44 13 -44 5z"/>
<path d="M6020 3660 c0 -5 5 -10 10 -10 6 0 10 5 10 10 0 6 -4 10 -10 10 -5 0
-10 -4 -10 -10z"/>
<path d="M6179 2847 c6 -8 8 -17 4 -21 -4 -4 0 -4 10 0 14 5 15 9 6 20 -6 8
-16 14 -21 14 -7 0 -6 -5 1 -13z"/>
<path d="M6773 3406 c7 -13 15 -22 20 -19 4 3 3 11 -3 18 -8 10 -7 14 2 18 7
3 3 6 -9 6 -19 1 -20 -1 -10 -23z"/>
<path d="M6845 2247 c-60 -51 -19 -153 59 -145 40 4 59 41 50 98 -12 71 -58
91 -109 47z"/>
<path d="M3320 1932 c-22 -18 -22 -22 -27 -328 -5 -335 0 -388 40 -403 29 -11
55 -3 72 22 13 18 15 79 15 368 0 307 -2 348 -16 353 -29 11 -61 6 -84 -12z"/>
<path d="M6860 1723 c-35 -12 -40 -35 -39 -167 1 -72 4 -171 8 -221 6 -86 7
-90 34 -103 23 -11 34 -11 58 -2 39 17 43 46 36 280 -6 167 -9 197 -24 208
-17 12 -46 15 -73 5z"/>
<path d="M6771 1604 c0 -11 3 -14 6 -6 3 7 2 16 -1 19 -3 4 -6 -2 -5 -13z"/>
<path d="M27 103 c-25 -4 -27 -8 -27 -54 0 -48 1 -49 30 -49 30 0 30 1 30 55
0 30 -1 54 -2 54 -2 -1 -15 -4 -31 -6z"/>
</g>
</svg>
