<?xml version="1.0" standalone="no"?>
<!DOCTYPE svg PUBLIC "-//W3C//DTD SVG 20010904//EN"
 "http://www.w3.org/TR/2001/REC-SVG-20010904/DTD/svg10.dtd">
<svg version="1.0" xmlns="http://www.w3.org/2000/svg"
 width="1024.000000pt" height="1024.000000pt" viewBox="0 0 1024.000000 1024.000000"
 preserveAspectRatio="xMidYMid meet">
<metadata>
Created by potrace 1.16, written by Peter Selinger 2001-2019
</metadata>
<g transform="translate(0.000000,1024.000000) scale(0.100000,-0.100000)"
fill="#000000" stroke="none">
<path d="M5089 9381 c-57 -26 -131 -64 -164 -85 -84 -54 -175 -150 -210 -222
-29 -60 -31 -61 -66 -56 -101 12 -564 -41 -842 -97 -381 -77 -786 -223 -906
-327 l-43 -38 5 -60 c5 -70 66 -260 179 -566 108 -291 207 -603 263 -828 l35
-143 -24 -42 c-37 -63 -90 -191 -167 -399 -37 -103 -84 -225 -103 -270 -19
-46 -61 -162 -94 -258 -34 -96 -95 -272 -137 -390 -42 -118 -140 -397 -217
-620 -77 -223 -156 -450 -175 -505 -59 -169 -112 -333 -162 -505 -124 -425
-175 -591 -244 -800 -109 -330 -167 -534 -167 -592 0 -15 10 -39 22 -53 28
-32 169 -86 398 -155 91 -27 224 -70 295 -95 72 -26 218 -77 325 -115 322
-113 414 -147 474 -174 31 -14 75 -32 97 -39 52 -16 50 -29 -3 -23 -68 7 -433
-22 -553 -45 -209 -39 -319 -80 -442 -168 -120 -85 -203 -198 -254 -344 -43
-124 -112 -561 -134 -847 -8 -95 6 -149 44 -169 14 -8 873 -11 3018 -11 l2998
0 28 30 c24 27 27 38 27 96 0 108 -65 618 -99 773 -46 209 -94 305 -211 422
-71 71 -102 94 -171 127 -99 47 -186 75 -301 97 -88 16 -387 35 -575 35 -67 0
-113 4 -113 10 0 5 12 12 28 16 162 36 1558 505 1672 562 l55 27 0 55 c-1 39
-18 107 -59 235 -32 99 -78 241 -101 315 -50 154 -159 513 -215 705 -56 195
-88 291 -252 755 -83 234 -170 484 -193 555 -24 72 -77 225 -118 340 -41 116
-113 318 -160 450 -47 132 -105 296 -130 365 -73 203 -202 531 -232 589 -34
67 -32 95 25 328 47 192 117 414 275 881 75 218 119 364 122 401 l6 59 -44 32
c-94 70 -267 140 -580 235 -367 112 -765 184 -1019 185 l-65 1 -34 55 c-18 31
-61 85 -95 121 -55 59 -76 73 -213 139 -215 104 -184 100 -304 45z m117 -90
c5 -5 35 -18 67 -30 31 -11 79 -32 105 -45 62 -32 164 -117 158 -133 -3 -7 0
-12 6 -10 12 2 90 -104 82 -112 -2 -2 2 -11 10 -20 21 -24 54 -193 38 -199 -6
-2 -12 -8 -12 -14 0 -6 7 -8 15 -4 13 4 15 -8 13 -82 -2 -75 -2 -79 -5 -24 -2
34 -8 62 -13 62 -6 0 -10 -3 -10 -7 -3 -67 -14 -161 -21 -173 -6 -12 -8 -10
-9 8 0 13 -5 33 -11 44 -7 13 -12 71 -11 142 l0 121 -14 -108 c-8 -60 -23
-144 -34 -187 -25 -98 -25 -117 0 -130 27 -14 25 -30 -2 -30 -30 0 -58 19 -40
27 6 2 12 8 12 13 0 13 -86 32 -111 25 l-22 -7 24 -13 c13 -7 28 -11 33 -8 5
4 6 0 1 -7 -6 -9 -4 -12 6 -8 10 4 15 -1 15 -12 0 -17 -1 -17 -24 1 -82 64
-285 89 -407 50 -61 -20 -171 -80 -219 -120 -27 -23 -83 -112 -89 -142 -3 -19
-5 -18 -6 9 -1 28 20 76 40 92 3 3 10 16 14 28 l7 24 -20 -20 c-11 -11 -23
-30 -27 -41 -18 -57 -25 8 -25 222 0 334 18 418 118 567 63 94 103 128 244
207 99 54 109 58 124 44z m-1142 -458 c15 -51 69 -430 117 -808 5 -44 18 -174
29 -290 11 -115 22 -230 25 -255 4 -35 3 -40 -5 -25 -9 18 -10 17 -5 -5 2 -14
5 -32 6 -40 0 -10 3 -8 9 5 8 18 9 18 9 -5 1 -14 10 -124 21 -245 10 -121 24
-281 30 -355 5 -74 12 -154 14 -177 l4 -43 -132 0 -131 0 1 112 c2 284 -31
984 -60 1273 -11 109 -20 153 -41 200 -15 33 -59 150 -97 260 -101 289 -105
301 -118 325 -6 12 -10 24 -7 26 6 6 277 63 304 63 12 1 24 -6 27 -16z m2564
-69 c2 -1 -3 -15 -11 -31 -8 -15 -46 -123 -85 -239 -71 -211 -115 -324 -132
-334 -14 -8 -28 -148 -40 -380 -6 -118 -15 -282 -21 -365 -5 -82 -16 -260 -24
-395 -8 -135 -18 -288 -21 -340 l-7 -95 -114 -2 -115 -2 6 32 c3 18 12 122 20
232 9 110 25 324 36 475 27 363 89 909 136 1205 13 88 30 196 35 240 l11 80
161 -39 c89 -21 163 -40 165 -42z m-3377 -177 c73 -116 121 -239 115 -292 -2
-16 -1 -22 1 -12 2 9 9 17 14 17 12 0 12 -37 -1 -45 -14 -8 -13 -52 1 -61 8
-5 10 1 5 19 -10 41 10 40 22 -1 17 -60 35 -126 38 -137 1 -5 9 -35 18 -65 29
-98 54 -231 76 -415 12 -99 30 -225 41 -280 10 -55 28 -156 39 -225 11 -69 25
-154 31 -190 16 -98 36 -284 31 -293 -3 -7 -162 0 -170 8 -2 2 -4 23 -5 48 -1
25 -5 41 -8 35 -11 -17 -18 75 -7 95 7 13 7 17 0 13 -13 -8 -35 56 -26 77 3
10 1 17 -5 17 -6 0 -11 8 -11 18 0 72 -139 614 -206 806 -14 38 -22 76 -20 83
3 8 2 12 -3 9 -14 -9 -61 135 -50 155 15 29 10 45 -7 23 -13 -16 -15 -16 -10
-1 3 9 1 17 -3 17 -14 0 -64 147 -57 165 3 9 2 14 -3 11 -4 -3 -15 11 -24 32
-17 39 -87 278 -87 297 0 17 115 69 131 60 8 -5 11 -4 6 1 -8 8 74 52 98 53 6
0 22 -19 36 -42z m26 37 c-3 -3 -12 -4 -19 -1 -8 3 -5 6 6 6 11 1 17 -2 13 -5z
m2317 -107 c-2 -68 -5 -84 -11 -68 -4 10 -7 11 -13 1 -5 -8 -8 -4 -7 12 1 15
7 24 14 21 9 -4 11 9 7 49 -4 32 -2 48 3 40 5 -6 8 -31 7 -55z m88 -87 c-5
-74 -8 -93 -12 -65 -4 35 8 180 16 173 1 -2 -1 -50 -4 -108z m-45 18 c-3 -7
-5 -2 -5 12 0 14 2 19 5 13 2 -7 2 -19 0 -25z m-190 -34 c-3 -3 -12 -4 -19 -1
-8 3 -5 6 6 6 11 1 17 -2 13 -5z m203 -29 c0 -8 -4 -15 -10 -15 -5 0 -10 7
-10 15 0 8 5 15 10 15 6 0 10 -7 10 -15z m16 -120 c-3 -27 -9 -76 -12 -107 -4
-32 -11 -58 -15 -58 -5 0 -9 8 -9 18 0 22 -72 147 -108 187 -15 17 -8 12 16
-9 23 -22 45 -49 48 -60 4 -11 11 -24 16 -30 5 -6 15 -20 23 -31 9 -11 14 -15
13 -10 -1 6 4 28 10 50 15 49 16 105 2 105 -5 0 -10 5 -10 11 0 8 5 7 16 -2
13 -10 15 -24 10 -64z m-62 39 c5 -14 4 -15 -9 -4 -17 14 -19 20 -6 20 5 0 12
-7 15 -16z m-29 -4 c3 -5 1 -10 -4 -10 -6 0 -11 5 -11 10 0 6 2 10 4 10 3 0 8
-4 11 -10z m-295 -26 c23 -9 37 -21 33 -27 -3 -5 -1 -7 5 -4 5 4 17 4 25 1 21
-8 13 -55 -33 -184 -41 -113 -63 -161 -92 -200 -26 -35 -190 -200 -199 -200
-13 0 -62 29 -70 41 -10 17 -42 -9 -35 -28 9 -22 -33 11 -56 44 -23 34 -48 91
-47 107 0 6 4 2 9 -9 8 -19 8 -19 15 -1 5 10 3 33 -3 50 -31 91 -18 168 44
262 80 121 285 196 404 148z m-973 -276 c-3 -8 -6 -5 -6 6 -1 11 2 17 5 13 3
-3 4 -12 1 -19z m1023 -318 c-8 -5 -19 -10 -25 -10 -5 0 -3 5 5 10 8 5 20 10
25 10 6 0 3 -5 -5 -10z m-176 -387 c-14 -11 -13 -15 11 -48 15 -19 30 -33 33
-30 3 3 -7 18 -22 34 -23 24 -25 30 -12 40 8 7 20 10 26 6 5 -3 47 22 93 57
45 35 88 68 96 73 12 7 13 -27 8 -236 -6 -219 2 -475 19 -598 l6 -44 -102 95
c-56 53 -113 102 -126 109 -22 12 -28 10 -62 -23 -20 -19 -66 -57 -102 -83
-36 -27 -68 -54 -72 -59 -13 -19 -19 1 -9 27 16 42 34 488 27 669 l-7 168 106
-72 c91 -63 104 -74 89 -85z m-1749 -741 c9 -51 24 -107 34 -125 10 -18 21
-44 25 -59 l6 -26 -128 -1 c-114 0 -125 1 -102 14 16 9 20 15 10 16 -8 0 -4 5
10 9 16 5 19 8 8 9 -14 1 -15 6 -9 29 41 132 64 202 68 202 2 0 1 -17 -2 -37
-5 -33 -4 -35 5 -13 6 13 9 34 6 46 -7 25 2 56 14 49 4 -2 11 19 15 48 l8 52
8 -60 c4 -33 14 -102 24 -153z m1799 -2 c15 -19 23 -37 19 -47 -5 -13 -2 -15
11 -10 13 5 29 -4 57 -35 39 -43 45 -65 29 -103 -6 -14 -8 -9 -5 21 3 35 -2
45 -31 77 -33 34 -64 41 -64 13 0 -6 -4 -5 -9 3 -6 9 -6 22 0 32 5 10 5 20 1
23 -10 6 -11 1 -18 -82 -6 -64 -6 -64 17 -52 19 11 21 10 15 -5 -5 -14 -2 -16
13 -12 15 3 17 0 13 -16 -4 -16 -2 -19 11 -14 23 9 42 -27 27 -51 -10 -15 -11
-15 -7 4 3 12 0 28 -5 35 -6 10 -8 -1 -4 -30 5 -51 -3 -72 -83 -205 -58 -95
-80 -112 -135 -102 -36 7 -59 27 -38 34 7 2 12 8 12 14 0 6 -9 3 -21 -8 -21
-19 -21 -18 -40 5 -17 20 -19 40 -19 160 1 83 6 147 13 164 14 34 176 197 195
197 7 0 10 5 7 10 -14 23 15 8 39 -20z m-440 -107 c-15 -21 -31 -40 -35 -43
-7 -5 -53 -154 -64 -208 l-7 -32 -490 2 -491 3 -47 152 c-40 130 -44 153 -31
156 9 3 281 5 605 6 l589 1 -29 -37z m57 -5 c-6 -18 -15 -69 -21 -113 -7 -44
-15 -100 -18 -125 l-7 -45 -45 4 c-53 3 -52 3 -43 26 6 18 7 18 14 -1 7 -18 8
-17 8 3 1 12 6 25 12 29 7 4 9 0 5 -14 -10 -29 12 -38 23 -10 l10 23 1 -25 c4
-45 25 114 25 182 0 36 3 61 7 55 5 -8 9 -6 12 6 4 9 8 24 11 33 3 9 8 14 11
11 3 -3 1 -21 -5 -39z m1889 38 c0 -2 -16 -37 -35 -78 -35 -73 -71 -211 -60
-229 4 -5 -200 -9 -539 -9 l-546 0 0 33 c0 17 -7 72 -15 121 -8 49 -12 93 -9
97 3 5 0 9 -6 9 -7 0 -9 8 -5 21 5 13 3 19 -3 15 -5 -3 -12 1 -16 9 -5 13 69
15 614 15 341 0 620 -2 620 -4z m-1947 -108 c-6 -35 -11 -44 -17 -37 -7 8 6
69 15 69 5 0 6 -15 2 -32z m7 -63 c0 -8 -4 -15 -10 -15 -5 0 -7 7 -4 15 4 8 8
15 10 15 2 0 4 -7 4 -15z m-33 -52 c-3 -10 -5 -4 -5 12 0 17 2 24 5 18 2 -7 2
-21 0 -30z m-1207 -91 c-34 -4 -37 -20 -19 -84 l10 -38 57 0 58 0 23 -87 c13
-49 25 -95 28 -103 3 -13 -11 -15 -94 -13 l-98 1 -66 174 c-37 95 -70 181 -74
191 -6 15 1 17 73 17 53 0 83 4 88 12 5 8 14 -2 25 -27 l18 -40 -29 -3z m3367
54 c2 -1 -7 -27 -19 -57 -11 -30 -31 -92 -44 -139 -12 -47 -30 -106 -40 -132
l-16 -48 -89 0 c-74 0 -87 2 -83 15 4 8 9 13 13 11 4 -3 7 3 8 12 0 9 8 46 18
82 l17 65 61 0 c61 0 62 1 79 35 9 19 18 46 20 60 2 21 -2 26 -24 28 -30 4
-31 5 -22 49 6 29 6 29 62 25 32 -2 58 -5 59 -6z m-3627 -132 c0 -2 -7 -4 -15
-4 -8 0 -15 4 -15 10 0 5 7 7 15 4 8 -4 15 -8 15 -10z m50 -96 c13 -51 14 -65
4 -61 -8 3 -16 -7 -23 -29 -5 -18 -10 -26 -10 -17 -1 9 4 29 9 46 8 21 7 46
-4 90 -8 34 -11 65 -7 68 3 4 8 -1 10 -12 2 -10 11 -48 21 -85z m-43 51 c2
-16 -1 -19 -9 -11 -5 5 -7 15 -4 21 10 15 12 14 13 -10z m1118 -4 c328 6 375
3 375 -24 1 -14 2 -14 14 2 18 23 21 22 23 -13 2 -26 0 -29 -16 -20 -27 14
-30 4 -16 -56 17 -72 45 -112 156 -223 136 -135 177 -167 192 -151 9 10 9 14
0 17 -15 5 -18 23 -4 23 15 0 22 -30 11 -50 -8 -15 -5 -22 12 -34 12 -8 26
-13 31 -9 5 3 3 10 -4 15 -10 7 -8 8 7 3 16 -4 46 11 115 59 52 36 114 84 139
106 25 23 54 49 65 58 11 9 32 33 45 52 13 19 39 50 57 69 30 31 41 51 28 51
-9 0 -55 -52 -73 -82 -9 -16 -19 -28 -22 -28 -3 0 -15 18 -28 40 -23 41 -53
59 -32 19 11 -19 10 -20 -9 -9 -17 8 -21 8 -19 -2 2 -7 -2 -12 -7 -11 -6 1
-12 -7 -12 -18 -1 -12 3 -17 10 -13 7 4 6 1 -2 -7 -10 -11 -15 -11 -18 -1 -3
6 -9 12 -14 12 -6 0 -6 -8 1 -19 7 -14 7 -22 -2 -27 -7 -4 -8 -3 -4 4 4 7 3
12 -3 12 -5 0 -13 -5 -16 -11 -4 -6 -13 -8 -21 -5 -8 3 -14 -1 -14 -8 0 -7
-15 -24 -34 -37 -19 -13 -33 -26 -30 -30 2 -4 -3 -12 -11 -19 -7 -6 -13 -17
-11 -23 1 -7 1 -9 -1 -4 -8 13 -23 8 -23 -8 0 -8 -5 -15 -11 -15 -6 0 -8 -9
-3 -22 9 -31 9 -31 36 -17 l23 12 -19 -22 c-11 -12 -27 -20 -35 -19 -9 2 -20
-2 -26 -8 -5 -7 -20 -15 -32 -18 -20 -7 -21 -4 -16 28 3 22 2 36 -5 36 -5 0
-12 9 -15 21 -4 16 -11 19 -29 14 -17 -5 -19 -4 -8 4 12 8 12 13 -4 30 -10 11
-23 18 -27 15 -5 -3 -6 3 -2 12 5 14 3 16 -11 11 -11 -5 -15 -3 -10 5 5 8 1 9
-12 4 -15 -6 -16 -4 -7 5 12 12 10 17 -31 49 -18 14 -18 13 -12 -10 l7 -25
-15 25 c-8 14 -13 28 -10 31 2 3 -10 18 -26 33 -17 14 -30 23 -30 19 -1 -5 -9
2 -19 14 -10 12 -22 19 -26 15 -5 -4 -5 -1 -1 6 5 8 1 21 -10 33 -14 16 -20
17 -33 6 -14 -10 -14 -10 -3 4 7 9 10 24 6 32 -8 22 320 -312 335 -340 14 -28
28 -29 36 -4 6 20 39 56 220 242 92 95 104 111 110 151 l7 46 466 -5 c257 -2
475 -4 485 -3 12 0 17 -8 18 -32 1 -31 1 -32 9 -8 4 14 8 18 9 10 0 -8 -17
-80 -39 -160 -22 -80 -52 -193 -67 -252 l-27 -106 -65 -12 c-225 -39 -477
-116 -624 -191 -45 -22 -127 -71 -182 -108 -55 -36 -105 -69 -112 -74 -8 -5
-9 0 0 23 14 37 1 63 -33 68 -64 10 -90 -24 -90 -116 1 -106 86 -249 195 -330
53 -39 60 -42 63 -25 2 11 -6 43 -17 72 -22 59 -22 59 66 36 113 -29 325 -13
483 37 163 52 285 126 295 180 16 81 18 83 75 86 30 2 52 1 50 -2 -3 -3 -27
-6 -53 -7 -41 -2 -47 -5 -47 -25 0 -12 -3 -30 -7 -40 -4 -12 -3 -15 5 -10 7 4
12 2 12 -4 0 -7 6 -10 14 -7 50 20 28 -214 -33 -348 -10 -22 -26 -60 -36 -85
-10 -25 -24 -59 -31 -77 -8 -17 -14 -35 -14 -41 0 -19 -115 -266 -133 -284
-17 -17 -47 -98 -47 -125 0 -30 -20 -40 -21 -11 0 13 -3 17 -6 11 -6 -16 -23
-17 -23 -1 0 7 -12 25 -27 40 -21 22 -36 28 -69 28 -46 0 -68 14 -28 18 36 3
56 27 51 59 l-4 28 -8 -32 c-5 -25 -13 -33 -29 -33 -13 0 -17 3 -9 8 6 4 16
19 21 33 14 35 -12 35 -28 0 -36 -76 -97 -230 -89 -225 12 7 12 4 -5 -58 -28
-101 -54 -173 -90 -252 -36 -76 -113 -216 -125 -226 -4 -3 -21 -27 -38 -55
-32 -51 -46 -95 -57 -176 -4 -25 -16 -56 -26 -67 -11 -12 -20 -26 -20 -32 0
-5 -3 -10 -7 -10 -11 0 -94 -80 -118 -113 -11 -15 -23 -27 -27 -27 -13 0 -9
28 5 33 7 2 8 8 3 13 -5 5 -11 4 -13 -3 -5 -15 -33 -18 -33 -4 0 9 30 25 43
23 4 -1 7 2 7 8 0 5 -17 10 -37 10 -57 0 -70 13 -36 36 15 10 31 17 36 16 4
-1 7 2 7 8 0 5 9 10 19 10 23 0 30 16 25 55 -1 16 2 32 8 36 5 3 10 23 11 43
1 36 11 48 20 24 2 -7 8 -10 12 -6 4 4 3 13 -2 20 -6 7 -7 22 -3 33 7 19 8 18
15 -5 5 -14 8 -49 6 -77 -2 -47 0 -53 18 -53 16 0 18 4 11 28 -22 75 -39 164
-33 179 6 15 7 15 14 -3 7 -17 8 -17 8 4 1 13 10 26 24 32 40 17 60 38 54 59
-3 13 4 28 19 42 13 12 24 27 24 33 0 5 -25 -15 -56 -45 -55 -54 -114 -140
-114 -169 0 -8 -7 -28 -15 -44 -8 -15 -15 -36 -15 -46 0 -69 -78 -152 -198
-212 -85 -42 -89 -43 -187 -42 -82 0 -190 15 -284 40 -9 2 4 -5 28 -17 25 -12
55 -21 68 -21 12 -1 21 -4 18 -7 -2 -4 33 -15 78 -25 45 -10 97 -22 116 -28
21 -7 36 -7 40 -1 8 14 81 26 81 15 0 -14 64 -22 120 -15 36 4 47 9 43 19 -4
10 0 12 11 8 9 -3 16 -11 16 -16 0 -6 8 -8 18 -5 58 18 238 65 240 62 4 -4
-107 -40 -200 -65 -95 -24 -297 -28 -410 -6 -89 18 -229 61 -283 89 -172 87
-409 309 -531 497 -63 99 -149 276 -174 360 -12 41 -33 113 -47 158 -21 71
-23 87 -13 107 8 15 10 39 7 62 -7 38 -82 215 -149 348 -57 112 -78 194 -78
299 0 75 16 257 23 262 1 1 50 -1 109 -4 84 -4 105 -7 101 -18 -3 -8 -9 -11
-14 -8 -5 3 -9 -2 -9 -10 0 -9 -6 -15 -12 -13 -9 1 -12 -11 -10 -43 3 -55 19
-97 39 -104 20 -8 92 4 100 17 4 6 1 7 -7 2 -9 -6 -11 -4 -5 5 6 10 4 12 -8 7
-16 -6 -41 11 -50 35 -2 7 -8 9 -13 5 -5 -4 -2 -12 5 -16 8 -5 10 -14 6 -21
-5 -8 -4 -11 3 -6 6 3 13 2 16 -3 9 -14 -38 -22 -49 -8 -6 7 -6 9 -1 5 14 -11
28 -10 21 2 -11 18 -16 117 -6 100 5 -8 7 -18 5 -22 -3 -4 2 -5 11 -1 12 4 13
8 5 13 -8 5 -9 17 -2 41 7 24 10 28 11 12 2 -36 39 -112 68 -139 100 -93 435
-178 623 -159 36 4 104 15 152 25 51 10 85 13 81 7 -11 -17 -31 -127 -24 -131
3 -2 31 12 61 32 109 74 176 190 187 324 5 63 4 68 -21 91 -28 26 -66 38 -96
30 -24 -6 -31 -47 -13 -73 18 -25 10 -25 -25 -1 -64 44 -192 121 -249 150
-181 91 -478 178 -703 206 -63 8 -115 15 -115 15 0 88 -7 146 -29 230 -22 88
-72 262 -92 320 -4 13 15 14 158 7 90 -4 303 -6 473 -2z m-1045 -163 c0 -7 -4
-10 -10 -7 -5 3 -10 16 -10 28 0 18 2 19 10 7 5 -8 10 -21 10 -28z m1485 18
c3 -5 1 -10 -4 -10 -6 0 -11 5 -11 10 0 6 2 10 4 10 3 0 8 -4 11 -10z m-1502
-41 c7 -1 15 -1 20 0 4 0 7 -4 7 -10 0 -8 -13 -10 -37 -5 -21 3 -94 7 -163 7
-69 1 -110 4 -92 6 21 3 32 10 33 21 1 15 2 15 6 0 4 -16 18 -18 104 -18 96 0
99 1 100 23 l2 22 4 -22 c2 -13 10 -24 16 -24z m2133 -84 c-3 -8 0 -16 7 -19
7 -3 1 -3 -12 0 -20 5 -23 3 -17 -11 5 -14 4 -16 -7 -6 -12 9 -17 5 -27 -21
-8 -18 -17 -38 -22 -45 -12 -15 -41 -5 -34 13 3 9 -1 11 -12 8 -12 -4 -11 -2
3 7 11 6 39 32 62 56 24 26 46 42 53 38 6 -4 9 -13 6 -20z m-2168 -57 c-13 -3
-40 -6 -60 -7 -21 -1 -38 -4 -38 -8 0 -5 -27 -9 -60 -9 -74 -1 -72 4 6 15 55
7 52 8 -41 8 -55 0 -90 -2 -77 -4 12 -3 22 -9 22 -14 0 -6 -4 -7 -10 -4 -6 3
-7 -1 -4 -9 4 -11 0 -16 -15 -16 -20 0 -25 9 -22 37 1 8 -5 10 -16 7 -15 -5
-16 -4 -3 5 10 7 71 10 178 9 90 -2 153 -6 140 -10z m72 -48 c-5 -29 -10 -90
-10 -137 l0 -84 -235 1 c-138 1 -235 5 -235 11 0 5 5 9 11 9 5 0 7 5 4 10 -3
6 -3 20 0 31 6 17 9 19 16 8 6 -11 9 -10 15 4 3 9 4 24 1 32 -4 8 1 37 9 66
l15 51 22 -20 c12 -11 32 -25 45 -31 15 -8 22 -21 22 -41 0 -20 5 -30 15 -30
23 0 18 -18 -7 -23 -13 -2 -3 -5 22 -7 25 -2 35 -5 23 -7 -13 -2 -23 -9 -23
-14 0 -5 49 -9 111 -9 71 0 108 4 104 10 -3 6 -30 11 -58 12 l-52 1 50 7 c28
4 40 8 28 8 -13 1 -23 6 -23 11 0 6 10 17 23 26 21 15 22 14 28 -12 5 -23 7
-20 8 17 0 25 5 60 10 78 6 20 6 30 0 27 -5 -4 -9 -1 -9 4 0 6 -15 11 -32 12
-24 1 -16 5 31 15 36 8 67 16 69 19 11 11 12 -4 2 -55z m1926 -5 c-4 -12 0
-14 19 -9 14 3 25 2 25 -4 0 -12 -28 -24 -40 -17 -4 3 -13 -2 -20 -10 -22 -27
-28 -16 -11 20 15 33 39 51 27 20z m-221 -5 c3 -5 1 -10 -4 -10 -6 0 -11 5
-11 10 0 6 2 10 4 10 3 0 8 -4 11 -10z m-1785 -34 c0 -22 -12 -26 -53 -19 -42
6 -48 19 -14 26 47 9 67 7 67 -7z m1774 5 c3 -5 -1 -11 -9 -14 -9 -4 -12 -1
-8 9 6 16 10 17 17 5z m-1109 -271 c277 -49 375 -74 537 -137 65 -25 117 -47
116 -48 -2 -1 -104 12 -228 31 -185 27 -405 51 -617 67 l-33 2 38 58 c30 46
41 56 57 52 11 -4 70 -15 130 -25z m2607 -27 c32 -41 34 -49 20 -54 -9 -3 -82
-9 -162 -13 -190 -8 -387 -31 -530 -62 -149 -31 -163 -30 -65 7 125 47 314 95
499 128 92 16 171 32 174 35 13 14 30 3 64 -41z m-2915 -16 c2 -2 -8 -28 -21
-57 -14 -30 -30 -92 -37 -142 l-12 -88 -423 0 c-233 0 -424 2 -424 5 0 3 23
64 50 135 28 71 50 134 50 139 0 6 41 12 93 14 105 5 718 -1 724 -6z m3640 3
c180 0 193 -1 193 -18 0 -23 40 -139 73 -215 l26 -57 -415 2 -416 3 -2 95 c-2
73 -7 106 -24 144 -12 27 -22 51 -22 54 0 3 88 2 197 -1 108 -4 283 -7 390 -7z
m-670 -166 c-3 -3 -12 -4 -19 -1 -8 3 -5 6 6 6 11 1 17 -2 13 -5z m-72 -14
c-11 -5 -29 -8 -40 -8 -16 0 -15 2 5 8 34 11 60 11 35 0z m75 -102 c0 -51 -4
-88 -8 -82 -7 12 -4 174 4 174 2 0 4 -42 4 -92z m-2683 60 c-3 -8 -6 -5 -6 6
-1 11 2 17 5 13 3 -3 4 -12 1 -19z m2258 -44 c-38 -36 -86 -74 -105 -84 -86
-44 -335 -84 -427 -70 -125 20 -243 69 -243 101 0 5 57 9 130 9 164 0 309 15
430 45 52 13 133 31 179 39 47 9 87 18 89 21 3 3 8 5 11 5 3 -1 -25 -30 -64
-66z m-1925 12 c190 -38 328 -54 518 -62 94 -4 172 -10 172 -13 -2 -37 -100
-72 -260 -92 -99 -13 -213 -2 -343 33 -84 22 -125 46 -208 121 -42 38 -48 47
-28 43 13 -3 80 -16 149 -30z m-1280 -175 c0 -7 -48 -166 -99 -326 -21 -66
-42 -132 -45 -147 l-6 -28 -155 0 -154 0 15 48 c8 26 17 58 20 72 3 14 12 34
20 45 13 17 16 18 24 5 8 -12 10 -10 11 10 1 25 1 30 -8 63 -4 13 -1 16 12 11
15 -6 16 -4 6 14 -7 12 -8 22 -3 22 5 0 9 6 10 13 2 38 15 74 30 85 9 7 18 18
18 25 1 7 2 18 3 25 0 7 6 10 12 6 8 -4 9 1 4 17 l-7 24 17 -22 c13 -19 14
-29 5 -63 -6 -22 -7 -46 -3 -53 4 -6 8 -14 9 -17 14 -45 18 -50 45 -50 16 0
29 -3 29 -7 0 -5 7 -16 15 -26 13 -18 14 -18 39 0 14 10 26 25 26 33 0 13 2
13 9 1 6 -9 6 -24 0 -38 -5 -14 -9 -30 -8 -36 0 -7 6 4 13 23 8 21 11 58 8 91
-3 41 0 66 12 89 21 43 20 50 -4 50 -11 0 -20 7 -20 15 0 7 -8 19 -17 24 -14
8 -1 11 50 9 37 0 67 -4 67 -7z m3616 -88 c-10 -130 -31 -193 -158 -473 -14
-30 -30 -66 -36 -80 -7 -16 -11 -19 -11 -9 -1 9 6 33 14 53 8 20 15 39 14 42
0 4 4 10 9 13 10 7 53 96 83 176 11 28 24 59 29 70 21 46 41 135 47 212 3 46
8 83 11 83 3 0 2 -39 -2 -87z m-2915 -337 c21 -41 22 -45 6 -61 -20 -20 -23
-32 -4 -16 18 14 27 4 27 -28 0 -14 14 -53 30 -86 l29 -60 -21 -22 c-26 -28
-66 -29 -116 -4 -54 28 -83 64 -98 122 -18 70 -4 125 48 184 38 43 42 45 58
30 10 -9 28 -36 41 -59z m3039 17 c80 -91 81 -191 3 -265 -58 -55 -114 -61
-168 -18 -21 17 -31 30 -23 30 8 0 24 24 37 58 12 31 29 72 36 89 8 18 12 39
9 46 -5 14 50 97 65 97 5 0 23 -17 41 -37z m-3302 -255 c56 -102 119 -154 216
-179 50 -12 126 1 126 21 0 28 18 4 33 -42 9 -29 25 -71 36 -92 l20 -39 -136
6 c-75 4 -414 7 -754 7 l-617 0 56 170 57 169 40 4 c22 2 235 4 473 5 l434 0
16 -30z m4462 -110 c26 -73 54 -150 63 -170 l16 -38 -707 -1 c-389 -1 -724 -3
-746 -5 -43 -3 -42 -11 -5 94 22 63 23 64 53 57 117 -25 168 -14 241 55 51 49
65 70 85 124 l11 29 471 -6 472 -6 46 -133z m-1476 -53 c-28 -87 -96 -260
-121 -309 -34 -68 -126 -217 -131 -212 -2 3 15 36 38 73 24 37 43 76 42 86 0
10 4 15 10 11 6 -4 8 2 3 17 -4 15 -3 19 2 11 12 -16 45 51 37 75 -5 15 -4 16
6 3 10 -13 11 -11 7 8 -3 12 -2 20 3 17 8 -5 35 60 82 195 16 47 31 91 34 99
2 8 7 12 9 9 3 -2 -7 -40 -21 -83z m-507 53 c-3 -8 -6 -5 -6 6 -1 11 2 17 5
13 3 -3 4 -12 1 -19z m-14 -68 c-5 -19 -23 -29 -23 -12 0 7 20 32 26 32 1 0 0
-9 -3 -20z m-3227 -287 c-3 -10 -17 -56 -31 -103 -14 -47 -38 -123 -54 -170
-16 -47 -45 -143 -66 -215 -20 -71 -43 -146 -50 -166 -8 -20 -11 -39 -8 -43 4
-3 -70 -6 -164 -6 l-171 0 30 108 c16 59 30 112 31 119 0 7 5 9 10 6 6 -4 8 0
4 9 -3 9 1 27 8 41 7 14 10 29 7 33 -4 5 0 3 8 -3 13 -10 16 -8 17 8 1 11 -3
17 -8 13 -11 -6 -5 25 17 91 l14 40 -4 -40 c-2 -22 -2 -34 1 -26 5 11 7 11 14
0 8 -12 11 -11 19 1 9 13 11 13 20 0 8 -12 10 -11 10 8 0 12 -4 22 -9 22 -5 0
-12 12 -14 28 -4 25 -4 25 -6 -5 0 -18 -6 -33 -12 -33 -7 0 -8 11 -4 31 5 22
4 29 -4 25 -14 -9 -14 -11 3 44 8 25 15 36 15 25 1 -11 6 -27 12 -35 7 -11 8
-4 4 25 -5 30 -4 36 4 25 8 -12 11 -8 11 17 0 17 -4 34 -10 38 -5 3 -2 14 8
26 9 11 16 23 15 27 -1 4 6 15 14 25 14 14 32 17 112 15 l96 -2 -80 -3 c-44
-2 -84 -8 -90 -14 -15 -15 14 -29 60 -27 l40 1 -40 7 c-36 6 -32 7 30 10 65 2
133 15 110 20 -8 2 11 7 78 19 5 0 6 -7 3 -16z m3546 -95 c-7 -7 -12 -8 -12
-2 0 14 12 26 19 19 2 -3 -1 -11 -7 -17z m-72 -157 c0 -13 -79 -114 -133 -170
-86 -89 -257 -221 -342 -263 -44 -22 -74 -34 -67 -26 7 9 41 30 77 47 65 32
148 94 139 104 -3 3 3 4 13 4 10 -1 17 4 15 11 -1 8 2 11 9 6 8 -4 9 0 4 15
-4 13 -2 21 5 21 6 0 8 -4 5 -10 -11 -17 11 -11 39 11 14 11 23 26 19 32 -3 7
-3 9 2 5 11 -10 127 103 121 119 -3 8 1 10 11 6 12 -5 15 -2 10 10 -4 10 -2
16 5 14 7 -1 12 11 12 30 0 17 4 29 9 26 4 -3 6 -12 2 -21 -5 -13 -2 -12 15 3
11 10 18 25 15 32 -2 8 0 11 5 8 6 -3 10 -10 10 -14z m-670 -45 c0 -2 -7 -7
-16 -10 -8 -3 -12 -2 -9 4 6 10 25 14 25 6z m-1877 -23 c-167 -2 -439 -2 -605
0 -167 1 -31 2 302 2 333 0 469 -1 303 -2z m2960 0 c-51 -2 -135 -2 -185 0
-51 1 -10 3 92 3 102 0 143 -2 93 -3z m1070 0 c-84 -2 -222 -2 -305 0 -84 1
-16 3 152 3 168 0 236 -2 153 -3z m-845 -10 c-16 -2 -40 -2 -55 0 -16 2 -3 4
27 4 30 0 43 -2 28 -4z m295 0 c-45 -2 -122 -2 -170 0 -48 1 -11 3 82 3 94 0
133 -2 88 -3z m-1723 -263 c0 -5 -5 -10 -11 -10 -5 0 -7 5 -4 10 3 6 8 10 11
10 2 0 4 -4 4 -10z m-130 -104 c0 -11 -19 -15 -25 -6 -3 5 1 10 9 10 9 0 16
-2 16 -4z m-97 -50 c4 -10 1 -13 -8 -9 -8 3 -12 9 -9 14 7 12 11 11 17 -5z
m-233 -6 c8 -5 11 -10 5 -10 -5 0 -17 5 -25 10 -8 5 -10 10 -5 10 6 0 17 -5
25 -10z m2855 -75 c220 -4 424 -9 454 -13 l54 -7 27 -80 c15 -44 41 -111 59
-149 17 -38 31 -70 31 -71 0 -1 -18 -5 -41 -9 -23 -4 -89 -22 -148 -41 -204
-65 -207 -66 -401 -54 -96 5 -240 17 -320 25 -192 19 -891 36 -1360 32 l-376
-3 3 55 c1 30 5 103 9 163 l6 107 131 1 c143 0 331 11 497 29 108 12 711 27
880 23 52 -2 275 -5 495 -8z m-3675 -10 c285 -17 502 -35 512 -41 4 -3 8 -75
8 -160 l0 -154 -122 -1 c-68 -1 -375 -3 -682 -5 -308 -2 -621 -8 -695 -14
-482 -37 -578 -43 -686 -43 -117 0 -124 1 -258 46 -77 26 -147 47 -157 47 -29
0 -30 10 -9 75 10 33 33 106 50 163 l32 102 886 0 c651 0 948 -4 1121 -15z
m657 -48 c-7 -5 -4 -6 9 -3 11 4 58 -5 105 -20 91 -27 119 -31 314 -43 l130
-8 -85 -4 c-140 -6 -231 -4 -236 4 -7 9 -42 9 -48 -1 -10 -16 13 -35 46 -38
18 -1 47 -5 63 -8 17 -3 62 -8 100 -12 78 -7 98 -14 42 -14 -20 0 -39 -4 -42
-10 -3 -5 -25 -9 -48 -9 -39 1 -40 2 -12 8 21 5 9 7 -40 7 -56 0 -64 -1 -40
-9 17 -5 104 -10 195 -12 193 -3 195 -5 191 -103 -1 -40 4 -72 18 -104 21 -49
85 -118 110 -118 12 0 13 -35 8 -237 -6 -240 -15 -328 -44 -415 -8 -26 -13
-54 -10 -62 8 -20 -137 -28 -453 -24 l-255 3 -22 110 c-35 170 -57 599 -34
643 7 14 11 103 11 266 0 242 0 246 20 234 14 -9 16 -15 7 -21z m899 -209 c0
-134 4 -285 8 -336 5 -56 5 -97 -1 -103 -12 -12 -42 86 -31 103 5 8 8 3 8 -16
0 -41 6 -30 13 24 4 30 3 38 -3 25 -14 -32 -16 41 -9 375 2 140 5 170 13 170
1 0 2 -109 2 -242z m-70 197 c-11 -8 -24 -15 -29 -15 -4 0 -6 -4 -3 -9 4 -5
-2 -7 -12 -5 -9 3 -44 -2 -77 -10 -32 -9 -75 -15 -95 -15 -33 2 -33 2 -5 6 50
7 185 42 203 52 26 16 39 12 18 -4z m-224 -86 c17 -9 18 -13 7 -20 -19 -12
-206 -11 -214 1 -4 6 23 10 74 10 47 0 81 4 81 10 0 13 26 13 52 -1z m66 -67
c3 -11 0 -12 -14 -4 -11 5 -26 7 -34 5 -13 -4 -13 -3 0 6 19 14 42 10 48 -7z
m-135 1 c-13 -2 -33 -2 -45 0 -13 2 -3 4 22 4 25 0 35 -2 23 -4z m134 -110
c-3 -10 -5 -2 -5 17 0 19 2 27 5 18 2 -10 2 -26 0 -35z m30 0 c-3 -10 -5 -2
-5 17 0 19 2 27 5 18 2 -10 2 -26 0 -35z m200 -525 c-2 -18 -4 -4 -4 32 0 36
2 50 4 33 2 -18 2 -48 0 -65z m-1464 -109 c18 -132 206 -364 401 -493 88 -58
232 -126 312 -146 159 -41 366 -43 527 -6 137 32 359 168 478 293 126 132 209
272 209 351 l0 37 121 0 120 0 -5 -30 c-24 -124 -199 -429 -249 -430 -7 -1
-11 -6 -10 -11 1 -6 -26 -37 -59 -70 -34 -32 -56 -51 -49 -41 8 10 9 17 3 17
-11 0 -27 -19 -27 -32 0 -4 -45 -36 -100 -72 -55 -36 -105 -69 -110 -74 -37
-31 -175 -85 -275 -107 -177 -40 -302 -50 -428 -36 -196 22 -322 61 -449 138
-40 25 -77 41 -83 38 -6 -4 -9 -1 -8 6 2 6 -3 14 -11 17 -9 3 -11 0 -6 -8 5
-9 4 -11 -4 -6 -6 4 -9 11 -6 16 3 5 -5 16 -17 24 -27 19 -42 21 -32 4 4 -7 5
-11 1 -8 -3 3 -6 10 -7 15 -3 15 -21 35 -32 35 -6 0 -4 -8 3 -17 13 -16 12
-17 -3 -4 -10 7 -16 17 -13 21 3 5 -19 28 -47 51 -93 76 -169 152 -219 219
-63 83 -146 244 -155 300 l-7 42 39 -6 c30 -5 139 3 185 13 4 0 9 -18 12 -40z
m1447 -46 c-11 -17 -11 -17 -6 0 3 10 7 35 8 55 l1 37 4 -37 c2 -21 -1 -46 -7
-55z m-1907 50 c-13 -2 -35 -2 -50 0 -16 2 -5 4 22 4 28 0 40 -2 28 -4z m1904
-95 c-3 -8 -6 -5 -6 6 -1 11 2 17 5 13 3 -3 4 -12 1 -19z m-1917 -66 c78 -57
129 -106 196 -187 49 -60 66 -77 138 -137 31 -26 38 -29 32 -13 -5 13 7 6 33
-20 23 -21 41 -44 41 -50 0 -5 -14 5 -31 23 -16 18 -33 30 -38 27 -15 -9 -41
6 -41 23 0 8 -3 13 -6 9 -3 -3 1 -26 9 -50 11 -33 12 -48 4 -56 -8 -8 -8 -11
1 -11 7 0 12 -6 12 -14 0 -8 9 -18 20 -21 17 -5 26 -29 21 -57 0 -5 4 -8 9 -8
6 0 8 10 5 23 -27 119 -26 134 8 115 12 -7 25 -12 28 -11 3 1 18 -9 34 -22 24
-22 26 -27 14 -42 -13 -16 -12 -17 2 -5 14 11 20 8 42 -17 14 -17 28 -27 32
-23 5 4 5 2 2 -4 -4 -6 5 -26 18 -44 14 -19 25 -37 25 -41 0 -5 11 -20 25 -35
14 -15 25 -32 25 -38 0 -6 -7 0 -16 12 -8 12 -20 22 -26 22 -6 0 -17 8 -25 17
-13 16 -14 15 -8 -11 l6 -29 -40 36 c-23 20 -42 37 -44 37 -1 0 -3 -14 -3 -31
-2 -29 -32 -69 -52 -69 -6 0 -17 -11 -25 -24 -15 -22 -14 -24 10 -35 17 -8 28
-9 32 -2 7 10 33 -1 33 -13 -1 -4 -12 -18 -27 -32 -14 -13 -21 -24 -15 -24 6
0 8 -5 5 -10 -9 -14 -56 22 -50 38 8 22 -5 34 -21 21 -11 -9 -25 -1 -68 42
-71 70 -117 129 -110 140 3 5 -1 7 -8 4 -12 -4 -59 50 -114 129 -42 62 -163
306 -168 341 -1 8 -5 18 -9 21 -12 12 -8 36 5 28 8 -5 9 -2 4 12 -5 10 -10 30
-11 42 -4 30 -15 42 -15 17 0 -10 -3 -16 -6 -12 -3 3 -3 19 1 36 9 43 29 40
105 -17z m1907 1 c-3 -10 -5 -4 -5 12 0 17 2 24 5 18 2 -7 2 -21 0 -30z m1483
-8 c395 -16 656 -112 769 -281 21 -33 29 -55 26 -73 -4 -20 -3 -22 3 -7 7 16
12 11 29 -30 39 -92 45 -120 34 -156 l-11 -33 5 36 c3 19 -1 53 -9 75 -12 33
-15 35 -16 14 -1 -15 -4 -19 -7 -10 -14 42 -17 44 -24 10 -7 -31 -8 -30 -5 12
2 26 1 50 -3 53 -7 8 -44 -132 -44 -168 0 -16 -3 -24 -6 -18 -16 25 -101 -198
-173 -454 -20 -71 -51 -139 -90 -197 -21 -31 -43 -69 -48 -83 l-10 -25 -623 0
-623 0 4 67 c2 38 10 101 18 142 8 40 14 83 14 95 0 44 58 143 126 214 140
147 201 221 246 301 17 31 36 63 43 71 12 16 53 114 80 195 16 48 38 146 52
227 l6 38 51 -5 c28 -2 112 -7 186 -10z m-3666 -17 c3 -13 7 -74 9 -136 l5
-114 47 -48 c27 -27 67 -59 89 -71 31 -16 55 -42 94 -105 70 -110 203 -274
286 -351 36 -35 62 -63 56 -63 -6 0 -10 -38 -10 -98 0 -95 -1 -101 -31 -143
-18 -24 -54 -67 -80 -96 -27 -28 -49 -61 -49 -72 l0 -21 -824 0 -823 0 8 43
c4 24 13 93 19 153 14 133 55 432 75 534 29 157 68 242 153 332 146 155 314
222 642 257 58 6 119 13 135 15 17 1 67 4 112 5 78 1 83 0 87 -21z m3328 -65
c-2 -29 -1 -34 7 -23 6 8 11 10 11 4 0 -6 -9 -19 -20 -29 -11 -10 -20 -29 -20
-42 0 -12 -4 -23 -9 -23 -11 0 -8 -61 4 -80 5 -8 4 -11 -3 -6 -17 10 -53 -35
-46 -57 4 -11 2 -17 -3 -14 -6 4 -15 -5 -22 -19 -14 -31 -14 -37 -1 -29 6 3
10 1 10 -5 0 -7 -6 -10 -14 -7 -8 3 -17 1 -20 -6 -3 -7 -3 -1 0 13 4 14 17 47
30 74 13 28 24 55 24 62 0 7 6 19 13 26 7 7 13 22 13 33 0 28 37 165 44 165 3
0 4 -17 2 -37z m59 -18 c5 4 9 -1 9 -9 0 -10 -6 -13 -15 -10 -8 4 -14 16 -14
28 1 17 2 17 6 3 2 -9 9 -15 14 -12z m-3247 -188 c13 -31 22 -57 19 -57 -3 0
0 -7 7 -15 9 -10 9 -15 1 -15 -6 0 -11 5 -11 11 0 5 -5 7 -11 3 -9 -5 -10 1
-5 21 6 24 5 27 -7 17 -12 -10 -14 -8 -11 15 4 38 -5 70 -16 53 -6 -9 -10 -6
-15 9 -4 13 -5 25 -2 27 3 3 -1 29 -9 57 -21 79 -15 80 11 2 13 -39 35 -96 49
-128z m1993 137 c-3 -3 -12 -4 -19 -1 -8 3 -5 6 6 6 11 1 17 -2 13 -5z m1141
-267 c-1 -15 -9 -22 -23 -23 l-21 -2 20 24 c26 29 26 29 24 1z m-94 -61 c-3
-14 -10 -26 -15 -26 -12 0 -11 4 3 35 14 31 21 26 12 -9z m1306 -26 c0 -5 -4
-10 -10 -10 -5 0 -10 5 -10 10 0 6 5 10 10 10 6 0 10 -4 10 -10z m-1280 -34
c0 -5 -7 -3 -15 4 -8 7 -12 17 -9 22 7 10 24 -9 24 -26z m-56 -10 c6 -24 4
-28 -10 -22 -12 5 -15 2 -10 -9 4 -11 2 -14 -6 -9 -7 5 -9 2 -5 -9 4 -11 2
-14 -8 -11 -8 4 -15 -5 -20 -25 -4 -19 -11 -29 -18 -24 -7 4 -8 0 -4 -11 4
-10 1 -19 -8 -22 -14 -6 -45 -58 -45 -77 0 -5 -11 -18 -25 -29 -14 -11 -22
-24 -19 -30 4 -7 2 -8 -4 -4 -7 4 -12 3 -12 -1 0 -5 -15 -24 -34 -43 -23 -24
-30 -37 -23 -42 8 -5 6 -8 -5 -8 -35 0 -28 22 29 84 32 35 94 122 138 194 44
71 80 129 81 128 1 0 4 -14 8 -30z m1411 -126 l3 -45 -7 40 c-12 62 -22 85
-35 78 -6 -3 -6 0 2 8 6 7 13 22 13 34 2 27 19 -58 24 -115z m-1450 0 c-3 -5
-12 -10 -18 -10 -7 0 -6 4 3 10 19 12 23 12 15 0z m-2166 -65 c0 -5 -3 -4 -6
3 -2 6 -9 12 -15 12 -6 0 -7 -8 -4 -17 4 -10 3 -14 -1 -9 -4 4 -8 21 -8 37 l0
29 17 -23 c10 -12 17 -26 17 -32z m15 29 c3 -8 2 -12 -4 -9 -6 3 -10 10 -10
16 0 14 7 11 14 -7z m3583 -36 c-3 -7 -5 -2 -5 12 0 14 2 19 5 13 2 -7 2 -19
0 -25z m42 -37 c5 -29 5 -49 1 -44 -9 9 -23 109 -15 101 3 -3 9 -29 14 -57z
m-3585 -6 c-5 -11 -2 -13 11 -9 16 6 16 5 -1 -14 -10 -12 -19 -22 -19 -22 -1
0 2 55 4 58 5 10 9 -1 5 -13z m-124 -49 c0 -3 -4 -8 -10 -11 -5 -3 -10 -1 -10
4 0 6 5 11 10 11 6 0 10 -2 10 -4z m186 -23 c-7 -7 -26 7 -26 19 0 6 6 6 15
-2 9 -7 13 -15 11 -17z m-278 8 c-2 -5 6 -17 17 -25 11 -8 16 -16 10 -16 -5 0
-23 11 -39 25 -27 23 -28 25 -8 25 12 0 21 -4 20 -9z m82 -16 c6 -4 10 -12 9
-18 -4 -32 1 -37 27 -27 18 7 23 7 18 -1 -5 -8 1 -10 17 -6 14 4 38 3 54 -2
l30 -8 -40 -8 c-36 -7 -37 -9 -16 -17 13 -5 22 -11 19 -13 -4 -5 -48 12 -136
52 -19 8 -31 17 -28 21 3 3 -1 13 -10 23 -16 17 -15 18 14 14 17 -2 36 -6 42
-10z m3751 -141 c10 -82 19 -158 19 -168 0 -36 -10 -10 -15 40 -8 71 -24 202
-31 249 -4 22 -3 37 0 34 4 -4 16 -74 27 -155z m-3576 126 c3 -5 2 -10 -4 -10
-5 0 -13 5 -16 10 -3 6 -2 10 4 10 5 0 13 -4 16 -10z m-400 -55 c39 -32 29
-32 -15 0 -19 14 -30 25 -24 25 5 -1 23 -12 39 -25z m2225 19 c0 -11 -37 -53
-42 -49 -6 7 -83 -54 -83 -65 0 -5 -4 -12 -9 -17 -5 -5 -6 -2 -1 6 5 9 3 12
-6 9 -8 -3 -13 -10 -12 -16 2 -7 -4 -9 -14 -5 -14 5 -11 11 17 32 19 14 57 45
85 68 48 40 65 50 65 37z m-1699 -40 c22 -25 22 -26 3 -16 -12 6 -24 18 -28
27 -8 21 -3 19 25 -11z m1706 -6 c-3 -8 -6 -5 -6 6 -1 11 2 17 5 13 3 -3 4
-12 1 -19z m-1832 -18 c8 -13 -15 -13 -35 0 -12 8 -11 10 7 10 12 0 25 -4 28
-10z m-310 -20 c3 -5 1 -10 -4 -10 -6 0 -11 5 -11 10 0 6 2 10 4 10 3 0 8 -4
11 -10z m490 -19 c-6 -5 -25 10 -25 20 0 5 6 4 14 -3 8 -7 12 -15 11 -17z
m-110 9 c13 -5 14 -9 5 -9 -8 0 -24 4 -35 9 -13 5 -14 9 -5 9 8 0 24 -4 35 -9z
m58 -17 c-7 -2 -19 -2 -25 0 -7 3 -2 5 12 5 14 0 19 -2 13 -5z m1502 -43 c-4
-7 -34 -25 -67 -40 -32 -15 -55 -30 -51 -32 4 -3 2 -3 -5 -2 -7 2 -41 -9 -75
-25 -34 -16 -77 -32 -94 -36 -19 -4 -33 -13 -33 -21 0 -8 -7 -17 -15 -20 -21
-8 -19 -34 3 -36 9 0 23 -2 30 -2 7 -1 17 -8 22 -16 8 -12 49 -16 227 -20 120
-3 -305 -5 -945 -6 -639 -1 -1161 0 -1160 2 2 1 156 4 343 7 187 3 348 8 358
12 9 4 17 14 17 22 0 10 8 13 29 10 17 -3 34 -7 38 -10 5 -3 15 -2 23 3 11 7
8 10 -11 15 -14 3 -29 5 -35 4 -18 -3 -37 1 -31 8 4 3 2 12 -4 19 -8 10 -5 11
13 7 19 -4 20 -3 8 7 -12 10 -10 11 10 6 313 -74 769 -70 1067 9 88 23 274
104 318 138 22 17 31 15 20 -3z m169 4 c3 -8 2 -12 -4 -9 -6 3 -10 10 -10 16
0 14 7 11 14 -7z m-1879 -54 c3 -6 -1 -7 -9 -4 -18 7 -21 14 -7 14 6 0 13 -4
16 -10z m72 -26 c-3 -3 -12 -4 -19 -1 -8 3 -5 6 6 6 11 1 17 -2 13 -5z m127
-40 c76 -22 78 -23 34 -21 -27 1 -48 5 -48 8 0 3 -18 11 -40 18 -21 6 -42 17
-46 23 -5 7 -3 8 6 3 7 -4 49 -18 94 -31z m3483 -76 c-2 -13 -4 -3 -4 22 0 25
2 35 4 23 2 -13 2 -33 0 -45z m13 -55 c0 -7 -4 -13 -10 -13 -5 0 -10 6 -10 13
0 8 -3 7 -10 -3 -5 -8 -12 -11 -17 -7 -9 9 11 24 32 24 8 0 15 -6 15 -14z
m-60 -3 c0 -6 -35 -9 -87 -8 l-88 2 85 6 c47 3 86 7 88 8 1 1 2 -2 2 -8z
m-287 -7 c-24 -2 -62 -2 -85 0 -24 2 -5 4 42 4 47 0 66 -2 43 -4z"/>
<path d="M5450 9130 c-9 -6 -10 -10 -3 -10 6 0 15 5 18 10 8 12 4 12 -15 0z"/>
<path d="M5466 9085 c4 -8 8 -15 10 -15 2 0 4 7 4 15 0 8 -4 15 -10 15 -5 0
-7 -7 -4 -15z"/>
<path d="M5581 8924 c0 -11 3 -14 6 -6 3 7 2 16 -1 19 -3 4 -6 -2 -5 -13z"/>
<path d="M5601 8924 c0 -11 3 -14 6 -6 3 7 2 16 -1 19 -3 4 -6 -2 -5 -13z"/>
<path d="M5616 8905 c-3 -9 -10 -13 -16 -10 -5 3 -10 -2 -10 -13 0 -33 13 -33
27 -1 7 18 12 34 9 36 -2 2 -6 -3 -10 -12z"/>
<path d="M5622 8840 c0 -19 2 -27 5 -17 2 9 2 25 0 35 -3 9 -5 1 -5 -18z"/>
<path d="M5112 8474 c3 -3 52 -7 108 -9 56 -2 108 -9 116 -15 7 -7 18 -9 23
-6 5 4 12 2 16 -4 3 -5 14 -10 23 -10 33 0 -6 22 -65 36 -56 13 -232 20 -221
8z"/>
<path d="M5078 8463 c7 -3 16 -2 19 1 4 3 -2 6 -13 5 -11 0 -14 -3 -6 -6z"/>
<path d="M5018 8443 c7 -3 16 -2 19 1 4 3 -2 6 -13 5 -11 0 -14 -3 -6 -6z"/>
<path d="M4856 8371 c-11 -13 -14 -21 -7 -26 6 -3 14 1 17 9 3 9 9 14 13 11 4
-2 8 2 8 10 0 20 -11 19 -31 -4z"/>
<path d="M4797 8334 c-3 -3 -3 -12 0 -20 4 -10 9 -11 24 -1 10 6 19 15 19 19
0 9 -34 11 -43 2z"/>
<path d="M3194 8601 c4 -6 -3 -15 -16 -20 -16 -7 -18 -10 -6 -10 9 -1 19 3 23
9 3 5 12 7 20 3 23 -8 18 5 -6 18 -15 8 -19 8 -15 0z"/>
<path d="M3180 8524 c0 -8 5 -12 10 -9 6 3 10 10 10 16 0 5 -4 9 -10 9 -5 0
-10 -7 -10 -16z"/>
<path d="M3230 8496 c0 -9 5 -16 10 -16 6 0 10 4 10 9 0 6 -4 13 -10 16 -5 3
-10 -1 -10 -9z"/>
<path d="M3153 8440 c0 -25 2 -35 4 -22 2 12 2 32 0 45 -2 12 -4 2 -4 -23z"/>
<path d="M3180 8440 c0 -36 3 -40 24 -40 35 0 43 20 18 41 -12 9 -22 22 -22
28 0 6 -4 11 -10 11 -5 0 -10 -18 -10 -40z"/>
<path d="M3311 8394 c0 -11 3 -14 6 -6 3 7 2 16 -1 19 -3 4 -6 -2 -5 -13z"/>
<path d="M3146 8311 c-7 -11 18 -33 27 -24 4 3 7 12 7 20 0 15 -26 18 -34 4z"/>
<path d="M3280 8265 c0 -14 6 -25 14 -25 9 0 12 8 8 25 -2 14 -8 25 -13 25 -5
0 -9 -11 -9 -25z"/>
<path d="M3100 8215 c0 -5 5 -17 10 -25 5 -8 10 -10 10 -5 0 6 -5 17 -10 25
-5 8 -10 11 -10 5z"/>
<path d="M3100 8151 c0 -6 4 -13 10 -16 6 -3 7 1 4 9 -7 18 -14 21 -14 7z"/>
<path d="M3180 8146 c0 -8 5 -18 10 -21 6 -3 10 3 10 14 0 12 -4 21 -10 21 -5
0 -10 -6 -10 -14z"/>
<path d="M3361 8123 l-1 -43 -40 0 c-22 0 -40 -4 -40 -10 0 -15 69 -12 84 3
10 9 11 25 6 53 l-8 39 -1 -42z"/>
<path d="M3392 8140 c0 -14 2 -19 5 -12 2 6 2 18 0 25 -3 6 -5 1 -5 -13z"/>
<path d="M3144 8041 c1 -17 26 -28 26 -11 0 6 -4 9 -9 5 -5 -3 -11 0 -14 7 -2
9 -4 8 -3 -1z"/>
<path d="M3191 8014 c0 -11 3 -14 6 -6 3 7 2 16 -1 19 -3 4 -6 -2 -5 -13z"/>
<path d="M3320 7990 c0 -5 6 -10 14 -10 8 0 17 -6 19 -12 4 -10 6 -10 6 0 1 6
10 12 22 12 11 0 17 5 14 10 -3 6 -22 10 -41 10 -19 0 -34 -4 -34 -10z"/>
<path d="M3191 7974 c0 -11 3 -14 6 -6 3 7 2 16 -1 19 -3 4 -6 -2 -5 -13z"/>
<path d="M3236 7787 c3 -10 9 -15 12 -12 3 3 0 11 -7 18 -10 9 -11 8 -5 -6z"/>
<path d="M3462 6930 c0 -14 2 -19 5 -12 2 6 2 18 0 25 -3 6 -5 1 -5 -13z"/>
<path d="M3482 6840 c0 -14 2 -19 5 -12 2 6 2 18 0 25 -3 6 -5 1 -5 -13z"/>
<path d="M5114 8194 c-4 -10 -18 -45 -31 -76 -14 -31 -23 -63 -20 -70 3 -9 7
-7 12 7 4 11 18 49 32 83 13 35 22 66 19 69 -3 3 -8 -3 -12 -13z"/>
<path d="M5031 7998 c-5 -18 -12 -45 -15 -61 -3 -15 -7 -37 -11 -50 -5 -17 -4
-18 4 -7 10 17 41 143 36 148 -2 2 -8 -12 -14 -30z"/>
<path d="M4985 7821 c-4 -23 -5 -44 -3 -46 7 -8 24 65 17 76 -4 7 -10 -7 -14
-30z"/>
<path d="M4851 7804 c0 -11 3 -14 6 -6 3 7 2 16 -1 19 -3 4 -6 -2 -5 -13z"/>
<path d="M4867 7786 c-9 -24 -9 -26 6 -23 6 1 11 -3 10 -9 -1 -7 7 -14 19 -17
20 -6 20 -6 0 16 -11 12 -21 29 -24 36 -3 12 -6 11 -11 -3z"/>
<path d="M5023 7375 c-7 -8 -9 -16 -4 -20 5 -3 12 -1 16 5 4 6 12 7 18 3 7 -4
6 0 -2 10 -16 20 -13 20 -28 2z"/>
<path d="M5324 7365 c-15 -14 -22 -25 -16 -25 6 0 14 5 17 10 3 6 13 10 21 10
9 0 12 -5 8 -12 -5 -7 -3 -8 6 -3 8 5 11 3 8 -6 -3 -8 -12 -13 -22 -11 -9 2
-16 -2 -16 -9 0 -6 -7 -8 -16 -5 -10 4 -14 2 -11 -6 2 -7 -5 -24 -17 -37 l-21
-25 32 23 c18 12 35 26 38 31 4 6 15 10 26 10 16 0 19 6 17 35 -3 44 -21 51
-54 20z"/>
<path d="M5066 7334 c-3 -7 3 -18 14 -24 13 -7 20 -6 22 2 3 7 10 8 17 4 11
-7 11 -10 0 -17 -8 -5 -9 -9 -4 -9 6 0 16 4 23 8 8 6 0 15 -27 29 -32 17 -41
19 -45 7z"/>
<path d="M5265 7320 c-8 -13 3 -30 18 -30 8 0 7 3 -2 9 -7 5 -10 14 -7 20 4 6
5 11 2 11 -3 0 -8 -4 -11 -10z"/>
<path d="M4960 6124 c0 -8 5 -12 10 -9 6 3 10 10 10 16 0 5 -4 9 -10 9 -5 0
-10 -7 -10 -16z"/>
<path d="M4987 6055 c-4 -8 -2 -17 3 -20 6 -4 10 -4 10 -1 0 2 3 11 6 20 3 9
2 16 -4 16 -5 0 -12 -7 -15 -15z"/>
<path d="M5535 6460 c-4 -6 -11 -8 -16 -5 -5 4 -9 -1 -9 -10 0 -8 7 -18 16
-22 13 -5 13 -7 2 -14 -10 -7 -10 -9 0 -9 6 0 12 -8 12 -18 0 -10 6 -27 14
-37 12 -17 14 -15 20 19 4 20 4 42 0 48 -5 7 -2 9 9 5 9 -3 18 -1 20 6 2 7 2
1 0 -11 -2 -13 0 -21 5 -18 5 3 15 -20 22 -52 7 -31 16 -70 21 -87 14 -51 0
50 -18 128 -13 56 -20 70 -40 78 -32 12 -50 11 -58 -1z m52 -16 c-3 -3 -12 -4
-19 -1 -8 3 -5 6 6 6 11 1 17 -2 13 -5z"/>
<path d="M5611 6340 c0 -8 4 -24 9 -35 5 -13 9 -14 9 -5 0 8 -4 24 -9 35 -5
13 -9 14 -9 5z"/>
<path d="M5603 6273 c1 -23 5 -39 9 -35 4 4 3 23 -2 42 l-8 35 1 -42z"/>
<path d="M5541 6284 c0 -11 3 -14 6 -6 3 7 2 16 -1 19 -3 4 -6 -2 -5 -13z"/>
<path d="M5581 6284 c0 -11 3 -14 6 -6 3 7 2 16 -1 19 -3 4 -6 -2 -5 -13z"/>
<path d="M5568 6183 c6 -2 18 -2 25 0 6 3 1 5 -13 5 -14 0 -19 -2 -12 -5z"/>
<path d="M6644 5896 c-3 -13 -3 -30 1 -35 8 -14 72 -14 80 -1 4 6 11 8 16 5 5
-4 9 4 10 17 0 22 1 22 9 3 9 -20 9 -19 10 22 0 4 -27 9 -59 11 -57 3 -61 2
-67 -22z m96 -6 c0 -5 -2 -10 -4 -10 -3 0 -8 5 -11 10 -3 6 -1 10 4 10 6 0 11
-4 11 -10z"/>
<path d="M5657 6024 c-8 -8 1 -24 14 -24 5 0 9 7 9 15 0 15 -12 20 -23 9z"/>
<path d="M5546 5995 c4 -8 10 -15 15 -15 4 0 6 7 3 15 -4 8 -10 15 -15 15 -4
0 -6 -7 -3 -15z"/>
<path d="M6410 5955 c-15 -18 -5 -34 11 -18 6 6 19 9 28 5 14 -5 14 -4 2 11
-17 21 -25 21 -41 2z"/>
<path d="M5505 5926 c-20 -20 -29 -40 -17 -32 7 4 12 1 12 -9 0 -9 5 -13 10
-10 6 3 10 1 10 -6 0 -10 3 -10 12 -1 10 10 10 15 1 20 -6 4 -13 17 -14 28 -3
16 -7 19 -14 10z"/>
<path d="M6366 5848 c-62 -173 -98 -285 -101 -310 -2 -23 1 -28 18 -28 16 0
18 3 9 12 -22 22 -12 29 10 8 13 -12 24 -16 26 -10 2 5 8 8 13 4 5 -3 9 0 9 5
0 6 5 10 11 9 13 -3 32 52 22 61 -3 4 -8 0 -10 -6 -5 -15 -33 -18 -33 -4 0 5
12 12 26 15 l27 7 -5 87 c-3 48 -3 75 -1 60 2 -16 9 -28 14 -28 5 0 10 -10 10
-22 1 -18 3 -17 9 7 4 17 5 42 2 57 -4 25 8 89 24 132 3 9 1 16 -5 16 -6 0
-11 -10 -11 -22 0 -13 -5 -30 -10 -38 -9 -13 -11 -13 -20 0 -5 8 -9 22 -9 30
0 10 3 8 9 -5 6 -13 9 -15 9 -5 0 8 -3 21 -8 28 -6 10 -17 -9 -35 -60z m44
-23 c-7 -8 -10 -22 -6 -30 3 -9 2 -13 -4 -10 -11 7 -13 38 -3 48 13 14 25 7
13 -8z m-53 -97 c-3 -7 -5 -2 -5 12 0 14 2 19 5 13 2 -7 2 -19 0 -25z m-50
-145 c-3 -10 -5 -4 -5 12 0 17 2 24 5 18 2 -7 2 -21 0 -30z"/>
<path d="M6451 5885 c-7 -20 -11 -39 -8 -41 7 -7 30 53 25 66 -2 6 -9 -5 -17
-25z"/>
<path d="M6401 5664 c0 -11 3 -14 6 -6 3 7 2 16 -1 19 -3 4 -6 -2 -5 -13z"/>
<path d="M6233 5515 c-10 -11 -9 -15 9 -20 17 -6 18 -9 7 -17 -11 -8 -10 -8 4
-4 10 3 25 6 33 6 8 0 14 5 14 10 0 6 -11 10 -24 10 -14 0 -26 6 -28 14 -2 12
-5 12 -15 1z"/>
<path d="M3956 5015 c4 -8 10 -15 15 -15 5 0 9 -7 9 -17 0 -9 3 -13 7 -10 8 8
-17 57 -28 57 -5 0 -6 -7 -3 -15z"/>
<path d="M6280 4830 c-8 -5 -12 -12 -9 -15 4 -3 12 1 19 10 14 17 11 19 -10 5z"/>
<path d="M6192 4780 c-41 -18 -52 -41 -24 -46 7 -1 8 0 2 3 -16 8 -12 23 8 23
9 0 28 9 42 20 31 25 26 25 -28 0z"/>
<path d="M6061 4575 c1 -19 18 -51 18 -35 0 8 -4 22 -9 30 -5 8 -9 11 -9 5z"/>
<path d="M6035 4510 c-4 -12 -5 -24 -2 -27 3 -2 8 5 12 17 4 12 5 24 2 27 -3
2 -8 -5 -12 -17z"/>
<path d="M5981 4354 c0 -11 3 -14 6 -6 3 7 2 16 -1 19 -3 4 -6 -2 -5 -13z"/>
<path d="M5951 4274 c0 -11 3 -14 6 -6 3 7 2 16 -1 19 -3 4 -6 -2 -5 -13z"/>
<path d="M6002 4198 c3 -37 6 -42 23 -40 27 5 27 5 20 46 -5 27 -12 36 -27 36
-16 0 -19 -6 -16 -42z"/>
<path d="M5070 3864 c-82 -21 -180 -72 -192 -100 -9 -18 -7 -29 6 -49 22 -33
44 -32 141 7 70 27 92 31 180 32 95 1 104 -1 179 -37 92 -43 105 -45 134 -14
29 31 28 40 -9 72 -106 89 -295 127 -439 89z"/>
<path d="M5444 3344 c-4 -22 -2 -40 5 -47 8 -8 11 1 11 36 0 56 -7 61 -16 11z"/>
<path d="M5450 3176 c0 -8 5 -18 10 -21 6 -3 10 1 10 9 0 8 -4 18 -10 21 -5 3
-10 -1 -10 -9z"/>
<path d="M5361 3115 c-1 -13 19 -35 31 -35 4 0 8 5 8 10 0 6 -6 10 -14 10 -8
0 -17 6 -19 13 -3 6 -6 7 -6 2z"/>
<path d="M5408 3113 c7 -3 16 -2 19 1 4 3 -2 6 -13 5 -11 0 -14 -3 -6 -6z"/>
<path d="M3343 5675 c0 -8 4 -15 9 -15 4 0 8 7 8 15 0 8 -4 15 -8 15 -5 0 -9
-7 -9 -15z"/>
<path d="M3331 5624 c0 -11 3 -14 6 -6 3 7 2 16 -1 19 -3 4 -6 -2 -5 -13z"/>
<path d="M2981 5563 c18 -21 35 -40 37 -42 1 -2 2 14 2 37 0 42 0 42 -37 42
l-37 0 35 -37z"/>
<path d="M3020 5490 c0 -5 7 -10 15 -10 8 0 15 5 15 10 0 6 -7 10 -15 10 -8 0
-15 -4 -15 -10z"/>
<path d="M2933 5475 c2 -20 47 -36 47 -17 0 15 -30 23 -31 9 0 -7 -5 -3 -10 8
l-9 20 3 -20z"/>
<path d="M3067 5463 c18 -2 50 -2 70 0 21 2 7 4 -32 4 -38 0 -55 -2 -38 -4z"/>
<path d="M3203 5463 c15 -2 39 -2 55 0 15 2 2 4 -28 4 -30 0 -43 -2 -27 -4z"/>
<path d="M2915 4870 c-3 -5 1 -10 9 -10 10 0 16 -9 16 -22 l0 -21 20 23 c11
13 20 28 20 34 0 6 -5 4 -10 -4 -6 -10 -10 -11 -10 -2 0 14 -36 16 -45 2z"/>
<path d="M2694 4776 c-8 -33 -2 -58 16 -64 12 -4 13 -3 2 10 -7 9 -10 27 -6
47 8 36 -3 42 -12 7z"/>
<path d="M2920 4766 c0 -18 -2 -49 -5 -67 -5 -34 -5 -34 4 -4 15 50 20 105 10
105 -5 0 -9 -15 -9 -34z"/>
<path d="M2657 4740 c-3 -11 -3 -20 -1 -20 2 0 8 9 14 20 6 11 7 20 2 20 -6 0
-12 -9 -15 -20z"/>
<path d="M2657 4684 c-11 -11 -8 -44 3 -44 6 0 16 -11 22 -25 15 -34 26 -14
19 33 -6 35 -27 52 -44 36z"/>
<path d="M2727 4633 c-16 -15 -5 -23 33 -23 29 0 40 4 40 15 0 10 -10 15 -33
15 -19 0 -37 -3 -40 -7z"/>
<path d="M2748 4593 c12 -2 30 -2 40 0 9 3 -1 5 -23 4 -22 0 -30 -2 -17 -4z"/>
<path d="M2586 4514 c-4 -9 -4 -19 -1 -22 2 -3 7 3 11 12 4 9 4 19 1 22 -2 3
-7 -3 -11 -12z"/>
<path d="M2720 4440 c0 -5 7 -10 15 -10 8 0 15 5 15 10 0 6 -7 10 -15 10 -8 0
-15 -4 -15 -10z"/>
<path d="M2578 4433 c12 -2 32 -2 45 0 12 2 2 4 -23 4 -25 0 -35 -2 -22 -4z"/>
<path d="M6630 4376 c0 -8 5 -18 10 -21 6 -3 10 1 10 9 0 8 -4 18 -10 21 -5 3
-10 -1 -10 -9z"/>
<path d="M6621 4270 c-12 -22 -20 -40 -18 -40 7 0 48 72 44 76 -2 2 -14 -14
-26 -36z"/>
<path d="M2361 3686 c-24 -25 -21 -46 5 -46 8 0 14 9 14 20 0 11 5 20 10 20 6
0 10 -7 10 -15 0 -11 11 -15 40 -15 33 0 40 3 40 20 0 16 -7 20 -38 20 -21 0
-43 5 -48 10 -7 7 -18 2 -33 -14z"/>
<path d="M2516 3689 c3 -5 12 -9 21 -9 19 0 9 13 -12 16 -8 1 -13 -2 -9 -7z"/>
<path d="M2577 3673 c-4 -3 -7 -18 -6 -32 1 -26 1 -25 10 3 9 31 7 41 -4 29z"/>
<path d="M2601 3644 c0 -11 3 -14 6 -6 3 7 2 16 -1 19 -3 4 -6 -2 -5 -13z"/>
<path d="M2380 3586 c0 -8 5 -18 10 -21 6 -3 10 3 10 14 0 12 -4 21 -10 21 -5
0 -10 -6 -10 -14z"/>
<path d="M2480 3575 c0 -28 12 -32 30 -10 9 11 9 15 1 15 -7 0 -9 5 -6 10 3 6
-1 10 -9 10 -10 0 -16 -9 -16 -25z"/>
<path d="M2581 3564 c0 -11 3 -14 6 -6 3 7 2 16 -1 19 -3 4 -6 -2 -5 -13z"/>
<path d="M2490 3414 c0 -14 4 -23 9 -20 5 3 7 15 4 26 -7 28 -13 25 -13 -6z"/>
<path d="M2214 3287 c-1 -30 -1 -30 9 -9 6 14 7 26 1 32 -5 5 -9 -4 -10 -23z"/>
<path d="M2501 3300 c-1 -16 -4 -21 -9 -13 -5 8 -8 -2 -9 -24 l-1 -38 14 35
c8 19 13 41 11 49 -3 9 -5 5 -6 -9z"/>
<path d="M2293 3199 c-25 -8 -4 -16 55 -18 28 -1 52 2 52 7 0 12 -82 20 -107
11z"/>
<path d="M2203 3063 c9 -2 23 -2 30 0 6 3 -1 5 -18 5 -16 0 -22 -2 -12 -5z"/>
<path d="M2373 3063 c9 -2 23 -2 30 0 6 3 -1 5 -18 5 -16 0 -22 -2 -12 -5z"/>
<path d="M7978 2663 c7 -3 16 -2 19 1 4 3 -2 6 -13 5 -11 0 -14 -3 -6 -6z"/>
<path d="M8198 2663 c23 -2 61 -2 85 0 23 2 4 4 -43 4 -47 0 -66 -2 -42 -4z"/>
<path d="M3078 2653 c23 -2 61 -2 85 0 23 2 4 4 -43 4 -47 0 -66 -2 -42 -4z"/>
<path d="M3488 2643 c6 -2 18 -2 25 0 6 3 1 5 -13 5 -14 0 -19 -2 -12 -5z"/>
<path d="M3778 2643 c12 -2 32 -2 45 0 12 2 2 4 -23 4 -25 0 -35 -2 -22 -4z"/>
<path d="M4776 2836 l-28 -13 23 -6 c36 -10 81 -8 74 3 -3 5 -20 7 -38 3 -31
-5 -31 -5 -12 10 24 19 20 20 -19 3z"/>
<path d="M4728 2753 c7 -3 16 -2 19 1 4 3 -2 6 -13 5 -11 0 -14 -3 -6 -6z"/>
<path d="M4865 2720 c11 -5 29 -8 40 -8 16 0 15 2 -5 8 -34 11 -60 11 -35 0z"/>
<path d="M5621 2254 c0 -11 3 -14 6 -6 3 7 2 16 -1 19 -3 4 -6 -2 -5 -13z"/>
<path d="M5999 1463 l-34 -38 38 34 c34 33 42 41 34 41 -2 0 -19 -17 -38 -37z"/>
<path d="M4998 1123 c7 -3 16 -2 19 1 4 3 -2 6 -13 5 -11 0 -14 -3 -6 -6z"/>
<path d="M3633 1682 c-9 -6 -7 -15 8 -37 12 -17 18 -21 14 -10 -5 11 -8 28 -9
38 0 9 0 17 -1 17 0 0 -5 -4 -12 -8z"/>
<path d="M3846 1615 c4 -8 11 -15 16 -15 6 0 5 6 -2 15 -7 8 -14 15 -16 15 -2
0 -1 -7 2 -15z"/>
<path d="M3951 1388 c1 -35 6 -68 11 -75 12 -15 2 -33 -18 -33 -8 0 -14 -4
-14 -10 0 -5 7 -10 15 -10 8 0 15 5 15 10 0 6 11 15 24 19 22 9 23 12 14 67
-5 32 -7 63 -4 70 4 12 -14 24 -36 24 -5 0 -8 -26 -7 -62z"/>
<path d="M4179 1293 c-13 -16 -12 -17 4 -4 16 13 21 21 13 21 -2 0 -10 -8 -17
-17z"/>
<path d="M3897 1243 c-4 -3 -7 -11 -7 -17 0 -6 5 -5 12 2 6 6 9 14 7 17 -3 3
-9 2 -12 -2z"/>
<path d="M4250 1226 c0 -2 8 -10 18 -17 15 -13 16 -12 3 4 -13 16 -21 21 -21
13z"/>
<path d="M4141 1178 c0 -33 2 -38 9 -23 12 28 12 65 0 65 -5 0 -10 -19 -9 -42z"/>
<path d="M4050 1096 c0 -4 7 -14 15 -22 8 -9 15 -11 15 -6 0 5 -7 15 -15 22
-8 7 -15 9 -15 6z"/>
<path d="M4028 1070 c12 -11 24 -20 28 -20 4 0 -1 9 -11 20 -10 11 -23 20 -28
20 -6 0 -1 -9 11 -20z"/>
<path d="M4120 1025 c0 -2 10 -10 23 -16 20 -11 21 -11 8 4 -13 16 -31 23 -31
12z"/>
<path d="M4115 990 c3 -5 8 -10 11 -10 2 0 4 5 4 10 0 6 -5 10 -11 10 -5 0 -7
-4 -4 -10z"/>
<path d="M4350 860 c-18 -12 -2 -12 25 0 13 6 15 9 5 9 -8 0 -22 -4 -30 -9z"/>
<path d="M27 103 c-25 -4 -27 -8 -27 -54 0 -48 1 -49 30 -49 30 0 30 1 30 55
0 30 -1 54 -2 54 -2 -1 -15 -4 -31 -6z"/>
</g>
</svg>
