<?xml version="1.0" standalone="no"?>
<!DOCTYPE svg PUBLIC "-//W3C//DTD SVG 20010904//EN"
 "http://www.w3.org/TR/2001/REC-SVG-20010904/DTD/svg10.dtd">
<svg version="1.0" xmlns="http://www.w3.org/2000/svg"
 width="1024.000000pt" height="1024.000000pt" viewBox="0 0 1024.000000 1024.000000"
 preserveAspectRatio="xMidYMid meet">
<metadata>
Created by potrace 1.16, written by Peter Selinger 2001-2019
</metadata>
<g transform="translate(0.000000,1024.000000) scale(0.100000,-0.100000)"
fill="#000000" stroke="none">
<path d="M6785 9291 c-70 -18 -397 -177 -472 -230 -16 -11 -68 -45 -117 -76
-93 -59 -225 -156 -273 -201 -16 -15 -52 -47 -82 -73 -112 -97 -305 -339 -317
-398 l-6 -28 -487 0 -488 0 -23 40 c-53 93 -167 229 -277 331 -116 108 -218
196 -259 224 -244 170 -368 244 -559 337 -117 56 -146 66 -203 70 -53 3 -74 0
-101 -15 -59 -32 -59 -38 -3 -158 72 -156 82 -198 82 -335 0 -133 -13 -211
-64 -389 -99 -341 -152 -574 -171 -750 -4 -36 -27 -120 -51 -187 -75 -214
-104 -338 -113 -491 -6 -94 -17 -165 -34 -227 -14 -49 -35 -153 -46 -230 -12
-77 -40 -203 -63 -280 -46 -159 -141 -519 -169 -643 -11 -45 -42 -152 -69
-238 -128 -396 -145 -574 -67 -693 51 -77 278 -205 435 -245 54 -14 250 -44
319 -49 18 -1 33 -3 33 -5 0 -2 -23 -36 -50 -77 -106 -157 -180 -378 -180
-537 0 -33 11 -112 25 -174 l26 -113 -21 -70 c-12 -38 -25 -100 -28 -136 l-7
-67 -46 -17 c-92 -35 -216 -137 -309 -256 -122 -154 -302 -567 -316 -725 l-6
-65 -58 -2 c-125 -3 -259 -57 -379 -152 -50 -40 -189 -228 -233 -314 -52 -105
-90 -234 -95 -332 -11 -188 68 -353 190 -398 9 -4 1545 -7 3411 -7 3093 -1
3397 0 3433 15 106 44 138 121 131 314 -6 148 -30 236 -110 396 -133 264 -271
395 -483 455 -38 11 -91 20 -117 20 -53 0 -48 -9 -63 115 -18 139 -178 512
-281 656 -104 144 -221 244 -329 281 l-50 17 -6 69 c-7 69 -34 178 -49 197 -5
6 1 37 12 70 29 83 37 336 14 445 -23 108 -101 262 -183 363 -32 39 -29 47 15
47 20 0 73 6 117 14 300 53 525 173 603 321 26 49 27 54 26 225 -1 165 -2 181
-31 275 -17 55 -56 163 -88 240 -32 77 -75 190 -95 250 -53 154 -177 662 -202
825 -11 74 -31 167 -45 205 -17 48 -29 115 -38 210 -17 178 -32 249 -99 466
-30 96 -57 202 -61 235 -4 32 -20 127 -35 209 -15 83 -36 193 -45 245 -10 52
-33 148 -52 212 -76 268 -94 505 -49 673 14 50 38 119 55 155 17 36 31 74 31
86 0 29 -29 53 -86 70 -51 15 -73 16 -119 5z m-3438 -139 c71 -44 175 -105
232 -136 133 -73 319 -203 441 -306 174 -149 407 -389 385 -397 -5 -2 -71 -28
-145 -59 -74 -31 -142 -58 -151 -61 -11 -3 -22 14 -43 67 -58 147 -208 342
-460 599 -136 138 -155 166 -74 110 37 -27 48 -24 14 4 -16 12 -77 60 -136
108 -112 90 -160 122 -198 134 l-23 7 17 -34 c9 -18 32 -52 50 -75 19 -23 53
-74 75 -114 37 -65 42 -81 50 -173 16 -183 -8 -359 -97 -701 -33 -130 -27
-122 -94 -122 l-59 -1 5 32 c7 39 55 217 100 364 18 62 40 152 49 200 19 112
20 300 0 374 -8 31 -16 68 -19 82 -5 27 -54 103 -81 126 -9 7 -21 22 -26 32
-9 16 -6 18 26 18 26 0 67 -19 162 -78z m3560 35 c-80 -97 -127 -229 -134
-382 -7 -133 7 -245 52 -425 51 -207 87 -372 81 -378 -3 -2 -12 1 -21 8 -8 7
-24 10 -35 7 -10 -3 -24 1 -30 8 -12 15 -68 232 -106 415 -21 97 -27 156 -28
265 -1 171 12 239 70 363 39 82 54 132 39 132 -3 0 -13 -6 -22 -14 -145 -117
-194 -156 -217 -171 -15 -10 -24 -20 -21 -23 6 -7 -25 -42 -38 -42 -5 0 1 9
14 20 13 10 18 19 11 20 -7 0 -35 -22 -62 -49 -27 -27 -52 -46 -55 -43 -3 4
-3 -1 1 -11 4 -10 1 -17 -6 -17 -17 0 -120 -101 -114 -111 3 -5 -3 -12 -13
-16 -25 -9 -54 -41 -211 -236 -18 -22 -42 -59 -53 -81 -16 -34 -17 -37 -2 -16
10 13 39 51 65 83 25 32 53 68 62 80 8 12 15 17 15 12 1 -6 -6 -20 -14 -30
-96 -123 -173 -254 -190 -327 -6 -24 -11 -27 -34 -21 -14 3 -46 16 -71 28 -25
12 -82 35 -128 50 l-82 29 23 25 c13 14 42 52 65 83 158 215 431 430 818 645
87 49 184 106 214 126 50 34 61 37 123 37 l68 0 -34 -43z m-517 -360 c0 -2
-10 -12 -22 -23 l-23 -19 19 23 c18 21 26 27 26 19z m-40 -10 c0 -2 -15 -16
-32 -33 l-33 -29 29 33 c28 30 36 37 36 29z m-60 -92 c-24 -25 -46 -45 -49
-45 -3 0 15 20 39 45 24 25 46 45 49 45 3 0 -15 -20 -39 -45z m317 -52 c-3
-10 -5 -2 -5 17 0 19 2 27 5 18 2 -10 2 -26 0 -35z m-3114 -25 c4 -16 3 -28
-4 -30 -8 -3 -6 -10 5 -20 9 -9 16 -26 16 -37 0 -12 3 -21 8 -21 4 0 6 -88 4
-196 -3 -220 1 -236 70 -309 28 -31 50 -43 90 -52 47 -10 36 -11 -87 -6 -77 3
-164 6 -192 6 -29 0 -53 4 -53 7 0 4 18 78 39 166 56 228 71 315 73 435 2 79
5 103 13 95 7 -6 15 -23 18 -38z m2705 -17 c-7 -12 -16 -21 -21 -21 -4 0 0 11
10 24 22 29 30 27 11 -3z m392 -6 c5 14 9 -3 14 -50 18 -186 47 -323 104 -498
l28 -87 -55 0 c-31 0 -100 -3 -153 -7 -67 -4 -98 -3 -98 5 0 6 18 28 41 49 68
64 79 95 78 225 0 62 -4 147 -8 188 -4 41 -4 85 1 98 4 13 5 21 0 19 -4 -3 -6
14 -5 36 2 55 2 54 13 37 7 -12 10 -11 17 5 7 17 8 16 12 -10 3 -26 4 -27 11
-10z m-2015 -400 c100 -31 257 -49 430 -49 187 0 309 13 457 50 112 28 149 29
236 9 96 -23 245 -106 389 -217 72 -55 89 -87 98 -183 8 -85 24 -128 55 -148
11 -6 20 -14 20 -17 0 -3 -40 -5 -90 -4 -49 0 -84 -3 -77 -8 8 -5 4 -8 -10 -8
-13 0 -82 -23 -155 -52 -73 -29 -135 -52 -138 -53 -3 0 -10 -4 -17 -8 -6 -4
-14 -3 -18 3 -3 5 -12 10 -18 10 -7 0 -6 -4 3 -10 11 -7 8 -9 -15 -8 -28 0
-209 -72 -200 -80 2 -3 18 0 34 6 21 7 31 8 31 1 0 -6 5 -7 11 -3 8 4 7 9 -2
16 -11 7 -9 9 6 7 38 -3 56 1 50 11 -3 6 -3 10 2 11 4 0 19 3 33 5 l25 5 -23
-16 c-12 -9 -68 -39 -125 -67 -127 -64 -172 -70 -248 -35 -105 49 -143 57
-272 57 -133 0 -195 -12 -339 -62 -98 -34 -116 -33 -213 8 l-40 17 27 11 c27
11 27 12 -35 43 -176 91 -320 153 -342 147 -13 -3 -33 -1 -45 6 -29 15 -206
49 -272 52 l-53 2 36 35 c28 28 39 49 49 96 24 116 39 152 83 192 107 99 291
198 442 239 59 16 157 11 230 -11z m-596 -45 c11 -24 11 -24 -3 -6 -9 11 -16
24 -16 30 0 12 5 7 19 -24z m-651 -247 c182 -6 205 -17 65 -28 -51 -5 -83 -12
-83 -19 0 -6 -5 -4 -10 4 -5 8 -10 11 -10 5 0 -5 -14 -11 -31 -12 -17 -1 -37
-7 -44 -13 -6 -5 -15 -7 -19 -3 -4 4 -4 -1 0 -11 5 -13 4 -17 -3 -13 -17 11
-46 -130 -32 -155 7 -14 6 -16 -6 -12 -11 5 -15 -1 -15 -24 0 -28 -4 -32 -47
-45 -27 -7 -49 -13 -51 -11 -2 1 6 38 17 81 12 44 26 124 33 177 12 97 12 97
38 92 14 -4 103 -9 198 -13z m3602 -27 c0 -45 15 -125 42 -218 12 -43 20 -80
17 -82 -2 -2 -29 -1 -59 2 l-54 7 -18 70 c-10 39 -28 102 -39 141 l-21 72 -97
6 c-53 4 -125 10 -161 14 -62 7 -58 7 60 12 69 3 171 7 228 8 l102 2 0 -34z
m-3617 -43 c-7 -2 -19 -2 -25 0 -7 3 -2 5 12 5 14 0 19 -2 13 -5z m-136 -115
c-3 -7 -5 -2 -5 12 0 14 2 19 5 13 2 -7 2 -19 0 -25z m10 -40 c-3 -8 -6 -5 -6
6 -1 11 2 17 5 13 3 -3 4 -12 1 -19z m3666 -68 c5 -19 0 -20 -106 -20 -61 0
-108 2 -106 5 3 2 48 5 102 6 75 1 97 5 97 15 0 20 7 17 13 -6z m-3574 -16 c2
-2 -21 -4 -52 -4 -31 0 -57 4 -57 10 0 8 99 3 109 -6z m3739 -149 c7 -33 36
-132 63 -221 31 -100 55 -202 64 -274 18 -138 19 -158 4 -143 -5 5 -15 57 -20
114 -12 130 -15 151 -41 222 -18 51 -24 57 -48 57 -35 0 -46 13 -64 81 -21 77
-32 110 -46 141 l-13 28 -86 -6 c-47 -3 -99 -7 -115 -9 -27 -5 -86 21 -86 37
0 4 33 8 73 9 39 0 117 6 172 14 55 7 107 12 115 11 10 -1 19 -22 28 -61z
m-3783 40 c77 -8 148 -15 158 -15 10 0 15 -4 12 -10 -4 -6 -53 -10 -114 -10
l-108 0 -28 -82 c-49 -150 -64 -178 -94 -176 -35 2 -110 -12 -116 -22 -6 -10
5 -69 14 -68 3 0 27 0 54 -1 38 -1 47 -4 47 -18 0 -15 -2 -15 -9 -4 -7 11 -12
4 -19 -25 -21 -82 -32 -141 -36 -184 -4 -44 -4 -45 -42 -48 -21 -2 -43 -11
-49 -19 -20 -27 -24 -1 -14 78 28 219 41 292 60 334 22 51 63 187 74 248 9 44
2 43 210 22z m580 -66 c12 -35 29 -78 38 -95 12 -23 13 -34 5 -42 -8 -8 -7
-18 5 -36 24 -36 114 -102 93 -67 -3 5 0 11 8 14 9 4 12 0 9 -13 -4 -14 7 -22
56 -38 34 -11 61 -17 61 -13 0 7 -16 13 -95 36 -5 2 -1 4 9 4 10 1 46 -9 79
-21 46 -17 56 -23 41 -29 -10 -4 44 -6 121 -5 132 2 145 4 218 34 43 18 79 32
81 32 2 0 6 -22 10 -48 3 -26 13 -57 21 -69 14 -20 12 -21 -63 -48 -89 -31
-116 -56 -74 -67 32 -9 106 21 145 57 20 20 37 32 37 28 0 -5 -5 -14 -10 -19
-6 -6 -11 -28 -13 -50 -1 -21 -5 -41 -9 -44 -4 -4 -10 -20 -14 -37 -6 -30 -4
-32 75 -76 44 -25 95 -63 113 -84 47 -55 109 -113 162 -151 l45 -32 -6 -64
c-11 -123 15 -196 71 -196 32 0 36 15 36 125 0 136 4 150 59 182 25 15 50 26
54 25 5 -1 6 2 2 8 -3 5 3 22 13 38 11 15 20 29 20 32 0 18 28 96 37 102 5 4
19 8 30 8 15 0 17 -2 6 -9 -8 -5 3 -8 31 -7 29 1 57 9 80 26 31 21 35 27 27
48 -11 28 -11 35 -1 29 4 -3 5 18 3 45 -3 44 -1 50 13 45 14 -6 14 -4 -1 20
-16 24 -16 27 0 55 9 16 17 37 18 46 0 15 1 15 8 -1 6 -15 10 -12 29 22 l22
39 54 -18 c102 -36 168 -41 252 -19 114 30 188 72 270 153 58 57 76 83 94 133
29 80 39 89 74 62 74 -59 128 -216 129 -379 1 -106 -18 -203 -46 -232 -7 -7
-28 -38 -47 -68 -46 -72 -102 -134 -169 -183 -59 -44 -169 -97 -201 -97 -12 0
-18 -4 -15 -10 3 -5 19 -10 34 -10 68 0 127 -73 157 -192 17 -72 15 -90 -23
-163 -21 -40 -64 -86 -75 -79 -5 3 -7 0 -6 -7 2 -7 -37 -43 -87 -82 -49 -38
-105 -81 -124 -95 -48 -39 -91 -117 -92 -172 -1 -25 -5 -58 -9 -75 l-8 -30 -2
30 c-1 17 -1 40 0 53 1 12 -3 22 -8 22 -5 0 -7 24 -4 54 4 47 -1 64 -32 130
-58 120 -127 184 -278 255 -265 126 -420 125 -641 -4 -98 -58 -217 -175 -252
-249 -46 -98 -33 -204 24 -189 16 4 20 -6 30 -69 6 -40 14 -85 17 -100 l6 -28
-46 14 c-58 18 -109 56 -142 105 -18 29 -27 61 -35 132 -6 52 -16 100 -22 107
-5 7 -53 35 -106 62 -53 27 -127 74 -163 105 -129 106 -151 190 -89 337 35 84
58 105 139 129 l43 12 -33 14 c-18 8 -62 21 -98 29 -87 21 -167 73 -253 164
-97 104 -141 190 -146 288 -2 41 2 101 9 135 14 73 59 205 88 264 23 43 78 96
95 90 6 -2 20 -32 32 -68z m2305 60 c0 -6 -21 -40 -46 -75 -49 -69 -92 -97
-203 -136 -65 -22 -230 -42 -272 -33 -38 9 -35 32 6 54 186 101 230 123 276
142 64 25 185 58 217 58 12 1 22 -4 22 -10z m-2075 -14 c33 -9 92 -31 130 -50
91 -45 258 -148 262 -162 9 -25 -148 -32 -233 -9 -133 35 -229 104 -287 205
l-18 31 43 0 c24 0 71 -7 103 -15z m340 -43 c-3 -3 -11 0 -18 7 -9 10 -8 11 6
5 10 -3 15 -9 12 -12z m772 -108 c77 -16 201 -58 216 -73 5 -5 2 -22 -7 -39
-9 -17 -21 -66 -27 -109 -18 -134 -20 -139 -96 -186 -47 -30 -75 -64 -126
-157 -43 -79 -66 -103 -87 -90 -12 8 -11 10 5 10 17 0 18 2 5 11 -12 8 -11 9
5 5 16 -4 25 4 42 39 15 29 18 42 10 39 -8 -3 -14 2 -14 11 0 11 6 15 20 11
10 -2 16 -2 13 1 -3 3 13 28 36 55 34 41 66 68 142 120 6 4 7 10 4 13 -16 16
-188 -136 -188 -166 0 -5 -16 -9 -36 -9 -21 0 -33 -4 -29 -10 3 -6 -10 -1 -29
11 -29 17 -35 18 -30 5 3 -9 2 -16 -4 -16 -6 0 -12 6 -15 13 -7 21 -17 2 -10
-22 4 -16 8 -19 14 -10 4 8 11 10 15 7 3 -4 -1 -14 -9 -22 -14 -14 -17 -12
-27 20 -18 53 -70 106 -138 138 -51 24 -82 55 -82 81 0 6 138 -80 180 -112
l35 -27 -25 28 c-24 27 -122 96 -138 96 -4 1 -18 10 -31 20 -17 15 -30 46 -48
118 -13 53 -27 107 -30 119 -6 27 3 31 140 67 111 30 233 33 344 10z m-1251
-89 c15 -14 23 -25 17 -25 -5 0 -20 11 -33 25 -13 14 -21 25 -17 25 3 0 18
-11 33 -25z m3152 -123 c7 -5 16 -51 22 -118 6 -60 13 -121 16 -136 5 -26 3
-28 -28 -28 -33 0 -33 1 -55 80 -13 44 -32 100 -43 125 -21 46 -25 67 -13 78
9 10 85 8 101 -1z m-2417 -178 c5 -15 8 -29 5 -31 -2 -2 -8 10 -14 26 -13 38
-5 41 9 5z m439 -178 c0 -3 -4 -8 -10 -11 -5 -3 -10 -1 -10 4 0 6 5 11 10 11
6 0 10 -2 10 -4z m-2030 -30 l125 -13 -107 -2 c-92 -1 -107 -3 -112 -18 -3
-10 -13 -61 -22 -113 -9 -52 -22 -98 -28 -102 -6 -4 -31 -8 -55 -8 -37 0 -42
2 -36 18 10 26 45 209 45 238 0 24 3 26 33 20 17 -4 88 -13 157 -20z m4144
-108 c9 -54 21 -109 26 -123 6 -15 10 -27 10 -28 0 -7 -87 7 -96 14 -6 5 -14
39 -18 76 -4 36 -12 86 -19 109 l-11 44 -131 1 c-145 2 -134 6 70 23 123 10
141 9 146 -4 4 -8 14 -59 23 -112z m-4306 -238 c30 -5 110 -14 178 -21 226
-20 232 -29 16 -24 l-202 5 -19 -31 c-16 -27 -30 -107 -35 -214 -1 -5 -17 -12
-36 -15 -38 -5 -46 -25 -20 -48 13 -12 11 -13 -10 -8 -14 3 -29 6 -33 6 -10 0
-5 29 27 151 13 53 28 124 32 159 6 57 8 61 28 55 11 -3 45 -10 74 -15z m4366
-40 c4 -33 20 -110 35 -172 30 -120 28 -138 -15 -138 -26 0 -33 23 -11 37 8 5
2 9 -18 13 -29 5 -29 5 -49 125 -10 66 -24 124 -30 128 -6 4 -110 6 -231 3
-224 -4 -217 -1 51 24 67 7 148 18 180 25 33 7 64 13 70 14 7 0 14 -24 18 -59z
m-2297 -136 c-3 -3 -12 -4 -19 -1 -8 3 -5 6 6 6 11 1 17 -2 13 -5z m13 -24
c-41 -4 -88 -12 -104 -19 -16 -6 -31 -10 -33 -7 -11 11 90 34 147 34 l65 -1
-75 -7z m197 -6 c-3 -3 -12 -4 -19 -1 -8 3 -5 6 6 6 11 1 17 -2 13 -5z m-7
-149 c151 -35 231 -89 281 -190 18 -37 29 -73 26 -85 -3 -11 0 -20 5 -20 14 0
4 -99 -17 -168 -21 -68 -64 -110 -150 -146 -98 -41 -209 -46 -376 -17 -160 28
-208 44 -249 84 -42 41 -55 72 -71 172 -7 44 -16 83 -22 86 -15 10 53 135 99
183 45 48 127 92 194 105 72 14 210 12 280 -4z m-2417 -40 c20 -8 114 -21 223
-29 397 -32 469 -39 484 -47 20 -11 -33 -11 -195 0 -71 5 -212 13 -311 16
l-182 7 -10 -34 c-6 -18 -14 -75 -17 -126 -7 -90 -8 -93 -29 -88 -52 15 -76
18 -76 8 0 -5 21 -15 46 -21 26 -7 44 -14 41 -17 -3 -3 -21 -1 -41 4 -26 8
-36 7 -37 -1 0 -8 -2 -8 -6 1 -2 6 -9 9 -15 6 -6 -4 -8 1 -4 12 6 22 65 268
72 302 5 26 10 27 57 7z m4607 -62 c7 -43 25 -118 41 -166 33 -100 33 -101 19
-92 -5 3 -10 1 -10 -4 0 -6 -7 -11 -15 -11 -8 0 -15 4 -15 9 0 6 -9 8 -20 6
-11 -2 -20 0 -20 5 0 5 17 11 38 13 34 3 34 4 -10 5 l-47 2 -10 53 c-6 28 -13
75 -17 102 -12 93 -2 89 -198 81 -355 -13 -532 -15 -484 -6 43 7 291 28 552
45 54 4 115 13 135 20 20 8 39 14 42 14 3 1 12 -34 19 -76z m-1767 -250 c-4
-10 -2 -14 4 -10 8 5 8 -5 3 -30 -10 -42 -2 -96 12 -87 5 3 7 12 4 20 -7 18 8
18 23 0 10 -12 7 -18 -18 -31 -28 -14 -32 -14 -37 0 -3 8 -3 22 0 31 4 9 2 12
-5 8 -6 -4 -8 -20 -4 -40 4 -25 2 -34 -8 -34 -11 0 -12 11 -5 57 5 31 13 62
19 69 5 7 7 24 3 38 -4 16 -2 26 5 26 6 0 8 -7 4 -17z m1907 -201 c72 -194
102 -306 154 -576 15 -78 15 -81 -6 -124 -12 -24 -25 -45 -29 -48 -4 -2 -12
29 -19 68 -29 184 -65 352 -79 369 -14 17 -22 18 -76 9 -196 -33 -552 -70
-676 -70 -140 0 -229 8 -229 19 0 4 111 15 248 25 136 9 279 21 317 26 39 5
141 14 229 20 185 13 207 19 204 55 -1 14 -5 26 -8 26 -3 1 -18 3 -35 5 -38 4
-51 22 -58 83 -3 27 -16 76 -29 108 l-24 58 -49 -1 c-54 -2 -214 -16 -445 -39
-189 -19 -334 -20 -349 -2 -9 12 21 16 172 26 100 7 227 19 282 27 55 8 166
21 246 29 142 13 198 27 200 49 1 14 9 -7 59 -142z m-4854 124 c23 -17 58 -23
179 -31 50 -4 128 -13 175 -20 47 -8 175 -19 285 -25 110 -6 210 -13 223 -16
48 -10 8 -24 -70 -24 -68 0 -493 27 -705 45 -61 5 -61 5 -72 -25 -5 -17 -15
-67 -22 -113 -14 -93 -28 -115 -80 -119 -32 -2 -35 -4 -31 -26 6 -31 28 -38
142 -46 52 -4 167 -13 255 -21 88 -8 239 -19 335 -26 96 -6 204 -18 240 -25
60 -13 50 -13 -145 -9 -115 2 -259 9 -320 15 -394 37 -480 41 -491 25 -16 -22
-54 -220 -61 -320 -7 -106 -21 -122 -58 -67 -26 39 -26 40 -11 98 9 33 30 127
47 209 17 83 40 171 50 197 10 27 32 102 49 167 45 181 47 184 86 157z m1803
-375 c84 -71 274 -193 401 -259 69 -35 139 -73 156 -83 l32 -19 83 30 c114 42
244 109 358 184 99 65 191 146 191 168 0 7 3 8 9 2 4 -5 4 -51 -1 -104 -5 -52
-7 -105 -5 -117 2 -13 0 -23 -4 -23 -5 0 -9 -4 -9 -10 0 -5 9 -10 20 -10 27 0
70 -22 94 -49 22 -24 19 -88 -8 -141 -16 -32 -15 -34 9 -66 14 -18 25 -36 25
-41 0 -8 41 -59 75 -95 15 -15 13 -17 -27 -23 -74 -11 -188 -55 -338 -131
-173 -86 -284 -133 -405 -169 -144 -44 -159 -41 -480 119 -248 124 -372 176
-415 176 -26 0 -31 12 -12 29 22 19 112 157 112 171 0 5 -9 24 -20 42 -22 37
-26 85 -9 122 12 26 72 56 111 56 20 0 20 3 13 58 -21 169 -23 222 -8 222 3 0
26 -17 52 -39z m-429 -766 c245 -28 332 -56 750 -240 91 -40 177 -75 192 -79
62 -15 278 55 538 174 236 107 397 148 621 157 230 10 408 -22 576 -103 156
-74 262 -194 335 -377 30 -76 32 -91 33 -197 0 -92 -4 -129 -23 -187 -12 -40
-27 -75 -32 -78 -6 -4 -22 7 -36 24 -14 17 -34 31 -45 31 -11 0 -58 -38 -107
-86 -111 -110 -216 -181 -312 -213 -19 -6 -50 -20 -68 -31 l-32 -20 17 -27
c10 -16 29 -38 43 -50 51 -45 161 -22 297 63 98 61 158 114 212 185 40 54 45
58 57 42 42 -55 64 -263 64 -605 0 -232 -2 -278 -14 -278 -8 0 -99 -27 -203
-61 -103 -33 -246 -72 -318 -86 -278 -52 -302 -55 -450 -48 l-141 7 8 66 c11
102 9 315 -3 373 -7 34 -22 64 -44 88 -33 36 -34 36 -117 36 -92 0 -147 -18
-246 -81 -29 -19 -56 -34 -60 -34 -4 0 -27 -11 -52 -24 -58 -30 -227 -82 -310
-95 -129 -21 -333 -7 -443 30 -89 30 -283 125 -341 166 -82 59 -170 58 -229
-3 -51 -52 -60 -112 -55 -337 l4 -185 -66 -6 c-36 -4 -106 -7 -156 -7 -235 -1
-801 147 -828 216 -3 9 -6 149 -6 310 0 312 16 508 46 554 l16 23 39 -65 c70
-117 208 -216 373 -266 71 -22 120 -28 81 -10 -17 7 -16 8 10 7 71 -3 105 2
105 16 0 30 -61 76 -177 134 -136 69 -242 152 -293 232 -37 57 -67 65 -107 28
-27 -25 -23 -28 -52 42 -74 176 -1 459 164 638 137 148 294 223 505 242 130
11 146 11 280 -5z m-1124 -1621 c-19 -223 -24 -254 -41 -254 -6 0 -16 -10 -22
-22 -6 -13 -41 -57 -78 -98 -130 -144 -168 -221 -185 -372 -6 -50 -13 -94 -15
-96 -2 -2 -18 1 -36 7 -45 16 -115 14 -149 -4 l-30 -16 0 100 c0 301 243 782
459 911 23 14 57 34 74 46 25 16 33 17 35 7 2 -8 -4 -102 -12 -209z m4432 149
c108 -68 181 -161 276 -352 112 -223 192 -534 162 -628 l-7 -22 -47 21 c-40
17 -60 19 -128 14 l-81 -6 -6 98 c-10 142 -42 232 -116 322 -35 42 -77 103
-128 184 -18 29 -23 60 -32 192 -6 86 -11 174 -11 195 l0 38 33 -11 c17 -6 56
-26 85 -45z m-4238 -566 c362 -80 592 -108 917 -112 249 -4 275 -6 312 -24 42
-22 50 -39 53 -123 1 -26 4 -45 8 -43 4 3 10 -9 12 -26 3 -22 1 -29 -9 -25
-21 8 -15 -2 8 -15 13 -7 19 -7 15 -1 -3 6 -2 13 4 17 5 3 10 -3 10 -13 0 -20
-138 -199 -151 -195 -3 1 -6 -3 -6 -10 1 -7 -13 -41 -31 -77 -39 -81 -52 -146
-52 -270 0 -103 -7 -122 -65 -173 -58 -51 -195 -83 -256 -59 -15 6 -44 37 -66
72 l-40 61 -1 278 c-1 155 -6 290 -11 304 -12 30 -55 62 -74 54 -26 -10 -39
-603 -16 -687 3 -10 -3 -15 -16 -15 -14 0 -19 6 -18 20 2 18 1 18 -9 -2 -6
-13 -15 -23 -20 -23 -4 0 -8 10 -9 23 -1 17 -3 15 -10 -10 -6 -20 -16 -33 -26
-33 -11 0 -13 3 -5 13 6 6 10 15 10 20 0 4 6 40 12 79 9 49 10 122 5 232 -11
255 -43 381 -96 381 -32 0 -35 -32 -15 -168 16 -102 21 -457 7 -392 l-7 30
-16 -30 -17 -30 6 55 c5 58 -29 256 -47 274 -14 14 -13 -5 11 -140 22 -129 20
-169 -12 -244 -16 -38 -30 -53 -67 -73 -65 -34 -92 -39 -212 -38 -123 1 -255
24 -290 50 -56 41 -110 148 -110 220 0 20 -5 43 -10 51 -8 13 -10 12 -10 -2 0
-10 -4 -18 -10 -18 -13 0 -13 -6 6 114 11 70 15 139 12 226 -9 238 22 328 147
431 38 32 76 68 83 80 9 14 20 19 35 16 12 -3 74 -17 137 -30z m4068 14 c53
-27 147 -124 174 -179 21 -43 24 -65 30 -267 4 -141 13 -262 26 -337 10 -65
15 -118 11 -118 -5 0 -9 7 -9 15 0 8 -4 15 -9 15 -5 0 -16 16 -26 36 l-17 37
-19 -54 c-11 -30 -24 -67 -29 -82 -22 -70 -81 -135 -143 -161 -99 -41 -306
-58 -392 -33 -33 10 -44 20 -62 57 -34 72 -47 160 -39 286 3 62 2 115 -3 118
-4 3 -13 -43 -20 -102 -6 -59 -16 -143 -22 -186 -5 -44 -7 -86 -4 -93 3 -9 0
-13 -7 -11 -7 3 -24 33 -37 69 -22 57 -24 84 -29 262 -2 115 0 243 7 308 12
109 12 110 -15 169 -25 56 -64 106 -64 82 0 -6 12 -43 26 -83 l26 -72 -21 -91
c-37 -164 -45 -267 -33 -447 10 -145 21 -208 47 -272 6 -15 0 -13 -44 8 -28
14 -55 34 -61 44 -6 11 -7 58 -3 115 6 99 -2 131 -33 119 -10 -3 -14 2 -15 18
0 13 -4 33 -8 44 -5 12 -8 -29 -9 -96 0 -104 -3 -123 -26 -171 -41 -87 -64
-103 -149 -103 -114 1 -157 37 -192 158 -9 32 -18 97 -19 145 -1 72 -5 94 -24
125 -13 20 -21 37 -17 37 3 0 -2 13 -11 30 -17 28 -18 28 -31 10 -8 -11 -11
-25 -8 -30 10 -16 25 -1 19 18 -5 14 -4 14 4 2 6 -8 9 -18 6 -22 -3 -4 6 -24
19 -44 24 -34 24 -37 9 -75 -8 -21 -18 -39 -22 -39 -23 0 -20 67 3 81 13 9
-27 66 -47 66 -12 0 -14 -7 -9 -26 3 -14 3 -23 -1 -20 -4 3 -9 24 -11 45 -4
28 -2 35 5 24 6 -9 10 -10 10 -3 0 22 -12 43 -22 37 -6 -4 -5 4 2 16 11 20 10
22 -4 17 -10 -4 -15 -3 -11 3 3 5 1 20 -5 32 -9 19 -7 18 15 -5 14 -16 23 -33
20 -38 -3 -5 2 -6 12 -3 14 5 15 4 4 -4 -7 -5 -11 -16 -9 -23 3 -10 8 -8 16 7
9 17 5 27 -30 67 -22 26 -44 44 -50 41 -7 -5 -8 -2 -4 5 5 8 -8 31 -32 59 -79
95 -98 162 -66 241 17 44 49 69 103 83 20 5 182 13 361 18 293 7 344 11 514
39 166 27 315 60 411 90 44 14 52 13 93 -8z m-2749 -304 c-1 -45 -2 -48 -9
-22 -11 45 -11 87 0 80 6 -3 9 -30 9 -58z m1253 -76 c2 -17 1 -28 -4 -25 -8 5
-12 54 -4 54 2 0 6 -13 8 -29z m-3439 -62 c20 -5 37 -14 37 -19 0 -5 -31 -48
-70 -96 -76 -95 -145 -219 -166 -298 -15 -57 -17 -140 -5 -204 7 -34 6 -40 -5
-31 -7 6 -18 8 -23 4 -19 -11 -213 -44 -302 -51 l-89 -7 0 36 c0 44 51 207 93
297 67 144 191 291 288 341 71 36 172 48 242 28z m5888 -31 c159 -75 277 -231
354 -468 15 -47 33 -96 40 -110 7 -14 15 -38 16 -55 l4 -29 -85 3 c-148 5
-286 27 -326 52 -41 25 -94 123 -94 175 0 38 -35 154 -62 208 -25 50 -127 204
-139 212 -17 10 -9 25 24 40 22 10 57 13 113 11 68 -3 93 -9 155 -39z m-2371
-22 c0 -6 -11 2 -23 18 -18 23 -26 26 -32 16 -5 -9 -4 -15 3 -18 7 -2 12 -8
12 -14 0 -6 -9 -3 -20 7 -19 17 -19 19 -2 31 14 11 21 9 40 -8 12 -12 22 -26
22 -32z m-318 13 c126 -26 236 -114 293 -234 60 -125 66 -208 24 -321 -15 -40
-28 -55 -62 -75 -39 -22 -52 -24 -182 -24 -132 0 -144 2 -199 28 -63 29 -93
57 -103 95 -3 13 0 80 8 149 10 101 10 136 0 186 -7 34 -16 64 -19 67 -4 3 -8
10 -9 15 0 6 -3 19 -5 30 -2 16 9 26 52 47 98 49 123 54 202 37z m2251 -13
c78 -34 134 -121 172 -272 29 -115 23 -179 -27 -261 -54 -90 -71 -107 -99
-100 -31 8 -103 55 -153 101 l-38 36 -19 152 c-23 193 -25 301 -4 318 20 16
84 39 113 40 12 0 37 -6 55 -14z m-5155 -21 c29 -13 55 -32 59 -40 3 -9 -2
-53 -10 -98 -35 -174 -39 -207 -36 -300 3 -74 2 -91 -7 -75 -11 20 -11 20 -21
-8 -21 -58 -68 -93 -141 -104 -38 -6 -45 -4 -58 15 -18 28 -9 52 26 70 46 24
124 108 142 153 9 23 15 42 13 42 -1 0 -17 -21 -33 -47 -17 -27 -48 -64 -69
-83 -42 -39 -103 -84 -107 -78 -18 24 -46 118 -48 155 -1 34 -2 39 -5 17 -4
-31 -24 -46 -50 -37 -41 14 21 248 87 331 86 109 158 134 258 87z m2300 -5
c42 -16 91 -41 107 -56 17 -14 25 -23 19 -20 -7 3 -19 -5 -28 -19 -31 -47 -47
-137 -50 -283 -4 -141 -4 -144 -31 -172 -51 -53 -117 -74 -248 -78 -149 -5
-179 1 -228 45 -110 99 -84 353 53 508 94 107 250 136 406 75z m309 -242 c-3
-7 -5 -2 -5 12 0 14 2 19 5 13 2 -7 2 -19 0 -25z m-140 0 c-3 -8 -6 -5 -6 6
-1 11 2 17 5 13 3 -3 4 -12 1 -19z m885 -118 c-6 -43 -12 -37 -12 13 0 25 4
37 8 29 5 -7 7 -26 4 -42z m-1685 -182 c-3 -8 -6 -5 -6 6 -1 11 2 17 5 13 3
-3 4 -12 1 -19z m-787 -104 c0 -8 -19 -13 -24 -6 -3 5 1 9 9 9 8 0 15 -2 15
-3z m-353 -60 c-3 -3 -12 -4 -19 -1 -8 3 -5 6 6 6 11 1 17 -2 13 -5z"/>
<path d="M3293 9025 c34 -56 39 -77 47 -190 l7 -100 2 91 c1 101 -14 161 -55
209 l-25 30 24 -40z"/>
<path d="M3225 8090 c-4 -12 -5 -24 -2 -27 3 -2 8 5 12 17 4 12 5 24 2 27 -3
2 -8 -5 -12 -17z"/>
<path d="M6728 8926 c-5 -27 -7 -81 -7 -120 l2 -71 8 80 c5 44 8 98 7 120 l-3
40 -7 -49z"/>
<path d="M5941 8292 c-17 -31 -13 -40 5 -14 9 13 14 26 11 29 -3 2 -10 -4 -16
-15z"/>
<path d="M4538 8091 c26 -23 131 -63 222 -86 54 -14 102 -16 280 -12 187 4
230 8 325 31 102 24 154 47 162 73 2 6 -45 -5 -105 -23 -191 -58 -253 -66
-445 -62 l-172 4 -136 47 c-75 26 -140 47 -145 47 -5 -1 1 -9 14 -19z"/>
<path d="M4928 7930 c-57 -10 -64 -14 -71 -41 -4 -14 2 -29 17 -44 23 -23 28
-23 166 -20 78 2 146 7 151 12 6 6 11 23 12 38 2 26 -3 31 -43 46 -48 19 -149
23 -232 9z"/>
<path d="M4919 7777 c-60 -84 -169 -278 -169 -303 0 -32 119 135 174 243 36
73 33 113 -5 60z"/>
<path d="M5120 7785 c0 -24 38 -83 89 -140 20 -22 56 -70 81 -107 24 -37 46
-66 48 -64 9 9 -37 86 -110 185 -43 59 -84 115 -92 126 -15 20 -15 20 -16 0z"/>
<path d="M6138 7673 c6 -2 18 -2 25 0 6 3 1 5 -13 5 -14 0 -19 -2 -12 -5z"/>
<path d="M3985 7656 c28 -7 60 -18 72 -24 12 -7 30 -12 40 -11 33 1 -60 37
-112 43 l-50 5 50 -13z"/>
<path d="M5830 7595 c-19 -7 -28 -14 -20 -14 8 0 29 6 45 14 39 17 21 18 -25
0z"/>
<path d="M5090 7547 c0 -18 41 -65 62 -70 21 -6 21 -5 -3 16 -13 12 -32 31
-41 42 -10 11 -18 16 -18 12z"/>
<path d="M4949 7511 l-24 -19 38 11 c20 7 37 15 37 19 0 14 -28 8 -51 -11z"/>
<path d="M5183 7486 c14 -10 15 -15 5 -19 -7 -3 -1 -6 14 -6 15 -1 30 -5 33
-11 7 -12 25 -13 25 -2 0 4 -21 17 -48 29 -26 13 -39 17 -29 9z"/>
<path d="M5485 7440 c4 -6 11 -8 16 -5 14 9 11 15 -7 15 -8 0 -12 -5 -9 -10z"/>
<path d="M5550 7440 c-8 -5 -10 -10 -5 -10 6 0 17 5 25 10 8 5 11 10 5 10 -5
0 -17 -5 -25 -10z"/>
<path d="M4488 7413 c7 -3 16 -2 19 1 4 3 -2 6 -13 5 -11 0 -14 -3 -6 -6z"/>
<path d="M3123 7890 c0 -25 2 -35 4 -22 2 12 2 32 0 45 -2 12 -4 2 -4 -23z"/>
<path d="M3111 7824 c0 -11 3 -14 6 -6 3 7 2 16 -1 19 -3 4 -6 -2 -5 -13z"/>
<path d="M3102 7780 c0 -14 2 -19 5 -12 2 6 2 18 0 25 -3 6 -5 1 -5 -13z"/>
<path d="M3091 7743 c-1 -6 -4 -20 -7 -30 -5 -17 -5 -17 6 0 6 10 9 23 6 30
-3 9 -5 9 -5 0z"/>
<path d="M7051 7254 c0 -11 3 -14 6 -6 3 7 2 16 -1 19 -3 4 -6 -2 -5 -13z"/>
<path d="M3071 7354 c0 -11 3 -14 6 -6 3 7 2 16 -1 19 -3 4 -6 -2 -5 -13z"/>
<path d="M2927 6930 c-4 -14 -6 -36 -6 -50 1 -18 4 -14 10 14 10 44 6 75 -4
36z"/>
<path d="M3840 7330 c0 -5 5 -10 11 -10 5 0 7 5 4 10 -3 6 -8 10 -11 10 -2 0
-4 -4 -4 -10z"/>
<path d="M6040 7240 c-8 -5 -10 -10 -5 -10 6 0 17 5 25 10 8 5 11 10 5 10 -5
0 -17 -5 -25 -10z"/>
<path d="M5440 7061 c0 -5 8 -12 18 -16 11 -3 43 -23 72 -45 58 -43 77 -49 87
-24 8 22 -12 37 -90 68 -73 28 -87 31 -87 17z"/>
<path d="M3704 6835 c36 -19 47 -19 22 0 -11 8 -27 15 -35 15 -9 0 -3 -7 13
-15z"/>
<path d="M6275 6840 c-3 -5 -1 -10 4 -10 6 0 11 5 11 10 0 6 -2 10 -4 10 -3 0
-8 -4 -11 -10z"/>
<path d="M6139 6779 c-85 -52 -132 -79 -269 -151 -100 -53 -109 -65 -30 -35
87 33 165 72 222 113 26 18 53 32 60 30 7 -1 10 -1 6 1 -13 8 -9 23 7 23 7 0
18 6 22 13 10 16 75 47 85 41 4 -3 8 0 8 5 0 21 -27 11 -111 -40z"/>
<path d="M3760 6810 c8 -5 20 -10 25 -10 6 0 3 5 -5 10 -8 5 -19 10 -25 10 -5
0 -3 -5 5 -10z"/>
<path d="M5320 6799 c0 -5 5 -7 10 -4 6 3 10 8 10 11 0 2 -4 4 -10 4 -5 0 -10
-5 -10 -11z"/>
<path d="M3740 6791 c0 -6 4 -13 10 -16 6 -3 7 1 4 9 -7 18 -14 21 -14 7z"/>
<path d="M3800 6780 c0 -6 6 -10 13 -10 6 -1 37 -16 67 -35 71 -44 213 -113
248 -120 15 -4 -16 16 -68 42 -52 27 -120 63 -150 80 -70 40 -110 56 -110 43z"/>
<path d="M6072 6190 c-7 -11 -8 -20 -3 -20 9 0 24 30 18 36 -1 2 -8 -6 -15
-16z"/>
<path d="M3956 6135 c7 -17 24 -20 24 -4 0 5 6 7 13 3 6 -4 9 -3 4 1 -4 5 -16
10 -27 12 -14 2 -18 -2 -14 -12z"/>
<path d="M6014 6137 c3 -10 6 -21 6 -24 0 -3 7 0 15 7 8 7 15 18 15 24 0 6 -5
4 -10 -4 -9 -13 -11 -13 -21 0 -9 13 -10 12 -5 -3z"/>
<path d="M3735 4011 c-6 -20 19 -81 34 -81 19 0 42 40 39 67 -2 23 -8 29 -35
31 -24 2 -33 -1 -38 -17z"/>
<path d="M3875 3975 c-28 -27 -34 -79 -11 -88 8 -3 27 4 43 15 15 12 29 22 29
22 1 1 4 11 8 22 4 14 1 28 -9 38 -22 22 -32 20 -60 -9z"/>
<path d="M6110 3982 c0 -39 65 -192 81 -192 17 0 8 46 -24 124 -32 77 -57 108
-57 68z"/>
<path d="M4086 3951 c-23 -25 -15 -71 13 -71 26 0 43 24 39 57 -4 34 -28 41
-52 14z"/>
<path d="M5451 3931 c-13 -20 -44 -71 -69 -114 -53 -94 -136 -181 -212 -222
-47 -26 -65 -30 -130 -30 -163 1 -256 88 -370 348 -11 26 -22 47 -24 47 -8 0
96 -294 124 -349 60 -120 164 -201 257 -201 168 0 313 155 427 457 33 86 31
115 -3 64z"/>
<path d="M6240 3966 c0 -3 10 -36 22 -73 20 -65 38 -100 38 -76 0 22 -41 142
-50 148 -6 3 -10 4 -10 1z"/>
<path d="M5998 3897 c29 -29 52 -58 52 -65 0 -7 5 -12 10 -12 6 0 10 7 10 16
0 20 -91 114 -111 114 -7 0 10 -24 39 -53z"/>
<path d="M6866 3857 c-11 -34 -13 -57 -7 -57 5 0 9 -35 10 -77 1 -43 4 -79 5
-80 9 -10 37 13 50 42 22 45 20 101 -4 140 -22 36 -49 52 -54 32z"/>
<path d="M4450 3265 c0 -8 5 -15 10 -15 6 0 22 -12 36 -27 23 -26 23 -25 -3
14 -29 44 -43 53 -43 28z"/>
<path d="M5576 3221 c-4 -6 -2 -11 4 -11 6 0 9 -4 5 -9 -3 -5 -1 -12 5 -16 12
-8 13 15 1 34 -6 9 -11 10 -15 2z"/>
<path d="M4465 3210 c-3 -5 1 -10 10 -10 9 0 13 5 10 10 -3 6 -8 10 -10 10 -2
0 -7 -4 -10 -10z"/>
<path d="M2895 2199 c-4 -5 -4 -21 -1 -35 9 -33 43 -33 52 0 7 31 -1 46 -26
46 -10 0 -22 -5 -25 -11z"/>
<path d="M3113 2152 c-46 -17 -50 -27 -37 -91 9 -42 21 -39 35 9 7 23 27 54
46 70 39 35 24 39 -44 12z"/>
<path d="M3247 2054 c-10 -11 -8 -64 2 -64 13 0 24 51 13 62 -4 4 -11 5 -15 2z"/>
<path d="M3077 2003 c-11 -10 -8 -43 3 -43 6 0 10 11 10 25 0 26 -2 29 -13 18z"/>
<path d="M4046 1907 c-28 -31 -56 -71 -63 -88 -14 -34 -15 -115 -3 -164 6 -23
8 -14 9 38 1 75 18 127 49 148 27 20 64 84 60 106 -2 13 -16 3 -52 -40z"/>
<path d="M3230 1873 c0 -69 19 -106 34 -67 7 19 -10 90 -24 99 -6 4 -10 -10
-10 -32z"/>
<path d="M3888 1880 c-4 -14 -7 -72 -7 -130 l2 -105 9 85 c10 99 8 191 -4 150z"/>
<path d="M4113 1788 c-10 -18 -24 -46 -30 -63 -14 -35 -22 -166 -11 -159 4 3
8 13 9 22 0 11 3 12 6 5 8 -20 36 -16 30 5 -33 115 -33 108 -4 167 30 61 30
73 0 23z"/>
<path d="M7030 2206 c-19 -23 -9 -62 15 -58 31 5 48 27 40 51 -7 24 -37 28
-55 7z"/>
<path d="M7136 2198 c-7 -30 15 -52 43 -43 23 7 28 34 9 53 -19 19 -45 14 -52
-10z"/>
<path d="M6963 2115 c18 -103 30 -155 38 -155 12 0 11 13 -6 94 -15 70 -43
123 -32 61z"/>
<path d="M6854 2071 c8 -51 47 -140 53 -123 7 18 -16 134 -29 150 -20 24 -31
12 -24 -27z"/>
<path d="M6802 1897 c-21 -25 -19 -97 3 -97 18 0 33 33 29 64 -1 11 -3 27 -3
34 -1 16 -16 16 -29 -1z"/>
<path d="M5880 1671 c-13 -25 -13 -34 0 -26 16 10 32 45 21 45 -6 0 -15 -9
-21 -19z"/>
<path d="M7662 1400 c12 -19 28 -27 28 -14 0 7 -27 34 -34 34 -4 0 -1 -9 6
-20z"/>
<path d="M2521 1714 c0 -11 3 -14 6 -6 3 7 2 16 -1 19 -3 4 -6 -2 -5 -13z"/>
<path d="M27 103 c-25 -4 -27 -8 -27 -54 0 -48 1 -49 30 -49 30 0 30 1 30 55
0 30 -1 54 -2 54 -2 -1 -15 -4 -31 -6z"/>
</g>
</svg>
