<?xml version="1.0" standalone="no"?>
<!DOCTYPE svg PUBLIC "-//W3C//DTD SVG 20010904//EN"
 "http://www.w3.org/TR/2001/REC-SVG-20010904/DTD/svg10.dtd">
<svg version="1.0" xmlns="http://www.w3.org/2000/svg"
 width="1024.000000pt" height="1024.000000pt" viewBox="0 0 1024.000000 1024.000000"
 preserveAspectRatio="xMidYMid meet">
<metadata>
Created by potrace 1.16, written by Peter Selinger 2001-2019
</metadata>
<g transform="translate(0.000000,1024.000000) scale(0.100000,-0.100000)"
fill="#000000" stroke="none">
<path d="M4880 8993 c-87 -10 -322 -54 -385 -74 -87 -26 -157 -75 -181 -126
l-17 -38 -51 48 c-176 165 -326 124 -526 -143 -178 -239 -325 -618 -455 -1170
-25 -107 -117 -445 -234 -866 -46 -166 -111 -373 -240 -760 -84 -254 -99 -380
-57 -469 40 -86 82 -112 225 -139 96 -18 415 -46 529 -46 l77 0 -3 -172 c-2
-94 1 -217 8 -272 15 -135 57 -386 76 -461 9 -33 31 -136 50 -230 18 -93 46
-232 62 -308 l28 -138 -48 -49 c-55 -57 -136 -165 -149 -197 l-8 -21 -60 24
c-119 48 -279 60 -386 30 -135 -40 -271 -173 -373 -366 -64 -121 -82 -183 -82
-285 0 -127 40 -258 215 -705 20 -52 66 -169 101 -260 75 -191 113 -278 132
-302 12 -14 7 -25 -33 -86 -55 -82 -93 -196 -102 -299 -5 -66 -8 -73 -27 -73
-12 0 -70 -4 -131 -10 -60 -5 -198 -16 -305 -25 -219 -19 -271 -28 -316 -56
-40 -24 -49 -48 -68 -177 -22 -142 -21 -175 7 -208 l23 -27 2955 2 c1625 1
2969 4 2987 7 38 7 62 37 62 78 0 17 -12 89 -26 160 -29 144 -42 166 -102 184
-51 15 -279 33 -461 35 -105 1 -151 5 -151 13 0 16 -24 24 -69 24 l-38 0 -6
73 c-9 102 -38 188 -98 287 -42 71 -49 88 -39 104 6 10 31 68 54 130 24 61 91
233 149 381 176 451 217 586 217 720 0 123 -43 238 -148 398 -124 190 -215
263 -357 288 -112 19 -284 3 -376 -35 -11 -5 -18 -1 -22 11 -3 10 -44 66 -91
125 -67 83 -86 114 -86 138 0 17 13 93 30 168 155 718 208 1066 198 1300 l-3
82 85 0 c118 0 356 18 473 35 123 18 189 51 228 114 35 55 45 115 30 192 -12
60 -102 364 -141 474 -27 76 -175 607 -230 825 -256 1008 -329 1239 -491 1558
-88 173 -162 283 -260 387 -65 68 -91 88 -137 105 -50 19 -64 20 -110 11 -73
-15 -178 -69 -217 -113 l-34 -37 -19 32 c-41 70 -149 116 -377 161 -71 14
-170 30 -220 36 -85 9 -379 11 -455 3z m572 -108 c140 -22 289 -77 357 -132
l24 -20 -31 -103 c-18 -57 -32 -113 -32 -125 0 -21 -7 -22 -131 -34 -188 -18
-381 -69 -483 -127 -53 -30 -64 -30 -128 5 -29 16 -84 38 -123 49 -95 28 -308
72 -348 72 -28 0 -32 4 -34 28 -2 15 -20 73 -40 129 -35 94 -40 101 -58 91
-19 -11 -19 -10 -2 9 22 25 23 40 1 18 -9 -9 -19 -14 -21 -11 -8 8 59 64 97
82 19 9 48 22 64 30 36 17 180 43 306 54 132 12 465 3 582 -15z m837 -84 c91
-47 244 -246 348 -451 73 -146 195 -460 228 -592 9 -35 27 -97 40 -138 30 -94
98 -360 165 -645 134 -573 158 -661 315 -1180 87 -285 91 -341 34 -389 -39
-33 -78 -43 -229 -56 -69 -6 -198 -18 -287 -26 l-162 -16 -42 36 c-23 20 -55
41 -71 48 -15 7 -28 16 -28 19 0 11 73 18 310 30 124 6 227 13 230 16 3 3 -96
2 -220 -2 -124 -5 -324 -9 -445 -10 -196 -1 -229 -4 -305 -24 -136 -37 -296
-117 -367 -184 -18 -17 -34 -29 -37 -26 -7 8 -29 730 -22 737 12 11 938 14
1131 4 100 -6 193 -8 209 -5 25 5 23 7 -26 23 -29 10 -109 34 -178 53 l-125
36 -515 5 c-488 5 -723 15 -756 34 -12 7 -7 14 23 35 21 15 50 42 65 60 l26
34 304 6 c166 4 357 12 423 18 66 6 158 14 205 18 l85 8 -100 2 c-75 1 -96 4
-87 13 8 8 103 12 314 15 167 2 314 7 328 10 23 5 24 6 5 13 -35 13 -610 46
-875 50 -8 0 -4 6 10 13 18 9 28 26 37 62 23 99 29 154 20 170 -5 9 -7 19 -4
22 3 2 155 7 339 10 l333 6 46 -54 c25 -30 58 -72 73 -94 22 -31 27 -35 22
-15 -4 14 -18 78 -31 142 -40 194 -84 357 -170 633 -30 94 -77 246 -105 338
-64 208 -124 363 -234 595 -47 100 -86 184 -86 187 0 3 5 3 12 -1 7 -4 8 -3 4
5 -4 6 -12 9 -17 6 -5 -4 -10 0 -11 7 0 7 -2 18 -3 23 0 6 -11 29 -23 51 -11
23 -18 45 -14 48 3 4 2 10 -4 14 -6 4 -28 36 -50 72 -31 51 -40 60 -42 44 -2
-12 4 -39 12 -59 26 -62 31 -53 -129 -240 -32 -38 -60 -71 -61 -73 -1 -1 -40
24 -87 56 -76 52 -127 79 -180 96 -16 5 -16 8 -3 33 7 16 26 67 41 116 30 97
41 108 142 154 67 30 182 71 201 72 7 1 30 -8 51 -18z m-2117 -36 c114 -70
124 -81 180 -194 l54 -108 -59 -12 c-83 -17 -162 -54 -230 -108 -32 -25 -59
-44 -61 -42 -24 29 -92 139 -115 188 -29 61 -29 66 -15 100 l14 36 -20 -25
c-142 -178 -353 -698 -455 -1125 -15 -60 -30 -114 -35 -120 -10 -12 -41 -122
-80 -285 -17 -69 -37 -150 -45 -180 -41 -149 -70 -302 -66 -345 1 -5 26 15 56
45 l56 55 287 3 c158 1 337 -1 397 -5 l110 -8 -3 -42 c-4 -44 28 -164 51 -194
7 -9 21 -19 32 -22 11 -3 -36 -5 -105 -4 -237 4 -845 -14 -857 -25 -7 -6 -13
-17 -13 -24 0 -12 46 -14 263 -14 144 0 332 -6 417 -12 l155 -13 -105 -6 -105
-5 100 -3 c55 -1 226 -10 379 -19 l279 -17 68 -70 c64 -65 67 -70 47 -78 -30
-11 -552 -26 -897 -27 -302 0 -303 0 -646 -65 -71 -14 -139 -26 -150 -28 -11
-1 250 -3 580 -2 330 0 671 -4 759 -9 l158 -8 -7 -202 c-4 -110 -11 -276 -14
-368 l-6 -167 -75 46 c-181 111 -353 175 -560 207 -181 29 -669 45 -805 28
l-40 -5 35 -8 c19 -5 139 -11 265 -14 127 -3 272 -8 323 -11 l94 -6 -29 -18
c-15 -10 -48 -38 -73 -64 -43 -45 -46 -46 -105 -46 -85 0 -411 28 -527 45
-110 16 -144 30 -182 75 -45 54 -36 119 64 430 32 102 79 257 104 345 26 88
59 203 76 255 16 52 41 140 55 195 15 55 35 125 45 155 19 56 164 633 215 855
68 299 220 685 338 860 47 70 151 181 222 237 45 37 53 40 97 36 32 -4 68 -18
110 -43z m2201 -490 c77 -131 138 -274 240 -565 41 -118 78 -223 82 -232 7
-17 -5 -18 -171 -18 l-177 0 20 23 c36 39 75 172 80 277 5 84 2 108 -26 215
-18 66 -45 157 -62 203 -16 46 -29 100 -29 121 0 20 -7 46 -15 57 -8 10 -15
23 -15 28 0 14 2 10 73 -109z m-1748 74 c120 -27 258 -73 323 -110 29 -16 75
-39 103 -49 l51 -20 101 56 c125 68 204 96 378 130 217 43 305 27 424 -78 80
-70 151 -206 168 -322 6 -36 5 -38 -16 -31 -12 4 -61 9 -108 12 -77 5 -98 2
-194 -27 -59 -17 -156 -52 -214 -77 -160 -69 -208 -83 -275 -83 -72 1 -103 15
-127 61 l-18 34 -1 -27 c0 -15 7 -49 16 -75 18 -52 92 -163 108 -163 6 1 28 7
49 14 l37 14 0 -48 0 -47 -107 -7 c-60 -4 -198 -4 -307 -1 l-200 5 0 48 -1 48
50 -4 50 -4 41 59 c31 44 43 71 48 115 5 36 3 58 -3 63 -6 3 -11 -2 -11 -13 0
-11 -9 -30 -19 -43 -18 -22 -26 -24 -118 -23 -93 1 -104 3 -228 51 -152 60
-256 94 -377 124 l-87 21 -57 -26 c-31 -14 -60 -26 -65 -26 -14 0 -10 99 5
157 43 161 140 275 266 310 57 16 193 8 315 -18z m-780 -768 c9 -35 23 -74 31
-86 20 -30 14 -31 -123 -27 -99 3 -104 4 -89 21 9 9 38 84 66 167 28 82 58
167 68 189 l17 40 7 -120 c3 -67 14 -149 23 -184z m332 258 c4 -42 58 -142 97
-181 42 -42 119 -90 191 -118 72 -30 164 -33 212 -9 34 18 43 12 43 -31 0 -10
11 -27 24 -37 22 -18 23 -20 6 -30 -40 -26 -54 -205 -21 -278 20 -45 100 -112
171 -144 60 -27 119 -27 156 1 16 12 31 23 33 25 2 1 -2 9 -8 17 -7 8 -10 19
-7 24 7 12 -20 49 -46 63 -15 8 -19 8 -14 0 9 -13 0 -14 -23 -2 -9 5 -59 14
-110 20 -105 12 -120 22 -121 82 0 56 38 166 70 202 l29 32 213 -2 c242 -2
358 -10 358 -24 0 -6 -4 -7 -10 -4 -15 10 -12 -11 9 -52 27 -52 34 -113 21
-162 -12 -47 -29 -56 -158 -91 -88 -24 -132 -56 -132 -97 0 -92 111 -83 247
18 84 63 96 96 99 269 2 80 7 159 12 175 10 33 15 34 100 16 107 -22 259 33
372 135 42 38 80 121 80 176 0 29 1 30 33 24 17 -4 67 -9 109 -13 70 -5 76 -8
68 -24 -6 -10 -44 -46 -86 -79 -68 -57 -74 -64 -60 -79 11 -12 13 -26 7 -51
-13 -56 -46 -123 -80 -163 -29 -32 -38 -36 -89 -39 l-57 -3 -3 -130 c-2 -73 2
-150 8 -175 13 -50 44 -90 72 -90 22 0 22 -2 2 -71 -23 -80 -38 -109 -93 -177
l-49 -62 5 57 c10 114 -59 380 -103 397 -17 7 -17 3 1 -58 21 -68 19 -183 -4
-274 -11 -43 -31 -130 -46 -194 -14 -65 -33 -135 -42 -155 -24 -59 -86 -143
-105 -143 -10 0 -82 49 -161 108 -230 173 -246 180 -330 138 -49 -25 -204
-133 -328 -230 l-57 -44 -32 72 c-69 150 -78 175 -119 324 -49 182 -57 269
-38 412 8 58 13 107 10 110 -2 2 -12 0 -21 -6 -49 -30 -86 -193 -87 -376 l0
-127 -33 32 c-54 52 -101 131 -118 197 -18 71 -14 90 19 90 18 0 28 9 40 38
33 73 50 305 25 330 -7 7 -31 12 -53 12 -47 0 -74 23 -117 100 -32 56 -80 190
-74 205 2 7 -14 16 -39 23 -44 12 -105 69 -105 98 0 13 10 15 63 10 46 -5 75
-1 112 12 28 10 52 16 54 15 2 -2 6 -17 8 -34z m219 -29 c40 0 44 -2 44 -24 0
-28 100 -125 161 -157 78 -39 2 -54 -98 -19 -102 36 -163 89 -198 174 l-16 39
32 -7 c17 -3 51 -6 75 -6z m1559 0 c8 -14 -67 -110 -112 -145 -60 -46 -97 -62
-167 -70 -78 -10 -86 1 -26 39 53 33 170 142 170 158 0 21 123 38 135 18z
m-1265 -94 c62 -34 63 -36 32 -36 -43 0 -222 84 -222 104 0 13 10 12 63 -8 34
-13 91 -40 127 -60z m1021 55 c-27 -38 -111 -91 -144 -91 -15 0 -27 3 -27 8 1
8 169 111 183 112 5 0 -1 -13 -12 -29z m-221 -351 c0 -5 -4 -10 -10 -10 -5 0
-10 5 -10 10 0 6 5 10 10 10 6 0 10 -4 10 -10z m-1656 -62 c12 -77 15 -143 6
-123 -14 32 -11 3 5 -53 9 -28 22 -58 31 -67 14 -13 -3 -15 -175 -15 -105 0
-191 1 -191 3 0 2 14 32 32 68 17 35 41 96 53 134 l22 70 99 6 c54 3 102 6
106 7 4 1 9 -13 12 -30z m2906 -33 c0 -24 48 -154 70 -192 11 -19 20 -36 20
-39 0 -8 -435 -3 -455 6 -18 8 -18 9 -2 9 23 1 78 115 85 176 l5 44 96 4 c53
1 115 4 139 5 32 1 42 -2 42 -13z m-2863 -157 c-3 -8 -6 -5 -6 6 -1 11 2 17 5
13 3 -3 4 -12 1 -19z m32 -30 c10 -30 9 -31 -4 -14 -8 11 -15 26 -15 33 0 22
8 14 19 -19z m1144 -33 c23 -32 17 -32 -13 0 -13 14 -19 25 -14 25 5 0 17 -12
27 -25z m-896 -1 c-3 -3 -12 -4 -19 -1 -8 3 -5 6 6 6 11 1 17 -2 13 -5z m71
-1 c-10 -2 -28 -2 -40 0 -13 2 -5 4 17 4 22 1 32 -1 23 -4z m-235 -119 c36 -6
37 -8 37 -51 0 -24 7 -60 15 -80 8 -19 15 -48 15 -64 l0 -29 -326 0 -326 0 5
23 c15 65 62 203 72 209 12 9 454 3 508 -8z m2877 -16 c0 -18 9 -62 20 -98 11
-36 20 -71 20 -77 0 -10 -68 -13 -312 -12 -172 1 -301 4 -286 6 21 3 32 15 48
51 12 26 26 57 32 68 5 12 11 33 11 48 1 18 9 28 22 31 21 5 131 9 328 13
l117 2 0 -32z m-1674 -493 c96 -40 311 -217 299 -247 -12 -30 -36 -29 -75 2
-66 53 -209 100 -301 100 -86 0 -215 -51 -284 -111 -34 -30 -36 -31 -60 -15
-14 9 -25 20 -25 24 0 19 38 56 123 120 187 140 241 161 323 127z m-9 -207
c49 -16 79 -34 113 -68 69 -68 71 -77 53 -227 -22 -169 -25 -793 -5 -928 21
-140 70 -402 92 -490 29 -117 7 -177 -78 -212 -82 -34 -371 -34 -453 0 -40 16
-96 76 -105 113 -4 14 9 99 31 202 21 97 46 215 56 262 51 240 52 489 3 973
-20 192 -16 243 21 296 34 50 60 67 127 86 70 18 67 18 145 -7z m-1204 -957
c174 -51 279 -105 435 -223 152 -116 232 -221 267 -354 12 -47 14 -88 9 -206
-7 -146 -7 -147 20 -203 49 -98 168 -158 343 -171 97 -7 257 9 312 32 19 8 36
12 38 10 11 -11 106 82 128 125 30 57 35 89 45 268 12 205 25 244 117 349 110
125 328 279 473 333 161 61 305 76 367 38 52 -32 74 -86 86 -213 19 -202 -24
-596 -97 -891 -14 -55 -39 -163 -55 -240 -16 -77 -37 -171 -45 -210 -9 -38
-16 -78 -16 -88 0 -20 53 -101 144 -222 114 -150 196 -347 219 -527 21 -167
-18 -355 -118 -562 -46 -96 -149 -266 -166 -274 -3 -1 -3 -16 -1 -32 3 -19 0
-30 -8 -30 -7 0 -9 8 -5 23 7 22 7 22 -8 2 -12 -15 -13 -23 -4 -33 9 -12 14
-10 29 8 10 12 18 28 18 36 0 8 6 14 13 14 9 0 8 3 -2 9 -9 6 -10 11 -2 15 6
4 11 2 11 -4 0 -6 8 -10 18 -8 10 2 23 22 34 53 31 90 8 -10 -34 -150 -21 -71
-44 -160 -50 -197 -7 -38 -16 -68 -22 -68 -5 0 -6 3 -3 6 11 11 -33 64 -77 92
-22 15 -43 29 -46 32 -10 10 -75 29 -137 40 -44 7 -81 8 -128 0 -75 -12 -157
-38 -166 -52 -3 -5 -9 -9 -13 -9 -3 1 -5 -2 -3 -6 1 -5 7 -6 12 -4 18 6 239 7
270 1 19 -4 -12 -9 -80 -13 -60 -3 -131 -13 -156 -22 -53 -18 -123 -74 -144
-115 l-14 -27 -58 28 c-32 16 -75 29 -95 29 -43 0 -44 2 -24 33 32 50 39 166
42 687 3 559 6 650 34 843 21 142 40 189 117 290 65 87 94 117 106 110 6 -3 7
-2 4 4 -9 14 35 54 61 56 11 0 19 4 16 8 -5 9 35 59 48 59 6 0 5 -7 -3 -17
-11 -15 -9 -14 9 1 12 11 21 25 20 31 -2 7 37 54 86 106 110 116 188 218 216
284 33 75 100 315 99 355 l0 35 -24 -52 c-13 -29 -36 -92 -50 -140 -31 -104
-84 -211 -131 -269 -30 -36 -206 -161 -189 -134 3 6 -1 7 -9 4 -9 -3 -13 -10
-10 -15 3 -5 -3 -6 -12 -2 -12 4 -15 3 -10 -5 5 -8 2 -10 -9 -6 -8 4 -25 0
-38 -8 -26 -18 -154 -88 -159 -88 -1 0 -2 29 0 63 5 97 -33 170 -72 138 -47
-39 -121 -378 -156 -711 -15 -138 -27 -199 -45 -227 -8 -12 -15 -29 -15 -38 0
-8 -3 -15 -8 -15 -4 0 -18 -21 -31 -47 -14 -27 -56 -94 -93 -151 -49 -73 -67
-109 -63 -123 4 -11 2 -19 -4 -19 -6 0 -11 6 -11 12 0 7 -20 -9 -44 -36 -24
-28 -42 -56 -39 -63 3 -7 0 -13 -7 -13 -6 0 -8 5 -4 12 5 8 2 9 -12 3 -10 -5
-38 -10 -61 -13 -37 -3 -42 -7 -45 -30 -3 -23 -8 -27 -40 -30 -37 -3 -38 -2
-38 31 0 31 2 34 25 29 14 -2 25 0 25 6 0 6 -10 8 -22 5 -15 -3 -19 -2 -11 4
8 6 -2 9 -27 10 -43 2 -55 -13 -17 -20 19 -4 19 -4 -5 -6 -27 -1 -51 20 -30
27 16 5 15 41 -1 48 -8 3 -13 18 -12 37 2 32 -26 73 -39 59 -4 -3 -11 0 -17 8
-8 13 -10 13 -19 0 -6 -10 -8 -2 -5 28 2 29 0 40 -7 36 -6 -4 -8 -2 -4 4 8 14
-75 152 -88 145 -5 -3 -6 -2 -3 4 7 11 -14 63 -25 63 -5 0 -9 8 -9 18 -1 9 -4
4 -8 -13 -4 -18 -10 26 -14 115 -6 142 -49 521 -66 590 -4 19 -25 90 -46 158
-41 131 -57 148 -91 97 -33 -51 -35 -97 -9 -201 14 -54 25 -99 25 -100 0 -1
-16 13 -35 30 -34 31 -92 66 -274 168 -52 29 -110 69 -129 88 -42 41 -114 151
-141 212 -37 86 -82 184 -101 223 l-21 40 6 -66 c8 -96 40 -212 87 -312 43
-91 57 -106 253 -277 146 -127 282 -272 344 -367 38 -57 70 -101 73 -98 12 12
29 -80 38 -204 13 -171 13 -337 0 -471 -32 -339 -50 -588 -50 -680 0 -139 15
-273 34 -312 9 -17 16 -32 16 -34 0 -1 -20 -9 -44 -17 l-44 -15 -36 54 c-20
30 -40 54 -44 54 -5 0 -17 -7 -28 -15 -18 -14 -18 -15 6 -12 19 1 25 -3 25
-18 1 -29 15 -65 26 -65 6 0 6 7 -1 19 -15 28 -12 39 3 16 29 -42 28 -54 -4
-53 -19 1 -28 5 -25 13 2 7 -3 23 -11 35 -13 18 -13 24 -2 31 7 4 10 11 6 16
-5 4 -11 2 -15 -5 -13 -20 -45 -17 -104 11 -61 28 -152 47 -233 47 -27 0 -57
5 -65 10 -11 7 1 9 40 6 30 -2 40 -1 23 1 -50 7 -43 33 10 35 l42 1 -45 7
c-45 7 -45 7 20 10 57 3 59 4 20 7 -54 5 -310 -38 -364 -61 -24 -10 -35 -20
-30 -27 4 -7 3 -9 -3 -6 -6 4 -14 28 -18 53 -8 57 -30 142 -101 393 -64 226
-88 335 -105 481 -29 254 33 507 169 688 26 34 80 105 121 158 l74 96 -10 41
c-6 23 -20 78 -32 122 -44 162 -119 547 -156 800 -44 301 -39 529 13 635 45
92 106 106 265 61z m1925 -1434 c-62 -50 -89 -69 -94 -65 -2 3 22 23 53 46 63
45 85 55 41 19z m-2450 -572 c34 -10 62 -21 62 -25 0 -3 -11 -33 -24 -66 -13
-32 -35 -104 -47 -159 -22 -92 -24 -119 -22 -332 1 -128 -1 -233 -5 -233 -4 0
-8 -9 -9 -21 -1 -11 -11 -39 -22 -63 -12 -23 -21 -47 -21 -52 0 -20 -62 -130
-128 -227 -85 -125 -93 -150 -76 -237 7 -36 21 -121 32 -190 12 -69 24 -134
28 -144 5 -14 4 -17 -4 -12 -7 4 -12 15 -12 25 0 9 -29 100 -64 202 -35 101
-91 270 -126 374 -34 105 -70 206 -80 225 -9 19 -48 112 -85 205 -37 94 -71
174 -76 180 -5 5 -9 32 -9 60 0 91 127 316 224 397 54 46 134 94 178 107 48
15 213 7 286 -14z m3680 0 c94 -28 197 -135 268 -279 26 -53 31 -72 23 -83
-15 -17 -29 -17 -29 2 0 8 -4 15 -10 15 -5 0 -10 -4 -10 -10 0 -5 -7 -10 -16
-10 -8 0 -12 -5 -9 -10 4 -6 15 -8 26 -5 13 4 19 2 19 -8 0 -19 27 -30 34 -14
3 9 5 8 5 -1 1 -18 -29 -28 -39 -12 -4 7 -13 9 -20 5 -8 -5 -18 -1 -26 10 -8
10 -17 15 -21 10 -5 -4 -2 -10 5 -12 6 -3 9 -10 6 -15 -4 -6 -2 -8 4 -4 17 10
42 -23 42 -55 0 -46 -30 -38 -31 9 -1 38 -3 37 -13 -10 -4 -16 -13 -28 -21
-28 -11 0 -15 -11 -15 -40 l0 -40 -54 0 c-30 0 -58 5 -61 11 -4 6 -14 8 -22 5
-9 -4 -13 -1 -10 6 2 7 12 12 21 12 18 -2 22 11 5 21 -13 8 -51 -24 -46 -39 2
-6 15 -11 28 -11 20 0 25 -6 27 -32 3 -28 0 -33 -17 -33 -12 0 -21 7 -21 15 0
9 -8 25 -19 36 -18 20 -18 20 -36 -7 -16 -25 -16 -27 -1 -21 9 4 15 3 11 -2
-8 -14 6 -41 21 -41 11 0 14 -11 12 -40 -3 -54 -26 -53 -30 2 -2 23 -8 43 -13
45 -6 2 -9 -15 -7 -42 3 -36 1 -45 -12 -45 -12 0 -16 -10 -16 -41 0 -36 -2
-40 -22 -37 -21 3 -23 -2 -26 -48 -2 -35 -9 -57 -22 -69 -15 -14 -17 -26 -13
-72 6 -53 5 -56 -15 -51 -15 4 -19 2 -15 -8 7 -18 50 -18 68 0 9 8 15 41 17
87 l3 74 68 3 67 3 0 -41 c0 -38 -2 -40 -30 -40 -28 0 -30 -2 -30 -40 l0 -40
-40 0 c-33 0 -40 -3 -40 -20 0 -18 7 -20 79 -20 54 0 81 4 84 13 4 9 8 9 15
-2 6 -8 20 -12 36 -9 15 3 26 1 27 -6 0 -6 5 0 10 13 7 18 6 27 -3 34 -9 6 -7
7 6 3 17 -6 18 -2 13 36 -5 39 -5 40 5 14 8 -22 8 -38 -2 -63 -6 -19 -10 -37
-7 -39 5 -6 47 108 47 129 0 8 4 17 10 19 16 5 41 120 35 159 -4 22 -2 40 4
44 6 3 11 26 11 51 0 31 4 44 14 44 8 0 17 10 19 23 3 12 3 3 2 -21 -1 -23 1
-44 5 -47 13 -8 20 52 10 87 -12 40 -12 41 -1 33 5 -3 12 5 14 17 2 13 3 3 1
-22 l-3 -45 11 42 c12 48 2 137 -14 127 -7 -5 -9 2 -4 22 4 18 3 24 -2 16 -6
-9 -9 -3 -10 20 -1 28 1 30 10 14 18 -33 38 -119 38 -169 0 -42 -49 -216 -85
-302 -7 -16 -29 -77 -50 -135 -21 -58 -44 -118 -51 -135 -21 -50 -123 -330
-177 -488 -45 -133 -52 -146 -66 -132 -14 13 -13 26 2 122 30 187 34 200 36
110 1 -83 16 -97 27 -26 5 28 10 36 15 27 6 -9 9 -7 9 9 0 12 5 25 10 28 6 3
10 16 10 28 0 12 7 31 15 41 21 27 19 60 -5 81 -20 18 -21 18 -37 -23 -9 -23
-20 -42 -24 -42 -10 0 -8 42 4 57 11 16 -18 54 -70 92 -54 40 -115 112 -108
129 9 23 -4 52 -21 45 -8 -3 -14 1 -14 8 0 8 -11 26 -24 41 l-23 28 -7 -46
c-3 -25 -22 -96 -42 -157 -85 -267 -123 -399 -124 -430 0 -31 -33 -133 -38
-119 -5 17 13 122 44 252 64 271 147 660 170 800 40 243 22 445 -56 616 -20
45 -25 66 -17 69 107 35 255 43 335 20z m-1569 -285 c0 -36 -3 -71 -8 -79 -5
-8 -7 17 -5 60 3 55 2 69 -6 54 -9 -18 -10 -17 -5 5 2 14 5 34 6 45 l0 20 9
-20 c5 -11 9 -49 9 -85z m-812 38 c-3 -8 -6 -5 -6 6 -1 11 2 17 5 13 3 -3 4
-12 1 -19z m-18 -223 c-5 -5 -8 43 -7 110 l1 120 7 -110 c4 -60 3 -114 -1
-120z m23 80 c3 -49 2 -76 -2 -60 -8 30 -13 162 -6 154 2 -2 5 -44 8 -94z
m717 11 c-9 -8 -10 -7 -5 7 3 10 7 24 7 30 1 7 3 4 6 -7 3 -10 -1 -23 -8 -30z
m-686 -26 c3 -34 2 -47 -3 -35 -8 19 -14 103 -6 94 2 -2 6 -29 9 -59z m744 -7
c-3 -10 -5 -4 -5 12 0 17 2 24 5 18 2 -7 2 -21 0 -30z m-707 13 c0 -3 -4 -8
-10 -11 -5 -3 -10 -1 -10 4 0 6 5 11 10 11 6 0 10 -2 10 -4z m680 -6 c0 -5 -4
-10 -10 -10 -5 0 -10 5 -10 10 0 6 5 10 10 10 6 0 10 -4 10 -10z m47 -82 c-2
-13 -4 -3 -4 22 0 25 2 35 4 23 2 -13 2 -33 0 -45z m1913 -37 c-1 -13 -29 45
-29 59 0 8 6 0 14 -19 8 -18 15 -36 15 -40z m-1933 27 c-3 -7 -5 -2 -5 12 0
14 2 19 5 13 2 -7 2 -19 0 -25z m-737 -8 c6 9 15 4 35 -19 32 -35 45 -39 45
-14 0 13 7 10 30 -12 28 -27 30 -34 30 -103 0 -55 -4 -78 -15 -86 -9 -7 -16
-30 -17 -58 -1 -26 -5 -44 -8 -40 -14 19 -25 7 -25 -28 0 -44 20 -74 34 -52 7
11 9 11 14 -2 4 -9 13 -13 22 -10 19 8 20 24 1 24 -21 0 -28 15 -20 46 7 26 8
26 20 9 13 -18 14 -18 14 3 0 13 6 22 15 22 11 0 15 -12 15 -45 0 -31 4 -44
13 -43 7 2 13 -11 15 -34 2 -29 0 -38 -12 -38 -20 0 -20 -9 1 -32 22 -25 33
-23 33 7 0 16 6 25 15 25 11 0 15 -11 15 -40 0 -34 3 -40 20 -40 18 0 20 -5
18 -44 -2 -24 -5 -43 -8 -41 -3 2 -12 0 -20 -6 -11 -6 -8 -9 13 -9 16 0 26 -4
22 -10 -4 -6 12 -10 39 -10 30 0 46 -4 46 -12 0 -9 4 -8 11 2 8 11 12 12 16 3
2 -7 9 -13 15 -13 14 0 118 107 118 121 0 5 7 12 16 16 8 3 13 11 11 17 -2 6
5 19 15 29 24 22 23 18 -8 -42 -15 -27 -53 -77 -86 -111 -122 -124 -217 -138
-312 -45 -49 48 -133 206 -121 226 5 8 5 11 0 7 -19 -17 -101 283 -90 326 5
16 4 17 -3 7 -18 -26 -26 72 -11 131 10 39 15 47 17 29 3 -17 6 -20 12 -11z
m-43 -17 c-3 -10 -5 -4 -5 12 0 17 2 24 5 18 2 -7 2 -21 0 -30z m2620 -40 c-3
-10 -5 -2 -5 17 0 19 2 27 5 18 2 -10 2 -26 0 -35z m-1997 -4 c0 -10 -6 -19
-14 -19 -9 0 -12 8 -8 25 5 28 22 24 22 -6z m-413 -51 c-3 -8 -6 -5 -6 6 -1
11 2 17 5 13 3 -3 4 -12 1 -19z m2400 -170 c-3 -8 -6 -5 -6 6 -1 11 2 17 5 13
3 -3 4 -12 1 -19z m-1880 -30 c-3 -7 -5 -2 -5 12 0 14 2 19 5 13 2 -7 2 -19 0
-25z m-27 -15 c-11 -17 -11 -17 -6 0 3 10 6 24 7 30 0 9 2 9 5 0 3 -7 0 -20
-6 -30z m15 -45 c-4 -18 -11 -37 -17 -43 -9 -9 -5 22 8 63 8 26 15 10 9 -20z
m1892 -40 c-3 -7 -5 -2 -5 12 0 14 2 19 5 13 2 -7 2 -19 0 -25z m-1920 -40
c-3 -8 -6 -5 -6 6 -1 11 2 17 5 13 3 -3 4 -12 1 -19z m1893 -38 c0 -5 -4 -10
-10 -10 -5 0 -10 5 -10 10 0 6 5 10 10 10 6 0 10 -4 10 -10z m-1995 -90 c3 -5
-1 -10 -9 -10 -9 0 -16 5 -16 10 0 6 4 10 9 10 6 0 13 -4 16 -10z m1266 -17
c-8 -15 -10 -15 -11 -2 0 17 10 32 18 25 2 -3 -1 -13 -7 -23z m339 -9 c0 -8
-4 -12 -10 -9 -5 3 -10 10 -10 16 0 5 5 9 10 9 6 0 10 -7 10 -16z m-1657 -38
c-18 -25 -63 -36 -63 -16 0 6 9 10 20 10 11 0 27 12 37 26 9 15 19 22 21 16 2
-6 -5 -23 -15 -36z m1267 -36 c0 -5 -5 -10 -11 -10 -5 0 -7 5 -4 10 3 6 8 10
11 10 2 0 4 -4 4 -10z m630 -182 c0 -16 -3 -19 -11 -11 -6 6 -8 16 -5 22 11
17 16 13 16 -11z m-30 -63 c-7 -8 -9 -24 -5 -37 7 -20 6 -21 -9 -6 -12 13 -14
22 -6 43 5 14 15 23 20 20 8 -5 7 -11 0 -20z m-43 -7 c-3 -8 -6 -5 -6 6 -1 11
2 17 5 13 3 -3 4 -12 1 -19z m-3044 -15 c-7 -2 -21 -2 -30 0 -10 3 -4 5 12 5
17 0 24 -2 18 -5z m2084 -8 c-21 -8 -45 -11 -55 -7 -12 5 -6 9 23 13 65 10 72
8 32 -6z m980 -37 c-3 -8 -6 -5 -6 6 -1 11 2 17 5 13 3 -3 4 -12 1 -19z
m-3154 -15 c-7 -2 -19 -2 -25 0 -7 3 -2 5 12 5 14 0 19 -2 13 -5z m44 1 c-3
-3 -12 -4 -19 -1 -8 3 -5 6 6 6 11 1 17 -2 13 -5z m-90 -10 c-3 -3 -12 -4 -19
-1 -8 3 -5 6 6 6 11 1 17 -2 13 -5z m2313 -76 c42 -13 190 -88 190 -97 0 -3
-23 -21 -50 -40 -55 -38 -55 -37 -38 -47 7 -5 8 -3 3 6 -6 9 -1 10 16 5 16 -4
19 -3 11 3 -10 7 -7 13 14 27 19 12 26 14 22 4 -3 -8 0 -20 8 -26 10 -10 12
-8 11 14 -1 14 3 28 10 30 15 5 46 -54 37 -69 -4 -7 -3 -8 4 -4 15 9 52 -113
52 -171 0 -24 -4 -42 -9 -38 -5 3 -11 -3 -13 -12 -3 -10 -8 1 -12 24 -9 52
-23 65 -18 17 3 -26 1 -34 -12 -34 -14 0 -16 -14 -16 -90 0 -49 4 -90 9 -90 5
0 12 8 14 18 4 13 5 11 6 -5 1 -18 -4 -23 -23 -23 -12 0 -52 -3 -87 -6 -47 -4
-60 -3 -49 5 8 6 10 11 5 11 -17 0 -35 -22 -35 -42 0 -22 42 -21 -550 -22
l-485 -1 3 110 c5 205 28 289 103 370 58 63 108 87 194 93 64 4 77 1 148 -32
44 -20 85 -33 95 -29 9 3 34 22 54 41 23 22 42 32 52 29 12 -5 16 0 16 16 0
61 190 93 320 55z m-2460 8 c0 -2 -7 -7 -16 -10 -8 -3 -12 -2 -9 4 6 10 25 14
25 6z m479 -23 c44 -12 66 -26 113 -74 54 -56 60 -59 105 -59 33 0 67 9 108
30 33 16 69 30 80 30 37 -1 100 -36 135 -77 62 -71 71 -84 64 -95 -4 -7 -3 -8
4 -4 26 16 49 -94 55 -261 l4 -123 -71 0 c-39 0 -128 -3 -197 -7 l-127 -6 -11
54 c-18 87 -61 206 -83 235 -20 25 -22 26 -35 8 -9 -13 -13 -57 -13 -153 l0
-136 -348 -2 -347 -3 3 118 c5 248 34 355 117 438 60 61 100 83 175 100 65 15
191 9 269 -13z m184 2 c10 -14 14 -25 10 -25 -9 0 -43 36 -43 45 0 12 17 2 33
-20z m-913 -201 l35 -15 -43 -19 c-73 -33 -103 -61 -128 -116 -25 -57 -49
-217 -41 -269 l5 -30 -149 -2 -149 -3 0 23 c0 35 36 170 59 222 24 55 97 134
162 176 89 57 166 67 249 33z m3455 -16 c52 -27 59 -33 125 -106 39 -43 39
-44 22 -69 -9 -15 -15 -37 -14 -49 2 -12 -2 -25 -8 -29 -6 -4 -8 -15 -5 -26 5
-16 1 -19 -29 -19 -20 0 -36 5 -36 11 0 5 -4 8 -9 5 -5 -4 -8 -17 -7 -30 2
-19 -3 -25 -24 -29 -57 -12 -64 -5 -72 67 -13 111 -61 181 -160 232 -27 13
-48 26 -48 29 0 2 17 14 38 25 52 29 158 23 227 -12z m-3389 -120 c-3 -29 -6
-110 -6 -180 l0 -128 -87 0 -88 0 1 93 c1 136 32 195 129 245 22 12 44 21 49
22 5 0 6 -24 2 -52z m3154 4 c14 -10 39 -38 55 -61 29 -41 30 -47 30 -144 l0
-102 -83 0 c-46 0 -87 2 -91 5 -5 3 -11 64 -14 135 -4 72 -10 149 -13 172 l-7
43 49 -15 c27 -8 60 -23 74 -33z m404 -77 c-8 -34 3 -75 21 -75 14 0 13 3 -1
25 -9 13 -14 30 -11 37 3 7 12 -5 22 -26 12 -29 14 -41 5 -46 -9 -6 -10 -15
-2 -36 l10 -29 2 30 c2 30 2 30 10 5 13 -40 11 -46 -15 -48 -23 -2 -25 2 -25
37 0 22 -6 44 -15 51 -10 9 -15 9 -15 1 0 -6 -5 -11 -11 -11 -7 0 -8 7 -4 18
4 9 9 26 10 37 2 22 15 55 21 55 3 0 2 -11 -2 -25z m-616 -115 c4 -115 3 -120
-17 -120 -11 0 -25 8 -30 18 -6 9 -11 11 -11 5 0 -9 -19 -13 -62 -12 -45 0
-57 3 -43 9 16 7 10 9 -25 11 l-45 1 60 10 c33 5 74 7 92 4 l31 -4 10 91 10
92 -2 -82 c0 -44 2 -79 7 -76 4 2 7 39 7 82 0 63 4 91 14 91 1 0 3 -54 4 -120z
m-51 58 c-2 -13 -4 -5 -4 17 -1 22 1 32 4 23 2 -10 2 -28 0 -40z m-1347 -83
l0 -85 -50 0 c-50 0 -50 0 -50 33 0 23 3 28 9 17 6 -8 8 -17 5 -21 -2 -4 3 -9
11 -13 10 -3 15 1 16 12 1 16 2 16 6 0 6 -25 30 -22 37 5 3 12 6 48 6 80 0 31
2 57 5 57 3 0 5 -38 5 -85z m2090 -66 c0 -16 -4 -29 -10 -29 -5 0 -10 9 -10
19 0 11 -3 27 -6 35 -5 12 -2 15 10 10 10 -4 16 -18 16 -35z m-162 24 c-10 -2
-28 -2 -40 0 -13 2 -5 4 17 4 22 1 32 -1 23 -4z m130 -25 l3 -28 -105 0 c-61
0 -106 4 -106 10 0 5 39 7 100 3 72 -4 100 -3 100 5 0 7 -12 13 -27 13 l-28 2
30 5 c28 6 27 6 -15 13 l-45 7 45 -2 c41 -1 45 -3 48 -28z m-91 6 c-3 -3 -12
-4 -19 -1 -8 3 -5 6 6 6 11 1 17 -2 13 -5z m-162 -144 c811 -23 1031 -35 1058
-55 15 -11 45 -110 60 -200 l6 -30 -402 -1 c-221 0 -1541 -4 -2934 -9 l-2532
-8 15 49 c9 27 25 83 37 124 17 58 27 77 47 87 37 17 584 38 1500 57 329 7
2813 -4 3145 -14z"/>
<path d="M6415 8506 c10 -14 19 -26 22 -26 7 0 -17 39 -28 46 -6 3 -3 -5 6
-20z"/>
<path d="M6452 8450 c7 -11 16 -20 20 -20 5 0 3 9 -4 20 -7 11 -16 20 -20 20
-5 0 -3 -9 4 -20z"/>
<path d="M6290 6576 c0 -2 8 -10 18 -17 15 -13 16 -12 3 4 -13 16 -21 21 -21
13z"/>
<path d="M3788 6393 c7 -3 16 -2 19 1 4 3 -2 6 -13 5 -11 0 -14 -3 -6 -6z"/>
<path d="M5939 3693 c-13 -16 -12 -17 4 -4 16 13 21 21 13 21 -2 0 -10 -8 -17
-17z"/>
<path d="M4890 2863 c0 -13 29 -38 35 -31 3 3 -4 13 -15 23 -11 10 -20 13 -20
8z"/>
<path d="M4970 2765 c0 -17 53 -85 66 -85 11 0 4 13 -22 45 -35 43 -44 51 -44
40z"/>
<path d="M6538 2058 c-8 -13 -18 -33 -22 -46 -5 -13 -10 -21 -14 -18 -8 9 -52
-35 -52 -51 0 -23 16 -14 33 20 l18 32 -5 -30 -5 -30 13 29 c10 21 15 25 20
15 3 -8 4 -4 2 9 -2 12 -1 22 3 22 7 0 33 62 27 67 -2 2 -10 -7 -18 -19z"/>
<path d="M6432 1989 c-15 -23 -15 -29 -2 -29 6 0 10 6 10 14 0 8 5 16 12 18 7
3 8 7 2 11 -5 3 -15 -3 -22 -14z"/>
<path d="M6418 1923 c7 -3 16 -2 19 1 4 3 -2 6 -13 5 -11 0 -14 -3 -6 -6z"/>
<path d="M4273 1863 c9 -2 23 -2 30 0 6 3 -1 5 -18 5 -16 0 -22 -2 -12 -5z"/>
<path d="M4348 1843 c7 -3 16 -2 19 1 4 3 -2 6 -13 5 -11 0 -14 -3 -6 -6z"/>
<path d="M4158 1833 c7 -3 16 -2 19 1 4 3 -2 6 -13 5 -11 0 -14 -3 -6 -6z"/>
<path d="M4407 1819 c7 -7 15 -10 18 -7 3 3 -2 9 -12 12 -14 6 -15 5 -6 -5z"/>
<path d="M5983 1813 c9 -2 23 -2 30 0 6 3 -1 5 -18 5 -16 0 -22 -2 -12 -5z"/>
<path d="M5905 1800 c-25 -11 1 -11 35 0 20 6 21 8 5 8 -11 0 -29 -3 -40 -8z"/>
<path d="M3350 2525 c-11 -13 -10 -14 4 -9 9 3 16 10 16 15 0 13 -6 11 -20 -6z"/>
<path d="M3380 2491 c0 -6 4 -13 10 -16 6 -3 7 1 4 9 -7 18 -14 21 -14 7z"/>
<path d="M3105 2416 c-47 -22 -48 -23 -18 -22 17 0 29 3 27 6 -3 2 10 12 28
22 48 25 21 21 -37 -6z"/>
<path d="M3238 2433 c7 -3 16 -2 19 1 4 3 -2 6 -13 5 -11 0 -14 -3 -6 -6z"/>
<path d="M3290 2269 c0 -5 5 -7 10 -4 6 3 10 8 10 11 0 2 -4 4 -10 4 -5 0 -10
-5 -10 -11z"/>
<path d="M7295 2890 c-3 -5 1 -10 9 -10 9 0 16 5 16 10 0 6 -4 10 -9 10 -6 0
-13 -4 -16 -10z"/>
<path d="M7265 2861 c-3 -5 -1 -12 5 -16 5 -3 10 1 10 9 0 18 -6 21 -15 7z"/>
<path d="M7210 2815 c-13 -14 -18 -25 -12 -25 7 0 12 4 12 8 0 5 13 9 29 9 20
0 28 -4 24 -14 -3 -7 0 -13 6 -13 16 0 13 26 -5 44 -21 21 -26 20 -54 -9z m40
5 c0 -5 -4 -10 -10 -10 -5 0 -10 5 -10 10 0 6 5 10 10 10 6 0 10 -4 10 -10z"/>
<path d="M6994 2577 c-14 -17 -25 -47 -16 -47 4 0 15 14 24 30 17 30 12 40 -8
17z"/>
<path d="M7407 2520 c-3 -11 -2 -20 3 -20 4 0 10 9 13 20 3 11 2 20 -3 20 -4
0 -10 -9 -13 -20z"/>
<path d="M6915 2290 c3 -5 8 -10 11 -10 2 0 4 5 4 10 0 6 -5 10 -11 10 -5 0
-7 -4 -4 -10z"/>
<path d="M7286 2163 c-6 -14 -5 -15 5 -6 7 7 10 15 7 18 -3 3 -9 -2 -12 -12z"/>
<path d="M6990 2150 c0 -5 7 -7 15 -4 8 4 15 8 15 10 0 2 -7 4 -15 4 -8 0 -15
-4 -15 -10z"/>
<path d="M7120 2150 c0 -5 18 -10 40 -10 22 0 40 5 40 10 0 6 -18 10 -40 10
-22 0 -40 -4 -40 -10z"/>
<path d="M7235 2150 c3 -5 10 -10 16 -10 5 0 9 5 9 10 0 6 -7 10 -16 10 -8 0
-12 -4 -9 -10z"/>
<path d="M7023 2134 c-15 -16 -16 -24 -4 -24 8 0 24 30 19 35 -2 2 -9 -3 -15
-11z"/>
<path d="M7200 2110 c1 -14 7 -38 14 -55 14 -30 14 -29 9 15 -6 49 -23 80 -23
40z"/>
<path d="M7076 2071 c-3 -5 5 -8 18 -7 13 0 22 4 19 9 -6 10 -31 9 -37 -2z"/>
<path d="M7090 2046 c0 -2 7 -7 16 -10 8 -3 12 -2 9 4 -6 10 -25 14 -25 6z"/>
<path d="M7216 1997 c3 -10 9 -15 12 -12 3 3 0 11 -7 18 -10 9 -11 8 -5 -6z"/>
<path d="M7092 1740 c0 -14 2 -19 5 -12 2 6 2 18 0 25 -3 6 -5 1 -5 -13z"/>
<path d="M7101 1664 c0 -11 3 -14 6 -6 3 7 2 16 -1 19 -3 4 -6 -2 -5 -13z"/>
<path d="M4871 2504 c0 -11 3 -14 6 -6 3 7 2 16 -1 19 -3 4 -6 -2 -5 -13z"/>
<path d="M4841 2494 c0 -11 3 -14 6 -6 3 7 2 16 -1 19 -3 4 -6 -2 -5 -13z"/>
<path d="M4831 2444 c0 -11 3 -14 6 -6 3 7 2 16 -1 19 -3 4 -6 -2 -5 -13z"/>
<path d="M4861 2444 c0 -11 3 -14 6 -6 3 7 2 16 -1 19 -3 4 -6 -2 -5 -13z"/>
<path d="M4851 2393 c7 -12 15 -20 18 -17 3 2 -3 12 -13 22 -17 16 -18 16 -5
-5z"/>
<path d="M4918 2313 c7 -3 16 -2 19 1 4 3 -2 6 -13 5 -11 0 -14 -3 -6 -6z"/>
<path d="M4921 2254 c0 -11 3 -14 6 -6 3 7 2 16 -1 19 -3 4 -6 -2 -5 -13z"/>
<path d="M4950 2243 c0 -12 -4 -23 -9 -25 -5 -1 -3 -12 6 -23 14 -19 15 -19
11 5 -3 22 0 25 22 22 14 -2 30 -8 36 -13 13 -10 24 -2 24 19 0 11 -8 13 -34
8 -27 -5 -37 -3 -45 11 -9 16 -10 16 -11 -4z"/>
<path d="M5021 2151 c-12 -8 -12 -11 1 -25 14 -14 16 -13 14 9 0 14 -1 25 -1
25 0 0 -6 -4 -14 -9z"/>
<path d="M5015 2090 c10 -11 20 -20 22 -20 2 0 -1 9 -7 20 -6 11 -16 20 -22
20 -6 0 -3 -9 7 -20z"/>
<path d="M5105 2070 c-3 -5 -2 -10 4 -10 5 0 13 5 16 10 3 6 2 10 -4 10 -5 0
-13 -4 -16 -10z"/>
<path d="M5188 2073 c7 -3 16 -2 19 1 4 3 -2 6 -13 5 -11 0 -14 -3 -6 -6z"/>
<path d="M5150 2060 c0 -5 5 -10 11 -10 5 0 7 5 4 10 -3 6 -8 10 -11 10 -2 0
-4 -4 -4 -10z"/>
<path d="M6440 1570 c0 -5 5 -10 10 -10 6 0 10 5 10 10 0 6 -4 10 -10 10 -5 0
-10 -4 -10 -10z"/>
<path d="M6405 1530 c3 -5 8 -10 11 -10 2 0 4 5 4 10 0 6 -5 10 -11 10 -5 0
-7 -4 -4 -10z"/>
<path d="M6372 1400 c0 -14 2 -19 5 -12 2 6 2 18 0 25 -3 6 -5 1 -5 -13z"/>
<path d="M5704 1366 c1 -8 8 -21 15 -30 7 -8 10 -20 7 -25 -4 -5 -1 -13 5 -17
8 -4 7 -9 -2 -15 -11 -8 -9 -13 10 -29 28 -24 41 -25 41 -5 0 8 7 15 15 15 8
0 15 -4 15 -10 0 -5 7 -10 15 -10 24 0 17 -20 -7 -21 -23 0 -22 -1 2 -12 14
-6 29 -16 33 -22 5 -5 6 1 2 15 -5 22 -5 23 5 7 7 -10 10 -27 7 -38 -3 -10 -1
-17 4 -13 9 5 12 -12 10 -51 -1 -20 -1 -20 8 0 12 30 -36 197 -50 173 -4 -6
-14 -8 -24 -5 -9 4 -13 12 -10 18 4 5 1 23 -5 40 -11 26 -21 34 -42 30 -5 0
-8 4 -8 9 0 6 -11 10 -24 10 -15 0 -23 -5 -22 -14z m82 -60 c1 -17 -2 -23 -12
-19 -10 4 -11 10 -3 24 13 24 14 24 15 -5z"/>
<path d="M6512 1360 c0 -14 2 -19 5 -12 2 6 2 18 0 25 -3 6 -5 1 -5 -13z"/>
<path d="M5648 1343 c-16 -35 -16 -161 0 -188 9 -17 11 -14 9 22 0 23 -5 39
-9 37 -4 -3 -8 13 -8 35 0 22 5 43 10 46 6 3 10 19 10 35 0 15 6 31 13 33 9 4
9 6 -1 6 -7 1 -18 -11 -24 -26z"/>
<path d="M6370 1324 c-6 -49 15 -81 26 -39 4 14 4 29 0 32 -3 4 -7 -5 -8 -18
0 -13 -4 -4 -7 21 l-7 45 -4 -41z"/>
<path d="M5657 1283 c-4 -3 -7 -11 -7 -17 0 -6 5 -5 12 2 6 6 9 14 7 17 -3 3
-9 2 -12 -2z"/>
<path d="M6361 1244 c0 -11 3 -14 6 -6 3 7 2 16 -1 19 -3 4 -6 -2 -5 -13z"/>
<path d="M6392 1220 c0 -14 2 -19 5 -12 2 6 2 18 0 25 -3 6 -5 1 -5 -13z"/>
<path d="M6340 1193 c0 -21 3 -24 9 -14 5 8 7 20 4 28 -8 21 -13 15 -13 -14z"/>
<path d="M6366 1163 c-5 -19 -10 -23 -19 -14 -15 15 -27 14 -27 -3 0 -22 31
-28 51 -10 20 18 25 39 10 48 -5 3 -12 -6 -15 -21z"/>
<path d="M4807 1519 c7 -7 15 -10 18 -7 3 3 -2 9 -12 12 -14 6 -15 5 -6 -5z"/>
<path d="M4827 1483 c-4 -3 -7 -11 -7 -17 0 -6 5 -5 12 2 6 6 9 14 7 17 -3 3
-9 2 -12 -2z"/>
<path d="M4834 1428 c0 -12 7 -23 14 -26 13 -4 15 7 6 32 -9 23 -21 20 -20 -6z"/>
<path d="M4791 1394 c0 -11 3 -14 6 -6 3 7 2 16 -1 19 -3 4 -6 -2 -5 -13z"/>
<path d="M4146 1386 c4 -11 0 -13 -14 -9 -15 4 -24 -3 -35 -24 -17 -35 -28
-141 -17 -168 6 -14 9 -16 10 -5 2 8 2 19 0 25 -1 5 1 24 5 43 4 24 10 32 21
28 9 -4 12 -2 8 5 -3 6 -1 22 7 35 10 19 10 27 1 36 -9 9 -12 6 -12 -15 0 -15
-5 -27 -11 -27 -6 0 -8 7 -5 16 3 9 6 23 6 31 0 10 6 14 20 10 11 -3 23 -1 26
4 9 15 24 10 18 -6 -7 -18 12 -20 20 -2 3 6 3 0 0 -15 -4 -18 0 -33 10 -44 9
-8 14 -19 11 -24 -3 -5 -1 -11 5 -15 5 -3 10 0 10 7 0 10 3 9 11 -2 8 -11 9
-4 6 29 -6 49 -36 85 -79 95 -21 5 -26 3 -22 -8z"/>
<path d="M4897 1347 c-4 -16 -5 -38 -1 -49 3 -11 2 -18 -2 -15 -5 3 -9 -31 -9
-74 0 -56 -4 -82 -13 -88 -11 -7 -11 -9 2 -14 17 -7 17 -7 34 103 12 74 2 187
-11 137z m10 -99 c-3 -7 -5 -2 -5 12 0 14 2 19 5 13 2 -7 2 -19 0 -25z"/>
<path d="M4156 1323 c-6 -14 -5 -15 5 -6 7 7 10 15 7 18 -3 3 -9 -2 -12 -12z"/>
<path d="M4791 1324 c0 -11 3 -14 6 -6 3 7 2 16 -1 19 -3 4 -6 -2 -5 -13z"/>
<path d="M4782 1275 c0 -16 2 -22 5 -12 2 9 2 23 0 30 -3 6 -5 -1 -5 -18z"/>
<path d="M4738 1150 c-3 -16 -1 -30 4 -30 4 0 8 14 8 30 0 17 -2 30 -4 30 -2
0 -6 -13 -8 -30z"/>
<path d="M4911 1134 c0 -11 3 -14 6 -6 3 7 2 16 -1 19 -3 4 -6 -2 -5 -13z"/>
<path d="M4753 1103 c9 -2 25 -2 35 0 9 3 1 5 -18 5 -19 0 -27 -2 -17 -5z"/>
<path d="M4845 1090 c-15 -6 -9 -9 25 -9 34 0 40 3 25 9 -11 5 -22 9 -25 9 -3
0 -14 -4 -25 -9z"/>
<path d="M4738 1083 c12 -2 32 -2 45 0 12 2 2 4 -23 4 -25 0 -35 -2 -22 -4z"/>
<path d="M7095 1372 c-12 -8 -35 -79 -35 -106 0 -10 5 -14 11 -11 6 4 8 13 5
20 -2 7 1 29 8 50 l13 37 7 -32 c8 -43 7 -60 -4 -35 -7 16 -9 14 -9 -15 -1
-20 -8 -46 -17 -58 -17 -24 -8 -28 19 -8 9 7 17 24 17 37 1 13 7 35 15 49 19
33 19 46 0 30 -13 -10 -15 -9 -16 11 -1 13 -1 27 0 32 1 9 -1 9 -14 -1z"/>
<path d="M7040 1224 c0 -8 5 -12 10 -9 6 3 10 10 10 16 0 5 -4 9 -10 9 -5 0
-10 -7 -10 -16z"/>
<path d="M6745 1340 c21 -24 26 -25 19 -6 -3 8 -13 17 -22 21 -13 5 -13 2 3
-15z"/>
<path d="M6510 1084 c0 -8 5 -12 10 -9 6 3 10 10 10 16 0 5 -4 9 -10 9 -5 0
-10 -7 -10 -16z"/>
<path d="M6425 1080 c-4 -6 7 -10 24 -10 17 0 31 5 31 10 0 6 -11 10 -24 10
-14 0 -28 -4 -31 -10z"/>
<path d="M7338 843 c6 -2 18 -2 25 0 6 3 1 5 -13 5 -14 0 -19 -2 -12 -5z"/>
<path d="M6988 833 c12 -2 30 -2 40 0 9 3 -1 5 -23 4 -22 0 -30 -2 -17 -4z"/>
<path d="M7840 790 c0 -5 18 -10 40 -10 22 0 40 5 40 10 0 6 -18 10 -40 10
-22 0 -40 -4 -40 -10z"/>
<path d="M6638 785 c-2 -3 -123 -5 -269 -6 -170 -1 -251 -5 -229 -10 48 -12
1648 -1 1669 11 10 6 -193 9 -575 10 -325 0 -593 -2 -596 -5z"/>
<path d="M7570 751 c-32 -7 -29 -8 33 -15 37 -5 71 -6 74 -2 4 3 -14 7 -38 8
l-44 1 45 7 45 7 -40 0 c-22 0 -56 -3 -75 -6z"/>
<path d="M7378 743 c12 -2 32 -2 45 0 12 2 2 4 -23 4 -25 0 -35 -2 -22 -4z"/>
<path d="M7488 743 c6 -2 18 -2 25 0 6 3 1 5 -13 5 -14 0 -19 -2 -12 -5z"/>
<path d="M27 103 c-25 -4 -27 -8 -27 -54 0 -48 1 -49 30 -49 30 0 30 1 30 55
0 30 -1 54 -2 54 -2 -1 -15 -4 -31 -6z"/>
</g>
</svg>
