<?xml version="1.0" standalone="no"?>
<!DOCTYPE svg PUBLIC "-//W3C//DTD SVG 20010904//EN"
 "http://www.w3.org/TR/2001/REC-SVG-20010904/DTD/svg10.dtd">
<svg version="1.0" xmlns="http://www.w3.org/2000/svg"
 width="1024.000000pt" height="1024.000000pt" viewBox="0 0 1024.000000 1024.000000"
 preserveAspectRatio="xMidYMid meet">
<metadata>
Created by potrace 1.16, written by Peter Selinger 2001-2019
</metadata>
<g transform="translate(0.000000,1024.000000) scale(0.100000,-0.100000)"
fill="#000000" stroke="none">
<path d="M2326 9785 c-13 -14 -26 -40 -29 -58 -4 -17 -13 -62 -21 -99 -20 -93
-51 -314 -77 -558 -29 -264 -31 -695 -6 -925 32 -286 37 -330 52 -415 8 -47
24 -148 35 -225 34 -232 106 -577 201 -965 75 -305 79 -320 146 -536 42 -135
45 -142 96 -191 116 -112 288 -208 492 -274 57 -19 105 -39 105 -45 0 -15 -60
-69 -97 -88 -18 -9 -33 -21 -33 -27 0 -6 34 -84 76 -173 122 -257 184 -395
184 -405 0 -5 -12 -12 -26 -15 -77 -20 -223 -155 -268 -249 -52 -108 -43 -186
41 -374 25 -56 43 -111 40 -120 -11 -37 -330 -752 -510 -1144 -80 -174 -138
-289 -274 -547 -66 -126 -74 -172 -45 -269 12 -37 38 -97 59 -132 46 -77 189
-230 270 -290 60 -43 60 -44 52 -80 -22 -93 -2 -506 26 -562 18 -35 97 -99
157 -127 166 -78 187 -87 708 -296 121 -49 355 -134 498 -181 6 -3 12 -19 12
-37 0 -45 64 -227 87 -248 10 -9 41 -25 68 -35 28 -9 87 -35 132 -56 l82 -39
444 0 c496 0 439 -7 624 80 62 29 108 58 118 73 30 47 58 131 64 197 6 61 8
65 36 74 128 40 971 374 1190 471 76 34 174 111 191 150 19 46 38 301 30 407
-4 48 -13 109 -21 135 -9 30 -11 49 -5 51 6 2 50 35 99 72 164 127 282 307
289 442 l4 66 -112 229 c-175 356 -418 872 -500 1063 -32 74 -92 214 -135 310
-108 246 -106 234 -66 322 85 184 94 264 43 372 -38 82 -103 152 -212 228
-107 76 -105 74 -93 90 6 7 24 47 41 88 41 103 101 230 122 260 9 14 32 54 49
90 18 36 37 73 42 82 15 30 11 37 -38 60 -27 13 -57 37 -68 53 -25 38 -48 37
-200 -10 -60 -18 -163 -47 -229 -64 -65 -17 -173 -52 -240 -77 -157 -60 -355
-125 -536 -175 -233 -64 -246 -68 -265 -89 -18 -20 -19 -20 -37 37 -10 32 -18
61 -18 66 0 4 20 7 45 7 118 0 385 78 660 192 225 94 386 135 660 169 69 8
106 9 119 2 17 -9 146 24 276 71 74 28 206 102 282 159 128 97 130 100 198
310 101 317 206 744 255 1042 14 83 37 206 50 275 96 493 140 1042 116 1432
-20 323 -62 646 -112 860 -25 106 -53 138 -124 138 -64 0 -165 -35 -234 -81
-87 -58 -257 -224 -375 -365 -227 -272 -504 -746 -686 -1174 -32 -74 -65 -151
-73 -170 -9 -19 -61 -141 -116 -271 -105 -250 -179 -401 -311 -639 -108 -195
-240 -460 -240 -482 0 -14 -6 -17 -22 -13 -161 38 -801 43 -1055 8 -39 -5 -43
-4 -43 16 0 12 -41 102 -92 199 -296 573 -383 755 -503 1052 -321 793 -697
1398 -1074 1727 -101 89 -178 136 -277 169 -95 32 -138 31 -168 -1z m149 -277
c84 -76 84 -79 74 -348 -6 -148 -18 -300 -34 -410 -41 -296 -85 -722 -85 -833
0 -42 -4 -59 -15 -63 -8 -4 -15 -14 -16 -23 -2 -48 -18 55 -28 190 -7 85 -16
209 -21 277 -14 175 -12 444 4 607 8 77 24 239 35 360 22 226 29 285 36 285 2
0 25 -19 50 -42z m5119 -105 c10 -76 22 -169 27 -208 5 -38 17 -122 25 -185
22 -165 29 -512 14 -783 -13 -245 -36 -498 -39 -414 0 27 -5 46 -10 42 -16 -9
-23 14 -31 89 -20 184 -61 533 -65 551 -2 11 -16 112 -31 225 -23 168 -28 247
-29 440 -1 129 2 245 6 256 7 21 98 124 109 124 3 0 14 -62 24 -137z m-4890
-286 c25 -45 59 -120 76 -167 17 -46 37 -98 45 -115 8 -16 43 -102 78 -190 36
-88 96 -239 135 -335 39 -96 94 -240 122 -320 28 -80 60 -167 70 -195 10 -27
24 -79 32 -115 l15 -66 -32 4 c-27 3 -36 11 -48 40 -27 64 -255 630 -347 862
-32 80 -78 192 -103 250 -25 58 -49 122 -52 142 -12 63 -50 58 -65 -8 -5 -21
-10 -73 -11 -114 -1 -41 -4 -61 -7 -45 -2 17 1 104 7 195 16 228 21 271 31
265 5 -3 30 -43 54 -88z m4679 -24 c10 -60 16 -137 16 -173 -1 -36 -4 -53 -6
-37 -2 15 -9 27 -14 27 -5 0 -9 7 -9 15 0 16 -43 31 -59 20 -6 -3 -11 -20 -11
-36 0 -17 -9 -51 -19 -77 -11 -26 -61 -153 -111 -282 -113 -287 -284 -692
-348 -820 -37 -74 -53 -97 -74 -104 -39 -13 -44 -3 -29 57 17 64 107 314 151
417 17 41 53 127 80 190 26 63 69 165 95 225 26 61 59 142 75 180 32 80 77
184 132 302 21 45 38 85 38 89 0 12 61 114 69 114 4 0 15 -48 24 -107z m60
-284 c-4 -4 -7 5 -7 22 2 48 7 56 11 20 3 -18 1 -37 -4 -42z m24 -111 c-3 -7
-5 -2 -5 12 0 14 2 19 5 13 2 -7 2 -19 0 -25z m-26 -120 c-8 -38 -9 -35 -9 37
0 66 1 74 9 43 4 -20 4 -55 0 -80z m36 55 c-3 -10 -5 -4 -5 12 0 17 2 24 5 18
2 -7 2 -21 0 -30z m-10 -65 c-3 -8 -6 -5 -6 6 -1 11 2 17 5 13 3 -3 4 -12 1
-19z m20 -30 c-3 -8 -6 -5 -6 6 -1 11 2 17 5 13 3 -3 4 -12 1 -19z m-4880
-175 c-3 -10 -5 -4 -5 12 0 17 2 24 5 18 2 -7 2 -21 0 -30z m4870 -265 c-2
-13 -4 -3 -4 22 0 25 2 35 4 23 2 -13 2 -33 0 -45z m132 -442 c-7 -47 -14 -84
-17 -82 -2 3 1 44 8 91 7 47 14 84 17 82 2 -3 -1 -44 -8 -91z m-4614 -187 c14
-129 30 -259 35 -289 41 -247 73 -414 89 -465 42 -132 96 -272 128 -328 l33
-59 -32 19 c-78 45 -196 362 -257 688 -31 169 -54 574 -31 560 6 -4 7 2 2 15
-7 19 -4 105 4 97 2 -2 15 -109 29 -238z m4104 -100 c1 -190 -11 -274 -84
-569 -69 -282 -106 -381 -157 -426 -24 -22 -62 -40 -56 -27 2 5 15 31 29 58
50 95 121 335 153 519 24 133 42 199 55 192 4 -3 7 26 7 62 1 116 9 292 13
279 2 -6 11 -18 19 -26 13 -13 14 -12 6 9 -9 28 -9 38 -4 170 l3 95 8 -85 c4
-47 7 -160 8 -251z m-3698 188 c-10 -9 -11 -8 -5 6 3 10 9 15 12 12 3 -3 0
-11 -7 -18z m4186 -34 c-3 -10 -5 -4 -5 12 0 17 2 24 5 18 2 -7 2 -21 0 -30z
m-5150 5 c-3 -8 -6 -5 -6 6 -1 11 2 17 5 13 3 -3 4 -12 1 -19z m130 -50 c-2
-13 -4 -3 -4 22 0 25 2 35 4 23 2 -13 2 -33 0 -45z m5010 -10 c-3 -7 -5 -2 -5
12 0 14 2 19 5 13 2 -7 2 -19 0 -25z m-5101 -142 c3 -39 2 -67 -1 -64 -3 2 -7
31 -9 64 -2 32 -7 73 -10 89 -6 29 -6 29 4 5 7 -14 13 -56 16 -94z m107 31 c3
-44 4 -77 2 -75 -8 8 -22 122 -17 140 7 28 9 21 15 -65z m4454 -44 c-2 -21 -4
-6 -4 32 0 39 2 55 4 38 2 -18 2 -50 0 -70z m520 45 c-3 -7 -5 -2 -5 12 0 14
2 19 5 13 2 -7 2 -19 0 -25z m-916 -35 c-12 -20 -14 -14 -5 12 4 9 9 14 11 11
3 -2 0 -13 -6 -23z m896 -60 c-3 -10 -5 -4 -5 12 0 17 2 24 5 18 2 -7 2 -21 0
-30z m-920 -5 c-3 -8 -6 -5 -6 6 -1 11 2 17 5 13 3 -3 4 -12 1 -19z m910 -50
c-3 -8 -6 -5 -6 6 -1 11 2 17 5 13 3 -3 4 -12 1 -19z m-4920 -80 c-3 -7 -5 -2
-5 12 0 14 2 19 5 13 2 -7 2 -19 0 -25z m3966 -13 c-3 -9 -8 -14 -10 -11 -3 3
-2 9 2 15 9 16 15 13 8 -4z m904 -157 c-3 -7 -5 -2 -5 12 0 14 2 19 5 13 2 -7
2 -19 0 -25z m-10 -40 c-3 -8 -6 -5 -6 6 -1 11 2 17 5 13 3 -3 4 -12 1 -19z
m-10 -50 c-3 -8 -6 -5 -6 6 -1 11 2 17 5 13 3 -3 4 -12 1 -19z m-4779 -253 l0
-30 -8 30 c-4 17 -8 50 -8 75 l1 45 8 -45 c4 -25 7 -58 7 -75z m-61 53 c-3 -8
-6 -5 -6 6 -1 11 2 17 5 13 3 -3 4 -12 1 -19z m42 -41 c1 -5 -3 -6 -8 -2 -5 3
-12 -5 -14 -17 -3 -15 -5 -11 -6 13 -1 41 10 59 20 32 4 -10 8 -22 8 -26z
m4720 -59 c-12 -45 -25 -87 -30 -92 -5 -5 2 31 16 80 14 49 25 93 25 98 0 5 3
7 6 4 3 -4 -4 -44 -17 -90z m-3159 -47 c0 -5 -7 -12 -16 -15 -14 -5 -15 -4 -4
9 14 17 20 19 20 6z m2130 -28 c-11 -17 -11 -17 -6 0 3 10 6 24 7 30 0 9 2 9
5 0 3 -7 0 -20 -6 -30z m-3653 -125 c-2 -18 -4 -6 -4 27 0 33 2 48 4 33 2 -15
2 -42 0 -60z m1413 68 c0 -2 -8 -10 -17 -17 -16 -13 -17 -12 -4 4 13 16 21 21
21 13z m1116 -81 c43 -15 90 -33 102 -41 23 -15 23 -17 7 -34 -14 -16 -19 -51
-26 -182 -14 -275 -28 -436 -41 -479 -10 -34 -24 -50 -87 -95 -190 -135 -284
-126 -464 45 -60 56 -67 83 -77 296 -5 104 -12 237 -14 295 -3 58 -7 119 -8
135 -3 29 0 31 67 54 139 48 402 51 541 6z m2087 -16 c-8 -29 -13 -23 -13 14
0 22 3 28 9 18 5 -7 6 -22 4 -32z m-3283 27 c0 -2 -7 -7 -16 -10 -8 -3 -12 -2
-9 4 6 10 25 14 25 6z m-435 -856 c107 -26 339 -106 505 -174 229 -94 513
-176 612 -176 46 0 48 -1 47 -27 -1 -42 -24 -99 -33 -84 -13 20 -84 47 -191
71 -113 25 -332 95 -415 133 -174 78 -678 229 -767 229 -13 0 -23 6 -23 13 0
38 140 46 265 15z m187 -398 c36 -11 96 -36 134 -55 76 -39 214 -85 282 -94
l43 -6 -48 -49 c-26 -27 -71 -60 -100 -74 -70 -35 -129 -27 -211 25 -69 45
-107 88 -149 173 -42 83 -50 113 -30 105 8 -3 44 -14 79 -25z m2505 -54 c-37
-100 -84 -154 -188 -217 -65 -38 -78 -43 -116 -37 -67 9 -139 44 -210 102
l-64 52 58 12 c79 15 201 55 303 97 92 38 192 70 226 72 22 1 21 0 -9 -81z
m103 -111 c0 -2 -12 -14 -27 -28 l-28 -24 24 28 c23 25 31 32 31 24z m-2726
-43 c3 -8 2 -12 -4 -9 -6 3 -10 10 -10 16 0 14 7 11 14 -7z m92 -65 c3 -6 -5
-3 -20 6 -14 10 -26 19 -26 22 0 7 39 -17 46 -28z m304 -174 c0 -2 -10 -9 -22
-15 -22 -11 -22 -10 -4 4 21 17 26 19 26 11z m1150 -19 c151 -44 178 -56 222
-104 48 -52 135 -218 144 -272 l5 -35 -24 45 c-44 80 -150 163 -296 232 -56
26 -108 48 -113 48 -6 0 -49 18 -95 40 -91 44 -99 44 -160 3 -21 -14 -67 -36
-103 -48 -115 -40 -201 -84 -267 -136 -64 -51 -153 -151 -153 -172 0 -5 -3 -7
-6 -4 -4 4 13 48 38 99 25 51 56 117 69 147 37 83 120 133 279 167 89 18 383
12 460 -10z m-127 -93 c-7 -2 -21 -2 -30 0 -10 3 -4 5 12 5 17 0 24 -2 18 -5z
m1415 -167 c-7 -8 -15 -12 -17 -11 -5 6 10 25 20 25 5 0 4 -6 -3 -14z m-68
-70 c0 -2 -7 -7 -16 -10 -8 -3 -12 -2 -9 4 6 10 25 14 25 6z m-833 -228 c-3
-8 -6 -5 -6 6 -1 11 2 17 5 13 3 -3 4 -12 1 -19z m-1210 -80 c-3 -8 -6 -5 -6
6 -1 11 2 17 5 13 3 -3 4 -12 1 -19z m1390 -160 c-3 -7 -5 -2 -5 12 0 14 2 19
5 13 2 -7 2 -19 0 -25z m-2496 -110 c-12 -76 -185 -590 -269 -798 -104 -259
-147 -360 -206 -483 -36 -76 -66 -145 -66 -154 0 -34 -10 -4 -31 93 l-21 100
51 108 c28 59 51 110 51 113 0 2 16 37 36 76 20 40 44 92 54 117 10 25 52 115
93 200 42 85 101 214 132 285 142 327 175 405 176 417 0 9 2 9 5 1 3 -6 1 -40
-5 -75z m3561 -168 c95 -222 180 -411 261 -580 32 -69 74 -159 92 -200 18 -41
58 -127 88 -192 l55 -116 -23 -77 c-14 -43 -26 -80 -29 -82 -5 -5 -113 208
-136 267 -7 19 -23 58 -35 85 -166 377 -391 1045 -384 1139 0 6 7 -5 16 -24 8
-19 51 -118 95 -220z m-1325 118 c-3 -8 -6 -5 -6 6 -1 11 2 17 5 13 3 -3 4
-12 1 -19z m-66 -215 c-12 -20 -14 -14 -5 12 4 9 9 14 11 11 3 -2 0 -13 -6
-23z m-841 -53 c-8 -5 -19 -10 -25 -10 -5 0 -3 5 5 10 8 5 20 10 25 10 6 0 3
-5 -5 -10z m-450 -299 c-1 -13 -29 45 -29 59 0 8 6 0 14 -19 8 -18 15 -36 15
-40z m2661 -288 c39 -35 41 -40 35 -79 -8 -64 -74 -261 -108 -325 -38 -73 -83
-118 -100 -101 -10 10 -9 26 5 75 27 100 87 404 87 445 0 34 34 28 81 -15z
m-3539 -98 c15 -66 42 -180 59 -252 26 -108 29 -136 19 -148 -7 -8 -16 -15
-21 -15 -4 0 -30 37 -57 83 -75 127 -143 334 -128 392 6 25 63 66 85 62 10 -1
24 -42 43 -122z m1111 -136 c191 -63 379 -98 574 -106 l153 -6 10 -36 c13 -48
13 -200 -1 -240 -13 -35 -7 -34 -159 -32 -133 3 -254 28 -425 89 -127 45 -183
72 -208 100 -10 11 -34 66 -53 123 -19 57 -41 115 -47 128 -12 24 -12 23 -18
-15 l-6 -39 -2 49 c-1 42 1 47 17 41 9 -4 83 -29 165 -56z m-146 -143 c4 -7
19 -19 31 -25 13 -7 21 -15 19 -18 -3 -2 -16 1 -29 8 -12 7 -29 12 -35 11 -7
-2 -13 6 -13 18 0 23 15 27 27 6z m937 -231 c-4 -8 -11 -12 -16 -9 -6 4 -5 10
3 15 19 12 19 11 13 -6z m31 -20 c-16 -8 -39 -14 -50 -14 -11 0 -2 6 20 14 52
17 68 17 30 0z m-618 -170 c226 -60 535 -59 807 1 l29 7 -7 -62 c-19 -170
-110 -340 -199 -376 -58 -23 -147 -29 -270 -16 -142 14 -211 46 -303 139 -86
86 -121 138 -161 237 -39 97 -41 110 -10 101 12 -4 64 -17 114 -31z m-1619
-544 c57 -47 206 -139 407 -251 176 -98 195 -110 271 -175 61 -53 146 -120
173 -135 9 -4 14 -11 11 -13 -3 -3 -23 7 -45 22 -22 15 -46 26 -53 25 -7 -1
-8 0 -2 3 18 8 -35 42 -57 37 -18 -5 -19 -9 -10 -35 9 -22 9 -34 -1 -49 -16
-26 -16 -27 15 -35 27 -6 27 -7 9 -21 -11 -7 -29 -12 -40 -10 -12 2 -15 1 -7
-1 12 -4 12 -6 0 -15 -10 -7 -8 -8 9 -5 12 3 22 1 22 -4 0 -5 8 -9 19 -9 10 0
24 -6 30 -14 6 -8 25 -19 42 -26 16 -7 28 -14 26 -16 -2 -2 -59 16 -128 41
-68 24 -160 56 -204 71 -142 49 -306 175 -385 294 -16 24 -43 87 -61 142 -17
54 -35 101 -39 103 -4 3 -7 -14 -7 -38 0 -23 -4 -76 -8 -117 -7 -65 -10 -71
-17 -45 -5 17 -6 43 -3 58 2 15 1 26 -3 23 -9 -6 -33 153 -31 202 1 17 6 32
11 32 5 0 30 -17 56 -39z m2101 -151 c92 -42 452 -307 507 -374 44 -54 71 -90
109 -146 29 -44 35 -60 34 -104 -1 -28 -5 -64 -10 -81 -5 -21 -6 -12 -3 30 5
67 -5 93 -67 164 l-36 41 -18 -47 c-71 -186 -104 -247 -212 -384 -59 -76 -134
-174 -166 -217 -46 -64 -65 -81 -96 -91 -74 -22 -236 -8 -267 24 -9 8 -13 15
-9 15 17 0 -108 161 -210 270 -105 113 -117 130 -161 229 -26 58 -55 131 -65
161 -10 30 -18 50 -18 44 -1 -6 -21 -42 -46 -80 -38 -59 -45 -77 -46 -124 -1
-43 -3 -49 -9 -30 -25 78 -5 132 100 275 72 97 118 142 250 245 249 194 332
228 439 180z m-2084 -20 c3 -5 1 -10 -4 -10 -6 0 -11 5 -11 10 0 6 2 10 4 10
3 0 8 -4 11 -10z m718 -334 c4 -11 1 -13 -10 -9 -12 5 -14 3 -8 -8 6 -11 5
-11 -5 -2 -7 6 -9 16 -6 22 10 15 23 14 29 -3z m132 -196 c3 -5 1 -10 -4 -10
-6 0 -11 5 -11 10 0 6 2 10 4 10 3 0 8 -4 11 -10z m60 -68 c-3 -3 -11 0 -18 7
-9 10 -8 11 6 5 10 -3 15 -9 12 -12z"/>
<path d="M2981 7364 c0 -11 3 -14 6 -6 3 7 2 16 -1 19 -3 4 -6 -2 -5 -13z"/>
<path d="M2991 7264 c0 -11 3 -14 6 -6 3 7 2 16 -1 19 -3 4 -6 -2 -5 -13z"/>
<path d="M7072 7330 c-1 -19 -5 -46 -7 -60 l-6 -25 11 25 c6 13 9 40 7 60 l-4
35 -1 -35z"/>
<path d="M7052 7220 c0 -14 2 -19 5 -12 2 6 2 18 0 25 -3 6 -5 1 -5 -13z"/>
<path d="M7072 7220 c0 -14 2 -19 5 -12 2 6 2 18 0 25 -3 6 -5 1 -5 -13z"/>
<path d="M7062 7090 c0 -14 2 -19 5 -12 2 6 2 18 0 25 -3 6 -5 1 -5 -13z"/>
<path d="M7041 7074 c0 -11 3 -14 6 -6 3 7 2 16 -1 19 -3 4 -6 -2 -5 -13z"/>
<path d="M2940 1405 c0 -11 3 -38 7 -60 l7 -40 7 33 c4 22 2 43 -7 60 -12 23
-14 24 -14 7z"/>
<path d="M4970 1253 c-58 -22 -417 -259 -437 -289 -11 -17 -11 -31 -3 -69 16
-70 67 -198 120 -300 158 -300 182 -341 234 -392 52 -51 57 -53 108 -53 92 0
121 13 165 78 146 209 330 613 321 704 -3 30 -14 40 -118 110 -129 87 -325
203 -355 211 -11 3 -27 3 -35 0z m70 -108 c4 3 10 -1 13 -9 3 -7 18 -16 34
-19 15 -3 42 -20 60 -37 18 -17 38 -33 45 -34 7 -1 24 -9 38 -19 14 -10 64
-43 113 -75 77 -51 87 -60 87 -87 0 -51 -147 -279 -271 -420 -14 -16 -51 -59
-81 -95 -30 -36 -64 -66 -75 -68 -24 -4 -97 74 -88 96 2 7 1 11 -4 7 -12 -7
-53 50 -43 60 4 5 2 5 -4 2 -6 -4 -34 19 -62 51 -27 31 -66 75 -87 97 -66 72
-145 224 -145 279 0 17 15 35 53 63 62 48 164 113 176 113 10 0 91 60 143 107
l38 33 26 -25 c15 -14 30 -22 34 -20z"/>
<path d="M27 103 c-25 -4 -27 -8 -27 -54 0 -48 1 -49 30 -49 30 0 30 1 30 55
0 30 -1 54 -2 54 -2 -1 -15 -4 -31 -6z"/>
</g>
</svg>
