<?xml version="1.0" standalone="no"?>
<!DOCTYPE svg PUBLIC "-//W3C//DTD SVG 20010904//EN"
 "http://www.w3.org/TR/2001/REC-SVG-20010904/DTD/svg10.dtd">
<svg version="1.0" xmlns="http://www.w3.org/2000/svg"
 width="1024.000000pt" height="1024.000000pt" viewBox="0 0 1024.000000 1024.000000"
 preserveAspectRatio="xMidYMid meet">
<metadata>
Created by potrace 1.16, written by Peter Selinger 2001-2019
</metadata>
<g transform="translate(0.000000,1024.000000) scale(0.100000,-0.100000)"
fill="#000000" stroke="none">
<path d="M5080 9500 c-352 -16 -562 -42 -890 -111 -174 -37 -262 -74 -419
-176 -175 -114 -382 -301 -510 -463 -100 -125 -226 -326 -291 -464 -168 -352
-309 -877 -359 -1341 -58 -527 -32 -1053 70 -1396 15 -54 28 -75 66 -109 26
-24 66 -79 91 -124 24 -45 64 -109 88 -144 l44 -63 -119 -132 c-66 -73 -136
-154 -156 -180 -56 -74 -109 -199 -140 -332 -15 -66 -45 -172 -66 -235 -49
-148 -69 -261 -76 -435 l-6 -140 47 -117 c35 -89 46 -130 46 -172 0 -81 27
-271 50 -355 12 -41 36 -107 55 -147 l33 -73 -38 -89 c-106 -246 -187 -604
-242 -1067 -29 -252 -32 -718 -5 -890 24 -147 26 -153 54 -203 39 -68 116
-108 243 -127 25 -4 75 -22 111 -40 96 -49 302 -130 484 -190 139 -46 333 -94
655 -162 79 -17 176 -18 1335 -21 787 -2 1278 1 1325 7 367 49 1031 243 1174
344 16 11 87 35 158 53 71 18 148 43 170 56 87 48 124 141 154 388 29 241 11
788 -37 1110 -47 321 -168 725 -251 843 -19 26 -19 29 -4 46 9 10 25 44 36 75
23 64 85 368 96 466 4 42 18 87 39 130 55 110 59 129 51 300 -8 195 -33 338
-81 460 -22 57 -47 146 -61 225 -28 157 -60 226 -170 370 -78 103 -154 224
-154 246 0 6 56 97 125 200 142 215 160 256 206 490 47 242 53 316 53 599 -1
363 -28 620 -100 944 -82 371 -175 627 -331 911 -161 294 -399 598 -619 789
-95 84 -281 215 -362 256 -117 59 -410 126 -692 159 -247 29 -625 42 -880 31z
m586 -210 c421 -28 731 -88 905 -175 85 -43 247 -165 327 -246 35 -35 110
-111 168 -168 89 -88 184 -201 169 -201 -2 0 -39 11 -82 24 -80 24 -414 106
-513 125 -89 18 -309 41 -383 41 -97 0 -140 -28 -79 -51 15 -6 162 -37 327
-70 165 -33 341 -71 390 -85 155 -43 288 -85 330 -104 22 -9 57 -23 77 -29 20
-7 41 -18 47 -25 6 -7 44 -74 85 -149 l73 -136 -36 18 c-84 43 -415 142 -667
201 -105 25 -398 72 -579 94 -487 59 -967 59 -1720 0 -464 -36 -852 -106
-1041 -187 -44 -19 -106 -46 -139 -60 -57 -25 -245 -96 -245 -93 0 1 15 37 34
81 51 121 127 265 139 265 6 0 39 18 73 41 86 56 595 233 734 254 75 12 91 23
32 22 -29 0 -58 5 -64 11 -18 18 -90 14 -243 -13 -139 -24 -305 -67 -379 -99
-21 -9 -41 -16 -43 -16 -10 0 202 225 286 304 121 115 182 158 301 215 172 80
288 114 520 151 74 12 157 25 183 31 26 5 53 9 58 9 12 0 7 -70 -16 -210 -15
-90 -31 -268 -38 -411 l-5 -86 107 -4 c256 -10 442 -2 690 30 135 17 246 33
248 35 7 7 -346 16 -631 16 l-301 0 7 127 c3 71 11 186 17 257 6 71 11 157 11
191 l0 63 123 9 c171 14 554 15 743 3z m294 -1115 c420 -34 812 -100 1135
-192 162 -46 350 -103 365 -111 8 -5 45 -17 81 -27 76 -22 62 1 130 -215 42
-132 72 -270 58 -270 -4 0 -50 18 -101 41 -175 76 -373 151 -553 209 -99 32
-199 65 -223 74 -58 21 -380 86 -462 93 -61 5 -66 4 -67 -15 -1 -16 8 -22 45
-32 26 -7 67 -19 92 -27 25 -8 113 -32 195 -53 391 -100 646 -189 912 -321
176 -88 202 -104 208 -127 12 -58 34 -206 30 -210 -2 -2 -88 15 -192 38 -305
67 -681 125 -700 107 -5 -5 1 -56 26 -217 34 -220 53 -556 45 -787 -6 -175 -8
-193 -25 -198 -10 -4 -46 -24 -79 -46 -33 -22 -64 -38 -70 -34 -6 4 -9 1 -8
-6 3 -13 -110 -86 -222 -143 -92 -47 -196 -79 -260 -81 -31 -1 -61 -4 -67 -8
-6 -4 -24 -44 -38 -90 -15 -45 -50 -127 -78 -182 -41 -80 -67 -116 -132 -181
-343 -345 -741 -475 -1065 -346 -213 85 -397 234 -523 423 -53 81 -151 270
-175 339 l-12 33 -80 -6 -80 -5 -107 64 c-104 63 -287 197 -350 257 l-33 31 0
270 c0 236 15 574 36 829 l7 77 -30 0 c-84 0 -635 -70 -710 -90 -40 -10 -40
-11 -17 133 l16 102 246 85 c136 46 290 96 342 111 52 15 86 28 75 28 -61 2
-345 -46 -555 -93 -91 -21 -89 -22 -79 22 4 20 15 71 25 112 9 41 32 123 51
183 26 80 38 107 51 107 9 0 104 29 211 65 194 66 456 135 651 174 300 60 769
110 1165 125 176 7 713 -5 895 -19z m-2540 -1256 c0 -6 -4 -18 -10 -28 -5 -10
-16 -69 -24 -131 -8 -62 -16 -114 -18 -116 -6 -5 -246 -52 -308 -59 -30 -4
-84 -13 -120 -20 -36 -8 -82 -16 -102 -20 l-38 -6 1 83 c0 89 12 224 19 232 3
2 59 9 125 15 110 10 264 31 375 51 66 12 100 11 100 -1z m3965 -33 c83 -15
219 -37 304 -51 85 -14 155 -26 157 -28 2 -1 4 -66 4 -142 l2 -140 -44 3 c-94
6 -281 34 -443 65 l-170 33 -12 109 c-6 61 -14 129 -17 151 l-5 42 37 -9 c20
-4 105 -19 187 -33z m-4020 -671 c0 -208 -1 -216 -20 -220 -43 -9 -377 -35
-453 -35 l-80 0 -7 123 c-4 67 -8 156 -9 197 l-1 75 45 6 c110 17 429 59 470
62 25 2 47 4 50 5 3 1 5 -95 5 -213z m3968 185 c169 -29 352 -50 444 -50 l82
0 -4 -47 c-3 -27 -7 -85 -9 -130 -3 -46 -10 -112 -17 -148 l-11 -65 -157 0
c-141 0 -471 17 -479 25 -2 2 2 38 8 82 6 43 14 140 17 216 3 75 8 137 10 137
3 0 55 -9 116 -20z m-3811 -659 c40 -38 102 -93 138 -122 l64 -54 -49 -7 c-28
-4 -169 -12 -315 -17 -146 -5 -295 -13 -331 -17 l-67 -7 -35 61 c-36 61 -58
118 -72 180 l-7 32 159 1 c87 1 192 5 233 9 41 4 105 7 142 8 l67 2 73 -69z
m3767 48 c136 -11 385 -7 474 7 l37 7 -25 -69 c-14 -38 -39 -101 -56 -141 -30
-69 -32 -71 -63 -68 -17 2 -125 7 -241 9 -207 5 -373 18 -470 36 -27 5 -77 12
-110 16 -48 5 -56 8 -37 15 28 11 168 104 245 164 40 31 65 44 80 40 12 -2 87
-10 166 -16z m-692 -379 c43 -6 92 -16 110 -21 95 -30 798 -63 862 -41 l32 11
-30 -37 c-67 -84 -208 -201 -298 -247 -94 -49 -162 -55 -571 -55 -207 0 -408
3 -445 7 l-68 6 34 36 c19 20 47 56 62 80 l27 44 142 -9 c331 -21 602 -4 662
41 17 12 -18 13 -261 9 -154 -2 -337 -6 -407 -9 l-126 -4 39 83 c21 46 39 91
39 100 0 20 76 22 197 6z m-2522 -27 c24 -27 106 -156 102 -159 -2 -2 -109 1
-238 7 -228 10 -336 6 -371 -12 -24 -13 -23 -42 1 -63 33 -30 121 -31 306 -3
94 15 206 29 250 32 l80 6 35 -61 c19 -34 46 -73 59 -86 l24 -24 -24 -1 c-13
0 -55 -4 -94 -8 -91 -11 -704 5 -775 20 -69 14 -128 44 -154 78 -12 14 -63 72
-113 128 -51 55 -93 104 -93 106 0 3 24 3 53 0 76 -7 486 14 602 31 130 20
154 22 253 24 67 2 85 -1 97 -15z m3529 -534 c133 -184 143 -202 154 -299 6
-47 9 -86 8 -88 -2 -1 -33 11 -69 28 -84 38 -231 64 -307 55 -115 -14 -330
-103 -620 -255 -19 -11 -96 -48 -170 -84 -74 -36 -147 -72 -161 -82 -24 -16
-39 -15 -305 20 -153 21 -300 40 -326 43 -27 3 -48 10 -48 14 0 5 6 9 14 9 24
0 351 168 631 325 77 43 183 101 235 128 117 62 225 130 265 167 27 25 41 29
150 39 182 18 282 50 385 125 l35 25 22 -27 c13 -15 61 -79 107 -143z m-4478
120 c12 -21 154 -79 252 -104 97 -24 268 -49 282 -40 4 3 23 -10 42 -28 19
-17 92 -63 161 -102 70 -38 162 -89 205 -113 235 -132 848 -427 927 -447 17
-4 25 -9 19 -12 -21 -7 -228 -43 -374 -63 -80 -12 -195 -32 -255 -45 l-111
-24 -89 46 c-50 26 -171 84 -270 131 -99 46 -200 96 -225 111 -86 53 -395 220
-450 242 -42 17 -76 23 -145 23 -78 1 -106 -4 -207 -36 -64 -21 -119 -38 -122
-38 -4 0 2 17 13 38 11 20 32 63 45 95 26 60 106 169 215 291 33 38 61 73 61
77 0 13 18 11 26 -2z m3125 -120 c80 -6 184 -10 232 -8 48 2 87 3 87 2 0 -8
-127 -81 -255 -147 -82 -43 -178 -94 -211 -112 -38 -21 -69 -32 -80 -28 -16 5
-16 4 -4 -5 12 -8 -11 -22 -105 -67 -66 -31 -203 -96 -305 -146 l-185 -90 -75
12 c-160 26 -399 109 -665 231 -27 13 -57 24 -65 25 -16 2 -287 142 -493 255
l-118 64 178 6 c98 3 198 10 222 14 24 4 46 4 50 -1 21 -30 237 -164 336 -209
120 -55 296 -95 418 -95 262 0 594 122 796 293 26 23 40 28 65 23 17 -2 97
-10 177 -17z m1389 -498 c58 -17 128 -31 157 -31 52 0 52 0 62 -37 20 -69 81
-424 76 -431 -2 -2 -45 10 -97 27 -177 58 -483 123 -763 161 -77 10 -185 26
-240 34 -55 9 -107 16 -115 16 -8 0 21 13 65 29 44 15 125 51 180 78 126 64
315 150 380 174 67 25 160 19 295 -20z m-4428 -18 c42 -17 132 -62 200 -100
116 -66 499 -264 543 -280 16 -6 13 -8 -15 -10 -19 -2 -80 -10 -135 -18 -55
-8 -170 -22 -255 -30 -85 -9 -216 -22 -290 -31 -74 -8 -191 -22 -260 -30 -69
-7 -184 -14 -256 -14 l-132 0 23 109 c13 60 37 158 54 218 17 60 31 119 31
131 0 14 6 22 18 22 9 0 60 16 112 35 88 33 102 35 190 32 77 -3 109 -9 172
-34z m2303 -277 c160 -41 299 -61 655 -96 113 -12 286 -32 385 -45 99 -13 218
-29 265 -34 181 -21 400 -53 525 -76 262 -49 547 -114 561 -128 4 -4 0 -26 -9
-49 -31 -85 -76 -316 -77 -395 0 -30 -2 -32 -22 -23 -36 15 -206 48 -283 55
-54 5 -127 -2 -320 -30 -137 -20 -268 -40 -290 -45 -135 -30 -917 -96 -1635
-140 -102 -6 -250 -15 -330 -21 -392 -26 -759 -40 -1210 -45 l-495 -6 -113 31
c-62 17 -141 46 -175 63 -50 26 -74 32 -123 32 l-61 0 -22 90 c-12 50 -28 145
-35 211 -8 66 -24 145 -35 175 -12 30 -21 56 -21 58 0 2 20 1 45 -2 63 -9 360
10 630 40 960 106 1938 287 2075 385 14 10 32 16 40 14 8 -2 42 -11 75 -19z
m2106 -976 c178 -30 179 -31 89 -73 -41 -19 -174 -83 -295 -142 -121 -59 -263
-128 -315 -152 -163 -77 -350 -172 -485 -248 -71 -40 -209 -115 -305 -168
-246 -133 -309 -169 -359 -203 -24 -16 -55 -37 -70 -46 -16 -10 -75 -22 -156
-32 -71 -9 -209 -27 -305 -40 -317 -45 -845 -95 -896 -84 -9 2 37 19 102 39
137 43 343 127 634 260 233 106 1136 554 1261 625 103 58 273 144 286 144 5 0
18 8 29 18 13 12 50 23 108 31 49 7 109 19 135 28 72 24 280 61 352 62 37 1
122 -8 190 -19z m-1311 -171 c-41 -23 -97 -50 -125 -61 -27 -11 -239 -113
-470 -228 -740 -366 -892 -440 -907 -440 -8 0 -18 4 -23 9 -14 14 -333 175
-450 228 -112 51 -440 202 -646 299 -75 35 -144 64 -152 64 -9 0 -18 4 -21 8
-3 5 16 5 42 1 70 -12 682 -2 967 15 138 8 372 22 520 31 507 29 1288 95 1303
110 3 3 12 5 21 5 9 0 -18 -19 -59 -41z m-3433 -13 c28 -14 101 -45 162 -71
61 -26 128 -58 148 -73 53 -35 302 -164 393 -202 147 -62 459 -204 704 -321
219 -104 245 -119 220 -125 -56 -13 -355 -105 -404 -124 -27 -11 -77 -33 -110
-50 -33 -16 -66 -30 -74 -30 -16 0 -934 454 -1078 534 -49 26 -88 51 -88 54 0
4 25 58 55 120 30 62 55 121 55 130 -1 9 -13 54 -29 100 -16 48 -23 82 -17 82
6 0 34 -11 63 -24z m4846 -115 c3 -27 22 -91 42 -142 20 -52 38 -101 41 -109
3 -11 -11 -21 -48 -36 -29 -12 -125 -52 -213 -88 -382 -158 -872 -286 -1190
-311 -44 -4 -89 -9 -100 -12 -11 -2 52 32 140 77 88 45 165 86 170 90 12 10
719 363 957 478 91 45 169 86 173 92 13 21 22 8 28 -39z m176 -548 c11 -98 29
-213 47 -301 6 -31 5 -33 -42 -54 -27 -11 -132 -52 -234 -89 -102 -37 -279
-106 -395 -153 -463 -187 -932 -350 -1234 -427 -246 -63 -261 -67 -261 -85 0
-41 151 -49 300 -15 165 37 299 84 860 305 102 40 264 104 360 141 96 37 234
92 305 123 72 30 179 74 240 99 60 24 115 49 121 54 9 7 14 0 18 -28 8 -48 26
-284 26 -332 l0 -36 -118 -43 c-369 -137 -990 -328 -1357 -417 -104 -25 -233
-57 -285 -71 -414 -108 -827 -186 -1320 -249 -69 -8 -159 -20 -200 -25 -104
-13 -569 -47 -845 -61 -126 -7 -396 -12 -600 -13 -341 -1 -382 1 -525 23 -85
13 -157 25 -159 27 -2 2 -13 46 -23 96 -23 111 -39 433 -31 599 l6 117 42 -19
c50 -22 290 -79 334 -79 34 0 36 -2 21 -30 -16 -29 12 -85 51 -105 45 -24 107
-14 136 20 25 29 30 74 11 94 -11 10 -7 10 17 1 17 -6 30 -11 30 -10 0 1 35
-1 78 -5 42 -4 77 -9 77 -10 0 -2 -14 -41 -31 -87 -17 -46 -46 -130 -65 -188
-19 -57 -42 -112 -50 -121 -7 -8 -14 -23 -14 -33 0 -19 49 -96 61 -96 11 0 71
95 114 179 45 89 75 183 82 259 3 34 6 62 7 62 1 0 238 7 527 15 646 18 842
34 1209 100 74 13 187 31 250 40 63 9 120 18 125 19 21 8 -363 -5 -1205 -39
-835 -34 -1288 -11 -1657 86 -127 34 -143 43 -143 82 l0 34 78 6 c42 3 226 19
407 35 577 54 1016 81 1322 82 186 0 746 33 938 55 72 8 236 26 365 40 390 42
744 91 935 130 66 13 170 33 230 45 123 23 336 82 465 128 100 35 266 99 295
112 11 6 68 28 128 49 59 22 117 47 129 56 13 8 25 15 28 15 4 0 12 -48 19
-107z m-5054 -3 c184 -97 693 -350 705 -350 5 0 12 -5 16 -11 4 -7 0 -9 -14
-5 -28 9 -266 -11 -477 -40 -236 -33 -401 -53 -447 -54 l-37 0 6 38 c3 20 21
127 40 237 19 110 37 215 40 233 3 17 8 32 12 32 3 0 74 -36 156 -80z m5185
-1057 c-1 -120 -17 -265 -46 -413 -15 -74 -28 -136 -29 -137 -1 -2 -35 -9 -76
-17 -78 -15 -130 -33 -319 -111 -386 -158 -682 -243 -1050 -299 -414 -63 -699
-81 -1240 -80 -549 1 -708 13 -1170 87 -161 26 -238 43 -599 132 l-214 53 159
-5 c291 -7 666 -23 959 -39 414 -22 1303 -23 1645 0 758 49 1315 127 1467 204
39 20 191 187 181 198 -3 3 -50 -4 -104 -15 -108 -22 -362 -62 -544 -86 -63
-8 -164 -21 -225 -29 -167 -23 -527 -54 -745 -65 -482 -26 -652 -32 -657 -27
-4 3 6 6 22 6 16 0 110 20 209 44 100 24 219 52 266 61 47 9 146 32 220 50 74
18 216 52 315 75 159 37 284 71 620 167 141 40 826 270 886 297 30 14 57 25
62 25 4 1 7 -34 7 -76z"/>
<path d="M4855 7723 c-71 -2 -140 -5 -152 -8 -34 -8 -30 -47 7 -79 51 -43 88
-44 495 -14 88 6 162 13 164 14 2 2 -2 11 -9 19 -19 23 -5 31 95 46 l90 14
-85 6 c-83 7 -341 8 -605 2z"/>
<path d="M4220 7687 c-214 -60 -382 -390 -384 -752 -1 -106 3 -142 21 -197 29
-93 84 -187 137 -236 25 -23 43 -42 40 -42 -4 0 -1 -7 6 -15 7 -8 24 -14 39
-14 l26 2 -27 4 c-16 2 -28 9 -28 14 0 6 9 8 19 4 36 -11 129 -7 183 9 162 47
352 240 426 431 55 144 62 319 17 445 -38 106 -191 282 -286 328 -57 27 -132
35 -189 19z"/>
<path d="M6105 7646 c-74 -24 -121 -54 -181 -118 -94 -101 -141 -220 -151
-387 -7 -114 14 -212 71 -327 57 -115 143 -216 238 -281 21 -14 35 -30 31 -36
-3 -5 -2 -7 4 -4 5 3 38 -6 74 -20 52 -22 81 -27 150 -27 76 -1 92 2 144 29
66 34 109 88 146 183 17 44 23 85 27 183 9 259 -43 449 -170 622 -121 163
-250 225 -383 183z"/>
<path d="M6854 7178 l-19 -23 23 19 c21 18 27 26 19 26 -2 0 -12 -10 -23 -22z"/>
<path d="M6820 7139 c0 -6 -3 -8 -7 -6 -5 3 -16 -6 -26 -19 -10 -13 -15 -24
-12 -24 5 0 85 51 85 54 0 1 -9 2 -20 3 -11 1 -20 -3 -20 -8z"/>
<path d="M6902 7000 c0 -14 2 -19 5 -12 2 6 2 18 0 25 -3 6 -5 1 -5 -13z"/>
<path d="M6682 6910 c0 -19 2 -27 5 -17 2 9 2 25 0 35 -3 9 -5 1 -5 -18z"/>
<path d="M4701 6894 c0 -11 3 -14 6 -6 3 7 2 16 -1 19 -3 4 -6 -2 -5 -13z"/>
<path d="M6691 6784 c0 -11 3 -14 6 -6 3 7 2 16 -1 19 -3 4 -6 -2 -5 -13z"/>
<path d="M5171 6704 c-54 -84 -148 -361 -169 -496 l-9 -58 203 0 c187 0 202 1
198 18 -25 121 -43 196 -89 353 -29 103 -58 196 -64 208 -18 33 -39 25 -70
-25z"/>
<path d="M5820 6732 c0 -28 44 -155 64 -183 20 -29 20 -22 1 24 -21 51 -18 59
6 17 11 -19 17 -26 13 -15 -4 11 -8 30 -8 42 -1 12 -3 21 -6 21 -21 -1 -27 5
-23 22 4 14 0 20 -11 20 -10 0 -15 4 -11 9 3 5 0 13 -6 17 -8 5 -8 8 0 14 9 5
8 10 -4 20 -13 10 -15 9 -15 -8z"/>
<path d="M4651 6684 c0 -11 3 -14 6 -6 3 7 2 16 -1 19 -3 4 -6 -2 -5 -13z"/>
<path d="M4616 6593 c-39 -88 -92 -156 -105 -134 -6 9 -11 8 -21 -4 -11 -13
-10 -15 4 -9 41 16 -3 -35 -52 -60 -19 -10 -32 -20 -29 -22 17 -17 122 71 168
141 33 50 63 114 57 121 -3 3 -13 -12 -22 -33z"/>
<path d="M4520 6579 c0 -5 5 -7 10 -4 6 3 10 8 10 11 0 2 -4 4 -10 4 -5 0 -10
-5 -10 -11z"/>
<path d="M6015 6520 c3 -5 8 -10 11 -10 2 0 4 5 4 10 0 6 -5 10 -11 10 -5 0
-7 -4 -4 -10z"/>
<path d="M5910 6514 c0 -5 7 -21 17 -34 53 -81 134 -132 176 -112 21 10 20 11
-9 10 -31 -2 -94 34 -94 53 0 6 -4 7 -10 4 -14 -9 -12 8 3 25 9 11 8 11 -7 0
-17 -13 -20 -13 -30 3 -18 30 -46 61 -46 51z"/>
<path d="M6000 6494 c0 -8 5 -12 10 -9 6 4 8 11 5 16 -9 14 -15 11 -15 -7z"/>
<path d="M6030 6486 c0 -2 8 -10 18 -17 15 -13 16 -12 3 4 -13 16 -21 21 -21
13z"/>
<path d="M4218 6423 c7 -3 16 -2 19 1 4 3 -2 6 -13 5 -11 0 -14 -3 -6 -6z"/>
<path d="M4083 6413 c9 -2 23 -2 30 0 6 3 -1 5 -18 5 -16 0 -22 -2 -12 -5z"/>
<path d="M4117 6389 c7 -7 15 -10 18 -7 3 3 -2 9 -12 12 -14 6 -15 5 -6 -5z"/>
<path d="M4378 6353 c7 -3 16 -2 19 1 4 3 -2 6 -13 5 -11 0 -14 -3 -6 -6z"/>
<path d="M6318 6355 c-3 -3 -34 -12 -69 -20 l-64 -15 62 5 c62 6 143 35 97 35
-11 0 -23 -2 -26 -5z"/>
<path d="M6531 6315 c-11 -42 -8 -62 4 -23 4 13 11 25 16 28 4 3 4 12 -1 19
-6 10 -11 3 -19 -24z"/>
<path d="M6552 6290 c0 -14 2 -19 5 -12 2 6 2 18 0 25 -3 6 -5 1 -5 -13z"/>
<path d="M6507 6241 c-4 -17 -3 -21 5 -13 5 5 8 16 6 23 -3 8 -7 3 -11 -10z"/>
<path d="M6386 6002 c-2 -4 -1 -14 4 -22 7 -11 9 -9 7 8 -1 24 -3 26 -11 14z"/>
<path d="M6359 5948 c-20 -52 -21 -54 -9 -35 6 9 14 16 18 13 4 -2 7 9 8 25 1
37 -1 36 -17 -3z"/>
<path d="M4645 5926 c-59 -26 -71 -94 -25 -150 22 -28 28 -45 24 -65 -7 -33
82 -303 133 -406 108 -215 238 -320 411 -332 202 -14 370 103 500 347 49 91
125 284 142 360 7 30 26 75 42 100 36 56 33 103 -9 138 -31 26 -41 25 -198 -4
-72 -13 -163 -16 -460 -18 -359 -1 -372 0 -435 21 -75 26 -84 27 -125 9z m785
-587 c40 -11 78 -23 83 -26 5 -3 -13 -27 -39 -54 -119 -120 -343 -147 -451
-54 -34 29 -36 34 -23 49 7 10 37 29 64 43 128 65 237 78 366 42z"/>
<path d="M6312 5865 c-9 -18 -8 -26 1 -31 7 -4 9 -4 5 1 -4 4 -3 16 3 27 6 11
9 22 6 24 -2 2 -9 -7 -15 -21z"/>
<path d="M6285 5820 c-3 -5 -1 -10 4 -10 6 0 11 5 11 10 0 6 -2 10 -4 10 -3 0
-8 -4 -11 -10z"/>
<path d="M6256 5773 c-6 -14 -5 -15 5 -6 7 7 10 15 7 18 -3 3 -9 -2 -12 -12z"/>
<path d="M6208 5710 c-30 -41 -33 -50 -18 -50 6 0 10 6 10 14 0 7 10 25 21 40
12 15 20 29 18 31 -2 2 -16 -14 -31 -35z"/>
<path d="M6140 5620 c-12 -16 -19 -30 -16 -30 2 0 14 14 26 30 12 17 19 30 16
30 -2 0 -14 -13 -26 -30z"/>
<path d="M6062 5519 c-13 -16 -20 -29 -15 -29 9 1 47 50 41 54 -1 2 -13 -10
-26 -25z"/>
<path d="M5999 5442 c-11 -14 -11 -15 0 -5 7 6 20 9 27 6 8 -3 14 -3 14 0 0
14 -30 14 -41 -1z"/>
<path d="M6121 5383 c-1 -6 -4 -20 -7 -30 -5 -17 -5 -17 6 0 6 10 9 23 6 30
-3 9 -5 9 -5 0z"/>
<path d="M5900 5320 c-88 -107 -193 -213 -348 -350 -26 -23 -134 -104 -157
-117 -11 -7 -15 -12 -8 -13 6 0 25 11 41 25 17 14 34 25 39 25 6 0 18 9 28 20
10 11 22 20 27 20 5 0 25 16 44 36 19 20 34 33 34 28 0 -4 19 13 41 39 23 26
48 47 56 47 7 0 18 12 23 26 8 19 15 24 27 19 10 -3 15 -3 11 0 -5 6 23 42 87
110 32 34 77 96 73 100 -2 2 -10 -5 -18 -15z"/>
<path d="M6004 5260 c0 -13 4 -16 10 -10 7 7 7 13 0 20 -6 6 -10 3 -10 -10z"/>
<path d="M5875 5240 c-3 -5 -1 -10 4 -10 6 0 11 5 11 10 0 6 -2 10 -4 10 -3 0
-8 -4 -11 -10z"/>
<path d="M6009 5193 c-13 -16 -12 -17 4 -4 16 13 21 21 13 21 -2 0 -10 -8 -17
-17z"/>
<path d="M5815 5170 c3 -5 8 -10 11 -10 2 0 4 5 4 10 0 6 -5 10 -11 10 -5 0
-7 -4 -4 -10z"/>
<path d="M5955 5149 c-4 -6 -14 -8 -22 -5 -8 3 -11 1 -8 -5 4 -5 1 -18 -6 -27
-7 -9 1 -4 19 12 18 17 32 31 32 33 0 7 -9 2 -15 -8z"/>
<path d="M5880 5090 c-8 -5 -12 -12 -9 -15 4 -3 12 1 19 10 14 17 11 19 -10 5z"/>
<path d="M5748 5033 c7 -3 16 -2 19 1 4 3 -2 6 -13 5 -11 0 -14 -3 -6 -6z"/>
<path d="M5783 5023 c4 -3 -1 -15 -10 -27 -18 -20 -18 -20 8 0 26 19 29 34 7
34 -6 0 -8 -3 -5 -7z"/>
<path d="M5700 4950 c-9 -6 -10 -10 -3 -10 6 0 15 5 18 10 8 12 4 12 -15 0z"/>
<path d="M6427 5173 c-7 -12 -20 -79 -14 -73 6 6 27 80 22 80 -2 0 -6 -3 -8
-7z"/>
<path d="M6386 5043 c-6 -14 -5 -15 5 -6 7 7 10 15 7 18 -3 3 -9 -2 -12 -12z"/>
<path d="M5445 3496 c44 -8 134 -25 200 -39 186 -40 443 -75 635 -87 96 -5
189 -13 205 -16 17 -4 27 -3 24 0 -12 13 -304 78 -544 122 -128 23 -182 27
-375 30 -215 3 -222 3 -145 -10z"/>
<path d="M4820 3439 c-80 -5 -221 -16 -315 -24 -173 -17 -942 -110 -982 -120
-30 -7 -29 -38 1 -59 40 -26 121 -29 296 -11 312 31 597 78 830 135 63 15 158
38 210 50 80 19 149 42 115 38 -5 0 -75 -5 -155 -9z"/>
<path d="M4915 1023 c-119 -9 -257 -26 -305 -37 -43 -10 -55 -17 -55 -32 0
-28 54 -43 158 -43 103 -1 223 16 487 69 107 21 206 40 220 43 28 5 -443 5
-505 0z"/>
<path d="M3800 983 c-14 -2 -54 -10 -90 -19 -36 -8 -86 -16 -110 -17 -41 -2
-45 -4 -42 -25 1 -13 12 -32 24 -42 27 -21 104 -34 153 -24 28 5 40 1 67 -21
25 -21 38 -25 62 -21 35 7 56 30 56 61 0 20 7 23 79 28 117 9 181 41 134 65
-18 9 -284 21 -333 15z"/>
<path d="M2862 924 c-15 -10 -22 -25 -22 -49 0 -61 75 -88 118 -42 60 64 -22
143 -96 91z"/>
<path d="M27 103 c-25 -4 -27 -8 -27 -54 0 -48 1 -49 30 -49 30 0 30 1 30 55
0 30 -1 54 -2 54 -2 -1 -15 -4 -31 -6z"/>
</g>
</svg>
