<?xml version="1.0" standalone="no"?>
<!DOCTYPE svg PUBLIC "-//W3C//DTD SVG 20010904//EN"
 "http://www.w3.org/TR/2001/REC-SVG-20010904/DTD/svg10.dtd">
<svg version="1.0" xmlns="http://www.w3.org/2000/svg"
 width="1024.000000pt" height="1024.000000pt" viewBox="0 0 1024.000000 1024.000000"
 preserveAspectRatio="xMidYMid meet">
<metadata>
Created by potrace 1.16, written by Peter Selinger 2001-2019
</metadata>
<g transform="translate(0.000000,1024.000000) scale(0.100000,-0.100000)"
fill="#000000" stroke="none">
<path d="M2805 9486 c-16 -7 -39 -23 -49 -35 -18 -20 -19 -37 -13 -383 4 -200
11 -444 17 -543 23 -415 55 -804 81 -1005 18 -142 38 -577 50 -1063 12 -523 2
-937 -26 -1182 -16 -135 -59 -405 -75 -465 -5 -19 -20 -99 -34 -177 -26 -152
-24 -197 12 -220 45 -28 616 -163 777 -184 50 -6 96 -13 103 -15 9 -3 12 -69
12 -286 0 -327 14 -669 35 -882 15 -147 18 -222 9 -199 -8 19 -96 79 -173 118
-160 80 -324 110 -466 86 -78 -14 -181 -63 -242 -115 -55 -48 -139 -174 -158
-238 -48 -164 -59 -369 -26 -533 48 -247 165 -556 308 -815 41 -74 80 -146 87
-159 11 -20 10 -26 -8 -46 -51 -55 -65 -218 -26 -294 38 -76 35 -76 387 -79
l313 -3 9 -37 c15 -53 56 -113 101 -144 75 -54 121 -59 532 -56 404 4 413 5
495 62 73 50 106 121 111 242 3 52 8 94 13 94 5 0 9 6 9 14 0 8 3 17 8 19 4 3
7 -37 8 -88 2 -166 46 -250 162 -307 l67 -33 332 -3 c363 -4 396 0 479 54 48
31 94 97 94 134 0 56 -9 55 347 55 366 0 370 1 412 69 45 73 43 199 -4 284
l-24 42 81 168 c178 373 263 621 318 937 29 164 133 551 216 805 67 206 200
468 296 583 58 69 109 94 245 122 169 35 228 60 289 120 92 90 122 241 72 372
-41 112 -177 211 -321 235 -235 39 -548 -168 -775 -512 -77 -117 -213 -385
-250 -495 -39 -114 -100 -320 -117 -398 -14 -64 -20 -77 -33 -72 -37 14 -182
27 -247 22 -84 -6 -212 -49 -332 -111 -71 -36 -164 -76 -178 -76 -5 0 4 170
20 354 15 192 22 896 9 962 l-6 32 53 7 c124 16 561 113 792 176 48 13 72 48
63 92 -4 17 -20 106 -36 197 -16 91 -38 215 -49 275 -55 307 -90 867 -90 1445
-1 383 28 1007 54 1200 3 19 10 105 15 190 6 85 20 243 30 350 29 297 38 469
46 892 7 434 9 425 -62 448 -103 34 -480 -95 -753 -259 -261 -156 -513 -359
-727 -585 -140 -146 -209 -259 -244 -394 -9 -33 -15 -42 -28 -38 -9 2 -89 10
-177 17 -122 9 -193 9 -300 0 -182 -14 -175 -15 -175 10 0 63 -102 237 -195
333 -93 95 -400 367 -496 439 -110 81 -372 248 -456 291 -203 101 -330 150
-476 181 -82 18 -84 18 -122 1z m152 -147 c109 -27 286 -102 428 -181 128 -71
381 -238 475 -313 125 -100 381 -336 436 -403 64 -78 114 -178 139 -280 l17
-73 92 8 c148 13 590 10 689 -6 48 -7 90 -11 92 -9 2 2 11 39 20 83 36 171 89
260 264 434 206 206 283 270 493 409 202 134 405 240 543 285 115 37 244 69
255 62 25 -15 -3 -98 -35 -103 -11 -2 -101 -30 -200 -64 -284 -95 -370 -144
-720 -412 -137 -105 -349 -327 -424 -444 -42 -66 -89 -204 -98 -285 -5 -47 -3
-58 6 -52 10 5 11 2 6 -14 -14 -44 2 -66 64 -95 33 -15 66 -24 72 -20 8 5 9 3
4 -6 -6 -10 -4 -12 9 -7 9 4 15 3 12 -2 -5 -7 12 -18 79 -48 6 -3 1 4 -11 14
-11 10 -20 24 -20 32 1 17 43 34 51 21 4 -6 37 -10 76 -10 38 0 69 -4 69 -8 0
-6 69 -8 90 -3 11 3 -46 30 -63 31 -10 0 -15 4 -12 10 6 10 57 -11 86 -36 14
-12 20 -11 42 7 37 29 36 70 -3 102 -16 14 -66 45 -110 69 -44 24 -80 47 -80
52 0 4 30 52 67 105 211 305 428 506 699 646 168 86 232 102 272 65 27 -25 28
-59 6 -172 -31 -163 -45 -221 -70 -282 -14 -33 -31 -90 -39 -126 -41 -189
-135 -432 -322 -827 l-29 -62 -13 30 c-7 16 -39 57 -71 91 -33 34 -56 66 -53
71 3 6 1 7 -5 3 -6 -4 -23 0 -36 9 -32 21 -47 13 -119 -65 l-56 -60 -143 0
c-104 0 -169 -6 -237 -20 -52 -11 -99 -20 -105 -19 -15 1 32 20 74 30 26 6 19
7 -27 3 -34 -3 -63 -1 -66 3 -3 4 13 9 35 10 23 0 43 6 47 11 3 5 80 13 171
18 166 8 186 8 228 -2 20 -4 22 -2 13 15 -16 29 -14 45 4 27 8 -8 15 -20 15
-27 0 -10 3 -10 13 0 10 11 10 14 0 18 -8 3 -13 24 -13 54 0 48 -1 49 -29 49
-17 0 -33 -4 -36 -10 -8 -14 -45 -13 -80 3 -17 6 -112 54 -213 105 -101 52
-190 91 -198 88 -8 -3 -13 -2 -9 3 8 14 -52 53 -94 62 -20 4 -61 15 -91 24
-81 23 -216 45 -269 44 l-46 -1 38 -10 c21 -6 37 -16 37 -24 0 -11 4 -12 19
-4 11 5 35 9 53 9 30 -2 31 -2 6 -6 -16 -2 -28 -9 -28 -15 0 -6 9 -8 23 -3 12
3 45 8 72 10 48 3 48 3 10 -4 l-40 -8 35 -2 c19 -1 42 -6 50 -12 15 -10 -7 -9
-90 5 -26 5 -30 4 -15 -3 26 -13 10 -13 -42 -1 -27 6 -50 6 -65 0 l-23 -10 25
2 c71 4 90 -2 91 -24 0 -13 3 -17 6 -10 3 8 28 12 74 12 38 0 69 4 69 9 0 12
45 22 64 15 20 -8 21 -24 1 -24 -8 0 -15 -4 -15 -9 0 -5 -11 -11 -24 -13 -20
-3 -22 -6 -15 -25 7 -19 16 -23 54 -23 45 0 45 0 45 -35 0 -19 -4 -35 -10 -35
-5 0 -10 14 -10 30 0 28 -2 30 -40 30 -38 0 -40 -2 -40 -30 0 -28 -2 -30 -40
-30 l-40 0 0 -65 0 -65 -40 0 c-36 0 -40 3 -40 25 l0 25 -160 0 -160 0 0 80 0
80 80 0 c47 0 80 4 80 10 0 6 -33 10 -80 10 -47 0 -80 -4 -80 -10 0 -5 -18
-10 -40 -10 -29 0 -40 -4 -40 -15 0 -11 -11 -15 -41 -15 -36 0 -40 2 -37 23 3
21 0 22 -79 25 -53 2 -83 -1 -83 -8 0 -15 -77 -13 -83 3 -2 7 -8 8 -13 3 -5
-5 -4 -11 4 -13 14 -6 17 -83 2 -83 -5 0 -10 -18 -10 -40 l0 -40 51 0 52 0 -6
-100 -5 -100 44 0 c24 0 44 -5 44 -11 0 -6 16 -9 37 -7 28 2 39 8 41 22 2 10
-2 22 -10 27 -8 5 24 9 80 9 l92 0 0 -40 0 -40 -50 0 -50 0 0 -46 c0 -44 -1
-46 -25 -42 -14 3 -28 1 -31 -3 -3 -5 -14 -4 -25 2 -12 6 -23 8 -26 5 -3 -3 3
-9 13 -13 10 -3 23 -12 27 -20 4 -7 13 -13 19 -13 10 0 68 -58 68 -68 0 -2
-17 10 -37 28 -21 17 -59 45 -85 62 -29 19 -45 35 -41 44 6 15 -42 38 -58 28
-11 -6 -109 30 -148 55 -13 8 -31 16 -40 18 -9 1 -60 11 -115 23 -56 11 -137
20 -187 20 -58 0 -89 4 -89 11 0 6 -12 20 -26 31 -14 11 -23 27 -20 34 7 17
-16 18 -32 2 -6 -6 -15 -8 -19 -5 -4 4 3 14 15 22 11 9 28 22 36 30 8 8 19 15
24 15 6 0 12 4 14 8 4 11 97 72 109 72 5 0 9 5 9 10 0 6 5 10 12 10 7 0 38 18
69 40 32 22 60 40 64 40 4 0 36 14 72 31 54 26 68 38 84 72 60 132 -18 359
-178 522 -116 118 -298 269 -312 260 -6 -3 -9 0 -6 7 3 8 -30 39 -82 78 -354
266 -501 348 -757 420 -105 30 -121 37 -137 64 -23 38 -24 66 -3 66 8 0 54
-10 101 -21z m3920 -201 c-2 -13 -4 -3 -4 22 0 25 2 35 4 23 2 -13 2 -33 0
-45z m-57 -88 c0 -5 -10 -10 -22 -9 -22 0 -22 1 -3 9 11 5 21 9 23 9 1 1 2 -3
2 -9z m-3833 -6 c-3 -3 -12 -4 -19 -1 -8 3 -5 6 6 6 11 1 17 -2 13 -5z m190
-40 c-3 -3 -12 -4 -19 -1 -8 3 -5 6 6 6 11 1 17 -2 13 -5z m98 -44 c4 -6 11
-7 17 -4 7 4 8 2 4 -5 -6 -9 -12 -9 -24 1 -10 7 -19 14 -21 15 -2 2 1 3 7 3 6
0 14 -5 17 -10z m85 -40 c8 -5 11 -10 5 -10 -5 0 -17 5 -25 10 -8 5 -10 10 -5
10 6 0 17 -5 25 -10z m-292 -26 c161 -53 405 -213 586 -383 76 -72 233 -265
292 -359 l54 -85 -64 -27 c-139 -59 -180 -107 -141 -167 13 -20 23 -24 47 -21
l30 5 -23 -19 c-13 -10 -46 -34 -74 -52 -91 -60 -140 -107 -137 -129 3 -18 2
-19 -11 -9 -13 11 -25 4 -75 -42 -72 -67 -142 -156 -143 -182 0 -14 -2 -15 -6
-4 -14 37 -61 138 -143 305 -142 288 -179 372 -227 510 -24 72 -60 158 -79
193 -32 59 -35 73 -50 230 -17 184 -12 230 28 250 34 16 52 14 136 -14z m372
-30 c0 -2 -9 0 -20 6 -11 6 -20 13 -20 16 0 2 9 0 20 -6 11 -6 20 -13 20 -16z
m41 -31 c13 -16 12 -17 -3 -4 -10 7 -18 15 -18 17 0 8 8 3 21 -13z m2744 -43
c-3 -5 -12 -10 -18 -10 -7 0 -6 4 3 10 19 12 23 12 15 0z m-2660 -20 c10 -11
16 -20 13 -20 -3 0 -13 9 -23 20 -10 11 -16 20 -13 20 3 0 13 -9 23 -20z
m2610 -12 c-10 -6 -38 -29 -62 -51 -24 -22 -43 -37 -43 -33 0 7 69 76 77 76 2
0 11 7 20 15 8 9 18 13 22 10 3 -4 -3 -11 -14 -17z m-156 -135 c-13 -16 -25
-30 -26 -32 -2 -2 -3 1 -3 7 0 11 39 52 49 52 2 0 -6 -12 -20 -27z m-84 -91
l-28 -27 23 33 c12 18 25 31 28 27 3 -3 -7 -18 -23 -33z m-2017 -77 c-3 -3 -9
2 -12 12 -6 14 -5 15 5 6 7 -7 10 -15 7 -18z m142 -176 c15 -28 5 -23 -15 7
-9 15 -12 23 -6 20 6 -4 16 -16 21 -27z m2776 -136 c-16 -128 -42 -407 -52
-558 -3 -44 -7 -93 -10 -110 l-4 -30 -119 0 -119 -1 17 25 c56 85 257 623 282
754 19 100 22 55 5 -80z m-2722 71 c3 -8 2 -12 -4 -9 -6 3 -10 10 -10 16 0 14
7 11 14 -7z m1576 6 c0 -5 -5 -10 -11 -10 -5 0 -7 5 -4 10 3 6 8 10 11 10 2 0
4 -4 4 -10z m-2739 -120 c25 -80 256 -619 274 -640 12 -13 -1 -15 -108 -12
-70 2 -125 8 -128 14 -4 6 -10 49 -13 97 -12 145 -47 564 -51 606 -2 22 -2 31
1 20 3 -11 14 -49 25 -85z m1219 40 c0 -5 -2 -10 -4 -10 -3 0 -8 5 -11 10 -3
6 -1 10 4 10 6 0 11 -4 11 -10z m1420 -64 c0 -2 -8 -10 -17 -17 -16 -13 -17
-12 -4 4 13 16 21 21 21 13z m141 -121 c19 -8 27 -14 19 -14 -14 0 -72 28 -59
29 4 0 22 -7 40 -15z m-441 -15 c18 -12 2 -12 -25 0 -13 6 -15 9 -5 9 8 0 22
-4 30 -9z m430 -5 c0 -1 -8 -5 -18 -7 -11 -3 -19 0 -19 7 0 7 8 10 19 7 10 -2
18 -6 18 -7z m-330 -31 c0 -8 -4 -12 -10 -9 -5 3 -10 10 -10 16 0 5 5 9 10 9
6 0 10 -7 10 -16z m455 -8 c0 -10 11 -24 25 -33 16 -9 18 -12 5 -8 -11 4 -28
10 -37 12 -20 6 -25 23 -7 23 8 0 7 6 -2 17 -12 14 -12 16 1 11 8 -2 15 -13
15 -22z m-1885 4 c0 -5 -5 -10 -11 -10 -5 0 -7 5 -4 10 3 6 8 10 11 10 2 0 4
-4 4 -10z m1565 0 c3 -6 -1 -7 -9 -4 -18 7 -21 14 -7 14 6 0 13 -4 16 -10z
m45 -10 c-8 -5 -19 -10 -25 -10 -5 0 -3 5 5 10 8 5 20 10 25 10 6 0 3 -5 -5
-10z m5 -88 c-7 -8 -35 7 -35 18 0 6 7 6 20 -2 10 -7 17 -14 15 -16z m60 -22
c17 -11 26 -20 20 -20 -5 1 -19 7 -29 15 -10 8 -23 12 -27 9 -5 -3 -9 0 -9 5
0 16 11 13 45 -9z m-175 -10 c0 -5 -4 -10 -10 -10 -5 0 -10 5 -10 10 0 6 5 10
10 10 6 0 10 -4 10 -10z m117 4 c-3 -3 -12 -4 -19 -1 -8 3 -5 6 6 6 11 1 17
-2 13 -5z m133 -34 c8 -5 11 -12 8 -16 -4 -3 -14 1 -23 10 -18 17 -9 21 15 6z
m27 -46 c-3 -3 -12 -4 -19 -1 -8 3 -5 6 6 6 11 1 17 -2 13 -5z m53 2 c0 -2 -7
-7 -16 -10 -8 -3 -12 -2 -9 4 6 10 25 14 25 6z m-490 -56 c0 -22 -4 -40 -10
-40 -5 0 -10 18 -10 40 0 22 5 40 10 40 6 0 10 -18 10 -40z m-1541 -114 c-2
-2 -13 8 -23 22 l-19 27 24 -22 c12 -12 21 -24 18 -27z m56 -16 c-3 -5 -18
-10 -33 -9 l-27 1 25 8 c35 11 42 11 35 0z m1095 -30 c0 -29 -4 -40 -15 -40
-11 0 -15 11 -15 40 0 29 4 40 15 40 11 0 15 -11 15 -40z m557 34 c-3 -3 -12
-4 -19 -1 -8 3 -5 6 6 6 11 1 17 -2 13 -5z m21 -31 c-10 -2 -26 -2 -35 0 -10
3 -2 5 17 5 19 0 27 -2 18 -5z m-8 -33 c0 -5 -4 -10 -10 -10 -5 0 -10 5 -10
10 0 6 5 10 10 10 6 0 10 -4 10 -10z m-118 -24 c-3 -5 8 -6 24 -2 l29 7 -23
-16 c-18 -14 -26 -14 -38 -4 -11 9 -20 9 -40 0 -30 -14 -44 -14 -24 -1 12 8
13 11 1 19 -9 6 3 8 32 7 25 0 42 -5 39 -10z m-821 -36 c5 0 9 -4 9 -10 0 -14
-13 -12 -36 6 -17 14 -17 15 -1 10 10 -3 23 -6 28 -6z m804 1 c-6 -5 -23 -13
-40 -16 l-30 -7 25 15 c28 17 59 22 45 8z m-2100 -19 c6 -4 22 -23 35 -42 12
-19 30 -40 38 -47 12 -10 12 -20 3 -60 -6 -26 -13 -60 -16 -75 l-5 -27 -139
-3 -139 -3 -7 95 c-3 52 -9 109 -12 127 l-5 32 113 4 c63 1 116 4 119 5 3 1
10 -2 15 -6z m3440 -12 l80 0 -3 -117 c-2 -65 -5 -119 -5 -119 -1 -1 -63 -4
-137 -8 l-135 -7 -17 60 c-10 33 -18 65 -18 70 0 6 15 31 34 56 19 24 37 53
41 64 5 16 11 18 43 10 20 -5 73 -9 117 -9z m-1829 0 c22 0 24 -4 24 -50 l0
-50 40 0 c29 0 40 -4 40 -15 0 -11 11 -15 39 -15 30 0 40 -4 44 -19 2 -11 0
-24 -6 -30 -6 -6 -8 -13 -6 -16 3 -2 13 4 22 15 9 11 12 20 7 20 -16 0 -12 37
6 54 8 9 24 16 34 16 27 0 33 -29 11 -48 -46 -40 -150 -185 -171 -239 -28 -70
-40 -86 -40 -52 0 14 -18 62 -40 108 -22 45 -35 79 -30 76 6 -3 7 1 4 9 -3 9
-12 16 -20 16 -8 0 -14 7 -14 15 0 8 5 15 11 15 5 0 7 5 3 12 -5 7 -12 5 -22
-8 -14 -18 -14 -18 -9 4 4 17 2 22 -8 18 -18 -6 -47 27 -49 58 0 13 -3 24 -6
24 -20 -1 -30 4 -30 17 0 9 -12 21 -27 27 -23 9 -25 12 -10 15 10 3 29 -3 42
-11 14 -9 25 -12 25 -6 0 5 -4 10 -10 10 -18 0 -11 17 13 28 12 7 42 10 66 7
24 -3 54 -5 67 -5z m418 -12 c-3 -4 -10 -8 -16 -8 -11 0 -96 -65 -111 -85 -5
-6 -11 -4 -18 8 -5 9 -17 17 -26 17 -14 0 -14 3 -4 13 6 6 16 13 22 13 5 1 12
2 15 3 4 0 1 8 -6 16 -7 9 -10 18 -6 22 3 3 6 1 6 -5 0 -16 35 -15 48 1 12 14
105 19 96 5z m-1053 -45 c139 -47 282 -168 337 -283 47 -101 47 -109 -18 -141
-154 -78 -344 -125 -460 -113 -84 8 -201 47 -255 84 -87 60 -171 188 -182 278
-5 44 -3 52 27 86 43 48 102 82 175 101 85 21 299 14 376 -12z m1667 17 c136
-15 255 -82 255 -143 0 -42 -43 -154 -82 -214 -101 -157 -251 -217 -458 -183
-138 22 -294 82 -336 128 -19 20 -18 22 17 96 94 194 274 311 501 325 11 0 57
-3 103 -9z m-2602 -317 c-12 -49 -19 -436 -8 -492 l10 -54 -67 7 c-36 3 -91 6
-122 6 l-56 0 -7 173 c-3 94 -9 220 -12 280 l-7 107 138 0 137 0 -6 -27z
m3451 -172 c-4 -107 -7 -233 -7 -280 l0 -86 -123 -2 -123 -1 14 61 c18 81 28
434 13 477 l-10 32 121 -3 121 -3 -6 -195z m-3035 -57 c42 -29 46 -39 22 -48
-22 -8 -33 1 -29 24 2 11 0 20 -5 20 -9 0 -10 -9 -11 -62 -1 -31 -13 -37 -23
-12 -8 22 -8 104 1 104 4 0 24 -12 45 -26z m1568 -34 c8 -5 11 -10 5 -10 -5 0
-17 5 -25 10 -8 5 -10 10 -5 10 6 0 17 -5 25 -10z m795 -52 c-96 -157 -236
-291 -336 -323 -30 -9 -68 -23 -86 -31 -17 -8 -34 -14 -38 -14 -10 0 20 27 36
33 8 2 1 3 -15 1 -24 -3 -27 -2 -16 11 14 17 50 20 50 5 0 -13 37 -13 45 -1 3
5 19 13 37 16 27 6 29 9 14 17 -10 6 -31 7 -47 4 -28 -5 -29 -4 -29 34 0 36
-3 40 -25 40 -22 0 -25 4 -25 40 0 29 4 40 15 40 8 0 15 9 15 20 0 17 7 20 51
20 31 0 48 4 44 10 -3 6 -22 10 -41 10 -19 0 -34 5 -34 10 0 6 16 10 36 10 51
0 176 20 199 33 18 9 18 8 7 -6 -11 -13 -10 -16 9 -22 15 -5 18 -9 9 -15 -10
-6 -7 -14 10 -31 l23 -24 -7 27 c-5 20 -2 27 11 31 14 3 11 6 -9 11 -29 9 -33
14 -20 32 10 16 102 55 102 43 0 -6 5 -7 10 -4 6 4 8 10 5 15 -3 4 1 10 7 13
23 7 20 -11 -7 -55z m-2282 23 c-4 -3 -11 -10 -15 -15 -4 -4 -6 1 -5 12 1 12
6 18 15 15 7 -3 10 -9 5 -12z m742 -1 c-3 -5 -16 -10 -28 -9 -21 0 -21 1 -2 9
28 12 37 12 30 0z m35 -10 c0 -5 -5 -10 -11 -10 -5 0 -7 5 -4 10 3 6 8 10 11
10 2 0 4 -4 4 -10z m73 -119 c-21 -15 -36 -45 -43 -81 -6 -32 -3 -43 12 -60
11 -12 17 -24 13 -28 -3 -3 -9 -2 -13 4 -4 6 -17 16 -29 23 -13 6 -23 16 -23
22 0 6 5 7 10 4 6 -3 10 -1 10 4 0 6 -10 11 -22 11 -13 0 -18 3 -12 8 6 4 16
16 23 27 11 19 12 18 6 -5 -5 -19 -4 -22 4 -10 15 22 14 34 -9 58 -18 19 -18
22 -4 22 10 0 14 5 11 14 -4 9 5 19 24 26 16 7 27 16 24 20 -2 4 1 22 8 40 12
32 12 31 15 -30 2 -35 -1 -66 -5 -69z m-147 104 c18 -9 23 -15 12 -15 -9 0
-20 5 -23 11 -4 6 -12 8 -19 6 -6 -2 -22 -7 -36 -11 -21 -5 -20 -3 5 9 17 8
31 14 31 15 1 0 15 -7 30 -15z m889 5 c-3 -5 -12 -7 -20 -3 -21 7 -19 13 6 13
11 0 18 -4 14 -10z m-29 -21 c8 -14 -10 -11 -32 6 -18 13 -18 14 4 8 12 -3 25
-9 28 -14z m-896 -11 c-39 -14 -86 -17 -116 -7 -25 8 -24 8 11 4 31 -4 36 -3
25 5 -12 9 -8 10 17 5 18 -4 40 -2 50 3 10 6 22 8 27 5 5 -4 -1 -10 -14 -15z
m994 10 c-3 -4 0 -8 7 -8 7 0 9 -3 6 -6 -4 -4 -13 -1 -22 6 -11 9 -22 9 -45 2
-16 -6 -30 -7 -30 -2 0 5 8 11 18 13 27 7 71 4 66 -5z m-242 -36 c-10 -3 -12
-12 -8 -33 3 -18 2 -28 -4 -24 -5 3 -9 26 -8 51 1 43 1 44 18 27 14 -15 15
-19 2 -21z m128 17 l25 -2 -25 -4 c-13 -3 -30 -12 -37 -21 -11 -16 -12 -16
-13 1 0 9 5 17 12 17 6 0 8 3 5 6 -4 4 -13 1 -22 -6 -8 -7 -15 -9 -15 -4 0 5
-5 2 -10 -6 -8 -12 -10 -11 -10 7 0 23 36 37 55 21 5 -4 20 -9 35 -9z m-1363
5 c-3 -3 -12 -4 -19 -1 -8 3 -5 6 6 6 11 1 17 -2 13 -5z m556 -1 c-7 -2 -19
-2 -25 0 -7 3 -2 5 12 5 14 0 19 -2 13 -5z m887 -3 c-8 -5 -19 -10 -25 -10 -5
0 -3 5 5 10 8 5 20 10 25 10 6 0 3 -5 -5 -10z m-1383 -6 c-3 -3 -12 -4 -19 -1
-8 3 -5 6 6 6 11 1 17 -2 13 -5z m266 -1 c-7 -2 -21 -2 -30 0 -10 3 -4 5 12 5
17 0 24 -2 18 -5z m277 -3 c8 -5 11 -10 5 -10 -5 0 -17 5 -25 10 -8 5 -10 10
-5 10 6 0 17 -5 25 -10z m1014 1 c3 -4 -6 -6 -19 -3 -14 2 -25 6 -25 8 0 8 39
4 44 -5z m-1504 -17 c0 -9 -5 -14 -12 -12 -18 6 -21 28 -4 28 9 0 16 -7 16
-16z m122 9 c-34 -3 -42 -8 -38 -19 3 -9 1 -12 -4 -9 -6 3 -10 1 -10 -6 0 -7
-8 -5 -20 6 -32 29 -24 35 48 33 50 -1 56 -2 24 -5z m1397 -115 c1 -21 -3 -38
-9 -38 -6 0 -10 27 -9 63 1 46 3 56 9 37 4 -14 8 -42 9 -62z m-1107 48 c20
-14 20 -55 0 -75 -19 -19 -10 -46 15 -45 27 1 38 -32 15 -46 -14 -8 -15 -10
-2 -11 8 -1 2 -5 -15 -9 l-30 -8 32 -1 c17 0 39 6 47 15 15 14 16 13 16 -8 0
-14 9 -34 20 -46 13 -13 16 -23 9 -28 -20 -12 7 -27 29 -15 34 18 66 13 102
-17 25 -21 33 -36 33 -60 0 -45 -27 -72 -67 -66 l-31 5 30 -15 c29 -14 30 -14
5 -15 -30 0 -58 19 -53 37 3 6 10 9 15 6 7 -4 8 -2 4 5 -4 6 2 23 13 37 27 34
26 46 -1 42 -17 -2 -23 -10 -24 -28 -2 -48 -4 -52 -19 -46 -8 3 -15 1 -15 -4
0 -6 4 -10 9 -10 5 0 7 -9 4 -20 -4 -15 0 -20 13 -21 11 0 14 -3 7 -6 -7 -2
-13 -12 -13 -21 0 -22 -29 32 -29 55 -1 37 -13 93 -20 93 -4 0 -8 -8 -8 -17 1
-94 -19 -116 -75 -85 -29 16 -34 25 -38 68 -4 42 -8 49 -26 48 -33 -2 -44 -13
-44 -45 0 -20 5 -29 17 -29 9 0 13 -3 9 -7 -10 -10 -37 -13 -31 -3 3 4 -2 13
-10 20 -8 7 -15 10 -15 7 0 -3 -3 -13 -7 -23 -4 -12 -3 -15 6 -10 6 4 11 4 10
-1 -2 -4 3 -20 11 -35 11 -22 15 -25 31 -15 10 6 22 8 26 4 4 -5 1 -12 -7 -17
-22 -14 -2 -40 48 -65 40 -20 54 -35 30 -35 -24 0 -100 66 -138 120 -13 19
-27 37 -32 40 -4 3 -14 30 -21 60 l-14 55 -54 8 c-183 27 -298 62 -274 84 17
16 95 27 95 14 0 -6 18 -11 40 -11 30 0 40 4 40 16 0 15 -10 16 -80 11 -65 -4
-80 -2 -80 9 0 11 29 14 160 14 l160 0 0 30 c0 28 2 30 40 30 22 0 40 5 40 10
0 6 18 10 40 10 38 0 40 2 40 30 0 28 -2 30 -40 30 -22 0 -40 5 -40 10 0 14
72 12 92 -4z m-736 -22 c2 -23 1 -24 -11 -7 -10 13 -10 20 -2 25 7 4 12 8 12
8 0 0 1 -11 1 -26z m480 3 c4 -4 -29 -7 -74 -7 -51 0 -82 4 -82 11 0 11 144 8
156 -4z m999 -9 c4 -14 8 -18 12 -10 2 6 9 10 14 6 15 -9 10 -21 -10 -27 -12
-3 -21 -15 -23 -33 -2 -21 -8 -29 -21 -28 -13 2 -16 -3 -12 -20 5 -16 4 -18
-4 -6 -9 13 -13 13 -28 -3 -17 -17 -17 -18 1 -11 13 5 17 4 13 -3 -5 -7 0 -9
14 -6 19 5 20 4 10 -18 -11 -21 -11 -22 2 -6 17 20 33 22 40 5 3 -7 2 7 -1 31
-4 35 -2 43 9 39 8 -3 39 -2 69 2 69 9 87 4 94 -26 6 -23 26 -34 26 -14 0 16
77 12 83 -4 10 -25 -5 -86 -20 -86 -8 0 -12 -4 -8 -9 3 -6 -1 -13 -9 -18 -13
-7 -46 -90 -46 -114 0 -21 -61 -99 -72 -93 -7 4 -8 2 -4 -4 3 -6 -4 -20 -16
-31 -23 -22 -44 -29 -33 -11 3 5 0 7 -8 4 -25 -9 -28 25 -4 36 20 10 21 10 4
-3 -17 -14 -17 -15 6 -13 27 1 26 19 -4 49 -23 21 -29 22 -29 0 0 -15 -1 -15
-18 0 -10 10 -22 14 -25 11 -4 -4 -13 -2 -20 4 -8 7 -17 9 -21 5 -4 -4 -4 0
-1 9 4 9 14 19 23 21 12 3 10 5 -5 6 -19 1 -23 7 -23 31 0 17 -4 30 -10 30 -5
0 -10 -16 -10 -35 0 -24 -6 -37 -21 -45 -25 -14 -75 -4 -83 16 -3 9 -10 12
-16 9 -14 -9 8 46 27 67 17 19 83 25 83 8 0 -5 5 -10 11 -10 8 0 8 5 -1 15 -8
9 -31 15 -59 16 -35 0 -41 2 -26 9 14 6 15 9 5 9 -9 1 -24 -5 -35 -13 -12 -7
-28 -10 -39 -6 -14 4 -16 9 -8 14 7 4 16 5 21 1 5 -3 13 0 17 6 4 8 3 9 -4 5
-7 -4 -12 -5 -12 -2 0 3 17 17 39 30 21 14 41 36 45 49 3 13 22 36 41 51 46
35 69 80 55 105 -13 26 -13 31 4 31 7 0 17 -10 21 -22z m-1405 -81 c0 -6 3 -7
6 -4 4 4 1 13 -6 22 -7 8 -8 15 -2 15 14 0 25 -31 14 -42 -5 -5 -22 3 -38 17
l-29 26 28 -12 c15 -7 27 -17 27 -22z m1130 29 c0 -2 3 -13 6 -23 3 -11 2 -14
-3 -7 -4 6 -17 16 -28 22 -19 11 -19 11 3 12 12 0 22 -2 22 -4z m-50 -26 c0
-5 -5 -10 -11 -10 -5 0 -7 5 -4 10 3 6 8 10 11 10 2 0 4 -4 4 -10z m35 0 c3
-5 -1 -10 -10 -10 -9 0 -13 5 -10 10 3 6 8 10 10 10 2 0 7 -4 10 -10z m715
-64 c0 -2 -13 -6 -30 -8 -16 -3 -30 -1 -30 4 0 4 14 8 30 8 17 0 30 -2 30 -4z
m77 -2 c-3 -3 -12 -4 -19 -1 -8 3 -5 6 6 6 11 1 17 -2 13 -5z m-2437 -35 c0
-78 111 -310 187 -391 l25 -26 -224 5 c-122 2 -226 5 -230 6 -4 1 -9 100 -10
220 l-3 217 128 0 127 0 0 -31z m665 15 c-9 -9 -19 -13 -23 -10 -3 4 0 11 8
16 24 15 33 11 15 -6z m1732 10 c-3 -3 -12 -4 -19 -1 -8 3 -5 6 6 6 11 1 17
-2 13 -5z m1035 -211 c2 -120 3 -219 3 -219 0 -1 -113 -4 -250 -6 l-250 -4 40
41 c56 58 126 187 166 305 l34 100 127 0 127 0 3 -217z m-1153 143 c-2 -2 -17
-6 -34 -10 -22 -5 -26 -4 -15 4 14 9 59 15 49 6z m-565 -61 c13 -13 16 -13 31
1 22 22 31 10 12 -16 -11 -15 -16 -18 -20 -8 -3 7 -6 0 -7 -17 l-2 -30 -7 29
c-3 16 -10 31 -16 33 -14 4 -7 -239 7 -252 8 -7 9 -6 4 2 -4 7 -4 30 0 50 7
36 8 36 15 13 6 -23 7 -23 8 -3 1 25 39 42 51 23 6 -9 13 -9 28 -1 20 11 42 9
117 -8 l40 -9 -35 -2 c-34 -3 -34 -3 -5 -7 17 -2 40 -9 53 -15 25 -13 31 -33
6 -24 -8 3 -13 2 -10 -3 8 -13 -182 -62 -231 -60 -68 3 -83 25 -82 117 1 57 3
71 10 52 5 -16 6 7 3 63 -6 89 -1 102 30 72z m155 -119 c-24 -20 -25 -24 -10
-35 12 -9 11 -9 -8 0 l-24 11 29 24 c37 30 47 31 13 0z m-559 -37 c0 -4 -9
-11 -20 -14 -11 -4 -18 -11 -15 -16 4 -5 4 -9 1 -9 -2 0 -11 -3 -20 -6 -26
-10 -18 11 10 26 17 10 24 20 20 33 -4 15 -2 16 10 6 8 -6 14 -15 14 -20z
m-71 5 c18 -13 20 -18 10 -25 -8 -5 -21 -9 -29 -9 -13 0 -13 1 0 11 15 11 -5
8 -57 -6 -10 -3 -4 1 12 9 17 8 23 15 15 16 -13 0 -13 1 0 10 20 13 22 13 49
-6z m31 6 c0 -5 -2 -10 -4 -10 -3 0 -8 5 -11 10 -3 6 -1 10 4 10 6 0 11 -4 11
-10z m625 0 c3 -6 -1 -7 -9 -4 -18 7 -21 14 -7 14 6 0 13 -4 16 -10z m-471 -9
c3 -4 -6 -6 -19 -3 -14 2 -25 6 -25 8 0 8 39 4 44 -5z m116 -71 c0 -41 -4 -51
-22 -62 -27 -14 -121 -13 -179 2 -46 13 -46 14 -4 24 22 5 26 4 15 -3 -10 -7
6 -9 55 -6 52 4 64 2 45 -5 -21 -8 -20 -9 13 -5 52 6 67 20 67 66 0 22 2 39 5
39 3 0 5 -22 5 -50z m-303 15 c16 -12 22 -12 26 -2 3 9 10 7 23 -5 12 -12 14
-18 6 -18 -7 0 -11 -4 -8 -9 3 -5 -3 -11 -14 -14 -11 -3 -20 0 -20 5 0 15 -31
37 -52 38 -10 0 -18 5 -18 10 0 15 33 12 57 -5z m274 -48 c-10 -9 -11 -8 -5 6
3 10 9 15 12 12 3 -3 0 -11 -7 -18z m-1184 -168 c58 -56 195 -158 262 -194
l48 -27 -13 -56 c-7 -32 -15 -69 -18 -83 -3 -15 -12 -29 -21 -32 -8 -4 -106
-2 -217 4 -112 6 -303 7 -426 3 l-224 -6 6 43 c11 93 16 158 18 277 l2 124
268 -4 267 -3 48 -46z m3117 -91 c3 -79 9 -177 12 -218 l6 -75 -88 3 c-49 1
-255 -1 -457 -5 -203 -5 -371 -5 -373 -1 -11 17 -33 163 -25 166 39 13 223
134 295 194 l88 74 268 2 267 3 7 -143z m-2519 -252 c181 -61 447 -106 630
-106 250 0 459 33 683 109 78 27 144 46 147 42 2 -4 7 -31 11 -59 5 -43 4 -52
-9 -52 -8 0 -53 -16 -99 -36 -355 -153 -666 -201 -943 -146 -210 42 -595 186
-595 222 0 8 5 32 11 52 l10 38 37 -19 c20 -10 73 -31 117 -45z m-341 -106 c5
-6 -32 -178 -74 -347 l-24 -91 -415 -4 c-229 -2 -417 -3 -418 -3 -1 0 4 34 12
75 29 166 45 282 45 327 l0 48 434 0 c239 0 437 -2 440 -5z m2881 -2 c3 -3 13
-77 21 -165 8 -87 19 -182 25 -211 6 -30 9 -55 7 -57 -2 -2 -190 -5 -418 -6
l-415 -1 -7 39 c-3 22 -14 57 -23 79 -26 61 -42 112 -65 204 -11 47 -25 95
-30 108 l-10 23 454 -3 c250 -2 457 -6 461 -10z m-2403 -207 c171 -58 450
-121 538 -121 72 0 334 55 475 100 54 18 155 56 224 86 69 29 126 52 126 51 6
-13 55 -190 53 -192 -13 -11 -260 -150 -319 -180 -104 -52 -243 -109 -357
-146 -109 -35 -202 -41 -307 -19 -286 59 -804 315 -805 398 0 13 7 54 16 91
l15 68 97 -43 c53 -24 163 -66 244 -93z m-325 -251 c88 -55 240 -130 375 -186
64 -27 115 -51 112 -55 -2 -4 4 -5 14 -2 11 2 25 -2 33 -10 8 -7 20 -12 27 -9
6 2 12 -1 12 -7 0 -6 8 -11 18 -11 9 0 71 -14 136 -30 66 -17 131 -30 146 -30
32 0 240 59 335 95 206 78 393 172 522 261 l62 43 15 -47 c15 -46 56 -209 56
-224 0 -5 -4 -8 -9 -8 -5 0 -51 -29 -102 -64 -230 -157 -690 -351 -861 -363
-99 -7 -167 6 -336 68 -223 82 -479 216 -626 327 -37 28 -72 52 -78 54 -6 2
-1 53 13 140 l23 136 26 -20 c14 -10 53 -37 87 -58z m-267 -45 c-15 -18 -89
-315 -101 -404 -16 -128 -11 -119 -71 -110 -180 29 -728 156 -728 169 0 4 13
57 29 119 16 61 32 139 36 173 l7 63 419 1 c331 1 417 -1 409 -11z m3058 0 c2
-2 17 -70 32 -152 16 -81 31 -162 35 -179 l7 -31 -54 -6 c-29 -4 -114 -22
-188 -41 -74 -19 -182 -44 -240 -56 -109 -22 -246 -55 -275 -67 -14 -5 -16 -2
-11 14 10 32 -22 176 -80 353 -30 92 -54 169 -54 171 0 5 824 -1 828 -6z
m-2910 -532 c31 -17 79 -44 106 -58 79 -43 89 -49 110 -67 10 -10 23 -15 27
-12 4 2 7 -5 6 -16 -1 -11 -4 -20 -8 -20 -4 0 -16 -3 -26 -6 -17 -5 -17 -5 0
6 18 11 23 30 8 30 -4 0 -39 20 -77 45 -37 25 -73 45 -80 45 -6 0 -17 7 -24
15 -14 17 -30 20 -30 5 0 -9 57 -43 62 -38 2 2 14 -5 28 -15 30 -21 23 -22
-25 -1 -35 14 -39 14 -54 0 -14 -15 -13 -16 14 -13 17 3 25 3 20 0 -16 -6 -6
-83 11 -83 10 0 14 -12 14 -40 0 -22 5 -40 10 -40 6 0 10 -33 10 -80 0 -79 0
-80 -25 -80 -25 0 -25 -1 -25 -80 0 -78 -1 -80 -24 -80 -22 0 -25 5 -29 43 -2
23 -4 4 -5 -42 -2 -70 0 -82 13 -77 12 4 15 -4 15 -39 0 -25 5 -45 10 -45 6 0
10 -33 10 -80 0 -73 -2 -80 -20 -80 -16 0 -20 7 -21 38 0 29 -2 33 -9 17 -5
-11 -6 -45 -3 -75 3 -32 2 -52 -3 -47 -5 5 -11 158 -15 340 l-5 332 -1 -350
c-1 -192 2 -375 7 -405 l7 -55 3 65 2 65 11 -42 c8 -36 14 -43 33 -43 21 0 24
-5 24 -40 0 -31 4 -40 18 -40 17 0 42 41 42 68 0 7 5 10 10 7 6 -3 10 1 10 11
0 11 6 15 18 12 17 -5 18 2 16 76 -1 45 3 97 9 116 13 40 56 92 69 84 5 -3 6
14 4 38 -4 30 -3 34 2 13 7 -28 8 -27 21 25 7 30 26 94 42 142 16 48 29 93 29
101 0 18 40 110 46 105 4 -4 -18 -79 -36 -123 -4 -11 -22 -69 -40 -130 -18
-60 -45 -150 -61 -200 -40 -126 -68 -251 -70 -312 -1 -29 -6 -50 -11 -47 -4 3
-8 1 -8 -3 0 -5 10 -13 22 -18 13 -6 26 -24 30 -42 5 -18 13 -33 18 -33 5 0
15 -10 21 -22 12 -22 11 -22 -8 -5 -25 22 -34 22 -26 0 4 -10 2 -14 -5 -9 -6
3 -13 2 -16 -3 -4 -5 -2 -12 4 -16 5 -3 10 -21 10 -40 0 -20 6 -35 15 -39 8
-3 15 -16 15 -29 0 -20 5 -24 35 -25 37 -1 96 -32 62 -32 -9 0 -17 4 -17 10 0
6 -18 8 -42 6 -24 -3 -55 -5 -70 -5 -26 -1 -28 -4 -28 -41 0 -29 4 -40 15 -40
11 0 15 -11 15 -40 0 -29 4 -40 15 -40 12 0 15 -15 15 -74 0 -41 3 -81 6 -90
7 -18 74 -23 74 -5 0 7 16 10 43 8 l42 -4 -1 163 c0 124 3 162 12 162 7 0 15
-12 17 -27 3 -22 4 -22 3 4 -1 18 3 34 8 36 6 2 2 6 -8 10 -9 4 -15 3 -12 -2
3 -4 -14 -9 -38 -9 -36 -2 -45 2 -56 22 -7 15 -10 36 -6 52 6 24 5 26 -8 15
-11 -9 -20 -10 -33 -2 -16 9 -16 10 5 11 12 0 22 5 22 11 0 6 22 -7 49 -28 27
-21 46 -42 43 -47 -3 -5 0 -6 7 -2 22 14 49 -22 46 -62 -1 -20 -8 -221 -15
-447 -9 -268 -17 -412 -24 -417 -7 -5 -10 -50 -9 -123 l1 -115 -34 0 -34 0 0
-80 c0 -47 -4 -80 -10 -80 -5 0 -10 25 -10 56 0 49 -2 55 -15 44 -9 -8 -15
-30 -15 -56 0 -40 -2 -44 -24 -44 -15 0 -26 -7 -29 -17 -3 -11 -5 -6 -6 11 0
16 -4 26 -8 22 -4 -4 -6 -23 -5 -44 3 -57 -13 -19 -31 73 -29 146 -48 297 -41
327 4 19 2 28 -4 24 -15 -9 -25 114 -13 148 16 40 12 56 -5 21 -14 -29 -14
-29 -9 25 2 30 1 49 -3 42 -9 -13 -47 442 -46 541 0 31 -4 57 -9 57 -5 0 -6
22 -2 50 5 34 3 50 -4 50 -6 0 -11 9 -11 20 0 11 4 20 9 20 10 0 36 88 29 95
-3 3 -12 -16 -20 -42 l-16 -48 -7 38 c-4 20 -5 54 -2 75 3 20 3 29 0 19 -2
-10 -11 -16 -18 -13 -10 4 -11 -2 -5 -24 5 -17 4 -37 -4 -51 -11 -23 -93 -85
-101 -77 -6 5 -30 227 -47 418 -17 205 -18 827 0 930 7 41 14 89 16 105 3 17
5 31 5 33 1 1 15 -10 32 -25 17 -16 56 -42 87 -60z m2075 -15 c3 -30 13 -67
22 -81 25 -39 38 -262 31 -552 -9 -339 -37 -745 -52 -745 -2 0 -27 11 -54 24
-28 13 -50 23 -50 22 0 -18 -31 -230 -34 -234 -7 -6 -14 74 -14 146 0 34 4 62
8 62 4 0 6 -8 4 -17 -2 -10 0 -31 6 -48 9 -27 10 -26 5 13 -4 30 -2 42 7 43 9
0 9 2 2 5 -13 5 4 54 19 54 5 0 6 9 2 19 -3 11 -1 22 5 26 5 3 10 18 9 33 l-1
27 -10 -30 c-6 -16 -16 -33 -22 -37 -8 -6 -6 -11 4 -19 12 -9 11 -10 -7 -6
-13 3 -23 1 -23 -4 0 -5 5 -9 10 -9 6 0 10 -4 10 -10 0 -5 -7 -7 -15 -4 -10 4
-14 1 -12 -7 2 -8 2 -11 0 -6 -7 12 -33 8 -33 -5 0 -9 -4 -8 -10 2 -6 10 -10
11 -10 3 0 -7 -7 -13 -15 -13 -8 0 -15 -4 -15 -10 0 -5 -14 -10 -31 -10 -29 0
-30 -2 -27 -37 3 -38 6 -40 48 -34 6 0 10 17 10 36 0 24 5 35 15 35 10 0 15
-10 15 -34 0 -18 7 -39 15 -46 8 -7 15 -28 15 -46 0 -24 -5 -34 -15 -34 -11 0
-15 -11 -15 -40 0 -38 -2 -40 -30 -40 -28 0 -30 -2 -30 -40 0 -29 -4 -40 -15
-40 -12 0 -15 -16 -15 -80 0 -47 -4 -80 -10 -80 -5 0 -10 -18 -10 -40 0 -22 5
-40 10 -40 6 0 10 -60 10 -160 0 -136 2 -160 15 -160 11 0 15 -11 15 -40 0
-29 -4 -40 -15 -40 -11 0 -15 -11 -15 -40 0 -33 -3 -40 -20 -40 -19 0 -20 -7
-20 -235 0 -200 -2 -236 -15 -241 -8 -4 -15 -17 -15 -31 0 -18 4 -24 14 -20 8
3 17 1 20 -6 3 -9 8 -8 16 3 6 9 8 35 5 67 -4 31 -2 54 4 58 6 3 10 23 10 43
l-2 37 -7 -40 c-5 -30 -7 -19 -7 45 0 47 2 66 4 43 3 -28 9 -43 18 -43 11 0
13 -12 10 -52 -4 -49 -4 -50 4 -13 15 72 20 145 11 145 -6 0 -10 -11 -10 -24
0 -14 -5 -28 -10 -31 -7 -5 -10 16 -8 62 3 66 4 68 31 71 20 3 27 9 28 25 0
12 3 17 5 10 3 -6 0 -45 -6 -85 -6 -40 -14 -93 -16 -118 -3 -25 -14 -94 -24
-154 -11 -60 -20 -111 -20 -112 0 -1 -18 6 -40 17 -21 10 -48 19 -59 19 -11 0
-30 4 -43 9 -13 6 -45 13 -72 16 -46 6 -48 8 -42 33 3 15 11 64 18 109 10 68
14 80 25 71 12 -10 12 -7 2 14 -9 20 -9 41 0 90 7 34 14 176 17 313 5 203 2
298 -15 507 -12 141 -21 284 -21 317 l0 59 49 32 c27 17 84 69 127 116 l77 85
-6 57 c-3 31 -12 77 -21 102 -22 60 -28 82 -28 103 1 9 -2 15 -6 13 -4 -3 -13
7 -19 22 -26 58 -84 217 -93 251 -5 20 -22 81 -39 136 -21 73 -26 102 -18 107
8 5 6 8 -5 8 -11 0 -18 8 -18 19 0 11 -5 23 -10 26 -6 4 -9 12 -8 18 1 7 -3
22 -10 34 -6 12 -14 37 -17 55 l-6 34 88 33 c48 19 123 51 166 72 42 21 84 36
92 32 9 -3 15 -1 13 6 -3 12 93 71 116 71 8 0 16 -7 20 -15 3 -8 10 -15 16
-15 6 0 9 4 5 9 -3 5 -1 12 5 16 5 3 10 14 10 23 -1 13 -4 11 -14 -7 -9 -17
-15 -20 -21 -11 -5 8 5 24 26 45 40 38 45 33 52 -47z m2078 52 c67 -19 147
-110 174 -197 13 -43 -28 -25 -85 37 -36 40 -69 66 -95 75 -44 15 -57 9 -61
-27 -1 -17 3 -24 16 -24 10 0 16 4 14 8 -3 4 2 8 10 8 9 0 16 -7 16 -16 0 -8
5 -12 10 -9 6 3 10 2 10 -4 0 -5 3 -18 6 -28 6 -17 6 -17 -7 0 -14 17 -15 16
-17 -11 -1 -19 3 -32 13 -36 9 -3 13 -2 10 4 -3 6 1 10 9 10 9 0 16 -7 16 -15
0 -8 5 -15 10 -15 16 0 11 -43 -9 -76 -15 -24 -36 -38 -93 -59 -40 -15 -82
-31 -93 -35 -11 -4 -35 -13 -52 -20 -18 -7 -33 -16 -33 -21 0 -4 -16 -13 -35
-20 -19 -7 -35 -19 -35 -26 0 -7 -18 -25 -40 -39 -22 -15 -40 -31 -40 -36 0
-6 -18 -31 -41 -56 -23 -26 -52 -66 -66 -90 -19 -33 -28 -40 -38 -32 -9 8 -15
8 -20 0 -4 -6 -1 -9 7 -8 7 2 13 -4 13 -12 0 -8 -6 -14 -13 -12 -8 1 -11 -2
-8 -7 4 -5 -16 -56 -43 -113 -123 -259 -166 -388 -232 -693 -7 -33 -17 -71
-22 -85 -8 -23 -10 -21 -23 28 -20 78 -81 165 -161 233 l-31 26 29 124 c85
354 190 607 357 859 48 72 199 236 268 290 131 103 293 151 405 120z m-31
-100 c0 -5 -2 -10 -4 -10 -3 0 -8 5 -11 10 -3 6 -1 10 4 10 6 0 11 -4 11 -10z
m-3920 -95 c0 -15 -21 -12 -30 5 -11 20 -10 21 9 10 12 -6 21 -13 21 -15z
m-55 -5 c0 -10 -12 -16 -32 -18 -32 -3 -45 13 -26 32 13 12 58 2 58 -14z m211
-36 c24 -14 44 -30 44 -35 0 -11 -36 6 -45 21 -9 14 -25 12 -25 -3 0 -6 14
-18 32 -26 28 -13 32 -12 44 4 22 30 25 13 7 -43 -10 -30 -24 -54 -34 -57 -10
-3 -22 -18 -28 -33 -5 -15 -10 -21 -10 -14 -1 7 4 22 9 33 7 12 7 19 1 19 -6
0 -15 9 -21 20 -9 17 -7 24 12 40 19 16 20 19 6 20 -10 0 -20 11 -24 25 -5 22
-12 25 -48 25 -29 0 -37 3 -26 9 8 6 18 7 22 5 4 -3 8 0 8 5 0 18 29 12 76
-15z m464 -5 c103 -26 199 -24 298 4 l79 23 37 -135 c44 -159 80 -262 147
-420 27 -62 49 -117 49 -121 0 -3 -95 -53 -212 -110 -207 -101 -212 -103 -247
-90 -67 24 -286 125 -338 156 -29 17 -66 37 -83 44 -22 9 -30 18 -27 29 3 9
34 99 70 201 58 165 94 299 112 413 5 31 9 37 23 32 9 -4 51 -16 92 -26z
m-489 -236 c-6 -22 -8 -16 -8 27 0 43 2 49 8 28 4 -16 4 -40 0 -55z m-61 -201
c0 -9 -4 -23 -8 -29 -5 -8 -8 1 -8 22 0 18 4 31 8 29 4 -3 8 -13 8 -22z m243
-338 c18 -9 57 -32 87 -50 65 -40 331 -159 376 -168 24 -5 53 2 120 30 98 40
313 145 347 169 12 8 28 15 37 15 16 -1 89 -95 111 -144 12 -26 11 -30 -11
-49 -81 -67 -420 -191 -556 -204 -77 -7 -178 14 -341 73 -92 33 -285 129 -321
160 -7 5 105 184 115 184 2 0 18 -7 36 -16z m-229 -330 c3 -8 2 -12 -4 -9 -6
3 -10 10 -10 16 0 14 7 11 14 -7z m1603 -126 c-2 -13 -4 -5 -4 17 -1 22 1 32
4 23 2 -10 2 -28 0 -40z m-2545 32 c102 -15 304 -88 321 -117 8 -14 -17 -142
-30 -155 -9 -8 -13 -9 -13 -1 0 7 -14 22 -31 34 -26 18 -33 19 -41 8 -8 -11
-9 -11 -5 2 15 47 -329 120 -347 74 -3 -8 -3 -22 1 -31 4 -12 0 -14 -22 -8
-19 5 -26 3 -21 -4 3 -6 27 -14 51 -18 50 -7 52 -10 28 -36 -20 -22 -33 -23
-33 -2 0 12 -10 7 -39 -17 -32 -28 -39 -41 -40 -71 -1 -21 4 -38 9 -38 6 0 10
-18 10 -40 l0 -40 -40 0 -40 0 0 -40 c0 -22 -4 -40 -10 -40 -6 0 -10 -45 -10
-115 l0 -115 40 -36 c46 -42 50 -54 15 -54 -14 0 -25 -3 -25 -7 0 -13 33 -43
47 -43 8 0 11 -4 8 -10 -3 -5 -1 -10 4 -10 6 0 11 5 11 10 0 6 11 10 25 10 14
0 39 10 55 22 16 12 43 21 60 21 16 0 30 4 30 9 0 5 5 6 10 3 6 -3 10 -2 10 4
0 6 7 8 16 4 12 -4 -1 -15 -47 -39 -35 -18 -73 -33 -83 -34 -11 0 -16 -3 -13
-7 9 -9 -64 -34 -81 -28 -7 3 -11 1 -8 -4 5 -7 -33 -27 -128 -65 -22 -9 -41
-15 -42 -13 -10 10 -67 214 -79 282 -33 191 -28 386 12 489 26 66 85 152 128
187 93 74 198 99 337 79z m3596 -23 c87 -35 169 -112 217 -206 22 -43 44 -167
45 -248 0 -73 -40 -302 -75 -426 -14 -48 -25 -95 -25 -103 0 -8 -5 -12 -11 -9
-5 4 -20 8 -32 10 -42 5 -203 67 -295 112 -94 47 -116 63 -88 63 9 0 16 -4 16
-9 0 -5 7 -12 16 -15 15 -6 15 -4 1 18 -12 18 -13 26 -4 29 20 9 -14 28 -43
25 -21 -3 -25 1 -22 21 1 14 5 27 8 30 8 9 85 -79 79 -90 -4 -5 8 -9 24 -9 38
0 40 -15 4 -25 l-28 -7 28 -14 c22 -12 30 -12 41 -2 7 7 11 20 8 30 -2 10 -1
34 2 53 6 32 10 35 41 35 32 0 35 2 35 30 0 28 2 30 40 30 l40 0 0 -77 0 -78
52 3 c40 3 60 10 80 29 l26 25 4 -28 c2 -16 3 21 2 81 -2 98 -1 106 10 75 7
-20 9 -42 4 -52 -4 -9 -8 -27 -7 -40 0 -14 6 -4 15 26 11 34 12 52 5 59 -6 6
-10 34 -10 62 l1 50 8 -53 c10 -70 20 -78 20 -17 0 84 -48 242 -95 315 -68
104 -133 158 -175 145 -30 -9 -24 -23 8 -18 23 4 25 3 9 -7 -13 -8 -27 -9 -48
-1 -29 10 -42 -2 -13 -13 29 -11 96 -7 88 5 -4 7 -1 10 7 7 8 -3 13 -11 11
-17 -1 -7 2 -10 8 -6 5 3 8 0 5 -7 -4 -10 -49 -12 -210 -10 l-205 3 0 -31 c0
-25 4 -30 25 -30 29 0 31 -7 8 -32 -22 -25 -33 -23 -33 7 0 22 -4 25 -34 25
-19 0 -40 2 -48 3 -7 2 -10 2 -5 0 10 -6 9 -77 -1 -88 -5 -6 -6 -21 -1 -35 7
-23 7 -23 8 8 2 48 21 39 21 -11 0 -35 6 -49 30 -72 l30 -29 0 32 c0 18 5 32
10 32 6 0 10 -18 10 -40 0 -37 -3 -41 -30 -46 -27 -6 -44 -34 -20 -34 6 0 10
4 10 10 0 5 8 7 18 3 29 -10 53 -36 47 -51 -3 -8 2 -29 11 -47 12 -26 13 -41
5 -70 -8 -31 -7 -39 9 -55 11 -11 22 -15 25 -10 8 12 25 13 25 1 0 -5 -7 -12
-16 -15 -21 -8 -50 18 -71 63 -9 20 -19 40 -21 45 -3 5 3 6 12 3 16 -6 17 -3
11 20 -9 38 -23 52 -35 33 -7 -11 -10 -12 -10 -2 0 7 -13 33 -30 57 -21 31
-26 45 -17 49 6 3 1 3 -12 0 -19 -5 -23 -3 -18 9 4 11 2 14 -9 10 -7 -3 -14
-1 -14 5 0 5 7 12 15 16 8 3 15 11 15 18 0 9 -3 9 -10 -2 -7 -10 -12 -12 -17
-4 -5 6 -19 17 -33 23 -22 11 -21 10 5 -13 17 -14 25 -25 19 -26 -6 0 -20 10
-32 23 -12 13 -42 34 -67 46 l-45 22 1 57 c0 31 4 90 8 130 8 84 12 88 121
146 180 94 373 118 508 63z m-3568 -147 c0 -5 -12 -10 -27 -9 l-28 1 25 8 c14
4 26 8 28 9 1 1 2 -3 2 -9z m-65 -20 c-3 -5 -10 -10 -16 -10 -5 0 -9 5 -9 10
0 6 7 10 16 10 8 0 12 -4 9 -10z m65 -12 c-36 -11 -66 -24 -68 -29 -5 -13 -24
-11 -20 3 4 12 101 47 133 47 11 0 -9 -9 -45 -21z m120 -4 c0 -3 -13 -3 -29
-2 -16 1 -28 5 -26 9 5 6 55 0 55 -7z m-83 -10 c-3 -3 -12 -4 -19 -1 -8 3 -5
6 6 6 11 1 17 -2 13 -5z m320 -36 c-3 -7 -5 -2 -5 12 0 14 2 19 5 13 2 -7 2
-19 0 -25z m2130 -30 c-2 -13 -4 -5 -4 17 -1 22 1 32 4 23 2 -10 2 -28 0 -40z
m1137 18 c-6 -15 -24 -23 -24 -11 0 8 24 34 28 30 1 -1 0 -10 -4 -19z m56 -41
c0 -3 -9 0 -20 7 -11 7 -20 19 -20 27 0 11 6 9 20 -7 11 -12 20 -24 20 -27z
m-1123 -42 c-2 -16 -4 -3 -4 27 0 30 2 43 4 28 2 -16 2 -40 0 -55z m1156 -13
c4 -17 3 -19 -9 -9 -8 6 -14 18 -14 26 0 20 16 8 23 -17z m-3347 -58 c-11 -10
-13 3 -7 43 l6 40 3 -39 c2 -21 1 -41 -2 -44z m2114 -72 c-9 -22 -10 -20 -5
15 2 22 6 54 7 70 1 19 3 13 5 -15 2 -25 -1 -57 -7 -70z m72 33 c-3 -43 -11
-94 -18 -113 l-13 -35 0 32 c-1 17 4 33 10 35 7 2 8 14 3 33 l-8 30 -7 -40
c-5 -22 -9 -71 -10 -110 -2 -55 -3 -61 -8 -30 l-5 40 -7 -40 c-5 -28 -5 -24
-2 15 8 80 10 117 12 193 1 67 1 67 29 67 l29 0 -5 -77z m1118 52 c0 -30 -11
-32 -34 -6 -13 15 -14 20 -4 24 27 11 38 6 38 -18z m-3330 -19 c0 -2 -7 -7
-16 -10 -8 -3 -12 -2 -9 4 6 10 25 14 25 6z m-80 -53 c-19 -15 -59 -50 -87
-79 -29 -29 -53 -47 -53 -40 0 7 21 32 46 55 37 35 43 45 33 57 -7 9 -8 14 -1
14 6 0 12 -6 15 -12 2 -9 14 -5 38 13 19 15 36 25 39 22 2 -2 -11 -16 -30 -30z
m3497 -20 c-3 -10 -5 -4 -5 12 0 17 2 24 5 18 2 -7 2 -21 0 -30z m-3577 1 c0
-3 -7 -12 -15 -20 -16 -17 -18 -14 -9 10 6 15 24 23 24 10z m3490 -34 c0 -5
-18 -10 -40 -10 -22 0 -40 5 -40 10 0 6 18 10 40 10 22 0 40 -4 40 -10z
m-1193 -42 c-3 -7 -5 -2 -5 12 0 14 2 19 5 13 2 -7 2 -19 0 -25z m-2367 -48
c5 -3 2 -16 -6 -30 l-15 -25 5 27 c3 14 2 28 -4 30 -5 2 -6 14 -2 28 l7 25 3
-25 c2 -14 8 -27 12 -30z m2429 -67 c-2 -70 -6 -63 -11 20 -2 26 0 47 4 47 5
0 7 -30 7 -67z m751 27 c0 -22 -4 -40 -10 -40 -5 0 -10 18 -10 40 0 22 5 40
10 40 6 0 10 -18 10 -40z m-3210 -48 c0 -4 -6 -16 -14 -27 -7 -11 -17 -31 -21
-45 -8 -26 -33 -60 -45 -60 -5 0 -6 38 -1 62 0 3 9 4 19 2 12 -4 21 4 29 27 7
18 10 36 7 40 -3 5 2 9 10 9 9 0 16 -3 16 -8z m2425 -68 c-5 -55 -4 -74 4 -70
6 4 11 2 11 -3 0 -6 -7 -11 -15 -11 -8 0 -15 -8 -16 -17 -1 -29 -18 17 -17 47
0 23 1 23 9 -5 6 -21 7 -10 5 40 -3 47 -2 60 4 40 7 -28 8 -28 9 13 0 23 4 42
7 42 4 0 3 -34 -1 -76z m22 -41 c-3 -10 -5 -4 -5 12 0 17 2 24 5 18 2 -7 2
-21 0 -30z m-23 -193 c-5 -38 -9 -48 -12 -30 l-5 25 -8 -25 c-7 -20 -8 -18 -4
10 3 19 10 37 15 38 6 2 11 25 11 50 2 34 3 39 6 17 3 -16 1 -54 -3 -85z
m-1440 -61 c3 -76 2 -108 -5 -97 -18 32 -21 233 -3 215 2 -2 6 -55 8 -118z
m1423 -46 c-3 -10 -5 -4 -5 12 0 17 2 24 5 18 2 -7 2 -21 0 -30z m-1440 -165
c-2 -13 -4 -3 -4 22 0 25 2 35 4 23 2 -13 2 -33 0 -45z m30 -10 c-3 -7 -5 -2
-5 12 0 14 2 19 5 13 2 -7 2 -19 0 -25z m-40 -40 c-3 -8 -6 -5 -6 6 -1 11 2
17 5 13 3 -3 4 -12 1 -19z m20 -30 c-3 -8 -6 -5 -6 6 -1 11 2 17 5 13 3 -3 4
-12 1 -19z m10 -50 c-3 -7 -5 -2 -5 12 0 14 2 19 5 13 2 -7 2 -19 0 -25z
m-156 -8 c37 0 39 -2 39 -30 0 -28 3 -30 35 -30 19 0 35 -4 35 -10 0 -15 46
-23 68 -11 16 8 21 6 31 -16 6 -14 10 -27 9 -28 -11 -10 -152 -43 -164 -38 -8
3 -14 0 -14 -6 0 -6 -19 -11 -45 -11 l-45 0 1 38 c1 21 3 29 6 17 6 -25 22
-45 36 -45 6 0 2 7 -9 15 -11 8 -14 15 -6 15 18 0 16 60 -2 60 -10 0 -16 14
-19 43 -3 40 -4 39 -7 -13 l-3 -55 -7 50 c-4 31 -2 54 4 61 6 7 13 8 14 3 2
-5 21 -9 43 -9z m-26 -200 c-3 -5 -10 -10 -16 -10 -5 0 -9 5 -9 10 0 6 7 10
16 10 8 0 12 -4 9 -10z m-15 -221 l42 -31 23 22 c29 27 88 43 128 35 18 -4 48
-20 68 -35 l37 -29 21 23 c40 43 133 58 195 32 62 -26 115 -106 116 -173 0
-44 -13 -41 -35 7 -19 43 -76 100 -99 100 -7 0 -27 -5 -44 -11 -26 -9 -35 -22
-58 -81 -29 -73 -64 -111 -98 -106 -27 4 -76 76 -91 135 -9 35 -17 48 -30 48
-19 0 -21 -2 -56 -84 -28 -63 -54 -91 -84 -91 -22 0 -28 11 -86 158 -6 17 -17
22 -43 22 -34 0 -35 -2 -56 -67 -37 -112 -78 -138 -139 -87 -24 20 -31 34 -31
63 0 59 69 151 130 174 8 3 45 6 81 6 58 1 71 -2 109 -30z m1216 9 c16 -12 32
-26 35 -31 4 -5 21 1 38 14 23 17 49 24 94 27 54 3 67 0 100 -22 l38 -26 55
31 c46 26 63 31 103 27 115 -11 213 -157 167 -246 -9 -18 -20 -32 -25 -32 -16
0 -55 54 -85 118 -28 58 -32 62 -63 62 -25 0 -33 -4 -33 -18 0 -11 -14 -46
-30 -80 -25 -49 -37 -63 -65 -72 -19 -6 -43 -9 -52 -6 -22 7 -76 88 -92 138
-22 68 -33 62 -89 -52 -31 -62 -41 -76 -63 -78 -29 -3 -26 -9 -77 133 -13 37
-23 51 -39 53 -37 5 -59 -14 -97 -88 -44 -83 -66 -91 -66 -25 0 49 20 107 48
139 52 59 145 75 198 34z"/>
<path d="M4808 8003 c23 -2 61 -2 85 0 23 2 4 4 -43 4 -47 0 -66 -2 -42 -4z"/>
<path d="M4698 7993 c7 -3 16 -2 19 1 4 3 -2 6 -13 5 -11 0 -14 -3 -6 -6z"/>
<path d="M4575 7965 c-33 -16 -43 -25 -30 -26 17 -1 16 -2 -5 -10 l-25 -8 25
2 c14 1 25 7 25 12 0 16 62 45 82 39 15 -5 16 -4 3 5 -19 14 -17 14 -75 -14z"/>
<path d="M4510 7965 c-19 -7 -28 -14 -20 -14 8 0 29 6 45 14 39 17 21 18 -25
0z"/>
<path d="M4450 7950 c-13 -8 -12 -10 3 -10 9 0 17 5 17 10 0 12 -1 12 -20 0z"/>
<path d="M4968 7953 c6 -2 18 -2 25 0 6 3 1 5 -13 5 -14 0 -19 -2 -12 -5z"/>
<path d="M4377 7931 c-12 -4 3 -7 38 -8 31 -1 55 0 53 1 -9 9 -75 14 -91 7z"/>
<path d="M4618 7933 c7 -3 16 -2 19 1 4 3 -2 6 -13 5 -11 0 -14 -3 -6 -6z"/>
<path d="M4380 7890 c0 -5 5 -10 10 -10 6 0 10 5 10 10 0 6 -4 10 -10 10 -5 0
-10 -4 -10 -10z"/>
<path d="M4286 7865 c-11 -8 -16 -15 -10 -15 5 0 18 7 28 15 11 8 16 15 10 15
-5 0 -18 -7 -28 -15z"/>
<path d="M4238 7843 c7 -3 16 -2 19 1 4 3 -2 6 -13 5 -11 0 -14 -3 -6 -6z"/>
<path d="M5931 7834 c0 -11 3 -14 6 -6 3 7 2 16 -1 19 -3 4 -6 -2 -5 -13z"/>
<path d="M5698 7823 c6 -2 18 -2 25 0 6 3 1 5 -13 5 -14 0 -19 -2 -12 -5z"/>
<path d="M5745 7800 c3 -5 8 -10 11 -10 2 0 4 5 4 10 0 6 -5 10 -11 10 -5 0
-7 -4 -4 -10z"/>
<path d="M5920 7796 c0 -9 5 -16 10 -16 6 0 10 4 10 9 0 6 -4 13 -10 16 -5 3
-10 -1 -10 -9z"/>
<path d="M5698 7793 c7 -3 16 -2 19 1 4 3 -2 6 -13 5 -11 0 -14 -3 -6 -6z"/>
<path d="M5955 7774 c-16 -12 -17 -14 -2 -14 9 0 22 -9 29 -20 9 -14 19 -18
38 -14 19 4 21 3 10 -5 -22 -15 -2 -27 21 -12 24 14 41 5 19 -10 -13 -9 -13
-10 0 -8 28 3 41 -1 35 -11 -3 -5 0 -7 8 -4 8 3 18 1 22 -5 3 -6 12 -11 18
-11 7 0 -4 10 -23 22 -19 12 -39 28 -43 35 -4 7 -13 13 -18 13 -6 0 -24 9 -39
20 -16 12 -36 18 -47 14 -13 -4 -15 -3 -4 4 7 5 9 12 4 15 -4 3 -17 -1 -28 -9z"/>
<path d="M4030 7710 c-13 -8 -12 -10 3 -10 9 0 17 5 17 10 0 12 -1 12 -20 0z"/>
<path d="M5905 7690 c3 -5 8 -10 11 -10 2 0 4 5 4 10 0 6 -5 10 -11 10 -5 0
-7 -4 -4 -10z"/>
<path d="M4300 7640 c0 -22 5 -40 10 -40 6 0 10 18 10 40 0 22 -4 40 -10 40
-5 0 -10 -18 -10 -40z"/>
<path d="M6076 7652 c-10 -30 -2 -38 26 -23 13 6 15 9 6 7 -11 -3 -18 2 -20
17 l-4 22 -8 -23z"/>
<path d="M6425 7599 c-4 -6 -5 -12 -2 -15 2 -3 7 2 10 11 7 17 1 20 -8 4z"/>
<path d="M4076 7591 c-4 -5 3 -7 14 -4 23 6 26 13 6 13 -8 0 -17 -4 -20 -9z"/>
<path d="M4340 7510 c0 -5 7 -7 16 -3 9 3 20 0 24 -8 5 -7 12 -10 17 -6 9 10
-16 27 -39 27 -10 0 -18 -4 -18 -10z"/>
<path d="M5668 7513 c7 -3 16 -2 19 1 4 3 -2 6 -13 5 -11 0 -14 -3 -6 -6z"/>
<path d="M4278 7503 c7 -3 16 -2 19 1 4 3 -2 6 -13 5 -11 0 -14 -3 -6 -6z"/>
<path d="M4350 7482 c0 -5 11 -14 25 -20 26 -12 33 -4 13 16 -14 14 -38 16
-38 4z"/>
<path d="M4486 7432 c-5 -8 60 -10 67 -2 3 3 -10 6 -29 7 -18 1 -36 -1 -38 -5z"/>
<path d="M4791 7254 c0 -11 3 -14 6 -6 3 7 2 16 -1 19 -3 4 -6 -2 -5 -13z"/>
<path d="M4742 7238 c6 -18 28 -21 28 -4 0 9 -7 16 -16 16 -9 0 -14 -5 -12
-12z"/>
<path d="M5070 7234 c0 -14 3 -14 15 -4 8 7 15 14 15 16 0 2 -7 4 -15 4 -8 0
-15 -7 -15 -16z"/>
<path d="M4880 7190 c0 -5 5 -10 10 -10 6 0 10 5 10 10 0 6 -4 10 -10 10 -5 0
-10 -4 -10 -10z"/>
<path d="M4920 7190 c0 -5 7 -10 15 -10 8 0 15 5 15 10 0 6 -7 10 -15 10 -8 0
-15 -4 -15 -10z"/>
<path d="M5000 7154 c0 -8 5 -12 10 -9 6 4 8 11 5 16 -9 14 -15 11 -15 -7z"/>
<path d="M4860 7150 c0 -5 5 -10 10 -10 6 0 10 5 10 10 0 6 -4 10 -10 10 -5 0
-10 -4 -10 -10z"/>
<path d="M4855 7109 c-4 -6 -5 -12 -2 -15 2 -3 7 2 10 11 7 17 1 20 -8 4z"/>
<path d="M5197 7333 c-4 -3 -7 -11 -7 -17 0 -6 5 -5 12 2 6 6 9 14 7 17 -3 3
-9 2 -12 -2z"/>
<path d="M5150 7305 c0 -8 -7 -15 -16 -15 -8 0 -13 -4 -9 -10 8 -13 28 -4 43
20 10 17 10 20 -3 20 -8 0 -15 -7 -15 -15z"/>
<path d="M3710 6740 c-9 -6 -10 -10 -3 -10 6 0 15 5 18 10 8 12 4 12 -15 0z"/>
<path d="M5976 6679 c3 -5 11 -9 19 -9 8 0 16 4 19 9 3 5 -5 9 -19 9 -14 0
-22 -4 -19 -9z"/>
<path d="M6030 6669 c0 -8 -13 -10 -37 -6 -38 6 -38 6 -15 -11 16 -12 21 -24
17 -37 -6 -19 -6 -19 6 0 6 11 21 30 32 43 11 12 15 22 9 22 -7 0 -12 -5 -12
-11z"/>
<path d="M5864 6641 c3 -5 -1 -11 -9 -15 -8 -3 -15 -1 -15 4 0 6 -7 10 -15 10
-11 0 -15 -11 -15 -40 0 -25 5 -40 13 -40 9 0 9 -2 -1 -9 -8 -4 -13 -11 -13
-15 2 -17 -1 -23 -25 -49 -14 -16 -23 -31 -19 -35 4 -4 10 -1 12 6 3 6 18 12
34 12 23 0 29 4 29 23 1 26 22 57 39 57 7 0 9 5 6 11 -5 7 -14 4 -26 -7 -18
-16 -19 -16 -19 14 0 25 4 32 19 32 11 0 21 -5 23 -10 2 -6 13 -12 26 -15 22
-4 23 -2 17 28 -9 38 -4 33 -38 41 -17 4 -26 3 -23 -3z"/>
<path d="M5933 6551 c-10 -10 -25 -21 -33 -24 -11 -4 -9 -6 5 -6 11 0 28 11
38 24 21 29 15 33 -10 6z"/>
<path d="M5850 6496 c0 -8 -3 -22 -7 -31 -5 -16 -4 -15 15 1 25 21 29 44 7 44
-8 0 -15 -6 -15 -14z"/>
<path d="M5795 6440 c-3 -5 1 -10 9 -10 9 0 16 5 16 10 0 6 -4 10 -9 10 -6 0
-13 -4 -16 -10z"/>
<path d="M4595 6600 c-3 -5 1 -10 9 -10 9 0 16 5 16 10 0 6 -4 10 -9 10 -6 0
-13 -4 -16 -10z"/>
<path d="M4575 6560 c-3 -5 -2 -10 4 -10 5 0 13 5 16 10 3 6 2 10 -4 10 -5 0
-13 -4 -16 -10z"/>
<path d="M4240 6388 c0 -7 5 -20 11 -28 9 -13 10 -13 6 1 -3 9 0 22 6 28 8 8
7 11 -6 11 -9 0 -17 -6 -17 -12z"/>
<path d="M4358 6393 c-23 -6 -25 -71 -3 -79 25 -10 47 16 40 45 -8 32 -15 39
-37 34z"/>
<path d="M4457 6383 c-4 -3 -7 -11 -7 -17 0 -6 5 -5 12 2 6 6 9 14 7 17 -3 3
-9 2 -12 -2z"/>
<path d="M4545 6360 c3 -5 8 -10 11 -10 2 0 4 5 4 10 0 6 -5 10 -11 10 -5 0
-7 -4 -4 -10z"/>
<path d="M4013 6353 c9 -2 25 -2 35 0 9 3 1 5 -18 5 -19 0 -27 -2 -17 -5z"/>
<path d="M4476 6344 c-22 -21 -20 -41 4 -54 32 -17 60 -3 60 30 0 39 -36 53
-64 24z"/>
<path d="M5270 6390 c12 -8 9 -14 -19 -37 -43 -36 -40 -67 7 -71 40 -4 51 18
28 53 -9 14 -12 25 -6 25 5 0 10 9 10 20 0 12 -7 20 -17 20 -15 0 -16 -2 -3
-10z"/>
<path d="M5374 6394 c-18 -7 -1 -68 19 -72 34 -7 48 5 37 33 -7 18 -6 25 3 26
6 0 3 4 -8 9 -22 10 -35 11 -51 4z"/>
<path d="M5211 6356 c-10 -12 -17 -13 -33 -3 -16 9 -22 9 -25 -1 -3 -7 -11
-19 -19 -26 -21 -21 -18 -23 27 -21 23 1 36 -1 29 -5 -9 -5 -8 -9 3 -13 10 -4
14 1 12 16 0 12 5 30 14 40 8 9 12 19 9 22 -3 3 -11 -1 -17 -9z"/>
<path d="M5065 6310 c-3 -5 -1 -10 4 -10 6 0 11 5 11 10 0 6 -2 10 -4 10 -3 0
-8 -4 -11 -10z"/>
<path d="M5131 6286 c2 -2 18 -6 34 -10 22 -5 26 -4 15 4 -14 9 -59 15 -49 6z"/>
<path d="M5206 6262 c-3 -6 -1 -14 5 -17 14 -9 20 -2 10 14 -6 8 -11 9 -15 3z"/>
<path d="M5245 6260 c-3 -5 -2 -10 4 -10 5 0 13 5 16 10 3 6 2 10 -4 10 -5 0
-13 -4 -16 -10z"/>
<path d="M5334 6253 c-35 -24 -17 -73 26 -73 21 0 30 5 32 18 4 53 3 57 -22
60 -14 1 -30 -1 -36 -5z"/>
<path d="M5417 6239 c7 -7 15 -10 18 -7 3 3 -2 9 -12 12 -14 6 -15 5 -6 -5z"/>
<path d="M5376 6124 c-9 -24 -2 -26 12 -4 7 11 8 20 3 20 -5 0 -12 -7 -15 -16z"/>
<path d="M3111 6299 c13 -8 97 -13 88 -5 -2 2 -26 6 -53 9 -30 3 -43 1 -35 -4z"/>
<path d="M5020 5980 c-8 -5 -10 -10 -5 -10 6 0 17 5 25 10 8 5 11 10 5 10 -5
0 -17 -5 -25 -10z"/>
<path d="M5110 5980 c-8 -5 -10 -10 -5 -10 6 0 17 5 25 10 8 5 11 10 5 10 -5
0 -17 -5 -25 -10z"/>
<path d="M5048 5963 c7 -3 16 -2 19 1 4 3 -2 6 -13 5 -11 0 -14 -3 -6 -6z"/>
<path d="M4698 5973 c7 -3 16 -2 19 1 4 3 -2 6 -13 5 -11 0 -14 -3 -6 -6z"/>
<path d="M3212 5263 c70 -2 187 -2 260 0 73 1 16 3 -127 3 -143 0 -203 -2
-133 -3z"/>
<path d="M6288 5263 c50 -2 134 -2 185 0 50 1 9 3 -93 3 -102 0 -143 -2 -92
-3z"/>
<path d="M6128 5253 c6 -2 18 -2 25 0 6 3 1 5 -13 5 -14 0 -19 -2 -12 -5z"/>
<path d="M5765 4850 c-3 -6 1 -7 9 -4 18 7 21 14 7 14 -6 0 -13 -4 -16 -10z"/>
<path d="M5665 4810 c-16 -7 -17 -9 -3 -9 9 -1 20 4 23 9 7 11 7 11 -20 0z"/>
<path d="M5270 4650 c-8 -5 -10 -10 -5 -10 6 0 17 5 25 10 8 5 11 10 5 10 -5
0 -17 -5 -25 -10z"/>
<path d="M3900 4320 c-8 -5 -10 -10 -5 -10 6 0 17 5 25 10 8 5 11 10 5 10 -5
0 -17 -5 -25 -10z"/>
<path d="M3900 4291 c25 -7 25 -7 3 -13 -14 -4 -23 -13 -22 -25 1 -17 2 -17 6
0 3 12 10 16 20 13 8 -3 19 -3 24 0 16 9 -11 34 -35 33 -19 -1 -18 -2 4 -8z"/>
<path d="M3911 4144 c0 -11 3 -14 6 -6 3 7 2 16 -1 19 -3 4 -6 -2 -5 -13z"/>
<path d="M3887 4123 c-11 -10 -8 -43 3 -43 6 0 10 11 10 25 0 26 -2 29 -13 18z"/>
<path d="M3912 4060 c0 -14 2 -19 5 -12 2 6 2 18 0 25 -3 6 -5 1 -5 -13z"/>
<path d="M4118 3495 c2 -14 6 -25 8 -25 2 0 4 11 4 25 0 14 -4 25 -9 25 -4 0
-6 -11 -3 -25z"/>
<path d="M4103 3423 c-7 -15 -12 -43 -12 -62 2 -34 2 -34 6 -6 2 17 9 40 15
52 5 11 9 26 7 32 -2 6 -10 -2 -16 -16z"/>
<path d="M3903 3177 c-2 -30 -2 -31 8 -8 5 14 6 28 1 33 -4 4 -9 -7 -9 -25z"/>
<path d="M4107 3131 c5 -29 4 -33 -10 -28 -20 7 -21 3 -6 -24 5 -11 14 -17 18
-15 11 7 12 69 1 86 -7 10 -8 4 -3 -19z"/>
<path d="M4080 3141 c0 -6 4 -13 10 -16 6 -3 7 1 4 9 -7 18 -14 21 -14 7z"/>
<path d="M3972 3100 c-7 -11 -12 -32 -11 -47 1 -24 3 -21 15 16 15 50 14 60
-4 31z"/>
<path d="M4250 2955 c0 -8 5 -15 10 -15 6 0 10 7 10 15 0 8 -4 15 -10 15 -5 0
-10 -7 -10 -15z"/>
<path d="M4282 2921 c2 -7 7 -12 11 -12 12 1 9 15 -3 20 -7 2 -11 -2 -8 -8z"/>
<path d="M4338 2770 c2 -47 6 -87 8 -89 7 -8 2 114 -6 144 -4 17 -5 -8 -2 -55z"/>
<path d="M4343 2600 c0 -25 2 -35 4 -22 2 12 2 32 0 45 -2 12 -4 2 -4 -23z"/>
<path d="M4340 2513 c0 -5 -4 -37 -9 -73 -5 -36 -6 -96 -1 -135 5 -52 8 -60 9
-30 4 68 6 245 4 245 -2 0 -3 -3 -3 -7z"/>
<path d="M4052 2450 c0 -19 2 -27 5 -17 2 9 2 25 0 35 -3 9 -5 1 -5 -18z"/>
<path d="M4140 2355 c0 -19 5 -35 10 -35 6 0 10 16 10 35 0 19 -4 35 -10 35
-5 0 -10 -16 -10 -35z"/>
<path d="M4031 2334 c0 -11 3 -14 6 -6 3 7 2 16 -1 19 -3 4 -6 -2 -5 -13z"/>
<path d="M4053 2280 c0 -25 2 -35 4 -22 2 12 2 32 0 45 -2 12 -4 2 -4 -23z"/>
<path d="M4250 2280 c0 -22 5 -40 10 -40 6 0 10 -18 10 -40 0 -22 5 -40 10
-40 6 0 10 18 10 40 0 22 5 40 10 40 6 0 10 18 10 40 0 38 -2 40 -30 40 -28 0
-30 -2 -30 -40z"/>
<path d="M4325 2199 c6 -45 15 -49 15 -6 0 21 -4 37 -10 37 -5 0 -7 -14 -5
-31z"/>
<path d="M4071 2174 c0 -11 3 -14 6 -6 3 7 2 16 -1 19 -3 4 -6 -2 -5 -13z"/>
<path d="M4140 2125 c0 -19 5 -35 10 -35 6 0 10 16 10 35 0 19 -4 35 -10 35
-5 0 -10 -16 -10 -35z"/>
<path d="M4322 2110 c0 -19 2 -27 5 -17 2 9 2 25 0 35 -3 9 -5 1 -5 -18z"/>
<path d="M4057 2075 c3 -27 7 -52 9 -54 7 -8 2 54 -6 79 -6 17 -7 9 -3 -25z"/>
<path d="M4270 1920 c0 -47 4 -80 10 -80 6 0 10 33 10 80 0 47 -4 80 -10 80
-6 0 -10 -33 -10 -80z"/>
<path d="M4133 1695 c0 -27 2 -38 4 -22 2 15 2 37 0 50 -2 12 -4 0 -4 -28z"/>
<path d="M4152 1660 c0 -14 2 -19 5 -12 2 6 2 18 0 25 -3 6 -5 1 -5 -13z"/>
<path d="M4121 1614 c0 -11 3 -14 6 -6 3 7 2 16 -1 19 -3 4 -6 -2 -5 -13z"/>
<path d="M5848 4279 c-9 -13 -20 -20 -24 -16 -5 4 -2 13 6 18 12 9 12 10 -3 5
-10 -3 -21 -6 -23 -6 -2 0 -4 -6 -4 -13 0 -8 -11 -19 -25 -25 -31 -14 -46 -15
-25 -2 8 5 10 10 4 10 -13 0 -59 -49 -68 -73 -5 -15 -12 -17 -36 -12 -30 7
-30 6 -30 -39 0 -25 -4 -46 -10 -46 -5 0 -10 11 -10 25 0 29 -20 34 -21 5 -3
-87 0 -123 10 -133 6 -6 11 -21 11 -34 0 -21 4 -23 50 -23 l50 0 0 -40 c0 -29
4 -40 15 -40 11 0 15 -11 15 -40 0 -36 3 -40 25 -40 23 0 25 -4 25 -40 0 -33
-3 -40 -20 -40 -18 0 -20 -7 -20 -75 0 -43 4 -75 10 -75 6 0 10 16 10 35 0 24
5 35 15 35 11 0 15 -11 15 -40 0 -29 4 -40 15 -40 11 0 15 -11 15 -40 0 -29
-4 -40 -15 -40 -20 0 -19 -13 3 -33 24 -21 32 -21 32 0 0 13 8 9 33 -16 l34
-32 16 23 c15 22 16 20 15 -42 0 -50 -2 -58 -8 -35 -7 27 -8 28 -8 5 0 -14 3
-34 7 -44 7 -18 8 -18 14 5 10 37 8 292 -3 309 -5 8 -5 17 0 20 9 5 -6 449
-15 459 -3 2 -5 -10 -5 -27 0 -31 -2 -32 -40 -32 l-40 0 1 58 c1 31 3 49 6 40
9 -35 33 -11 33 33 0 10 5 19 10 19 6 0 10 -9 10 -19 0 -24 10 -51 19 -51 9 0
1 170 -10 197 -11 29 -29 30 -30 1 -1 -23 -1 -23 -8 1 l-6 24 -17 -24z m-98
-78 c0 -5 -7 -14 -15 -21 -12 -10 -15 -10 -15 2 0 8 3 18 7 21 9 10 23 9 23
-2z m177 -673 c-3 -8 -6 -5 -6 6 -1 11 2 17 5 13 3 -3 4 -12 1 -19z m-67 -73
c10 -12 10 -15 -4 -15 -9 0 -16 7 -16 15 0 8 2 15 4 15 2 0 9 -7 16 -15z"/>
<path d="M5958 4293 c7 -3 16 -2 19 1 4 3 -2 6 -13 5 -11 0 -14 -3 -6 -6z"/>
<path d="M5657 4203 c-21 -5 -18 -27 4 -31 9 -2 15 5 15 18 0 11 0 19 -1 19 0
-1 -8 -3 -18 -6z"/>
<path d="M5590 4170 c-9 -6 -10 -10 -3 -10 6 0 15 5 18 10 8 12 4 12 -15 0z"/>
<path d="M5501 3984 c0 -11 3 -14 6 -6 3 7 2 16 -1 19 -3 4 -6 -2 -5 -13z"/>
<path d="M5585 3811 c-3 -5 -1 -12 5 -16 5 -3 10 1 10 9 0 18 -6 21 -15 7z"/>
<path d="M5570 3745 c0 -8 2 -15 4 -15 2 0 6 7 10 15 3 8 1 15 -4 15 -6 0 -10
-7 -10 -15z"/>
<path d="M5561 3704 c0 -11 3 -14 6 -6 3 7 2 16 -1 19 -3 4 -6 -2 -5 -13z"/>
<path d="M5661 3484 c0 -11 3 -14 6 -6 3 7 2 16 -1 19 -3 4 -6 -2 -5 -13z"/>
<path d="M5708 3335 c2 -14 6 -25 8 -25 2 0 4 11 4 25 0 14 -4 25 -9 25 -4 0
-6 -11 -3 -25z"/>
<path d="M5742 3340 c0 -14 2 -19 5 -12 2 6 2 18 0 25 -3 6 -5 1 -5 -13z"/>
<path d="M5730 3188 c0 -9 5 -20 10 -23 13 -8 13 5 0 25 -8 13 -10 13 -10 -2z"/>
<path d="M5921 3184 c0 -11 3 -14 6 -6 3 7 2 16 -1 19 -3 4 -6 -2 -5 -13z"/>
<path d="M5852 3075 c0 -16 2 -22 5 -12 2 9 2 23 0 30 -3 6 -5 -1 -5 -18z"/>
<path d="M5715 3080 c-3 -5 -1 -10 4 -10 6 0 11 5 11 10 0 6 -2 10 -4 10 -3 0
-8 -4 -11 -10z"/>
<path d="M5666 3055 c-3 -8 -1 -15 4 -15 6 0 10 7 10 15 0 8 -2 15 -4 15 -2 0
-6 -7 -10 -15z"/>
<path d="M5630 3000 c-9 -6 -10 -10 -3 -10 6 0 15 5 18 10 8 12 4 12 -15 0z"/>
<path d="M5663 2994 c-15 -16 -16 -24 -4 -24 8 0 24 30 19 35 -2 2 -9 -3 -15
-11z"/>
<path d="M5570 2906 c0 -2 7 -7 16 -10 8 -3 12 -2 9 4 -6 10 -25 14 -25 6z"/>
<path d="M5547 2889 c7 -7 15 -10 18 -7 3 3 -2 9 -12 12 -14 6 -15 5 -6 -5z"/>
<path d="M5853 2840 c0 -25 2 -35 4 -22 2 12 2 32 0 45 -2 12 -4 2 -4 -23z"/>
<path d="M5502 2850 c0 -14 2 -19 5 -12 2 6 2 18 0 25 -3 6 -5 1 -5 -13z"/>
<path d="M5493 2675 c0 -22 2 -30 4 -17 2 12 2 30 0 40 -3 9 -5 -1 -4 -23z"/>
<path d="M5512 2660 c0 -14 2 -19 5 -12 2 6 2 18 0 25 -3 6 -5 1 -5 -13z"/>
<path d="M5591 2654 c0 -11 3 -14 6 -6 3 7 2 16 -1 19 -3 4 -6 -2 -5 -13z"/>
<path d="M5502 2540 c0 -14 2 -19 5 -12 2 6 2 18 0 25 -3 6 -5 1 -5 -13z"/>
<path d="M5650 2520 c0 -29 4 -40 15 -40 11 0 15 11 15 40 0 29 -4 40 -15 40
-11 0 -15 -11 -15 -40z"/>
<path d="M5580 2475 c0 -43 4 -75 10 -75 6 0 10 32 10 75 0 43 -4 75 -10 75
-6 0 -10 -32 -10 -75z"/>
<path d="M5580 2115 c0 -70 4 -115 10 -115 6 0 10 45 10 115 0 70 -4 115 -10
115 -6 0 -10 -45 -10 -115z"/>
<path d="M5502 1700 c0 -14 2 -19 5 -12 2 6 2 18 0 25 -3 6 -5 1 -5 -13z"/>
<path d="M5501 1494 c0 -11 3 -14 6 -6 3 7 2 16 -1 19 -3 4 -6 -2 -5 -13z"/>
<path d="M5690 1488 c0 -7 5 -20 10 -28 8 -12 10 -11 10 7 0 12 -4 25 -10 28
-5 3 -10 0 -10 -7z"/>
<path d="M5650 1356 c0 -2 9 -6 20 -9 11 -3 20 -1 20 4 0 5 -9 9 -20 9 -11 0
-20 -2 -20 -4z"/>
<path d="M7933 4313 c15 -2 37 -2 50 0 12 2 0 4 -28 4 -27 0 -38 -2 -22 -4z"/>
<path d="M7876 4301 c-3 -5 5 -11 19 -13 20 -4 23 -3 14 8 -13 16 -25 18 -33
5z"/>
<path d="M7831 4281 c-8 -5 -9 -11 -3 -15 5 -3 12 1 16 9 6 17 6 18 -13 6z"/>
<path d="M7716 4184 c-11 -8 -16 -14 -10 -14 13 0 39 18 34 24 -3 2 -14 -2
-24 -10z"/>
<path d="M7850 4170 c0 -6 31 -10 74 -10 50 0 76 -4 79 -12 2 -7 8 -10 12 -6
4 4 0 14 -8 23 -18 17 -157 22 -157 5z"/>
<path d="M8091 4114 c0 -11 3 -14 6 -6 3 7 2 16 -1 19 -3 4 -6 -2 -5 -13z"/>
<path d="M7590 4109 c0 -5 5 -7 10 -4 6 3 10 8 10 11 0 2 -4 4 -10 4 -5 0 -10
-5 -10 -11z"/>
<path d="M7629 4103 c-13 -16 -12 -17 4 -4 16 13 21 21 13 21 -2 0 -10 -8 -17
-17z"/>
<path d="M7740 4090 c0 -5 5 -10 10 -10 6 0 10 -13 10 -30 0 -28 -3 -30 -37
-30 -30 0 -45 -8 -80 -42 -24 -23 -43 -51 -43 -61 0 -11 -11 -28 -25 -39 -26
-20 -33 -40 -13 -35 6 1 14 -7 16 -18 2 -11 8 -22 12 -25 4 -3 10 -19 13 -36
5 -26 3 -33 -14 -37 -12 -3 -22 -17 -25 -36 -4 -17 -10 -28 -15 -25 -5 3 -6
-2 -3 -10 9 -23 12 -20 24 25 7 27 16 39 24 36 8 -3 18 5 25 19 6 13 15 24 21
24 6 0 9 4 6 9 -3 5 1 14 10 22 8 7 20 21 26 32 10 19 8 19 -18 -2 -16 -12
-34 -35 -40 -49 l-11 -27 -4 31 c-5 33 0 37 119 86 17 7 32 19 32 26 0 7 11
18 25 24 27 12 32 27 13 46 -9 9 -8 12 8 12 16 0 17 2 4 11 -12 8 -10 9 10 7
19 -2 24 -8 22 -22 -3 -17 -1 -18 12 -7 8 7 12 19 9 27 -4 12 -1 13 18 4 17
-8 32 -8 49 0 23 9 22 10 -7 4 l-33 -6 0 46 c0 42 -2 46 -25 46 -14 0 -25 5
-25 10 0 6 -22 10 -50 10 -27 0 -50 -4 -50 -10z m88 -87 c-10 -2 -28 -2 -40 0
-13 2 -5 4 17 4 22 1 32 -1 23 -4z m-68 -13 c0 -5 -9 -10 -20 -10 -11 0 -20 5
-20 10 0 6 9 10 20 10 11 0 20 -4 20 -10z m-56 -84 c-10 -8 -21 -12 -24 -10
-5 6 21 24 34 24 6 0 1 -6 -10 -14z m41 -16 c-3 -5 -10 -10 -16 -10 -5 0 -9 5
-9 10 0 6 7 10 16 10 8 0 12 -4 9 -10z m-35 -14 c0 -3 -4 -8 -10 -11 -5 -3
-10 -1 -10 4 0 6 5 11 10 11 6 0 10 -2 10 -4z"/>
<path d="M7590 4079 c0 -5 5 -7 10 -4 6 3 10 8 10 11 0 2 -4 4 -10 4 -5 0 -10
-5 -10 -11z"/>
<path d="M7496 3587 c3 -10 9 -15 12 -12 3 3 0 11 -7 18 -10 9 -11 8 -5 -6z"/>
<path d="M7450 3575 c0 -5 5 -17 10 -25 5 -8 10 -10 10 -5 0 6 -5 17 -10 25
-5 8 -10 11 -10 5z"/>
<path d="M7454 3503 c1 -19 5 -28 10 -23 6 6 5 18 -1 32 -10 21 -10 21 -9 -9z"/>
<path d="M4280 4045 c0 -8 5 -15 10 -15 6 0 10 7 10 15 0 8 -4 15 -10 15 -5 0
-10 -7 -10 -15z"/>
<path d="M4365 3301 c-3 -5 -2 -12 3 -15 5 -3 9 1 9 9 0 17 -3 19 -12 6z"/>
<path d="M3034 2777 c-17 -7 -46 -24 -64 -38 -28 -22 -32 -28 -22 -45 11 -18
12 -17 9 6 -2 21 2 24 20 22 12 -2 37 5 55 14 30 15 31 18 13 25 -16 6 -14 8
13 8 17 1 32 6 32 11 0 13 -17 12 -56 -3z m-4 -26 c0 -10 -24 -21 -43 -21 -7
0 -3 7 7 15 22 17 36 19 36 6z"/>
<path d="M2900 2661 c0 -10 19 -25 25 -20 1 2 -3 10 -11 17 -8 7 -14 8 -14 3z"/>
<path d="M2930 2666 c0 -2 7 -9 15 -16 13 -11 14 -10 9 4 -5 14 -24 23 -24 12z"/>
<path d="M2861 2549 c-13 -39 -14 -46 -2 -33 9 10 24 64 17 64 -2 0 -9 -14
-15 -31z"/>
<path d="M2831 2524 c0 -11 3 -14 6 -6 3 7 2 16 -1 19 -3 4 -6 -2 -5 -13z"/>
<path d="M2865 2480 c3 -5 8 -10 11 -10 2 0 4 5 4 10 0 6 -5 10 -11 10 -5 0
-7 -4 -4 -10z"/>
<path d="M2847 2446 c-4 -10 -7 -25 -6 -34 0 -11 4 -9 10 7 5 13 8 29 6 35 -2
5 -6 2 -10 -8z"/>
<path d="M2872 2420 c0 -14 2 -19 5 -12 2 6 2 18 0 25 -3 6 -5 1 -5 -13z"/>
<path d="M2866 2083 c-6 -14 -5 -15 5 -6 7 7 10 15 7 18 -3 3 -9 -2 -12 -12z"/>
<path d="M2851 2050 c0 -8 4 -22 9 -30 12 -18 12 -2 0 25 -6 13 -9 15 -9 5z"/>
<path d="M3150 2040 c-8 -5 -10 -10 -5 -10 6 0 17 5 25 10 8 5 11 10 5 10 -5
0 -17 -5 -25 -10z"/>
<path d="M2970 1980 c-13 -8 -13 -10 2 -10 9 0 20 5 23 10 8 13 -5 13 -25 0z"/>
<path d="M6630 2803 c-107 -10 -245 -57 -218 -74 17 -11 107 -10 133 1 14 6 7
8 -25 5 l-45 -5 38 10 c30 8 43 7 61 -5 17 -11 46 -15 102 -14 63 2 74 4 52
11 -31 11 -39 33 -9 23 11 -3 22 -2 25 4 3 5 -5 12 -19 15 -14 4 -25 13 -25
21 0 8 -8 14 -17 13 -10 0 -34 -3 -53 -5z m-71 -27 c-7 -7 -113 -46 -124 -46
-18 1 29 24 70 36 46 13 60 16 54 10z m81 -26 c0 -5 -9 -10 -21 -10 -11 0 -17
5 -14 10 3 6 13 10 21 10 8 0 14 -4 14 -10z"/>
<path d="M6750 2781 c14 -11 30 -21 35 -21 11 0 43 19 35 21 -3 0 -12 2 -20 5
-8 2 -28 6 -45 10 l-30 6 25 -21z"/>
<path d="M6347 2715 c-9 -8 -20 -15 -25 -15 -5 0 -16 -8 -23 -17 -12 -15 -12
-16 1 -8 8 5 21 10 28 11 8 2 22 10 31 18 14 13 20 13 30 3 11 -10 13 -9 9 3
-7 21 -33 24 -51 5z"/>
<path d="M6357 2671 c-16 -10 -25 -21 -20 -24 5 -3 22 5 39 18 34 29 21 33
-19 6z"/>
<path d="M6266 2651 c5 -5 20 -12 34 -15 l25 -7 -25 15 c-28 17 -50 21 -34 7z"/>
<path d="M6285 2540 c3 -5 8 -10 11 -10 2 0 4 5 4 10 0 6 -5 10 -11 10 -5 0
-7 -4 -4 -10z"/>
<path d="M6270 2516 c0 -2 7 -7 16 -10 8 -3 12 -2 9 4 -6 10 -25 14 -25 6z"/>
<path d="M6465 2340 c3 -5 8 -10 11 -10 2 0 4 5 4 10 0 6 -5 10 -11 10 -5 0
-7 -4 -4 -10z"/>
<path d="M6526 2225 c-3 -9 -6 -22 -5 -28 0 -7 5 -1 10 12 5 13 8 26 5 28 -2
2 -6 -3 -10 -12z"/>
<path d="M6763 2073 c-13 -2 -23 -8 -23 -13 0 -5 14 -4 30 1 27 10 42 21 23
18 -5 -1 -18 -4 -30 -6z"/>
<path d="M6970 2070 c0 -5 7 -10 15 -10 8 0 15 5 15 10 0 6 -7 10 -15 10 -8 0
-15 -4 -15 -10z"/>
<path d="M7031 2054 c0 -11 3 -14 6 -6 3 7 2 16 -1 19 -3 4 -6 -2 -5 -13z"/>
<path d="M6750 2036 c0 -2 7 -6 15 -10 8 -3 15 -1 15 4 0 6 -7 10 -15 10 -8 0
-15 -2 -15 -4z"/>
<path d="M6982 2000 c-7 -12 -18 -17 -29 -13 -14 5 -13 3 3 -13 18 -18 19 -18
22 -2 3 16 14 22 35 19 4 0 7 6 7 14 0 21 -23 19 -38 -5z"/>
<path d="M6870 1990 c-8 -5 -10 -10 -5 -10 6 0 17 5 25 10 8 5 11 10 5 10 -5
0 -17 -5 -25 -10z"/>
<path d="M6915 1970 c3 -5 16 -10 28 -9 21 0 21 1 2 9 -28 12 -37 12 -30 0z"/>
<path d="M3290 2140 c0 -5 4 -10 9 -10 6 0 13 5 16 10 3 6 -1 10 -9 10 -9 0
-16 -4 -16 -10z"/>
<path d="M4335 1410 c11 -5 29 -8 40 -8 16 0 15 2 -5 8 -34 11 -60 11 -35 0z"/>
<path d="M4240 1395 c0 -13 4 -14 20 -5 11 6 20 13 20 15 0 3 -9 5 -20 5 -11
0 -20 -7 -20 -15z"/>
<path d="M5880 1036 c0 -2 8 -10 18 -17 15 -13 16 -12 3 4 -13 16 -21 21 -21
13z"/>
<path d="M5186 1001 c-23 -43 -20 -52 5 -12 11 18 18 35 15 38 -2 3 -12 -9
-20 -26z"/>
<path d="M5926 1007 c3 -10 9 -15 12 -12 3 3 0 11 -7 18 -10 9 -11 8 -5 -6z"/>
<path d="M27 103 c-25 -4 -27 -8 -27 -54 0 -48 1 -49 30 -49 30 0 30 1 30 55
0 30 -1 54 -2 54 -2 -1 -15 -4 -31 -6z"/>
</g>
</svg>
