<?xml version="1.0" standalone="no"?>
<!DOCTYPE svg PUBLIC "-//W3C//DTD SVG 20010904//EN"
 "http://www.w3.org/TR/2001/REC-SVG-20010904/DTD/svg10.dtd">
<svg version="1.0" xmlns="http://www.w3.org/2000/svg"
 width="1024.000000pt" height="1024.000000pt" viewBox="0 0 1024.000000 1024.000000"
 preserveAspectRatio="xMidYMid meet">
<metadata>
Created by potrace 1.16, written by Peter Selinger 2001-2019
</metadata>
<g transform="translate(0.000000,1024.000000) scale(0.100000,-0.100000)"
fill="#000000" stroke="none">
<path d="M5300 9450 c-118 -9 -409 -50 -557 -79 -209 -42 -262 -49 -588 -86
-22 -3 -107 -12 -190 -20 -374 -39 -508 -80 -763 -233 -419 -251 -648 -631
-712 -1182 -6 -52 -18 -149 -26 -215 -7 -66 -21 -210 -29 -320 -9 -110 -29
-317 -45 -460 -31 -277 -55 -563 -65 -760 -3 -66 -8 -160 -10 -210 -12 -218
-15 -290 -20 -450 -6 -179 -10 -219 -50 -650 -37 -401 -50 -960 -32 -1350 5
-93 12 -260 17 -370 12 -260 34 -519 60 -704 35 -253 93 -384 220 -497 141
-125 271 -189 487 -238 201 -46 698 -115 1138 -158 145 -14 946 -18 1200 -5
333 17 482 33 687 78 132 28 142 29 315 22 213 -7 240 -3 538 78 389 106 435
125 514 215 103 117 193 428 261 901 66 461 76 685 43 936 -16 123 -20 346
-13 667 1 41 2 119 2 173 -1 54 3 141 8 195 28 284 -6 1492 -56 2042 -21 228
-79 629 -114 785 -16 72 -50 227 -76 345 -56 261 -142 584 -190 717 -80 220
-223 387 -435 509 -437 249 -972 363 -1519 324z m500 -200 c190 -20 309 -48
405 -96 50 -25 79 -36 65 -25 -14 11 -30 21 -36 21 -5 0 -19 7 -30 15 -17 13
-15 13 21 4 50 -12 117 -36 172 -61 24 -10 55 -23 70 -29 26 -10 21 -13 -82
-46 -149 -48 -196 -65 -192 -70 2 -2 23 4 47 12 46 16 73 20 53 7 -9 -6 -7
-29 8 -97 74 -330 66 -433 -44 -586 -45 -64 -46 -67 -28 -83 18 -16 21 -16 51
-1 106 55 214 233 227 376 l6 57 71 -2 c39 0 85 3 102 7 l31 8 37 -93 c21 -51
46 -107 56 -125 17 -30 18 -32 1 -47 -10 -9 -21 -13 -25 -9 -4 5 -6 3 -4 -4 2
-6 -23 -35 -54 -65 -38 -35 -58 -62 -58 -76 0 -62 170 -182 258 -182 l41 0 10
-52 c6 -29 22 -109 36 -178 14 -69 25 -130 25 -136 0 -7 -15 -18 -32 -24 -26
-10 -29 -14 -14 -17 10 -3 23 0 29 6 17 17 27 13 27 -10 0 -11 5 -29 11 -41
10 -18 8 -19 -13 -14 l-23 6 23 -11 c33 -18 27 -37 -15 -49 -53 -14 -83 -38
-64 -49 8 -5 21 -7 29 -3 10 3 13 1 8 -6 -4 -7 -2 -12 3 -12 6 0 11 5 11 10 0
6 15 10 33 10 26 0 33 -4 33 -17 -2 -34 96 -645 109 -680 2 -7 0 -13 -5 -13
-6 0 -10 -7 -10 -15 0 -9 -7 -18 -15 -21 -9 -4 -15 -20 -16 -38 -1 -27 -2 -25
-10 13 -10 51 -17 61 -29 41 -14 -23 -12 -95 10 -283 20 -181 29 -318 20 -312
-3 2 -5 -90 -5 -203 0 -114 -4 -280 -9 -369 -8 -149 -8 -163 7 -163 15 0 17
-17 17 -152 0 -84 -3 -176 -6 -204 l-7 -52 -51 24 c-66 31 -76 30 -76 -5 0
-21 12 -40 50 -75 27 -25 54 -46 60 -46 7 0 10 -98 10 -297 0 -164 5 -426 11
-583 10 -263 11 -557 5 -805 -3 -106 -52 -391 -87 -510 -51 -173 -72 -231
-109 -302 -22 -41 -37 -80 -33 -86 3 -5 1 -7 -4 -4 -6 4 -23 -10 -39 -31 -15
-20 -50 -59 -78 -86 -28 -26 -42 -45 -31 -42 11 4 16 3 11 -1 -4 -4 -18 -8
-29 -8 -13 0 -21 -5 -19 -13 1 -8 -2 -11 -8 -7 -5 3 -42 -9 -82 -28 -110 -52
-130 -58 -197 -62 -71 -4 -106 -14 -190 -55 -83 -41 -385 -94 -479 -85 -85 9
-302 -9 -507 -40 -296 -45 -393 -56 -522 -58 l-128 -2 -110 52 c-60 28 -135
56 -165 62 -105 20 -274 31 -460 31 -198 0 -382 11 -574 36 -106 13 -128 20
-215 63 -53 26 -132 60 -176 76 -100 35 -109 39 -171 86 -28 22 -57 39 -65 39
-8 0 -45 -14 -84 -30 -38 -17 -72 -27 -75 -22 -14 15 -58 438 -75 717 -3 55
-10 147 -16 205 -13 140 -18 291 -25 680 -5 318 1 448 41 855 17 170 42 620
70 1245 14 302 38 604 70 867 14 111 34 315 45 452 21 270 29 348 61 596 24
187 29 215 71 355 75 255 242 485 452 625 91 60 315 174 391 198 106 34 240
57 510 87 341 37 559 66 645 85 162 35 392 69 535 78 120 8 418 6 505 -3z
m845 -310 c-3 -5 -30 -9 -58 -8 l-52 1 55 7 c30 4 56 7 58 8 2 1 0 -2 -3 -8z
m535 -2242 c0 -17 -3 -28 -7 -24 -11 10 -11 56 -1 56 4 0 8 -14 8 -32z m-17
-48 c3 -11 1 -23 -4 -26 -5 -3 -9 6 -9 20 0 31 6 34 13 6z m4 -92 c-3 -8 -6
-5 -6 6 -1 11 2 17 5 13 3 -3 4 -12 1 -19z m-524 -4461 c-12 -7 -21 -16 -20
-22 1 -5 -9 -11 -23 -12 -20 -2 -21 -1 -7 5 10 4 18 12 17 17 -1 5 7 12 17 16
29 12 40 9 16 -4z m44 -33 c-3 -3 -12 -4 -19 -1 -8 3 -5 6 6 6 11 1 17 -2 13
-5z m-42 -13 c-14 -12 -85 -34 -91 -28 -3 3 8 8 25 12 17 4 33 11 36 16 4 5
14 9 23 9 10 0 12 -3 7 -9z"/>
<path d="M5694 9198 l-19 -23 23 19 c21 18 27 26 19 26 -2 0 -12 -10 -23 -22z"/>
<path d="M6306 9111 c-4 -5 -2 -12 4 -16 5 -3 10 -3 10 2 0 4 4 1 10 -7 5 -8
11 -12 15 -9 3 3 -3 14 -14 23 -11 10 -21 13 -25 7z"/>
<path d="M6370 9079 c-11 -8 -12 -12 -2 -16 6 -2 9 -9 6 -15 -4 -6 2 -5 15 1
24 13 28 23 6 15 -8 -4 -15 -1 -15 4 0 6 10 13 23 15 19 4 19 4 2 5 -11 1 -27
-3 -35 -9z"/>
<path d="M4826 8903 c-24 -125 -16 -189 27 -212 119 -61 360 -146 432 -152 52
-5 55 12 10 74 -40 53 -129 122 -250 193 -44 26 -107 64 -141 85 -33 22 -63
39 -66 39 -4 0 -9 -12 -12 -27z"/>
<path d="M5785 8862 c-175 -62 -278 -216 -302 -449 -5 -45 -2 -58 19 -91 43
-65 182 -121 299 -122 201 -1 349 198 320 430 -15 116 -71 215 -136 240 -41
16 -145 11 -200 -8z m178 -65 c-2 -4 2 -10 10 -13 37 -14 46 -161 16 -267 -12
-44 -64 -106 -94 -111 -11 -2 -41 -25 -67 -51 -43 -42 -50 -46 -80 -40 -44 10
-88 33 -108 58 -15 18 -15 25 2 85 23 86 38 166 28 155 -5 -4 -11 -27 -15 -51
-3 -23 -13 -61 -21 -83 -7 -23 -14 -51 -15 -63 -1 -19 -2 -18 -9 4 -7 22 -8
23 -9 4 -1 -12 9 -34 21 -50 12 -16 15 -23 6 -16 -13 10 -17 10 -22 -3 -6 -15
9 -55 20 -55 2 0 0 9 -6 19 -16 32 -11 38 11 12 11 -13 23 -20 27 -16 4 4 1
10 -5 12 -7 3 -13 9 -13 15 0 6 8 4 18 -5 10 -10 21 -14 25 -11 3 3 4 -1 3
-10 -1 -8 -6 -19 -11 -23 -4 -4 -5 -2 -1 5 9 15 5 15 -28 2 -34 -13 -80 4 -97
37 -8 14 -14 47 -13 72 1 58 32 154 46 145 7 -4 8 -2 4 4 -11 17 22 83 44 89
11 3 17 9 14 14 -5 8 32 67 51 81 5 4 13 4 19 1 5 -3 6 -1 2 5 -3 6 3 16 15
22 17 10 20 9 14 -2 -3 -7 0 -6 7 3 8 10 34 22 58 27 51 12 161 11 153 -1z"/>
<path d="M5685 8659 c-4 -6 -5 -12 -2 -15 2 -3 7 2 10 11 7 17 1 20 -8 4z"/>
<path d="M5579 8420 c-5 -27 -5 -58 0 -72 5 -15 7 -14 16 5 8 16 7 29 -2 47
-7 14 -13 23 -14 20z"/>
<path d="M4241 8818 c-4 -13 -11 -55 -14 -95 l-6 -72 62 -52 c82 -69 103 -93
138 -161 34 -68 37 -135 11 -238 -17 -65 -17 -65 -50 -62 -18 1 -68 22 -110
47 -84 48 -158 72 -187 61 -17 -6 -15 -9 12 -26 54 -32 69 -83 34 -114 -30
-28 -63 -17 -84 27 -16 36 -17 41 -3 63 9 13 16 27 16 31 0 4 -10 -7 -22 -26
-41 -63 -18 -184 44 -236 22 -19 41 -25 77 -25 65 0 156 25 219 61 46 26 53
27 48 12 -4 -12 2 -28 15 -42 20 -21 22 -21 40 -5 26 23 74 179 100 321 25
138 22 228 -9 289 -24 48 -127 147 -214 205 -35 24 -64 46 -66 51 -7 17 -43 7
-51 -14z m109 -742 c0 -2 -7 -7 -16 -10 -8 -3 -12 -2 -9 4 6 10 25 14 25 6z
m-60 -36 c-8 -5 -19 -10 -25 -10 -5 0 -3 5 5 10 8 5 20 10 25 10 6 0 3 -5 -5
-10z m-70 -24 c0 -3 -4 -8 -10 -11 -5 -3 -10 -1 -10 4 0 6 5 11 10 11 6 0 10
-2 10 -4z"/>
<path d="M3681 8801 c-24 -24 -36 -79 -27 -126 9 -46 41 -82 129 -146 39 -29
106 -83 148 -121 l77 -68 25 20 c24 19 117 150 117 164 0 4 -28 20 -62 35 -73
33 -87 44 -238 169 -61 50 -120 92 -131 92 -10 0 -28 -9 -38 -19z"/>
<path d="M4785 8648 c-25 -14 -45 -34 -45 -44 0 -4 11 3 25 16 14 13 25 19 25
13 0 -16 -31 -38 -53 -38 -11 0 -22 -6 -25 -14 -3 -8 0 -11 6 -7 5 3 13 -1 16
-10 4 -9 2 -13 -5 -8 -7 4 -9 0 -5 -12 17 -59 27 -130 33 -240 3 -69 11 -131
17 -139 12 -16 79 -29 70 -13 -3 5 -12 7 -20 4 -8 -3 -23 3 -34 14 -22 22 -26
40 -10 40 6 0 10 18 10 40 0 23 5 40 11 40 7 0 9 11 5 28 -3 15 -3 21 0 15 12
-27 21 -11 34 57 11 60 11 74 -1 97 -13 25 -14 23 -20 -53 l-5 -79 -2 82 c-1
45 -6 85 -12 88 -17 10 -11 35 8 34 10 0 12 -3 5 -6 -7 -2 -13 -9 -13 -14 0
-6 4 -8 9 -5 5 4 12 0 14 -6 3 -7 6 -1 6 14 1 32 8 37 41 27 14 -4 21 -8 15
-8 -5 -1 -3 -6 5 -11 12 -7 15 -33 15 -127 0 -65 -4 -126 -9 -135 -5 -12 -4
-18 4 -18 6 0 14 9 17 20 3 12 12 19 22 18 11 -2 15 3 13 17 -2 16 -1 17 7 6
7 -11 10 -8 14 15 4 28 4 28 6 3 0 -17 -8 -36 -24 -50 -13 -13 -25 -34 -25
-46 0 -13 -4 -23 -10 -23 -5 0 -10 -7 -10 -15 0 -8 5 -15 10 -15 6 0 10 7 10
15 0 8 5 15 11 15 5 0 8 4 4 9 -6 11 13 26 22 18 6 -7 -59 -104 -116 -172 -43
-52 -51 -84 -26 -105 22 -19 45 -5 125 75 134 131 161 236 106 400 -36 105
-69 161 -109 182 -39 20 -134 26 -162 11z m35 -58 c0 -8 -42 -22 -48 -15 -2 2
2 10 9 18 14 14 39 12 39 -3z m-40 -41 c0 -4 -7 -6 -15 -3 -8 4 -15 10 -15 15
0 4 7 6 15 3 8 -4 15 -10 15 -15z m210 -41 c0 -5 -4 -8 -10 -8 -5 0 -10 10
-10 23 0 18 2 19 10 7 5 -8 10 -18 10 -22z m-201 -5 c6 -12 5 -22 -3 -29 -10
-9 -13 -5 -13 17 0 34 3 36 16 12z m-2 -95 c-3 -8 -6 -5 -6 6 -1 11 2 17 5 13
3 -3 4 -12 1 -19z m210 -40 c-3 -7 -5 -2 -5 12 0 14 2 19 5 13 2 -7 2 -19 0
-25z m-63 -33 c3 -8 1 -15 -4 -15 -6 0 -10 7 -10 15 0 8 2 15 4 15 2 0 6 -7
10 -15z m-157 -37 c-3 -8 -6 -5 -6 6 -1 11 2 17 5 13 3 -3 4 -12 1 -19z"/>
<path d="M3460 8554 c-206 -51 -230 -73 -319 -288 -47 -112 -71 -198 -71 -250
0 -49 29 -66 137 -78 102 -12 329 3 408 26 71 22 126 79 132 139 5 39 2 49
-20 71 -31 31 -28 31 -321 11 -121 -8 -221 -13 -224 -10 -7 7 22 77 75 185
l48 95 104 30 c87 25 105 34 117 58 17 31 17 31 -66 11z"/>
<path d="M4840 8530 c0 -16 2 -30 4 -30 2 0 6 14 8 30 3 17 1 30 -4 30 -4 0
-8 -13 -8 -30z"/>
<path d="M4877 8208 c-4 -12 -4 -24 -2 -27 3 -2 5 2 5 10 0 12 2 12 10 -1 14
-22 18 -8 5 18 l-12 23 -6 -23z"/>
<path d="M4876 8153 c-6 -14 -5 -15 5 -6 7 7 10 15 7 18 -3 3 -9 -2 -12 -12z"/>
<path d="M5790 8015 c-58 -7 -175 -18 -260 -24 -85 -6 -216 -15 -290 -20 -403
-30 -471 -32 -525 -20 -66 15 -84 9 -78 -25 l5 -26 -99 0 c-55 0 -169 -6 -254
-14 -85 -8 -224 -17 -309 -21 -488 -18 -793 -54 -864 -100 -34 -23 -80 -117
-71 -146 7 -22 8 -22 199 -16 105 3 290 13 411 21 214 14 456 26 950 47 132 5
256 12 275 14 37 4 232 17 530 36 232 14 620 58 703 80 51 13 72 47 58 92 -13
39 -61 87 -111 112 -46 23 -139 27 -270 10z"/>
<path d="M5879 7622 c-24 -16 -63 -51 -87 -78 -24 -27 -36 -38 -28 -24 18 28
21 44 6 35 -5 -3 -7 0 -4 8 16 42 -89 46 -167 7 -40 -21 -105 -119 -96 -145 4
-8 -7 -20 -30 -30 -34 -17 -35 -19 -18 -31 76 -56 255 -2 367 110 l53 52 23
-27 c24 -30 29 -44 10 -33 -7 4 1 -6 19 -22 41 -39 50 -86 28 -144 -35 -95
-55 -176 -49 -202 7 -35 41 -78 61 -78 23 0 101 85 109 117 3 16 16 56 29 89
40 103 49 179 31 257 -28 118 -77 167 -168 167 -31 0 -57 -8 -89 -28z m-311
-219 c-10 -2 -26 -2 -35 0 -10 3 -2 5 17 5 19 0 27 -2 18 -5z"/>
<path d="M6911 7636 l-24 -13 29 -11 c16 -6 23 -11 17 -11 -13 -1 -18 -33 -7
-43 3 -3 14 -4 24 -1 15 4 18 11 14 28 -4 18 0 24 21 29 15 4 29 5 32 3 2 -3
-8 -7 -22 -11 -31 -8 -32 -21 -2 -31 l22 -7 -24 -7 c-14 -3 -26 -12 -29 -20
-3 -9 3 -9 26 3 17 9 41 16 54 16 20 0 19 3 -10 17 -33 16 -34 16 -11 28 16 9
18 14 8 18 -10 4 -11 8 -3 14 20 14 -89 13 -115 -1z"/>
<path d="M6358 7583 c-45 -48 -51 -60 -105 -207 -24 -67 -57 -143 -74 -171
l-31 -49 22 -18 c19 -16 25 -16 48 -4 54 29 62 42 96 156 18 63 50 154 70 202
54 131 45 164 -26 91z"/>
<path d="M6865 7610 c11 -5 27 -9 35 -9 9 0 8 4 -5 9 -11 5 -27 9 -35 9 -9 0
-8 -4 5 -9z"/>
<path d="M5503 7604 c3 -6 -1 -23 -9 -39 -8 -16 -13 -33 -10 -39 2 -6 5 -3 5
7 1 9 5 17 10 17 14 0 21 44 9 55 -7 7 -9 7 -5 -1z"/>
<path d="M5462 7530 c0 -14 2 -19 5 -12 2 6 2 18 0 25 -3 6 -5 1 -5 -13z"/>
<path d="M5451 7460 l0 -45 14 34 c16 37 20 65 6 42 -7 -11 -9 -11 -14 0 -3 8
-6 -6 -6 -31z"/>
<path d="M3776 7452 c-31 -60 -79 -306 -111 -572 -8 -74 -18 -145 -21 -157 -3
-15 0 -23 9 -23 25 0 49 26 56 60 4 19 12 34 17 33 5 0 62 -7 127 -13 132 -14
201 -6 292 34 83 37 122 78 145 153 l20 65 -26 126 c-21 102 -23 126 -12 133
10 7 10 9 -3 9 -8 0 -24 19 -35 42 l-20 41 -22 -35 c-14 -22 -22 -52 -22 -79
0 -59 -27 -235 -39 -258 -6 -10 -27 -26 -48 -35 -21 -9 -46 -21 -55 -26 -10
-6 -22 -10 -26 -10 -5 0 -12 71 -15 158 -9 272 -46 368 -149 379 -44 5 -47 4
-62 -25z m153 -242 c14 -144 14 -370 1 -370 -13 0 -28 30 -43 92 -10 39 -12
83 -6 168 19 285 30 309 48 110z m-162 -42 c-3 -8 -6 -5 -6 6 -1 11 2 17 5 13
3 -3 4 -12 1 -19z m-8 -80 c-13 -25 -11 -36 9 -41 11 -3 8 -5 -9 -6 -26 -1
-26 -1 -15 50 7 35 12 45 17 32 4 -10 3 -26 -2 -35z"/>
<path d="M5827 7473 c-4 -3 -7 -11 -7 -17 0 -6 5 -5 12 2 6 6 9 14 7 17 -3 3
-9 2 -12 -2z"/>
<path d="M4950 7378 c-69 -4 -208 -12 -310 -18 -203 -11 -250 -18 -228 -31 9
-6 6 -9 -12 -9 -36 0 -54 -15 -46 -36 6 -16 24 -17 254 -11 173 4 287 12 382
27 74 12 158 24 187 27 l51 6 6 -79 c4 -44 8 -97 10 -119 l4 -40 -16 33 c-9
18 -23 32 -34 32 -20 0 -23 -26 -19 -160 3 -102 15 -135 55 -154 50 -24 115
-31 121 -14 3 7 -9 68 -26 133 -33 128 -59 275 -59 341 0 68 -15 79 -112 79
-46 1 -139 -3 -208 -7z m163 -5 c-7 -2 -21 -2 -30 0 -10 3 -4 5 12 5 17 0 24
-2 18 -5z m-80 -10 c-7 -2 -19 -2 -25 0 -7 3 -2 5 12 5 14 0 19 -2 13 -5z
m-303 -23 c-8 -5 -51 -9 -95 -8 l-80 2 85 6 c47 3 90 7 95 8 6 1 3 -3 -5 -8z
m78 3 c-10 -2 -28 -2 -40 0 -13 2 -5 4 17 4 22 1 32 -1 23 -4z m69 1 c-3 -3
-12 -4 -19 -1 -8 3 -5 6 6 6 11 1 17 -2 13 -5z"/>
<path d="M2963 7354 c-26 -40 -53 -176 -60 -301 -5 -92 -3 -120 11 -156 22
-57 38 -71 111 -93 33 -10 61 -19 63 -20 2 -1 -4 -29 -12 -62 -9 -33 -16 -69
-16 -81 0 -28 26 -27 44 2 17 27 86 219 122 341 23 81 31 95 86 153 48 49 68
63 90 63 31 0 68 -16 80 -34 18 -26 7 -182 -22 -326 -16 -82 -30 -156 -30
-165 0 -18 36 -20 43 -2 4 9 6 8 6 -2 1 -9 8 -6 21 9 60 69 116 436 77 509
-13 26 -61 45 -153 62 -75 13 -203 -2 -250 -30 -23 -14 -34 -16 -38 -8 -3 7
-3 1 -1 -13 22 -119 24 -159 11 -230 -8 -41 -15 -67 -15 -58 -1 9 -20 45 -42
79 -42 63 -82 150 -93 204 -3 17 0 65 7 108 13 73 13 77 -4 77 -10 0 -26 -12
-36 -26z m597 -163 c5 -11 9 -50 9 -88 l-2 -68 -8 74 c-5 40 -14 80 -20 87 -8
10 -8 14 -1 14 6 0 16 -9 22 -19z m-587 -258 c-5 -12 -3 -14 7 -8 8 5 11 4 7
-2 -8 -13 17 -36 28 -25 5 4 5 1 1 -5 -4 -7 -4 -13 1 -14 23 -2 43 -8 60 -18
16 -9 16 -10 1 -11 -9 0 -20 5 -23 10 -4 6 -10 8 -15 5 -14 -9 -79 54 -77 75
1 10 5 17 9 14 4 -3 4 -12 1 -21z"/>
<path d="M7035 7292 c4 -33 1 -50 -15 -72 -12 -16 -20 -44 -20 -67 0 -54 18
-155 29 -162 5 -3 12 -53 17 -111 5 -58 10 -91 12 -75 2 17 8 35 14 40 7 7 9
0 6 -21 -2 -17 1 -31 6 -31 6 0 17 -2 25 -4 23 -6 16 227 -9 326 -11 43 -25
84 -31 92 -7 7 -18 39 -25 71 -11 46 -13 49 -9 14z m12 -84 c-3 -8 -6 -5 -6 6
-1 11 2 17 5 13 3 -3 4 -12 1 -19z"/>
<path d="M5495 7268 c15 -49 37 -86 82 -137 43 -49 45 -55 33 -75 -36 -56 -70
-123 -70 -139 0 -9 15 -27 33 -38 27 -17 44 -20 104 -16 98 5 105 13 101 106
l-3 75 42 31 c23 16 44 36 47 42 3 8 -16 23 -50 39 -32 15 -69 43 -91 70 -43
51 -78 64 -171 64 -61 0 -63 -1 -57 -22z"/>
<path d="M7020 6871 c0 -6 5 -13 10 -16 6 -3 10 1 10 9 0 9 -4 16 -10 16 -5 0
-10 -4 -10 -9z"/>
<path d="M6005 6835 c-77 -8 -268 -23 -425 -35 -157 -11 -366 -27 -465 -35
-99 -8 -295 -19 -435 -25 -140 -7 -309 -15 -375 -19 -119 -8 -119 -8 -35 -10
77 -1 83 -3 66 -16 -11 -8 -15 -15 -9 -15 7 0 14 4 17 9 3 5 20 11 38 13 18 3
42 9 53 13 18 8 19 8 4 -7 -9 -9 -36 -22 -60 -28 -24 -7 -48 -15 -54 -20 -11
-8 -28 -12 -180 -41 -167 -31 -298 -47 -319 -39 -26 9 73 23 100 14 16 -5 16
-4 4 5 -12 9 -11 11 10 12 19 0 14 4 -19 14 -24 8 -48 20 -52 27 -9 14 -139
16 -194 3 -16 -4 -138 -10 -270 -15 -132 -4 -252 -12 -266 -18 -50 -20 -132
-135 -144 -202 -5 -28 -2 -41 14 -59 l21 -24 122 11 c68 6 209 20 313 31 105
11 309 27 455 36 283 16 623 41 680 50 19 2 168 23 330 45 162 22 369 51 460
65 366 55 474 65 690 65 115 0 220 4 233 9 30 12 50 62 41 107 -3 18 -19 45
-35 60 -27 26 -38 29 -102 30 -40 1 -135 -4 -212 -11z m-1602 -122 c-7 -2 -21
-2 -30 0 -10 3 -4 5 12 5 17 0 24 -2 18 -5z m-588 -93 l20 -9 -20 0 c-11 0
-29 4 -40 9 l-20 9 20 0 c11 0 29 -4 40 -9z m85 0 c20 -6 21 -8 5 -8 -11 0
-31 4 -45 8 -20 6 -21 8 -5 8 11 0 31 -4 45 -8z m-33 -16 c-3 -3 -12 -4 -19
-1 -8 3 -5 6 6 6 11 1 17 -2 13 -5z m-74 -41 c-7 -2 -19 -2 -25 0 -7 3 -2 5
12 5 14 0 19 -2 13 -5z m-80 -10 c-7 -2 -19 -2 -25 0 -7 3 -2 5 12 5 14 0 19
-2 13 -5z"/>
<path d="M7140 6760 c0 -5 5 -10 11 -10 5 0 7 5 4 10 -3 6 -8 10 -11 10 -2 0
-4 -4 -4 -10z"/>
<path d="M4248 6693 c7 -3 16 -2 19 1 4 3 -2 6 -13 5 -11 0 -14 -3 -6 -6z"/>
<path d="M6363 6605 c-12 -9 -36 -41 -53 -73 -45 -85 -137 -149 -248 -173 -52
-11 -53 -11 -135 36 -115 65 -151 71 -311 50 -135 -17 -246 -42 -246 -55 0 -4
-9 -10 -20 -13 -11 -3 -20 -10 -20 -16 0 -6 19 1 42 15 38 24 54 28 158 32
125 5 210 -9 191 -32 -8 -9 -1 -11 27 -9 l37 2 -35 -10 c-19 -5 -73 -17 -120
-25 -47 -8 -96 -17 -110 -19 -14 -3 -43 -7 -64 -9 -22 -3 -42 -9 -45 -14 -3
-6 -20 -12 -38 -15 -31 -5 -33 -3 -40 31 l-7 37 -8 -39 c-5 -22 -6 -44 -4 -50
2 -6 5 0 6 14 l2 25 7 -25 c4 -15 3 -28 -3 -32 -7 -5 -4 -8 7 -8 10 0 15 -5
12 -10 -4 -6 -11 -8 -16 -5 -5 3 -6 -1 -3 -9 10 -25 49 -26 256 -6 616 61 733
83 799 148 66 68 102 218 61 255 -23 21 -51 22 -79 2z m-515 -322 c-10 -2 -28
-2 -40 0 -13 2 -5 4 17 4 22 1 32 -1 23 -4z m-95 -10 c-7 -2 -19 -2 -25 0 -7
3 -2 5 12 5 14 0 19 -2 13 -5z m-120 -10 c-7 -2 -19 -2 -25 0 -7 3 -2 5 12 5
14 0 19 -2 13 -5z m-86 -9 c-3 -3 -12 -4 -19 -1 -8 3 -5 6 6 6 11 1 17 -2 13
-5z m-64 -11 c-7 -2 -19 -2 -25 0 -7 3 -2 5 12 5 14 0 19 -2 13 -5z"/>
<path d="M5765 6501 c-49 -8 -80 -17 -68 -19 12 -2 60 4 106 12 112 21 232 20
277 -2 47 -23 91 -63 83 -75 -3 -6 -1 -7 5 -3 20 12 -18 53 -72 81 -44 22 -62
25 -145 24 -53 -1 -136 -9 -186 -18z"/>
<path d="M5623 6473 c9 -2 25 -2 35 0 9 3 1 5 -18 5 -19 0 -27 -2 -17 -5z"/>
<path d="M5553 6463 c9 -2 23 -2 30 0 6 3 -1 5 -18 5 -16 0 -22 -2 -12 -5z"/>
<path d="M5498 6453 c7 -3 16 -2 19 1 4 3 -2 6 -13 5 -11 0 -14 -3 -6 -6z"/>
<path d="M4845 6378 c-22 -11 -55 -34 -72 -51 -33 -31 -44 -54 -20 -42 6 4 4
0 -5 -8 -19 -15 -26 -73 -8 -62 6 3 10 4 10 1 0 -2 3 -13 6 -23 5 -15 4 -16
-6 -3 -9 12 -10 9 -5 -15 9 -42 21 -52 44 -38 11 7 43 15 71 19 48 6 52 5 47
-12 -11 -36 -26 -179 -33 -314 -4 -85 -10 -125 -14 -109 -4 15 -4 96 0 180 6
105 5 157 -2 164 -7 7 -9 -1 -4 -25 3 -19 1 -42 -5 -50 -8 -12 -9 -10 -4 8 4
13 2 22 -4 22 -6 0 -11 -10 -11 -22 0 -19 -2 -20 -10 -8 -7 11 -10 5 -10 -25
0 -56 -26 -200 -47 -263 l-18 -54 24 -19 c33 -27 111 -26 136 1 20 23 30 114
41 383 6 143 7 147 28 147 50 0 60 21 61 119 0 79 -3 92 -20 105 -30 23 -121
20 -170 -6z m30 -27 c3 -5 2 -12 -3 -15 -5 -3 -9 1 -9 9 0 17 3 19 12 6z m-25
-6 c0 -2 -10 -9 -22 -15 -22 -11 -22 -10 -4 4 21 17 26 19 26 11z m-79 -98
c-10 -9 -11 -8 -5 6 3 10 9 15 12 12 3 -3 0 -11 -7 -18z m118 -23 l66 5 -77
-13 c-42 -8 -80 -16 -85 -19 -5 -3 -14 3 -21 14 -7 10 -8 19 -3 19 6 0 13 -4
16 -10 3 -5 14 -10 23 -10 16 1 16 1 0 11 -10 5 -18 15 -18 20 0 6 7 3 16 -6
13 -13 30 -15 83 -11z m-42 -296 c-3 -8 -6 -5 -6 6 -1 11 2 17 5 13 3 -3 4
-12 1 -19z"/>
<path d="M5688 6383 c7 -3 16 -2 19 1 4 3 -2 6 -13 5 -11 0 -14 -3 -6 -6z"/>
<path d="M5347 6343 c-4 -3 -7 -14 -7 -23 0 -21 26 -45 34 -32 3 6 -1 15 -9
22 -8 7 -15 17 -15 23 0 7 4 7 12 -1 7 -7 16 -12 21 -12 5 0 2 7 -7 15 -16 17
-20 18 -29 8z"/>
<path d="M4430 6309 c-41 -5 -152 -11 -246 -13 -95 -2 -181 -9 -191 -15 -43
-22 -72 -212 -73 -470 l0 -143 40 -40 c50 -50 81 -49 92 2 5 19 11 119 15 221
l6 186 136 6 c75 4 189 16 255 27 65 12 121 18 124 15 3 -3 1 -5 -5 -5 -6 0
-13 -44 -17 -102 -4 -56 -13 -115 -20 -133 -12 -28 -12 -65 0 -122 3 -17 12
-23 40 -25 35 -3 36 -4 39 -48 1 -25 -3 -48 -9 -52 -6 -4 2 -6 17 -5 15 1 32
9 38 17 8 12 9 11 7 -5 -3 -13 -11 -20 -26 -19 -12 0 -22 -3 -22 -8 0 -5 -4
-6 -10 -3 -5 3 -10 -1 -10 -10 0 -35 86 11 96 52 6 24 0 214 -11 328 -23 242
-30 293 -41 316 l-13 27 -153 -3 c-133 -2 -143 -1 -78 7 41 5 105 7 142 6 37
-2 62 -1 55 3 -24 13 -103 16 -177 8z m-122 -36 c-15 -2 -42 -2 -60 0 -18 2
-6 4 27 4 33 0 48 -2 33 -4z m-125 -10 c-7 -2 -19 -2 -25 0 -7 3 -2 5 12 5 14
0 19 -2 13 -5z m493 -585 c4 -7 3 -8 -5 -4 -8 6 -10 1 -5 -17 3 -14 1 -34 -5
-44 -8 -15 -11 -10 -12 27 -1 38 -2 41 -9 20 -7 -22 -8 -22 -9 -4 -2 33 29 48
45 22z m24 -43 c0 -8 -4 -15 -10 -15 -5 0 -10 7 -10 15 0 8 5 15 10 15 6 0 10
-7 10 -15z"/>
<path d="M3113 6265 c-3 -10 1 -49 10 -89 59 -252 117 -570 117 -633 0 -17 5
-44 10 -58 8 -21 14 -25 33 -19 41 12 55 34 68 107 15 89 7 289 -17 422 -10
52 -15 97 -13 99 2 2 100 8 218 14 117 6 215 13 218 16 8 8 -28 81 -54 108
-32 34 -45 36 -346 43 -215 6 -238 5 -244 -10z m181 -312 c10 -85 16 -195 14
-258 l-3 -110 -17 85 c-10 47 -33 158 -51 248 -31 147 -33 164 -18 172 9 5 25
10 37 10 20 0 22 -10 38 -147z"/>
<path d="M6405 6173 c-31 -3 -274 -31 -460 -52 -93 -11 -199 -23 -235 -27 -36
-4 -75 -10 -86 -15 -27 -10 -44 -72 -51 -192 l-6 -89 24 4 c21 3 25 11 38 80
l14 78 36 6 c20 3 81 14 136 24 129 24 276 43 283 36 3 -4 -5 -6 -18 -6 -13 0
-20 -3 -17 -7 8 -8 220 -42 263 -43 26 0 33 -6 50 -42 21 -47 59 -62 87 -34
26 26 33 178 11 257 -5 17 -33 26 -69 22z"/>
<path d="M4821 6094 c0 -11 3 -14 6 -6 3 7 2 16 -1 19 -3 4 -6 -2 -5 -13z"/>
<path d="M5065 6063 c-49 -9 -77 -46 -90 -118 -21 -112 -39 -280 -32 -298 10
-28 69 -30 159 -8 45 12 96 27 111 33 28 11 67 71 67 103 0 8 -23 69 -51 136
-64 149 -85 168 -164 152z m-6 -228 c17 -47 38 -96 46 -109 16 -23 15 -24 -17
-34 -18 -6 -51 -13 -74 -17 l-41 -6 25 125 c14 69 26 126 28 126 1 0 16 -38
33 -85z"/>
<path d="M7100 5927 c-34 -58 -37 -67 -9 -33 l23 30 7 -25 c5 -18 7 -12 8 24
1 26 0 47 -1 47 -2 0 -14 -19 -28 -43z"/>
<path d="M6393 5828 c-35 -38 -68 -118 -60 -148 3 -11 2 -22 -2 -24 -24 -15
-285 -35 -1001 -76 -96 -6 -213 -15 -260 -20 -125 -15 -348 -31 -710 -50 -107
-6 -262 -15 -345 -20 -82 -6 -269 -15 -415 -20 -287 -11 -430 -34 -527 -82
-80 -40 -124 -128 -70 -141 54 -14 268 -18 362 -7 55 6 323 16 595 21 930 17
1165 32 1715 109 285 40 349 47 575 65 107 8 212 19 233 25 l37 11 0 69 c0 38
-7 89 -14 112 -8 24 -20 74 -26 113 -17 104 -35 117 -87 63z m40 16 c-7 -3 -9
-13 -6 -22 5 -13 3 -14 -7 -5 -14 13 -5 33 13 32 9 0 9 -2 0 -5z m-22 -51 c13
-17 13 -17 -5 -3 -18 14 -19 13 -13 -2 7 -19 -8 -34 -18 -18 -4 6 -1 17 5 25
15 19 15 19 31 -2z m4 -83 c-11 -5 -33 -8 -50 -8 -29 1 -29 1 5 8 49 10 69 10
45 0z"/>
<path d="M6002 5309 c-136 -21 -237 -83 -272 -169 -8 -19 -19 -40 -26 -47 -6
-6 -14 -38 -17 -70 -4 -32 -18 -93 -31 -137 -48 -150 -44 -201 16 -233 48 -25
306 -31 454 -9 142 21 144 21 144 -6 1 -32 36 -107 54 -114 20 -8 73 30 96 68
16 27 16 32 -3 121 -12 56 -20 136 -21 205 l-1 113 -35 -6 c-48 -9 -72 -35
-114 -120 -33 -68 -38 -73 -78 -83 -42 -11 -226 -35 -361 -47 -67 -7 -68 -6
-58 13 16 29 51 181 51 220 0 17 1 32 3 33 10 3 293 20 430 25 l167 7 0 34 c0
72 -50 147 -125 185 -47 24 -174 32 -273 17z"/>
<path d="M4650 5221 c0 -11 25 -21 50 -21 10 0 20 -7 24 -15 7 -19 -35 -65
-60 -66 -11 0 -13 -3 -6 -6 6 -2 12 -9 12 -15 0 -6 -7 -8 -15 -4 -8 3 -15 1
-15 -4 0 -5 -7 -7 -15 -4 -10 4 -15 0 -15 -10 0 -13 4 -15 19 -7 10 6 21 8 24
5 8 -9 58 27 51 37 -3 5 2 6 11 2 10 -3 21 0 26 8 5 8 9 10 9 4 0 -5 -5 -17
-10 -25 -5 -8 -10 -11 -10 -6 0 5 -8 3 -17 -5 -31 -24 -63 -40 -72 -34 -5 3
-12 -2 -15 -11 -9 -23 -7 -31 4 -14 5 8 11 12 14 9 3 -3 -8 -17 -24 -33 -29
-26 -30 -27 -30 -6 0 14 4 19 12 14 8 -5 9 -2 5 9 -4 10 -1 17 6 17 7 0 4 6
-6 14 -15 12 -16 20 -8 57 13 56 13 62 1 54 -5 -3 -10 0 -11 7 0 7 -7 -2 -16
-21 -37 -87 -24 -328 21 -370 43 -40 154 -45 178 -8 4 7 8 77 8 156 0 154 -17
233 -61 280 -20 21 -69 29 -69 12z m-63 -113 c-3 -7 -5 -2 -5 12 0 14 2 19 5
13 2 -7 2 -19 0 -25z"/>
<path d="M4603 5203 c-4 -9 -1 -19 5 -21 7 -2 12 -11 12 -20 0 -14 2 -14 9 -3
6 9 4 19 -5 28 -18 19 -18 27 2 19 8 -3 12 -2 9 4 -9 15 -25 12 -32 -7z"/>
<path d="M5032 5213 c10 -2 32 -23 49 -46 18 -23 48 -56 68 -74 20 -18 32 -32
27 -33 -6 0 -21 10 -34 23 -22 21 -24 21 -20 2 2 -13 -3 -20 -17 -22 l-20 -3
20 9 c14 7 -1 10 -55 10 -51 0 -69 -3 -55 -9 18 -8 17 -9 -7 -9 -14 -1 -29 5
-31 12 -3 6 -6 3 -7 -8 -1 -16 -4 -15 -16 10 -14 29 -15 29 -11 -28 4 -64 24
-100 75 -132 18 -11 31 -29 32 -40 0 -11 -20 -58 -43 -105 -34 -66 -48 -84
-63 -83 -10 2 -36 6 -57 9 -75 12 -197 -61 -197 -119 0 -12 7 -35 15 -51 15
-28 14 -32 -5 -58 -29 -39 -41 -76 -34 -103 5 -22 8 -21 86 34 146 101 343
284 401 371 47 71 92 240 82 308 -10 65 -82 124 -165 135 -19 2 -27 2 -18 0z"/>
<path d="M4958 5203 c6 -2 18 -2 25 0 6 3 1 5 -13 5 -14 0 -19 -2 -12 -5z"/>
<path d="M4137 5175 c-25 -25 -31 -60 -17 -112 22 -90 152 -253 213 -268 13
-4 39 -5 58 -3 l34 3 6 70 c8 90 -12 186 -47 232 -49 65 -210 116 -247 78z
m133 -240 c14 -19 14 -19 -2 -6 -10 7 -18 18 -18 24 0 6 1 8 3 6 1 -2 9 -13
17 -24z"/>
<path d="M3105 5166 c-5 -2 -30 -10 -54 -17 l-44 -13 7 -185 c4 -102 12 -191
17 -197 8 -10 123 -34 162 -34 8 0 17 12 20 28 7 34 -15 164 -37 216 -19 45
-20 60 -5 51 19 -12 120 -33 247 -50 148 -21 172 -16 172 40 0 41 -20 93 -44
118 -9 9 -34 21 -54 26 -36 9 -366 23 -387 17z m-7 -357 c-3 -8 -7 -3 -11 10
-4 17 -3 21 5 13 5 -5 8 -16 6 -23z m37 -27 c-3 -3 -11 0 -18 7 -9 10 -8 11 6
5 10 -3 15 -9 12 -12z"/>
<path d="M4630 5131 c0 -7 -5 -9 -12 -5 -7 5 -8 3 -3 -5 5 -9 10 -10 18 -2 6
6 8 14 4 18 -4 3 -7 1 -7 -6z"/>
<path d="M4998 5103 c23 -2 61 -2 85 0 23 2 4 4 -43 4 -47 0 -66 -2 -42 -4z"/>
<path d="M5401 4845 c-116 -54 -414 -394 -510 -582 -52 -104 -6 -97 81 11 73
92 257 265 408 383 113 89 140 119 140 154 0 53 -47 67 -119 34z"/>
<path d="M3817 4718 c-25 -15 -46 -39 -62 -73 -29 -58 -51 -154 -42 -178 10
-27 68 -50 139 -55 98 -7 112 5 127 107 14 96 3 150 -39 193 -35 34 -71 36
-123 6z m16 -247 c4 0 15 -5 25 -10 15 -9 15 -10 -3 -11 -19 0 -95 45 -95 56
0 3 15 -3 33 -14 17 -12 35 -21 40 -21z"/>
<path d="M6820 4344 c-8 -3 -65 -28 -126 -55 -61 -27 -115 -49 -121 -49 -6 0
-16 -7 -23 -15 -9 -11 -17 -12 -31 -4 -12 6 -46 6 -101 0 -46 -5 -150 -12
-233 -16 -267 -10 -551 -29 -635 -40 -32 -5 -33 -4 -10 6 14 6 43 13 65 15 53
7 57 14 9 15 -38 1 -38 2 -9 9 20 5 24 8 10 9 -31 2 3 20 40 22 29 1 29 1 5 9
l-25 7 30 12 c16 7 51 17 77 22 26 6 48 12 48 14 0 6 -104 -7 -110 -14 -3 -3
-57 -7 -120 -9 -63 -2 -164 -10 -225 -18 -60 -8 -152 -19 -203 -26 -58 -7 -88
-14 -80 -19 8 -6 -1 -9 -25 -9 -26 0 -36 -4 -31 -11 5 -8 -1 -10 -18 -7 -15 3
-25 0 -25 -7 0 -7 9 -10 21 -8 19 4 19 3 -4 -17 -14 -12 -18 -18 -10 -14 13 7
13 5 1 -9 -12 -16 -9 -17 39 -17 30 0 51 -2 48 -5 -12 -13 -852 -35 -862 -24
-2 2 -11 31 -20 63 -23 78 -56 110 -129 126 -73 15 -159 -6 -234 -55 l-53 -35
-317 2 -318 3 -55 -29 c-71 -36 -118 -80 -142 -133 -22 -51 -13 -79 30 -90 15
-4 243 -7 507 -7 357 0 535 4 695 17 118 9 409 21 645 27 237 6 592 17 790 26
198 8 475 19 615 24 370 15 447 29 595 112 110 61 163 135 128 176 -18 21 -76
36 -103 26z m-1703 -130 c-3 -3 -12 -4 -19 -1 -8 3 -5 6 6 6 11 1 17 -2 13 -5z
m-67 -24 c18 -12 2 -12 -25 0 -13 6 -15 9 -5 9 8 0 22 -4 30 -9z m443 -37 c-7
-2 -19 -2 -25 0 -7 3 -2 5 12 5 14 0 19 -2 13 -5z m-395 -10 c-10 -2 -28 -2
-40 0 -13 2 -5 4 17 4 22 1 32 -1 23 -4z m320 0 c-10 -2 -28 -2 -40 0 -13 2
-5 4 17 4 22 1 32 -1 23 -4z m-95 -10 c-7 -2 -21 -2 -30 0 -10 3 -4 5 12 5 17
0 24 -2 18 -5z m-115 -10 c-10 -2 -26 -2 -35 0 -10 3 -2 5 17 5 19 0 27 -2 18
-5z"/>
<path d="M4936 4221 c-4 -5 8 -7 26 -4 44 7 49 13 10 13 -17 0 -33 -4 -36 -9z"/>
<path d="M5673 4223 c9 -2 23 -2 30 0 6 3 -1 5 -18 5 -16 0 -22 -2 -12 -5z"/>
<path d="M5895 3924 c-16 -2 -79 -9 -140 -15 -60 -6 -129 -15 -153 -21 -41
-10 -42 -11 -28 -33 l15 -22 -122 -7 c-153 -8 -316 -46 -423 -96 -111 -53
-107 -40 -102 -423 3 -293 4 -307 25 -334 26 -34 67 -36 112 -3 23 16 31 29
31 52 0 16 9 76 21 131 27 132 23 246 -12 332 -13 33 -29 60 -36 60 -14 0 -39
23 -32 30 3 2 96 9 207 15 196 10 317 25 435 55 74 19 93 19 150 -1 64 -22 70
-38 62 -148 -11 -160 -46 -430 -70 -542 -21 -102 -7 -118 52 -56 89 94 124
251 138 614 3 92 11 195 16 230 23 148 24 143 -6 166 -27 22 -58 25 -140 16z
m-62 -41 c-13 -2 -35 -2 -50 0 -16 2 -5 4 22 4 28 0 40 -2 28 -4z m-136 -10
c-20 -2 -52 -2 -70 0 -17 2 0 4 38 4 39 0 53 -2 32 -4z m-670 -308 c-11 -10
-16 -56 -22 -184 -4 -93 -4 -174 -1 -179 4 -6 2 -13 -2 -16 -5 -3 -12 81 -16
186 -8 201 -7 207 37 208 16 0 17 -2 4 -15z m73 -503 c0 -4 -10 -13 -22 -21
-23 -14 -23 -14 -4 8 20 22 26 25 26 13z"/>
<path d="M4238 3833 c-10 -2 -18 -9 -18 -14 0 -11 13 -12 103 -9 43 1 67 -2
67 -9 0 -6 3 -10 8 -10 4 1 16 1 27 0 44 -3 -14 -27 -122 -49 -59 -13 -125
-28 -146 -33 -23 -6 -44 -6 -54 -1 -14 8 -9 15 27 41 29 21 50 29 63 25 17 -5
18 -4 6 9 -12 13 -21 10 -74 -24 -33 -21 -59 -43 -57 -49 1 -5 -1 -9 -6 -7
-21 6 -51 -44 -70 -118 -11 -44 -19 -81 -17 -83 10 -11 41 19 66 63 34 61 22
57 249 75 254 20 473 41 481 46 24 15 0 35 -98 81 -67 32 -133 56 -174 62 -64
11 -227 13 -261 4z m247 -33 c-3 -5 -14 -10 -23 -9 -14 0 -13 2 3 9 27 11 27
11 20 0z m132 -66 c-3 -3 -12 -4 -19 -1 -8 3 -5 6 6 6 11 1 17 -2 13 -5z
m-459 -51 c-16 -2 -40 -2 -55 0 -16 2 -3 4 27 4 30 0 43 -2 28 -4z"/>
<path d="M7123 3740 c1 -73 3 -88 10 -64 6 19 5 57 -1 95 l-10 64 1 -95z"/>
<path d="M2937 3789 c-8 -13 -17 -50 -21 -82 l-6 -58 32 -14 c64 -26 191 -36
416 -33 122 2 222 0 222 -3 0 -4 -6 -12 -14 -18 -21 -18 -36 -98 -47 -256 -5
-77 -14 -167 -20 -200 -13 -73 -96 -269 -184 -430 -93 -171 -93 -177 -23 -156
31 10 64 35 127 100 94 95 150 187 176 287 16 62 40 317 51 547 6 119 5 137
-9 143 -8 3 -18 12 -21 20 -4 12 -1 11 18 -1 21 -14 24 -14 30 0 13 35 6 122
-11 136 -12 11 -77 16 -267 21 -138 3 -292 10 -342 14 -89 6 -92 6 -107 -17z"/>
<path d="M4115 3720 c-3 -5 -1 -10 4 -10 6 0 11 5 11 10 0 6 -2 10 -4 10 -3 0
-8 -4 -11 -10z"/>
<path d="M6193 3575 c-59 -25 -63 -64 -17 -157 13 -26 24 -49 24 -51 0 -3 -13
-7 -30 -10 -19 -4 -37 -18 -50 -39 -22 -36 -110 -272 -110 -294 0 -24 37 2 67
48 19 28 64 64 148 119 194 126 191 123 205 174 21 75 -8 159 -69 201 -41 28
-115 32 -168 9z"/>
<path d="M5065 3560 c3 -5 8 -10 11 -10 2 0 4 5 4 10 0 6 -5 10 -11 10 -5 0
-7 -4 -4 -10z"/>
<path d="M4527 3470 c-66 -12 -66 -28 -1 -35 33 -3 66 -7 74 -8 8 -1 16 -10
18 -20 3 -13 -4 -17 -25 -18 l-28 -1 30 -7 c29 -7 28 -8 -16 -15 -26 -5 -61
-17 -78 -27 -34 -20 -54 -58 -41 -73 5 -5 2 -15 -6 -23 -8 -8 -14 -21 -14 -29
0 -19 49 -18 228 2 120 14 142 19 142 34 0 51 -24 188 -36 208 -13 20 -21 22
-112 21 -53 -1 -114 -5 -135 -9z"/>
<path d="M2993 3329 c-48 -14 -98 -70 -119 -131 -22 -67 -26 -290 -6 -358 20
-63 74 -115 137 -128 115 -25 257 47 317 161 18 34 23 59 23 127 0 76 -3 92
-32 151 -71 145 -196 214 -320 178z m62 -77 c-3 -3 -11 0 -18 7 -9 10 -8 11 6
5 10 -3 15 -9 12 -12z m111 -77 c16 -11 33 -18 37 -17 5 1 6 -2 2 -7 -3 -6 2
-22 12 -37 24 -37 23 -116 -4 -152 -28 -37 -71 -61 -127 -68 -40 -6 -50 -4
-71 16 -14 13 -33 47 -42 76 -14 45 -15 61 -4 108 7 30 22 67 33 81 19 25 26
27 78 23 34 -2 69 -12 86 -23z"/>
<path d="M5345 3317 c-79 -26 -142 -74 -171 -130 -18 -33 -54 -172 -54 -208 0
-48 59 -147 112 -189 94 -75 246 -99 388 -62 55 15 67 23 85 52 18 31 20 52
20 185 0 210 -29 286 -129 337 -51 27 -190 35 -251 15z m259 -159 c11 -42 6
-168 -8 -202 -29 -69 -147 -86 -249 -37 -81 39 -107 112 -68 189 34 67 48 72
192 72 123 0 127 -1 133 -22z"/>
<path d="M3970 3162 c0 -15 -131 -226 -185 -297 -29 -38 -91 -112 -139 -162
-84 -91 -136 -172 -136 -213 0 -15 7 -20 28 -20 34 0 348 210 383 257 13 18
26 32 29 33 3 0 19 -21 35 -47 55 -85 61 -87 216 -69 74 8 177 18 229 21 178
11 323 27 349 36 45 17 71 49 71 87 0 49 -64 160 -97 169 -27 6 -204 -20 -458
-68 -82 -15 -165 -29 -184 -31 -33 -3 -35 -1 -43 37 -14 69 -81 275 -90 275
-4 0 -8 -4 -8 -8z"/>
<path d="M6165 2960 c-27 -5 -69 -9 -93 -9 -49 -1 -95 -31 -47 -31 15 0 24 4
20 10 -3 6 1 10 9 10 8 0 16 -10 18 -22 2 -16 10 -24 28 -25 l25 -2 -25 8
c-17 6 -20 9 -7 10 9 1 26 6 37 13 10 7 23 9 27 5 4 -5 1 -12 -7 -17 -20 -13
-8 -12 25 0 14 5 24 14 20 19 -6 12 31 25 45 16 6 -3 7 1 4 9 -3 9 -11 15 -18
15 -6 -1 -33 -5 -61 -9z"/>
<path d="M6240 2881 c-58 -25 -127 -59 -154 -74 -27 -15 -60 -30 -73 -33 -22
-6 -24 -4 -18 22 l5 29 -12 -30 c-10 -26 -12 -27 -18 -10 -5 15 -9 7 -14 -28
-9 -57 1 -72 51 -86 43 -12 104 -2 198 34 38 14 75 23 83 20 7 -2 11 -1 8 4
-3 4 13 16 35 26 51 23 59 39 59 114 0 57 -2 61 -22 60 -13 0 -70 -22 -128
-48z"/>
<path d="M6006 2893 c17 -12 34 -9 34 7 0 4 -11 7 -25 6 -22 -1 -23 -2 -9 -13z"/>
<path d="M5977 2856 c-4 -10 -7 -25 -6 -34 0 -11 4 -9 10 7 5 13 8 29 6 35 -2
5 -6 2 -10 -8z"/>
<path d="M6080 2860 c0 -5 6 -10 13 -11 6 0 3 -4 -8 -9 -13 -6 -15 -9 -5 -9
29 -1 40 14 20 27 -12 7 -20 8 -20 2z"/>
<path d="M5125 2752 c-61 -34 -193 -133 -199 -148 -11 -28 -6 -62 11 -79 21
-21 78 -15 173 17 123 43 194 146 139 204 -27 29 -79 32 -124 6z"/>
<path d="M5573 2681 c-44 -21 -83 -46 -87 -56 -20 -52 5 -86 75 -99 50 -9 117
6 242 54 121 47 129 60 77 111 l-30 30 -41 -23 c-23 -13 -60 -42 -83 -65 -23
-23 -55 -44 -71 -48 l-30 -6 33 15 c18 9 31 20 27 26 -3 5 0 10 8 10 16 0 19
29 4 48 -7 9 -6 11 7 6 11 -4 16 -14 13 -25 -6 -22 8 -26 16 -5 6 14 -51 66
-70 66 -5 0 -45 -18 -90 -39z m117 -26 c0 -5 -5 -3 -10 5 -5 8 -10 20 -10 25
0 6 5 3 10 -5 5 -8 10 -19 10 -25z m-25 5 c3 -5 2 -10 -4 -10 -5 0 -13 5 -16
10 -3 6 -2 10 4 10 5 0 13 -4 16 -10z"/>
<path d="M6670 2421 c-6 -12 -16 -18 -22 -15 -7 4 -8 3 -4 -4 4 -7 11 -12 16
-12 11 0 34 40 27 47 -3 2 -10 -5 -17 -16z"/>
<path d="M6636 2363 c-6 -14 -5 -15 5 -6 7 7 10 15 7 18 -3 3 -9 -2 -12 -12z"/>
<path d="M27 103 c-25 -4 -27 -8 -27 -54 0 -48 1 -49 30 -49 30 0 30 1 30 55
0 30 -1 54 -2 54 -2 -1 -15 -4 -31 -6z"/>
</g>
</svg>
