<?xml version="1.0" standalone="no"?>
<!DOCTYPE svg PUBLIC "-//W3C//DTD SVG 20010904//EN"
 "http://www.w3.org/TR/2001/REC-SVG-20010904/DTD/svg10.dtd">
<svg version="1.0" xmlns="http://www.w3.org/2000/svg"
 width="1024.000000pt" height="1024.000000pt" viewBox="0 0 1024.000000 1024.000000"
 preserveAspectRatio="xMidYMid meet">
<metadata>
Created by potrace 1.16, written by Peter Selinger 2001-2019
</metadata>
<g transform="translate(0.000000,1024.000000) scale(0.100000,-0.100000)"
fill="#000000" stroke="none">
<path d="M4678 9219 c-381 -29 -847 -150 -1088 -281 -184 -101 -365 -258 -487
-424 -92 -125 -196 -343 -253 -529 -101 -326 -132 -754 -84 -1155 29 -244 84
-454 184 -698 77 -189 161 -344 395 -732 145 -240 211 -358 281 -504 74 -154
76 -171 38 -376 -4 -21 -11 -25 -47 -28 -68 -5 -283 -52 -407 -89 -245 -73
-374 -141 -510 -270 -88 -82 -187 -221 -214 -299 -20 -55 -45 -197 -53 -293
-11 -124 40 -608 82 -786 8 -33 25 -112 39 -175 67 -308 207 -843 282 -1075
50 -155 160 -445 205 -543 123 -267 297 -449 476 -498 65 -18 132 -19 1473
-19 1134 0 1417 3 1465 13 210 47 382 202 494 446 57 123 193 535 285 861 140
501 175 635 221 843 71 330 135 898 109 972 -7 19 -22 76 -33 125 -50 217
-206 442 -383 556 -194 124 -326 170 -719 249 l-56 11 -16 87 c-10 48 -17 104
-17 124 0 77 59 199 234 483 208 340 243 397 296 490 161 281 261 544 335 874
66 298 87 577 66 901 -21 327 -72 554 -180 798 -93 212 -251 413 -429 547
-279 210 -734 348 -1305 394 -146 12 -520 12 -679 0z m802 -213 c63 -8 153
-20 200 -26 140 -17 377 -70 483 -107 207 -72 361 -167 508 -313 140 -139 255
-355 318 -593 11 -43 23 -82 26 -87 4 -6 -19 -10 -59 -10 -36 0 -66 4 -66 10
0 19 -99 180 -141 230 -55 66 -153 144 -216 173 -46 21 -59 22 -323 22 -211
-1 -308 -5 -415 -19 -122 -17 -209 -19 -675 -19 -353 0 -564 4 -620 11 -47 7
-224 28 -395 47 -308 36 -312 36 -589 29 l-278 -7 12 24 c22 41 104 132 108
119 3 -7 15 -1 32 15 18 17 26 33 22 44 -5 14 -3 14 11 3 9 -8 22 -12 29 -9 8
4 7 6 -4 6 -10 1 -18 5 -18 9 0 10 63 70 115 108 83 62 266 164 293 164 5 0
26 9 48 19 74 36 285 99 424 127 61 12 300 39 420 48 119 8 639 -4 750 -18z
m-1971 -823 c-31 -29 -48 -52 -44 -61 3 -10 -26 -45 -83 -101 -49 -47 -97
-101 -106 -118 l-17 -33 -118 0 -119 0 60 148 c33 81 62 153 65 160 4 8 34 12
102 13 53 0 139 8 191 18 52 10 100 19 107 20 7 0 -10 -20 -38 -46z m824 -57
c157 -40 220 -82 334 -220 89 -107 174 -262 224 -406 29 -84 33 -110 37 -232
4 -128 -7 -227 -35 -308 -9 -25 -19 26 -27 134 -23 316 -197 637 -448 829
-195 149 -390 177 -583 83 -65 -32 -206 -163 -278 -259 -104 -138 -137 -228
-137 -375 0 -108 30 -214 81 -288 35 -51 112 -120 168 -150 l41 -21 -128 -6
-127 -5 -33 36 c-54 61 -119 173 -143 246 -22 66 -22 74 -11 195 6 69 21 159
32 199 38 134 141 316 219 385 53 46 162 113 231 140 152 60 398 70 583 23z
m1894 13 c123 -16 302 -67 361 -102 30 -18 67 -48 83 -69 49 -60 105 -187 135
-303 27 -101 29 -124 29 -280 -1 -166 -2 -172 -32 -251 -33 -88 -57 -128 -116
-193 l-37 -41 -101 7 -102 6 35 18 c68 35 162 161 197 265 95 284 5 550 -254
744 -240 180 -508 160 -734 -55 -182 -173 -304 -415 -361 -720 l-23 -119 -13
44 c-38 125 -26 272 36 460 52 159 112 258 227 377 79 81 116 109 198 151 126
63 295 85 472 61z m-1006 -34 l286 0 -54 -60 c-30 -33 -71 -86 -90 -118 l-36
-57 -238 0 c-218 1 -239 2 -239 18 -1 9 -13 33 -28 53 -80 106 -91 120 -94
117 -2 -1 -12 5 -23 15 -11 9 -29 23 -40 32 -18 13 -5 14 125 7 80 -4 274 -7
431 -7z m-1071 -221 c0 -2 -30 -3 -67 -3 -47 1 -59 3 -38 8 29 6 105 3 105 -5z
m1963 9 c-7 -2 -19 -2 -25 0 -7 3 -2 5 12 5 14 0 19 -2 13 -5z m-65 -10 c-10
-2 -26 -2 -35 0 -10 3 -2 5 17 5 19 0 27 -2 18 -5z m-1883 -13 c-3 -5 -14 -10
-23 -9 -14 0 -13 2 3 9 27 11 27 11 20 0z m64 1 c10 -6 3 -12 -23 -21 -21 -7
-40 -9 -43 -6 -4 3 8 9 26 12 23 5 29 9 19 15 -7 5 -8 9 -3 9 6 0 16 -4 24 -9z
m1884 2 c-7 -2 -21 -2 -30 0 -10 3 -4 5 12 5 17 0 24 -2 18 -5z m73 -4 c4 -7
21 -9 40 -6 21 4 32 2 29 -4 -4 -5 -31 -8 -61 -7 -52 2 -68 11 -41 21 20 8 25
8 33 -4z m-2171 -9 c-39 -7 -39 -7 -7 -9 18 0 31 -5 28 -10 -5 -8 48 -21 101
-24 12 -1 19 -4 17 -6 -6 -6 69 -56 79 -53 5 1 6 -2 2 -8 -4 -6 -1 -17 5 -25
7 -9 16 -30 20 -48 l8 -32 1 37 c1 23 -5 40 -14 45 -14 8 -14 11 0 28 14 20
15 20 35 -5 15 -19 19 -39 18 -80 -1 -50 -1 -52 -8 -20 -8 38 -9 34 -14 -48
-4 -56 -12 -75 -25 -53 -6 9 -9 8 -13 -7 -4 -14 0 -19 15 -18 14 1 24 12 33
41 l13 40 -6 -40 c-3 -22 -10 -46 -15 -52 -14 -18 -69 -44 -79 -37 -5 3 -6 -2
-3 -11 4 -10 13 -14 23 -10 12 5 13 3 5 -5 -9 -9 -17 -9 -33 -1 -24 13 -26 9
-9 -18 9 -15 8 -22 -3 -33 -8 -8 -21 -15 -29 -16 -8 -1 -47 -9 -86 -19 -50
-13 -69 -22 -66 -31 3 -11 0 -12 -17 -3 -11 7 -21 16 -21 21 0 5 -15 8 -34 6
-21 -1 -32 2 -29 7 4 6 -3 8 -15 5 -12 -4 -20 -2 -16 3 3 5 -5 9 -17 9 -22 0
-22 0 -3 16 16 13 16 15 2 10 -21 -6 -22 -2 -8 25 9 15 5 26 -17 55 -21 28
-28 51 -33 107 -5 60 -7 67 -14 42 -15 -60 -16 -61 -26 -45 -6 8 -10 20 -10
25 0 6 5 3 10 -5 7 -11 10 -11 10 -2 0 20 -31 62 -46 62 -8 0 -14 -4 -14 -10
0 -19 -2 -25 -12 -37 -7 -9 -7 -13 0 -13 14 0 33 25 25 33 -3 4 -1 7 5 7 15 0
22 -14 14 -27 -11 -16 -49 -25 -57 -13 -3 6 -11 7 -17 4 -13 -8 -6 3 41 68 24
33 37 44 43 35 5 -9 8 -7 8 5 0 9 4 20 10 23 6 3 8 -2 5 -12 -3 -10 0 -8 6 5
7 12 16 22 21 22 5 0 6 4 3 10 -3 6 1 7 9 4 9 -3 16 -2 16 4 0 5 7 12 14 15
10 4 13 1 9 -9 -3 -7 -8 -14 -13 -14 -4 0 -14 -18 -23 -40 -8 -22 -14 -40 -13
-40 2 0 17 22 34 50 33 54 82 90 122 90 23 1 24 2 7 14 -18 14 -18 14 0 19 10
3 34 5 53 4 l35 0 -40 -7z m2008 3 c-7 -2 -19 -2 -25 0 -7 3 -2 5 12 5 14 0
19 -2 13 -5z m-1930 -10 c-7 -2 -19 -2 -25 0 -7 3 -2 5 12 5 14 0 19 -2 13 -5z
m1885 -8 c-3 -13 -68 -36 -68 -24 0 5 11 11 25 15 14 3 22 11 19 16 -4 5 1 8
10 6 10 -1 16 -7 14 -13z m136 9 c9 -3 16 -12 16 -20 0 -8 5 -14 11 -14 5 0 8
4 5 9 -3 5 1 12 9 15 12 4 13 2 6 -12 -7 -14 -5 -21 8 -29 23 -15 36 -57 15
-49 -8 3 0 -13 18 -35 31 -39 33 -45 34 -135 1 -55 -2 -92 -7 -88 -8 5 -13
-13 -12 -44 1 -7 -5 -11 -12 -8 -7 2 -21 -5 -32 -16 -18 -21 -18 -21 5 -16 12
4 22 3 22 -2 0 -12 -39 -20 -46 -9 -3 5 -11 9 -17 9 -8 0 -8 -3 2 -9 10 -7 10
-10 1 -16 -7 -4 -15 -3 -19 3 -4 6 -24 6 -62 -1 -49 -9 -61 -7 -107 14 -29 13
-55 33 -62 47 -9 21 -13 22 -28 11 -14 -11 -15 -11 -5 0 8 10 6 25 -13 65 -38
82 -28 182 23 233 51 51 76 63 132 64 31 1 46 4 34 6 -34 6 -28 21 10 26 17 2
37 5 44 5 6 1 18 -1 27 -4z m171 -4 c3 -5 1 -10 -4 -10 -6 0 -11 5 -11 10 0 6
2 10 4 10 3 0 8 -4 11 -10z m98 -75 c64 -63 120 -143 142 -204 13 -38 13 -44
-1 -58 -13 -14 -14 -13 -8 12 5 20 4 26 -5 21 -6 -4 -11 -20 -11 -36 0 -16 -3
-31 -7 -33 -5 -3 -8 12 -8 33 0 21 3 36 8 33 10 -6 9 9 -3 27 -8 12 -10 12
-10 1 0 -11 -3 -11 -15 -1 -18 15 -20 40 -3 40 7 0 2 7 -11 16 -16 12 -22 23
-18 40 2 14 1 27 -3 29 -5 3 -7 -15 -7 -40 2 -37 0 -42 -10 -29 -6 9 -9 22 -7
29 3 7 0 16 -6 20 -6 4 -8 15 -5 25 7 22 -30 87 -39 71 -4 -6 -13 -11 -19 -11
-8 0 -7 3 2 9 19 12 6 41 -18 41 -11 0 -23 5 -26 10 -3 6 2 10 13 10 10 0 44
-25 75 -55z m-1888 -138 c42 -55 73 -107 70 -114 -2 -8 -1 -12 4 -9 11 7 53
-89 79 -179 28 -95 52 -222 61 -312 6 -63 5 -72 -6 -57 -10 13 -13 14 -13 3 0
-12 -37 -14 -242 -11 -522 5 -505 4 -583 36 -38 16 -86 40 -105 53 -57 38
-131 115 -126 130 3 8 2 11 -4 8 -21 -13 -60 105 -60 184 0 42 3 52 15 48 11
-5 12 -2 4 16 -7 16 -4 36 9 72 17 47 32 60 40 35 2 -6 -2 -9 -8 -8 -7 2 -18
-17 -26 -42 -17 -55 -17 -60 0 -37 12 16 14 12 13 -34 -1 -38 3 -53 16 -61 9
-5 17 -14 17 -20 0 -6 8 -20 17 -30 14 -16 15 -24 5 -50 -8 -21 -8 -36 -1 -47
8 -13 9 -11 4 7 -4 13 -2 22 5 22 6 0 8 5 5 10 -12 19 9 10 37 -17 24 -22 31
-25 38 -13 6 10 12 11 22 3 7 -6 24 -14 37 -18 22 -7 80 -62 81 -77 0 -5 -7
-8 -15 -8 -23 0 -21 -70 3 -71 9 -1 24 -3 32 -4 8 -1 26 -3 40 -4 20 -1 22 -3
10 -11 -14 -9 -6 -15 15 -10 6 2 69 4 140 6 135 4 355 -13 355 -28 0 -4 -10
-8 -22 -8 -12 0 -19 -3 -15 -6 3 -4 48 -9 100 -11 l94 -5 7 26 c4 15 11 24 16
21 6 -3 10 1 10 10 0 9 -4 14 -9 11 -5 -4 -6 4 -3 16 5 19 7 20 10 6 2 -10 8
-18 13 -18 5 0 9 -10 10 -22 0 -13 3 -17 6 -10 3 7 -2 27 -10 45 -8 18 -15 49
-15 69 0 20 -3 56 -7 80 -6 35 -9 39 -16 23 -6 -15 -8 -11 -8 18 -1 20 -5 37
-11 37 -5 0 -10 9 -10 21 0 16 -4 19 -21 14 -19 -6 -21 -4 -16 14 3 11 1 23
-3 26 -4 3 -6 15 -3 28 4 21 4 21 -12 -3 -13 -20 -15 -21 -12 -5 3 11 8 29 13
39 5 14 4 17 -4 12 -12 -7 -17 29 -14 98 1 26 0 27 -17 12 -10 -9 -22 -16 -27
-16 -5 0 -2 4 6 10 12 8 12 10 -3 15 -13 6 -14 11 -6 27 8 15 8 23 -2 32 -6 6
-9 6 -6 1 3 -6 2 -17 -4 -25 -7 -12 -9 -10 -9 8 0 29 -32 100 -38 83 -2 -6 2
-18 8 -27 7 -8 10 -17 7 -20 -11 -11 -28 37 -21 59 6 20 6 21 -12 7 -17 -14
-18 -14 -6 2 8 10 9 19 3 22 -5 3 -11 3 -14 -1 -2 -5 -2 -2 0 5 1 7 -16 31
-40 54 l-42 41 47 -38 c26 -20 82 -83 123 -138z m1835 153 c0 -5 -8 -10 -17
-10 -15 0 -16 2 -3 10 19 12 20 12 20 0z m-2083 -16 c-3 -3 -12 -4 -19 -1 -8
3 -5 6 6 6 11 1 17 -2 13 -5z m2026 -11 c-7 -2 -19 -2 -25 0 -7 3 -2 5 12 5
14 0 19 -2 13 -5z m-50 -21 c-5 -19 31 -42 65 -42 12 0 10 -4 -8 -14 -23 -12
-27 -10 -52 18 -31 35 -34 42 -15 49 6 3 13 6 14 6 0 1 -1 -7 -4 -17z m-1079
-32 c59 0 77 -3 73 -12 -3 -7 -22 -49 -41 -93 -19 -44 -46 -118 -60 -165 -14
-47 -25 -76 -25 -64 -1 12 -28 88 -62 170 -34 82 -64 155 -67 163 -4 11 5 12
49 8 30 -4 89 -7 133 -7z m1216 0 c0 -5 -4 -10 -10 -10 -5 0 -10 5 -10 10 0 6
5 10 10 10 6 0 10 -4 10 -10z m692 -50 c14 -116 29 -420 26 -520 l-3 -105 -30
3 c-16 2 -31 5 -32 6 -2 1 2 17 7 35 11 38 1 138 -10 106 -4 -11 -4 -31 0 -45
7 -25 -2 -86 -15 -98 -7 -7 -25 17 -25 33 0 6 4 4 9 -4 7 -10 10 -10 16 -1 4
7 2 16 -4 20 -9 5 -8 36 4 131 18 135 13 224 -23 402 -10 48 -16 90 -13 93 3
3 23 4 46 2 l40 -3 7 -55z m-3896 -12 c-51 -116 -82 -322 -66 -444 10 -76 45
-180 85 -252 14 -25 25 -46 25 -48 0 -2 -54 -4 -119 -4 l-119 0 -8 118 c-6
104 8 516 23 640 l5 42 99 0 98 0 -23 -52z m2651 10 c-3 -7 -5 -2 -5 12 0 14
2 19 5 13 2 -7 2 -19 0 -25z m-103 -13 c-4 -8 -11 -15 -16 -15 -6 0 -5 6 2 15
7 8 14 15 16 15 2 0 1 -7 -2 -15z m-1274 -25 c0 -5 -2 -10 -4 -10 -3 0 -8 5
-11 10 -3 6 -1 10 4 10 6 0 11 -4 11 -10z m1283 -5 c-3 -9 -8 -14 -10 -11 -3
3 -2 9 2 15 9 16 15 13 8 -4z m-29 -3 c3 -5 -1 -9 -9 -9 -8 0 -12 4 -9 9 3 4
7 8 9 8 2 0 6 -4 9 -8z m-2034 -32 c0 -5 -5 -10 -11 -10 -5 0 -7 5 -4 10 3 6
8 10 11 10 2 0 4 -4 4 -10z m2025 -39 c-1 -14 -7 -27 -13 -29 -14 -4 -15 3 -3
27 7 13 6 18 -4 18 -7 0 -11 -6 -8 -14 3 -8 -2 -13 -12 -13 -17 0 -17 -1 0
-20 10 -11 15 -23 10 -28 -4 -4 -10 -1 -12 6 -3 6 -9 9 -14 6 -6 -3 -5 -11 2
-20 17 -20 3 -30 -16 -11 -13 14 -13 17 0 31 9 8 14 19 13 23 -3 14 25 62 33
57 5 -3 9 1 9 8 1 9 3 9 9 -2 5 -8 8 -26 6 -39z m144 -14 c1 -5 -3 -5 -9 -2
-5 3 -10 16 -9 28 0 21 1 21 9 2 5 -11 9 -24 9 -28z m-1502 1 c-3 -8 -6 -5 -6
6 -1 11 2 17 5 13 3 -3 4 -12 1 -19z m-524 -1 c3 -8 -1 -14 -8 -14 -7 0 -11 6
-8 14 3 7 6 13 8 13 2 0 5 -6 8 -13z m2763 -64 c13 -84 -34 -278 -57 -241 -7
10 -9 10 -9 1 0 -7 -9 -13 -19 -13 -11 0 -22 -4 -26 -9 -3 -5 -20 -12 -38 -16
-17 -4 -70 -22 -117 -40 -47 -18 -134 -45 -195 -60 -60 -14 -118 -30 -127 -36
-27 -14 -43 -12 -29 5 6 7 41 21 78 30 38 9 83 21 102 26 19 5 39 6 44 3 6 -3
7 -1 3 5 -6 11 21 21 104 37 47 10 112 36 105 43 -6 6 35 52 47 52 4 0 8 -4 8
-10 0 -5 -6 -10 -14 -10 -19 0 -27 -13 -17 -28 5 -9 16 -5 39 14 17 15 29 31
26 35 -3 5 -10 7 -15 4 -5 -4 -9 -2 -9 4 0 19 23 24 35 7 11 -15 13 -15 19 -1
4 11 2 14 -6 9 -11 -7 -8 24 7 71 l7 20 -17 -20 c-17 -20 -17 -20 -10 5 4 14
7 44 6 67 -1 35 1 42 14 37 10 -4 15 0 15 10 0 9 5 16 10 16 6 0 10 7 10 15 0
35 19 11 26 -32z m-2733 13 c14 -20 14 -25 2 -30 -9 -3 -12 0 -9 8 3 8 1 17
-5 21 -10 6 -16 25 -7 25 2 0 11 -11 19 -24z m-28 -25 c-3 -6 -11 -11 -16 -11
-5 0 -4 6 3 14 14 16 24 13 13 -3z m-105 -51 c27 -27 25 -40 -5 -40 -21 0 -25
5 -25 30 0 35 3 37 30 10z m1906 -57 c3 -26 3 -45 0 -42 -3 2 -8 25 -11 49 -6
49 -15 66 -15 29 0 -18 -3 -20 -9 -10 -6 9 -5 21 2 32 15 25 25 7 33 -58z
m334 27 c0 -5 -2 -10 -4 -10 -3 0 -8 5 -11 10 -3 6 -1 10 4 10 6 0 11 -4 11
-10z m199 1 c10 -6 3 -9 -22 -8 -20 0 -34 5 -31 9 7 11 35 10 53 -1z m-1969
-11 c0 -5 -4 -10 -10 -10 -5 0 -10 5 -10 10 0 6 5 10 10 10 6 0 10 -4 10 -10z
m1391 -42 c-11 -17 -11 -22 1 -29 9 -6 15 -1 18 19 11 54 21 -38 14 -125 -6
-69 -4 -83 8 -83 8 0 27 -13 43 -30 l29 -30 -42 0 c-35 0 -40 -3 -35 -17 4
-11 8 -12 11 -5 2 7 13 12 25 12 18 0 19 -2 7 -10 -18 -12 -4 -14 80 -10 77 3
56 -10 -32 -20 l-73 -7 80 -3 c104 -3 56 -15 -97 -24 l-108 -7 0 43 c1 118 55
377 74 358 7 -7 7 -17 -3 -32z m869 -22 c0 -8 -4 -18 -10 -21 -5 -3 -10 3 -10
14 0 12 5 21 10 21 6 0 10 -6 10 -14z m-1760 -138 c0 -49 -5 -47 -13 5 -3 20
-2 37 4 37 5 0 9 -19 9 -42z m1687 36 c-3 -3 -12 -4 -19 -1 -8 3 -5 6 6 6 11
1 17 -2 13 -5z m-414 -94 c-3 -11 -7 -20 -9 -20 -2 0 -4 9 -4 20 0 11 4 20 9
20 5 0 7 -9 4 -20z m71 5 c-7 -16 -24 -21 -24 -6 0 8 7 13 27 20 1 1 0 -6 -3
-14z m93 9 c-3 -3 -12 -4 -19 -1 -8 3 -5 6 6 6 11 1 17 -2 13 -5z m332 -17
c-2 -2 -22 -16 -44 -31 l-40 -28 40 35 c22 20 42 34 44 31 2 -2 2 -5 0 -7z
m-1782 -19 c-3 -8 -6 -5 -6 6 -1 11 2 17 5 13 3 -3 4 -12 1 -19z m-606 -8 c29
0 39 -4 39 -16 0 -12 -9 -14 -42 -12 -38 3 -43 6 -45 28 -1 14 0 19 3 13 3 -7
23 -13 45 -13z m1774 -19 c-29 -7 -28 -7 16 -14 25 -3 56 -3 69 0 16 4 21 3
16 -5 -4 -7 -20 -12 -36 -12 -15 0 -30 -4 -32 -9 -5 -13 -68 -25 -68 -12 0 5
12 12 28 14 23 3 22 4 -8 6 -19 1 -42 6 -50 12 -11 8 -9 9 10 3 22 -6 23 -5
11 10 -12 14 -9 16 30 15 40 -1 41 -2 14 -8z m-92 -28 c-7 -2 -21 -2 -30 0
-10 3 -4 5 12 5 17 0 24 -2 18 -5z m520 -30 c-7 -2 -19 -2 -25 0 -7 3 -2 5 12
5 14 0 19 -2 13 -5z m-1129 -43 l26 -40 -56 0 -56 0 26 31 c14 17 26 35 26 40
0 16 7 10 34 -31z m1006 20 c-30 -5 -84 -8 -120 -7 l-65 1 75 6 c41 4 95 7
120 7 44 0 44 0 -10 -7z m-335 -202 c308 -7 703 -11 878 -10 174 1 317 -1 317
-6 0 -5 13 -7 29 -4 l29 4 -9 -48 c-5 -26 -14 -64 -19 -83 -5 -20 -10 -51 -10
-70 l0 -34 -152 6 c-83 4 -227 7 -320 7 -92 0 -168 4 -168 8 0 4 16 6 35 4 21
-3 35 0 35 7 0 6 8 11 18 12 12 0 10 3 -7 10 -33 13 -115 -15 -141 -48 -27
-35 -25 -57 8 -89 l27 -26 -150 5 c-82 3 -141 1 -130 -3 16 -6 12 -9 -20 -13
-22 -2 10 -3 70 -2 73 2 95 0 65 -5 -30 -5 11 -8 120 -9 176 -1 511 -17 596
-27 l51 -6 -28 -66 c-16 -37 -29 -77 -29 -89 0 -22 -1 -22 -137 -17 -76 3
-153 7 -170 9 -18 2 -33 0 -33 -6 0 -5 -9 -9 -20 -9 -11 0 -20 6 -20 13 0 9
-2 9 -8 -1 -7 -10 -37 -10 -148 -2 -207 16 -440 39 -609 60 -83 11 -230 24
-325 30 -96 5 -206 12 -245 15 -534 42 -877 45 -1245 10 -146 -14 -366 -35
-490 -47 -124 -11 -243 -22 -265 -25 l-40 -4 -48 153 c-44 144 -86 313 -87
350 0 20 9 20 864 37 319 6 582 14 585 16 9 9 786 5 1346 -7z m322 -364 c-3
-3 -12 -4 -19 -1 -8 3 -5 6 6 6 11 1 17 -2 13 -5z m-862 -283 c146 -13 565
-41 651 -42 l69 -2 -85 -13 c-303 -46 -860 -110 -1550 -179 -424 -43 -521 -54
-835 -102 -66 -10 -124 -18 -129 -18 -11 0 -170 285 -163 292 7 7 392 52 567
67 137 12 306 14 770 11 327 -2 645 -8 705 -14z m1524 -168 c-18 -32 -39 -69
-47 -83 -37 -58 -92 -164 -92 -174 0 -11 -152 -32 -380 -54 -51 -4 -54 -4 -41
12 10 12 17 14 25 6 5 -5 15 -10 21 -10 5 0 4 4 -4 9 -10 6 -3 12 24 21 26 9
33 15 24 20 -9 6 -2 14 24 26 35 17 62 49 31 37 -7 -3 -14 -8 -14 -12 0 -3
-24 -19 -52 -36 -28 -16 -65 -43 -82 -59 -30 -28 -34 -29 -256 -51 -124 -13
-286 -28 -360 -34 -182 -16 -367 -36 -595 -66 -104 -13 -248 -31 -320 -40
-214 -25 -814 -117 -895 -135 -19 -5 -60 -12 -92 -15 -57 -7 -65 -2 -68 40 -1
6 -11 21 -23 34 l-22 24 33 -17 c17 -9 33 -21 33 -26 1 -6 2 -14 3 -19 2 -14
16 -26 16 -13 0 6 9 14 21 17 16 5 18 10 8 21 -6 8 -10 14 -8 15 2 0 36 11 74
24 l70 24 -133 -1 c-102 -1 -136 2 -147 13 -16 17 -87 140 -82 145 6 6 390 64
426 64 22 0 135 14 251 30 117 17 305 39 419 50 249 23 620 70 871 110 102 16
263 39 359 50 96 11 238 32 315 46 172 31 327 50 426 53 41 1 77 4 79 7 2 2
46 4 98 4 l93 0 -31 -57z m-249 -448 c0 -2 -13 -26 -30 -52 -16 -26 -30 -53
-30 -60 0 -7 -19 -17 -42 -23 -24 -6 -106 -42 -183 -80 -77 -37 -186 -85 -242
-106 -90 -33 -103 -40 -103 -61 0 -25 3 -26 65 -23 119 5 290 44 344 78 l26
17 -26 -35 c-14 -19 -35 -53 -47 -76 -19 -37 -25 -42 -79 -53 -32 -7 -128 -30
-213 -51 -85 -21 -207 -43 -270 -50 -192 -18 -263 -30 -280 -45 -9 -8 -20 -12
-24 -8 -4 4 8 20 26 36 18 16 24 24 13 19 -32 -16 -61 -52 -48 -60 6 -4 13
-20 15 -36 5 -43 47 -54 198 -55 116 -1 298 17 345 34 11 4 0 -11 -25 -33 -25
-23 -63 -46 -85 -51 -86 -24 -328 -53 -495 -60 -187 -9 -240 -22 -240 -60 0
-11 -3 -27 -7 -37 -5 -14 -3 -16 11 -11 9 4 15 3 12 -2 -8 -13 106 -31 205
-32 l84 -2 -65 -9 c-90 -13 -401 -2 -605 21 -93 11 -219 23 -280 27 -66 4
-102 10 -90 14 41 15 148 31 272 40 71 5 143 14 162 20 19 5 37 8 39 5 3 -3
16 7 29 22 19 19 24 34 21 60 -3 23 0 33 10 33 7 0 10 -5 6 -12 -5 -8 -2 -9
10 -5 12 5 15 3 10 -5 -12 -19 -4 -91 12 -108 11 -11 17 -11 26 -2 20 20 52
14 64 -13 8 -17 9 -25 1 -28 -6 -2 -3 -6 6 -10 13 -5 17 -1 17 14 0 13 4 18
12 13 8 -5 9 -2 5 9 -4 10 -10 24 -13 32 -3 8 -1 15 5 15 6 0 11 -7 11 -15 0
-23 7 -20 55 23 9 8 28 11 52 7 28 -4 33 -3 18 4 -11 5 -30 10 -42 10 -13 1
-23 4 -23 9 0 9 104 6 195 -7 38 -6 71 -8 74 -6 2 3 -4 5 -15 5 -15 0 -16 2
-5 9 8 6 -5 7 -35 4 -45 -4 -47 -3 -26 9 12 8 20 17 16 21 -9 9 26 48 37 41 4
-2 13 5 20 17 10 19 9 21 -4 16 -12 -4 -14 -2 -10 10 4 10 2 14 -4 10 -6 -4
-18 2 -28 13 -14 16 -16 25 -8 43 10 22 1 53 -22 69 -5 4 1 8 15 9 14 0 19 3
12 6 -7 3 -24 2 -37 -1 -21 -5 -25 -12 -25 -46 0 -39 -1 -40 -35 -40 -19 0
-35 -4 -35 -10 0 -5 -18 -10 -40 -10 l-40 0 0 45 0 45 -50 0 -50 0 0 -35 c0
-31 -3 -35 -25 -35 -14 0 -25 -5 -25 -11 0 -6 -12 -23 -27 -38 -16 -15 -33
-35 -38 -45 -12 -22 7 -21 -305 -7 -244 10 -449 36 -580 72 -41 11 -92 24
-113 28 -21 5 -39 10 -41 12 -1 2 -14 27 -29 55 -45 90 -89 169 -99 182 -6 7
-9 15 -6 17 14 14 486 99 668 119 118 14 370 45 560 70 317 42 457 56 975 102
218 19 394 39 495 58 94 17 90 17 90 11z m-2850 -136 c0 -6 -4 -7 -10 -4 -5 3
-10 11 -10 16 0 6 5 7 10 4 6 -3 10 -11 10 -16z m1497 -655 c-3 -3 -12 -4 -19
-1 -8 3 -5 6 6 6 11 1 17 -2 13 -5z m-77 -24 c8 -5 11 -10 5 -10 -5 0 -17 5
-25 10 -8 5 -10 10 -5 10 6 0 17 -5 25 -10z m353 -157 c-7 -2 -19 -2 -25 0 -7
3 -2 5 12 5 14 0 19 -2 13 -5z m-1438 -217 c64 -96 123 -180 130 -186 12 -10
-2 -23 -73 -70 -48 -31 -119 -73 -157 -93 -86 -43 -128 -82 -120 -111 5 -16 4
-18 -4 -6 -5 8 -10 30 -9 50 0 19 -9 89 -21 155 -44 249 -63 291 -129 279 -20
-3 -43 -13 -49 -22 -7 -9 -13 -12 -13 -6 -1 24 -57 -115 -58 -146 -2 -39 30
-102 50 -98 8 2 12 -5 10 -16 -3 -18 -2 -19 15 -5 17 13 17 13 3 -5 -14 -17
-15 -17 -37 10 -36 45 -165 235 -161 239 5 5 128 36 198 50 154 32 261 82 290
135 6 11 13 20 15 20 2 0 56 -78 120 -174z m2220 85 c21 -10 33 -21 28 -24 -5
-3 -22 3 -38 13 -23 15 -41 18 -89 14 -75 -7 -102 -19 -85 -40 6 -8 18 -14 25
-14 8 0 14 -7 14 -15 0 -11 -12 -15 -42 -16 -24 -1 3 -6 60 -10 57 -5 156 -20
219 -35 118 -26 432 -126 513 -162 24 -12 48 -18 52 -16 4 3 8 1 8 -4 0 -12
99 -56 123 -54 9 0 15 -3 12 -8 -3 -5 18 -21 47 -36 29 -15 55 -30 58 -33 3
-4 25 -22 50 -41 25 -19 39 -27 31 -17 -7 9 -10 17 -5 17 4 0 0 6 -11 13 -13
10 -15 16 -6 21 8 5 16 -3 24 -23 6 -17 16 -31 22 -31 5 0 4 -4 -3 -8 -9 -6
-4 -22 19 -66 24 -43 34 -55 41 -44 6 9 7 5 3 -11 -5 -15 -3 -21 3 -17 5 3 13
-1 16 -10 15 -39 35 -144 37 -199 l3 -59 -67 -3 c-91 -3 -153 -39 -131 -75 11
-17 106 -57 152 -64 l44 -6 -7 -112 c-4 -61 -13 -154 -20 -206 -11 -79 -66
-411 -69 -417 -1 -2 -141 17 -381 52 -197 28 -322 50 -610 110 -93 19 -184 35
-202 35 -36 0 -84 -16 -94 -32 -4 -6 -12 -7 -19 -3 -9 6 -9 10 1 17 9 6 5 7
-12 3 -20 -5 -45 7 -120 57 -52 35 -111 76 -132 92 -35 27 -36 30 -20 43 16
13 16 13 -4 3 -20 -9 -35 -1 -125 66 -57 42 -103 82 -103 88 -1 6 -7 10 -14 8
-7 -1 -30 13 -51 32 -21 19 -48 39 -59 46 -13 6 -19 16 -15 23 4 7 4 9 -1 5
-4 -4 -14 -3 -21 3 -10 8 -11 17 -3 33 10 20 10 20 -5 2 -16 -19 -17 -19 -46
9 -27 26 -42 53 -22 41 4 -2 14 0 22 5 10 6 4 7 -20 4 -29 -5 -40 -1 -56 17
-12 13 -40 39 -63 58 -27 22 -40 39 -36 50 5 12 4 12 -6 3 -9 -9 -27 2 -80 49
-38 33 -66 65 -63 70 3 4 0 7 -8 6 -7 -2 -12 4 -10 12 2 8 0 12 -4 7 -4 -4
-18 3 -31 15 -25 23 -30 38 -12 38 5 0 8 -4 5 -9 -3 -5 2 -8 12 -7 9 0 16 -5
14 -12 -1 -8 2 -11 9 -7 17 11 -16 39 -48 40 -17 0 -27 6 -25 14 1 7 -2 10 -7
7 -9 -6 -235 227 -270 276 -8 13 -31 40 -50 61 -19 21 -51 60 -70 86 -20 27
-51 67 -69 89 -19 24 -28 43 -22 47 5 3 10 -1 10 -9 0 -9 6 -15 13 -14 6 2 11
-4 9 -13 -2 -15 34 -57 46 -51 3 1 7 -4 8 -12 3 -22 44 -77 53 -71 5 2 17 -5
27 -16 17 -19 17 -20 -2 -13 -14 5 -11 -1 11 -22 30 -29 49 -27 25 1 -7 8 -8
15 -4 15 5 0 15 -10 23 -21 10 -17 10 -23 1 -29 -7 -4 -9 -13 -5 -19 5 -9 11
-7 20 6 13 17 13 16 11 -8 -3 -26 26 -74 38 -62 3 3 16 -2 28 -13 19 -17 21
-17 15 -1 -5 13 -1 17 16 17 21 -1 21 -2 -6 -25 l-28 -25 24 0 c14 0 30 6 37
14 8 11 24 13 61 9 44 -5 49 -4 49 14 0 23 18 43 41 43 9 0 22 7 29 15 9 11
17 12 30 5 10 -6 25 -10 32 -10 7 0 -5 9 -27 19 -46 22 -45 25 5 11 126 -38
280 -51 280 -26 0 17 39 48 52 40 4 -3 8 0 8 6 0 6 4 9 8 6 8 -5 10 1 14 43 2
16 6 17 28 9 34 -14 151 -21 129 -8 -9 5 -48 14 -85 20 -60 8 -71 7 -81 -7
-11 -14 -13 -14 -14 -2 -1 8 -1 17 0 22 0 4 -8 7 -19 7 -11 0 -58 11 -105 25
-46 13 -108 27 -137 30 -51 6 -52 5 -23 -8 17 -7 39 -11 49 -9 14 4 17 2 11
-8 -6 -10 -4 -12 7 -7 9 3 25 -1 37 -10 14 -9 32 -13 49 -9 21 5 24 4 12 -5
-12 -8 -9 -9 15 -5 17 3 24 3 17 0 -6 -3 -10 -9 -7 -13 2 -5 -20 -1 -50 7 -30
8 -55 19 -55 24 0 5 -4 7 -8 4 -4 -3 -24 -1 -43 4 -18 5 -79 20 -134 34 -55
14 -118 26 -140 26 -48 0 -85 -23 -85 -52 0 -12 -3 -18 -7 -14 -4 4 -8 14 -8
22 0 7 -3 13 -7 11 -11 -3 -58 45 -58 60 0 10 9 12 33 8 17 -3 45 -7 62 -10
16 -2 81 -7 145 -9 104 -4 108 -4 40 4 -41 5 -92 11 -113 13 -21 2 -41 8 -45
12 -4 4 3 4 15 1 12 -4 24 -3 27 2 2 4 -12 8 -32 8 -33 -1 -37 2 -40 27 -3 22
1 27 20 29 13 0 29 2 36 2 7 1 16 6 20 12 4 6 14 14 22 17 12 4 11 6 -3 6 -10
1 -16 5 -13 10 3 4 -13 5 -37 1 -26 -5 -44 -4 -48 2 -4 6 -19 7 -35 4 -16 -3
-42 -2 -59 3 -16 5 -22 10 -13 10 9 1 25 4 35 7 11 4 14 3 6 -3 -6 -4 28 -8
80 -8 51 -1 191 -5 312 -9 232 -9 271 -7 905 49 323 29 310 28 355 6z m-2005
-23 c0 -9 4 -8 10 2 5 8 10 11 10 5 0 -5 -4 -15 -8 -22 -6 -9 -11 -7 -20 7 -7
12 -8 20 -2 20 5 0 10 -6 10 -12z m123 -5 c-13 -2 -33 -2 -45 0 -13 2 -3 4 22
4 25 0 35 -2 23 -4z m154 -10 c-9 -2 -14 -9 -11 -15 5 -7 2 -8 -7 -3 -7 5 -29
12 -49 16 -29 5 -25 7 25 7 33 0 52 -2 42 -5z m1818 -4 c4 -6 13 -8 21 -5 8 3
14 1 14 -4 0 -5 6 -7 14 -4 16 6 177 -33 191 -47 13 -13 -11 -11 -34 3 -15 9
-28 9 -60 -2 -33 -11 -51 -11 -96 -1 -30 7 -55 16 -55 21 0 5 8 7 18 4 14 -5
15 -4 2 5 -8 6 -24 8 -35 4 -18 -5 -18 -4 -6 11 13 16 12 17 -15 11 -22 -5
-25 -4 -14 4 19 14 47 14 55 0z m-2048 -25 c-3 -3 -12 -4 -19 -1 -8 3 -5 6 6
6 11 1 17 -2 13 -5z m446 -11 c-7 -2 -21 -2 -30 0 -10 3 -4 5 12 5 17 0 24 -2
18 -5z m-426 -16 c7 -4 9 -15 6 -24 -4 -11 -3 -14 5 -9 7 4 12 5 12 2 0 -19
-22 -11 -39 13 -20 28 -13 36 16 18z m2223 -17 c0 -13 43 -13 56 0 18 18 181
-27 304 -83 l55 -26 -52 3 c-28 2 -57 7 -64 11 -8 5 -10 4 -5 -3 4 -6 23 -14
42 -18 20 -4 38 -13 41 -20 3 -8 10 -11 15 -8 6 4 5 10 -3 16 -10 6 0 8 28 5
43 -5 78 -28 65 -42 -4 -5 -1 -5 5 -1 7 4 22 2 34 -5 18 -9 19 -13 8 -21 -10
-6 -7 -7 10 -3 19 6 23 4 18 -8 -4 -10 -1 -14 6 -11 7 2 37 -20 66 -50 43 -44
52 -58 43 -69 -7 -8 -8 -18 -4 -23 4 -4 -10 6 -31 24 -21 18 -42 32 -48 32 -6
0 -7 4 -4 10 3 5 0 7 -8 4 -8 -3 -20 2 -27 10 -7 9 -16 13 -21 10 -5 -3 -8 0
-7 8 2 7 -5 12 -14 12 -10 -1 -15 3 -11 9 4 6 0 8 -11 4 -11 -5 -15 -3 -10 5
5 8 2 9 -10 5 -11 -5 -15 -3 -10 5 5 7 2 9 -8 5 -9 -3 -25 1 -37 9 -12 9 -34
18 -49 20 -15 3 -32 11 -38 19 -6 8 -18 15 -26 15 -26 0 -88 30 -89 43 0 9 -2
9 -5 0 -7 -15 -53 1 -73 25 -13 16 -13 16 -8 0 5 -14 2 -15 -16 -8 -12 4 -21
13 -19 19 1 6 -5 11 -14 11 -8 0 -12 5 -9 10 4 6 22 9 40 8 19 -1 38 2 42 6 4
4 1 7 -7 6 -8 -1 -28 -2 -45 0 -26 1 -28 2 -10 10 14 7 8 8 -20 3 -50 -7 -57
-13 -19 -14 l29 0 -25 -10 c-20 -8 -22 -12 -10 -19 25 -16 4 -11 -72 17 -71
27 -72 27 -40 34 18 4 36 9 39 13 10 10 33 7 33 -4z m-120 -10 c11 -8 7 -9
-15 -4 -37 8 -45 14 -19 14 10 0 26 -5 34 -10z m-1886 -96 c3 -8 2 -12 -4 -9
-6 3 -10 10 -10 16 0 14 7 11 14 -7z m-56 -80 c-4 -3 -12 5 -18 18 -12 22 -12
22 6 6 10 -10 15 -20 12 -24z m-1392 6 c-17 -3 -29 -9 -27 -15 7 -28 -8 -45
-41 -45 -25 0 -34 -5 -35 -17 -1 -10 -5 -34 -10 -53 -7 -30 -13 -35 -41 -38
-19 -2 -30 -8 -26 -14 4 -6 -2 -6 -15 1 -11 7 -21 17 -21 23 0 7 4 7 14 -1 11
-9 15 -8 20 5 4 10 2 22 -4 28 -8 8 -10 7 -5 -4 4 -11 -1 -16 -15 -16 -11 0
-20 3 -20 7 0 12 119 100 175 129 32 17 62 27 68 23 7 -5 0 -10 -17 -13z m110
-36 c84 -47 138 -95 122 -107 -9 -5 -6 -6 7 -3 15 4 35 -9 78 -52 31 -32 54
-62 50 -66 -5 -4 -1 -6 7 -4 8 2 14 -3 12 -10 -1 -8 2 -11 7 -8 5 3 44 -33 88
-81 43 -49 83 -92 88 -96 6 -5 -37 -6 -95 -3 -58 4 -231 11 -385 16 -154 5
-328 12 -387 16 l-107 6 18 47 c11 25 35 73 55 106 50 83 121 159 102 108 -4
-10 -4 -14 0 -11 8 8 34 -16 34 -32 0 -6 5 -8 10 -5 8 5 11 -8 10 -60 0 -3 15
-19 32 -35 27 -24 30 -31 19 -39 -12 -8 -12 -12 -2 -25 33 -39 172 -49 215
-15 33 26 33 39 1 39 -16 0 -25 6 -25 15 0 11 11 15 40 15 36 0 40 -2 40 -25
0 -14 5 -25 10 -25 6 0 10 6 10 13 0 16 52 67 68 67 7 0 12 16 12 40 0 24 5
40 12 40 6 0 8 3 5 7 -4 3 -2 12 5 20 9 11 7 12 -7 7 -14 -6 -16 -4 -10 6 5 9
4 11 -4 6 -6 -4 -9 -13 -5 -19 3 -7 -11 5 -30 27 -20 21 -33 43 -29 49 4 6 1
7 -8 2 -18 -12 -89 -14 -89 -3 0 5 -9 7 -19 3 -11 -3 -22 -1 -26 5 -3 5 -17
10 -30 10 -23 0 -40 24 -29 41 3 5 17 9 32 9 l27 1 -25 14 c-25 14 -25 14 10
9 26 -4 31 -3 20 5 -33 23 5 9 66 -25z m1569 -42 c-3 -3 -11 0 -18 7 -9 10 -8
11 6 5 10 -3 15 -9 12 -12z m-30 -2 c3 -6 -1 -7 -9 -4 -18 7 -21 14 -7 14 6 0
13 -4 16 -10z m74 -26 c10 -9 -35 -3 -49 6 -11 8 -7 9 15 4 17 -4 32 -8 34
-10z m46 6 c19 -8 19 -9 -2 -9 -12 -1 -25 4 -28 9 -7 12 2 12 30 0z m-1832 -7
c-7 -2 -19 -2 -25 0 -7 3 -2 5 12 5 14 0 19 -2 13 -5z m607 -23 c12 -16 19
-30 16 -30 -2 0 -14 14 -26 30 -12 17 -19 30 -16 30 2 0 14 -13 26 -30z m684
-12 c12 -13 45 -50 72 -83 90 -111 333 -383 360 -404 l27 -21 -24 0 c-13 0
-56 -25 -99 -58 -41 -33 -89 -66 -107 -75 -17 -9 -62 -39 -98 -67 -36 -27 -74
-50 -83 -49 -30 1 -272 302 -272 339 0 4 -7 14 -16 21 -15 12 -16 11 -10 -11
6 -21 5 -22 -4 -7 -6 9 -8 21 -5 27 3 5 -1 20 -9 32 -8 13 -30 52 -50 88 -42
78 -56 89 -90 71 -20 -11 -24 -19 -19 -42 7 -34 -9 -38 -30 -9 -13 19 -15 19
-27 4 -15 -17 -22 -11 -71 61 -17 25 -17 26 -2 9 15 -17 24 -20 39 -12 19 9
19 9 0 -6 -11 -9 -17 -17 -13 -17 4 -1 13 -2 20 -3 6 -1 11 -8 9 -16 -1 -10 3
-9 13 4 8 10 12 23 9 27 -3 5 0 17 6 26 10 16 11 15 7 -4 -3 -13 -2 -23 2 -23
51 0 276 108 386 184 28 19 51 35 53 35 2 1 13 -9 26 -21z m-1064 -24 c0 -13
-4 -24 -10 -24 -5 0 -10 -7 -10 -15 0 -11 -11 -15 -40 -15 -29 0 -40 4 -40 15
0 11 11 15 40 15 38 0 40 2 40 31 0 17 4 28 10 24 6 -3 10 -17 10 -31z m451
-46 c6 1 8 -1 5 -6 -3 -5 4 -23 14 -40 29 -47 17 -39 -24 17 -34 46 -52 88
-20 46 8 -11 20 -19 25 -17z m104 -87 c-3 -6 -11 -11 -16 -11 -5 0 -4 6 3 14
14 16 24 13 13 -3z m-780 -61 c-3 -5 -13 -10 -21 -10 -8 0 -14 5 -14 10 0 6 9
10 21 10 11 0 17 -4 14 -10z m826 -55 c5 3 6 -2 2 -11 -5 -13 -3 -15 7 -9 8 5
11 4 7 -2 -3 -5 3 -17 14 -26 10 -9 19 -24 19 -32 0 -8 5 -15 11 -15 5 0 7 -4
4 -10 -3 -5 1 -10 9 -10 9 0 16 -4 16 -9 0 -5 9 -11 21 -14 15 -4 19 -12 17
-34 -2 -22 1 -27 14 -25 13 2 16 -2 11 -15 -6 -16 -5 -17 13 -3 15 11 16 11 7
0 -16 -17 -17 -31 -2 -27 6 1 13 -6 14 -16 4 -24 35 -58 46 -51 5 3 6 -3 2
-13 -6 -16 -5 -17 12 -3 11 9 16 10 11 3 -4 -8 -2 -13 6 -13 10 0 10 -2 -1 -9
-11 -7 -9 -13 8 -30 11 -11 21 -26 21 -32 0 -5 5 -7 12 -3 7 5 8 3 3 -6 -6
-10 -4 -12 9 -7 10 4 15 3 11 -4 -4 -5 0 -20 8 -32 21 -31 95 -107 106 -107 5
0 14 14 21 30 7 17 17 33 22 36 5 3 2 -11 -6 -31 -9 -21 -16 -46 -16 -56 0
-11 -4 -19 -9 -19 -10 0 -119 129 -211 250 -30 39 -69 88 -86 108 -71 86 -184
254 -177 265 5 8 9 6 11 -6 2 -9 8 -15 13 -12z m132 2 c3 -8 -1 -14 -8 -14 -7
0 -11 6 -8 14 3 7 6 13 8 13 2 0 5 -6 8 -13z m-350 -214 c95 -5 120 -9 127
-22 7 -13 4 -17 -13 -18 -12 0 -16 1 -9 4 6 3 12 9 12 14 0 10 -60 3 -70 -8
-3 -3 5 -4 17 -1 19 5 21 2 20 -28 -2 -18 -5 -35 -7 -38 -3 -3 -34 -6 -68 -7
-62 -2 -87 -14 -62 -29 8 -5 9 -10 2 -14 -6 -4 -8 -14 -5 -23 5 -13 3 -15 -13
-9 -10 5 -26 9 -34 9 -8 0 -18 5 -22 11 -4 6 -10 8 -13 4 -4 -4 11 -23 33 -43
65 -58 89 -75 96 -67 4 4 6 0 4 -8 -2 -11 5 -15 28 -15 18 1 31 -4 31 -11 0
-9 -5 -10 -19 -3 -33 18 -19 1 20 -22 20 -13 56 -38 80 -56 24 -18 49 -33 55
-33 7 0 6 4 -3 10 -8 5 -11 12 -7 16 4 4 13 2 19 -4 14 -14 28 -16 28 -4 0 5
-18 15 -40 22 -53 17 -51 30 5 30 l45 0 -3 -35 c-3 -19 0 -35 5 -35 5 0 6 -5
2 -11 -4 -8 -9 -7 -15 2 -4 7 -11 10 -15 6 -4 -4 1 -14 12 -21 19 -15 54 -5
54 14 0 6 6 10 14 10 8 0 16 3 18 8 7 16 61 51 72 46 6 -3 1 3 -11 12 -13 9
-23 23 -23 32 0 18 -13 8 -16 -13 -1 -9 2 -12 8 -9 7 5 8 2 3 -6 -6 -9 -4 -11
5 -5 9 6 11 4 5 -4 -6 -10 -11 -9 -23 3 -14 14 -14 20 -4 36 10 17 10 21 -3
26 -8 3 -28 24 -45 47 -16 23 -30 34 -30 26 0 -12 -2 -12 -9 1 -6 8 -8 17 -5
21 2 4 0 10 -6 14 -5 3 -10 2 -10 -3 0 -6 -7 -12 -15 -16 -19 -7 -19 -1 1 18
14 15 14 18 -5 42 -12 15 -21 32 -21 38 1 10 6 5 47 -53 21 -29 79 -98 147
-176 38 -43 46 -58 37 -69 -16 -19 -4 -45 20 -43 23 2 24 10 4 27 -9 7 -14 15
-11 17 4 4 103 -97 106 -109 2 -10 75 -91 157 -174 41 -41 68 -76 62 -80 -10
-6 -24 2 -24 14 -1 4 -15 22 -33 41 -30 31 -32 32 -32 10 0 -30 -9 -20 -12 13
-2 24 -38 60 -38 38 0 -5 -7 -10 -16 -10 -13 0 -14 3 -4 15 16 19 6 44 -17 41
-26 -4 -28 -32 -3 -58 12 -13 20 -33 18 -46 -4 -28 -23 -25 -23 3 0 17 -5 20
-26 17 -25 -4 -28 -8 -31 -58 -2 -38 1 -54 10 -54 6 0 12 5 12 10 0 18 26 10
50 -15 13 -14 28 -25 34 -24 32 4 46 -3 46 -21 0 -11 6 -20 14 -20 8 0 16 -6
19 -12 2 -7 8 -10 12 -5 7 6 10 19 14 61 2 16 30 -15 33 -37 3 -25 36 -35 50
-15 8 10 9 9 4 -4 -3 -11 0 -18 8 -18 8 0 16 -5 18 -11 2 -6 16 -13 32 -14 24
-3 55 -28 56 -46 0 -9 30 -20 30 -11 0 4 -11 19 -25 34 -14 15 -21 30 -15 33
13 8 82 -44 74 -56 -3 -5 0 -8 8 -7 7 2 12 -3 10 -10 -1 -8 2 -11 9 -7 6 4 27
-9 47 -28 21 -19 64 -54 97 -77 40 -28 52 -41 35 -37 -51 12 -230 39 -410 62
-239 30 -300 21 -300 -46 0 -63 35 -73 460 -134 179 -26 363 -53 409 -61 46
-8 94 -14 106 -14 29 0 63 -18 215 -110 69 -41 140 -82 157 -89 18 -7 30 -18
26 -24 -3 -5 -1 -7 4 -4 15 9 75 -22 67 -35 -4 -7 -2 -8 4 -4 15 9 213 -94
205 -106 -3 -5 1 -8 8 -7 23 4 89 -33 90 -50 0 -10 2 -11 5 -4 4 9 14 8 40 -4
49 -24 47 -40 -4 -26 -17 4 -20 8 -11 14 20 12 -64 4 -86 -8 -17 -10 -13 -11
23 -6 26 3 42 2 42 -5 0 -5 -8 -8 -17 -6 -10 2 -38 -2 -63 -10 l-45 -13 100
-8 c96 -7 155 -24 155 -46 0 -22 100 -52 279 -85 102 -19 208 -42 234 -50 27
-9 57 -14 68 -11 10 3 17 2 14 -3 -7 -11 56 -19 80 -10 11 4 48 0 85 -10 36
-10 84 -23 108 -30 29 -7 40 -15 35 -23 -4 -7 0 -6 10 2 16 13 17 11 11 -30
-4 -24 -9 -47 -13 -51 -3 -4 -28 -2 -56 3 -66 13 -344 53 -580 85 -104 14
-266 40 -360 59 -93 18 -226 43 -295 55 -69 12 -179 32 -245 45 -263 51 -317
52 -344 3 -13 -22 -13 -30 -2 -51 28 -53 92 -71 501 -142 146 -26 315 -55 375
-66 61 -11 214 -35 340 -54 127 -19 300 -46 385 -60 85 -14 172 -25 193 -25
32 0 36 -2 28 -18 -16 -27 -61 -149 -61 -162 0 -8 -9 -10 -22 -7 -40 10 -1381
19 -1413 10 -26 -8 -30 -14 -33 -51 -3 -37 0 -42 28 -57 18 -9 71 -21 118 -26
80 -8 811 -31 1067 -33 l110 -1 -40 -62 c-34 -52 -46 -63 -75 -68 -19 -3 -60
-10 -90 -15 -135 -24 -378 -28 -1485 -29 -1185 0 -1303 3 -1372 36 -38 18
-123 90 -123 104 0 6 4 8 9 4 5 -3 12 -1 16 4 3 6 -3 8 -13 6 -13 -2 -36 13
-66 44 -39 39 -44 49 -31 55 9 3 272 -1 583 -10 632 -18 760 -16 810 10 57 30
34 75 -52 101 -131 40 -302 54 -756 66 -559 13 -709 20 -719 33 -23 29 -174
431 -224 599 l-35 117 51 -6 c29 -3 124 -17 212 -30 88 -14 201 -29 250 -35
50 -6 145 -19 212 -30 158 -25 205 -25 228 1 24 27 12 66 -28 91 -42 26 -166
63 -297 89 -195 39 -511 90 -593 96 l-82 7 -27 111 c-15 61 -39 160 -53 219
-15 60 -25 110 -23 112 3 2 69 -2 393 -28 218 -18 251 -15 276 27 25 40 24 59
-3 90 -19 21 -37 27 -103 35 -104 13 -371 31 -505 34 l-105 2 -6 35 c-7 35
-36 176 -46 218 -5 22 -4 22 109 22 155 0 356 25 388 49 37 27 39 73 3 101
-28 22 -30 22 -279 17 l-251 -5 -12 121 c-7 67 -16 142 -21 167 -5 25 -11 76
-14 114 l-6 69 433 -7 c237 -3 485 -9 550 -13z m489 -63 c-22 -26 -24 -25 -10
5 6 13 15 22 19 19 5 -2 1 -14 -9 -24z m-323 -4 c12 -14 5 -46 -9 -46 -5 0
-12 5 -15 10 -3 6 -1 10 4 10 6 0 11 5 11 10 0 6 -7 10 -15 10 -8 0 -15 5 -15
10 0 15 26 12 39 -4z m272 -3 c13 -16 12 -17 -3 -4 -17 13 -22 21 -14 21 2 0
10 -8 17 -17z m-334 -49 c-3 -3 -12 -4 -19 -1 -8 3 -5 6 6 6 11 1 17 -2 13 -5z
m1354 -176 c238 -191 513 -399 587 -443 5 -4 -49 -137 -100 -241 -74 -153 -96
-218 -79 -238 21 -25 73 -19 117 12 45 33 124 182 168 318 l27 82 107 -72
c132 -88 255 -150 283 -143 18 5 20 2 14 -16 -17 -54 -104 -394 -105 -409 0
-32 38 -61 73 -54 70 14 110 67 121 161 3 22 15 90 27 152 18 92 24 110 37
105 11 -4 12 -7 4 -10 -7 -2 -9 -8 -6 -13 4 -6 11 -6 19 1 14 12 81 -11 68
-24 -4 -4 0 -4 8 -1 8 3 47 -8 85 -25 168 -76 483 -160 597 -160 l25 0 -35
-132 c-45 -172 -92 -330 -99 -337 -11 -11 5 63 26 124 11 33 18 65 16 72 -3 7
-2 13 3 13 5 0 16 29 25 63 8 35 18 73 21 83 4 12 0 9 -9 -6 -19 -32 -20 -14
-1 20 16 29 21 76 5 50 -13 -21 -43 -20 -71 2 l-24 19 30 -2 c50 -2 65 1 65
12 0 6 -9 8 -21 4 -15 -5 -19 -4 -15 4 5 7 -3 12 -21 13 -48 3 -96 7 -138 11
-22 3 -47 5 -55 6 -13 1 -13 2 0 11 12 8 10 10 -10 11 -33 2 -42 4 -62 13 -10
4 -23 6 -30 4 -7 -3 -19 2 -26 9 -8 8 -23 11 -36 8 -15 -5 -17 -4 -8 3 11 7 7
11 -15 16 -15 4 -36 9 -47 13 -12 3 -16 1 -12 -6 9 -14 1 -14 -25 2 -17 9 -23
9 -26 0 -3 -8 -14 -11 -29 -7 -20 5 -26 2 -31 -15 -3 -12 -10 -18 -17 -14 -6
3 -6 0 2 -8 16 -18 15 -34 -2 -20 -11 9 -14 -2 -15 -69 -1 -49 2 -80 8 -80 6
0 20 -8 31 -17 11 -10 37 -27 58 -39 41 -23 51 -47 29 -72 -19 -21 -30 -75
-22 -102 5 -17 12 -19 48 -14 23 4 39 4 36 0 -3 -3 -29 -8 -57 -10 -40 -3 -55
1 -71 16 -12 10 -21 15 -21 10 0 -5 -23 -5 -51 -2 -45 6 -55 4 -79 -17 -34
-28 -46 -28 -85 -4 -17 10 -48 24 -70 31 -22 7 -62 24 -88 37 l-49 24 3 57 c2
31 0 63 -4 69 -4 7 -29 19 -55 27 -66 19 -396 142 -430 160 -15 8 -45 18 -67
22 -45 8 -126 61 -390 256 -177 131 -268 213 -462 416 -101 104 -183 192 -183
195 0 3 24 19 54 36 30 16 78 50 108 73 29 24 78 60 109 80 30 20 62 44 69 53
7 9 18 14 25 11 6 -2 104 -78 216 -168z m-1502 88 c33 7 48 -8 26 -26 -12 -10
-21 -8 -50 14 -19 15 -35 32 -35 39 0 6 7 2 15 -10 12 -17 22 -21 44 -17z
m212 11 c-10 -9 -11 -8 -5 6 3 10 9 15 12 12 3 -3 0 -11 -7 -18z m82 -52 c-3
-9 -8 -14 -10 -11 -3 3 -2 9 2 15 9 16 15 13 8 -4z m-63 -12 c0 -7 -11 -13
-25 -13 -15 0 -25 6 -25 15 0 10 9 14 25 13 14 -1 25 -8 25 -15z m93 -6 c3 -7
-3 -13 -13 -13 -10 0 -16 6 -13 13 3 7 9 13 13 13 4 0 10 -6 13 -13z m-135
-42 c13 -12 -8 -15 -27 -3 -17 10 -25 10 -42 0 -18 -12 -19 -11 -10 7 9 16 16
18 42 11 18 -5 34 -12 37 -15z m522 5 c0 -5 -2 -10 -4 -10 -3 0 -8 5 -11 10
-3 6 -1 10 4 10 6 0 11 -4 11 -10z m-538 -30 c5 0 8 -6 5 -12 -2 -7 5 -18 17
-25 12 -7 16 -12 9 -13 -7 0 -27 14 -45 32 -19 19 -25 29 -15 25 10 -4 23 -7
29 -7z m292 -86 c3 -8 2 -12 -4 -9 -6 3 -10 10 -10 16 0 14 7 11 14 -7z m385
-23 c-30 -14 -57 -25 -61 -23 -4 1 -5 -4 -2 -12 6 -15 35 -16 47 -1 5 6 7 4 6
-5 -4 -39 1 -46 33 -45 22 0 32 -5 34 -17 2 -16 0 -16 -22 -1 -29 18 -43 11
-21 -11 8 -8 17 -13 20 -10 3 3 8 1 11 -4 13 -21 -28 -4 -48 20 -12 13 -38 37
-58 53 -43 31 -48 45 -15 45 12 1 42 12 67 24 25 13 49 22 54 19 5 -3 -16 -17
-45 -32z m86 19 c10 -11 14 -20 9 -20 -5 0 -15 9 -22 20 -7 11 -11 20 -9 20 2
0 12 -9 22 -20z m-1 -192 c-3 -5 -12 -4 -20 3 -19 16 -18 18 6 12 11 -3 17 -9
14 -15z m101 2 c3 -5 1 -10 -4 -10 -6 0 -11 5 -11 10 0 6 2 10 4 10 3 0 8 -4
11 -10z m-80 -11 c-4 -6 1 -17 11 -25 18 -14 18 -14 -3 -4 -23 11 -28 21 -16
33 10 11 15 8 8 -4z m144 -155 c1 -9 29 -33 42 -36 7 -2 18 -12 24 -23 6 -11
19 -19 28 -19 9 1 15 -2 12 -6 -5 -8 74 -75 90 -75 6 -1 9 -6 7 -13 -1 -7 2
-12 8 -12 6 0 18 -8 28 -18 10 -10 36 -31 57 -47 22 -17 51 -40 64 -52 14 -12
28 -20 32 -17 5 2 13 -5 19 -16 10 -18 14 -19 28 -8 16 12 16 11 2 -6 -14 -18
-13 -19 3 -13 10 4 16 3 13 -2 -8 -12 72 -53 86 -45 7 4 10 4 6 -1 -5 -5 9
-20 30 -34 38 -26 41 -28 67 -30 8 0 15 -7 15 -15 0 -13 11 -21 35 -25 6 -2
25 -11 43 -23 17 -11 32 -17 32 -13 0 3 10 -1 22 -9 12 -9 30 -16 40 -16 10 0
18 -7 18 -16 0 -8 5 -12 10 -9 6 3 22 -3 36 -14 15 -11 30 -18 35 -15 5 3 9 1
9 -4 0 -5 13 -15 30 -22 16 -7 35 -19 41 -27 7 -8 -21 3 -62 23 -41 20 -77 42
-81 48 -4 6 -8 8 -8 4 0 -12 -158 70 -255 131 -49 32 -114 72 -143 89 -127 76
-572 455 -572 487 0 11 108 -90 109 -101z m-30 82 c11 -14 6 -15 -27 -7 -4 1
8 21 12 21 2 0 9 -6 15 -14z m-339 -26 c0 -5 -4 -10 -10 -10 -5 0 -10 5 -10
10 0 6 5 10 10 10 6 0 10 -4 10 -10z m-31 -23 c9 -11 5 -14 -21 -15 -37 -1
-51 5 -43 19 9 14 51 11 64 -4z m51 -7 c0 -5 -5 -10 -11 -10 -5 0 -7 5 -4 10
3 6 8 10 11 10 2 0 4 -4 4 -10z m82 -32 c13 -13 45 -42 71 -66 26 -24 45 -47
42 -52 -10 -16 -25 -11 -19 5 4 8 2 15 -4 15 -6 0 -12 -5 -14 -11 -2 -5 -11
-7 -21 -4 -12 5 -15 14 -11 31 5 20 3 23 -12 18 -16 -5 -16 -4 -4 5 13 10 13
12 0 21 -35 22 -60 43 -60 51 0 14 7 11 32 -13z m-27 -18 c3 -5 1 -10 -4 -10
-6 0 -11 5 -11 10 0 6 2 10 4 10 3 0 8 -4 11 -10z m1771 -46 c10 -8 13 -12 6
-9 -8 4 -26 11 -40 15 -22 7 -23 8 -6 9 11 1 29 -6 40 -15z m316 -70 c32 -9
58 -20 58 -24 0 -4 20 -13 45 -20 25 -7 43 -15 41 -17 -6 -6 -115 29 -176 56
-56 24 -44 26 32 5z m363 -59 c62 -9 73 -14 55 -25 -8 -6 -22 -10 -30 -10 -13
0 -13 1 0 11 12 8 10 10 -9 5 -13 -3 -33 0 -44 6 -12 6 -43 14 -71 19 l-51 8
55 -4 c30 -3 73 -7 95 -10z m108 -22 c-7 -2 -19 -2 -25 0 -7 3 -2 5 12 5 14 0
19 -2 13 -5z m-188 -18 c31 -4 35 -3 20 5 -34 16 55 0 93 -18 25 -11 30 -17
20 -24 -9 -6 -6 -7 9 -3 12 3 47 -3 79 -14 32 -10 65 -17 73 -14 14 4 14 4 1
-6 -12 -9 -9 -11 17 -11 17 0 44 -5 59 -10 24 -9 25 -9 14 5 -8 9 -8 15 -2 15
6 0 14 -9 17 -20 3 -11 14 -20 23 -19 11 0 12 3 5 6 -7 2 -13 12 -13 21 0 14
2 15 10 2 12 -19 25 -5 25 28 0 14 5 27 11 29 8 3 9 -10 1 -47 -5 -27 -15 -50
-21 -50 -16 0 -258 55 -346 79 -78 21 -204 65 -160 56 14 -3 43 -7 65 -10z
m275 5 c0 -6 -11 -8 -27 -4 -40 10 -41 14 -5 14 18 0 32 -5 32 -10z m-101 -16
c2 -2 2 -7 -2 -10 -8 -9 -47 6 -47 17 0 9 37 3 49 -7z m-1664 -74 c3 -5 1 -10
-4 -10 -6 0 -11 5 -11 10 0 6 2 10 4 10 3 0 8 -4 11 -10z m186 -167 c13 -16
12 -17 -3 -4 -10 7 -18 15 -18 17 0 8 8 3 21 -13z m1042 -48 c-3 -9 -8 -14
-10 -11 -3 3 -2 9 2 15 9 16 15 13 8 -4z m477 -10 c11 -13 7 -15 -29 -15 -41
0 -56 15 -23 23 31 8 39 7 52 -8z m-1455 -13 c-3 -3 -11 0 -18 7 -9 10 -8 11
6 5 10 -3 15 -9 12 -12z m284 -155 c13 4 13 3 2 -5 -15 -11 -94 15 -85 29 2 5
19 0 36 -11 17 -10 38 -16 47 -13z m56 -17 c-3 -6 2 -13 12 -17 10 -4 20 -9
23 -13 3 -3 40 -21 83 -39 109 -47 90 -49 -24 -3 -86 35 -176 80 -138 69 9 -3
22 -1 30 4 18 11 22 11 14 -1z m1212 -22 c-3 -8 -6 -5 -6 6 -1 11 2 17 5 13 3
-3 4 -12 1 -19z m-898 -104 c2 -2 2 -7 -2 -10 -3 -3 -16 2 -29 11 l-23 17 25
-7 c14 -4 27 -9 29 -11z m-35 -9 c16 -9 36 -13 43 -10 8 2 11 0 8 -5 -8 -13 1
-13 28 2 19 10 20 9 9 -4 -10 -13 -10 -17 3 -22 9 -3 13 -2 10 4 -9 14 8 12
24 -2 9 -8 12 -9 7 -1 -4 7 1 9 14 6 23 -6 26 -19 8 -27 -7 -3 -2 -3 11 0 17
5 21 3 16 -7 -6 -9 -3 -11 8 -6 10 3 17 3 17 -1 0 -5 16 -14 36 -21 51 -18 35
-25 -18 -8 -79 27 -253 98 -262 108 -15 14 5 11 38 -6z m886 -66 c0 -6 -4 -7
-10 -4 -5 3 -10 11 -10 16 0 6 5 7 10 4 6 -3 10 -11 10 -16z m-215 1 c18 -8
17 -9 -7 -9 -16 -1 -28 4 -28 9 0 12 8 12 35 0z m-258 -47 c-3 -10 -5 -4 -5
12 0 17 2 24 5 18 2 -7 2 -21 0 -30z m320 31 c-3 -3 -12 -4 -19 -1 -8 3 -5 6
6 6 11 1 17 -2 13 -5z m40 -10 c-3 -3 -12 -4 -19 -1 -8 3 -5 6 6 6 11 1 17 -2
13 -5z m100 -16 c-3 -8 -6 -5 -6 6 -1 11 2 17 5 13 3 -3 4 -12 1 -19z m-552
-5 c9 4 13 3 10 -2 -3 -5 4 -13 16 -16 11 -4 18 -9 16 -11 -9 -9 -77 25 -77
38 0 10 2 10 9 -1 5 -8 16 -11 26 -8z m535 7 c0 -5 -7 -7 -15 -4 -8 4 -15 8
-15 10 0 2 7 4 15 4 8 0 15 -4 15 -10z m-1041 -56 c-6 -8 -19 -14 -28 -13 -10
0 -8 3 7 10 14 5 20 13 16 20 -4 8 -3 9 5 5 9 -6 9 -11 0 -22z m601 16 c0 -5
-10 -10 -22 -9 -22 0 -22 1 -3 9 11 5 21 9 23 9 1 1 2 -3 2 -9z m107 -226 c-3
-3 -12 -4 -19 -1 -8 3 -5 6 6 6 11 1 17 -2 13 -5z"/>
<path d="M4648 8973 c7 -3 16 -2 19 1 4 3 -2 6 -13 5 -11 0 -14 -3 -6 -6z"/>
<path d="M5655 8935 c-40 -14 -40 -14 -5 -8 19 3 42 9 50 14 22 12 1 9 -45 -6z"/>
<path d="M5573 8913 c9 -2 23 -2 30 0 6 3 -1 5 -18 5 -16 0 -22 -2 -12 -5z"/>
<path d="M5383 8893 c15 -2 39 -2 55 0 15 2 2 4 -28 4 -30 0 -43 -2 -27 -4z"/>
<path d="M4823 8883 c15 -2 39 -2 55 0 15 2 2 4 -28 4 -30 0 -43 -2 -27 -4z"/>
<path d="M4648 8863 c7 -3 16 -2 19 1 4 3 -2 6 -13 5 -11 0 -14 -3 -6 -6z"/>
<path d="M4578 8853 c12 -2 30 -2 40 0 9 3 -1 5 -23 4 -22 0 -30 -2 -17 -4z"/>
<path d="M4443 8833 c9 -2 25 -2 35 0 9 3 1 5 -18 5 -19 0 -27 -2 -17 -5z"/>
<path d="M4348 8813 c7 -3 16 -2 19 1 4 3 -2 6 -13 5 -11 0 -14 -3 -6 -6z"/>
<path d="M4308 8803 c7 -3 16 -2 19 1 4 3 -2 6 -13 5 -11 0 -14 -3 -6 -6z"/>
<path d="M4248 8793 c6 -2 18 -2 25 0 6 3 1 5 -13 5 -14 0 -19 -2 -12 -5z"/>
<path d="M4175 8780 l-20 -9 20 0 c11 0 29 4 40 9 l20 9 -20 0 c-11 0 -29 -4
-40 -9z"/>
<path d="M4110 8760 c-13 -9 -13 -10 0 -10 8 0 22 5 30 10 13 9 13 10 0 10 -8
0 -22 -5 -30 -10z"/>
<path d="M4068 8743 c7 -3 16 -2 19 1 4 3 -2 6 -13 5 -11 0 -14 -3 -6 -6z"/>
<path d="M3720 8730 c8 -5 20 -10 25 -10 6 0 3 5 -5 10 -8 5 -19 10 -25 10 -5
0 -3 -5 5 -10z"/>
<path d="M4028 8733 c7 -3 16 -2 19 1 4 3 -2 6 -13 5 -11 0 -14 -3 -6 -6z"/>
<path d="M3958 8713 c7 -3 16 -2 19 1 4 3 -2 6 -13 5 -11 0 -14 -3 -6 -6z"/>
<path d="M3834 8702 c-9 -5 -9 -10 0 -18 9 -9 20 -8 42 2 l29 14 -34 -6 c-23
-4 -31 -3 -27 5 8 13 6 14 -10 3z"/>
<path d="M3718 8633 c7 -3 16 -2 19 1 4 3 -2 6 -13 5 -11 0 -14 -3 -6 -6z"/>
<path d="M3618 8610 c-26 -9 -51 -20 -55 -25 -5 -4 -1 -6 7 -3 8 3 41 13 73
22 56 16 74 27 40 25 -10 -1 -39 -9 -65 -19z"/>
<path d="M3505 8569 c-4 -6 -13 -8 -21 -5 -8 3 -14 1 -14 -4 0 -15 26 -12 40
5 7 8 10 15 7 15 -3 0 -9 -5 -12 -11z"/>
<path d="M5255 8430 c153 -8 421 -12 414 -6 -2 2 -128 6 -279 8 -182 4 -228 3
-135 -2z"/>
<path d="M4513 8413 c26 -2 67 -2 90 0 23 2 2 3 -48 3 -49 0 -68 -1 -42 -3z"/>
<path d="M5207 8403 c18 -2 50 -2 70 0 21 2 7 4 -32 4 -38 0 -55 -2 -38 -4z"/>
<path d="M4769 8041 c12 -11 22 -23 21 -27 0 -4 7 -9 16 -10 12 -2 8 6 -12 27
-15 16 -32 29 -37 29 -6 0 0 -9 12 -19z"/>
<path d="M4830 7993 c0 -17 108 -103 128 -103 10 0 1 11 -21 24 -22 13 -54 39
-73 57 -19 18 -34 28 -34 22z"/>
<path d="M3805 7749 c-4 -6 -5 -12 -2 -15 2 -3 7 2 10 11 7 17 1 20 -8 4z"/>
<path d="M3726 7691 c-3 -5 1 -11 9 -15 15 -6 29 7 18 18 -9 9 -21 8 -27 -3z"/>
<path d="M3772 7670 c0 -14 2 -19 5 -12 2 6 2 18 0 25 -3 6 -5 1 -5 -13z"/>
<path d="M4265 7610 c-3 -5 -1 -10 4 -10 6 0 11 5 11 10 0 6 -2 10 -4 10 -3 0
-8 -4 -11 -10z"/>
<path d="M4227 7503 c-4 -3 -7 -11 -7 -17 0 -6 5 -5 12 2 6 6 9 14 7 17 -3 3
-9 2 -12 -2z"/>
<path d="M3874 7421 c10 -11 15 -24 12 -30 -10 -15 58 -25 112 -16 26 4 63 8
82 9 53 2 79 15 77 35 -1 12 -6 17 -15 14 -10 -4 -11 -8 -2 -13 7 -4 -20 -11
-59 -15 -39 -4 -68 -11 -65 -16 3 -5 0 -9 -5 -9 -6 0 -11 5 -11 10 0 6 -15 10
-32 10 -18 0 -48 9 -66 20 -41 25 -50 25 -28 1z m61 -31 c19 -8 19 -9 -2 -9
-12 -1 -25 4 -28 9 -7 12 2 12 30 0z"/>
<path d="M6070 7839 c-12 -8 -10 -9 9 -4 15 5 21 4 17 -4 -4 -5 7 -17 24 -26
38 -19 40 -11 3 9 -16 9 -21 15 -13 16 13 0 13 1 0 10 -19 12 -22 12 -40 -1z"/>
<path d="M6060 7816 c0 -2 7 -7 16 -10 8 -3 12 -2 9 4 -6 10 -25 14 -25 6z"/>
<path d="M6145 7770 c3 -5 8 -10 11 -10 2 0 4 5 4 10 0 6 -5 10 -11 10 -5 0
-7 -4 -4 -10z"/>
<path d="M6440 7661 c0 -5 5 -13 10 -16 6 -3 10 -2 10 4 0 5 -4 13 -10 16 -5
3 -10 2 -10 -4z"/>
<path d="M4570 7451 c0 -6 4 -13 10 -16 6 -3 7 1 4 9 -7 18 -14 21 -14 7z"/>
<path d="M4605 7380 c3 -5 8 -10 11 -10 2 0 4 5 4 10 0 6 -5 10 -11 10 -5 0
-7 -4 -4 -10z"/>
<path d="M3816 7161 c-17 -19 -13 -46 9 -55 9 -3 14 7 17 30 5 42 -3 50 -26
25z"/>
<path d="M3716 7111 c-3 -4 4 -17 17 -27 21 -19 21 -19 7 0 -14 18 -13 19 4
13 16 -6 17 -5 6 8 -14 17 -26 19 -34 6z"/>
<path d="M3910 7020 c12 -8 12 -10 1 -10 -8 0 -12 -2 -9 -5 3 -3 13 -2 22 1
14 5 15 9 4 15 -7 5 -17 9 -23 9 -5 0 -3 -5 5 -10z"/>
<path d="M4210 7011 c8 -4 38 -5 65 -1 l50 7 -65 1 c-39 1 -59 -2 -50 -7z"/>
<path d="M4123 6983 c54 -2 139 -2 190 0 51 1 7 3 -98 3 -104 0 -146 -2 -92
-3z"/>
<path d="M7031 7164 c0 -11 3 -14 6 -6 3 7 2 16 -1 19 -3 4 -6 -2 -5 -13z"/>
<path d="M7030 7065 c0 -8 2 -15 4 -15 2 0 6 7 10 15 3 8 1 15 -4 15 -6 0 -10
-7 -10 -15z"/>
<path d="M3052 7280 c0 -14 2 -19 5 -12 2 6 2 18 0 25 -3 6 -5 1 -5 -13z"/>
<path d="M3061 7104 c0 -11 3 -14 6 -6 3 7 2 16 -1 19 -3 4 -6 -2 -5 -13z"/>
<path d="M2980 6929 c0 -5 5 -7 10 -4 6 3 10 8 10 11 0 2 -4 4 -10 4 -5 0 -10
-5 -10 -11z"/>
<path d="M6500 7378 c0 -7 5 -20 10 -28 8 -12 10 -11 10 7 0 12 -4 25 -10 28
-5 3 -10 0 -10 -7z"/>
<path d="M6519 7300 c-8 -27 -12 -47 -7 -44 9 6 31 84 26 90 -2 2 -11 -19 -19
-46z"/>
<path d="M6501 7314 c0 -11 3 -14 6 -6 3 7 2 16 -1 19 -3 4 -6 -2 -5 -13z"/>
<path d="M5512 7160 c0 -14 2 -19 5 -12 2 6 2 18 0 25 -3 6 -5 1 -5 -13z"/>
<path d="M3658 6693 c18 -2 45 -2 60 0 15 2 0 4 -33 4 -33 0 -45 -2 -27 -4z"/>
<path d="M6971 6659 c0 -9 5 -22 12 -28 10 -8 14 -7 14 4 0 8 -4 12 -8 9 -4
-2 -10 4 -12 13 -4 15 -5 15 -6 2z"/>
<path d="M3693 6599 c21 -11 73 -20 58 -11 -9 7 -10 11 -1 14 6 2 -7 3 -29 3
-22 0 -35 -2 -28 -6z"/>
<path d="M6470 6596 c-32 -12 -33 -13 -11 -19 13 -3 20 -3 17 1 -4 3 6 11 21
18 36 16 18 16 -27 0z"/>
<path d="M6981 6584 c0 -11 3 -14 6 -6 3 7 2 16 -1 19 -3 4 -6 -2 -5 -13z"/>
<path d="M6798 6558 c5 -5 16 -8 23 -6 8 3 3 7 -10 11 -17 4 -21 3 -13 -5z"/>
<path d="M3885 6550 c3 -5 8 -10 11 -10 2 0 4 5 4 10 0 6 -5 10 -11 10 -5 0
-7 -4 -4 -10z"/>
<path d="M6893 6553 c9 -2 25 -2 35 0 9 3 1 5 -18 5 -19 0 -27 -2 -17 -5z"/>
<path d="M6960 6550 c-13 -8 -12 -10 3 -10 9 0 17 5 17 10 0 12 -1 12 -20 0z"/>
<path d="M3925 6541 c3 -5 -7 -14 -22 -19 -24 -9 -25 -11 -6 -11 44 -2 70 20
37 33 -8 3 -13 2 -9 -3z"/>
<path d="M3780 6500 c-20 -6 -21 -8 -5 -8 11 -1 38 3 60 7 l40 9 -35 0 c-19 0
-46 -4 -60 -8z"/>
<path d="M3700 6489 c-22 -6 -20 -7 13 -8 38 -1 47 3 25 11 -7 3 -24 1 -38 -3z"/>
<path d="M3458 6473 c34 -2 90 -2 125 0 34 2 6 3 -63 3 -69 0 -97 -1 -62 -3z"/>
<path d="M5979 6421 c12 -8 51 -4 51 5 0 2 -15 4 -32 4 -23 0 -29 -3 -19 -9z"/>
<path d="M5930 6410 c8 -5 22 -10 30 -10 13 0 13 1 0 10 -8 5 -22 10 -30 10
-13 0 -13 -1 0 -10z"/>
<path d="M6634 6349 c-3 -5 -3 -13 1 -18 3 -5 0 -13 -6 -17 -8 -4 -9 -3 -5 4
14 23 -10 10 -51 -27 -29 -26 -39 -42 -33 -49 7 -9 7 -9 -2 -2 -25 21 -28 12
-19 -49 1 -3 6 0 13 7 7 7 16 8 22 3 6 -5 69 -11 139 -13 123 -3 127 -2 106
15 -13 10 -16 17 -8 17 11 0 11 3 -1 10 -12 8 -8 10 14 8 58 -6 37 28 -24 38
-8 2 -16 8 -18 14 -2 5 -9 7 -15 4 -8 -5 -8 -2 1 7 21 23 15 42 -13 37 -30 -6
-33 0 -5 10 14 5 2 8 -35 8 -31 1 -58 -3 -61 -7z m33 -5 c-3 -3 -12 -4 -19 -1
-8 3 -5 6 6 6 11 1 17 -2 13 -5z m-32 -46 c4 4 3 -3 -3 -14 -6 -12 -9 -23 -7
-26 3 -3 -2 -5 -10 -5 -11 0 -12 4 -4 14 9 10 8 18 -2 31 -12 15 -12 16 2 5 9
-7 19 -9 24 -5z m-35 -11 c0 -2 -10 -12 -22 -23 l-23 -19 19 23 c18 21 26 27
26 19z m121 -62 c0 -5 -5 -11 -13 -13 -10 -3 -10 -1 1 6 11 8 10 11 -5 15 -16
5 -16 6 -1 4 10 -1 18 -6 18 -12z"/>
<path d="M6785 6340 c19 -8 73 -14 64 -6 -2 2 -22 6 -44 9 -28 5 -34 4 -20 -3z"/>
<path d="M6497 6223 c-4 -3 -7 -11 -7 -17 0 -6 5 -5 12 2 6 6 9 14 7 17 -3 3
-9 2 -12 -2z"/>
<path d="M6800 6215 c0 -3 60 -35 66 -35 1 0 0 8 -3 19 -3 12 -14 18 -34 19
-16 0 -29 -1 -29 -3z"/>
<path d="M6695 5960 l-30 -6 38 -5 c20 -3 37 -1 37 4 0 4 5 5 10 2 6 -3 10 -2
10 4 0 10 -16 11 -65 1z"/>
<path d="M6500 5940 l-65 -7 62 -1 c34 -1 65 3 68 8 3 6 5 9 3 8 -2 -1 -32 -4
-68 -8z"/>
<path d="M6103 5923 c32 -2 81 -2 110 0 29 2 3 3 -58 3 -60 0 -84 -1 -52 -3z"/>
<path d="M6308 5923 c12 -2 32 -2 45 0 12 2 2 4 -23 4 -25 0 -35 -2 -22 -4z"/>
<path d="M6575 5899 c-4 -6 -5 -12 -2 -15 2 -3 7 2 10 11 7 17 1 20 -8 4z"/>
<path d="M6592 5878 c-7 -7 -12 -17 -12 -24 0 -18 -27 -25 -34 -9 -3 9 0 12
10 8 7 -3 14 0 14 5 0 23 -18 20 -51 -8 -19 -16 -40 -29 -47 -30 -6 0 -27 -8
-45 -18 -27 -14 -31 -20 -21 -30 7 -6 20 -9 29 -6 20 8 16 -16 -4 -32 -18 -14
-47 9 -35 27 4 8 3 9 -4 5 -16 -10 -15 -31 3 -46 8 -7 13 -16 10 -20 -3 -4 3
-10 13 -12 19 -5 127 -1 157 6 11 2 26 5 33 5 6 1 12 10 12 20 0 11 6 26 13
33 7 7 12 30 12 50 -1 28 1 35 10 28 8 -7 12 -5 12 4 0 8 -12 12 -34 11 -39
-2 -51 9 -27 23 9 5 12 12 7 15 -5 4 -15 1 -21 -5z m-62 -52 c0 -8 -7 -16 -15
-20 -12 -4 -13 -2 -2 14 14 24 17 25 17 6z m90 -70 c0 -3 -4 -8 -10 -11 -5 -3
-10 -1 -10 4 0 6 5 11 10 11 6 0 10 -2 10 -4z"/>
<path d="M6328 5793 c7 -3 16 -2 19 1 4 3 -2 6 -13 5 -11 0 -14 -3 -6 -6z"/>
<path d="M6278 5663 c7 -3 16 -2 19 1 4 3 -2 6 -13 5 -11 0 -14 -3 -6 -6z"/>
<path d="M3935 5473 c-11 -2 -29 -8 -40 -13 -11 -5 -27 -11 -35 -13 -8 -3 -1
-6 17 -6 17 -1 35 4 38 9 3 6 15 10 26 10 12 0 17 -4 14 -11 -4 -6 -13 -8 -21
-5 -8 3 -14 1 -14 -4 0 -6 19 -11 43 -11 l42 -1 -38 -8 c-51 -10 -62 -23 -12
-15 22 4 47 9 56 11 8 2 24 -3 35 -11 10 -8 23 -15 28 -15 5 0 -17 20 -48 45
-32 25 -61 44 -65 44 -3 -1 -15 -3 -26 -6z"/>
<path d="M3840 5400 c0 -13 18 -22 24 -11 3 5 -1 11 -9 15 -8 3 -15 1 -15 -4z"/>
<path d="M3955 5390 c-3 -5 1 -10 9 -10 9 0 16 5 16 10 0 6 -4 10 -9 10 -6 0
-13 -4 -16 -10z"/>
<path d="M3685 5340 c-13 -5 -14 -9 -5 -9 8 0 24 4 35 9 13 5 14 9 5 9 -8 0
-24 -4 -35 -9z"/>
<path d="M5835 5320 c-3 -6 1 -7 9 -4 18 7 21 14 7 14 -6 0 -13 -4 -16 -10z"/>
<path d="M5818 5298 c5 -5 16 -8 23 -6 8 3 3 7 -10 11 -17 4 -21 3 -13 -5z"/>
<path d="M5703 5262 c-63 -28 -79 -38 -67 -45 21 -12 113 22 93 34 -10 6 -6
11 14 18 16 6 32 11 37 11 5 0 12 5 15 10 10 15 -3 11 -92 -28z m-8 -27 c-16
-8 -37 -14 -45 -14 -8 0 1 7 20 14 46 18 64 17 25 0z"/>
<path d="M4167 5200 c3 -11 10 -20 15 -20 5 0 6 -5 3 -10 -4 -6 -11 -7 -17 -4
-7 4 -8 2 -4 -5 13 -21 38 7 26 29 -15 27 -29 33 -23 10z"/>
<path d="M5580 5210 c-8 -5 -10 -10 -5 -10 6 0 17 5 25 10 8 5 11 10 5 10 -5
0 -17 -5 -25 -10z"/>
<path d="M5718 5213 c7 -3 16 -2 19 1 4 3 -2 6 -13 5 -11 0 -14 -3 -6 -6z"/>
<path d="M4853 5203 c15 -2 37 -2 50 0 12 2 0 4 -28 4 -27 0 -38 -2 -22 -4z"/>
<path d="M5540 5190 c0 -5 5 -10 10 -10 6 0 10 5 10 10 0 6 -4 10 -10 10 -5 0
-10 -4 -10 -10z"/>
<path d="M4368 5183 c12 -2 32 -2 45 0 12 2 2 4 -23 4 -25 0 -35 -2 -22 -4z"/>
<path d="M5514 5182 c6 -10 1 -11 -21 -7 l-28 5 28 -11 c32 -13 47 -5 27 14
-10 9 -11 9 -6 -1z"/>
<path d="M5426 5161 c-30 -12 -1 -24 37 -15 28 6 30 8 12 15 -25 9 -25 9 -49
0z"/>
<path d="M4166 5129 c4 -8 30 -6 38 2 3 3 -5 5 -19 5 -13 0 -22 -3 -19 -7z"/>
<path d="M5245 5109 c-123 -36 -330 -81 -370 -81 -25 0 -27 -1 -10 -8 11 -4
30 -6 42 -3 12 3 27 1 34 -3 7 -4 50 -7 96 -6 66 1 83 -2 83 -13 0 -17 36 -19
113 -9 39 6 46 10 49 34 2 15 3 31 1 36 -2 5 -33 9 -69 8 -46 -1 -61 2 -49 9
9 5 31 6 48 3 35 -7 95 11 117 35 11 12 29 16 65 14 34 -2 43 0 30 5 -35 15
-77 10 -180 -21z m15 -19 c0 -5 -4 -10 -9 -10 -6 0 -13 5 -16 10 -3 6 1 10 9
10 9 0 16 -4 16 -10z m-125 -40 c-3 -5 -12 -7 -20 -3 -21 7 -19 13 6 13 11 0
18 -4 14 -10z m68 3 c3 -5 -6 -9 -20 -10 -19 -1 -22 1 -12 8 17 11 26 11 32 2z
m64 -9 c-3 -3 -12 -4 -19 -1 -8 3 -5 6 6 6 11 1 17 -2 13 -5z"/>
<path d="M5480 5130 c-18 -12 -2 -12 25 0 13 6 15 9 5 9 -8 0 -22 -4 -30 -9z"/>
<path d="M5855 5130 c-3 -5 -1 -10 4 -10 6 0 11 5 11 10 0 6 -2 10 -4 10 -3 0
-8 -4 -11 -10z"/>
<path d="M5870 5096 c0 -8 4 -17 9 -20 5 -4 7 3 4 14 -6 23 -13 26 -13 6z"/>
<path d="M5338 5043 c7 -3 16 -2 19 1 4 3 -2 6 -13 5 -11 0 -14 -3 -6 -6z"/>
<path d="M4880 4996 c0 -2 9 -6 20 -9 11 -3 18 -1 14 4 -5 9 -34 13 -34 5z"/>
<path d="M5405 4950 c-3 -6 1 -7 9 -4 18 7 21 14 7 14 -6 0 -13 -4 -16 -10z"/>
<path d="M5446 4945 c6 -15 49 -20 79 -9 13 5 14 8 3 15 -7 5 -20 8 -28 8 -10
0 -8 -3 5 -9 19 -8 19 -9 -2 -9 -12 -1 -25 4 -28 9 -10 16 -35 12 -29 -5z"/>
<path d="M5628 4953 c6 -2 18 -2 25 0 6 3 1 5 -13 5 -14 0 -19 -2 -12 -5z"/>
<path d="M5608 4933 c7 -3 16 -2 19 1 4 3 -2 6 -13 5 -11 0 -14 -3 -6 -6z"/>
<path d="M4288 4863 c7 -3 16 -2 19 1 4 3 -2 6 -13 5 -11 0 -14 -3 -6 -6z"/>
<path d="M4836 4788 c6 -9 64 -7 64 3 0 4 -15 7 -34 6 -19 -1 -32 -5 -30 -9z"/>
<path d="M5738 4763 c7 -3 16 -2 19 1 4 3 -2 6 -13 5 -11 0 -14 -3 -6 -6z"/>
<path d="M5778 4763 c6 -2 18 -2 25 0 6 3 1 5 -13 5 -14 0 -19 -2 -12 -5z"/>
<path d="M5780 4750 l-45 -7 40 -1 c22 -1 47 3 55 8 8 5 11 9 5 8 -5 0 -30 -4
-55 -8z"/>
<path d="M5440 4740 c0 -5 5 -10 11 -10 5 0 7 5 4 10 -3 6 -8 10 -11 10 -2 0
-4 -4 -4 -10z"/>
<path d="M5190 4690 c8 -5 26 -10 39 -10 32 0 24 6 -19 14 -25 4 -31 3 -20 -4z"/>
<path d="M5071 4594 c0 -11 3 -14 6 -6 3 7 2 16 -1 19 -3 4 -6 -2 -5 -13z"/>
<path d="M4718 4583 c6 -2 18 -2 25 0 6 3 1 5 -13 5 -14 0 -19 -2 -12 -5z"/>
<path d="M5051 4574 c0 -11 3 -14 6 -6 3 7 2 16 -1 19 -3 4 -6 -2 -5 -13z"/>
<path d="M5980 4350 c0 -5 5 -10 10 -10 6 0 10 5 10 10 0 6 -4 10 -10 10 -5 0
-10 -4 -10 -10z"/>
<path d="M4778 4333 c7 -3 16 -2 19 1 4 3 -2 6 -13 5 -11 0 -14 -3 -6 -6z"/>
<path d="M5828 4303 c12 -2 30 -2 40 0 9 3 -1 5 -23 4 -22 0 -30 -2 -17 -4z"/>
<path d="M5738 4293 c12 -2 30 -2 40 0 9 3 -1 5 -23 4 -22 0 -30 -2 -17 -4z"/>
<path d="M5658 4283 c12 -2 30 -2 40 0 9 3 -1 5 -23 4 -22 0 -30 -2 -17 -4z"/>
<path d="M5608 4273 c7 -3 16 -2 19 1 4 3 -2 6 -13 5 -11 0 -14 -3 -6 -6z"/>
<path d="M5528 4263 c7 -3 16 -2 19 1 4 3 -2 6 -13 5 -11 0 -14 -3 -6 -6z"/>
<path d="M4765 4220 c27 -12 43 -12 25 0 -8 5 -22 9 -30 9 -10 0 -8 -3 5 -9z"/>
<path d="M5175 4200 c-28 -7 -28 -8 -5 -9 14 0 32 4 40 9 17 11 8 11 -35 0z"/>
<path d="M4938 4183 c7 -3 16 -2 19 1 4 3 -2 6 -13 5 -11 0 -14 -3 -6 -6z"/>
<path d="M5048 4183 c6 -2 18 -2 25 0 6 3 1 5 -13 5 -14 0 -19 -2 -12 -5z"/>
<path d="M5470 4046 c23 -9 30 -15 20 -18 -8 -3 -5 -3 8 -1 14 2 21 -1 20 -9
-2 -10 16 -12 72 -11 63 2 72 1 58 -10 -15 -12 -14 -15 6 -32 16 -14 20 -23
12 -30 -23 -23 -53 -25 -178 -9 -71 8 -132 14 -134 11 -3 -2 37 -9 88 -16 51
-6 125 -16 163 -22 83 -13 429 -86 465 -99 44 -15 97 -23 80 -11 -24 17 -2 13
24 -4 12 -8 33 -15 47 -15 13 0 42 -2 64 -6 30 -4 36 -3 25 5 -10 7 -11 11 -2
11 6 0 12 5 12 10 0 6 -7 10 -15 10 -8 0 -15 -4 -15 -10 0 -13 -37 -13 -45 -1
-3 5 3 12 12 14 13 3 11 5 -7 7 -71 6 -112 5 -116 -2 -3 -4 -11 -8 -17 -8 -7
0 -3 8 8 16 19 15 18 16 -15 9 -19 -4 -32 -4 -28 0 4 4 25 9 47 11 21 1 63 14
93 28 30 14 63 26 74 26 10 0 26 5 34 10 12 8 12 10 -5 10 -11 0 -37 3 -57 6
-26 5 -38 3 -38 -5 0 -7 5 -9 13 -5 8 5 8 3 -2 -9 -16 -20 -34 -12 -26 12 4
14 -6 19 -59 30 -36 7 -70 10 -77 5 -7 -4 -10 -3 -6 3 4 6 -12 13 -41 16 -26
4 -112 18 -191 32 -79 14 -168 27 -196 28 -29 1 -50 6 -47 11 3 5 -11 6 -33 3
-24 -4 -48 -1 -66 8 -15 8 -36 15 -46 14 -10 0 -2 -6 17 -13z m93 -33 c-7 -2
-21 -2 -30 0 -10 3 -4 5 12 5 17 0 24 -2 18 -5z m322 -43 c3 -5 -1 -10 -9 -10
-9 0 -16 5 -16 10 0 6 4 10 9 10 6 0 13 -4 16 -10z m88 -17 c-7 -2 -19 -2 -25
0 -7 3 -2 5 12 5 14 0 19 -2 13 -5z m-51 -15 c-4 -4 -21 -3 -37 1 -30 9 -30 9
7 8 20 -1 34 -5 30 -9z m61 -5 c-7 -2 -19 -2 -25 0 -7 3 -2 5 12 5 14 0 19 -2
13 -5z m-182 -31 c14 -5 38 -8 55 -6 27 3 27 3 4 -4 l-25 -8 25 -6 c14 -3 33
-9 43 -13 10 -4 17 -3 17 3 0 6 -8 13 -17 15 -10 3 -5 5 12 6 20 1 34 -6 42
-18 18 -28 -12 -35 -66 -16 -24 8 -48 12 -54 8 -6 -3 -7 -1 -3 5 4 7 1 13 -6
14 -7 0 -26 2 -43 4 -54 6 -105 16 -109 23 -6 10 96 4 125 -7z m118 14 c-8 -8
-88 -10 -95 -3 -4 4 17 7 46 7 29 0 51 -2 49 -4z m108 -32 c-3 -3 -12 -4 -19
-1 -8 3 -5 6 6 6 11 1 17 -2 13 -5z m40 0 c-3 -3 -12 -4 -19 -1 -8 3 -5 6 6 6
11 1 17 -2 13 -5z m3 -24 c-20 -13 -70 -13 -70 0 0 6 19 10 43 10 31 0 38 -3
27 -10z m-13 -36 c-3 -3 -12 -4 -19 -1 -8 3 -5 6 6 6 11 1 17 -2 13 -5z m156
-31 c-7 -2 -19 -2 -25 0 -7 3 -2 5 12 5 14 0 19 -2 13 -5z"/>
<path d="M5750 3900 c8 -5 22 -9 30 -9 10 0 8 3 -5 9 -27 12 -43 12 -25 0z"/>
<path d="M5398 4033 c6 -2 18 -2 25 0 6 3 1 5 -13 5 -14 0 -19 -2 -12 -5z"/>
<path d="M5345 3970 c27 -12 43 -12 25 0 -8 5 -22 9 -30 9 -10 0 -8 -3 5 -9z"/>
<path d="M4905 3935 c-26 -12 -27 -14 -8 -15 12 0 25 5 29 11 3 6 18 8 33 5
19 -5 22 -4 11 4 -19 12 -28 12 -65 -5z"/>
<path d="M5293 3943 c9 -2 25 -2 35 0 9 3 1 5 -18 5 -19 0 -27 -2 -17 -5z"/>
<path d="M5041 3928 c-1 -9 -8 -24 -17 -33 -9 -9 -14 -18 -11 -21 9 -9 39 44
34 58 -4 9 -6 7 -6 -4z"/>
<path d="M4590 3906 c0 -2 7 -9 15 -16 13 -11 14 -10 9 4 -5 14 -24 23 -24 12z"/>
<path d="M6313 3887 c-48 -12 -58 -28 -15 -26 15 1 43 -1 62 -6 19 -4 32 -4
28 0 -4 4 -22 11 -40 15 -31 7 -31 8 -6 9 15 1 30 6 33 11 7 12 -4 11 -62 -3z"/>
<path d="M6385 3880 c-17 -7 -17 -9 -2 -9 9 -1 17 -8 17 -16 0 -14 3 -14 25 1
13 9 30 14 37 11 8 -3 4 -9 -12 -16 -22 -10 -21 -11 15 -6 l40 6 -30 -19 c-16
-11 -42 -31 -57 -45 -15 -14 -42 -28 -60 -30 -27 -4 -25 -5 12 -5 25 -1 61 -4
80 -8 26 -4 31 -3 20 5 -8 6 -11 11 -6 11 5 0 17 -6 25 -14 23 -20 176 -37
231 -26 60 12 76 12 65 1 -6 -5 -26 -11 -45 -13 -20 -2 37 -13 129 -26 89 -13
166 -21 169 -18 3 3 -1 6 -8 6 -7 0 -10 3 -7 7 4 3 15 -1 25 -10 12 -11 43
-18 93 -21 56 -4 61 -3 22 2 -28 4 -55 11 -60 16 -4 4 6 4 22 0 26 -6 28 -5
18 8 -7 8 -10 18 -6 21 3 4 1 7 -5 7 -5 0 -12 -6 -15 -12 -2 -7 -8 -10 -12 -6
-14 13 4 38 27 38 23 1 23 1 3 16 -18 13 -17 14 14 8 22 -5 32 -4 28 3 -4 6
-28 13 -54 17 -87 12 -147 23 -278 49 -310 61 -432 79 -460 67z m158 -27 c-7
-2 -19 -2 -25 0 -7 3 -2 5 12 5 14 0 19 -2 13 -5z m124 -29 c-3 -3 -12 -4 -19
-1 -8 3 -5 6 6 6 11 1 17 -2 13 -5z m71 -11 c-10 -2 -26 -2 -35 0 -10 3 -2 5
17 5 19 0 27 -2 18 -5z m77 -3 c25 -11 -1 -11 -35 0 -20 6 -21 8 -5 8 11 0 29
-3 40 -8z m-114 -12 c44 2 81 -1 95 -8 13 -8 43 -11 73 -8 30 3 48 1 45 -4 -4
-5 -34 -9 -68 -8 -83 3 -92 2 -80 -10 5 -5 34 -14 64 -19 l55 -10 -59 4 c-40
3 -62 9 -68 19 -10 17 -38 22 -38 7 0 -5 -12 -12 -27 -14 -23 -3 -20 -5 12 -7
l40 -3 -50 -7 c-27 -4 -59 -3 -70 1 -16 6 -17 8 -3 8 28 1 31 20 4 32 -19 9
-22 14 -13 24 7 7 13 10 14 7 2 -4 35 -5 74 -4z m186 -4 c-3 -3 -12 -4 -19 -1
-8 3 -5 6 6 6 11 1 17 -2 13 -5z m100 -30 c-3 -3 -12 -4 -19 -1 -8 3 -5 6 6 6
11 1 17 -2 13 -5z m-130 -10 c-3 -3 -12 -4 -19 -1 -8 3 -5 6 6 6 11 1 17 -2
13 -5z m-287 -14 c8 -5 11 -10 5 -10 -5 0 -17 5 -25 10 -8 5 -10 10 -5 10 6 0
17 -5 25 -10z m280 -30 c10 -6 2 -9 -27 -7 -24 1 -37 5 -30 9 16 10 39 10 57
-2z"/>
<path d="M6705 3780 c-13 -6 -5 -7 25 -3 25 3 47 7 49 9 9 8 -55 2 -74 -6z"/>
<path d="M4990 3860 c0 -5 5 -10 11 -10 5 0 7 5 4 10 -3 6 -8 10 -11 10 -2 0
-4 -4 -4 -10z"/>
<path d="M4677 3833 c-3 -4 6 -21 19 -36 13 -16 24 -24 24 -18 0 5 -5 13 -10
16 -8 5 -7 12 2 23 7 10 8 14 4 10 -5 -4 -15 -3 -22 3 -7 5 -14 6 -17 2z"/>
<path d="M4997 3833 c-10 -10 -8 -25 2 -19 5 3 12 -1 15 -9 4 -12 9 -13 24 -4
15 9 30 9 65 1 25 -7 61 -12 79 -11 21 0 7 6 -38 14 -39 7 -80 18 -92 24 -23
12 -45 14 -55 4z"/>
<path d="M5055 3790 c11 -5 31 -9 45 -9 23 0 23 1 5 9 -11 5 -31 9 -45 9 -23
0 -23 -1 -5 -9z"/>
<path d="M5220 3780 c-13 -9 -13 -10 0 -9 8 0 24 4 35 9 l20 9 -20 0 c-11 0
-27 -4 -35 -9z"/>
<path d="M5040 3770 c0 -5 14 -10 32 -10 36 0 35 4 -4 14 -17 4 -28 2 -28 -4z"/>
<path d="M5165 3770 c-8 -13 5 -13 25 0 13 8 13 10 -2 10 -9 0 -20 -4 -23 -10z"/>
<path d="M5263 3763 c9 -2 23 -2 30 0 6 3 -1 5 -18 5 -16 0 -22 -2 -12 -5z"/>
<path d="M5345 3755 c19 -16 19 -16 -10 -10 -25 5 -27 4 -12 -5 9 -6 36 -12
60 -12 l42 -1 -35 -13 c-44 -16 -35 -17 30 -3 64 14 66 34 3 44 -27 3 -59 9
-73 11 -25 5 -25 5 -5 -11z m58 -12 c-7 -2 -19 -2 -25 0 -7 3 -2 5 12 5 14 0
19 -2 13 -5z"/>
<path d="M4755 3749 c-3 -3 5 -15 17 -25 12 -11 18 -13 14 -6 -4 7 -3 18 3 25
7 9 5 13 -10 13 -11 0 -22 -3 -24 -7z"/>
<path d="M6128 3733 c6 -2 18 -2 25 0 6 3 1 5 -13 5 -14 0 -19 -2 -12 -5z"/>
<path d="M6213 3723 c9 -2 23 -2 30 0 6 3 -1 5 -18 5 -16 0 -22 -2 -12 -5z"/>
<path d="M5303 3713 c9 -2 23 -2 30 0 6 3 -1 5 -18 5 -16 0 -22 -2 -12 -5z"/>
<path d="M4890 3670 c0 -5 5 -10 10 -10 6 0 10 5 10 10 0 6 -4 10 -10 10 -5 0
-10 -4 -10 -10z"/>
<path d="M4961 3634 c0 -11 3 -14 6 -6 3 7 2 16 -1 19 -3 4 -6 -2 -5 -13z"/>
<path d="M5027 3620 c-15 -24 -14 -28 6 -60 26 -43 38 -53 102 -84 139 -68
607 -163 629 -128 9 15 -30 39 -84 51 -104 23 -474 168 -560 219 -58 34 -74
34 -93 2z"/>
<path d="M7255 3640 c-29 -8 -29 -8 8 -7 20 1 37 5 37 9 0 9 -3 9 -45 -2z"/>
<path d="M4943 3585 c0 -8 4 -12 9 -9 5 3 6 10 3 15 -9 13 -12 11 -12 -6z"/>
<path d="M5029 3518 c-5 -18 -6 -38 -1 -34 7 8 12 36 6 36 -2 0 -4 -1 -5 -2z"/>
<path d="M5051 3497 c2 -1 13 -9 24 -17 19 -14 19 -14 6 3 -7 9 -18 17 -24 17
-6 0 -8 -1 -6 -3z"/>
<path d="M5060 3464 c0 -5 10 -15 21 -22 19 -12 24 -11 38 4 15 17 15 17 -2 5
-15 -12 -20 -11 -37 4 -11 10 -20 14 -20 9z"/>
<path d="M5880 3361 c0 -33 46 -52 182 -76 94 -17 175 -19 232 -5 29 6 43 5
50 -4 6 -7 23 -17 38 -24 24 -10 26 -9 21 5 -5 13 -2 15 13 9 10 -4 61 -15
112 -24 50 -9 92 -19 92 -22 0 -3 -29 -7 -65 -8 -49 -1 -63 2 -59 12 3 7 -2
13 -10 13 -8 0 -12 -5 -9 -10 3 -5 -1 -13 -8 -18 -8 -4 46 -7 123 -5 99 2 135
-1 132 -9 -5 -11 54 -22 221 -42 37 -4 45 -8 30 -13 -11 -4 10 -7 50 -6 39 1
84 -2 100 -7 20 -5 23 -4 10 1 l-20 9 20 5 c17 5 18 6 2 7 -11 1 -15 6 -11 13
4 6 3 8 -3 5 -6 -4 -35 -2 -64 3 -30 5 -72 11 -95 14 -22 2 -56 7 -75 10 -19
3 -55 8 -81 11 -26 3 -68 9 -94 14 -26 5 -54 6 -62 3 -9 -3 -13 -1 -9 4 3 5
-2 10 -11 11 -19 0 -146 25 -242 46 -36 8 -70 12 -77 10 -7 -3 -13 0 -13 6 0
7 -6 11 -12 10 -7 -1 -20 0 -28 3 -81 31 -257 67 -322 68 -50 0 -58 -3 -58
-19z m1107 -197 c-3 -3 -12 -4 -19 -1 -8 3 -5 6 6 6 11 1 17 -2 13 -5z m76
-11 c-13 -2 -33 -2 -45 0 -13 2 -3 4 22 4 25 0 35 -2 23 -4z m54 -9 c-3 -3
-12 -4 -19 -1 -8 3 -5 6 6 6 11 1 17 -2 13 -5z"/>
<path d="M5336 3228 c3 -5 10 -6 15 -3 13 9 11 12 -6 12 -8 0 -12 -4 -9 -9z"/>
<path d="M6523 3223 c9 -2 23 -2 30 0 6 3 -1 5 -18 5 -16 0 -22 -2 -12 -5z"/>
<path d="M5848 3213 c7 -3 16 -2 19 1 4 3 -2 6 -13 5 -11 0 -14 -3 -6 -6z"/>
<path d="M5923 3203 c9 -2 25 -2 35 0 9 3 1 5 -18 5 -19 0 -27 -2 -17 -5z"/>
<path d="M5991 3196 c2 -2 24 -6 48 -9 29 -4 40 -2 30 4 -13 8 -88 14 -78 5z"/>
<path d="M6138 3173 c7 -3 16 -2 19 1 4 3 -2 6 -13 5 -11 0 -14 -3 -6 -6z"/>
<path d="M6228 3163 c12 -2 30 -2 40 0 9 3 -1 5 -23 4 -22 0 -30 -2 -17 -4z"/>
<path d="M7180 3150 l25 -8 -24 -1 c-13 -1 -22 -4 -18 -7 3 -4 18 -3 34 0 21
6 24 9 12 17 -7 5 -23 8 -34 8 -16 -1 -16 -2 5 -9z"/>
<path d="M6893 3133 c9 -2 23 -2 30 0 6 3 -1 5 -18 5 -16 0 -22 -2 -12 -5z"/>
<path d="M7225 3130 c-14 -7 -8 -8 20 -3 22 3 42 7 44 9 9 8 -45 2 -64 -6z"/>
<path d="M7296 3125 c-3 -9 -5 -31 -5 -48 1 -27 3 -24 9 13 8 48 6 61 -4 35z"/>
<path d="M6448 3123 c6 -2 18 -2 25 0 6 3 1 5 -13 5 -14 0 -19 -2 -12 -5z"/>
<path d="M7048 3123 c7 -3 16 -2 19 1 4 3 -2 6 -13 5 -11 0 -14 -3 -6 -6z"/>
<path d="M6508 3113 c6 -2 18 -2 25 0 6 3 1 5 -13 5 -14 0 -19 -2 -12 -5z"/>
<path d="M6576 3111 c-11 -4 22 -12 90 -20 138 -17 143 -18 179 -26 34 -8 24
9 -10 19 -11 3 -6 4 12 2 18 -1 30 1 27 5 -2 4 10 10 27 14 17 4 28 9 26 12
-4 3 -62 -10 -127 -29 -8 -3 -12 -3 -7 -1 4 3 7 12 7 20 0 11 -3 13 -13 5 -8
-7 -18 -7 -27 -2 -8 6 -28 9 -45 9 -21 -1 -24 -3 -10 -6 11 -3 24 -9 30 -14
10 -10 -30 -5 -95 12 -40 10 -39 10 -64 0z"/>
<path d="M5870 3101 c0 -5 7 -12 16 -15 14 -5 15 -4 4 9 -14 17 -20 19 -20 6z"/>
<path d="M6900 3086 c0 -8 61 -12 66 -4 3 4 -11 8 -30 8 -20 0 -36 -2 -36 -4z"/>
<path d="M5914 3055 c1 -8 8 -21 16 -28 10 -9 11 -9 6 1 -9 14 3 16 24 2 11
-7 12 -12 4 -17 -9 -6 -8 -11 1 -20 11 -10 13 -8 12 13 -1 16 -13 32 -34 45
-26 16 -31 17 -29 4z"/>
<path d="M6901 3061 c8 -5 69 -17 134 -25 136 -18 148 -19 141 -8 -2 4 -31 9
-63 10 -32 1 -71 7 -88 12 -16 5 -39 9 -50 9 -11 -1 -36 2 -55 6 -25 4 -31 3
-19 -4z"/>
<path d="M5625 3020 c3 -5 8 -10 11 -10 2 0 4 5 4 10 0 6 -5 10 -11 10 -5 0
-7 -4 -4 -10z"/>
<path d="M7265 2980 c-15 -17 -16 -20 -3 -20 9 0 18 9 21 20 3 11 4 20 3 20
-2 0 -11 -9 -21 -20z"/>
<path d="M5935 2980 c3 -5 11 -10 16 -10 6 0 7 5 4 10 -3 6 -11 10 -16 10 -6
0 -7 -4 -4 -10z"/>
<path d="M7286 2926 c-9 -36 -16 -75 -16 -88 0 -13 -7 -36 -15 -52 -18 -33
-19 -46 -5 -46 6 0 10 7 10 15 0 8 4 23 9 33 10 18 43 194 37 199 -2 2 -11
-25 -20 -61z"/>
<path d="M5990 2976 c0 -2 7 -7 16 -10 8 -3 12 -2 9 4 -6 10 -25 14 -25 6z"/>
<path d="M5700 2951 c0 -6 4 -12 8 -15 5 -3 9 1 9 9 0 8 -4 15 -9 15 -4 0 -8
-4 -8 -9z"/>
<path d="M6070 2955 c0 -4 10 -16 23 -27 17 -16 18 -18 4 -14 -24 8 -12 -10
16 -26 20 -10 21 -10 8 5 -7 10 -10 17 -6 17 11 0 95 -63 90 -68 -2 -3 -11 1
-20 8 -9 7 -18 10 -21 7 -3 -3 4 -11 16 -17 18 -10 20 -14 9 -21 -11 -7 -11
-9 2 -9 9 0 19 7 23 15 3 8 11 15 17 15 7 0 9 -3 6 -7 -4 -3 0 -15 9 -25 12
-12 24 -16 42 -11 17 4 23 2 18 -6 -5 -7 1 -11 16 -11 13 0 50 -9 82 -20 33
-11 69 -20 80 -19 12 0 -6 9 -39 20 -33 10 -78 26 -100 36 -54 24 -203 109
-242 139 -18 14 -33 22 -33 19z m201 -143 c-7 -2 -18 1 -23 6 -8 8 -4 9 13 5
13 -4 18 -8 10 -11z"/>
<path d="M5738 2923 c6 -2 9 -10 6 -15 -4 -7 -2 -8 5 -4 13 9 5 26 -12 25 -9
0 -8 -2 1 -6z"/>
<path d="M7086 2892 c-2 -4 4 -8 14 -8 10 0 16 4 14 8 -3 4 -9 8 -14 8 -5 0
-11 -4 -14 -8z"/>
<path d="M7237 2893 c-4 -3 -7 -26 -7 -50 0 -43 -15 -59 -23 -25 -2 9 -3 -14
-2 -53 1 -38 0 -60 -2 -47 -4 18 -11 22 -44 22 -21 0 -39 -4 -39 -10 0 -5 -11
-10 -25 -10 -14 0 -25 -4 -25 -10 0 -5 7 -10 15 -10 8 0 15 -6 15 -12 1 -22
34 -54 64 -62 21 -5 34 -2 49 11 19 17 20 17 14 1 -4 -10 -2 -18 3 -18 10 0
25 88 16 97 -3 4 -6 -9 -7 -28 l-1 -34 -8 29 c-11 35 -6 106 8 115 6 3 11 25
13 48 3 42 -2 59 -14 46z m-26 -236 c-8 -8 -11 -7 -11 4 0 20 13 34 18 19 3
-7 -1 -17 -7 -23z"/>
<path d="M5825 2871 c-3 -5 0 -13 6 -17 7 -4 9 -3 5 4 -3 5 0 13 6 15 9 4 10
6 1 6 -6 1 -14 -3 -18 -8z"/>
<path d="M7010 2866 c0 -2 7 -7 16 -10 8 -3 12 -2 9 4 -6 10 -25 14 -25 6z"/>
<path d="M6976 2841 c-7 -10 -139 -63 -226 -89 l-65 -20 70 3 c99 4 98 3 91
20 -3 8 0 15 7 16 42 3 56 8 76 28 12 12 26 19 31 16 6 -4 10 -1 10 5 0 7 7 7
23 -1 19 -11 20 -10 10 3 -7 8 -10 18 -6 21 3 4 1 7 -5 7 -6 0 -13 -4 -16 -9z"/>
<path d="M5890 2836 c0 -2 7 -7 16 -10 8 -3 12 -2 9 4 -6 10 -25 14 -25 6z"/>
<path d="M7010 2836 c0 -2 7 -7 16 -10 8 -3 12 -2 9 4 -6 10 -25 14 -25 6z"/>
<path d="M6865 2760 c-3 -5 -1 -10 4 -10 6 0 11 5 11 10 0 6 -2 10 -4 10 -3 0
-8 -4 -11 -10z"/>
<path d="M6528 2733 c7 -3 16 -2 19 1 4 3 -2 6 -13 5 -11 0 -14 -3 -6 -6z"/>
<path d="M6821 2707 c13 -4 53 -10 89 -12 58 -2 60 -2 15 4 -49 7 -49 7 -15
12 20 3 3 5 -39 5 -54 0 -67 -2 -50 -9z"/>
<path d="M6761 2696 c2 -2 27 -6 54 -9 34 -4 42 -3 25 3 -25 8 -87 13 -79 6z"/>
<path d="M7003 2683 c9 -2 23 -2 30 0 6 3 -1 5 -18 5 -16 0 -22 -2 -12 -5z"/>
<path d="M6910 2669 c25 -4 59 -7 75 -7 l30 0 -30 8 c-16 4 -50 8 -75 8 l-45
-1 45 -8z"/>
<path d="M6408 4303 c7 -3 16 -2 19 1 4 3 -2 6 -13 5 -11 0 -14 -3 -6 -6z"/>
<path d="M6470 4280 c-13 -9 -13 -11 0 -20 8 -5 24 -9 35 -9 16 1 16 2 -5 9
-14 4 -19 8 -12 9 6 1 12 6 12 11 0 13 -11 13 -30 0z"/>
<path d="M6780 4220 c-23 -7 -23 -8 -3 -9 12 -1 25 4 28 9 3 6 5 10 3 9 -2 -1
-14 -5 -28 -9z"/>
<path d="M6670 4206 c0 -2 7 -6 15 -10 8 -3 15 -1 15 4 0 6 -7 10 -15 10 -8 0
-15 -2 -15 -4z"/>
<path d="M6921 4157 c2 -1 14 -11 27 -21 12 -11 22 -16 22 -13 0 10 -31 37
-42 37 -6 0 -9 -1 -7 -3z"/>
<path d="M6850 4131 c0 -5 7 -11 14 -14 10 -4 13 -1 9 9 -6 15 -23 19 -23 5z"/>
<path d="M6927 4106 c10 -13 20 -20 21 -15 5 12 -17 39 -30 39 -5 0 -1 -11 9
-24z"/>
<path d="M7000 4100 c-9 -6 -10 -10 -3 -10 6 0 15 5 18 10 8 12 4 12 -15 0z"/>
<path d="M7005 4070 c3 -5 11 -10 16 -10 6 0 7 5 4 10 -3 6 -11 10 -16 10 -6
0 -7 -4 -4 -10z"/>
<path d="M7055 4040 c14 -16 20 -17 27 -8 6 10 10 10 18 -2 5 -8 10 -10 10 -4
0 6 -6 17 -14 23 -11 9 -15 9 -20 -1 -5 -10 -7 -10 -12 0 -3 6 -10 12 -16 12
-6 0 -3 -9 7 -20z"/>
<path d="M7110 4002 c0 -6 44 -41 53 -42 4 0 7 5 7 11 0 5 -4 8 -9 5 -10 -6
-34 18 -26 26 3 2 -2 5 -10 5 -8 0 -15 -2 -15 -5z"/>
<path d="M2935 4030 c6 -10 4 -12 -9 -7 -11 5 -15 3 -10 -5 5 -8 2 -9 -10 -5
-10 4 -15 3 -11 -3 8 -13 18 -13 40 3 14 11 15 16 5 22 -9 6 -11 4 -5 -5z"/>
<path d="M3121 4065 c-1 -36 14 -55 44 -54 11 0 14 3 8 6 -21 8 -15 26 7 20
25 -6 27 8 3 17 -10 3 -23 9 -30 12 -8 3 -10 -2 -6 -18 4 -16 2 -20 -5 -13 -6
6 -12 21 -15 35 -4 22 -4 22 -6 -5z"/>
<path d="M3206 4014 c-5 -14 -4 -15 9 -4 17 14 19 20 6 20 -5 0 -12 -7 -15
-16z"/>
<path d="M2779 3903 c-12 -14 -12 -16 0 -9 9 6 12 5 9 -5 -3 -8 -10 -13 -16
-12 -17 4 -35 -24 -21 -33 7 -4 9 -3 5 4 -3 6 -2 13 3 16 5 3 11 0 14 -8 7
-18 57 -9 57 10 0 8 -5 14 -11 14 -5 0 -7 -4 -4 -10 3 -5 -1 -10 -9 -10 -11 0
-14 8 -11 30 4 35 2 36 -16 13z"/>
<path d="M2841 3894 c0 -11 3 -14 6 -6 3 7 2 16 -1 19 -3 4 -6 -2 -5 -13z"/>
<path d="M3390 3873 c0 -7 -5 -12 -12 -10 -6 1 -13 -7 -15 -18 -3 -15 -2 -17
5 -6 6 7 14 11 20 7 15 -9 22 7 11 24 -6 10 -9 11 -9 3z"/>
<path d="M3445 3800 c-3 -6 -3 -10 2 -9 21 4 24 -2 12 -18 -13 -16 -12 -17 3
-5 13 10 17 10 21 0 3 -7 6 -8 6 -2 1 18 -36 47 -44 34z"/>
<path d="M3083 3673 c9 -2 23 -2 30 0 6 3 -1 5 -18 5 -16 0 -22 -2 -12 -5z"/>
<path d="M3228 3673 c12 -2 30 -2 40 0 9 3 -1 5 -23 4 -22 0 -30 -2 -17 -4z"/>
<path d="M3418 3463 c7 -3 16 -2 19 1 4 3 -2 6 -13 5 -11 0 -14 -3 -6 -6z"/>
<path d="M3335 3450 c-28 -7 -29 -8 -4 -9 14 0 30 -6 36 -12 8 -8 13 -7 18 2
5 7 4 10 -3 5 -6 -3 -13 -2 -16 3 -4 5 2 12 11 14 12 3 13 5 3 5 -8 0 -28 -4
-45 -8z"/>
<path d="M3568 3453 c6 -2 18 -2 25 0 6 3 1 5 -13 5 -14 0 -19 -2 -12 -5z"/>
<path d="M3134 3368 l-19 -23 23 19 c21 18 27 26 19 26 -2 0 -12 -10 -23 -22z"/>
<path d="M3423 3372 c2 -12 8 -27 14 -33 15 -15 12 8 -5 36 -11 19 -12 19 -9
-3z"/>
<path d="M3060 3285 c-7 -9 -10 -18 -7 -21 3 -3 10 4 17 15 13 25 8 27 -10 6z"/>
<path d="M3006 3183 c-6 -14 -5 -15 5 -6 7 7 10 15 7 18 -3 3 -9 -2 -12 -12z"/>
<path d="M3874 3015 c22 -17 40 -20 32 -6 -3 5 -16 11 -28 14 -22 6 -22 5 -4
-8z"/>
<path d="M4095 2991 c15 -19 16 -23 4 -19 -9 4 -16 1 -16 -7 0 -7 6 -11 14 -8
18 7 16 -7 -4 -29 -9 -10 -11 -18 -6 -18 12 0 26 25 28 52 1 10 -7 25 -19 35
l-21 18 20 -24z"/>
<path d="M3858 2963 c-10 -2 -18 -9 -18 -14 0 -11 7 -11 50 6 30 12 31 13 10
13 -14 0 -33 -2 -42 -5z"/>
<path d="M4130 2931 c0 -6 5 -11 10 -11 6 0 10 -5 10 -11 0 -6 -9 -8 -20 -4
-11 4 -20 2 -20 -4 0 -6 11 -11 25 -11 28 0 33 21 10 40 -10 9 -15 9 -15 1z"/>
<path d="M3655 2915 c-27 -7 -43 -13 -35 -14 8 -1 26 -4 40 -6 22 -5 22 -4 5
4 -19 9 -18 10 5 10 14 1 32 6 40 11 19 12 7 11 -55 -5z"/>
<path d="M3970 2890 c0 -5 5 -10 10 -10 6 0 10 5 10 10 0 6 -4 10 -10 10 -5 0
-10 -4 -10 -10z"/>
<path d="M3698 2883 c6 -2 18 -2 25 0 6 3 1 5 -13 5 -14 0 -19 -2 -12 -5z"/>
<path d="M3778 2863 c7 -3 16 -2 19 1 4 3 -2 6 -13 5 -11 0 -14 -3 -6 -6z"/>
<path d="M3830 2846 c0 -3 9 -10 20 -16 11 -6 20 -8 20 -6 0 3 -9 10 -20 16
-11 6 -20 8 -20 6z"/>
<path d="M3906 2788 c3 -4 9 -8 15 -8 5 0 9 4 9 8 0 5 -7 9 -15 9 -8 0 -12 -4
-9 -9z"/>
<path d="M4060 2790 c0 -5 5 -10 10 -10 6 0 10 5 10 10 0 6 -4 10 -10 10 -5 0
-10 -4 -10 -10z"/>
<path d="M3945 2780 c-8 -13 3 -30 18 -30 7 0 6 4 -3 10 -13 9 -13 11 0 20 9
6 10 10 3 10 -6 0 -15 -4 -18 -10z"/>
<path d="M3987 2743 c-4 -6 13 -27 38 -48 25 -20 45 -33 45 -29 0 4 13 -5 29
-20 16 -15 31 -24 34 -19 6 10 -39 48 -57 48 -24 1 -37 16 -26 30 9 11 6 13
-15 10 -19 -2 -29 3 -34 18 -5 12 -10 16 -14 10z"/>
<path d="M4075 2709 c-4 -6 -5 -12 -2 -15 2 -3 7 2 10 11 7 17 1 20 -8 4z"/>
<path d="M4143 2652 c12 -13 14 -21 6 -29 -7 -7 1 -19 28 -40 52 -41 60 -44
60 -29 0 8 -5 12 -12 10 -6 -3 -24 9 -40 26 -32 34 -21 41 14 9 12 -12 25 -18
29 -14 3 3 0 10 -8 15 -13 8 -12 11 3 22 16 12 15 13 -9 15 -19 1 -23 -1 -13
-8 11 -7 11 -9 -3 -9 -10 0 -25 11 -34 25 -9 14 -21 25 -27 25 -5 0 -3 -8 6
-18z"/>
<path d="M3239 2636 c14 -14 32 -25 40 -25 13 1 12 2 -1 6 -10 2 -18 8 -18 11
0 4 -10 13 -22 21 -22 13 -22 13 1 -13z"/>
<path d="M3306 2600 c5 -5 25 -12 44 -15 36 -5 29 -1 -25 16 -20 6 -26 6 -19
-1z"/>
<path d="M4261 2551 c-22 -14 5 -44 32 -35 13 4 17 2 13 -5 -4 -6 -3 -11 2
-11 6 0 9 11 8 24 -1 20 -4 22 -19 14 -23 -12 -37 -1 -17 12 8 6 11 10 5 10
-5 0 -16 -4 -24 -9z"/>
<path d="M4490 2500 c0 -5 5 -10 10 -10 6 0 10 5 10 10 0 6 -4 10 -10 10 -5 0
-10 -4 -10 -10z"/>
<path d="M4317 2479 c7 -7 15 -10 18 -7 3 3 -2 9 -12 12 -14 6 -15 5 -6 -5z"/>
<path d="M4140 2471 c8 -5 42 -11 75 -14 43 -4 50 -4 25 2 -59 14 -116 21
-100 12z"/>
<path d="M3700 2405 c0 -27 44 -38 165 -42 132 -4 131 2 -10 36 -106 25 -155
27 -155 6z"/>
<path d="M3270 2250 c6 -11 13 -20 16 -20 2 0 0 9 -6 20 -6 11 -13 20 -16 20
-2 0 0 -9 6 -20z"/>
<path d="M3848 2233 c7 -3 16 -2 19 1 4 3 -2 6 -13 5 -11 0 -14 -3 -6 -6z"/>
<path d="M3928 2223 c6 -2 18 -2 25 0 6 3 1 5 -13 5 -14 0 -19 -2 -12 -5z"/>
<path d="M3304 2182 c0 -10 6 -19 13 -19 8 0 9 6 2 19 -5 10 -11 18 -12 18 -2
0 -3 -8 -3 -18z"/>
<path d="M4128 2193 c6 -2 18 -2 25 0 6 3 1 5 -13 5 -14 0 -19 -2 -12 -5z"/>
<path d="M4208 2183 c6 -2 18 -2 25 0 6 3 1 5 -13 5 -14 0 -19 -2 -12 -5z"/>
<path d="M5133 2093 c9 -2 23 -2 30 0 6 3 -1 5 -18 5 -16 0 -22 -2 -12 -5z"/>
<path d="M5235 2050 c3 -5 8 -10 11 -10 2 0 4 5 4 10 0 6 -5 10 -11 10 -5 0
-7 -4 -4 -10z"/>
<path d="M5278 2028 c10 -13 10 -17 0 -20 -7 -3 2 -5 20 -5 17 0 31 1 30 2 -2
0 -16 9 -33 20 -23 14 -27 15 -17 3z"/>
<path d="M5212 2021 c-11 -6 -10 -10 4 -15 9 -3 19 -4 22 -1 3 3 -1 5 -9 5
-11 0 -11 2 1 10 8 5 11 10 5 10 -5 0 -16 -4 -23 -9z"/>
<path d="M5372 1964 c10 -10 20 -15 24 -12 3 4 -5 12 -18 18 -22 12 -22 12 -6
-6z"/>
<path d="M5363 1936 c0 -6 16 -12 35 -13 39 -2 38 4 -5 16 -20 6 -30 5 -30 -3z"/>
<path d="M3745 1870 c27 -12 43 -12 25 0 -8 5 -22 9 -30 9 -10 0 -8 -3 5 -9z"/>
<path d="M5265 1830 c-3 -6 1 -7 9 -4 18 7 21 14 7 14 -6 0 -13 -4 -16 -10z"/>
<path d="M5305 1830 c-3 -6 1 -7 9 -4 18 7 21 14 7 14 -6 0 -13 -4 -16 -10z"/>
<path d="M4095 1820 c-34 -13 -47 -37 -48 -89 -2 -62 19 -88 81 -97 41 -6 48
-4 69 20 31 37 30 90 -2 139 -27 38 -54 46 -100 27z"/>
<path d="M5632 1820 c3 -9 18 -16 39 -17 24 -1 26 0 9 4 -14 3 -31 10 -39 16
-11 10 -13 9 -9 -3z"/>
<path d="M5707 1793 c-4 -3 -24 -9 -44 -13 l-38 -8 33 -1 c21 -1 31 -5 26 -12
-4 -7 1 -7 16 1 18 9 24 9 30 0 4 -7 12 -10 18 -6 6 3 13 0 15 -6 4 -10 6 -10
6 0 1 7 -12 18 -29 23 -16 6 -27 15 -24 20 6 10 0 12 -9 2z"/>
<path d="M4553 1753 c15 -2 39 -2 55 0 15 2 2 4 -28 4 -30 0 -43 -2 -27 -4z"/>
<path d="M4663 1743 c15 -2 37 -2 50 0 12 2 0 4 -28 4 -27 0 -38 -2 -22 -4z"/>
<path d="M5780 1740 c0 -5 7 -10 16 -10 8 0 12 5 9 10 -3 6 -10 10 -16 10 -5
0 -9 -4 -9 -10z"/>
<path d="M4690 1730 c-30 -4 -44 -8 -30 -9 l25 -3 -25 -8 -25 -8 24 -1 c13 -1
21 -4 18 -7 -4 -4 3 -20 14 -36 17 -24 19 -31 8 -44 -8 -10 -24 -14 -40 -12
-16 3 -26 1 -23 -4 3 -4 -3 -8 -12 -8 -29 0 -5 -14 29 -17 18 -1 49 -4 70 -6
26 -2 37 1 37 10 0 8 12 13 33 13 17 0 27 4 21 8 -6 4 -14 19 -18 35 -3 15
-13 27 -21 27 -8 0 -15 7 -15 16 0 12 -7 15 -25 12 -13 -3 -22 -1 -19 3 3 5
-3 9 -13 10 -28 1 22 18 81 28 l51 9 -45 -1 c-25 0 -70 -3 -100 -7z m56 -111
c0 -30 -23 -22 -28 10 -4 24 -2 27 12 19 9 -6 16 -19 16 -29z m-29 -35 c-3 -3
-12 -4 -19 -1 -8 3 -5 6 6 6 11 1 17 -2 13 -5z"/>
<path d="M4830 1724 c-8 -1 -37 -6 -63 -9 -27 -4 -47 -9 -44 -12 8 -8 166 -19
161 -12 -2 4 4 9 13 11 10 3 -16 3 -57 2 l-75 -3 54 10 c30 5 57 12 60 14 5 5
-24 5 -49 -1z"/>
<path d="M5015 1710 c17 -4 24 -8 16 -9 -8 0 -12 -3 -9 -6 3 -3 13 -2 22 1 24
9 1 24 -34 23 -23 -1 -23 -2 5 -9z"/>
<path d="M3446 1631 c-4 -5 -1 -11 5 -13 6 -2 11 -24 11 -48 0 -30 2 -39 7
-25 7 17 9 15 14 -10 7 -31 46 -89 47 -69 0 6 -8 20 -18 31 -9 12 -23 48 -31
82 -13 58 -23 72 -35 52z"/>
<path d="M3441 1594 c0 -11 3 -14 6 -6 3 7 2 16 -1 19 -3 4 -6 -2 -5 -13z"/>
<path d="M4949 1590 c25 -15 -64 -32 -127 -24 -32 3 -54 3 -51 0 4 -4 31 -10
60 -12 30 -3 68 -9 84 -14 37 -10 65 -9 65 2 0 4 -14 8 -32 8 -36 0 -34 9 3
12 30 2 34 33 4 36 -15 1 -16 -1 -6 -8z"/>
<path d="M4848 1583 c6 -2 18 -2 25 0 6 3 1 5 -13 5 -14 0 -19 -2 -12 -5z"/>
<path d="M3938 1573 c7 -3 16 -2 19 1 4 3 -2 6 -13 5 -11 0 -14 -3 -6 -6z"/>
<path d="M3101 1494 c0 -11 3 -14 6 -6 3 7 2 16 -1 19 -3 4 -6 -2 -5 -13z"/>
<path d="M3471 1489 c-1 -19 26 -45 36 -35 3 3 1 6 -6 6 -6 0 -16 10 -21 23
-6 15 -9 17 -9 6z"/>
<path d="M3533 1437 c0 -9 2 -15 5 -12 6 6 67 -77 64 -87 -1 -5 4 -7 11 -5 6
1 11 -5 9 -13 -2 -8 0 -12 4 -7 4 4 21 -5 38 -20 17 -16 4 1 -29 37 -33 36
-69 79 -81 95 -15 21 -21 24 -21 12z"/>
<path d="M6735 1420 c3 -5 16 -10 28 -9 21 0 21 1 2 9 -28 12 -37 12 -30 0z"/>
<path d="M4718 1413 c7 -3 16 -2 19 1 4 3 -2 6 -13 5 -11 0 -14 -3 -6 -6z"/>
<path d="M3523 1385 c-3 -9 -3 -18 -1 -21 3 -3 8 4 11 16 6 23 -1 27 -10 5z"/>
<path d="M6790 1382 c33 -5 34 -5 10 -13 -21 -6 -20 -7 12 -6 21 0 40 -2 44
-6 4 -4 0 -7 -10 -7 -9 0 -14 -5 -11 -10 7 -11 45 5 45 19 0 13 -58 31 -94 29
-31 -1 -31 -1 4 -6z"/>
<path d="M3150 1291 c0 -6 4 -13 10 -16 6 -3 7 1 4 9 -7 18 -14 21 -14 7z"/>
<path d="M3181 1284 c0 -11 3 -14 6 -6 3 7 2 16 -1 19 -3 4 -6 -2 -5 -13z"/>
<path d="M3740 1230 c8 -5 20 -10 25 -10 6 0 3 5 -5 10 -8 5 -19 10 -25 10 -5
0 -3 -5 5 -10z"/>
<path d="M3868 1183 c7 -3 16 -2 19 1 4 3 -2 6 -13 5 -11 0 -14 -3 -6 -6z"/>
<path d="M6553 1143 c9 -2 23 -2 30 0 6 3 -1 5 -18 5 -16 0 -22 -2 -12 -5z"/>
<path d="M5450 1070 c-20 -6 -21 -8 -5 -8 11 0 29 3 40 8 25 11 -1 11 -35 0z"/>
<path d="M5325 1044 c-38 -7 -88 -17 -110 -23 -39 -9 -38 -9 15 -6 64 5 176
27 186 38 9 9 -3 8 -91 -9z"/>
<path d="M5126 1001 c-3 -4 6 -6 19 -3 14 2 25 6 25 8 0 8 -39 4 -44 -5z"/>
<path d="M5060 990 c-21 -7 -21 -8 -5 -9 11 0 27 4 35 9 18 11 5 11 -30 0z"/>
<path d="M4985 970 c-13 -6 -15 -9 -5 -9 8 0 22 4 30 9 18 12 2 12 -25 0z"/>
<path d="M4905 940 c-3 -5 -2 -10 4 -10 5 0 13 5 16 10 3 6 2 10 -4 10 -5 0
-13 -4 -16 -10z"/>
<path d="M4746 875 c-11 -8 -17 -17 -14 -20 2 -3 13 4 23 15 21 23 18 25 -9 5z"/>
<path d="M3412 856 c7 -8 15 -12 17 -11 5 6 -10 25 -20 25 -5 0 -4 -6 3 -14z"/>
<path d="M4248 793 c7 -3 16 -2 19 1 4 3 -2 6 -13 5 -11 0 -14 -3 -6 -6z"/>
<path d="M3552 705 c2 -1 12 -7 24 -13 15 -8 21 -8 21 1 0 7 -11 13 -24 13
-14 1 -23 1 -21 -1z"/>
<path d="M3628 673 c7 -3 16 -2 19 1 4 3 -2 6 -13 5 -11 0 -14 -3 -6 -6z"/>
<path d="M6173 663 c9 -2 23 -2 30 0 6 3 -1 5 -18 5 -16 0 -22 -2 -12 -5z"/>
<path d="M6358 2333 c7 -3 16 -2 19 1 4 3 -2 6 -13 5 -11 0 -14 -3 -6 -6z"/>
<path d="M6470 2010 c0 -5 5 -10 11 -10 5 0 7 5 4 10 -3 6 -8 10 -11 10 -2 0
-4 -4 -4 -10z"/>
<path d="M3560 3256 c7 -7 14 -6 21 1 9 9 7 12 -9 10 -14 -1 -18 -5 -12 -11z"/>
<path d="M4360 2986 c0 -2 7 -7 16 -10 8 -3 12 -2 9 4 -6 10 -25 14 -25 6z"/>
<path d="M4450 2610 c0 -5 5 -10 11 -10 5 0 7 5 4 10 -3 6 -8 10 -11 10 -2 0
-4 -4 -4 -10z"/>
<path d="M27 103 c-25 -4 -27 -8 -27 -54 0 -48 1 -49 30 -49 30 0 30 1 30 55
0 30 -1 54 -2 54 -2 -1 -15 -4 -31 -6z"/>
</g>
</svg>
