<?xml version="1.0" standalone="no"?>
<!DOCTYPE svg PUBLIC "-//W3C//DTD SVG 20010904//EN"
 "http://www.w3.org/TR/2001/REC-SVG-20010904/DTD/svg10.dtd">
<svg version="1.0" xmlns="http://www.w3.org/2000/svg"
 width="1024.000000pt" height="1024.000000pt" viewBox="0 0 1024.000000 1024.000000"
 preserveAspectRatio="xMidYMid meet">
<metadata>
Created by potrace 1.16, written by Peter Selinger 2001-2019
</metadata>
<g transform="translate(0.000000,1024.000000) scale(0.100000,-0.100000)"
fill="#000000" stroke="none">
<path d="M3345 8711 c-100 -28 -135 -66 -233 -259 -170 -333 -261 -615 -341
-1062 -16 -91 -52 -293 -81 -450 -28 -157 -65 -361 -81 -455 -16 -93 -57 -305
-90 -470 -88 -434 -86 -492 20 -721 48 -102 187 -321 253 -396 29 -34 46 -63
42 -70 -16 -26 -33 -139 -34 -222 -1 -236 102 -407 417 -696 l93 -85 15 -170
c29 -332 37 -488 26 -551 -7 -45 -37 -116 -116 -275 -200 -400 -311 -654 -397
-911 -88 -265 -106 -394 -67 -475 56 -116 374 -298 809 -462 136 -51 456 -118
695 -146 808 -93 1750 -37 2290 135 292 94 662 273 818 396 103 82 119 162 68
345 -52 182 -90 283 -227 604 -21 50 -111 235 -200 413 -99 196 -165 340 -169
366 -9 56 9 323 37 555 l22 183 80 63 c156 122 332 318 394 441 27 52 59 156
67 215 7 54 -8 160 -34 237 l-19 55 64 91 c128 183 243 391 286 514 36 106 31
191 -31 477 -49 225 -67 321 -155 835 -19 113 -42 237 -50 275 -8 39 -24 126
-36 195 -60 358 -183 789 -291 1022 -125 269 -215 403 -293 439 -49 22 -134
25 -179 5 -48 -20 -71 -51 -136 -177 -32 -63 -82 -152 -111 -199 -30 -47 -68
-109 -86 -138 -17 -29 -72 -94 -120 -145 -82 -86 -96 -106 -181 -272 -98 -193
-165 -353 -237 -566 -61 -183 -87 -289 -146 -604 -28 -148 -66 -344 -85 -435
-52 -248 -74 -361 -77 -400 -2 -25 -7 -34 -18 -31 -262 63 -504 65 -785 6
l-30 -6 -27 133 c-24 124 -44 214 -118 558 -16 74 -39 191 -50 260 -63 379
-178 716 -363 1070 -90 172 -127 231 -187 294 -60 65 -176 241 -275 421 -83
150 -119 196 -176 225 -43 22 -122 32 -164 21z m3455 -716 c-29 -67 -34 -52
-7 20 12 33 23 53 25 44 1 -8 -6 -37 -18 -64z m-3400 21 c0 -5 -7 -1 -15 10
-8 10 -14 24 -14 29 0 6 6 1 14 -9 8 -11 15 -24 15 -30z m3421 -23 c-12 -20
-14 -14 -5 12 4 9 9 14 11 11 3 -2 0 -13 -6 -23z m54 -24 c26 -49 81 -267 100
-389 21 -140 62 -403 75 -485 6 -33 17 -123 25 -200 8 -77 20 -165 25 -195 33
-188 65 -677 58 -880 -3 -78 -4 -68 -7 55 -2 127 -16 278 -20 223 -2 -27 -20
-31 -30 -6 -6 13 -10 19 -11 13 0 -5 -5 -30 -11 -55 -5 -25 -16 -84 -24 -132
-19 -113 -38 -150 -125 -232 -86 -81 -111 -95 -139 -75 -10 8 -53 38 -95 68
l-76 55 6 145 c3 88 11 169 21 204 14 48 14 66 5 108 -7 28 -19 139 -27 248
-22 298 -23 318 -16 296 5 -11 10 26 14 90 4 61 16 164 27 230 10 66 17 131
14 145 -4 21 -3 22 4 5 8 -17 10 -14 17 20 5 22 10 47 11 55 7 40 134 393 162
449 20 39 32 78 32 103 0 44 -26 145 -44 167 -8 11 -8 13 2 7 6 -4 19 -21 27
-37z m-3563 -21 c-10 -20 -16 -58 -17 -93 0 -51 6 -73 43 -146 23 -47 42 -91
42 -97 0 -7 5 -13 10 -13 6 -1 14 -2 20 -3 14 -2 39 -39 40 -58 0 -11 8 -18
19 -18 22 0 33 -41 24 -94 -4 -24 -2 -36 6 -36 6 0 11 8 12 18 0 14 2 14 8 -3
8 -19 9 -18 13 5 2 14 5 -2 5 -35 2 -67 -4 -95 -17 -95 -5 0 -5 11 1 24 7 14
8 37 5 51 -7 26 -8 27 -21 9 -8 -11 -14 -26 -14 -34 0 -9 6 -5 15 10 l15 25
-5 -25 c-3 -14 -9 -35 -12 -47 -4 -14 -2 -23 5 -23 5 0 8 -8 4 -17 -5 -15 -3
-14 10 2 9 11 17 17 17 13 0 -5 1 -10 1 -13 1 -2 5 -24 10 -47 5 -24 13 -60
18 -80 5 -22 5 -36 0 -32 -5 3 -9 13 -9 23 0 10 -7 34 -16 52 -10 24 -13 26
-9 9 3 -14 19 -90 35 -170 61 -302 64 -443 19 -808 -11 -89 -11 -95 10 -122
17 -23 21 -44 21 -102 1 -40 7 -115 14 -167 l13 -93 -56 -26 c-31 -14 -82 -43
-114 -64 -32 -21 -62 -38 -65 -38 -16 0 -165 156 -182 190 -23 44 -63 197 -81
306 l-13 79 -9 -50 c-13 -73 -18 -365 -6 -365 6 0 6 -8 -1 -20 -17 -33 1 -86
41 -120 10 -9 18 -50 8 -44 -5 3 -9 11 -9 17 0 7 -14 30 -30 51 l-30 40 0 160
c1 249 17 626 35 786 24 218 34 319 50 500 51 585 95 860 135 860 5 0 1 -15
-8 -32z m120 -13 c9 -20 9 -20 -6 -1 -9 11 -16 27 -15 35 0 14 1 14 6 1 3 -8
10 -24 15 -35z m27 -75 c0 -10 -3 -8 -9 5 -12 27 -12 43 0 25 5 -8 9 -22 9
-30z m3287 5 c0 -14 -4 -25 -8 -25 -10 0 -10 13 -2 34 9 23 12 20 10 -9z
m-3429 -57 c-3 -8 -6 -5 -6 6 -1 11 2 17 5 13 3 -3 4 -12 1 -19z m594 -231
c72 -104 160 -299 249 -549 40 -111 52 -169 125 -593 19 -110 41 -233 49 -272
52 -244 89 -503 90 -630 0 -73 5 -133 9 -133 4 0 52 16 105 36 142 54 213 72
341 89 189 25 446 16 581 -20 30 -8 74 -19 98 -25 23 -6 41 -14 38 -18 -2 -4
6 -8 17 -8 12 -1 55 -13 95 -28 41 -14 78 -26 83 -26 5 0 9 48 9 108 0 117 48
442 62 420 4 -7 5 3 2 22 -3 19 9 109 25 200 16 91 44 242 60 335 41 227 79
415 102 500 42 155 174 469 192 458 6 -3 7 -1 3 5 -10 16 22 74 36 66 7 -4 8
-3 4 4 -13 22 5 34 21 15 13 -17 13 -16 3 5 -8 17 -7 27 5 45 29 42 180 187
183 177 2 -6 10 -3 18 7 16 21 18 36 -30 -222 -19 -99 -39 -217 -46 -262 -7
-46 -16 -81 -20 -78 -5 3 -6 -3 -3 -13 2 -10 -5 -72 -16 -137 -11 -66 -34
-210 -50 -320 -26 -174 -85 -421 -119 -500 -5 -11 -14 -36 -21 -55 -37 -107
-57 -156 -64 -161 -4 -3 -7 -10 -6 -15 1 -5 0 -16 -4 -24 -39 -103 -77 -296
-80 -409 l-2 -54 95 -27 c142 -41 361 -124 487 -186 109 -53 224 -132 325
-223 l51 -45 31 37 c17 20 36 37 42 37 6 0 19 -18 29 -40 15 -33 16 -44 5 -70
-15 -37 -7 -100 25 -193 13 -37 20 -65 14 -62 -5 4 -9 0 -9 -7 0 -18 -55 -76
-164 -173 -49 -44 -99 -89 -111 -100 -64 -60 -329 -311 -380 -360 -33 -31 -87
-80 -119 -108 -82 -72 -146 -136 -251 -250 l-89 -98 -1 -96 c0 -68 -4 -98 -13
-101 -6 -2 -10 -8 -7 -12 6 -10 -31 -112 -72 -195 -55 -113 -147 -274 -163
-285 -4 -3 -11 -12 -16 -22 -19 -34 -121 -141 -159 -167 -22 -15 -59 -35 -82
-44 l-43 -17 -15 37 c-9 21 -23 45 -32 55 -9 10 -13 18 -8 18 4 0 2 7 -5 15
-7 8 -15 13 -19 10 -4 -2 -32 9 -63 24 -82 42 -206 58 -315 42 -152 -22 -257
-74 -290 -144 -16 -34 -21 -37 -48 -32 -97 18 -244 190 -373 435 -90 172 -126
284 -127 395 l-1 90 -41 45 c-23 25 -43 49 -45 54 -2 6 -33 42 -70 80 -37 39
-68 74 -68 78 0 3 -12 20 -26 37 -14 17 -23 35 -19 41 3 5 0 7 -8 4 -13 -5
-72 47 -143 126 -17 19 -63 66 -103 103 -39 38 -69 72 -66 77 3 4 -1 7 -9 6
-15 -1 -216 172 -216 186 0 5 -5 6 -12 2 -7 -5 -9 -2 -5 9 4 11 2 14 -7 11 -7
-3 -27 11 -44 30 -16 19 -32 33 -34 31 -1 -2 -43 34 -92 79 l-89 83 21 69 c24
75 30 155 18 220 -7 37 -5 45 21 74 l29 32 27 -41 c15 -23 31 -41 35 -41 4 0
30 21 57 46 82 74 113 96 126 88 7 -4 9 -3 5 4 -11 18 102 79 284 152 52 21
145 61 205 88 113 51 232 92 267 92 19 0 19 4 13 63 -4 34 -11 67 -15 72 -4 6
-10 39 -14 75 -4 40 -30 133 -67 240 -178 509 -187 540 -229 795 -72 436 -142
815 -155 835 -9 15 -44 204 -38 213 8 13 186 -166 234 -236z m-564 201 c-3 -7
-5 -2 -5 12 0 14 2 19 5 13 2 -7 2 -19 0 -25z m110 10 c-3 -8 -6 -5 -6 6 -1
11 2 17 5 13 3 -3 4 -12 1 -19z m25 -57 c2 -17 1 -28 -3 -26 -4 3 -9 18 -11
34 -2 17 -1 28 3 26 4 -3 9 -18 11 -34z m3215 -23 c-3 -8 -6 -5 -6 6 -1 11 2
17 5 13 3 -3 4 -12 1 -19z m-3204 -33 c-3 -9 -8 -14 -10 -11 -3 3 -2 9 2 15 9
16 15 13 8 -4z m3184 -47 c-3 -7 -5 -2 -5 12 0 14 2 19 5 13 2 -7 2 -19 0 -25z
m-3257 3 c0 -6 -4 -13 -10 -16 -5 -3 -10 1 -10 9 0 9 5 16 10 16 6 0 10 -4 10
-9z m87 -23 c-3 -8 -6 -5 -6 6 -1 11 2 17 5 13 3 -3 4 -12 1 -19z m3168 -7 c3
-5 1 -12 -5 -16 -5 -3 -10 1 -10 9 0 18 6 21 15 7z m-3147 -48 c9 -26 8 -31
-4 -26 -8 3 -14 18 -14 36 0 35 3 34 18 -10z m3129 -25 c-3 -8 -6 -5 -6 6 -1
11 2 17 5 13 3 -3 4 -12 1 -19z m-10 -50 c-3 -8 -6 -5 -6 6 -1 11 2 17 5 13 3
-3 4 -12 1 -19z m-3100 -20 c-3 -8 -6 -5 -6 6 -1 11 2 17 5 13 3 -3 4 -12 1
-19z m3084 -101 c-6 -6 -11 -18 -11 -26 0 -14 1 -14 10 -1 7 11 8 5 4 -20 -9
-45 -14 -51 -15 -14 0 29 0 29 -10 5 -5 -14 -7 -32 -4 -40 5 -12 3 -13 -5 -5
-12 12 8 104 23 104 4 0 6 4 2 9 -3 6 -2 29 2 53 l8 43 3 -49 c2 -27 -2 -54
-7 -59z m-3032 -57 c12 -47 27 -107 36 -133 8 -26 10 -45 5 -42 -6 4 -10 13
-10 21 0 8 -4 12 -10 9 -5 -3 -10 3 -10 15 0 28 -20 15 -21 -13 0 -21 -1 -21
-9 -2 -5 11 -9 27 -9 35 -1 12 1 13 8 1 7 -11 10 -10 14 5 8 35 7 75 -4 95 -5
11 -14 39 -19 62 l-8 42 -1 -40 c-1 -23 4 -46 11 -53 6 -6 9 -15 5 -19 -4 -3
-9 -4 -12 -1 -11 11 -17 77 -10 105 9 37 18 20 44 -87z m3058 38 c-3 -8 -6 -5
-6 6 -1 11 2 17 5 13 3 -3 4 -12 1 -19z m-5 -60 c-8 -8 -9 -4 -5 13 4 13 8 18
11 10 2 -7 -1 -18 -6 -23z m25 -20 c-3 -8 -6 -5 -6 6 -1 11 2 17 5 13 3 -3 4
-12 1 -19z m-79 -33 c-3 -3 -9 2 -12 12 -6 14 -5 15 5 6 7 -7 10 -15 7 -18z
m-18 -50 c-6 -15 -13 -25 -16 -23 -2 3 1 17 7 32 7 14 14 24 16 22 2 -2 -1
-16 -7 -31z m-20 -80 c0 -19 -4 -35 -8 -35 -4 0 -6 16 -4 35 2 19 6 35 8 35 2
0 4 -16 4 -35z m-2907 -5 c3 -11 1 -18 -4 -14 -5 3 -9 12 -9 20 0 20 7 17 13
-6z m24 -92 c-3 -8 -6 -5 -6 6 -1 11 2 17 5 13 3 -3 4 -12 1 -19z m2873 -13
c0 -5 -5 -3 -10 5 -5 8 -10 20 -10 25 0 6 5 3 10 -5 5 -8 10 -19 10 -25z m-23
-77 c-3 -7 -5 -2 -5 12 0 14 2 19 5 13 2 -7 2 -19 0 -25z m-2830 0 c-3 -8 -6
-5 -6 6 -1 11 2 17 5 13 3 -3 4 -12 1 -19z m10 -55 c-3 -10 -5 -4 -5 12 0 17
2 24 5 18 2 -7 2 -21 0 -30z m2882 -39 c1 11 3 17 6 14 4 -3 3 -18 -1 -34 -6
-25 -8 -26 -15 -9 -11 28 -10 55 1 30 8 -19 9 -19 9 -1z m-112 -146 c-3 -7 -5
-2 -5 12 0 14 2 19 5 13 2 -7 2 -19 0 -25z m-2730 0 c-3 -8 -6 -5 -6 6 -1 11
2 17 5 13 3 -3 4 -12 1 -19z m2720 -65 c-3 -10 -5 -4 -5 12 0 17 2 24 5 18 2
-7 2 -21 0 -30z m-3512 -157 c4 -35 2 -96 -4 -137 -13 -87 -41 -444 -41 -523
0 -35 -5 -60 -15 -70 -18 -18 -21 -106 -3 -106 6 0 9 -3 5 -6 -3 -4 1 -23 9
-43 35 -79 36 -99 18 -193 -17 -81 -20 -89 -39 -83 -11 3 -33 8 -50 11 -29 6
-30 7 -30 67 -1 48 -9 79 -34 135 -37 83 -71 186 -71 214 0 10 11 46 25 79 13
34 34 103 46 153 11 50 27 107 35 126 7 19 18 51 23 70 10 34 10 33 9 -17 -2
-57 8 -80 17 -42 10 47 24 250 18 279 -3 17 -2 30 3 30 5 0 10 30 12 67 2 37
8 73 14 80 19 23 46 -22 53 -91z m4380 -17 c8 -57 27 -156 41 -219 26 -115
121 -415 147 -467 13 -25 12 -35 -13 -108 -15 -44 -41 -113 -59 -154 -21 -51
-31 -90 -31 -126 0 -46 -3 -53 -22 -58 -13 -2 -30 -7 -39 -11 -13 -6 -21 12
-43 98 l-27 105 31 70 31 71 -11 167 c-6 93 -14 195 -19 228 -18 116 -24 238
-12 231 6 -4 9 -12 6 -17 -3 -5 1 -6 9 -3 9 4 16 -2 20 -18 3 -13 3 7 0 44 -2
37 -9 78 -14 90 -8 18 -8 14 -4 -17 3 -22 7 -51 10 -63 3 -15 1 -21 -6 -17 -5
3 -10 16 -10 28 0 18 -2 19 -10 7 -6 -10 -8 6 -5 45 3 53 3 56 -5 20 -6 -29
-8 -12 -5 63 4 93 10 130 21 120 2 -2 10 -51 19 -109z m-878 59 c-3 -7 -5 -2
-5 12 0 14 2 19 5 13 2 -7 2 -19 0 -25z m-2670 -70 c-3 -8 -6 -5 -6 6 -1 11 2
17 5 13 3 -3 4 -12 1 -19z m2810 -40 c-3 -7 -5 -2 -5 12 0 14 2 19 5 13 2 -7
2 -19 0 -25z m-2800 -135 c-2 -16 -4 -3 -4 27 0 30 2 43 4 28 2 -16 2 -40 0
-55z m2670 45 c-3 -7 -5 -2 -5 12 0 14 2 19 5 13 2 -7 2 -19 0 -25z m-20 -95
c-2 -21 -4 -6 -4 32 0 39 2 55 4 38 2 -18 2 -50 0 -70z m20 25 c-3 -8 -6 -5
-6 6 -1 11 2 17 5 13 3 -3 4 -12 1 -19z m-3620 -20 c-3 -8 -6 -5 -6 6 -1 11 2
17 5 13 3 -3 4 -12 1 -19z m960 -50 c-3 -7 -5 -2 -5 12 0 14 2 19 5 13 2 -7 2
-19 0 -25z m-670 -105 c-3 -10 -5 -4 -5 12 0 17 2 24 5 18 2 -7 2 -21 0 -30z
m3480 15 c-3 -8 -6 -5 -6 6 -1 11 2 17 5 13 3 -3 4 -12 1 -19z m-170 -55 c-3
-10 -5 -2 -5 17 0 19 2 27 5 18 2 -10 2 -26 0 -35z m140 25 c-3 -8 -6 -5 -6 6
-1 11 2 17 5 13 3 -3 4 -12 1 -19z m13 -63 c-7 -45 -7 -46 -9 -13 -1 32 8 74
14 66 1 -2 -1 -25 -5 -53z m-2797 -26 c-5 -5 -7 7 -4 29 5 34 6 35 9 8 2 -16
0 -32 -5 -37z m2669 -19 c5 0 7 -7 4 -16 -3 -9 1 -40 10 -70 9 -30 13 -62 10
-70 -3 -8 -2 -12 4 -9 7 4 3 -62 -5 -72 -1 -2 -10 48 -19 110 -19 119 -26 173
-19 145 2 -10 9 -18 15 -18z m-2675 -32 c-3 -7 -5 -2 -5 12 0 14 2 19 5 13 2
-7 2 -19 0 -25z m-10 -40 c-3 -8 -6 -5 -6 6 -1 11 2 17 5 13 3 -3 4 -12 1 -19z
m2820 -20 c-3 -8 -6 -5 -6 6 -1 11 2 17 5 13 3 -3 4 -12 1 -19z m-2830 -45
c-3 -10 -5 -2 -5 17 0 19 2 27 5 18 2 -10 2 -26 0 -35z m2820 -15 c-3 -7 -5
-2 -5 12 0 14 2 19 5 13 2 -7 2 -19 0 -25z m-20 -15 c-3 -10 -5 -4 -5 12 0 17
2 24 5 18 2 -7 2 -21 0 -30z m-55 -75 c-6 -6 -7 0 -4 19 5 21 7 23 10 9 2 -10
0 -22 -6 -28z m-2765 0 c-3 -8 -6 -5 -6 6 -1 11 2 17 5 13 3 -3 4 -12 1 -19z
m2762 -77 c1 -35 -5 -22 -12 24 -5 28 -4 34 3 20 5 -11 9 -31 9 -44z m528 -93
c-38 -48 -74 -91 -80 -95 -14 -8 0 16 25 44 16 17 18 25 8 45 -10 21 -10 21 3
6 18 -22 31 -23 23 -2 -3 8 -2 13 3 9 5 -3 20 9 32 27 13 18 27 35 31 36 5 2
6 7 4 11 -3 4 1 8 8 8 7 0 -18 -40 -57 -89z m-3311 64 c-5 -9 -21 -13 -106
-27 -30 -4 -29 -3 10 10 25 8 55 15 68 15 12 0 22 5 22 12 0 6 3 9 6 5 3 -3 3
-10 0 -15z m2822 -2 c10 -1 28 -8 42 -16 16 -10 18 -13 5 -8 -11 4 -32 9 -47
12 -18 3 -28 10 -27 21 0 10 2 11 6 4 2 -7 12 -13 21 -13z m-3358 -30 c0 -5
-2 -10 -4 -10 -3 0 -8 5 -11 10 -3 6 -1 10 4 10 6 0 11 -4 11 -10z m24 -32
c-7 -12 16 -39 27 -32 5 3 6 -3 2 -12 -4 -10 -2 -15 4 -11 5 3 10 -1 10 -10 0
-11 -8 -7 -24 13 -37 45 -44 61 -28 61 8 0 12 -4 9 -9z m298 -22 c-35 -19 -71
-40 -80 -47 -10 -8 -9 -5 3 8 21 23 111 73 129 73 6 0 -17 -16 -52 -34z m3212
2 l31 -29 -30 11 c-16 6 -40 19 -53 28 l-23 18 22 0 c12 0 36 -13 53 -28z m72
-60 l19 -23 -25 20 c-14 11 -27 21 -29 22 -2 2 0 3 6 3 5 0 18 -10 29 -22z
m-3386 -2 c0 -2 -7 -7 -16 -10 -8 -3 -12 -2 -9 4 6 10 25 14 25 6z m3444 -5
c3 -5 -2 -15 -12 -22 -15 -12 -16 -12 -5 2 7 9 10 19 6 22 -3 4 -4 7 0 7 3 0
8 -4 11 -9z m-3576 -26 c-3 -3 -9 2 -12 12 -6 14 -5 15 5 6 7 -7 10 -15 7 -18z
m3659 -22 c-8 -16 -17 -35 -21 -43 -3 -8 -3 -2 0 15 5 27 21 55 30 55 3 0 -2
-12 -9 -27z m-3632 7 c3 -5 1 -10 -4 -10 -6 0 -11 5 -11 10 0 6 2 10 4 10 3 0
8 -4 11 -10z m15 -24 c0 -3 -4 -8 -10 -11 -5 -3 -10 -1 -10 4 0 6 5 11 10 11
6 0 10 -2 10 -4z m5 -3266 c23 0 68 -9 101 -21 71 -24 456 -121 569 -142 587
-112 583 -111 1100 -111 l450 0 205 32 c301 47 523 93 670 137 258 78 403 115
415 105 11 -9 47 -2 130 25 18 5 22 -1 38 -59 10 -38 17 -101 17 -154 0 -105
8 -95 -140 -175 -194 -104 -446 -206 -610 -246 -287 -70 -337 -74 -790 -61
-284 8 -485 8 -765 -1 -209 -6 -420 -8 -470 -5 -169 13 -445 89 -673 186 -117
51 -335 174 -363 206 -19 22 -34 202 -23 270 l6 41 46 -13 c25 -8 64 -14 87
-14z"/>
<path d="M3396 7571 c4 -13 14 -40 22 -60 14 -32 16 -33 20 -13 5 31 -18 98
-28 82 -6 -9 -9 -9 -14 1 -3 8 -3 3 0 -10z m33 -46 c0 -5 -4 -3 -9 5 -5 8 -9
22 -9 30 0 16 17 -16 18 -35z"/>
<path d="M3741 7704 c0 -11 3 -14 6 -6 3 7 2 16 -1 19 -3 4 -6 -2 -5 -13z"/>
<path d="M6491 7704 c0 -11 3 -14 6 -6 3 7 2 16 -1 19 -3 4 -6 -2 -5 -13z"/>
<path d="M3850 7621 c0 -6 4 -13 10 -16 6 -3 7 1 4 9 -7 18 -14 21 -14 7z"/>
<path d="M6451 7504 c0 -11 3 -14 6 -6 3 7 2 16 -1 19 -3 4 -6 -2 -5 -13z"/>
<path d="M6436 7415 c-3 -9 -6 -26 -5 -38 1 -14 4 -9 9 13 9 37 7 52 -4 25z"/>
<path d="M6407 7378 c-2 -7 -1 -22 4 -33 6 -16 8 -14 8 13 1 33 -4 41 -12 20z"/>
<path d="M6421 7297 c-1 -10 -5 -15 -11 -12 -6 4 -7 -1 -3 -11 6 -15 7 -15 15
0 5 9 7 22 4 29 -2 7 -5 4 -5 -6z"/>
<path d="M6351 6914 c0 -11 3 -14 6 -6 3 7 2 16 -1 19 -3 4 -6 -2 -5 -13z"/>
<path d="M4169 6832 c-3 -20 -2 -29 4 -23 5 5 7 19 5 32 -3 20 -5 19 -9 -9z"/>
<path d="M4181 6764 c0 -11 3 -14 6 -6 3 7 2 16 -1 19 -3 4 -6 -2 -5 -13z"/>
<path d="M6151 6085 c0 -12 -6 -26 -13 -33 -6 -6 -9 -14 -6 -18 10 -9 30 35
25 54 -4 13 -5 13 -6 -3z"/>
<path d="M5892 5905 c0 -16 2 -22 5 -12 2 9 2 23 0 30 -3 6 -5 -1 -5 -18z"/>
<path d="M6021 5744 c0 -11 3 -14 6 -6 3 7 2 16 -1 19 -3 4 -6 -2 -5 -13z"/>
<path d="M6228 5149 c-75 -12 -204 -58 -303 -107 -101 -50 -301 -168 -310
-182 -4 -6 -11 -10 -17 -10 -7 0 -6 6 2 15 7 8 9 15 6 15 -4 0 -2 10 5 21 7
13 7 19 1 15 -6 -3 -13 3 -17 14 -13 42 -43 23 -187 -122 -49 -48 -88 -86 -88
-83 0 2 4 14 9 27 5 13 14 75 21 138 7 63 16 124 20 136 15 38 0 34 -38 -9
-20 -23 -40 -44 -43 -47 -3 -3 -14 -20 -25 -38 -17 -30 -20 -31 -31 -15 -7 9
-13 12 -13 7 0 -6 4 -14 10 -20 6 -6 3 -27 -9 -59 -10 -28 -24 -84 -31 -125
-8 -41 -18 -79 -24 -83 -7 -6 -4 -7 7 -3 14 4 17 -1 17 -32 0 -51 27 -91 150
-221 147 -157 405 -415 456 -457 24 -19 49 -41 56 -48 17 -16 53 -36 68 -36
23 0 -25 108 -154 342 -21 39 -34 73 -30 80 4 7 4 10 -1 6 -8 -7 -34 19 -35
35 0 4 35 7 78 7 93 0 140 12 297 75 142 57 212 93 281 146 88 67 160 176 171
257 5 38 4 41 -22 48 -22 5 -25 11 -20 28 15 45 17 137 5 166 -18 45 -95 108
-139 115 -20 4 -45 8 -56 9 -11 2 -41 0 -67 -5z m111 -188 c20 -13 8 -98 -23
-158 -77 -152 -343 -303 -534 -303 -70 0 -109 16 -141 56 -68 87 42 189 364
334 145 66 292 97 334 71z m-759 -124 c0 -2 -15 -16 -32 -33 l-33 -29 29 33
c28 30 36 37 36 29z"/>
<path d="M3825 5132 c-51 -24 -91 -71 -105 -123 -9 -31 -8 -53 5 -100 18 -74
18 -74 1 -60 -11 9 -15 2 -23 -39 -6 -27 -6 -47 -1 -44 4 3 13 -7 18 -23 24
-64 49 -100 116 -168 53 -54 91 -81 155 -112 168 -82 242 -113 268 -113 20 0
23 -2 11 -10 -13 -8 -12 -10 5 -11 11 -1 28 0 39 1 10 1 16 -2 13 -7 -3 -5 4
-9 16 -9 153 -2 171 -4 151 -19 -10 -8 -16 -15 -12 -15 4 0 -11 -39 -33 -87
-56 -120 -120 -282 -124 -315 l-4 -26 42 24 c53 30 89 63 152 139 88 107 105
122 116 105 8 -12 9 -11 5 5 -4 14 9 36 45 75 28 30 66 74 86 97 19 24 40 40
46 36 6 -4 7 -1 2 7 -5 8 26 45 98 114 104 101 105 103 111 157 7 66 3 220 -5
208 -3 -6 -11 10 -18 33 -7 24 -24 63 -39 88 -14 25 -25 46 -24 48 1 1 -6 11
-15 21 -10 10 -28 31 -41 46 l-22 27 5 -146 c3 -80 10 -157 15 -171 17 -45 10
-52 -11 -12 -22 42 -104 129 -159 168 -42 31 -97 59 -103 52 -3 -2 0 -22 5
-45 6 -27 5 -45 -1 -51 -7 -7 -5 -17 7 -31 9 -11 1 -7 -20 11 -20 17 -57 45
-81 62 -34 23 -45 36 -42 51 2 12 0 18 -6 15 -5 -4 -6 -11 -3 -17 8 -13 16
-16 -140 61 -202 99 -245 113 -361 118 -83 3 -107 1 -140 -15z m261 -187 c159
-53 394 -180 468 -251 48 -47 52 -67 24 -122 -19 -38 -31 -48 -68 -60 -135
-45 -425 80 -536 230 -25 35 -52 75 -60 89 -18 35 -36 118 -29 130 12 18 125
9 201 -16z"/>
<path d="M3723 5106 c-4 -5 -1 -6 7 -1 10 6 12 4 7 -8 -8 -22 -5 -21 15 2 16
19 15 20 -3 18 -11 -1 -23 -6 -26 -11z"/>
<path d="M4260 5090 c-8 -5 -10 -10 -5 -10 6 0 17 5 25 10 8 5 11 10 5 10 -5
0 -17 -5 -25 -10z"/>
<path d="M7090 5085 c0 -5 5 -17 10 -25 5 -8 10 -10 10 -5 0 6 -5 17 -10 25
-5 8 -10 11 -10 5z"/>
<path d="M4833 5045 c0 -22 2 -30 4 -17 2 12 2 30 0 40 -3 9 -5 -1 -4 -23z"/>
<path d="M3690 5019 c0 -5 5 -7 10 -4 6 3 10 8 10 11 0 2 -4 4 -10 4 -5 0 -10
-5 -10 -11z"/>
<path d="M3691 4914 c0 -11 3 -14 6 -6 3 7 2 16 -1 19 -3 4 -6 -2 -5 -13z"/>
<path d="M4842 4900 c0 -14 2 -19 5 -12 2 6 2 18 0 25 -3 6 -5 1 -5 -13z"/>
<path d="M4820 4852 c0 -1 8 -11 18 -22 17 -18 17 -18 17 5 0 16 -5 23 -17 22
-10 -1 -18 -3 -18 -5z"/>
<path d="M6540 4675 c0 -5 5 -17 10 -25 5 -8 10 -10 10 -5 0 6 -5 17 -10 25
-5 8 -10 11 -10 5z"/>
<path d="M3254 4618 l-19 -23 23 19 c12 11 22 21 22 23 0 8 -8 2 -26 -19z"/>
<path d="M6990 4630 c-9 -6 -10 -10 -3 -10 6 0 15 5 18 10 8 12 4 12 -15 0z"/>
<path d="M6460 4605 c0 -5 5 -17 10 -25 5 -8 10 -10 10 -5 0 6 -5 17 -10 25
-5 8 -10 11 -10 5z"/>
<path d="M5285 4389 c-4 -6 -5 -12 -2 -15 2 -3 7 2 10 11 7 17 1 20 -8 4z"/>
<path d="M6656 4294 c-23 -23 -20 -30 4 -9 11 10 20 20 20 22 0 7 -9 2 -24
-13z"/>
<path d="M4606 4092 c-2 -4 4 -8 14 -8 10 0 16 4 14 8 -3 4 -9 8 -14 8 -5 0
-11 -4 -14 -8z"/>
<path d="M6405 4059 c-11 -16 -1 -19 13 -3 7 8 8 14 3 14 -5 0 -13 -5 -16 -11z"/>
<path d="M6355 4030 c-3 -5 -1 -10 4 -10 6 0 11 5 11 10 0 6 -2 10 -4 10 -3 0
-8 -4 -11 -10z"/>
<path d="M6018 3583 c5 -21 7 -23 10 -9 2 10 0 22 -6 28 -6 6 -7 0 -4 -19z"/>
<path d="M4516 2897 c3 -10 9 -15 12 -12 3 3 0 11 -7 18 -10 9 -11 8 -5 -6z"/>
<path d="M5646 2865 c4 -8 11 -15 16 -15 6 0 5 6 -2 15 -7 8 -14 15 -16 15 -2
0 -1 -7 2 -15z"/>
<path d="M4723 2815 c-12 -14 -16 -25 -10 -25 7 0 20 12 30 25 23 32 8 32 -20
0z"/>
<path d="M2911 6224 c0 -11 3 -14 6 -6 3 7 2 16 -1 19 -3 4 -6 -2 -5 -13z"/>
<path d="M27 103 c-25 -4 -27 -8 -27 -54 0 -48 1 -49 30 -49 30 0 30 1 30 55
0 30 -1 54 -2 54 -2 -1 -15 -4 -31 -6z"/>
</g>
</svg>
