<?xml version="1.0" standalone="no"?>
<!DOCTYPE svg PUBLIC "-//W3C//DTD SVG 20010904//EN"
 "http://www.w3.org/TR/2001/REC-SVG-20010904/DTD/svg10.dtd">
<svg version="1.0" xmlns="http://www.w3.org/2000/svg"
 width="1024.000000pt" height="1024.000000pt" viewBox="0 0 1024.000000 1024.000000"
 preserveAspectRatio="xMidYMid meet">
<metadata>
Created by potrace 1.16, written by Peter Selinger 2001-2019
</metadata>
<g transform="translate(0.000000,1024.000000) scale(0.100000,-0.100000)"
fill="#000000" stroke="none">
<path d="M3345 9673 c-75 -26 -146 -101 -173 -183 -51 -153 -165 -767 -246
-1320 -62 -428 -82 -592 -91 -770 -14 -263 38 -427 188 -586 55 -60 170 -142
189 -136 17 5 7 -20 -36 -85 -127 -198 -166 -316 -166 -510 0 -123 -30 -203
-234 -626 -42 -87 -76 -160 -76 -162 0 -2 -69 -146 -153 -322 -262 -542 -342
-716 -352 -760 -4 -22 -12 -33 -24 -33 -18 0 -62 -42 -78 -75 -33 -67 -21
-144 29 -191 38 -36 95 -59 263 -109 66 -20 203 -62 305 -95 305 -97 669 -205
953 -283 82 -22 116 -36 112 -45 -14 -37 -55 -208 -69 -287 -37 -214 -48 -345
-53 -641 l-5 -301 -47 9 c-85 17 -212 -12 -310 -69 -25 -15 -72 -52 -105 -82
-119 -113 -184 -220 -222 -366 -27 -103 -25 -329 4 -498 32 -186 96 -432 149
-571 46 -121 60 -151 125 -258 24 -40 37 -74 41 -112 7 -71 25 -100 99 -158
l61 -48 1760 0 1759 0 69 61 c71 62 89 96 89 166 0 17 16 62 36 100 57 109 88
189 137 348 97 318 137 518 144 716 10 268 -42 415 -207 586 -130 134 -252
188 -409 181 l-88 -3 -6 305 c-6 358 -22 504 -77 732 -22 90 -42 173 -45 186
-4 16 -1 22 12 22 19 0 99 24 708 214 485 151 779 248 837 276 36 16 52 32 68
64 40 84 13 193 -57 226 -18 8 -33 18 -33 22 0 9 -207 432 -547 1118 -157 316
-294 599 -304 629 -12 35 -19 82 -19 133 0 93 -22 208 -57 294 -28 72 -116
229 -145 260 -21 24 -18 28 27 38 42 10 144 85 200 148 97 107 165 299 165
465 0 133 -40 499 -80 738 -10 61 -26 167 -34 236 -9 69 -27 182 -40 250 -14
68 -34 178 -46 244 -12 66 -31 158 -41 205 -11 47 -29 135 -40 195 -27 150
-76 340 -99 384 -76 148 -282 191 -450 94 -186 -108 -457 -538 -846 -1341 -68
-141 -146 -300 -172 -352 -54 -110 -28 -101 -247 -81 -144 13 -393 9 -549 -9
-69 -9 -80 -8 -91 7 -7 9 -97 192 -201 407 -265 547 -416 827 -555 1031 -151
222 -254 327 -359 366 -76 29 -181 34 -245 12z m173 -192 c64 -33 127 -97 232
-236 132 -175 192 -281 487 -864 135 -267 258 -506 273 -531 l28 -47 -49 -11
c-58 -14 -212 -73 -290 -113 l-57 -28 -16 24 c-35 54 -219 501 -332 810 -78
211 -119 313 -179 440 -90 193 -141 255 -207 255 -33 0 -91 -37 -82 -53 4 -6
4 -9 -1 -5 -4 4 -15 2 -23 -5 -12 -10 -14 -9 -9 8 6 23 21 101 37 195 16 97
28 127 61 155 37 30 76 32 127 6z m3333 -4 c19 -12 40 -35 47 -50 12 -24 72
-274 72 -298 0 -5 -18 3 -40 17 -26 17 -48 25 -65 22 -13 -3 -22 -1 -19 4 11
18 -52 -5 -85 -31 -57 -45 -147 -230 -220 -452 -78 -241 -140 -406 -229 -621
-72 -170 -179 -407 -192 -421 -4 -5 -31 6 -59 22 -49 29 -253 110 -314 125
-21 5 -26 10 -19 19 22 27 198 356 382 717 208 406 253 489 313 583 20 31 37
59 37 62 0 2 28 42 62 87 109 146 213 236 274 238 12 0 36 -10 55 -23z m-3446
-327 c-17 -8 -16 -9 10 -11 27 -2 26 -3 -10 -8 -30 -5 -41 -12 -47 -31 -6 -19
-7 -17 -3 10 6 37 19 50 50 49 l20 0 -20 -9z m72 -23 c-2 -6 -11 -11 -20 -13
-9 -1 -15 2 -11 7 3 5 10 7 15 4 13 -9 11 9 -3 25 -11 12 -10 12 5 1 10 -8 16
-19 14 -24z m3334 16 c-11 -5 -11 -7 0 -14 11 -7 10 -9 -4 -9 -10 0 -15 -4
-12 -10 3 -5 1 -10 -4 -10 -6 0 -11 -10 -12 -22 0 -20 -1 -21 -8 -4 -5 13 -11
-1 -21 -48 -7 -36 -18 -66 -22 -66 -5 0 -7 8 -4 18 2 9 12 45 22 79 10 38 21
60 27 56 6 -4 8 0 4 11 -4 9 -3 14 2 11 5 -3 12 -1 16 5 3 5 12 10 18 9 8 0 7
-3 -2 -6z m-3494 -55 c-3 -8 -6 -5 -6 6 -1 11 2 17 5 13 3 -3 4 -12 1 -19z
m187 6 c5 -14 4 -15 -9 -4 -17 14 -19 20 -6 20 5 0 12 -7 15 -16z m3464 -3 c7
-4 24 -59 36 -122 32 -154 41 -223 28 -216 -5 4 -12 35 -16 69 -11 100 -18
138 -25 134 -3 -2 -7 15 -8 38 -2 22 -7 42 -13 44 -6 2 -7 8 -4 13 3 6 -2 19
-12 30 -17 19 -10 25 14 10z m-190 -55 c-7 -8 -15 -12 -17 -11 -5 6 10 25 20
25 5 0 4 -6 -3 -14z m9 -68 c-3 -7 -5 -2 -5 12 0 14 2 19 5 13 2 -7 2 -19 0
-25z m-3230 -40 c-3 -8 -6 -5 -6 6 -1 11 2 17 5 13 3 -3 4 -12 1 -19z m3158
-43 c-3 -26 -8 -45 -11 -43 -2 3 -1 26 2 52 4 25 9 44 12 42 2 -3 1 -26 -3
-51z m252 3 c-3 -7 -5 -2 -5 12 0 14 2 19 5 13 2 -7 2 -19 0 -25z m20 0 c-3
-8 -6 -5 -6 6 -1 11 2 17 5 13 3 -3 4 -12 1 -19z m-3730 -50 c-3 -7 -5 -2 -5
12 0 14 2 19 5 13 2 -7 2 -19 0 -25z m20 0 c-3 -8 -6 -5 -6 6 -1 11 2 17 5 13
3 -3 4 -12 1 -19z m327 -143 c7 -38 6 -39 -9 -20 -9 12 -14 29 -10 42 3 12 1
25 -5 28 -5 3 -10 17 -10 30 0 13 -4 27 -10 30 -5 3 -10 16 -9 28 0 21 1 21 9
2 8 -18 9 -18 10 5 2 22 12 -20 34 -145z m-354 115 c7 -14 9 -21 4 -17 -4 4
-14 -3 -21 -15 l-12 -23 -1 23 c0 12 5 22 11 22 6 0 8 9 3 23 -8 26 -1 21 16
-13z m307 -42 c-3 -7 -5 -2 -5 12 0 14 2 19 5 13 2 -7 2 -19 0 -25z m3139 -53
c-1 -52 -5 -84 -11 -81 -5 1 -9 20 -7 42 3 51 13 124 16 124 1 0 2 -38 2 -85z
m-3475 -19 c-11 -13 -34 -167 -37 -241 0 -27 -2 -61 -3 -75 -3 -22 -4 -22 -13
9 -7 26 -4 69 13 173 12 76 26 138 31 138 5 0 6 12 3 28 -5 26 -5 26 5 3 7
-15 7 -28 1 -35z m3854 -96 c10 -52 19 -104 21 -115 2 -11 7 -38 13 -60 20
-89 21 -104 6 -99 -8 3 -16 13 -19 22 -2 10 -8 28 -11 41 -4 14 -3 21 2 18 5
-3 7 8 5 26 -4 28 -6 30 -14 12 -6 -15 -7 -13 -3 9 5 23 3 27 -9 23 -10 -4
-13 -1 -9 9 4 11 8 12 20 3 12 -11 13 -8 7 17 -4 16 -10 31 -14 34 -7 5 -15
48 -25 134 -9 74 13 22 30 -74z m-368 68 c-3 -8 -6 -5 -6 6 -1 11 2 17 5 13 3
-3 4 -12 1 -19z m-30 -80 c-3 -7 -5 -2 -5 12 0 14 2 19 5 13 2 -7 2 -19 0 -25z
m30 0 c-3 -7 -5 -2 -5 12 0 14 2 19 5 13 2 -7 2 -19 0 -25z m340 -30 c-3 -7
-5 -2 -5 12 0 14 2 19 5 13 2 -7 2 -19 0 -25z m-360 -60 c-2 -13 -4 -3 -4 22
0 25 2 35 4 23 2 -13 2 -33 0 -45z m-19 -87 c0 -49 4 -65 19 -76 10 -8 14 -15
10 -15 -4 0 -3 -9 3 -20 7 -12 7 -20 1 -20 -5 0 -13 9 -16 20 -10 32 -22 23
-17 -12 3 -18 2 -30 -2 -27 -4 3 -7 23 -8 43 -1 20 -6 36 -11 36 -6 0 -7 24
-3 63 4 34 7 73 7 87 0 23 1 24 9 4 4 -11 8 -48 8 -83z m-3518 -78 c-11 -17
-11 -17 -6 0 3 10 7 28 7 40 2 22 2 22 6 0 2 -12 -1 -30 -7 -40z m39 -28 c0
-5 -4 -3 -9 5 -5 8 -9 22 -9 30 0 16 17 -16 18 -35z m-42 -27 c-3 -7 -5 -2 -5
12 0 14 2 19 5 13 2 -7 2 -19 0 -25z m3997 -63 c3 -33 20 -141 36 -240 33
-200 63 -455 58 -488 -3 -12 -8 14 -12 58 -4 44 -11 89 -15 100 -5 11 -7 42
-6 68 1 28 -3 47 -9 48 -6 0 -21 13 -33 29 -21 26 -22 30 -8 56 10 20 15 23
15 12 0 -10 5 -18 11 -18 6 0 8 9 3 23 -4 12 -9 33 -11 47 -11 87 -15 119 -18
153 -3 38 -15 65 -15 34 0 -9 -4 -18 -9 -22 -6 -3 -6 7 0 27 11 40 12 68 1 51
-4 -6 -7 24 -7 68 -1 88 10 85 19 -6z m-4014 -78 c-20 -168 -21 -180 -22 -232
-1 -42 -2 -46 -10 -25 -5 14 -7 41 -3 60 4 19 8 49 9 65 9 100 30 258 34 247
2 -7 -2 -58 -8 -115z m38 82 c-3 -8 -7 -3 -11 10 -4 17 -3 21 5 13 5 -5 8 -16
6 -23z m19 -1 c-3 -7 -5 -2 -5 12 0 14 2 19 5 13 2 -7 2 -19 0 -25z m3523 12
c-8 -15 -8 -30 0 -55 6 -19 9 -44 5 -55 -4 -11 1 -34 9 -52 19 -37 19 -38 6
-38 -8 0 -29 61 -58 173 -6 22 -7 35 -1 32 5 -4 10 -16 10 -28 1 -20 2 -21 6
-2 5 20 22 45 30 45 2 0 -1 -9 -7 -20z m-3151 -119 c-6 -18 -13 -30 -15 -28
-2 2 1 18 7 36 6 18 13 30 15 28 2 -2 -1 -18 -7 -36z m-9 -50 c0 -17 -104
-101 -125 -101 -5 0 5 10 23 21 17 12 32 24 32 28 0 4 12 13 26 20 19 8 25 17
21 31 -3 13 -1 17 9 13 8 -3 14 -8 14 -12z m3254 -64 c4 4 4 0 1 -10 -7 -15
-8 -15 -31 1 -30 22 -31 37 -1 17 13 -8 27 -12 31 -8z m66 -28 c0 -6 -4 -7
-10 -4 -5 3 -10 11 -10 16 0 6 5 7 10 4 6 -3 10 -11 10 -16z m-20 -35 c0 -4
-9 1 -20 11 -11 10 -20 23 -20 28 0 6 9 1 20 -11 11 -12 20 -24 20 -28z m310
-17 c0 -18 -2 -19 -10 -7 -13 20 -13 43 0 35 6 -3 10 -16 10 -28z m-4043 -9
c-3 -7 -5 -2 -5 12 0 14 2 19 5 13 2 -7 2 -19 0 -25z m256 -28 c-3 -12 -8 -19
-11 -16 -5 6 5 36 12 36 2 0 2 -9 -1 -20z m3579 -20 c1 -9 -1 -17 -7 -18 -5
-1 -11 10 -13 25 -4 29 13 23 20 -7z m185 -7 c-3 -10 -5 -4 -5 12 0 17 2 24 5
18 2 -7 2 -21 0 -30z m-4045 -30 c-7 -36 -12 -27 -11 20 0 30 3 36 8 23 4 -11
6 -30 3 -43z m228 -88 c-16 -55 -29 -93 -29 -84 -1 8 6 39 15 68 8 29 13 60
10 68 -3 8 -2 12 3 9 5 -3 12 6 15 20 4 15 9 25 11 23 2 -3 -9 -49 -25 -104z
m-203 63 c-3 -7 -5 -2 -5 12 0 14 2 19 5 13 2 -7 2 -19 0 -25z m3823 6 c0 -8
-4 -12 -10 -9 -5 3 -10 10 -10 16 0 5 5 9 10 9 6 0 10 -7 10 -16z m-3841 -34
c1 13 2 13 11 0 5 -8 9 -22 9 -30 0 -10 -3 -8 -9 5 -6 13 -9 15 -9 5 -1 -13
-2 -13 -11 0 -5 8 -9 22 -9 30 0 10 3 8 9 -5 6 -13 9 -15 9 -5z m198 -12 c-3
-8 -6 -5 -6 6 -1 11 2 17 5 13 3 -3 4 -12 1 -19z m3675 -14 c7 1 19 5 26 9 8
6 12 0 12 -18 0 -14 6 -28 13 -31 8 -3 14 -22 15 -47 1 -30 -1 -38 -8 -27 -5
8 -10 24 -11 35 -1 11 -6 3 -11 -19 l-11 -39 -13 33 c-8 18 -12 35 -9 38 3 3
5 0 5 -6 0 -7 5 -12 10 -12 17 0 11 16 -14 42 -14 13 -27 37 -31 53 -4 25 -4
26 4 8 5 -12 16 -21 23 -19z m-3884 -59 l1 -20 -8 20 c-6 14 -10 -5 -15 -60
-9 -94 -15 -141 -22 -174 -8 -35 7 -202 17 -195 5 3 14 -7 19 -22 8 -20 15
-25 31 -21 16 4 19 2 14 -16 -5 -18 -4 -19 5 -7 11 15 9 -14 -6 -75 -4 -16 -3
-17 5 -5 6 8 11 24 11 36 0 11 4 24 9 30 16 16 40 96 34 112 -4 9 -2 13 4 9 7
-4 14 5 18 23 4 16 11 32 15 35 5 3 7 20 3 37 -4 22 -3 29 5 24 14 -8 16 -48
3 -61 -4 -6 -16 -41 -26 -80 -10 -38 -22 -75 -26 -80 -4 -6 -19 -39 -32 -75
l-25 -65 -11 35 -11 35 6 -35 c13 -72 0 -119 -22 -79 -7 13 -10 27 -8 31 3 5
1 8 -4 8 -4 0 -16 25 -26 55 -24 77 -23 278 4 474 11 84 20 158 21 165 1 17
17 -36 17 -59z m2287 10 c192 -29 309 -57 438 -106 328 -126 604 -303 818
-527 82 -85 189 -225 189 -247 0 -4 -13 4 -30 18 -155 131 -683 334 -1081 415
-228 47 -330 56 -619 56 -254 0 -273 -1 -452 -32 -272 -47 -558 -129 -750
-213 -131 -57 -347 -167 -383 -193 -16 -12 -35 -26 -42 -30 -33 -19 139 215
215 292 192 196 502 383 802 485 90 30 320 76 450 90 96 10 354 6 445 -8z
m-2268 -27 c-3 -7 -5 -2 -5 12 0 14 2 19 5 13 2 -7 2 -19 0 -25z m3921 -81 c4
6 7 -41 8 -106 1 -139 -13 -101 -20 54 -2 55 -2 87 1 71 2 -16 8 -25 11 -19z
m-3774 -116 c-4 -28 -9 -50 -11 -47 -3 3 -2 28 2 56 4 28 9 49 12 47 2 -3 1
-28 -3 -56z m-43 -38 c-12 -20 -14 -14 -5 12 4 9 9 14 11 11 3 -2 0 -13 -6
-23z m4036 -20 c-3 -10 -5 -2 -5 17 0 19 2 27 5 18 2 -10 2 -26 0 -35z m-187
-107 c0 -39 -6 -30 -13 19 -4 27 -3 35 3 25 5 -8 10 -28 10 -44z m17 32 c-3
-8 -6 -5 -6 6 -1 11 2 17 5 13 3 -3 4 -12 1 -19z m30 0 c-3 -8 -6 -5 -6 6 -1
11 2 17 5 13 3 -3 4 -12 1 -19z m130 -10 c-3 -7 -5 -2 -5 12 0 14 2 19 5 13 2
-7 2 -19 0 -25z m-150 -50 c-3 -7 -5 -2 -5 12 0 14 2 19 5 13 2 -7 2 -19 0
-25z m-3947 -8 c0 -5 -4 -10 -10 -10 -5 0 -10 5 -10 10 0 6 5 10 10 10 6 0 10
-4 10 -10z m4100 0 c0 -5 -4 -10 -10 -10 -5 0 -10 5 -10 10 0 6 5 10 10 10 6
0 10 -4 10 -10z m-163 -32 c-3 -8 -6 -5 -6 6 -1 11 2 17 5 13 3 -3 4 -12 1
-19z m-3917 -13 c0 -14 -4 -25 -10 -25 -5 0 -10 11 -10 25 0 14 5 25 10 25 6
0 10 -11 10 -25z m4085 -51 c-7 -59 -41 -173 -56 -188 -10 -11 -43 60 -35 77
2 7 5 4 5 -5 1 -10 6 -18 12 -18 7 0 9 11 6 27 -5 26 -4 26 9 9 13 -18 14 -18
24 8 14 37 13 43 -5 20 -13 -17 -14 -17 -15 -1 0 15 11 22 33 18 5 -1 6 7 2
18 -3 11 -1 22 5 26 5 3 10 19 10 36 0 16 3 29 6 29 4 0 3 -25 -1 -56z m-1820
-53 c459 -66 710 -140 1118 -330 100 -47 263 -161 336 -234 239 -241 289 -548
166 -1022 -53 -205 -99 -326 -178 -475 -66 -125 -146 -250 -160 -250 -6 0 -8
-3 -4 -6 11 -12 -110 -153 -214 -250 -74 -67 -79 -62 -6 8 37 35 64 68 60 72
-5 4 -1 6 7 4 10 -2 14 4 12 17 -2 15 0 16 6 7 7 -11 10 -11 15 2 4 9 2 16 -4
16 -6 0 -7 5 -3 11 4 8 9 7 15 -2 8 -13 13 -5 10 14 0 4 5 7 13 7 22 0 46 43
34 63 -6 11 -5 17 2 17 5 0 10 -7 10 -16 0 -8 5 -12 10 -9 6 4 8 11 5 16 -4 5
-1 9 4 9 6 0 11 7 11 15 0 7 8 18 17 24 10 5 14 13 10 17 -4 5 -17 3 -27 -4
-11 -7 -20 -8 -20 -3 0 12 37 24 49 17 4 -3 16 3 26 14 16 18 14 25 -7 21 -5
0 -8 6 -8 15 0 14 3 14 15 4 21 -17 30 -6 11 13 -18 18 -2 36 27 32 10 -2 21
4 23 13 3 9 9 24 14 33 5 10 4 21 -3 28 -13 13 10 64 25 55 5 -3 1 -12 -8 -19
-12 -8 -15 -18 -9 -31 8 -18 8 -18 13 1 2 11 9 25 14 32 5 7 7 17 3 23 -3 5 1
20 9 32 11 15 16 18 16 8 0 -19 22 22 45 86 10 27 22 54 26 59 16 21 15 120
-1 110 -6 -3 -10 4 -10 18 0 41 -21 87 -39 87 -18 0 -41 -38 -41 -65 0 -8 -10
-20 -22 -26 -20 -10 -21 -10 -12 2 6 8 14 23 18 34 6 16 3 15 -17 -5 -13 -14
-21 -32 -19 -40 4 -12 2 -12 -8 -3 -10 9 -1 25 41 75 29 34 55 62 58 61 3 -1
7 8 7 20 1 12 11 49 24 82 26 70 59 248 67 356 7 100 -11 238 -38 297 -23 50
-26 56 -28 73 0 5 -6 7 -13 3 -7 -4 -8 -3 -4 5 11 18 -47 90 -105 129 -43 29
-230 124 -249 127 -3 0 -11 4 -18 9 -8 5 -18 4 -23 -1 -7 -7 1 -12 21 -17 17
-3 29 -10 25 -16 -3 -6 1 -7 10 -4 9 4 26 -4 41 -20 15 -14 30 -23 35 -20 5 3
16 -2 25 -10 8 -9 23 -16 31 -16 17 0 100 -53 142 -89 13 -12 19 -21 14 -21
-6 0 -16 7 -23 16 -24 28 -94 63 -200 98 -215 72 -436 63 -611 -25 -25 -12
-36 -14 -36 -5 0 6 10 13 21 14 12 0 31 12 42 26 16 18 25 21 33 13 8 -8 11
-8 11 1 0 7 12 12 27 12 15 0 40 4 57 10 17 5 51 16 76 24 25 8 37 15 27 16
-10 0 -26 -4 -36 -10 -10 -5 -51 -11 -92 -14 -41 -3 -101 -14 -134 -26 -98
-33 -92 -30 -75 -41 11 -7 7 -8 -12 -3 -18 4 -28 2 -28 -6 0 -6 5 -8 10 -5 6
3 10 1 10 -5 0 -7 -7 -9 -16 -6 -34 13 -105 -48 -88 -76 5 -7 2 -9 -7 -6 -9 4
-14 -2 -15 -19 l-2 -24 20 23 c11 13 25 22 30 20 5 -1 8 3 5 10 -2 7 -11 12
-18 10 -8 -2 -10 0 -6 5 5 4 12 8 15 9 4 0 15 4 25 9 14 6 15 10 6 15 -7 5 -2
7 14 7 l26 -2 -27 -22 c-37 -30 -18 -29 35 3 25 14 47 24 49 21 3 -2 -21 -19
-53 -37 -32 -18 -88 -62 -124 -97 -36 -34 -69 -60 -74 -56 -4 5 -5 3 -1 -4 3
-7 -12 -35 -34 -65 -23 -29 -68 -107 -101 -173 -33 -66 -57 -110 -54 -97 7 23
6 23 -24 8 -16 -9 -39 -16 -51 -16 -11 0 -20 -4 -20 -9 0 -15 -118 -62 -198
-78 -64 -13 -93 -14 -178 -5 -98 11 -205 45 -245 79 -8 7 -18 13 -22 13 -3 0
-18 5 -34 11 -15 6 -29 9 -31 7 -8 -10 -50 80 -46 97 4 15 3 16 -4 6 -8 -11
-11 -9 -17 10 -4 12 -21 44 -37 71 -16 26 -27 52 -23 58 4 6 1 9 -6 8 -6 -2
-14 3 -17 11 -3 9 0 11 8 6 9 -5 11 -4 6 4 -4 6 -11 9 -16 6 -12 -8 -33 23
-24 37 4 7 3 10 -1 5 -10 -9 -55 31 -55 50 0 7 -4 13 -10 13 -5 0 -7 13 -5 30
2 16 0 28 -3 27 -4 -1 -31 21 -59 49 -95 94 -195 132 -363 138 -47 2 -68 2
-47 -1 20 -2 37 -8 37 -12 0 -4 -58 -6 -128 -3 -146 5 -264 -13 -344 -53 -25
-13 -49 -20 -53 -17 -4 4 -12 -1 -20 -11 -11 -15 -13 -16 -19 -2 -7 18 16 30
40 21 14 -5 15 -4 4 9 -13 15 -24 12 -79 -23 -20 -14 -21 -17 -8 -27 14 -10
13 -13 -4 -23 -11 -7 -19 -8 -19 -2 0 5 5 10 12 10 9 0 9 3 -1 13 -18 18 -72
-48 -123 -151 -55 -112 -65 -194 -51 -390 7 -90 20 -178 34 -227 12 -44 23
-90 23 -102 1 -11 4 -19 7 -17 4 2 10 -4 13 -13 11 -28 100 -142 112 -143 14
0 46 -35 38 -42 -3 -4 5 -9 18 -14 59 -18 118 -76 75 -73 -8 0 -7 2 1 6 10 4
5 11 -14 24 -15 10 -32 15 -37 12 -6 -3 -7 -1 -4 4 7 11 -37 28 -60 24 -19 -3
-26 19 -11 36 9 11 9 14 1 10 -13 -8 -63 19 -63 35 0 5 5 6 12 2 7 -4 8 -3 4
5 -4 6 -12 9 -17 6 -5 -4 -9 -2 -9 3 0 15 -43 8 -48 -7 -3 -10 2 -12 21 -7 20
5 27 2 32 -14 4 -12 2 -27 -4 -34 -7 -9 -9 -45 -5 -107 7 -88 9 -96 39 -130
18 -20 36 -46 40 -58 3 -12 13 -21 21 -21 21 0 18 -49 -6 -95 -11 -22 -20 -40
-20 -42 0 -3 33 4 53 12 10 4 17 3 17 -5 0 -6 -4 -8 -10 -5 -5 3 -10 2 -10 -4
0 -5 5 -13 10 -16 6 -3 10 -14 9 -23 0 -12 -3 -11 -9 6 -5 12 -12 22 -16 22
-3 0 -3 -8 1 -17 4 -10 8 -26 11 -37 2 -10 6 -21 10 -25 4 -3 4 2 1 12 -4 9
-2 17 3 17 6 0 10 -6 10 -14 0 -7 7 -27 16 -42 l16 -29 -6 39 c-3 23 -2 35 4
30 4 -5 10 -22 12 -39 2 -16 8 -29 14 -28 6 1 10 -8 9 -20 -2 -12 9 -35 24
-51 19 -21 21 -25 6 -16 -11 7 -33 29 -48 49 -83 108 -95 126 -91 132 2 4 -3
9 -11 13 -8 3 -12 12 -9 21 4 9 2 15 -5 13 -6 -2 -22 16 -36 40 -15 23 -21 42
-16 42 6 0 11 4 11 10 0 5 -7 7 -15 4 -9 -4 -15 0 -15 9 0 8 -3 17 -8 19 -14
6 -83 170 -78 185 3 8 2 11 -4 8 -10 -6 -79 209 -103 320 -10 46 -12 85 -7
115 4 25 8 34 9 20 1 -21 6 -25 36 -27 30 -3 35 0 35 20 0 12 -7 47 -16 77 -9
30 -17 66 -20 80 l-4 25 9 -25 c7 -20 8 -14 7 27 -1 46 -2 49 -13 30 -10 -19
-12 -14 -8 33 l4 55 -11 -52 c-13 -61 -27 -71 -23 -15 2 29 1 31 -3 7 -5 -28
-6 -27 -13 15 l-7 45 1 -50 c0 -27 -2 -57 -6 -65 -3 -8 -8 -28 -11 -45 -2 -16
-3 44 -1 135 2 153 5 172 33 260 96 296 329 485 867 705 234 95 559 168 890
199 86 8 347 -4 480 -23z m1735 -174 c0 -2 -10 -12 -22 -23 l-23 -19 19 23
c18 21 26 27 26 19z m-3035 -397 c13 -6 15 -9 5 -9 -8 0 -22 4 -30 9 -18 12
-2 12 25 0z m85 -25 c31 -18 16 -18 -30 0 -23 9 -28 14 -15 14 11 0 31 -6 45
-14z m1825 5 c-3 -5 -14 -10 -23 -10 -15 0 -15 2 -2 10 20 13 33 13 25 0z
m-1634 -113 c24 -19 49 -32 56 -30 6 2 14 0 17 -5 3 -5 -3 -8 -12 -7 -19 1
-133 75 -116 75 6 0 31 -15 55 -33z m-1022 -33 c-18 -19 -35 -32 -37 -30 -7 8
52 75 61 69 5 -3 -6 -20 -24 -39z m481 17 c0 -5 13 -9 28 -9 52 2 202 -78 265
-140 32 -31 61 -56 65 -56 4 1 6 -3 4 -8 -1 -6 36 -50 83 -99 143 -148 199
-300 148 -397 -10 -18 -58 -73 -108 -122 -111 -112 -158 -134 -285 -133 -74 0
-94 4 -153 31 -207 95 -337 354 -293 583 27 143 103 259 201 308 28 14 34 20
20 21 -12 0 -27 -6 -34 -12 -11 -11 -13 -10 -8 4 4 11 0 19 -11 22 -9 2 1 3
23 0 30 -3 35 -2 20 5 -18 9 -17 10 8 10 15 1 27 -3 27 -8z m2701 -14 c27 -11
30 -14 16 -20 -11 -4 -16 -3 -12 3 3 6 3 10 -2 10 -4 0 -19 3 -33 7 -23 6 -24
5 -10 -12 14 -16 12 -17 -20 -12 l-35 6 38 -16 c25 -10 36 -21 33 -30 -3 -8
-2 -12 2 -9 4 2 13 -7 19 -22 7 -15 22 -49 34 -77 35 -81 48 -154 49 -260 0
-161 -42 -273 -143 -381 -87 -94 -189 -138 -322 -139 -71 0 -86 3 -130 29 -27
17 -75 55 -105 85 -30 31 -59 54 -63 53 -5 -1 -6 2 -3 7 3 5 -10 32 -29 61
-46 68 -50 87 -31 146 41 133 93 219 190 318 43 43 227 175 260 186 20 6 36
16 36 22 0 6 6 8 14 5 10 -4 14 0 11 14 -3 12 2 19 12 19 9 0 14 3 11 6 -3 3
-21 1 -39 -5 -30 -8 -31 -9 -9 -10 20 -1 22 -3 10 -11 -17 -11 -51 -3 -62 14
-21 31 241 43 313 13z m-2802 9 c-10 -10 -79 -24 -79 -16 0 8 26 16 64 19 11
0 17 -1 15 -3z m-90 -28 c-27 -17 -93 -47 -96 -45 -1 2 18 15 44 30 26 14 50
24 52 21 2 -2 2 -5 0 -6z m2570 -2 c13 -16 -2 -32 -19 -21 -17 10 -70 -5 -70
-21 0 -8 5 -14 11 -14 5 0 8 4 5 9 -3 4 7 6 22 4 24 -3 25 -2 7 7 -18 9 -17
10 5 5 14 -2 32 -5 40 -5 8 0 2 -7 -13 -15 -15 -8 -33 -13 -40 -11 -7 1 -9 1
-4 -1 9 -6 -1 -23 -14 -23 -6 0 -7 5 -4 10 14 22 -32 8 -65 -20 -37 -32 -46
-35 -54 -21 -3 5 0 8 7 7 6 0 12 2 12 7 0 4 15 16 33 27 17 11 32 22 32 26 0
3 -15 -3 -32 -15 -18 -11 -32 -26 -30 -32 2 -7 -4 -9 -12 -6 -18 7 -106 -50
-153 -98 -18 -19 -33 -30 -33 -26 0 5 19 26 43 47 64 57 97 84 97 79 0 -3 8 3
19 14 18 18 175 101 191 101 4 0 13 -6 19 -14z m-2469 -4 c0 -4 -21 -28 -47
-52 -27 -25 -42 -38 -35 -30 15 18 16 34 0 24 -7 -5 -8 -3 -4 5 5 7 15 10 23
7 8 -3 11 -1 8 5 -4 5 3 19 16 30 23 20 39 25 39 11z m2510 -16 c0 -3 -4 -8
-10 -11 -5 -3 -10 -1 -10 4 0 6 5 11 10 11 6 0 10 -2 10 -4z m400 -32 c0 -2
-9 0 -20 6 -11 6 -20 13 -20 16 0 2 9 0 20 -6 11 -6 20 -13 20 -16z m-3149
-47 c-13 -12 -20 -15 -15 -7 12 22 28 39 33 34 3 -3 -6 -15 -18 -27z m729 -4
c0 -7 -39 17 -46 28 -3 6 5 3 20 -6 14 -10 26 -19 26 -22z m1856 -18 c-22 -19
-42 -32 -45 -29 -3 4 0 9 8 12 7 2 23 15 34 28 11 13 25 24 31 24 6 -1 -7 -16
-28 -35z m614 13 c10 -21 10 -21 -3 -6 -11 14 -16 15 -26 5 -10 -9 -11 -8 -6
6 10 23 22 21 35 -5z m-2400 -53 c19 -19 32 -35 29 -35 -3 0 -20 16 -39 35
-19 19 -32 35 -29 35 3 0 20 -16 39 -35z m-840 -15 c-6 -11 -8 -25 -5 -30 3
-5 1 -11 -5 -15 -5 -3 -10 -1 -10 6 0 20 24 81 28 70 2 -5 -2 -19 -8 -31z
m2555 20 c8 -12 -23 -45 -33 -36 -3 4 0 11 7 15 7 5 10 14 7 20 -4 6 -3 11 3
11 5 0 13 -5 16 -10z m719 -40 c-5 -5 -9 4 -10 23 -1 30 -1 30 9 9 6 -14 7
-26 1 -32z m13 -52 c-3 -7 -5 -2 -5 12 0 14 2 19 5 13 2 -7 2 -19 0 -25z
m-3314 -39 c-6 -6 -7 3 -4 23 4 28 6 29 9 9 2 -13 0 -27 -5 -32z m2507 47 c0
-3 -4 -8 -10 -11 -5 -3 -10 -1 -10 4 0 6 5 11 10 11 6 0 10 -2 10 -4z m-1542
-31 c-3 -3 -9 2 -12 12 -6 14 -5 15 5 6 7 -7 10 -15 7 -18z m1396 -41 c-13
-26 -21 -52 -17 -58 3 -6 3 -8 -2 -4 -11 10 -37 -28 -50 -72 -6 -19 -14 -30
-17 -25 -8 13 31 105 44 105 5 0 7 4 3 9 -3 5 1 15 8 23 7 7 20 25 30 41 27
41 27 32 1 -19z m963 -56 c-2 -18 -4 -6 -4 27 0 33 2 48 4 33 2 -15 2 -42 0
-60z m-2317 47 c7 -9 8 -15 2 -15 -5 0 -12 7 -16 15 -3 8 -4 15 -2 15 2 0 9
-7 16 -15z m20 -62 c-10 -16 -11 -16 -6 0 3 9 1 17 -5 17 -6 0 -7 5 -3 11 4 7
10 7 16 1 7 -7 6 -16 -2 -29z m74 -158 c54 -169 75 -258 65 -271 -18 -22 -175
-112 -234 -134 -154 -56 -310 -72 -449 -45 -72 13 -166 47 -166 60 0 3 12 -1
28 -8 26 -14 71 -28 102 -33 65 -11 187 -19 217 -15 35 4 36 5 13 12 -16 5 -6
6 25 3 37 -4 46 -3 35 5 -9 6 -10 11 -3 11 6 0 20 3 30 6 15 5 15 4 3 -5 -9
-7 -10 -11 -3 -11 6 0 15 5 18 10 3 6 16 10 28 9 21 0 21 -1 2 -9 -29 -13 -8
-12 39 2 22 6 56 25 74 42 18 17 38 31 45 32 48 4 51 7 22 15 l-30 8 30 -2
c17 -1 35 1 40 5 6 3 22 5 37 3 34 -4 47 13 24 30 -15 12 -15 13 1 20 10 5 21
8 24 7 4 -1 10 19 14 45 5 33 3 48 -6 54 -7 4 -17 5 -21 3 -4 -3 -5 2 -1 11 5
14 8 14 15 3 7 -9 8 -8 4 5 -3 10 -6 28 -7 40 -1 20 -2 20 -10 -3 -7 -20 -8
-17 -4 15 4 35 0 45 -28 75 -19 20 -25 31 -14 27 19 -7 25 17 6 29 -6 3 -9 15
-6 25 3 10 0 20 -5 21 -6 2 -12 17 -14 33 l-3 30 14 -25 c8 -14 30 -74 49
-135z m-1097 108 c-3 -10 -5 -4 -5 12 0 17 2 24 5 18 2 -7 2 -21 0 -30z m1270
-5 c-3 -8 -6 -5 -6 6 -1 11 2 17 5 13 3 -3 4 -12 1 -19z m2033 -65 c-11 -17
-11 -17 -6 0 3 10 7 26 7 35 1 15 2 15 6 0 2 -10 -1 -25 -7 -35z m-1285 -106
c-19 -75 -36 -147 -36 -159 -1 -18 -2 -19 -6 -5 -6 25 63 314 73 304 2 -2 -12
-65 -31 -140z m248 106 c-7 -3 -13 -12 -13 -20 0 -9 -2 -14 -5 -11 -4 3 -3 18
1 33 5 20 9 24 18 14 8 -8 8 -13 -1 -16z m-2553 -115 c0 -45 -2 -79 -4 -77 -7
8 -14 119 -9 139 10 37 13 21 13 -62z m1597 50 c-3 -8 -6 -5 -6 6 -1 11 2 17
5 13 3 -3 4 -12 1 -19z m917 -43 c-8 -33 -15 -72 -15 -87 0 -16 -5 -28 -10
-28 -5 0 -7 -21 -5 -47 2 -37 8 -48 25 -55 12 -4 24 -14 27 -22 3 -9 12 -12
21 -9 10 4 14 2 10 -4 -4 -6 29 -26 74 -47 68 -31 84 -35 98 -24 14 11 14 11
3 -3 -11 -14 -9 -16 14 -11 19 3 25 1 20 -7 -4 -6 -3 -11 3 -11 5 0 17 -3 27
-7 13 -5 15 -3 9 8 -7 11 -6 12 6 3 24 -18 62 -24 78 -11 9 8 12 8 8 1 -20
-34 207 -20 313 19 56 20 101 47 95 56 -2 5 2 14 10 21 8 7 12 17 9 22 -4 6 3
5 15 -1 22 -12 45 -6 36 9 -3 4 11 17 31 29 21 13 32 26 28 33 -4 7 -3 8 4 4
7 -4 12 -3 12 1 0 9 13 28 50 73 19 23 19 21 -2 -19 -44 -84 -173 -198 -265
-234 -127 -50 -324 -59 -453 -22 -117 34 -284 116 -317 157 -14 16 -9 69 11
143 8 28 20 70 26 94 6 23 13 41 15 39 2 -2 -3 -30 -11 -63z m1063 43 c-3 -8
-6 -5 -6 6 -1 11 2 17 5 13 3 -3 4 -12 1 -19z m-3520 -10 c-3 -8 -6 -5 -6 6
-1 11 2 17 5 13 3 -3 4 -12 1 -19z m-24 -8 c3 -11 1 -18 -4 -14 -5 3 -9 12 -9
20 0 20 7 17 13 -6z m294 -12 c-3 -8 -6 -5 -6 6 -1 11 2 17 5 13 3 -3 4 -12 1
-19z m1304 -70 c19 -76 23 -95 14 -86 -5 5 -44 147 -45 162 0 25 13 -10 31
-76z m1927 37 c-6 -14 -13 -23 -15 -21 -5 5 15 46 22 46 3 0 -1 -11 -7 -25z
m-3190 -48 c12 -26 17 -45 13 -42 -9 5 -51 90 -51 102 0 15 18 -14 38 -60z
m-318 23 c0 -5 -5 -10 -11 -10 -5 0 -7 5 -4 10 3 6 8 10 11 10 2 0 4 -4 4 -10z
m4029 -135 c11 -19 16 -35 11 -35 -6 0 -10 4 -10 10 0 5 -6 7 -13 4 -8 -3 -13
6 -15 26 -3 39 1 38 27 -5z m-4239 -12 c0 -20 -3 -24 -11 -16 -7 7 -9 19 -6
27 10 24 17 19 17 -11z m691 -68 c7 5 10 4 5 -3 -8 -13 28 -35 39 -24 5 4 5 1
1 -5 -4 -8 -2 -13 5 -13 7 0 10 -3 6 -6 -8 -9 -87 48 -127 93 -32 34 -31 34
12 -6 29 -27 51 -41 59 -36z m1772 -47 c1 -9 6 -14 11 -11 5 4 7 -1 3 -10 -16
-39 -17 -51 -4 -29 12 21 15 22 26 8 13 -15 8 -21 -14 -16 -5 1 -4 -4 3 -12
10 -10 14 -10 21 0 6 10 16 9 44 -8 21 -12 35 -26 32 -30 -3 -4 3 -7 13 -6 9
0 16 -4 15 -11 -2 -8 4 -10 14 -6 11 4 14 3 9 -5 -5 -8 -2 -10 8 -6 9 3 16 2
16 -4 0 -5 8 -9 18 -8 12 1 16 -5 14 -19 -2 -15 0 -16 6 -7 7 11 20 9 66 -10
31 -14 54 -26 52 -29 -2 -2 5 -5 17 -6 57 -5 158 -29 151 -36 -5 -4 12 -5 36
-2 40 4 41 4 15 -5 -20 -7 -46 -7 -78 0 -60 13 -57 13 -57 -5 0 -16 34 -38 44
-28 3 3 6 1 6 -5 0 -6 -6 -14 -12 -19 -8 -5 1 -10 27 -14 l40 -6 -47 -2 c-55
-1 -73 -18 -26 -24 33 -4 33 -4 -4 -5 -21 -1 -38 -6 -38 -10 0 -5 64 -12 142
-16 254 -12 294 -23 380 -107 31 -31 36 -41 33 -73 -7 -70 -102 -199 -175
-236 -71 -36 -178 -50 -384 -50 -244 0 -312 9 -489 69 -162 54 -168 59 -175
166 -4 60 -4 61 58 153 34 51 65 90 70 87 4 -3 7 3 6 13 0 9 5 16 12 14 8 -1
11 2 7 8 -4 6 9 30 27 53 77 95 90 136 65 202 -38 98 -118 128 -240 91 -26 -8
-47 -12 -47 -10 0 10 63 34 92 35 30 1 31 2 8 8 -20 6 -12 9 35 14 34 3 72 4
85 1 19 -4 22 -3 10 5 -12 9 -12 11 3 17 9 3 17 10 17 16 0 5 -4 7 -9 4 -4 -3
-6 6 -3 20 4 22 7 19 24 -28 11 -29 20 -61 21 -70z m257 102 c0 -5 -2 -10 -4
-10 -3 0 -8 5 -11 10 -3 6 -1 10 4 10 6 0 11 -4 11 -10z m-911 -38 c-15 -6
-10 -28 11 -47 11 -10 20 -23 20 -28 0 -6 -9 -1 -20 11 -25 26 -50 30 -28 5 9
-10 13 -25 11 -33 -4 -12 -3 -13 5 -1 5 7 14 11 20 7 6 -3 19 5 29 18 11 13
33 26 49 27 43 5 167 -10 184 -22 11 -8 4 -9 -25 -5 -124 19 -152 19 -183 1
-36 -21 -61 -72 -69 -135 -6 -55 -3 -63 84 -178 36 -48 92 -127 124 -175 64
-96 71 -129 47 -210 -14 -45 -11 -43 -188 -105 -143 -49 -147 -50 -441 -62
-272 -11 -336 -5 -432 39 -98 44 -177 148 -177 230 0 39 31 98 55 107 8 4 15
12 15 18 0 7 19 20 41 30 25 11 37 21 30 25 -13 9 -7 9 231 17 158 5 178 8
183 23 10 34 -3 47 -43 43 -20 -3 -40 -9 -43 -15 -5 -6 -33 -6 -85 0 l-79 10
82 2 c72 1 82 3 88 21 3 11 11 20 18 20 7 0 7 3 1 9 -5 6 -28 5 -58 -3 -48
-12 -49 -13 -21 -20 19 -5 31 -3 33 3 4 13 22 15 22 2 0 -5 -8 -12 -19 -16
-25 -8 -74 12 -65 26 4 8 -6 9 -37 5 -34 -4 -38 -3 -19 4 18 7 4 9 -52 6 -43
-1 -75 1 -72 6 8 12 114 10 172 -3 42 -10 53 -9 73 5 26 18 19 20 -27 7 -18
-5 -37 -5 -45 0 -10 6 -5 9 16 9 42 1 180 33 242 58 136 52 280 160 305 228 6
19 15 34 20 34 4 0 4 8 1 17 -6 15 -5 16 9 3 9 -8 12 -16 7 -18z m2392 1 c-12
-20 -14 -14 -5 12 4 9 9 14 11 11 3 -2 0 -13 -6 -23z m82 -13 c3 -11 2 -18 -3
-15 -4 3 -10 14 -13 25 -3 11 -2 18 3 15 4 -3 10 -14 13 -25z m-1928 0 c-11
-5 -27 -9 -35 -9 -9 0 -8 4 5 9 11 5 27 9 35 9 9 0 8 -4 -5 -9z m1090 -40 c-3
-5 -11 -10 -16 -10 -6 0 -7 5 -4 10 3 6 11 10 16 10 6 0 7 -4 4 -10z m792 -12
c-3 -8 -6 -5 -6 6 -1 11 2 17 5 13 3 -3 4 -12 1 -19z m-4200 -30 c-3 -8 -6 -5
-6 6 -1 11 2 17 5 13 3 -3 4 -12 1 -19z m1300 16 c-3 -3 -12 -4 -19 -1 -8 3
-5 6 6 6 11 1 17 -2 13 -5z m820 0 c-3 -3 -12 -4 -19 -1 -8 3 -5 6 6 6 11 1
17 -2 13 -5z m1693 -50 c-7 -7 -17 -14 -23 -14 -5 0 -3 8 6 18 10 10 18 27 18
38 1 15 3 14 6 -4 3 -13 -1 -30 -7 -38z m-3926 20 c3 -8 2 -12 -4 -9 -6 3 -10
10 -10 16 0 14 7 11 14 -7z m963 10 c-3 -3 -12 -4 -19 -1 -8 3 -5 6 6 6 11 1
17 -2 13 -5z m-492 -24 c3 -5 3 -15 -1 -21 -6 -11 -23 6 -24 24 0 10 18 9 25
-3z m3373 -12 c8 -10 3 -13 -21 -14 -18 -1 -24 1 -14 3 9 2 17 9 17 14 0 12 6
11 18 -3z m595 -40 c4 -10 5 -18 2 -18 -4 0 -35 60 -35 69 0 8 26 -32 33 -51z
m-195 -3 c-3 -3 -9 2 -12 12 -6 14 -5 15 5 6 7 -7 10 -15 7 -18z m-478 -5 c-8
-6 -11 -10 -6 -10 5 0 3 -7 -4 -15 -8 -10 -21 -13 -33 -9 -13 4 -17 2 -13 -5
5 -7 2 -10 -6 -9 -8 2 -12 -5 -10 -17 2 -14 0 -16 -6 -7 -11 17 -42 5 -35 -14
3 -9 -2 -14 -18 -15 -21 -1 -20 -2 6 -9 27 -7 26 -8 -12 -7 -35 0 -41 3 -32
14 15 17 -1 16 -24 -1 -10 -8 -13 -16 -8 -17 6 -2 -17 -5 -51 -5 l-61 -2 38
14 c21 7 41 12 44 12 9 -1 91 34 149 64 29 15 50 22 46 16 -4 -6 -1 -9 7 -6 8
3 14 9 14 14 0 15 17 36 23 29 4 -3 0 -10 -8 -15z m464 -16 c3 -8 2 -12 -4 -9
-6 3 -10 10 -10 16 0 14 7 11 14 -7z m-4277 -16 c-3 -8 -6 -5 -6 6 -1 11 2 17
5 13 3 -3 4 -12 1 -19z m653 -2 c-7 -7 -13 -7 -20 0 -6 6 -3 10 10 10 13 0 16
-4 10 -10z m100 -16 c12 -12 24 -19 28 -16 5 3 14 1 21 -3 10 -6 9 -10 -3 -14
-9 -4 -28 5 -46 19 -16 14 -35 22 -41 18 -8 -4 -9 -3 -5 4 10 17 23 15 46 -8z
m1710 10 c-1 -9 -64 -87 -129 -158 l-65 -70 -45 51 c-51 55 -141 169 -141 177
0 3 85 5 190 5 104 0 190 -2 190 -5z m1804 -6 c3 -8 2 -12 -4 -9 -6 3 -10 10
-10 16 0 14 7 11 14 -7z m312 -152 c-3 -3 -6 0 -6 6 0 7 -7 9 -17 5 -13 -5
-15 -2 -10 11 4 10 -3 35 -18 62 -14 25 -25 50 -25 57 0 7 19 -21 41 -61 22
-41 38 -76 35 -80z m-551 109 c-6 -21 -25 -29 -25 -11 0 6 5 10 10 10 6 0 10
8 10 17 0 9 3 14 6 10 3 -3 3 -15 -1 -26z m235 8 c0 -6 -5 -7 -11 -3 -9 5 -10
-1 -5 -22 4 -16 3 -24 -2 -17 -5 9 -12 1 -22 -25 -8 -20 -13 -43 -12 -49 2 -7
-2 -13 -8 -13 -5 0 -10 -8 -10 -18 0 -10 -3 -22 -7 -26 -14 -13 -9 -46 7 -51
10 -3 29 -1 44 5 34 12 54 13 41 1 -9 -7 -144 -51 -158 -51 -3 0 21 55 52 123
32 67 62 132 65 145 7 21 26 22 26 1z m-3435 -9 c-3 -5 -12 -10 -18 -10 -7 0
-6 4 3 10 19 12 23 12 15 0z m25 -20 c-20 -13 -33 -13 -25 0 3 6 14 10 23 10
15 0 15 -2 2 -10z m249 -36 c8 -7 -74 -2 -99 6 -16 5 -2 6 35 3 33 -3 62 -7
64 -9z m2376 9 c-11 -3 -25 -9 -31 -14 -5 -4 -21 -6 -35 -3 -20 4 -19 3 6 -10
30 -14 29 -14 -25 -10 l-55 4 45 -14 c32 -10 38 -14 20 -15 -30 0 -92 26 -70
30 8 1 -12 6 -45 9 l-60 7 72 -2 c40 -1 76 2 80 6 8 7 56 15 98 16 l20 1 -20
-5z m-3215 -54 c0 -6 -4 -7 -10 -4 -5 3 -10 11 -10 16 0 6 5 7 10 4 6 -3 10
-11 10 -16z m2938 14 c-10 -2 -28 -2 -40 0 -13 2 -5 4 17 4 22 1 32 -1 23 -4z
m67 -3 c-3 -5 -12 -10 -18 -10 -7 0 -6 4 3 10 19 12 23 12 15 0z m-3354 -23
c-10 -9 -11 -8 -5 6 3 10 9 15 12 12 3 -3 0 -11 -7 -18z m3216 17 c-3 -3 -12
-4 -19 -1 -8 3 -5 6 6 6 11 1 17 -2 13 -5z m358 -4 c-11 -5 -29 -8 -40 -8 -16
0 -15 2 5 8 34 11 60 11 35 0z m-2192 -7 c-7 -2 -19 -2 -25 0 -7 3 -2 5 12 5
14 0 19 -2 13 -5z m1914 1 c-3 -3 -12 -4 -19 -1 -8 3 -5 6 6 6 11 1 17 -2 13
-5z m-2897 -90 c18 -30 29 -58 25 -62 -3 -4 -11 1 -16 11 -6 10 -15 14 -22 10
-8 -4 -8 -2 1 9 10 13 9 22 -9 52 -11 20 -19 36 -16 36 3 0 20 -25 37 -56z
m1013 29 c-13 -2 -33 -2 -45 0 -13 2 -3 4 22 4 25 0 35 -2 23 -4z m1804 1 c-3
-3 -12 -4 -19 -1 -8 3 -5 6 6 6 11 1 17 -2 13 -5z m1087 -29 c3 -8 1 -15 -4
-15 -6 0 -10 7 -10 15 0 8 2 15 4 15 2 0 6 -7 10 -15z m116 -5 c-8 -5 -19 -10
-25 -10 -5 0 -3 5 5 10 8 5 20 10 25 10 6 0 3 -5 -5 -10z m-497 -95 c-3 -9 -8
-14 -10 -11 -3 3 -2 9 2 15 9 16 15 13 8 -4z m947 -220 c44 -89 80 -168 80
-174 0 -7 -22 -11 -57 -11 -32 0 -87 -7 -123 -14 -36 -8 -121 -26 -190 -41
-69 -14 -199 -44 -290 -65 -91 -21 -199 -44 -240 -50 -89 -14 -96 -16 -270
-71 -80 -25 -157 -56 -190 -77 -45 -28 -20 0 138 158 106 106 223 231 259 279
74 96 95 120 69 78 -10 -16 -15 -31 -12 -34 6 -7 93 11 166 33 25 8 144 41
265 73 121 33 238 66 260 74 22 8 43 13 48 10 4 -2 43 -78 87 -168z m-4909
140 c40 -14 144 -44 229 -66 85 -22 206 -56 268 -75 94 -30 116 -33 129 -23
13 11 18 9 35 -11 11 -14 40 -50 66 -80 26 -30 46 -58 44 -63 -1 -5 2 -6 6 -3
13 8 45 -30 37 -44 -3 -5 -11 -8 -16 -4 -5 3 -7 9 -4 14 12 20 -14 18 -31 -3
-10 -12 -12 -17 -5 -10 11 9 17 8 28 -3 10 -10 19 -11 27 -5 7 6 19 3 35 -10
22 -18 22 -34 0 -34 -5 0 -9 -4 -10 -10 0 -5 -5 -16 -11 -22 -6 -7 -7 -13 -3
-13 4 0 2 -7 -5 -15 -8 -9 -9 -15 -2 -15 6 0 17 9 25 20 8 11 20 19 28 17 8
-2 11 -2 6 0 -4 3 -5 9 -1 14 3 5 0 9 -7 9 -10 0 -10 3 -1 12 9 9 27 -3 80
-53 37 -35 103 -95 145 -132 42 -38 77 -72 77 -77 0 -5 -21 10 -46 33 -25 23
-51 43 -58 43 -6 1 -17 2 -25 3 -7 0 -11 7 -8 15 4 9 -2 17 -14 21 -10 4 -17
11 -14 16 3 5 -2 6 -11 2 -15 -6 -15 -8 6 -25 27 -22 21 -23 -26 -3 -20 8 -77
25 -128 36 -50 12 -96 25 -101 30 -6 4 -49 13 -95 18 -99 13 -240 40 -395 76
-147 34 -432 93 -471 97 l-32 3 83 173 c46 94 85 172 88 172 2 0 37 -11 78
-25z m947 -240 c9 3 13 3 9 -1 -4 -4 5 -23 20 -43 17 -24 3 -14 -41 29 -36 35
-66 69 -66 74 0 6 14 -6 31 -27 21 -26 37 -36 47 -32z m2783 -2 c13 -16 12
-17 -3 -4 -10 7 -18 15 -18 17 0 8 8 3 21 -13z m-2674 -105 c2 -17 0 -19 -7
-8 -5 8 -6 18 -4 22 8 12 10 10 11 -14z m-203 -87 c3 -5 -2 -15 -12 -22 -15
-12 -16 -12 -5 2 7 9 10 19 6 22 -3 4 -4 7 0 7 3 0 8 -4 11 -9z m-949 -223
c61 -11 180 -37 265 -58 85 -21 193 -46 240 -55 97 -19 450 -106 555 -136 115
-34 195 -70 195 -89 0 -9 -16 -35 -35 -57 -51 -59 -106 -78 -230 -78 -102 1
-145 8 -295 52 -155 45 -183 52 -174 43 5 -5 27 -16 49 -25 38 -14 10 -13 -32
1 -12 5 -15 4 -8 -4 14 -15 78 -30 106 -26 31 6 60 -12 41 -24 -9 -6 -6 -12
13 -20 13 -6 22 -17 20 -24 -8 -21 10 -40 38 -41 14 -1 23 -6 20 -11 -4 -5 11
-6 33 -2 28 5 35 4 24 -3 -13 -9 -12 -11 5 -12 11 -1 26 -2 33 -2 6 1 12 -3
12 -8 0 -5 13 -8 29 -7 17 1 38 -5 48 -13 10 -9 37 -22 61 -29 24 -7 45 -17
48 -21 2 -4 -42 8 -98 26 -57 19 -202 64 -323 100 -121 37 -339 104 -485 150
-146 45 -323 101 -395 123 -124 39 -175 63 -175 82 0 4 18 38 40 74 22 36 40
69 40 74 0 4 7 18 16 31 16 23 20 23 113 17 53 -4 146 -16 206 -28z m5306 -53
c69 -119 69 -119 7 -143 -93 -37 -356 -127 -603 -207 -132 -43 -353 -115 -491
-161 -137 -46 -256 -84 -264 -84 -19 0 -3 13 20 17 11 2 48 14 83 29 34 14 74
27 89 29 15 2 46 13 69 24 24 12 51 21 61 21 11 0 16 5 13 10 -3 6 4 10 17 10
18 0 20 2 8 10 -11 7 -6 10 21 10 22 0 42 7 50 16 12 15 11 16 -10 9 -19 -6
-23 -4 -18 8 4 11 0 13 -15 9 -15 -4 -17 -7 -6 -13 9 -6 2 -9 -20 -9 -18 0
-31 -4 -28 -9 4 -5 -3 -7 -14 -4 -38 10 -13 42 35 44 l30 1 -30 7 c-28 7 -25
8 30 20 80 17 85 19 53 20 -15 1 -81 -12 -147 -28 -235 -58 -362 -64 -456 -22
-25 11 -48 20 -52 20 -7 0 -41 78 -42 97 -2 26 234 110 469 169 167 41 499
116 685 155 119 24 160 28 275 27 l134 -2 47 -80z m-3941 -89 c0 -3 -4 -8 -10
-11 -5 -3 -10 -1 -10 4 0 6 5 11 10 11 6 0 10 -2 10 -4z m300 -129 c200 -58
744 -84 1180 -57 237 15 332 32 593 107 21 6 28 -2 96 -112 42 -69 141 -311
130 -318 -2 -1 -56 -28 -119 -60 -157 -78 -413 -161 -594 -192 -49 -8 -90 -14
-90 -13 -1 2 -9 19 -20 40 -10 20 -15 42 -11 49 5 8 4 10 -4 5 -7 -5 -33 12
-65 42 -130 118 -282 141 -444 67 -68 -31 -101 -61 -154 -138 -35 -51 -43 -58
-66 -53 -15 3 -52 8 -82 11 -108 12 -380 86 -488 131 -85 36 -197 92 -220 110
-7 5 38 153 63 211 14 32 46 95 71 140 l44 82 63 -19 c34 -9 87 -25 117 -33z
m-360 -2 c-16 -47 -23 -40 -8 8 6 20 13 35 16 33 2 -3 -1 -21 -8 -41z m-54
-122 c-8 -16 -34 -76 -57 -135 -24 -60 -47 -108 -51 -108 -12 0 -10 6 17 60
14 28 22 56 18 66 -4 10 -2 15 4 11 9 -6 43 52 43 74 0 11 30 59 37 59 2 0 -3
-12 -11 -27z m2512 -88 c-3 -3 -9 2 -12 12 -6 14 -5 15 5 6 7 -7 10 -15 7 -18z
m52 -100 c0 -5 -5 -3 -10 5 -5 8 -10 20 -10 25 0 6 5 3 10 -5 5 -8 10 -19 10
-25z m19 -17 c-4 -22 13 -68 22 -62 5 3 9 -2 9 -10 0 -9 -4 -16 -8 -16 -12 0
-40 72 -34 88 5 16 13 16 11 0z m-2698 -75 c-8 -15 -10 -15 -11 -2 0 17 10 32
18 25 2 -3 -1 -13 -7 -23z m2795 18 c-9 -14 -45 -20 -53 -9 -3 6 -2 9 3 6 5
-3 18 -2 29 3 27 10 27 10 21 0z m-1360 -187 c129 -37 233 -214 182 -307 -23
-39 -66 -89 -92 -107 l-26 -17 32 0 c35 0 63 20 53 37 -3 6 1 7 9 4 14 -5 13
-9 -3 -33 -32 -44 -64 -69 -126 -98 -74 -34 -189 -39 -242 -10 -146 79 -196
231 -124 377 41 82 73 116 136 146 59 28 124 31 201 8z m1211 -216 c-3 -8 -6
-5 -6 6 -1 11 2 17 5 13 3 -3 4 -12 1 -19z m-239 -37 c31 -26 87 -204 105
-336 29 -198 42 -507 29 -652 -7 -70 -14 -166 -16 -213 -5 -97 -21 -228 -36
-280 -5 -19 -16 -82 -25 -140 -14 -98 -26 -169 -60 -345 -7 -38 -18 -97 -25
-130 -6 -33 -15 -69 -20 -80 -10 -22 -30 -117 -30 -141 0 -8 4 -13 8 -10 4 2
6 -11 4 -30 -4 -35 -21 -47 -23 -16 -1 18 -16 -31 -18 -60 -1 -25 20 -23 26 2
3 11 9 20 14 20 11 0 11 -12 0 -42 -7 -19 -4 -30 16 -52 20 -24 27 -26 34 -15
7 12 9 11 9 -2 0 -8 -5 -20 -12 -27 -9 -9 -9 -12 0 -12 7 0 12 -8 12 -18 0
-10 5 -23 10 -28 6 -6 13 -33 17 -61 7 -62 -24 -137 -60 -147 -28 -7 -71 23
-75 53 -3 16 -10 21 -32 21 -16 0 -31 -6 -34 -12 -3 -7 -2 12 1 42 3 30 2 52
-2 48 -4 -4 -11 -53 -15 -110 l-7 -103 -1 95 c-2 145 -36 250 -100 302 -14 12
-15 8 -9 -32 3 -25 9 -53 12 -61 5 -13 0 -15 -25 -11 l-30 4 0 -113 c-1 -164
-25 -264 -74 -299 -42 -31 -106 -48 -106 -29 0 5 4 8 10 4 5 -3 32 6 60 20 36
18 50 31 46 41 -3 8 -2 13 3 10 5 -3 12 5 15 18 3 13 9 32 13 42 5 13 3 15 -7
9 -8 -5 -4 8 9 28 20 32 21 42 12 69 -14 38 -14 58 -1 38 8 -12 10 -12 10 5 0
11 -5 27 -11 35 -9 13 -10 12 -5 -2 3 -10 1 -18 -4 -18 -5 0 -11 10 -14 23 -3
12 -3 0 -1 -27 1 -27 -1 -43 -5 -36 -6 10 -15 5 -35 -18 -32 -38 -63 -41 -92
-10 -51 57 -55 104 -18 215 37 108 41 151 20 217 -13 41 -30 67 -62 97 -41 37
-48 41 -90 37 l-46 -3 7 142 c3 78 13 224 21 325 28 355 47 724 40 802 -8 94
-21 138 -35 116 -6 -8 -10 -29 -10 -47 0 -17 -4 -35 -10 -38 -5 -3 -10 -1 -10
6 0 34 -76 66 -131 54 -39 -9 -99 -61 -99 -87 0 -15 -4 -18 -17 -13 -40 17
-111 17 -144 1 -40 -20 -39 -20 -39 5 0 12 -15 36 -34 55 -29 29 -41 34 -81
34 -42 0 -52 -5 -81 -36 l-34 -35 0 33 c0 43 -13 64 -27 46 -36 -43 -37 -357
-5 -1193 l7 -170 -59 -1 c-57 0 -61 -2 -96 -43 -60 -69 -65 -114 -29 -257 16
-66 30 -148 31 -183 1 -60 -1 -66 -28 -88 -41 -33 -65 -26 -91 27 -19 36 -23
61 -23 137 0 51 -4 93 -9 93 -4 0 -8 -16 -7 -36 0 -21 -3 -39 -9 -40 -6 -3 -9
15 -8 42 1 55 -12 53 -16 -3 0 -9 -4 -13 -8 -9 -4 3 -6 29 -4 56 1 28 -2 50
-7 50 -14 0 -101 -131 -112 -169 -28 -97 -19 -306 15 -358 l15 -23 -57 0
c-129 0 -272 43 -258 78 2 7 1 11 -4 7 -11 -6 -49 69 -53 105 -2 14 -7 28 -12
31 -17 13 -17 233 -1 311 19 91 19 131 0 240 -9 48 -15 90 -14 95 1 4 -1 15
-4 23 -15 36 -86 492 -91 586 -1 27 -5 54 -8 60 -17 29 -48 490 -48 713 0 107
2 192 4 190 3 -3 7 -85 10 -183 2 -98 7 -180 10 -184 3 -3 6 9 6 26 0 25 4 32
20 32 11 0 20 -7 20 -15 0 -8 5 -15 10 -15 6 0 10 -22 10 -50 0 -51 -4 -55
-51 -51 -13 1 -14 -7 -9 -53 5 -48 20 -90 20 -58 0 7 13 12 29 12 23 0 30 -5
33 -22 3 -13 4 56 3 152 -1 96 1 147 2 113 2 -35 8 -63 13 -63 6 0 10 -18 10
-40 0 -22 5 -40 10 -40 6 0 10 18 10 40 0 22 -4 40 -9 40 -5 0 -9 33 -9 73 0
45 3 64 8 52 12 -32 16 -7 35 215 23 281 64 498 106 567 27 43 75 60 108 36
23 -18 61 -83 90 -154 71 -175 216 -322 382 -390 130 -53 211 -64 469 -64 209
0 245 3 322 22 97 25 161 54 259 119 120 79 198 171 330 384 38 62 44 69 79
93 32 22 52 21 78 -2z m-2361 -193 c-2 -13 -4 -5 -4 17 -1 22 1 32 4 23 2 -10
2 -28 0 -40z m2640 -35 c-3 -10 -5 -4 -5 12 0 17 2 24 5 18 2 -7 2 -21 0 -30z
m-2650 -30 c-3 -10 -5 -4 -5 12 0 17 2 24 5 18 2 -7 2 -21 0 -30z m2666 -98
c4 -66 3 -77 -3 -40 -9 52 -13 141 -6 134 2 -2 6 -44 9 -94z m-2678 -50 c-4
-59 -9 -104 -12 -102 -2 3 -1 53 3 111 4 59 9 104 12 102 2 -3 1 -53 -3 -111z
m2689 -96 c7 -37 8 -505 1 -498 -2 3 -6 115 -8 250 -2 134 -7 252 -11 262 -5
10 -4 17 2 17 5 0 12 -14 16 -31z m-27 -76 c-3 -10 -5 -4 -5 12 0 17 2 24 5
18 2 -7 2 -21 0 -30z m20 -530 c-23 -305 -118 -1010 -157 -1168 -27 -108 -28
-125 -9 -186 14 -46 19 -87 17 -167 -1 -59 -3 -87 -5 -62 -3 24 -7 47 -11 50
-12 9 -32 49 -32 62 1 7 8 1 16 -14 8 -16 16 -28 17 -28 2 0 3 23 3 50 0 28
-3 50 -8 50 -4 0 -9 12 -9 28 -2 24 -2 24 -6 4 -3 -13 1 -30 8 -38 12 -15 5
-33 -8 -20 -10 10 -10 217 0 223 4 2 5 8 2 13 -3 4 1 23 9 41 8 19 19 77 26
129 6 52 18 120 25 150 8 30 17 89 21 130 4 41 10 80 14 85 7 10 30 186 35
275 2 25 10 108 19 185 9 77 19 173 23 213 3 39 8 72 11 72 3 0 2 -35 -1 -77z
m-20 -10 c-3 -10 -5 -4 -5 12 0 17 2 24 5 18 2 -7 2 -21 0 -30z m-130 -55 c-2
-13 -4 -3 -4 22 0 25 2 35 4 23 2 -13 2 -33 0 -45z m-2723 40 c2 -1 6 -64 8
-138 3 -74 4 -119 2 -100 -11 95 -11 97 -59 110 -36 10 -54 10 -89 0 -84 -23
-205 -153 -191 -204 4 -14 3 -17 -3 -8 -37 54 -82 -469 -53 -620 7 -35 27 -91
44 -126 l31 -62 -40 -123 -41 -122 -31 95 c-57 171 -112 490 -112 653 0 172
29 269 126 419 108 168 220 243 347 234 32 -2 60 -6 61 -8z m3253 -19 c47 -18
75 -39 146 -111 73 -72 96 -104 128 -172 48 -104 69 -189 69 -289 0 -170 -42
-424 -104 -624 -19 -59 -37 -121 -41 -138 -7 -27 -10 -21 -30 55 -13 47 -30
101 -38 120 -16 40 -16 43 23 125 47 99 64 207 57 370 -3 77 -13 176 -22 220
-41 198 -148 321 -290 333 -40 3 -55 0 -74 -17 -13 -12 -25 -20 -27 -19 -1 2
0 40 3 86 l6 82 68 0 c45 0 88 -7 126 -21z m-3230 -306 c-3 -10 -5 -2 -5 17 0
19 2 27 5 18 2 -10 2 -26 0 -35z m10 -80 c-3 -10 -5 -4 -5 12 0 17 2 24 5 18
2 -7 2 -21 0 -30z m2770 -10 c-3 -10 -5 -4 -5 12 0 17 2 24 5 18 2 -7 2 -21 0
-30z m-20 -145 c-3 -7 -5 -2 -5 12 0 14 2 19 5 13 2 -7 2 -19 0 -25z m-2906
-101 c-10 -9 -11 -8 -5 6 3 10 9 15 12 12 3 -3 0 -11 -7 -18z m2886 -69 c-3
-8 -6 -5 -6 6 -1 11 2 17 5 13 3 -3 4 -12 1 -19z m-2941 -54 c-4 -9 -9 -15
-11 -12 -3 3 -3 13 1 22 4 9 9 15 11 12 3 -3 3 -13 -1 -22z m-19 -46 c-3 -8
-6 -5 -6 6 -1 11 2 17 5 13 3 -3 4 -12 1 -19z m2783 -100 c-1 -28 -2 -30 -11
-15 -6 10 -8 25 -5 33 9 24 16 16 16 -18z m129 -52 c-9 -8 -10 -7 -5 7 3 10 7
24 7 30 1 7 3 4 6 -7 3 -10 -1 -23 -8 -30z m1 -54 c0 -7 -4 -10 -10 -7 -5 3
-10 16 -10 28 0 18 2 19 10 7 5 -8 10 -21 10 -28z m-14 -58 c-4 -9 -9 -15 -11
-12 -3 3 -3 13 1 22 4 9 9 15 11 12 3 -3 3 -13 -1 -22z m-1529 -236 c-3 -8 -6
-5 -6 6 -1 11 2 17 5 13 3 -3 4 -12 1 -19z m2253 -92 c0 -2 -8 -10 -17 -17
-16 -13 -17 -12 -4 4 13 16 21 21 21 13z m-810 -57 c0 -5 -4 -9 -10 -9 -5 0
-10 7 -10 16 0 8 5 12 10 9 6 -3 10 -10 10 -16z m760 -3 c0 -2 -8 -10 -17 -17
-16 -13 -17 -12 -4 4 13 16 21 21 21 13z m-2536 -58 c-4 -32 -3 -39 5 -28 9
12 11 11 11 -8 0 -13 -4 -21 -9 -17 -5 3 -12 -3 -14 -12 -3 -10 -5 10 -6 45
-1 36 3 62 9 62 6 0 8 -17 4 -42z m2487 9 c-10 -9 -11 -8 -5 6 3 10 9 15 12
12 3 -3 0 -11 -7 -18z m-615 -117 c-9 -59 -54 -164 -79 -188 -28 -27 -100 -52
-141 -51 -26 2 -27 2 -6 6 57 9 71 14 64 25 -5 8 2 9 22 4 21 -5 25 -4 14 4
-12 8 -12 10 6 10 11 0 30 11 41 24 24 27 42 72 24 62 -6 -4 -11 -2 -11 4 0 7
7 9 16 6 11 -4 15 -2 11 7 -3 7 1 21 9 32 8 10 14 36 14 57 0 22 5 38 11 38 8
0 9 -13 5 -40z m-521 -10 c3 -5 1 -10 -4 -10 -6 0 -11 5 -11 10 0 6 2 10 4 10
3 0 8 -4 11 -10z m492 -12 c-3 -8 -6 -5 -6 6 -1 11 2 17 5 13 3 -3 4 -12 1
-19z m-1850 -20 c-3 -7 -5 -2 -5 12 0 14 2 19 5 13 2 -7 2 -19 0 -25z m333
-65 c-11 -17 -11 -17 -6 0 3 10 6 24 7 30 0 9 2 9 5 0 3 -7 0 -20 -6 -30z
m-333 -20 c-3 -10 -5 -4 -5 12 0 17 2 24 5 18 2 -7 2 -21 0 -30z m308 -27 c-8
-12 -37 -35 -64 -50 -69 -37 -77 -32 -11 6 30 18 61 40 68 50 19 26 25 22 7
-6z m739 -22 c3 -8 2 -12 -4 -9 -6 3 -10 10 -10 16 0 14 7 11 14 -7z m731 6
c-3 -5 -12 -10 -18 -10 -7 0 -6 4 3 10 19 12 23 12 15 0z m-1749 -15 c8 -20
60 -43 109 -48 l40 -4 -43 -1 c-24 -1 -58 5 -76 13 -32 15 -65 55 -46 55 6 0
13 -7 16 -15z m1062 -6 c-2 -5 14 -16 35 -24 21 -7 42 -16 45 -20 11 -10 -49
6 -82 22 -22 12 -26 17 -15 24 18 11 20 11 17 -2z m585 4 c-7 -2 -19 -2 -25 0
-7 3 -2 5 12 5 14 0 19 -2 13 -5z m50 0 c-7 -2 -19 -2 -25 0 -7 3 -2 5 12 5
14 0 19 -2 13 -5z m-38 -23 c3 -6 -1 -7 -9 -4 -18 7 -21 14 -7 14 6 0 13 -4
16 -10z m-97 -37 c-21 -2 -55 -2 -75 0 -21 2 -4 4 37 4 41 0 58 -2 38 -4z"/>
<path d="M3720 8707 c0 -11 30 -67 35 -67 6 0 -16 52 -27 65 -4 5 -8 6 -8 2z"/>
<path d="M3785 8580 c3 -5 8 -10 11 -10 2 0 4 5 4 10 0 6 -5 10 -11 10 -5 0
-7 -4 -4 -10z"/>
<path d="M6530 8736 c-12 -25 -26 -49 -31 -52 -6 -3 -7 -15 -4 -27 5 -16 4
-18 -3 -8 -8 11 -17 0 -41 -47 -40 -79 -39 -94 1 -51 18 19 36 33 39 32 4 -1
12 19 18 45 7 26 21 69 31 96 25 64 19 71 -10 12z m-74 -164 c-18 -16 -18 -16
-6 6 6 13 14 21 18 18 3 -4 -2 -14 -12 -24z"/>
<path d="M6457 8533 c-4 -3 -7 -11 -7 -17 0 -6 5 -5 12 2 6 6 9 14 7 17 -3 3
-9 2 -12 -2z"/>
<path d="M6426 8465 c4 -8 1 -22 -6 -30 -7 -9 -10 -18 -6 -22 3 -3 6 -1 6 6 0
7 4 10 8 7 4 -2 9 6 10 19 1 13 -3 27 -8 30 -6 3 -7 -1 -4 -10z"/>
<path d="M6350 8400 c-8 -5 -12 -12 -9 -15 4 -3 12 1 19 10 14 17 11 19 -10 5z"/>
<path d="M6385 8309 c-4 -6 -5 -12 -2 -15 2 -3 7 2 10 11 7 17 1 20 -8 4z"/>
<path d="M6290 8290 c0 -5 5 -10 10 -10 6 0 10 5 10 10 0 6 -4 10 -10 10 -5 0
-10 -4 -10 -10z"/>
<path d="M6226 8175 c-9 -26 -7 -32 5 -12 6 10 9 21 6 23 -2 3 -7 -2 -11 -11z"/>
<path d="M6240 8140 c0 -5 5 -10 10 -10 6 0 10 5 10 10 0 6 -4 10 -10 10 -5 0
-10 -4 -10 -10z"/>
<path d="M6205 8130 c-3 -5 -1 -10 4 -10 6 0 11 5 11 10 0 6 -2 10 -4 10 -3 0
-8 -4 -11 -10z"/>
<path d="M6111 7973 c-1 -6 -4 -20 -7 -30 -5 -17 -5 -17 6 0 6 10 9 23 6 30
-3 9 -5 9 -5 0z"/>
<path d="M6015 7810 c-3 -5 -1 -10 4 -10 6 0 11 5 11 10 0 6 -2 10 -4 10 -3 0
-8 -4 -11 -10z"/>
<path d="M5991 7737 c-8 -10 -7 -14 4 -14 8 0 12 5 8 10 -3 5 4 6 18 2 19 -5
21 -4 9 4 -20 14 -25 14 -39 -2z"/>
<path d="M6081 7707 c-13 -21 -12 -21 5 -5 10 10 16 20 13 22 -3 3 -11 -5 -18
-17z"/>
<path d="M6027 7709 c7 -7 15 -10 18 -7 3 3 -2 9 -12 12 -14 6 -15 5 -6 -5z"/>
<path d="M6101 7694 c-10 -11 -10 -18 -2 -25 6 -5 9 -6 6 -2 -3 3 2 15 12 25
9 10 12 18 7 18 -5 -1 -15 -8 -23 -16z"/>
<path d="M3171 8414 c0 -11 3 -14 6 -6 3 7 2 16 -1 19 -3 4 -6 -2 -5 -13z"/>
<path d="M6691 8180 c0 -8 4 -24 9 -35 5 -13 9 -14 9 -5 0 8 -4 24 -9 35 -5
13 -9 14 -9 5z"/>
<path d="M3063 7105 c-3 -9 -3 -18 -1 -21 3 -3 8 4 11 16 6 23 -1 27 -10 5z"/>
<path d="M3081 7074 c0 -11 3 -14 6 -6 3 7 2 16 -1 19 -3 4 -6 -2 -5 -13z"/>
<path d="M7185 7029 c-4 -6 -5 -12 -2 -15 2 -3 7 2 10 11 7 17 1 20 -8 4z"/>
<path d="M4995 6950 c-44 -5 -125 -11 -179 -15 -109 -6 -138 -14 -60 -16 44
-1 46 -2 19 -10 -26 -7 -24 -8 10 -3 79 10 170 25 188 30 9 3 17 1 17 -4 0 -5
-19 -12 -41 -16 -23 -4 -40 -9 -37 -11 3 -3 31 0 64 6 71 14 267 6 341 -14 29
-8 50 -11 48 -6 -7 10 71 16 97 6 20 -7 114 1 105 9 -6 7 -315 42 -407 47 -47
3 -121 1 -165 -3z m232 -16 c-3 -3 -12 -4 -19 -1 -8 3 -5 6 6 6 11 1 17 -2 13
-5z m161 -15 c9 0 4 -5 -12 -10 -17 -4 -32 -6 -35 -4 -2 3 2 5 10 5 12 0 11 2
-1 11 -12 9 -12 10 3 5 10 -3 26 -6 35 -7z m125 -16 c-7 -2 -21 -2 -30 0 -10
3 -4 5 12 5 17 0 24 -2 18 -5z"/>
<path d="M4625 6911 c-14 -6 -7 -8 25 -7 25 0 56 -2 70 -6 19 -6 18 -4 -5 7
-33 16 -60 18 -90 6z"/>
<path d="M5628 6893 c7 -3 16 -2 19 1 4 3 -2 6 -13 5 -11 0 -14 -3 -6 -6z"/>
<path d="M4780 6883 c8 -3 23 -12 33 -21 9 -8 17 -12 17 -7 0 12 -33 34 -50
34 -13 -1 -13 -1 0 -6z"/>
<path d="M5678 6883 c7 -3 16 -2 19 1 4 3 -2 6 -13 5 -11 0 -14 -3 -6 -6z"/>
<path d="M6118 6773 c7 -3 16 -2 19 1 4 3 -2 6 -13 5 -11 0 -14 -3 -6 -6z"/>
<path d="M6154 6753 c2 -9 9 -19 17 -21 11 -3 11 -1 -1 8 -12 9 -7 10 23 5 21
-3 46 -8 55 -11 9 -2 4 2 -13 9 -16 8 -42 17 -57 21 -21 5 -26 3 -24 -11z"/>
<path d="M3958 6743 c7 -3 16 -2 19 1 4 3 -2 6 -13 5 -11 0 -14 -3 -6 -6z"/>
<path d="M4805 6690 c-3 -5 -2 -10 4 -10 5 0 13 5 16 10 3 6 2 10 -4 10 -5 0
-13 -4 -16 -10z"/>
<path d="M6410 6670 c8 -5 22 -9 30 -9 10 0 8 3 -5 9 -27 12 -43 12 -25 0z"/>
<path d="M3740 6655 c-14 -8 -20 -14 -15 -14 6 0 21 6 35 14 14 8 21 14 15 14
-5 0 -21 -6 -35 -14z"/>
<path d="M4821 6646 c-13 -14 -21 -31 -18 -38 4 -9 6 -7 6 5 1 9 5 17 11 17 5
0 14 9 20 20 14 27 8 25 -19 -4z"/>
<path d="M6473 6649 c15 -9 16 -13 5 -26 -12 -15 -11 -15 9 -3 20 13 20 15 5
27 -9 7 -21 12 -27 12 -5 0 -2 -4 8 -10z"/>
<path d="M3642 6606 c-44 -31 -44 -32 -22 -32 10 0 18 3 17 7 -1 3 9 16 23 27
33 28 23 27 -18 -2z"/>
<path d="M6218 6613 c7 -3 16 -2 19 1 4 3 -2 6 -13 5 -11 0 -14 -3 -6 -6z"/>
<path d="M5978 6583 c7 -3 16 -2 19 1 4 3 -2 6 -13 5 -11 0 -14 -3 -6 -6z"/>
<path d="M4383 6535 c0 -8 4 -12 9 -9 5 3 6 10 3 15 -9 13 -12 11 -12 -6z"/>
<path d="M4820 6470 c-8 -5 -10 -10 -5 -10 6 0 17 5 25 10 8 5 11 10 5 10 -5
0 -17 -5 -25 -10z"/>
<path d="M5358 6473 c7 -3 16 -2 19 1 4 3 -2 6 -13 5 -11 0 -14 -3 -6 -6z"/>
<path d="M4810 6413 c8 -3 23 -14 33 -24 10 -11 23 -19 30 -19 7 0 -1 11 -18
25 -16 13 -37 24 -45 24 -13 -1 -13 -1 0 -6z"/>
<path d="M4801 6384 c0 -11 3 -14 6 -6 3 7 2 16 -1 19 -3 4 -6 -2 -5 -13z"/>
<path d="M4535 6350 c3 -5 8 -10 11 -10 2 0 4 5 4 10 0 6 -5 10 -11 10 -5 0
-7 -4 -4 -10z"/>
<path d="M4928 6333 c7 -3 16 -2 19 1 4 3 -2 6 -13 5 -11 0 -14 -3 -6 -6z"/>
<path d="M5630 6225 c-6 -8 -10 -19 -8 -24 1 -6 8 1 15 14 13 28 11 31 -7 10z"/>
<path d="M5645 6199 c-4 -6 -5 -12 -2 -15 2 -3 7 2 10 11 7 17 1 20 -8 4z"/>
<path d="M3204 5658 c-10 -12 -13 -18 -6 -14 7 4 12 2 13 -6 0 -7 5 -2 10 11
13 32 6 36 -17 9z"/>
<path d="M6940 5608 c0 -3 7 -21 15 -39 10 -24 14 -28 14 -14 0 11 -6 29 -14
39 -8 11 -15 17 -15 14z"/>
<path d="M3282 5580 c0 -14 2 -19 5 -12 2 6 2 18 0 25 -3 6 -5 1 -5 -13z"/>
<path d="M6920 5565 c-7 -9 -10 -18 -6 -22 3 -3 6 0 6 7 0 11 3 11 12 2 10
-10 10 -15 -2 -22 -12 -7 -10 -9 6 -8 19 2 20 5 12 30 -12 33 -12 33 -28 13z"/>
<path d="M3294 5539 c1 -7 9 -13 18 -15 11 -1 15 3 11 13 -4 11 -8 12 -13 3
-6 -9 -9 -9 -13 -1 -4 8 -5 8 -3 0z"/>
<path d="M6976 5511 c-4 -7 -5 -15 -2 -18 9 -9 19 4 14 18 -4 11 -6 11 -12 0z"/>
<path d="M7004 5507 c3 -9 -2 -26 -12 -37 -16 -19 -17 -19 -24 -3 -4 10 -5 1
-3 -21 6 -46 13 -59 27 -50 5 4 7 19 4 35 -3 16 -2 29 3 29 15 0 22 31 10 48
-10 15 -10 15 -5 -1z"/>
<path d="M6855 5469 c-4 -6 -5 -12 -2 -15 2 -3 7 2 10 11 7 17 1 20 -8 4z"/>
<path d="M3261 5424 c0 -11 3 -14 6 -6 3 7 2 16 -1 19 -3 4 -6 -2 -5 -13z"/>
<path d="M3450 5380 c0 -5 5 -10 11 -10 5 0 7 5 4 10 -3 6 -8 10 -11 10 -2 0
-4 -4 -4 -10z"/>
<path d="M6977 5373 c-4 -3 -7 -13 -7 -22 1 -13 3 -13 11 2 11 19 8 33 -4 20z"/>
<path d="M3312 5295 c0 -16 2 -22 5 -12 2 9 2 23 0 30 -3 6 -5 -1 -5 -18z"/>
<path d="M3327 5261 c-4 -17 -3 -21 5 -13 5 5 8 16 6 23 -3 8 -7 3 -11 -10z"/>
<path d="M3349 5263 c-8 -109 -8 -107 7 -78 16 31 19 95 4 95 -5 0 -11 -8 -11
-17z m8 -45 c-3 -8 -6 -5 -6 6 -1 11 2 17 5 13 3 -3 4 -12 1 -19z"/>
<path d="M3390 5117 c0 -4 10 -28 22 -53 17 -38 23 -43 30 -29 11 19 3 49 -11
40 -6 -3 -17 7 -25 22 -8 15 -15 25 -16 20z"/>
<path d="M3415 5110 c3 -5 8 -10 11 -10 2 0 4 5 4 10 0 6 -5 10 -11 10 -5 0
-7 -4 -4 -10z"/>
<path d="M6763 4940 c3 -16 21 -14 25 2 3 10 2 10 -6 -1 -7 -9 -11 -10 -15 -2
-4 7 -5 8 -4 1z"/>
<path d="M3560 4786 c0 -2 7 -9 15 -16 13 -11 14 -10 9 4 -5 14 -24 23 -24 12z"/>
<path d="M6428 6353 c7 -3 16 -2 19 1 4 3 -2 6 -13 5 -11 0 -14 -3 -6 -6z"/>
<path d="M6217 6359 c7 -7 15 -10 18 -7 3 3 -2 9 -12 12 -14 6 -15 5 -6 -5z"/>
<path d="M4600 5574 c0 -10 -6 -14 -15 -11 -16 7 -31 -8 -17 -17 11 -6 52 21
52 35 0 5 -4 9 -10 9 -5 0 -10 -7 -10 -16z"/>
<path d="M4481 5490 c-13 -11 -19 -20 -13 -20 5 0 20 9 33 20 13 10 20 19 14
19 -5 0 -21 -9 -34 -19z"/>
<path d="M4418 5463 c-10 -2 -18 -8 -18 -13 0 -10 38 -1 46 11 5 9 1 10 -28 2z"/>
<path d="M6510 5485 c-7 -8 -8 -15 -2 -15 5 0 15 7 22 15 7 8 8 15 2 15 -5 0
-15 -7 -22 -15z"/>
<path d="M5380 5470 c19 -13 30 -13 30 0 0 6 -10 10 -22 10 -19 0 -20 -2 -8
-10z"/>
<path d="M5428 5453 c6 -2 10 -8 8 -12 -3 -4 1 -8 9 -8 11 0 12 4 4 14 -6 7
-17 13 -23 12 -7 0 -6 -2 2 -6z"/>
<path d="M5765 5240 c-3 -6 1 -7 9 -4 18 7 21 14 7 14 -6 0 -13 -4 -16 -10z"/>
<path d="M5500 5221 c0 -6 4 -13 10 -16 6 -3 7 1 4 9 -7 18 -14 21 -14 7z"/>
<path d="M5788 5213 c7 -3 16 -2 19 1 4 3 -2 6 -13 5 -11 0 -14 -3 -6 -6z"/>
<path d="M5719 5147 c-44 -30 -53 -86 -17 -111 25 -18 74 -21 111 -7 51 20 44
105 -10 130 -34 16 -46 14 -84 -12z"/>
<path d="M5891 5084 c0 -11 3 -14 6 -6 3 7 2 16 -1 19 -3 4 -6 -2 -5 -13z"/>
<path d="M5860 5061 c0 -25 6 -27 13 -6 4 8 2 17 -3 20 -6 4 -10 -3 -10 -14z"/>
<path d="M5620 4983 c-45 -18 -70 -75 -51 -121 14 -33 71 -72 107 -72 32 0 94
59 94 89 0 34 -26 88 -48 100 -22 12 -77 13 -102 4z"/>
<path d="M5579 4731 c-31 -32 -38 -71 -14 -91 8 -6 31 -14 53 -17 47 -6 64 11
66 66 2 73 -52 95 -105 42z"/>
<path d="M4812 5190 c0 -14 2 -19 5 -12 2 6 2 18 0 25 -3 6 -5 1 -5 -13z"/>
<path d="M4840 5191 c0 -6 4 -13 10 -16 6 -3 7 1 4 9 -7 18 -14 21 -14 7z"/>
<path d="M4491 5144 c-13 -16 -21 -41 -21 -64 0 -44 25 -60 99 -60 42 0 49 3
59 25 32 69 -1 125 -73 125 -35 0 -48 -5 -64 -26z"/>
<path d="M4440 5082 c0 -23 4 -42 9 -42 6 0 7 17 4 38 -8 51 -13 53 -13 4z"/>
<path d="M4410 5055 c0 -8 5 -15 10 -15 6 0 10 7 10 15 0 8 -4 15 -10 15 -5 0
-10 -7 -10 -15z"/>
<path d="M4596 4983 c-27 -7 -55 -44 -56 -71 0 -40 29 -90 60 -101 50 -17 97
6 126 61 31 60 5 106 -66 112 -25 3 -54 2 -64 -1z"/>
<path d="M4652 4754 c-28 -20 -31 -83 -4 -107 22 -20 102 -23 120 -5 24 24 14
74 -19 102 -35 30 -65 33 -97 10z"/>
<path d="M3383 4526 c4 -22 11 -44 16 -49 6 -6 6 7 0 34 -13 56 -24 66 -16 15z"/>
<path d="M3411 4434 c0 -11 3 -14 6 -6 3 7 2 16 -1 19 -3 4 -6 -2 -5 -13z"/>
<path d="M3427 4389 c7 -7 15 -10 18 -7 3 3 -2 9 -12 12 -14 6 -15 5 -6 -5z"/>
<path d="M3528 4363 c6 -2 18 -2 25 0 6 3 1 5 -13 5 -14 0 -19 -2 -12 -5z"/>
<path d="M3719 4338 c-12 -8 -11 -9 2 -5 9 3 22 0 28 -6 6 -6 13 -8 17 -5 12
12 -31 27 -47 16z"/>
<path d="M3308 3758 c9 -9 15 -9 24 0 9 9 7 12 -12 12 -19 0 -21 -3 -12 -12z"/>
<path d="M3255 3750 c-3 -5 -1 -10 4 -10 6 0 11 5 11 10 0 6 -2 10 -4 10 -3 0
-8 -4 -11 -10z"/>
<path d="M3180 3746 c0 -2 7 -7 16 -10 8 -3 12 -2 9 4 -6 10 -25 14 -25 6z"/>
<path d="M3272 3731 c-11 -7 -10 -10 3 -15 24 -9 32 -7 15 4 -9 6 -10 10 -3
10 21 0 43 -12 37 -21 -3 -5 4 -9 15 -9 28 0 27 26 -1 34 -31 8 -51 7 -66 -3z"/>
<path d="M7757 3959 c7 -7 15 -10 18 -7 3 3 -2 9 -12 12 -14 6 -15 5 -6 -5z"/>
<path d="M7024 3788 c-3 -4 2 -8 10 -8 8 0 17 4 20 8 3 5 -2 9 -10 9 -8 0 -17
-4 -20 -9z"/>
<path d="M7075 3730 c-3 -5 -1 -10 4 -10 6 0 11 5 11 10 0 6 -2 10 -4 10 -3 0
-8 -4 -11 -10z"/>
<path d="M6091 3961 c-8 -5 -9 -11 -3 -15 5 -3 12 1 16 9 6 17 6 18 -13 6z"/>
<path d="M6165 3911 c4 -8 2 -17 -6 -22 -9 -6 -10 -9 -2 -9 19 0 27 21 13 33
-10 9 -11 9 -5 -2z"/>
<path d="M6110 3870 c-13 -8 -13 -10 2 -10 9 0 20 5 23 10 8 13 -5 13 -25 0z"/>
<path d="M4190 3840 c8 -5 20 -10 25 -10 6 0 3 5 -5 10 -8 5 -19 10 -25 10 -5
0 -3 -5 5 -10z"/>
<path d="M4250 3820 c34 -11 60 -11 35 0 -11 5 -29 8 -40 8 -16 0 -15 -2 5 -8z"/>
<path d="M4328 3803 c7 -3 16 -2 19 1 4 3 -2 6 -13 5 -11 0 -14 -3 -6 -6z"/>
<path d="M4448 3783 c6 -2 18 -2 25 0 6 3 1 5 -13 5 -14 0 -19 -2 -12 -5z"/>
<path d="M4510 3780 c8 -5 24 -10 34 -10 26 0 18 6 -19 14 -22 5 -26 4 -15 -4z"/>
<path d="M4938 3743 c7 -3 16 -2 19 1 4 3 -2 6 -13 5 -11 0 -14 -3 -6 -6z"/>
<path d="M5288 3743 c6 -2 18 -2 25 0 6 3 1 5 -13 5 -14 0 -19 -2 -12 -5z"/>
<path d="M5368 3743 c7 -3 16 -2 19 1 4 3 -2 6 -13 5 -11 0 -14 -3 -6 -6z"/>
<path d="M4054 3655 c11 -8 24 -15 30 -15 5 0 1 7 -10 15 -10 8 -23 14 -29 14
-5 0 -1 -6 9 -14z"/>
<path d="M6263 3636 c0 -26 1 -28 12 -13 6 9 15 14 18 10 4 -3 7 -1 7 6 0 7
-6 11 -14 8 -8 -3 -17 -1 -19 6 -2 7 -4 -1 -4 -17z"/>
<path d="M6210 3646 c0 -2 9 -6 20 -9 11 -3 20 -1 20 4 0 5 -9 9 -20 9 -11 0
-20 -2 -20 -4z"/>
<path d="M6287 3569 c7 -7 15 -10 18 -7 3 3 -2 9 -12 12 -14 6 -15 5 -6 -5z"/>
<path d="M5558 3483 c7 -3 16 -2 19 1 4 3 -2 6 -13 5 -11 0 -14 -3 -6 -6z"/>
<path d="M4893 3473 c4 -3 1 -13 -6 -22 -11 -14 -10 -14 5 -2 16 12 16 31 1
31 -4 0 -3 -3 0 -7z"/>
<path d="M4824 3429 c-3 -6 -2 -15 3 -20 5 -5 9 -1 9 11 0 23 -2 24 -12 9z"/>
<path d="M5493 3425 c0 -8 4 -12 9 -9 5 3 6 10 3 15 -9 13 -12 11 -12 -6z"/>
<path d="M5323 2908 c-24 -32 -24 -41 0 -19 15 14 27 26 27 28 0 8 -19 2 -27
-9z"/>
<path d="M3934 2024 c3 -33 10 -71 16 -85 8 -19 10 -12 6 37 -3 33 -10 71 -16
85 -8 19 -10 12 -6 -37z"/>
<path d="M3960 2010 c0 -5 5 -10 10 -10 6 0 10 5 10 10 0 6 -4 10 -10 10 -5 0
-10 -4 -10 -10z"/>
<path d="M3974 1906 c1 -41 5 -61 15 -64 10 -3 11 0 5 9 -5 8 -12 37 -15 64
l-7 50 2 -59z"/>
<path d="M3925 1834 c-3 -27 -8 -57 -9 -66 -2 -10 1 -15 9 -12 15 6 27 105 15
118 -5 4 -11 -14 -15 -40z"/>
<path d="M3891 1828 c0 -7 4 -22 9 -33 7 -17 9 -15 9 13 1 17 -3 32 -9 32 -5
0 -10 -6 -9 -12z"/>
<path d="M3856 1769 c-8 -42 0 -50 9 -9 4 17 5 34 2 36 -2 3 -7 -10 -11 -27z"/>
<path d="M3881 1744 c0 -11 3 -14 6 -6 3 7 2 16 -1 19 -3 4 -6 -2 -5 -13z"/>
<path d="M3895 1711 l-8 -33 -13 23 c-16 30 -18 19 -2 -16 13 -29 25 -32 31
-7 2 9 2 2 0 -16 -3 -22 -1 -32 6 -27 7 4 9 -5 4 -26 -4 -22 -3 -30 5 -25 6 4
12 -5 15 -21 2 -16 3 -3 0 27 -2 30 -10 78 -17 105 l-14 50 -7 -34z"/>
<path d="M4002 1700 c0 -14 2 -19 5 -12 2 6 2 18 0 25 -3 6 -5 1 -5 -13z"/>
<path d="M3876 1623 c4 -16 11 -35 16 -43 7 -11 8 -8 4 10 -3 14 -6 33 -6 43
0 9 -5 17 -10 17 -6 0 -8 -11 -4 -27z"/>
<path d="M3980 1570 c0 -11 4 -20 9 -20 5 0 7 9 4 20 -3 11 -7 20 -9 20 -2 0
-4 -9 -4 -20z"/>
<path d="M3881 1534 c0 -11 3 -14 6 -6 3 7 2 16 -1 19 -3 4 -6 -2 -5 -13z"/>
<path d="M3892 1465 c0 -16 2 -22 5 -12 2 9 2 23 0 30 -3 6 -5 -1 -5 -18z"/>
<path d="M3911 1434 c0 -11 3 -14 6 -6 3 7 2 16 -1 19 -3 4 -6 -2 -5 -13z"/>
<path d="M3946 1120 c3 -36 5 -73 5 -84 0 -18 0 -18 14 0 8 11 14 30 14 44 0
23 -1 24 -10 5 -7 -16 -8 -13 -5 12 3 18 -1 44 -9 60 -14 27 -15 25 -9 -37z"/>
<path d="M3981 1164 c0 -11 3 -14 6 -6 3 7 2 16 -1 19 -3 4 -6 -2 -5 -13z"/>
<path d="M3987 1126 c-4 -10 -1 -13 9 -9 11 4 14 -4 14 -32 0 -20 -4 -34 -9
-30 -11 6 -26 -33 -17 -42 3 -4 6 2 6 12 0 15 3 16 12 7 7 -7 27 -12 45 -12
27 0 34 5 39 25 4 14 4 29 0 32 -3 4 -6 -3 -6 -15 0 -18 -6 -22 -30 -22 -29 0
-30 1 -30 50 0 36 -4 50 -14 50 -8 0 -16 -7 -19 -14z"/>
<path d="M3961 994 c0 -11 3 -14 6 -6 3 7 2 16 -1 19 -3 4 -6 -2 -5 -13z"/>
<path d="M4090 980 c0 -11 5 -20 10 -20 6 0 10 9 10 20 0 11 -4 20 -10 20 -5
0 -10 -9 -10 -20z"/>
<path d="M3986 957 c3 -10 9 -15 12 -12 3 3 0 11 -7 18 -10 9 -11 8 -5 -6z"/>
<path d="M4167 621 c-3 -12 -18 -23 -38 -29 -24 -6 -35 -15 -37 -30 -3 -21
-32 -32 -32 -12 0 6 5 10 10 10 6 0 10 11 10 25 0 14 -4 25 -9 25 -5 0 -18
-11 -29 -25 -11 -14 -25 -25 -31 -25 -6 0 -11 -6 -12 -12 -1 -7 -5 -2 -9 12
-7 22 -8 20 -10 -15 -5 -93 -5 -145 2 -145 4 0 9 10 11 23 2 12 4 3 3 -19 0
-23 -4 -40 -8 -37 -5 2 -8 -7 -8 -21 0 -14 4 -27 9 -30 5 -4 7 3 4 14 -6 24 9
26 27 5 11 -13 15 -13 21 -3 7 10 9 10 9 1 0 -7 9 -13 21 -13 16 0 19 4 14 23
-6 20 -5 20 8 7 21 -21 12 -79 -13 -73 -14 4 -18 -4 -23 -38 -3 -25 -1 -52 6
-63 6 -12 10 -25 9 -29 -1 -5 2 -6 7 -3 6 4 4 17 -5 34 -21 40 -17 50 9 21 25
-29 77 -38 77 -14 0 18 16 20 26 3 4 -6 -1 -17 -11 -25 -18 -12 -17 -13 6 -14
23 -1 22 -1 -5 -9 -16 -5 -40 -8 -55 -6 -14 2 -18 1 -8 -1 9 -2 17 -8 17 -12
0 -3 8 -7 18 -7 9 -1 53 -3 97 -6 44 -3 60 -3 35 1 l-45 6 45 9 c25 5 38 11
29 13 -12 3 -14 13 -10 46 3 23 3 83 0 132 l-6 90 -1 -80 c-1 -44 -6 -85 -10
-92 -4 -6 -6 23 -4 65 3 71 2 76 -13 57 -8 -11 -13 -25 -11 -31 8 -20 -22 -37
-53 -31 -16 4 -31 3 -34 -1 -2 -4 -2 -1 0 7 2 8 -6 34 -18 58 -18 37 -20 54
-14 106 3 33 17 87 30 119 13 32 20 58 15 58 -4 0 -10 -9 -13 -19z m-49 -156
c-1 -51 -3 -58 -5 -25 -3 31 -7 40 -14 30 -7 -13 -9 -12 -9 2 0 9 -3 25 -6 35
-6 16 -5 16 10 -2 16 -19 16 -18 10 20 -4 30 -3 36 5 25 6 -8 10 -46 9 -85z
m22 85 c0 -5 -4 -10 -10 -10 -5 0 -10 5 -10 10 0 6 5 10 10 10 6 0 10 -4 10
-10z m-153 -62 c-3 -8 -6 -5 -6 6 -1 11 2 17 5 13 3 -3 4 -12 1 -19z m132
-113 c6 -3 11 -13 11 -21 0 -10 -5 -9 -20 6 -11 11 -20 30 -19 43 l0 22 9 -21
c5 -12 13 -25 19 -29z m118 -131 c-3 -3 -12 -4 -19 -1 -8 3 -5 6 6 6 11 1 17
-2 13 -5z m-44 -121 c-7 -2 -19 -2 -25 0 -7 3 -2 5 12 5 14 0 19 -2 13 -5z"/>
<path d="M4460 631 c0 -6 4 -13 10 -16 6 -3 7 1 4 9 -7 18 -14 21 -14 7z"/>
<path d="M6091 464 c0 -11 3 -14 6 -6 3 7 2 16 -1 19 -3 4 -6 -2 -5 -13z"/>
<path d="M4020 215 c0 -5 5 -17 10 -25 5 -8 10 -10 10 -5 0 6 -5 17 -10 25 -5
8 -10 11 -10 5z"/>
<path d="M4128 153 c7 -3 16 -2 19 1 4 3 -2 6 -13 5 -11 0 -14 -3 -6 -6z"/>
<path d="M27 103 c-25 -4 -27 -8 -27 -54 0 -48 1 -49 30 -49 30 0 30 1 30 55
0 30 -1 54 -2 54 -2 -1 -15 -4 -31 -6z"/>
</g>
</svg>
