<?xml version="1.0" standalone="no"?>
<!DOCTYPE svg PUBLIC "-//W3C//DTD SVG 20010904//EN"
 "http://www.w3.org/TR/2001/REC-SVG-20010904/DTD/svg10.dtd">
<svg version="1.0" xmlns="http://www.w3.org/2000/svg"
 width="1024.000000pt" height="1024.000000pt" viewBox="0 0 1024.000000 1024.000000"
 preserveAspectRatio="xMidYMid meet">
<metadata>
Created by potrace 1.16, written by Peter Selinger 2001-2019
</metadata>
<g transform="translate(0.000000,1024.000000) scale(0.100000,-0.100000)"
fill="#000000" stroke="none">
<path d="M2273 9185 c-155 -42 -248 -138 -306 -315 -32 -98 -63 -279 -79 -460
-17 -200 -17 -1149 0 -1370 32 -409 83 -743 131 -870 32 -84 200 -378 222
-388 4 -2 -4 -29 -16 -60 -78 -189 -250 -687 -290 -839 -74 -283 -55 -503 55
-647 130 -172 603 -388 1134 -516 168 -41 600 -115 739 -126 l77 -7 0 -76 c0
-42 -7 -141 -15 -221 -28 -284 -30 -294 -44 -271 -14 22 -104 26 -134 6 -44
-29 -56 -60 -103 -267 -25 -112 -76 -334 -114 -493 -138 -581 -215 -1090 -261
-1713 -11 -157 -11 -165 8 -190 11 -15 35 -32 54 -39 41 -14 144 -7 176 13 17
11 32 11 75 2 30 -6 63 -8 74 -4 24 11 189 14 232 5 18 -4 49 -3 69 3 24 6 55
6 95 -1 47 -8 66 -7 87 3 15 8 34 10 46 6 27 -10 264 -10 270 0 3 5 20 4 38 0
17 -5 102 -9 187 -9 85 0 176 -3 201 -6 30 -5 49 -3 53 4 9 14 53 15 61 1 10
-16 74 -12 105 6 26 16 29 16 58 -5 36 -25 55 -26 93 -4 24 14 34 15 62 5 42
-15 72 -15 95 -1 13 8 32 9 63 2 24 -5 58 -6 74 -3 22 4 683 3 1055 -2 14 0
39 0 55 1 17 1 51 -1 78 -5 31 -4 53 -2 62 6 11 9 19 9 28 2 20 -17 128 -31
174 -22 47 8 91 33 100 56 6 17 0 90 -58 624 -62 572 -102 787 -309 1640 -78
326 -81 336 -115 368 -29 26 -43 32 -80 32 -25 0 -59 -7 -74 -15 l-29 -14 -6
37 c-3 20 -8 150 -12 288 l-7 251 89 7 c601 45 1655 403 1848 627 85 99 110
189 110 394 -1 221 -35 378 -160 740 -30 88 -76 219 -100 292 l-46 132 38 78
c21 43 62 119 91 169 70 122 107 218 132 343 62 307 97 925 88 1521 -10 609
-46 888 -139 1078 -40 82 -135 171 -215 203 -53 22 -72 24 -233 24 -155 -1
-188 -4 -290 -28 -209 -49 -405 -122 -695 -257 -184 -86 -571 -308 -993 -571
l-62 -39 -703 2 -702 3 -75 46 c-41 25 -131 81 -200 124 -681 424 -1090 616
-1480 695 -165 34 -344 40 -437 15z m5834 -170 c43 -19 56 -32 77 -73 44 -88
94 -328 136 -662 22 -175 25 -229 7 -162 -7 24 -16 42 -22 42 -5 -1 -13 7 -17
17 -5 10 -6 -85 -3 -212 6 -289 1 -315 -35 -164 -15 63 -32 134 -38 159 l-11
45 4 -50 c14 -152 17 -244 10 -368 -4 -75 -11 -137 -16 -137 -5 0 -9 64 -9
143 0 444 -108 907 -282 1214 -23 40 -45 70 -50 67 -5 -3 -8 -2 -7 3 4 21 -4
36 -37 72 -35 40 -52 44 -91 23 -21 -11 -97 -92 -87 -92 3 0 1 -7 -6 -15 -6
-8 -8 -20 -4 -26 5 -9 10 -7 20 5 8 12 14 14 19 6 10 -16 -1 -23 -35 -23 -24
0 -32 -6 -36 -24 -4 -12 -9 -23 -13 -23 -12 0 -42 -60 -36 -70 3 -6 -3 -10
-14 -10 -12 0 -21 -4 -21 -10 0 -5 9 -10 19 -10 11 0 21 -5 23 -10 2 -6 27
-13 55 -17 31 -3 58 -13 65 -22 10 -13 10 -14 -2 -3 -24 21 -119 15 -175 -12
-27 -12 -130 -78 -229 -145 -123 -85 -181 -119 -186 -111 -5 9 -9 9 -14 1 -4
-6 -2 -11 4 -11 6 0 8 -5 5 -11 -4 -5 -12 -8 -18 -6 -7 3 -27 -6 -45 -20 -17
-13 -47 -29 -65 -35 -17 -7 -38 -17 -45 -24 -16 -16 -98 -9 -129 11 -28 19
-39 19 -24 1 14 -16 83 -37 129 -38 17 -1 32 -5 32 -10 0 -4 -3 -8 -7 -8 -5 0
-24 -14 -43 -31 -19 -16 -82 -67 -140 -111 -58 -45 -118 -93 -134 -107 -16
-14 -26 -19 -21 -11 4 8 -13 -8 -39 -37 -26 -29 -99 -96 -164 -150 -64 -54
-187 -163 -272 -244 -85 -80 -184 -172 -220 -205 -35 -32 -105 -97 -155 -144
-209 -197 -255 -238 -326 -291 -40 -31 -96 -68 -122 -82 -47 -25 -50 -25 -100
-10 -54 15 -187 89 -187 103 0 5 -8 11 -17 15 -33 11 -116 93 -107 106 5 9 2
10 -9 6 -12 -4 -36 11 -79 52 -35 32 -94 87 -133 122 -38 35 -69 70 -69 76 1
7 -2 11 -6 8 -8 -5 -62 41 -175 146 -38 36 -91 85 -117 108 -26 24 -45 47 -42
52 3 5 -1 6 -9 4 -7 -3 -19 5 -27 19 -7 14 -16 24 -19 23 -7 -2 -64 43 -220
178 -64 55 -159 135 -211 176 -53 42 -111 92 -130 112 -18 20 -37 34 -41 31
-4 -2 -11 1 -15 7 -4 7 -3 9 4 5 18 -11 26 16 9 29 -9 7 -14 14 -11 17 3 3
-25 37 -61 74 -37 38 -72 76 -78 85 -7 9 -41 39 -76 67 -35 28 -102 87 -150
130 -153 141 -154 142 -170 125 -11 -12 -10 -14 5 -11 12 2 18 -2 16 -10 -1
-8 2 -11 9 -7 13 9 81 -54 72 -68 -3 -6 -1 -7 4 -4 12 8 84 -59 74 -69 -3 -4
-1 -4 5 -1 6 3 25 -7 43 -23 18 -17 37 -30 42 -30 5 0 9 -8 7 -17 -2 -11 3
-18 14 -18 18 0 61 -35 53 -43 -10 -10 27 -41 43 -35 10 4 13 2 8 -5 -4 -7 -2
-12 5 -12 7 0 9 -8 6 -21 -3 -12 -3 -18 0 -15 4 3 12 1 20 -5 7 -6 13 -8 13
-4 0 5 9 0 20 -10 19 -17 19 -19 2 -32 -16 -13 -16 -14 3 -12 41 3 51 -1 32
-12 -9 -5 -22 -7 -29 -3 -6 4 -8 3 -4 -4 7 -12 46 -12 46 1 0 4 5 5 11 1 8 -5
6 -10 -5 -16 -9 -5 -14 -14 -10 -20 8 -13 -34 14 -104 66 -38 28 -49 41 -40
47 8 5 2 8 -17 6 -17 -1 -29 3 -28 9 1 6 -4 11 -10 11 -7 0 -89 53 -182 118
-327 228 -336 233 -421 220 -60 -9 -97 -50 -133 -149 -31 -84 -41 -92 -17 -14
7 24 11 59 8 76 -4 31 11 45 21 20 3 -8 6 -6 6 4 1 10 10 22 21 28 11 6 20 16
20 22 0 7 -5 6 -15 -2 -9 -7 -18 -10 -22 -6 -11 11 3 17 52 22 59 7 79 25 73
64 -5 31 8 41 18 15 4 -8 10 -12 15 -10 13 9 -33 95 -50 95 -12 0 -13 2 -3 8
9 6 7 15 -11 35 -27 32 -34 33 -40 10 -4 -17 -5 -17 -6 0 0 10 6 20 14 23 12
5 11 9 -4 26 -11 11 -17 28 -14 39 8 30 -4 54 -21 40 -7 -6 -20 -9 -28 -6 -18
7 -76 -75 -115 -163 -14 -31 -34 -76 -44 -99 -10 -24 -19 -48 -19 -55 0 -7 -7
-22 -15 -32 -8 -11 -15 -27 -15 -35 0 -9 -7 -29 -16 -46 -8 -16 -13 -41 -10
-55 3 -14 3 -19 -1 -11 -5 12 -21 -20 -37 -74 -2 -5 -6 -17 -9 -25 -17 -44
-69 -281 -86 -390 -11 -69 -23 -198 -27 -288 -4 -89 -8 -161 -10 -159 -2 1
-10 74 -19 162 -21 209 -34 254 -27 95 5 -122 5 -125 -14 -110 -10 8 -27 24
-36 35 -10 11 -17 15 -18 9 0 -5 6 -16 13 -23 10 -11 9 -13 -5 -8 -14 5 -17
-1 -20 -31 -2 -20 -6 89 -11 243 -4 165 -12 281 -17 283 -6 2 -10 16 -10 32 0
43 49 353 76 480 46 216 70 266 142 302 42 20 61 23 172 22 130 -1 160 -6 370
-66 190 -54 677 -277 869 -398 45 -27 83 -50 85 -50 5 0 185 -103 236 -135
212 -135 616 -348 785 -414 139 -54 327 -106 339 -93 14 13 -20 42 -66 57 -29
10 -57 22 -63 27 -5 5 3 4 18 -1 16 -6 40 -11 55 -10 16 0 21 3 12 6 -8 4 -19
12 -25 18 -18 21 -94 45 -145 45 -28 0 -50 3 -50 8 0 4 26 6 57 5 42 -2 52 0
38 6 -15 7 -8 10 32 10 28 1 55 -3 58 -9 3 -5 12 -10 18 -10 8 0 7 4 -2 9 -11
7 -6 11 20 14 33 4 32 4 -6 4 -22 1 -87 5 -145 11 -111 11 -214 12 -204 3 3
-3 15 -6 27 -6 13 0 21 -6 19 -13 -2 -9 3 -10 16 -3 12 6 23 6 33 -1 11 -8 11
-9 -3 -4 -12 3 -15 1 -11 -10 7 -18 -1 -18 -40 3 -32 16 -137 92 -137 99 0 2
235 2 523 1 287 -2 538 0 557 4 l35 8 -25 -20 c-14 -11 -38 -31 -55 -44 -35
-29 -50 -32 -41 -9 5 14 2 15 -21 8 -16 -4 -38 -7 -51 -7 -22 1 -22 0 -5 -14
14 -11 15 -14 2 -10 -9 3 -16 -1 -16 -8 0 -10 7 -11 24 -4 38 14 41 11 9 -10
-17 -11 -33 -18 -37 -15 -4 2 -9 -1 -11 -6 -2 -6 -46 -23 -98 -39 -108 -31
-155 -53 -163 -76 -9 -21 17 -20 131 10 172 43 471 180 682 313 93 58 201 121
385 225 88 49 193 109 234 134 103 62 351 184 362 177 5 -3 9 -1 9 4 0 5 8 12
18 15 9 2 26 8 36 13 15 5 17 4 11 -6 -5 -9 -4 -11 4 -6 6 4 9 11 6 15 -12 21
334 153 554 212 198 53 330 57 428 14z m-5459 -80 c-1 -25 -6 -39 -10 -32 -14
22 -8 77 8 77 2 0 3 -20 2 -45z m-34 27 c7 -12 -4 -52 -15 -52 -4 0 -7 13 -6
30 2 29 11 38 21 22z m5111 -31 c-3 -6 -14 -11 -23 -11 -13 0 -13 2 4 14 21
15 30 14 19 -3z m80 9 c3 -5 1 -10 -4 -10 -6 0 -11 5 -11 10 0 6 2 10 4 10 3
0 8 -4 11 -10z m-122 -35 c4 -8 1 -17 -5 -21 -7 -4 -8 -3 -4 4 4 7 2 12 -4 12
-6 0 -8 5 -5 10 8 14 12 13 18 -5z m90 0 c-3 -9 -8 -14 -10 -11 -3 3 -2 9 2
15 9 16 15 13 8 -4z m-38 -5 c-3 -5 -12 -10 -18 -10 -7 0 -6 4 3 10 19 12 23
12 15 0z m-5138 -16 c-3 -3 -12 -4 -19 -1 -8 3 -5 6 6 6 11 1 17 -2 13 -5z
m-75 -56 c-8 -8 -9 -4 -5 13 4 13 8 18 11 10 2 -7 -1 -18 -6 -23z m142 -27
c-7 -8 -35 9 -29 19 4 6 11 5 20 -3 7 -6 11 -14 9 -16z m-194 -134 c0 -5 -4
-5 -10 -2 -6 3 -7 -1 -4 -9 3 -9 9 -14 14 -11 4 2 5 -8 2 -23 l-6 -27 -6 25
-7 25 -11 -25 c-10 -24 -11 -24 -11 -2 -1 12 4 22 10 22 5 0 7 5 4 10 -3 6 -3
20 0 31 6 17 9 19 16 8 5 -8 9 -18 9 -22z m97 -139 c-3 -8 -6 -5 -6 6 -1 11 2
17 5 13 3 -3 4 -12 1 -19z m5243 -109 c0 -7 -6 -4 -15 7 -19 25 -19 40 0 20 8
-8 15 -20 15 -27z m-5253 -41 c-3 -8 -6 -5 -6 6 -1 11 2 17 5 13 3 -3 4 -12 1
-19z m5273 -8 c0 -5 -5 -10 -11 -10 -5 0 -7 5 -4 10 3 6 8 10 11 10 2 0 4 -4
4 -10z m-5280 -20 c0 -5 -4 -10 -10 -10 -5 0 -10 5 -10 10 0 6 5 10 10 10 6 0
10 -4 10 -10z m850 -8 c0 -12 -3 -12 -15 -2 -8 7 -15 13 -15 15 0 1 7 2 15 2
8 0 15 -7 15 -15z m3955 -31 c-3 -14 1 -18 11 -14 10 3 21 -10 35 -43 41 -92
8 -271 -67 -371 -34 -45 -67 -43 -132 5 -75 55 -87 92 -56 174 43 116 83 177
150 226 31 23 58 42 60 42 1 0 1 -9 -1 -19z m343 -12 c-3 -8 -7 -3 -11 10 -4
17 -3 21 5 13 5 -5 8 -16 6 -23z m-5169 -43 c-7 -31 -14 -54 -16 -52 -3 2 1
30 7 61 6 31 14 55 16 52 2 -2 -1 -29 -7 -61z m517 35 c74 -54 114 -115 152
-234 30 -92 28 -125 -8 -169 -54 -65 -142 -57 -192 19 -36 55 -89 199 -95 260
-7 68 10 109 56 133 46 24 41 25 87 -9z m4692 -121 c37 -131 47 -181 33 -160
-6 8 -11 10 -11 4 0 -6 7 -17 15 -24 17 -14 21 -35 5 -25 -5 3 -10 0 -10 -7
-1 -38 -19 27 -30 107 -6 50 -18 115 -26 146 -8 31 -14 60 -14 65 0 19 10 -9
38 -106z m-5231 -2 c-3 -8 -6 -5 -6 6 -1 11 2 17 5 13 3 -3 4 -12 1 -19z m-10
-50 c-3 -8 -6 -5 -6 6 -1 11 2 17 5 13 3 -3 4 -12 1 -19z m-10 -60 c-3 -8 -6
-5 -6 6 -1 11 2 17 5 13 3 -3 4 -12 1 -19z m2378 2 c13 -5 14 -9 5 -9 -8 0
-24 4 -35 9 -13 5 -14 9 -5 9 8 0 24 -4 35 -9z m75 -70 c0 10 57 7 67 -4 4 -5
-4 -6 -19 -2 -16 4 -30 1 -34 -6 -5 -7 -2 -8 7 -3 10 6 11 5 3 -4 -8 -9 -18
-9 -40 0 -16 6 -36 12 -44 14 -33 7 -70 25 -70 34 0 5 29 -1 65 -14 36 -13 65
-20 65 -15z m-2473 -32 c-3 -8 -6 -5 -6 6 -1 11 2 17 5 13 3 -3 4 -12 1 -19z
m5368 -236 c14 -79 25 -153 24 -165 -1 -21 -11 18 -28 113 -8 42 -9 40 -11
-35 -2 -80 -2 -80 -11 -30 -5 28 -7 91 -4 140 3 50 2 84 -3 78 -4 -7 -8 12 -9
45 0 49 1 53 9 27 4 -16 20 -94 33 -173z m-5388 126 c-3 -8 -6 -5 -6 6 -1 11
2 17 5 13 3 -3 4 -12 1 -19z m-10 -50 c-3 -8 -6 -5 -6 6 -1 11 2 17 5 13 3 -3
4 -12 1 -19z m1504 -255 c13 -16 12 -17 -3 -4 -10 7 -18 15 -18 17 0 8 8 3 21
-13z m-1747 -8 c3 -8 1 -15 -4 -15 -6 0 -10 7 -10 15 0 8 2 15 4 15 2 0 6 -7
10 -15z m1828 -52 c24 -21 88 -81 143 -134 227 -219 442 -410 605 -537 63 -49
114 -95 112 -101 -1 -7 2 -10 7 -6 6 3 27 -5 48 -19 21 -13 55 -30 75 -37 20
-7 35 -15 33 -18 -7 -12 208 -12 258 0 71 16 150 52 208 94 27 19 49 30 49 25
0 -6 5 -10 11 -10 6 0 9 6 6 14 -4 9 12 30 41 55 26 22 61 52 77 66 17 15 59
50 95 79 77 63 231 207 426 399 78 76 151 145 161 152 17 12 29 9 99 -25 43
-22 135 -67 204 -101 196 -96 370 -220 512 -365 159 -163 298 -338 369 -467
85 -151 91 -160 101 -145 7 9 8 7 4 -8 -8 -25 21 -87 36 -78 7 4 8 2 4 -5 -10
-16 24 -102 37 -94 6 3 7 1 3 -5 -4 -6 0 -32 9 -57 8 -25 15 -66 15 -91 l0
-46 -25 16 c-14 9 -30 14 -35 11 -6 -4 -7 1 -3 11 4 12 3 15 -6 10 -18 -11
-42 14 -36 35 7 21 -10 26 -19 7 -3 -7 -4 -5 -3 4 1 9 -16 34 -38 55 -89 84
-174 210 -219 323 -10 24 -30 63 -45 85 -86 125 -116 165 -123 165 -4 0 -8 6
-8 13 0 16 -71 84 -127 121 -24 16 -43 32 -43 36 0 3 -16 14 -35 23 -19 9 -35
15 -35 13 0 -3 -3 -11 -6 -19 -3 -8 2 -17 12 -21 14 -5 15 -4 4 9 -7 8 -10 15
-6 15 9 0 102 -60 93 -60 -4 0 -18 7 -32 16 -20 13 -30 13 -64 3 -50 -15 -47
-24 2 -11 29 8 35 7 30 -4 -3 -9 2 -14 16 -14 12 0 21 -5 21 -11 0 -7 -7 -8
-17 -4 -34 14 -63 17 -63 7 0 -6 10 -12 23 -15 12 -2 -14 -4 -58 -4 -45 1 -90
-5 -102 -11 -15 -8 -23 -9 -23 -2 0 5 5 10 10 10 6 0 9 5 8 11 -2 6 13 17 32
24 19 8 27 14 18 14 -14 1 -18 10 -18 41 0 31 -4 40 -17 41 -10 1 2 6 26 13
l44 11 -79 28 c-43 15 -88 29 -99 32 -11 2 -35 7 -54 11 -20 4 -32 3 -29 -2 7
-11 -107 -12 -118 -2 -3 4 2 6 12 4 11 -2 28 0 39 5 27 10 -111 10 -195 0
-161 -21 -373 -79 -484 -132 -22 -11 -43 -19 -48 -19 -22 0 -159 -73 -168 -90
-6 -11 -16 -20 -22 -20 -7 0 -6 5 2 15 19 23 4 18 -22 -8 -32 -31 -50 -65 -38
-72 6 -3 10 -1 10 4 0 6 5 11 10 11 6 0 10 -7 10 -16 0 -12 -8 -14 -34 -10
-25 4 -38 1 -51 -14 -19 -21 -41 -28 -29 -8 4 7 3 8 -5 4 -6 -4 -9 -12 -6 -17
4 -5 8 -17 10 -27 3 -15 -3 -18 -28 -17 -18 1 -43 5 -57 9 -21 6 -22 5 -7 -4
9 -6 17 -20 17 -30 0 -26 29 -26 75 0 38 21 85 27 85 10 0 -5 -9 -10 -21 -10
-17 0 -20 -5 -17 -32 4 -39 36 -52 45 -19 5 19 13 21 79 21 59 0 74 -3 74 -15
0 -11 11 -15 40 -15 29 0 40 4 40 15 0 12 16 15 80 15 64 0 80 -3 80 -15 0 -9
9 -15 25 -15 14 0 25 -4 25 -10 0 -5 -5 -10 -11 -10 -6 0 -39 -16 -73 -36 -33
-21 -76 -46 -95 -57 -27 -16 -33 -17 -29 -6 5 12 0 14 -26 10 -18 -3 -24 -6
-13 -9 9 -2 17 -6 17 -9 0 -13 -45 -43 -58 -38 -7 3 -18 5 -23 5 -5 0 -9 18
-9 40 l0 40 -105 0 -105 0 0 -40 0 -40 -40 0 -40 0 0 -40 0 -40 -40 0 -40 0 0
-40 0 -40 -40 6 c-48 8 -57 -7 -42 -67 9 -37 8 -41 -11 -49 -21 -8 -21 -9 -1
-9 11 -1 24 3 30 9 5 5 27 14 49 19 24 5 31 9 18 10 -37 2 -26 18 12 19 19 1
35 -3 35 -8 0 -9 -242 -130 -260 -130 -14 0 -12 18 3 23 6 2 0 2 -15 0 -29 -5
-68 12 -81 34 -5 7 -12 11 -17 8 -5 -3 -20 0 -34 6 -24 11 -30 21 -27 42 0 4
-6 7 -15 7 -8 0 -12 -4 -9 -10 4 -6 -1 -7 -11 -3 -11 4 -13 8 -6 11 23 7 12
29 -29 51 -22 13 -43 20 -46 17 -3 -3 8 -13 26 -23 17 -10 31 -24 31 -30 0
-19 -8 -16 -52 18 -30 24 -36 34 -26 41 9 6 3 8 -18 6 -24 -2 -56 12 -123 51
-50 29 -91 57 -91 61 0 5 -12 10 -27 12 -47 5 -36 23 12 20 25 -2 45 0 45 5 0
5 -26 8 -57 6 -46 -2 -65 2 -93 20 -19 12 -47 29 -62 36 -15 8 -26 17 -24 20
2 3 -6 7 -17 7 -34 2 -130 66 -115 76 9 5 5 8 -12 9 -14 1 -29 1 -33 0 -5 -1
-21 8 -36 18 -16 11 -30 19 -32 16 -2 -2 -15 5 -29 15 -19 15 -21 20 -8 20 9
0 18 -6 21 -12 2 -7 8 -9 13 -5 15 14 -20 28 -54 22 -26 -5 -32 -3 -26 6 5 9
2 10 -9 6 -8 -3 -59 12 -112 34 -53 21 -103 39 -111 39 -8 0 -22 4 -32 9 -9 6
-43 22 -74 37 -61 28 -75 40 -33 30 22 -6 25 -3 25 19 0 24 3 25 55 25 l55 0
0 60 0 60 40 0 c28 0 40 4 40 14 0 11 20 16 83 20 45 3 105 7 132 10 l50 5
-44 -9 c-25 -5 -49 -15 -55 -21 -8 -9 -2 -10 24 -5 19 4 40 9 47 10 7 1 16 5
19 9 12 12 41 8 53 -7 9 -11 6 -13 -16 -9 -24 3 -25 2 -8 -6 11 -5 30 -10 43
-10 18 -1 22 -7 22 -33 0 -30 -1 -30 -19 -14 -10 9 -35 20 -55 23 -37 6 -46
17 -23 27 6 4 -6 4 -28 1 -22 -3 -82 -5 -132 -5 l-93 0 0 -40 0 -40 40 0 40 0
0 -50 0 -50 40 0 c22 0 40 5 40 10 0 6 18 10 40 10 l40 0 0 -50 0 -50 40 0
c22 0 40 5 40 10 0 6 18 10 40 10 29 0 40 4 40 15 0 12 16 15 80 15 64 0 80
-3 80 -15 0 -11 -11 -15 -40 -15 -36 0 -40 -2 -40 -25 0 -25 1 -25 80 -25 79
0 80 0 80 25 0 14 5 25 10 25 6 0 10 18 10 40 0 25 -5 40 -12 40 -7 0 0 7 15
15 30 16 67 6 67 -17 0 -12 29 21 30 34 0 14 -123 67 -149 64 -14 -2 -19 -1
-11 1 13 5 -102 54 -118 51 -4 -1 -20 4 -37 11 -48 20 -216 65 -320 87 -50 10
-79 11 -105 4 -48 -14 -73 -11 -30 3 34 12 33 12 -35 15 -93 4 -205 -12 -296
-41 -97 -32 -170 -68 -162 -80 3 -6 1 -7 -5 -3 -18 11 -37 -4 -21 -16 10 -7 7
-7 -8 -3 -14 4 -35 -2 -60 -18 -48 -31 -164 -140 -141 -133 12 3 15 1 11 -10
-3 -8 -12 -13 -20 -10 -11 4 -11 1 -2 -15 10 -19 9 -20 -12 -9 -19 11 -21 10
-16 -3 4 -11 2 -14 -9 -10 -10 4 -12 0 -7 -13 4 -10 2 -15 -3 -11 -6 3 -19 -8
-29 -26 -23 -40 -113 -165 -138 -192 -10 -11 -16 -28 -13 -37 2 -11 0 -15 -6
-12 -6 4 -9 1 -6 -7 3 -8 -2 -19 -11 -26 -14 -11 -14 -12 3 -13 18 0 18 -1 3
-18 -22 -24 -23 -49 -1 -28 8 9 25 21 37 27 12 6 -3 -15 -33 -47 -119 -126
-208 -214 -218 -214 -17 0 -23 68 -12 132 8 44 25 87 59 143 40 67 47 86 43
118 -3 31 -7 37 -23 32 -21 -7 -25 10 -10 34 7 12 13 12 24 3 7 -7 16 -10 18
-7 3 2 3 -11 1 -30 -7 -61 3 -58 51 14 48 72 55 91 36 91 -5 0 -7 5 -3 11 5 8
8 8 13 0 4 -6 35 31 71 86 99 149 147 211 235 299 142 144 334 284 537 392 69
37 204 99 220 101 5 1 27 -16 50 -36z m2987 -97 c-2 -2 -15 -9 -29 -15 -24
-11 -24 -11 -6 3 16 13 49 24 35 12z m-3734 -96 c-3 -5 -12 -10 -18 -10 -7 0
-6 4 3 10 19 12 23 12 15 0z m-80 -60 c0 -7 -6 -14 -13 -16 -7 -1 -8 0 -2 3
16 8 11 26 -6 19 -9 -3 -12 -2 -9 5 9 13 30 6 30 -11z m4075 -62 c0 -6 -7 -5
-15 2 -8 7 -15 17 -15 22 0 6 7 5 15 -2 8 -7 15 -17 15 -22z m-3948 -20 c-7
-7 -12 -8 -12 -2 0 14 12 26 19 19 2 -3 -1 -11 -7 -17z m3972 -4 c3 -8 2 -12
-4 -9 -6 3 -10 10 -10 16 0 14 7 11 14 -7z m56 -56 c0 -6 -7 -5 -15 2 -8 7
-15 17 -15 22 0 6 7 5 15 -2 8 -7 15 -17 15 -22z m-4112 -18 c-7 -11 -16 -20
-20 -20 -11 0 -10 9 5 25 18 21 29 18 15 -5z m625 -17 c-7 -2 -21 -2 -30 0
-10 3 -4 5 12 5 17 0 24 -2 18 -5z m2615 0 c-29 -7 4 -33 41 -33 17 0 31 -4
31 -10 0 -5 20 -10 45 -10 l45 0 0 -60 0 -60 40 0 c22 0 40 -5 40 -10 0 -6 11
-16 25 -22 40 -18 32 -45 -17 -59 -87 -24 -306 -91 -389 -120 -97 -33 -111
-35 -83 -14 10 8 27 15 37 15 11 0 31 6 45 14 15 8 40 17 56 21 15 3 26 8 24
10 -2 3 -33 -3 -67 -11 -58 -15 -64 -15 -79 0 -15 15 -15 16 1 16 15 0 17 14
17 125 0 104 2 125 15 125 8 0 15 5 15 10 0 6 18 10 40 10 36 0 40 3 40 24 0
13 -6 27 -12 30 -7 3 -4 4 7 1 11 -2 27 0 35 5 8 5 26 9 40 9 17 -1 19 -3 8
-6z m-2721 -9 c-3 -3 -12 -4 -19 -1 -8 3 -5 6 6 6 11 1 17 -2 13 -5z m-772
-23 c-3 -6 -11 -11 -16 -11 -5 0 -4 6 3 14 14 16 24 13 13 -3z m3335 -6 c0
-10 -10 -15 -33 -15 -18 0 -38 -5 -44 -11 -6 -6 -23 -9 -39 -6 -29 4 -28 4 4
6 32 1 43 15 20 25 -7 3 -2 3 12 0 14 -3 37 -1 50 5 14 5 26 10 28 10 1 1 2
-6 2 -14z m500 -16 c36 -10 40 -14 21 -17 -13 -2 -28 1 -34 7 -6 6 -21 11 -33
11 -23 0 -48 -22 -37 -33 3 -4 1 -7 -5 -7 -7 0 -12 9 -12 20 0 11 5 20 11 20
6 0 9 7 6 15 -5 11 -1 12 16 6 12 -5 42 -15 67 -22z m-3650 7 c0 -3 -4 -8 -10
-11 -5 -3 -10 -1 -10 4 0 6 5 11 10 11 6 0 10 -2 10 -4z m2970 -15 c-18 -10
-80 -22 -80 -16 0 5 59 23 80 24 13 0 13 -1 0 -8z m-2584 -18 c-38 -12 -51
-12 -60 -2 -6 6 -6 9 -1 6 6 -3 26 -2 45 3 58 13 68 9 16 -7z m204 2 c0 -12
-13 -15 -56 -15 -49 0 -55 2 -44 15 8 9 30 15 56 15 32 0 44 -4 44 -15z m523
-2 c-7 -2 -19 -2 -25 0 -7 3 -2 5 12 5 14 0 19 -2 13 -5z m1867 -3 c-8 -5 -24
-9 -35 -9 -16 1 -16 2 5 9 35 11 48 11 30 0z m640 0 c-20 -13 -43 -13 -35 0 3
6 16 10 28 10 18 0 19 -2 7 -10z m-3846 -8 c3 -5 -1 -9 -9 -9 -8 0 -12 4 -9 9
3 4 7 8 9 8 2 0 6 -4 9 -8z m1381 -2 c3 -6 -1 -7 -9 -4 -18 7 -21 14 -7 14 6
0 13 -4 16 -10z m1878 3 c-7 -2 -19 -2 -25 0 -7 3 -2 5 12 5 14 0 19 -2 13 -5z
m-3123 -7 c0 -2 -8 -10 -17 -17 -16 -13 -17 -12 -4 4 13 16 21 21 21 13z
m3007 -18 c-3 -8 -6 -5 -6 6 -1 11 2 17 5 13 3 -3 4 -12 1 -19z m-107 2 c0 -5
-5 -10 -11 -10 -5 0 -7 5 -4 10 3 6 8 10 11 10 2 0 4 -4 4 -10z m-3049 -27
c-12 -20 -14 -14 -5 12 4 9 9 14 11 11 3 -2 0 -13 -6 -23z m145 -11 c-17 -16
-18 -16 -5 5 7 12 15 20 18 17 3 -2 -3 -12 -13 -22z m380 8 c20 0 17 -30 -3
-31 -15 0 -15 -2 2 -9 18 -8 19 -9 1 -9 -12 -1 -16 -6 -12 -17 3 -9 2 -12 -5
-9 -5 4 -15 2 -22 -3 -7 -6 -59 -26 -116 -46 -91 -32 -102 -34 -86 -16 10 11
25 20 34 20 12 0 12 3 3 12 -9 9 -15 9 -24 0 -7 -7 -17 -12 -22 -12 -6 0 5 14
24 30 19 16 36 26 38 21 2 -6 16 -5 33 1 22 7 29 16 26 28 -4 17 29 47 40 36
3 -3 -2 -9 -11 -12 -14 -5 -15 -9 -4 -15 7 -5 18 -9 23 -9 6 0 4 4 -4 9 -11 7
-8 10 10 16 13 4 30 14 38 23 10 10 16 11 19 3 2 -6 10 -11 18 -11z m979 0
c-27 -12 -43 -12 -25 0 8 5 22 9 30 9 10 0 8 -3 -5 -9z m1538 -11 c-18 -11
-38 -19 -45 -16 -7 2 3 11 22 20 50 22 60 20 23 -4z m-3070 -3 c4 -10 1 -13
-8 -9 -8 3 -12 9 -9 14 7 12 11 11 17 -5z m2994 8 c-3 -3 -12 -4 -19 -1 -8 3
-5 6 6 6 11 1 17 -2 13 -5z m-37 -14 c0 -5 -2 -10 -4 -10 -2 0 -12 -3 -20 -6
-12 -5 -15 -2 -10 10 7 17 34 22 34 6z m-2261 -26 c2 -2 -14 -4 -37 -4 -23 0
-42 -4 -42 -10 0 -5 -12 -10 -26 -10 -31 0 -22 20 9 21 21 0 21 1 2 9 -12 5 1
6 35 3 30 -3 57 -7 59 -9z m3219 9 c-10 -2 -26 -2 -35 0 -10 3 -2 5 17 5 19 0
27 -2 18 -5z m-3138 -13 c0 -5 -11 -10 -25 -10 -14 0 -25 5 -25 10 0 6 11 10
25 10 14 0 25 -4 25 -10z m963 -15 c25 -5 39 -25 17 -25 -5 0 -10 5 -10 10 0
6 -6 10 -12 8 -19 -3 -58 12 -58 23 0 6 7 6 18 0 9 -6 29 -12 45 -16z m-1055
-2 c-10 -2 -26 -2 -35 0 -10 3 -2 5 17 5 19 0 27 -2 18 -5z m987 -3 c3 -5 1
-10 -4 -10 -6 0 -11 5 -11 10 0 6 2 10 4 10 3 0 8 -4 11 -10z m1235 -30 c0 -6
-13 -10 -30 -10 -22 0 -28 4 -24 15 5 11 2 13 -10 9 -9 -3 -16 -2 -16 4 0 6 6
12 13 15 15 5 67 -20 67 -33z m1302 18 c11 -13 16 -16 12 -8 -5 12 -4 12 6 3
8 -7 9 -17 3 -28 -8 -14 -12 -15 -24 -3 -8 7 -30 14 -49 16 -19 1 -39 8 -45
13 -7 8 3 9 33 4 26 -4 42 -3 42 3 0 6 -6 13 -12 15 -10 4 -10 6 0 6 8 1 23
-9 34 -21z m-4092 2 c0 -5 -5 -10 -11 -10 -5 0 -7 5 -4 10 3 6 8 10 11 10 2 0
4 -4 4 -10z m2700 0 c0 -5 -5 -10 -11 -10 -5 0 -7 5 -4 10 3 6 8 10 11 10 2 0
4 -4 4 -10z m-2892 -45 c-6 -14 -13 -23 -15 -21 -5 5 15 46 22 46 3 0 -1 -11
-7 -25z m4367 -33 c-8 -8 -45 20 -45 34 0 13 5 11 24 -7 14 -13 23 -25 21 -27z
m-4220 8 c3 -5 1 -10 -4 -10 -6 0 -11 5 -11 10 0 6 2 10 4 10 3 0 8 -4 11 -10z
m-184 -33 c-10 -9 -11 -8 -5 6 3 10 9 15 12 12 3 -3 0 -11 -7 -18z m3209 8 c0
-11 -11 -15 -40 -15 -29 0 -40 4 -40 15 0 11 11 15 40 15 29 0 40 -4 40 -15z
m-240 -5 c0 -5 -7 -10 -15 -10 -8 0 -15 5 -15 10 0 6 7 10 15 10 8 0 15 -4 15
-10z m-2869 -61 c-5 -13 -10 -19 -10 -12 -1 15 10 45 15 40 3 -2 0 -15 -5 -28z
m35 5 c-4 -9 -9 -15 -11 -12 -3 3 -3 13 1 22 4 9 9 15 11 12 3 -3 3 -13 -1
-22z m-159 -30 c1 -43 1 -45 -13 -26 -11 17 -12 26 -2 46 6 14 12 26 12 26 1
0 2 -21 3 -46z m4897 10 c3 -8 2 -12 -4 -9 -6 3 -10 10 -10 16 0 14 7 11 14
-7z m-4876 -29 c-3 -3 -9 2 -12 12 -6 14 -5 15 5 6 7 -7 10 -15 7 -18z m3349
9 c-3 -3 -12 -4 -19 -1 -8 3 -5 6 6 6 11 1 17 -2 13 -5z m67 -3 c3 -5 -9 -14
-27 -21 -17 -7 -45 -18 -62 -26 -16 -7 -32 -10 -35 -8 -9 9 32 33 68 40 24 5
30 9 20 15 -9 6 -7 9 9 9 12 0 24 -4 27 -9z m-104 -11 c0 -5 -4 -10 -10 -10
-5 0 -10 5 -10 10 0 6 5 10 10 10 6 0 10 -4 10 -10z m-3355 -59 c-3 -2 -5 1
-5 8 0 7 -4 9 -10 6 -5 -3 -10 -22 -10 -41 0 -21 -4 -33 -10 -29 -5 3 -10 2
-10 -4 0 -5 5 -13 10 -16 6 -3 10 -12 10 -18 0 -8 -3 -7 -9 2 -6 10 -12 4 -22
-23 -9 -24 -16 -33 -23 -26 -7 7 -6 14 2 22 7 7 12 18 12 26 0 8 12 46 27 84
26 65 28 68 35 42 4 -15 5 -30 3 -33z m4961 -8 c-3 -4 -6 -1 -6 6 0 7 -4 9
-10 6 -6 -4 -7 1 -3 11 6 15 7 15 15 -1 6 -9 7 -19 4 -22z m-4193 -30 c-7 -2
-19 -2 -25 0 -7 3 -2 5 12 5 14 0 19 -2 13 -5z m110 0 c-7 -2 -21 -2 -30 0
-10 3 -4 5 12 5 17 0 24 -2 18 -5z m3334 -9 c-3 -3 -12 -4 -19 -1 -8 3 -5 6 6
6 11 1 17 -2 13 -5z m76 -11 c-7 -2 -21 -2 -30 0 -10 3 -4 5 12 5 17 0 24 -2
18 -5z m-4276 -29 c-3 -3 -12 -4 -19 -1 -8 3 -5 6 6 6 11 1 17 -2 13 -5z
m5033 -133 c15 -54 18 -76 9 -89 -10 -16 -10 -15 -5 1 3 10 -3 50 -14 90 -22
77 -23 83 -15 75 3 -3 14 -38 25 -77z m-5130 29 c-15 -28 -20 -23 -13 13 4 18
9 25 15 19 6 -6 6 -18 -2 -32z m3044 16 c-10 -8 -21 -12 -24 -10 -5 6 21 24
34 24 6 0 1 -6 -10 -14z m1656 -12 c0 -2 -9 0 -20 6 -11 6 -20 13 -20 16 0 2
9 0 20 -6 11 -6 20 -13 20 -16z m-1600 12 c0 -2 -18 -15 -40 -30 -46 -30 -52
-26 -12 9 23 21 52 33 52 21z m-2116 -33 c-4 -16 -22 -82 -42 -148 -19 -66
-42 -145 -50 -175 -24 -83 -23 -313 2 -410 22 -88 84 -230 100 -230 17 0 53
62 76 129 60 178 63 364 11 563 -23 85 -31 139 -31 199 l0 82 58 -6 c102 -11
202 -49 302 -114 120 -79 243 -211 357 -383 82 -125 95 -148 80 -146 -8 0 -48
-37 -89 -85 -79 -89 -178 -173 -244 -207 -22 -11 -88 -37 -149 -57 -95 -33
-126 -39 -226 -43 -95 -4 -134 -1 -219 18 -130 27 -258 73 -334 119 -32 20
-77 46 -100 58 l-41 22 29 -22 c16 -12 41 -32 55 -45 l26 -23 -35 17 c-19 9
-45 26 -57 37 -13 11 -26 17 -29 14 -4 -4 -12 -1 -18 6 -6 7 -10 10 -9 8 2 -2
-5 -10 -15 -18 -16 -14 -16 -14 3 -8 11 3 16 3 12 -1 -9 -10 23 -45 34 -38 5
3 9 0 9 -5 0 -6 7 -11 15 -11 12 0 12 3 -2 18 -10 10 -24 17 -30 14 -16 -5
-17 14 -2 23 5 4 23 -7 39 -24 l30 -31 -25 -6 c-14 -3 -22 -10 -19 -15 3 -5
10 -6 16 -3 7 5 8 2 3 -6 -5 -8 -3 -11 6 -8 8 3 13 11 12 17 -2 6 2 11 7 11
13 0 13 -17 0 -25 -8 -5 -7 -12 2 -23 34 -42 -56 35 -128 111 -96 100 -175
212 -166 236 6 14 7 14 10 -2 2 -9 7 -15 12 -12 4 3 6 -4 3 -15 -3 -11 0 -20
6 -20 6 0 11 5 11 11 0 6 7 3 16 -6 11 -10 14 -24 10 -41 -5 -19 -3 -24 5 -18
9 5 10 2 5 -11 -7 -18 -6 -18 14 0 15 14 23 16 32 7 8 -8 8 -15 -2 -27 -8 -10
-9 -15 -1 -15 21 0 26 2 24 11 -2 5 2 9 7 9 14 0 12 -11 -5 -34 -8 -11 -15
-14 -15 -8 0 7 -5 12 -11 12 -8 0 -7 -5 2 -16 12 -15 15 -14 29 4 16 19 17 19
41 1 58 -45 35 -13 -44 61 -104 98 -212 253 -196 282 15 27 121 150 208 242
155 161 299 221 544 225 l77 1 -6 -27z m3337 12 c161 -24 240 -60 349 -161 60
-56 271 -294 299 -338 13 -20 13 -20 -3 -2 -9 11 -17 18 -19 15 -10 -13 -67
-147 -67 -157 0 -7 -4 -12 -9 -12 -5 0 -14 -13 -19 -30 -12 -34 -76 -97 -177
-175 -86 -66 -139 -92 -280 -140 l-110 -38 -210 -1 c-187 -1 -219 1 -291 21
-119 33 -200 73 -284 140 -116 94 -230 223 -230 263 0 17 12 36 134 203 62 86
176 206 236 249 89 65 235 130 362 161 33 9 37 -1 40 -108 1 -67 -4 -98 -33
-190 -33 -105 -34 -116 -33 -255 1 -112 6 -162 22 -221 24 -88 76 -209 91
-209 16 0 77 116 108 205 25 73 27 92 27 225 0 157 -7 193 -88 420 -18 52 -36
107 -40 123 l-6 27 67 0 c38 0 111 -7 164 -15z m-4337 -50 c-4 -8 -8 -15 -10
-15 -2 0 -4 7 -4 15 0 8 4 15 10 15 5 0 7 -7 4 -15z m5119 0 c-3 -9 -8 -14
-10 -11 -3 3 -2 9 2 15 9 16 15 13 8 -4z m-2135 -4 c10 -6 8 -12 -10 -23 -13
-8 -33 -18 -45 -22 -13 -4 -23 -11 -23 -15 0 -4 -23 -22 -51 -40 -39 -24 -54
-29 -67 -20 -13 7 -13 9 -2 6 8 -2 32 7 52 20 21 12 42 23 48 23 5 0 10 7 10
15 0 8 -4 15 -10 15 -5 0 -10 7 -10 15 0 8 5 15 10 15 6 0 10 -5 10 -11 0 -7
8 -9 23 -4 12 3 28 7 35 7 27 2 9 17 -25 21 l-38 4 40 1 c22 1 46 -2 53 -7z
m-161 -83 c-19 -10 -20 -10 -49 1 -19 7 -15 9 21 9 32 0 40 -3 28 -10z m663 9
c0 -2 -12 -14 -27 -28 l-28 -24 24 28 c23 25 31 32 31 24z m-746 -32 c-4 -8
-10 -15 -15 -15 -5 0 -9 7 -9 15 0 8 7 15 15 15 9 0 12 -6 9 -15z m2413 -17
c-3 -7 -5 -2 -5 12 0 14 2 19 5 13 2 -7 2 -19 0 -25z m-5200 0 c-3 -8 -6 -5
-6 6 -1 11 2 17 5 13 3 -3 4 -12 1 -19z m5230 0 c-3 -8 -6 -5 -6 6 -1 11 2 17
5 13 3 -3 4 -12 1 -19z m16 -56 c4 -21 3 -31 -3 -27 -6 3 -10 -2 -10 -11 0
-10 -2 -15 -5 -12 -3 3 -3 24 1 47 8 48 9 48 17 3z m-2516 22 c-3 -3 -12 -4
-19 -1 -8 3 -5 6 6 6 11 1 17 -2 13 -5z m716 -9 c-3 -9 -8 -14 -10 -11 -3 3
-2 9 2 15 9 16 15 13 8 -4z m1754 -67 c-2 -13 -4 -5 -4 17 -1 22 1 32 4 23 2
-10 2 -28 0 -40z m67 -20 c4 -17 2 -28 -4 -28 -5 0 -10 14 -10 32 0 36 4 35
14 -4z m-1886 2 c-7 -10 -14 -18 -15 -16 -6 6 9 36 18 36 5 0 4 -9 -3 -20z
m-3235 -14 c-10 -13 -20 -22 -22 -20 -4 4 29 44 36 44 2 0 -4 -11 -14 -24z
m3186 -53 c-12 -21 -27 -42 -32 -48 -11 -11 9 29 31 63 24 37 25 25 1 -15z
m1800 2 c13 7 34 -22 26 -35 -9 -15 -55 27 -55 49 1 13 2 13 11 -2 6 -9 14
-15 18 -12z m-5035 -9 c-3 -8 -18 -22 -32 -32 -27 -17 -27 -17 2 15 33 35 38
37 30 17z m5096 -58 c0 -6 -6 -5 -15 2 -8 7 -15 14 -15 16 0 2 7 1 15 -2 8 -4
15 -11 15 -16z m-1919 -21 c-10 -9 -11 -8 -5 6 3 10 9 15 12 12 3 -3 0 -11 -7
-18z m-3241 10 c0 -2 -10 -12 -22 -23 l-23 -19 19 23 c18 21 26 27 26 19z
m190 -97 c6 -11 8 -20 6 -20 -3 0 -10 9 -16 20 -6 11 -8 20 -6 20 3 0 10 -9
16 -20z m3000 0 c-6 -11 -13 -20 -16 -20 -2 0 0 9 6 20 6 11 13 20 16 20 2 0
0 -9 -6 -20z m1804 -12 c-10 -33 -83 -181 -95 -193 -6 -5 6 24 26 65 20 41 44
92 53 113 17 41 28 50 16 15z m-4764 -63 c0 -5 -5 -3 -10 5 -5 8 -10 20 -10
25 0 6 5 3 10 -5 5 -8 10 -19 10 -25z m110 -85 c0 -5 -5 -10 -11 -10 -5 0 -7
5 -4 10 3 6 8 10 11 10 2 0 4 -4 4 -10z m2920 -25 c14 -19 14 -19 -2 -6 -10 7
-18 18 -18 24 0 6 1 8 3 6 1 -2 9 -13 17 -24z m2170 -49 c0 -5 -7 -3 -15 4 -8
7 -15 22 -15 34 1 20 2 20 15 -4 8 -14 14 -29 15 -34z m-3566 4 c-19 -19 -20
-20 -20 -1 0 11 5 17 13 14 7 -3 13 1 13 8 0 7 3 9 7 5 4 -3 -2 -15 -13 -26z
m1440 4 c3 -8 10 -13 14 -10 5 3 20 -6 32 -19 13 -14 20 -25 15 -25 -5 0 2
-11 15 -25 12 -13 28 -23 34 -22 6 1 10 -4 8 -11 -1 -7 19 -26 45 -43 27 -16
47 -33 46 -37 0 -4 3 -6 9 -4 5 1 7 -2 3 -8 -9 -14 -30 1 -138 102 -72 66
-115 118 -99 118 6 0 13 -7 16 -16z m53 9 c-4 -3 1 -16 10 -27 18 -21 18 -21
-4 -2 -20 16 -23 36 -6 36 4 0 3 -3 0 -7z m1527 -15 c-16 -29 -81 -104 -120
-140 -180 -166 -325 -217 -616 -218 -150 0 -243 12 -395 50 -104 26 -240 89
-213 98 6 2 19 -3 29 -12 20 -18 36 -21 26 -5 -4 6 2 5 14 -2 12 -8 16 -16 10
-20 -6 -3 4 -12 22 -18 25 -9 35 -9 38 0 2 8 6 8 11 -1 7 -12 90 -39 140 -46
14 -1 52 -8 85 -13 54 -10 97 -12 260 -13 64 -1 105 5 105 15 0 4 9 7 21 7 11
0 18 4 15 9 -10 15 18 20 34 6 8 -7 26 -16 40 -19 19 -6 21 -5 10 3 -13 10
-13 11 0 11 13 0 13 1 0 10 -27 17 15 23 47 7 25 -13 33 -13 66 0 29 12 35 18
25 25 -10 7 -8 8 5 4 22 -7 120 41 112 55 -4 5 -3 9 2 8 20 -3 27 2 14 10 -19
12 -23 41 -5 34 7 -3 12 -10 11 -16 -1 -7 5 -12 13 -12 8 0 14 5 13 12 -2 8 4
10 15 6 9 -3 14 -3 10 2 -4 4 15 25 42 46 27 22 58 52 67 67 29 45 68 86 47
50z m-1734 -38 c12 -16 19 -30 16 -30 -2 0 -14 14 -26 30 -12 17 -19 30 -16
30 2 0 14 -13 26 -30z m-1351 -28 c-19 -21 -69 -67 -111 -103 -84 -70 -168
-111 -313 -155 -84 -25 -103 -27 -285 -28 -186 -1 -200 0 -296 28 -102 28
-237 92 -236 111 0 6 -4 15 -9 22 -7 7 -6 14 2 19 7 4 9 3 5 -4 -3 -6 -2 -13
4 -17 6 -4 8 -10 5 -15 -3 -4 3 -11 13 -14 9 -4 37 -17 62 -30 33 -17 51 -21
68 -15 13 5 21 6 19 1 -3 -4 10 -14 28 -23 23 -11 32 -12 28 -3 -2 6 0 15 6
19 6 3 14 -1 17 -9 3 -9 15 -16 25 -16 10 0 19 -3 19 -8 0 -4 19 -7 43 -6 62
3 166 -17 141 -27 -10 -4 14 -7 55 -6 41 1 67 3 58 5 -9 2 -17 8 -17 13 0 6 9
5 21 -2 27 -14 134 -2 150 17 14 17 39 18 39 2 0 -9 3 -8 10 2 6 9 5 17 -3 22
-8 5 -4 8 9 8 12 0 27 7 34 15 7 8 21 15 32 15 10 0 21 -7 24 -15 4 -8 11 -15
17 -15 7 0 7 4 -1 12 -7 7 -12 21 -11 33 0 19 0 19 9 -1 13 -32 26 -37 66 -24
28 9 33 15 23 22 -10 6 -7 7 9 3 12 -4 22 -3 21 2 -3 19 2 27 10 14 7 -11 13
-9 29 7 11 11 33 29 47 38 26 17 26 19 9 31 -10 7 -13 13 -7 13 7 0 15 -5 18
-10 4 -6 22 2 46 21 21 17 36 36 33 41 -4 6 -3 8 3 5 5 -4 20 5 31 18 12 14
25 25 28 25 4 0 -9 -17 -27 -38z m1157 9 c51 -20 79 -67 77 -131 -2 -108 -64
-220 -157 -283 -62 -42 -170 -143 -220 -207 -23 -28 -27 -31 -23 -12 3 12 2
20 -3 17 -4 -3 -11 3 -14 12 -6 15 -8 15 -16 3 -6 -9 -10 -10 -10 -3 0 7 8 17
18 23 15 10 14 11 -5 7 -13 -3 -25 -1 -28 4 -3 4 -12 6 -20 2 -8 -3 -15 0 -15
7 0 15 -25 40 -41 40 -9 0 -8 -4 2 -12 8 -7 28 -30 45 -52 16 -21 37 -48 46
-60 l17 -21 -6 23 c-3 12 -1 22 5 22 13 0 24 -44 16 -64 -4 -11 -14 -5 -38 27
-36 47 -145 141 -224 195 -83 54 -155 125 -180 175 -13 25 -30 78 -38 117 -14
67 -13 74 3 102 27 46 64 69 124 78 83 13 648 5 685 -9z m-1331 -91 c3 -5 -1
-10 -10 -10 -9 0 -13 5 -10 10 3 6 8 10 10 10 2 0 7 -4 10 -10z m15 -25 c-7
-8 -18 -15 -24 -15 -6 0 -2 7 8 15 25 19 32 19 16 0z m2940 -35 c0 -5 -2 -10
-4 -10 -3 0 -8 5 -11 10 -3 6 -1 10 4 10 6 0 11 -4 11 -10z m-939 -18 c-7 -2
-18 1 -23 6 -8 8 -4 9 13 5 13 -4 18 -8 10 -11z m-2121 -22 c-8 -5 -19 -10
-25 -10 -5 0 -3 5 5 10 8 5 20 10 25 10 6 0 3 -5 -5 -10z m-603 -36 c-3 -3
-12 -4 -19 -1 -8 3 -5 6 6 6 11 1 17 -2 13 -5z m130 0 c-3 -3 -12 -4 -19 -1
-8 3 -5 6 6 6 11 1 17 -2 13 -5z m-84 -11 c-7 -2 -19 -2 -25 0 -7 3 -2 5 12 5
14 0 19 -2 13 -5z m164 -9 c-3 -3 -12 -4 -19 -1 -8 3 -5 6 6 6 11 1 17 -2 13
-5z m3143 -8 c0 -2 -7 -7 -16 -10 -8 -3 -12 -2 -9 4 6 10 25 14 25 6z m-3063
-12 c-3 -3 -12 -4 -19 -1 -8 3 -5 6 6 6 11 1 17 -2 13 -5z m2800 0 c-3 -3 -12
-4 -19 -1 -8 3 -5 6 6 6 11 1 17 -2 13 -5z m196 -11 c-7 -2 -19 -2 -25 0 -7 3
-2 5 12 5 14 0 19 -2 13 -5z m-1628 -313 c3 -5 2 -10 -4 -10 -5 0 -13 5 -16
10 -3 6 -2 10 4 10 5 0 13 -4 16 -10z m-259 -66 c22 -14 49 -40 61 -57 27 -40
56 -128 51 -157 -2 -18 -15 -6 -67 64 -36 47 -73 89 -84 92 -10 3 -39 3 -63
-1 -41 -6 -44 -5 -44 17 0 67 74 88 146 42z m691 -1 c65 -30 97 -115 68 -176
-13 -27 -28 -40 -68 -56 -97 -38 -141 -45 -176 -26 -89 46 -56 206 53 256 51
23 78 24 123 2z m-961 -88 c27 -27 54 -83 54 -112 0 -12 -9 -7 -34 20 -28 31
-40 37 -75 37 -23 0 -60 -9 -83 -21 l-41 -21 7 34 c15 79 118 117 172 63z m24
-133 c0 -40 -46 -82 -91 -82 -39 0 -99 39 -99 64 0 20 43 38 107 45 73 9 83 5
83 -27z m1137 -3 c20 -17 16 -35 -14 -59 -40 -31 -82 -24 -107 19 -18 31 -18
35 -3 46 20 14 104 10 124 -6z m-1053 -104 c-6 -15 -64 -55 -80 -55 -10 0 67
69 78 70 4 0 5 -7 2 -15z m779 -62 c-7 -2 -21 -2 -30 0 -10 3 -4 5 12 5 17 0
24 -2 18 -5z m-1063 -143 c-6 -11 -13 -20 -16 -20 -2 0 0 9 6 20 6 11 13 20
16 20 2 0 0 -9 -6 -20z m1754 -1138 c3 -48 14 -117 24 -152 l18 -65 -61 -43
c-75 -54 -100 -66 -204 -97 -95 -28 -153 -32 -170 -11 -10 12 -8 15 11 19 20
4 20 4 -4 6 -16 0 -28 -3 -28 -9 0 -5 -8 -6 -17 -3 -15 6 -15 7 3 14 13 5 6 8
-25 8 -24 1 -42 4 -39 7 4 3 42 2 85 -1 57 -5 80 -11 80 -21 0 -7 -3 -12 -6
-10 -3 2 -15 0 -26 -5 -17 -6 -15 -8 10 -8 46 -1 80 10 63 20 -10 7 -8 9 7 10
11 1 36 3 55 5 19 2 43 4 54 4 17 1 17 3 -4 25 -13 14 -25 23 -28 20 -3 -2
-13 0 -23 6 -11 5 -19 6 -19 2 0 -5 -12 -10 -26 -11 -14 -1 -35 -9 -47 -17
-27 -19 -38 -19 -31 -1 4 11 -11 16 -67 21 -40 4 -78 13 -85 20 -9 8 -42 11
-110 9 -53 -2 -104 1 -113 6 -11 6 26 10 109 12 l125 2 -125 6 -125 6 125 4
125 4 -160 6 -160 6 158 2 c110 1 157 5 157 14 0 8 -36 9 -132 5 -73 -4 -145
-7 -160 -7 -18 0 -28 -5 -28 -15 0 -11 11 -15 37 -15 20 0 34 -3 30 -6 -3 -4
-48 -1 -99 5 -51 6 -210 12 -353 13 -143 1 -246 6 -230 10 24 6 22 6 -10 3
-22 -3 -53 -5 -70 -6 -19 -1 -10 -5 25 -10 30 -5 80 -7 110 -4 33 3 47 1 35
-4 -18 -7 -18 -8 -1 -18 17 -9 16 -11 -8 -15 -18 -4 -26 -1 -26 8 0 10 -13 14
-40 14 -22 0 -40 -4 -40 -10 0 -6 -32 -10 -77 -9 -59 1 -72 3 -53 10 20 7 17
8 -15 4 -22 -3 -52 -5 -67 -5 -18 0 -28 -5 -28 -15 0 -11 -11 -15 -40 -15 -29
0 -40 4 -40 15 0 22 -13 18 -44 -14 -18 -18 -23 -30 -15 -33 6 -2 -8 -10 -32
-17 -38 -12 -41 -15 -23 -21 29 -11 208 -48 269 -55 152 -19 171 -22 130 -23
-79 -3 -355 42 -484 78 -104 29 -178 70 -165 91 3 5 -1 7 -8 4 -7 -2 -23 4
-36 15 -23 19 -23 20 -8 92 8 40 18 106 22 146 3 39 7 72 8 72 1 0 74 -11 162
-25 357 -55 831 -82 1159 -65 312 16 616 50 755 84 30 8 60 14 66 15 7 1 14
-32 18 -87z m-1231 -229 c-13 -2 -33 -2 -45 0 -13 2 -3 4 22 4 25 0 35 -2 23
-4z m112 -3 c25 -11 -1 -11 -35 0 -20 6 -21 8 -5 8 11 0 29 -3 40 -8z m80 0
c13 -5 14 -9 5 -9 -8 0 -24 4 -35 9 -13 5 -14 9 -5 9 8 0 24 -4 35 -9z m160 0
c12 -4 -7 -6 -45 -3 -36 3 -67 7 -69 9 -9 8 95 2 114 -6z m-65 -35 c0 -14 5
-25 11 -25 6 0 9 -9 6 -20 -3 -13 0 -20 8 -20 8 0 17 9 20 20 7 23 25 27 25 5
0 -10 10 -15 28 -16 l27 -1 -29 -13 -30 -13 33 -7 c26 -5 30 -10 20 -17 -10
-7 -8 -8 8 -3 12 3 25 1 29 -6 7 -13 -30 -10 -141 11 -76 14 -233 11 -300 -5
-70 -17 -95 -18 -95 -6 0 8 93 26 118 22 6 -1 12 2 12 6 0 4 37 9 83 11 45 2
97 6 116 10 32 7 33 9 18 24 -20 20 -22 54 -4 61 26 11 37 6 37 -18z m150 15
c0 -5 -4 -10 -10 -10 -5 0 -10 5 -10 10 0 6 5 10 10 10 6 0 10 -4 10 -10z
m-350 -25 c0 -7 -26 -10 -67 -9 -78 2 -76 2 -69 12 7 12 136 9 136 -3z m-327
-52 c-13 -2 -33 -2 -45 0 -13 2 -3 4 22 4 25 0 35 -2 23 -4z m106 -2 c12 -8
10 -11 -11 -16 -14 -4 -39 -5 -54 -2 -22 3 -17 5 16 6 35 2 41 4 25 11 -13 6
-15 9 -5 9 8 0 22 -3 29 -8z m149 -7 c-7 -6 -26 -14 -43 -17 l-30 -6 30 13
c26 12 27 14 10 19 -11 3 -6 5 13 4 25 -1 29 -4 20 -13z m189 10 c-3 -3 -12
-4 -19 -1 -8 3 -5 6 6 6 11 1 17 -2 13 -5z m393 -16 c-14 -4 13 -6 60 -3 l85
4 -85 -13 c-80 -12 -82 -13 -40 -17 25 -3 1 -5 -52 -4 -98 0 -120 10 -38 18
27 2 16 4 -30 4 -41 0 -84 1 -95 2 -20 2 -20 3 0 10 10 4 51 6 91 3 40 -2 80
0 90 6 10 6 23 8 29 4 5 -3 -1 -10 -15 -14z m347 16 c-3 -3 -12 -4 -19 -1 -8
3 -5 6 6 6 11 1 17 -2 13 -5z m-2039 -40 c116 -32 488 -104 692 -133 337 -49
930 -38 1282 24 79 14 190 32 248 41 121 18 240 46 310 74 l50 20 4 -23 c13
-69 69 -296 76 -308 9 -14 10 -13 -300 -103 -131 -38 -464 -97 -660 -117 -154
-16 -681 -16 -850 0 -210 20 -455 57 -622 95 -154 35 -422 119 -412 128 6 6
58 229 69 296 4 23 11 39 16 36 5 -3 49 -16 97 -30z m485 29 c-7 -2 -19 -2
-25 0 -7 3 -2 5 12 5 14 0 19 -2 13 -5z m44 -9 c-3 -3 -12 -4 -19 -1 -8 3 -5
6 6 6 11 1 17 -2 13 -5z m33 -4 c0 -5 -5 -10 -11 -10 -5 0 -7 5 -4 10 3 6 8
10 11 10 2 0 4 -4 4 -10z m297 4 c-3 -3 -12 -4 -19 -1 -8 3 -5 6 6 6 11 1 17
-2 13 -5z m-234 -11 c-7 -2 -19 -2 -25 0 -7 3 -2 5 12 5 14 0 19 -2 13 -5z
m400 0 c-7 -2 -21 -2 -30 0 -10 3 -4 5 12 5 17 0 24 -2 18 -5z m-236 -19 c-3
-3 -12 -4 -19 -1 -8 3 -5 6 6 6 11 1 17 -2 13 -5z m126 -1 c-7 -2 -21 -2 -30
0 -10 3 -4 5 12 5 17 0 24 -2 18 -5z m962 -24 c-22 -4 -51 -8 -65 -7 -35 1 34
15 75 16 25 0 23 -2 -10 -9z m-875 -14 c0 -10 -10 -15 -27 -15 l-28 0 25 14
c14 8 26 14 28 15 1 1 2 -6 2 -14z m723 -2 c-23 -2 -64 -2 -90 0 -26 2 -7 3
42 3 50 0 71 -1 48 -3z m-1909 -428 c61 -26 202 -55 416 -86 537 -79 926 -107
1240 -90 181 10 666 66 825 96 44 8 121 22 170 31 50 9 125 25 169 36 43 10
79 18 80 16 1 -2 14 -66 30 -143 15 -77 34 -156 40 -176 l13 -37 -91 -31
c-222 -75 -554 -146 -804 -173 -287 -30 -1036 -33 -1292 -5 -246 27 -679 114
-688 137 -2 4 -11 6 -20 5 -9 -2 -60 11 -112 28 -67 22 -95 36 -93 47 1 8 6
35 11 60 17 77 62 293 62 296 0 6 6 5 44 -11z m-79 -455 c32 -11 67 -20 77
-20 12 0 16 -4 12 -12 -4 -6 -3 -8 3 -5 5 3 45 -5 89 -19 143 -44 431 -99 674
-128 471 -57 1260 -33 1637 49 38 8 122 26 188 40 66 13 183 45 259 70 77 25
140 44 141 43 1 -2 16 -79 34 -173 17 -93 33 -179 36 -190 5 -18 -10 -26 -117
-68 -450 -175 -802 -227 -1533 -228 -428 0 -559 8 -858 52 -292 42 -462 88
-662 178 -128 58 -118 44 -100 141 9 47 23 131 32 188 9 56 19 102 23 102 4 0
33 -9 65 -20z m-148 -582 c-2 -13 -4 -5 -4 17 -1 22 1 32 4 23 2 -10 2 -28 0
-40z m3320 -10 c-3 -8 -6 -5 -6 6 -1 11 2 17 5 13 3 -3 4 -12 1 -19z m-3330
-60 c-3 -8 -6 -5 -6 6 -1 11 2 17 5 13 3 -3 4 -12 1 -19z m3340 -15 c-3 -10
-5 -4 -5 12 0 17 2 24 5 18 2 -7 2 -21 0 -30z m-3350 -50 c-3 -10 -5 -4 -5 12
0 17 2 24 5 18 2 -7 2 -21 0 -30z m3360 -35 c-2 -13 -4 -5 -4 17 -1 22 1 32 4
23 2 -10 2 -28 0 -40z m-3370 -40 c-3 -7 -5 -2 -5 12 0 14 2 19 5 13 2 -7 2
-19 0 -25z m3380 -35 c-3 -10 -5 -2 -5 17 0 19 2 27 5 18 2 -10 2 -26 0 -35z
m-3390 -40 c-3 -10 -5 -4 -5 12 0 17 2 24 5 18 2 -7 2 -21 0 -30z m3400 -40
c-3 -10 -5 -2 -5 17 0 19 2 27 5 18 2 -10 2 -26 0 -35z m-3410 -55 c-3 -8 -6
-5 -6 6 -1 11 2 17 5 13 3 -3 4 -12 1 -19z m-10 -115 c-2 -16 -4 -5 -4 22 0
28 2 40 4 28 2 -13 2 -35 0 -50z m3440 25 c-3 -7 -5 -2 -5 12 0 14 2 19 5 13
2 -7 2 -19 0 -25z m-3450 -125 c-2 -16 -4 -5 -4 22 0 28 2 40 4 28 2 -13 2
-35 0 -50z m5 -240 c8 -10 5 -13 -12 -13 -20 0 -22 4 -16 31 3 17 7 66 8 108
2 75 2 74 5 -18 2 -52 9 -101 15 -108z m3462 70 c6 -80 6 -83 -14 -83 -12 0
-18 5 -15 10 4 6 10 8 14 6 4 -3 6 32 3 77 -6 106 3 98 12 -10z m-2631 -60
c-7 -2 -21 -2 -30 0 -10 3 -4 5 12 5 17 0 24 -2 18 -5z m130 0 c-18 -2 -48 -2
-65 0 -18 2 -4 4 32 4 36 0 50 -2 33 -4z m1550 0 c-24 -2 -62 -2 -85 0 -24 2
-5 4 42 4 47 0 66 -2 43 -4z m-860 -10 c-13 -2 -33 -2 -45 0 -13 2 -3 4 22 4
25 0 35 -2 23 -4z m335 0 c-16 -2 -40 -2 -55 0 -16 2 -3 4 27 4 30 0 43 -2 28
-4z"/>
<path d="M2805 8820 c-3 -6 1 -7 9 -4 18 7 21 14 7 14 -6 0 -13 -4 -16 -10z"/>
<path d="M2886 8781 c-3 -5 1 -14 9 -21 8 -7 13 -16 10 -19 -2 -4 1 -8 8 -9
33 -3 52 -10 72 -30 22 -22 41 -30 31 -14 -12 21 -125 101 -130 93z m64 -48
c0 -8 -38 17 -51 33 -9 11 -2 9 19 -6 17 -13 32 -25 32 -27z"/>
<path d="M7269 8663 c-13 -16 -12 -17 4 -4 9 7 17 15 17 17 0 8 -8 3 -21 -13z"/>
<path d="M3067 8599 c12 -12 25 -20 28 -17 3 3 -7 13 -22 23 l-28 17 22 -23z"/>
<path d="M3040 8560 c-6 -11 -9 -20 -8 -20 2 0 11 9 21 20 9 11 13 20 7 20 -5
0 -14 -9 -20 -20z"/>
<path d="M2974 8548 c-5 -7 -3 -8 5 -3 7 4 23 -3 39 -16 l27 -24 -24 28 c-27
30 -36 33 -47 15z"/>
<path d="M3135 8480 c-4 -6 -11 -7 -17 -4 -7 4 -8 2 -4 -4 7 -12 36 -5 36 9 0
12 -7 11 -15 -1z"/>
<path d="M3151 8456 c2 -2 15 -9 29 -16 23 -12 24 -12 11 3 -7 10 -20 17 -29
17 -8 0 -13 -2 -11 -4z"/>
<path d="M6920 8450 c-8 -5 -10 -10 -5 -10 6 0 17 5 25 10 8 5 11 10 5 10 -5
0 -17 -5 -25 -10z"/>
<path d="M6872 8421 c-11 -7 -10 -9 3 -14 9 -4 14 -3 10 2 -3 5 1 12 7 14 7 3
9 6 3 6 -5 0 -16 -3 -23 -8z"/>
<path d="M6819 8383 c-13 -17 -13 -17 6 -3 11 8 22 16 24 17 2 2 0 3 -6 3 -6
0 -17 -8 -24 -17z"/>
<path d="M3247 8383 c-3 -5 -2 -15 4 -23 5 -8 9 -10 9 -5 0 6 5 3 10 -5 8 -12
9 -10 7 9 -4 26 -21 39 -30 24z"/>
<path d="M3355 8319 c-4 -6 -5 -12 -2 -15 2 -3 7 2 10 11 7 17 1 20 -8 4z"/>
<path d="M3380 8300 c20 -13 33 -13 25 0 -3 6 -14 10 -23 10 -15 0 -15 -2 -2
-10z"/>
<path d="M3456 8252 c-3 -6 -1 -14 5 -17 15 -10 25 3 12 16 -7 7 -13 7 -17 1z"/>
<path d="M5495 8071 c-3 -5 -1 -12 5 -16 5 -3 10 1 10 9 0 18 -6 21 -15 7z"/>
<path d="M5343 8053 c9 -2 23 -2 30 0 6 3 -1 5 -18 5 -16 0 -22 -2 -12 -5z"/>
<path d="M5458 8053 c7 -3 16 -2 19 1 4 3 -2 6 -13 5 -11 0 -14 -3 -6 -6z"/>
<path d="M5178 8033 c7 -3 16 -2 19 1 4 3 -2 6 -13 5 -11 0 -14 -3 -6 -6z"/>
<path d="M5488 8033 c7 -3 16 -2 19 1 4 3 -2 6 -13 5 -11 0 -14 -3 -6 -6z"/>
<path d="M5113 8013 c9 -2 25 -2 35 0 9 3 1 5 -18 5 -19 0 -27 -2 -17 -5z"/>
<path d="M5088 7993 c6 -2 18 -2 25 0 6 3 1 5 -13 5 -14 0 -19 -2 -12 -5z"/>
<path d="M3790 7961 c6 -12 15 -19 20 -16 5 3 12 -1 17 -8 4 -8 49 -48 98 -91
50 -42 97 -82 105 -90 35 -32 130 -106 136 -106 11 0 33 -28 26 -34 -3 -4 1
-4 10 -1 10 4 23 -3 35 -19 11 -14 23 -23 26 -20 9 10 -162 154 -183 154 -6 0
-9 4 -5 9 3 6 -5 15 -17 22 -13 7 -75 56 -138 109 -135 113 -147 121 -130 91z"/>
<path d="M6471 7888 c-61 -47 -95 -78 -83 -78 12 0 154 119 142 120 -3 0 -29
-19 -59 -42z"/>
<path d="M5215 7890 c3 -5 8 -10 11 -10 2 0 4 5 4 10 0 6 -5 10 -11 10 -5 0
-7 -4 -4 -10z"/>
<path d="M6350 7795 c-14 -16 -3 -20 19 -6 8 5 9 11 3 15 -5 3 -15 -1 -22 -9z"/>
<path d="M6316 7771 c-4 -5 -2 -12 3 -15 5 -4 12 -2 15 3 4 5 2 12 -3 15 -5 4
-12 2 -15 -3z"/>
<path d="M6273 7736 c-16 -19 -4 -29 13 -11 8 7 14 16 14 19 0 10 -15 6 -27
-8z"/>
<path d="M6218 7695 c-15 -12 -33 -25 -40 -28 -7 -2 -10 -8 -6 -12 4 -4 15 0
24 9 9 10 22 15 30 12 16 -6 40 22 28 34 -5 5 -20 -1 -36 -15z m23 -8 c-10 -9
-11 -8 -5 6 3 10 9 15 12 12 3 -3 0 -11 -7 -18z"/>
<path d="M6123 7619 c-18 -16 -33 -35 -33 -41 0 -6 -3 -8 -7 -5 -7 7 -33 -11
-33 -23 0 -4 7 -10 14 -13 11 -4 13 -1 9 10 -5 12 -2 15 9 10 15 -5 53 25 53
42 0 3 5 6 11 6 6 0 19 7 28 14 13 11 14 16 4 22 -19 12 -20 12 -55 -22z m-3
-33 c0 -2 -8 -10 -17 -17 -16 -13 -17 -12 -4 4 13 16 21 21 21 13z"/>
<path d="M4271 7566 c-8 -10 -9 -16 -1 -21 5 -3 10 -1 10 6 0 7 11 2 25 -11
28 -26 26 -41 -2 -19 -16 13 -17 12 -4 -4 8 -11 21 -15 32 -12 11 4 19 2 19
-4 0 -6 -4 -11 -9 -11 -5 0 26 -33 67 -74 46 -45 81 -72 90 -68 12 4 11 7 -2
14 -9 5 -14 14 -10 19 3 6 -18 32 -48 59 -38 35 -59 48 -73 44 -17 -4 -18 -3
-5 6 13 10 13 12 0 17 -8 4 -29 21 -46 40 -26 28 -33 31 -43 19z m165 -146
c18 -16 35 -26 39 -22 5 4 6 0 2 -9 -3 -9 -2 -21 1 -25 4 -5 -3 1 -14 14 -12
14 -34 35 -49 48 -16 13 -24 24 -19 24 5 0 23 -13 40 -30z"/>
<path d="M6020 7524 c0 -9 -5 -12 -12 -8 -7 4 -8 3 -4 -4 4 -6 14 -8 23 -5 12
5 14 3 8 -7 -5 -8 -4 -11 3 -7 12 8 4 47 -9 47 -5 0 -9 -7 -9 -16z"/>
<path d="M5980 7496 c0 -3 9 -10 20 -16 11 -6 20 -8 20 -6 0 3 -9 10 -20 16
-11 6 -20 8 -20 6z"/>
<path d="M5916 7441 c-4 -5 -2 -13 4 -16 8 -5 7 -11 -1 -21 -8 -10 -8 -14 -1
-14 20 0 33 37 18 49 -9 8 -16 8 -20 2z"/>
<path d="M5870 7405 c-7 -8 -9 -15 -6 -15 4 0 14 7 22 15 9 8 11 15 6 15 -5 0
-15 -7 -22 -15z"/>
<path d="M5860 7350 c-8 -5 -12 -11 -10 -14 3 -2 14 2 24 10 22 15 10 19 -14
4z"/>
<path d="M4510 7334 c0 -5 9 -17 19 -26 18 -15 20 -15 26 0 3 9 3 13 -1 9 -4
-4 -16 0 -26 10 -10 9 -18 12 -18 7z"/>
<path d="M5713 7290 c-55 -42 -71 -60 -54 -60 6 0 11 5 11 10 0 6 5 10 10 10
6 0 10 -8 10 -17 0 -15 2 -16 10 -3 6 9 5 17 -3 22 -6 4 -9 8 -7 10 3 2 24 17
48 32 23 16 42 30 42 32 0 10 -20 -1 -67 -36z"/>
<path d="M4577 7260 c-9 -12 -8 -13 2 -3 7 6 20 9 28 6 11 -4 12 -8 3 -13 -7
-4 0 -7 16 -7 16 0 23 2 16 4 -9 4 -10 9 -3 17 7 9 2 12 -20 11 -17 0 -36 -7
-42 -15z"/>
<path d="M5759 7273 c-1 -5 -1 -12 0 -16 1 -5 -9 -17 -21 -28 l-23 -20 27 16
c15 10 26 24 25 36 -1 19 -6 26 -8 12z"/>
<path d="M5720 7259 c0 -5 5 -7 10 -4 6 3 10 8 10 11 0 2 -4 4 -10 4 -5 0 -10
-5 -10 -11z"/>
<path d="M4713 7225 c5 -12 3 -16 -7 -12 -10 4 -13 1 -9 -9 6 -17 -8 -19 -25
-2 -18 18 -15 -5 4 -28 8 -10 12 -13 8 -5 -4 9 -2 12 7 9 8 -3 14 -13 14 -22
0 -10 8 -22 18 -27 22 -13 87 -80 87 -90 0 -5 7 -5 17 -2 10 4 14 2 10 -4 -4
-6 1 -10 10 -9 10 0 18 -4 18 -11 0 -6 4 -15 8 -20 5 -4 8 1 6 12 -2 11 0 27
5 35 5 8 6 12 1 8 -5 -5 -15 1 -22 12 -8 11 -19 18 -24 15 -5 -4 -9 -1 -9 4 0
6 -9 11 -20 11 -14 0 -20 6 -18 18 2 11 -4 18 -19 20 -13 2 -23 8 -23 13 0 6
9 7 20 4 11 -4 20 -2 20 4 0 6 -9 11 -19 11 -11 0 -23 5 -26 11 -4 6 -13 8
-21 5 -16 -6 -18 3 -6 22 9 13 42 6 42 -9 0 -4 24 -20 53 -33 31 -16 44 -26
32 -26 -12 0 -26 5 -33 12 -9 9 -12 9 -12 0 0 -12 30 -21 68 -19 22 1 22 2 5
15 -10 7 -38 25 -63 39 -25 14 -58 35 -74 46 -26 18 -29 18 -23 2z m8 -78
c-10 -9 -11 -8 -5 6 3 10 9 15 12 12 3 -3 0 -11 -7 -18z"/>
<path d="M5585 7194 c-27 -19 -45 -34 -40 -34 6 0 21 8 35 17 22 16 23 16 16
-2 -7 -18 -6 -18 13 -1 11 10 18 22 16 26 -3 5 1 10 7 13 7 2 11 7 8 9 -3 3
-27 -10 -55 -28z"/>
<path d="M5684 7193 c2 -10 6 -17 10 -16 15 3 16 11 2 22 -12 10 -14 9 -12 -6z"/>
<path d="M5615 7159 c-4 -6 -5 -12 -2 -15 2 -3 7 2 10 11 7 17 1 20 -8 4z"/>
<path d="M5645 7149 c-11 -17 -2 -18 19 -3 17 12 17 14 4 14 -9 0 -20 -5 -23
-11z"/>
<path d="M5609 7103 c-13 -16 -12 -17 4 -4 9 7 17 15 17 17 0 8 -8 3 -21 -13z"/>
<path d="M4888 7103 c6 -2 18 -2 25 0 6 3 1 5 -13 5 -14 0 -19 -2 -12 -5z"/>
<path d="M4957 7089 c7 -7 15 -10 18 -7 3 3 -2 9 -12 12 -14 6 -15 5 -6 -5z"/>
<path d="M5410 7085 c-25 -10 -29 -14 -14 -14 11 -1 29 6 40 14 23 17 19 17
-26 0z"/>
<path d="M4895 7070 c11 -5 27 -9 35 -9 9 0 8 4 -5 9 -11 5 -27 9 -35 9 -9 0
-8 -4 5 -9z"/>
<path d="M5010 7065 c22 -13 23 -14 5 -15 -19 -1 -19 -1 1 -13 19 -11 20 -14
7 -26 -12 -11 -17 -11 -23 -1 -5 7 -9 -4 -12 -29 -2 -22 -1 -41 2 -41 13 -1
38 -27 45 -49 5 -18 4 -22 -6 -15 -12 6 -12 5 -1 -8 8 -10 21 -14 34 -10 14 3
19 1 14 -6 -9 -15 12 -25 50 -24 21 1 37 -5 42 -14 5 -8 22 -17 39 -19 25 -3
32 0 36 17 4 15 11 19 26 15 22 -5 37 18 19 29 -6 4 -8 3 -5 -3 3 -5 1 -10 -6
-11 -7 0 -22 -4 -34 -7 -17 -6 -23 -3 -23 9 0 9 -5 16 -11 16 -6 0 -8 -10 -5
-22 3 -13 3 -17 0 -10 -3 6 -13 12 -21 12 -10 0 -13 6 -9 16 3 9 6 18 6 20 0
2 9 4 20 4 11 0 20 -4 20 -10 0 -13 53 -13 67 1 8 8 17 8 32 0 21 -12 22 -11
21 27 0 4 -16 6 -35 6 -28 -1 -35 2 -35 17 0 11 7 19 15 19 18 0 37 34 29 54
-7 19 -30 21 -37 4 -3 -9 -11 -7 -27 9 l-23 21 54 10 c49 8 43 9 -66 10 -79 0
-137 6 -170 16 -61 19 -67 19 -35 1z m173 -42 c-13 -2 -33 -2 -45 0 -13 2 -3
4 22 4 25 0 35 -2 23 -4z m-63 -73 c0 -24 -4 -30 -17 -28 -23 4 -33 29 -19 45
20 22 36 14 36 -17z m-93 4 c-3 -3 -12 -4 -19 -1 -8 3 -5 6 6 6 11 1 17 -2 13
-5z m83 -88 c-4 -4 -16 -4 -26 2 -16 9 -14 10 8 9 15 -1 23 -6 18 -11z"/>
<path d="M5470 6989 c0 -5 5 -7 10 -4 6 3 10 8 10 11 0 2 -4 4 -10 4 -5 0 -10
-5 -10 -11z"/>
<path d="M4930 6969 c-10 -17 -9 -24 4 -37 9 -9 16 -11 16 -5 0 6 -6 14 -12
17 -7 3 -3 3 10 0 20 -5 23 -2 20 17 -4 31 -24 35 -38 8z"/>
<path d="M5360 6953 c0 -1 12 -9 28 -17 l27 -16 -25 3 c-19 1 -25 -3 -26 -20
-1 -18 2 -20 15 -13 20 12 70 54 54 45 -7 -3 -18 -3 -25 1 -8 5 -6 10 8 15 13
5 7 7 -18 6 -21 -1 -38 -3 -38 -4z m30 -43 c0 -5 -4 -10 -10 -10 -5 0 -10 5
-10 10 0 6 5 10 10 10 6 0 10 -4 10 -10z"/>
<path d="M4992 6901 c7 -11 16 -17 20 -14 10 5 -10 33 -23 33 -5 0 -4 -9 3
-19z"/>
<path d="M5290 6866 c0 -2 7 -7 16 -10 8 -3 12 -2 9 4 -6 10 -25 14 -25 6z"/>
<path d="M7335 8274 c20 -16 20 -16 -2 -10 -12 4 -24 3 -27 -2 -3 -6 4 -12 16
-15 12 -4 26 -1 30 6 8 13 -9 37 -26 37 -6 0 -2 -8 9 -16z"/>
<path d="M7373 8235 c-3 -9 -3 -18 -1 -21 3 -3 8 4 11 16 6 23 -1 27 -10 5z"/>
<path d="M7391 8144 c0 -11 3 -14 6 -6 3 7 2 16 -1 19 -3 4 -6 -2 -5 -13z"/>
<path d="M7191 8074 c0 -11 3 -14 6 -6 3 7 2 16 -1 19 -3 4 -6 -2 -5 -13z"/>
<path d="M7268 7903 c7 -3 16 -2 19 1 4 3 -2 6 -13 5 -11 0 -14 -3 -6 -6z"/>
<path d="M3005 8250 c-3 -6 1 -7 9 -4 18 7 21 14 7 14 -6 0 -13 -4 -16 -10z"/>
<path d="M6917 6969 c7 -7 15 -10 18 -7 3 3 -2 9 -12 12 -14 6 -15 5 -6 -5z"/>
<path d="M6855 6850 c3 -5 10 -10 16 -10 5 0 9 5 9 10 0 6 -7 10 -16 10 -8 0
-12 -4 -9 -10z"/>
<path d="M4687 6812 c-24 -26 -21 -47 6 -50 19 -3 44 -6 70 -11 4 0 7 -6 7
-12 0 -6 -9 -8 -22 -4 -17 5 -19 4 -9 -4 16 -11 98 -8 109 4 4 5 -1 5 -11 2
-21 -8 -87 20 -87 35 0 6 7 7 16 4 14 -5 15 -4 4 9 -11 13 -15 13 -31 -6 -21
-25 -23 -22 -9 15 6 17 6 26 0 26 -6 0 -10 -4 -10 -10 0 -5 -4 -10 -10 -10 -5
0 -7 7 -4 15 8 20 1 19 -19 -3z"/>
<path d="M4608 6803 c7 -3 16 -2 19 1 4 3 -2 6 -13 5 -11 0 -14 -3 -6 -6z"/>
<path d="M3745 6780 c3 -5 10 -10 16 -10 5 0 9 5 9 10 0 6 -7 10 -16 10 -8 0
-12 -4 -9 -10z"/>
<path d="M3788 6763 c7 -3 16 -2 19 1 4 3 -2 6 -13 5 -11 0 -14 -3 -6 -6z"/>
<path d="M4645 6730 c3 -5 8 -10 11 -10 2 0 4 5 4 10 0 6 -5 10 -11 10 -5 0
-7 -4 -4 -10z"/>
<path d="M3997 6706 c4 -5 -6 -6 -23 -2 l-29 7 24 -17 c18 -13 25 -14 31 -4 5
9 20 11 44 7 20 -3 36 -2 36 4 0 5 -8 10 -17 11 -53 4 -71 3 -66 -6z"/>
<path d="M4010 6679 c0 -9 27 -19 51 -19 33 0 21 18 -16 22 -19 2 -35 1 -35
-3z"/>
<path d="M5460 6675 c-10 -12 -9 -16 3 -21 9 -3 24 -1 34 5 15 9 13 10 -12 5
-29 -6 -29 -6 -10 9 11 9 15 17 9 17 -6 0 -17 -7 -24 -15z"/>
<path d="M4882 6628 c-1 -16 0 -28 4 -28 13 0 35 31 28 41 -4 7 0 9 14 5 11
-4 23 -3 25 1 3 5 -11 8 -32 8 -33 0 -37 -2 -39 -27z"/>
<path d="M4208 6633 c7 -3 16 -2 19 1 4 3 -2 6 -13 5 -11 0 -14 -3 -6 -6z"/>
<path d="M4400 6630 c0 -5 18 -10 40 -10 22 0 40 5 40 10 0 6 -18 10 -40 10
-22 0 -40 -4 -40 -10z"/>
<path d="M4220 6600 c-8 -5 -12 -12 -9 -15 4 -3 12 1 19 10 14 17 11 19 -10 5z"/>
<path d="M5185 6601 l-20 -8 20 -5 c13 -4 9 -6 -15 -8 -35 -2 -35 -2 10 -11
25 -5 50 -7 55 -5 6 3 -1 5 -15 6 l-25 2 25 8 25 8 -25 2 c-23 1 -23 2 -5 10
26 11 -2 12 -30 1z"/>
<path d="M5276 6589 c3 -5 -3 -9 -13 -10 -14 0 -12 -3 6 -10 13 -5 29 -8 35
-5 6 2 2 5 -9 6 -17 2 -16 3 5 9 l25 7 -27 6 c-15 3 -25 1 -22 -3z"/>
<path d="M5075 6583 c11 -3 23 -10 27 -16 4 -6 10 -8 15 -4 10 11 -17 27 -42
26 l-20 -1 20 -5z"/>
<path d="M4720 6570 c0 -5 18 -10 40 -10 22 0 40 5 40 10 0 6 -18 10 -40 10
-22 0 -40 -4 -40 -10z"/>
<path d="M4338 6553 c7 -3 16 -2 19 1 4 3 -2 6 -13 5 -11 0 -14 -3 -6 -6z"/>
<path d="M4397 6553 c-15 -14 -5 -18 38 -15 25 2 45 8 45 13 0 10 -73 12 -83
2z"/>
<path d="M5920 6552 c0 -22 13 -42 26 -42 20 0 17 14 -6 35 -11 10 -20 13 -20
7z"/>
<path d="M5970 6546 c14 -8 29 -12 34 -8 10 6 -20 20 -44 21 -8 0 -4 -6 10
-13z"/>
<path d="M4328 6523 c7 -3 16 -2 19 1 4 3 -2 6 -13 5 -11 0 -14 -3 -6 -6z"/>
<path d="M5757 6473 c-14 -13 -7 -63 8 -63 8 0 15 5 15 10 0 6 -4 10 -10 10
-5 0 -10 7 -10 15 0 8 5 15 10 15 6 0 10 5 10 10 0 11 -13 13 -23 3z"/>
<path d="M5818 6473 c7 -3 16 -2 19 1 4 3 -2 6 -13 5 -11 0 -14 -3 -6 -6z"/>
<path d="M4526 6415 c4 -8 10 -12 15 -9 11 6 2 24 -11 24 -5 0 -7 -7 -4 -15z"/>
<path d="M4800 6410 c0 -6 33 -10 80 -10 47 0 80 4 80 10 0 6 -33 10 -80 10
-47 0 -80 -4 -80 -10z"/>
<path d="M4720 6380 c0 -11 5 -20 10 -20 6 0 10 9 10 20 0 11 -4 20 -10 20 -5
0 -10 -9 -10 -20z"/>
<path d="M4738 6312 c-15 -6 -13 -11 18 -36 43 -34 59 -26 18 9 -19 17 -24 25
-13 25 8 0 21 -6 28 -12 11 -11 13 -10 9 2 -5 17 -34 23 -60 12z"/>
<path d="M4880 6275 c0 -40 3 -45 22 -45 12 0 30 -7 40 -17 16 -14 18 -14 18
0 0 8 -6 18 -12 20 -10 4 -10 6 0 6 7 1 12 16 12 41 l0 40 -40 0 -40 0 0 -45z"/>
<path d="M5020 6230 c0 -5 5 -10 10 -10 6 0 10 5 10 10 0 6 -4 10 -10 10 -5 0
-10 -4 -10 -10z"/>
<path d="M5007 6151 c-17 -6 -17 -8 2 -25 12 -11 24 -16 28 -12 4 4 1 11 -7
17 -13 8 -13 10 0 19 17 11 4 12 -23 1z"/>
<path d="M5238 6153 c6 -2 18 -2 25 0 6 3 1 5 -13 5 -14 0 -19 -2 -12 -5z"/>
<path d="M7670 6090 c0 -5 5 -10 11 -10 5 0 7 5 4 10 -3 6 -8 10 -11 10 -2 0
-4 -4 -4 -10z"/>
<path d="M5195 6080 c-3 -5 -1 -10 4 -10 6 0 11 5 11 10 0 6 -2 10 -4 10 -3 0
-8 -4 -11 -10z"/>
<path d="M6320 6950 c0 -5 18 -10 40 -10 22 0 40 5 40 10 0 6 -18 10 -40 10
-22 0 -40 -4 -40 -10z"/>
<path d="M6658 6793 c12 -2 32 -2 45 0 12 2 2 4 -23 4 -25 0 -35 -2 -22 -4z"/>
<path d="M6528 6763 c7 -3 16 -2 19 1 4 3 -2 6 -13 5 -11 0 -14 -3 -6 -6z"/>
<path d="M3405 6893 c-18 -14 -18 -15 -2 -9 10 3 23 6 28 6 5 0 9 5 9 10 0 14
-12 12 -35 -7z"/>
<path d="M3378 6853 c-10 -2 -18 -9 -18 -14 0 -12 10 -11 40 6 24 14 14 18
-22 8z"/>
<path d="M3250 6821 c0 -5 7 -11 14 -14 10 -4 13 -1 9 9 -6 15 -23 19 -23 5z"/>
<path d="M2910 5677 c0 -9 4 -18 9 -21 5 -4 8 1 7 9 -3 21 -16 31 -16 12z"/>
<path d="M2966 5613 c-4 -9 -2 -21 4 -27 8 -8 9 -6 5 7 -4 10 -2 17 4 17 6 0
11 5 11 10 0 16 -17 11 -24 -7z"/>
<path d="M3021 5546 c-9 -10 -8 -15 2 -19 8 -3 13 3 13 14 0 23 0 23 -15 5z"/>
<path d="M7730 5981 c0 -5 5 -13 10 -16 6 -3 10 -2 10 4 0 5 -4 13 -10 16 -5
3 -10 2 -10 -4z"/>
<path d="M5965 5560 c10 -11 20 -20 23 -20 3 0 -3 9 -13 20 -10 11 -20 20 -23
20 -3 0 3 -9 13 -20z"/>
<path d="M6956 5264 c-5 -14 -4 -15 9 -4 17 14 19 20 6 20 -5 0 -12 -7 -15
-16z"/>
<path d="M6698 5243 c7 -3 16 -2 19 1 4 3 -2 6 -13 5 -11 0 -14 -3 -6 -6z"/>
<path d="M3608 5253 c7 -3 16 -2 19 1 4 3 -2 6 -13 5 -11 0 -14 -3 -6 -6z"/>
<path d="M5083 5453 c9 -2 23 -2 30 0 6 3 -1 5 -18 5 -16 0 -22 -2 -12 -5z"/>
<path d="M5430 5450 c14 -4 52 -8 85 -8 l60 1 -50 7 c-27 5 -66 8 -85 8 -32 0
-33 -1 -10 -8z"/>
<path d="M4791 5432 c0 -9 3 -12 5 -5 3 7 18 9 40 6 19 -3 34 -1 34 4 0 5 -18
10 -40 11 -32 2 -40 -2 -39 -16z"/>
<path d="M4880 5440 c0 -5 7 -7 15 -4 8 4 22 1 30 -6 8 -6 20 -10 27 -7 8 3 6
6 -5 6 -10 1 -16 5 -13 9 2 4 -9 9 -25 10 -16 1 -29 -2 -29 -8z"/>
<path d="M5607 5437 c3 -5 9 -21 14 -35 9 -25 9 -25 4 5 -2 19 0 33 8 36 7 3
2 4 -10 4 -12 -1 -19 -5 -16 -10z"/>
<path d="M5641 5394 c0 -11 3 -14 6 -6 3 7 2 16 -1 19 -3 4 -6 -2 -5 -13z"/>
<path d="M4935 5380 c-28 -7 -28 -8 -5 -9 14 0 32 4 40 9 17 11 8 11 -35 0z"/>
<path d="M5195 5380 c28 -5 73 -8 100 -8 l50 1 -55 7 c-30 5 -75 8 -100 8
l-45 -1 50 -7z"/>
<path d="M4914 5317 c2 -27 9 -54 16 -60 10 -9 11 -9 6 1 -4 7 -12 34 -17 60
l-8 47 3 -48z"/>
<path d="M5611 5344 c0 -11 3 -14 6 -6 3 7 2 16 -1 19 -3 4 -6 -2 -5 -13z"/>
<path d="M5438 5250 c-5 -46 -11 -59 -39 -82 -19 -16 -48 -34 -66 -40 -18 -7
-33 -15 -33 -19 0 -10 -140 -10 -182 0 -23 5 -38 5 -38 0 0 -5 14 -12 31 -16
17 -3 26 -9 20 -12 -6 -4 23 -7 63 -6 41 0 72 3 69 8 -2 4 1 7 6 7 19 0 12
-30 -6 -31 -12 0 -13 -2 -5 -6 7 -3 27 12 45 32 23 26 37 35 49 30 10 -4 15
-11 12 -16 -3 -5 2 -6 11 -2 13 5 14 8 3 15 -10 7 -9 11 5 23 11 7 26 11 35 8
15 -4 15 -3 2 6 -13 10 -13 12 0 20 10 7 17 6 22 -2 14 -22 17 -1 9 68 l-7 70
-6 -55z"/>
<path d="M4853 5252 c-1 -22 0 -24 9 -8 6 10 6 22 2 26 -5 5 -10 -3 -11 -18z"/>
<path d="M4959 5202 c5 -10 18 -25 27 -33 11 -9 9 -2 -6 19 -26 35 -36 42 -21
14z"/>
<path d="M5533 5182 c1 -12 6 -18 15 -15 7 3 10 9 5 12 -4 3 -11 10 -15 15 -4
4 -6 -1 -5 -12z"/>
<path d="M5010 5151 c0 -5 7 -12 16 -15 14 -5 15 -4 4 9 -14 17 -20 19 -20 6z"/>
<path d="M5019 5097 c6 -8 7 -18 3 -22 -4 -5 -1 -5 6 -1 10 6 10 11 1 22 -6 8
-14 14 -16 14 -3 0 0 -6 6 -13z"/>
<path d="M5176 5052 c14 -14 20 -15 22 -6 2 7 11 15 20 17 9 3 -1 5 -22 6 -39
1 -39 1 -20 -17z"/>
<path d="M5100 5028 c-10 -21 -10 -21 3 -6 8 10 18 14 22 10 5 -4 5 -1 1 6
-10 17 -14 15 -26 -10z"/>
<path d="M5218 5043 c7 -3 16 -2 19 1 4 3 -2 6 -13 5 -11 0 -14 -3 -6 -6z"/>
<path d="M5366 5033 c-6 -14 -5 -15 5 -6 7 7 10 15 7 18 -3 3 -9 -2 -12 -12z"/>
<path d="M5166 5015 c4 -8 18 -15 33 -14 15 0 20 3 11 6 -8 3 -23 10 -32 15
-14 6 -16 5 -12 -7z"/>
<path d="M5302 5018 c-16 -21 -23 -56 -13 -63 7 -4 8 1 4 11 -5 13 -3 15 7 9
9 -6 11 -4 6 4 -5 7 0 21 10 32 9 10 12 19 7 19 -6 0 -15 -6 -21 -12z"/>
<path d="M5330 5005 c-7 -9 -10 -18 -7 -21 3 -3 10 4 17 15 13 25 8 27 -10 6z"/>
<path d="M5472 4818 c-14 -14 -16 -38 -4 -38 4 0 13 5 20 12 18 18 23 5 7 -25
-14 -26 -14 -26 10 -11 21 14 26 14 49 -1 14 -9 31 -15 38 -12 8 3 2 9 -14 15
-39 16 -42 30 -4 18 27 -8 33 -15 31 -33 -1 -13 2 -26 7 -29 5 -4 7 -17 4 -29
-3 -13 -2 -27 4 -30 5 -3 7 0 4 8 -4 10 1 15 13 14 25 -3 31 58 8 83 -21 24
-130 64 -146 54 -8 -4 -10 -3 -5 4 9 16 -7 15 -22 0z m168 -68 c0 -5 -2 -10
-4 -10 -3 0 -8 5 -11 10 -3 6 -1 10 4 10 6 0 11 -4 11 -10z m7 -40 c-5 -30
-11 -31 -24 -4 -10 21 -9 24 8 24 13 0 18 -6 16 -20z"/>
<path d="M5516 4733 c-6 -14 -5 -15 5 -6 7 7 10 15 7 18 -3 3 -9 -2 -12 -12z"/>
<path d="M5421 4714 c0 -11 3 -14 6 -6 3 7 2 16 -1 19 -3 4 -6 -2 -5 -13z"/>
<path d="M5445 4650 c-7 -12 42 -33 64 -27 10 3 8 5 -6 6 -12 0 -28 8 -37 16
-9 9 -17 11 -21 5z"/>
<path d="M4140 3230 c-21 -7 -20 -8 12 -7 21 1 38 5 38 10 0 9 -17 8 -50 -3z"/>
<path d="M4435 3050 c3 -5 11 -10 16 -10 6 0 7 5 4 10 -3 6 -11 10 -16 10 -6
0 -7 -4 -4 -10z"/>
<path d="M4480 3042 c0 -5 33 -13 73 -16 39 -4 90 -11 112 -16 22 -5 56 -5 75
0 34 8 33 8 -17 9 -53 1 -195 18 -225 27 -10 3 -18 1 -18 -4z"/>
<path d="M6245 3031 c-3 -5 0 -13 6 -17 7 -4 9 -3 5 4 -3 5 0 13 6 15 9 4 10
6 1 6 -6 1 -14 -3 -18 -8z"/>
<path d="M5903 3023 c21 -5 23 -23 2 -23 -8 0 -35 5 -59 12 -38 10 -46 9 -61
-5 -15 -16 -9 -17 102 -16 99 0 113 2 88 12 l-30 11 30 7 c22 5 14 7 -30 7
-33 0 -52 -2 -42 -5z"/>
<path d="M4550 2999 c101 -12 108 -17 25 -19 -46 -1 -61 -4 -45 -9 13 -4 47
-4 75 0 27 4 84 5 125 3 65 -3 69 -2 30 6 -97 18 -187 29 -235 28 -44 0 -41
-2 25 -9z"/>
<path d="M4290 2985 c7 -8 16 -12 21 -9 13 8 1 24 -18 24 -13 0 -13 -3 -3 -15z"/>
<path d="M5840 2973 c0 -5 24 -7 52 -5 95 5 104 9 26 11 -43 0 -78 -2 -78 -6z"/>
<path d="M4140 2954 c0 -7 52 -25 57 -20 2 2 -10 8 -26 14 -17 6 -31 9 -31 6z"/>
<path d="M4191 2956 c2 -2 15 -9 29 -15 24 -11 24 -11 6 3 -16 13 -49 24 -35
12z"/>
<path d="M6084 2923 c-2 -23 -1 -24 17 -7 23 21 23 21 2 26 -13 4 -18 -2 -19
-19z"/>
<path d="M6170 2930 c0 -5 5 -10 11 -10 5 0 7 5 4 10 -3 6 -8 10 -11 10 -2 0
-4 -4 -4 -10z"/>
<path d="M6130 2920 c0 -5 5 -10 11 -10 5 0 7 5 4 10 -3 6 -8 10 -11 10 -2 0
-4 -4 -4 -10z"/>
<path d="M6105 2900 c-3 -5 -1 -10 4 -10 6 0 11 5 11 10 0 6 -2 10 -4 10 -3 0
-8 -4 -11 -10z"/>
<path d="M4270 2896 c0 -2 13 -9 29 -14 25 -9 29 -8 24 4 -4 12 -53 21 -53 10z"/>
<path d="M5998 2853 c7 -3 16 -2 19 1 4 3 -2 6 -13 5 -11 0 -14 -3 -6 -6z"/>
<path d="M5293 2853 c9 -2 23 -2 30 0 6 3 -1 5 -18 5 -16 0 -22 -2 -12 -5z"/>
<path d="M5448 2853 c7 -3 16 -2 19 1 4 3 -2 6 -13 5 -11 0 -14 -3 -6 -6z"/>
<path d="M6481 2784 c0 -11 3 -14 6 -6 3 7 2 16 -1 19 -3 4 -6 -2 -5 -13z"/>
<path d="M6502 2780 c0 -14 2 -19 5 -12 2 6 2 18 0 25 -3 6 -5 1 -5 -13z"/>
<path d="M6278 2743 c7 -3 16 -2 19 1 4 3 -2 6 -13 5 -11 0 -14 -3 -6 -6z"/>
<path d="M6215 2730 c-3 -5 3 -10 14 -10 12 0 21 5 21 10 0 6 -6 10 -14 10 -8
0 -18 -4 -21 -10z"/>
<path d="M6339 2715 c35 -8 81 -23 102 -33 22 -11 39 -15 39 -10 0 16 -85 47
-146 53 l-59 5 64 -15z"/>
<path d="M3930 2703 c-8 -4 -22 -14 -31 -25 -9 -10 -22 -18 -28 -18 -7 0 -9
-5 -4 -12 4 -7 6 -26 4 -42 -2 -20 1 -26 9 -21 7 4 10 20 8 37 -4 26 1 34 35
59 38 28 40 34 7 22z"/>
<path d="M3830 2675 c0 -9 6 -12 15 -9 8 4 12 10 9 15 -8 14 -24 10 -24 -6z"/>
<path d="M6492 2660 c0 -14 2 -19 5 -12 2 6 2 18 0 25 -3 6 -5 1 -5 -13z"/>
<path d="M3807 2635 c8 -58 23 -79 20 -29 -1 23 -5 40 -9 38 -3 -2 -9 4 -12
13 -2 10 -2 0 1 -22z"/>
<path d="M3846 2637 c3 -10 9 -15 12 -12 3 3 0 11 -7 18 -10 9 -11 8 -5 -6z"/>
<path d="M3789 2615 c-8 -37 -4 -62 10 -57 9 3 12 1 7 -6 -5 -8 0 -12 14 -12
12 0 18 -5 15 -10 -6 -10 44 -35 53 -26 3 3 -1 8 -9 10 -40 13 -42 15 -19 16
22 1 21 3 -10 13 -26 9 -38 21 -47 47 -7 19 -13 31 -14 25z"/>
<path d="M3890 2571 c0 -5 -10 -11 -22 -13 -19 -3 -18 -5 8 -9 26 -4 30 -2 26
13 -5 19 -12 24 -12 9z"/>
<path d="M3942 2505 c20 -14 40 -25 44 -25 5 0 -7 11 -26 25 -19 14 -39 25
-44 25 -6 0 6 -11 26 -25z"/>
<path d="M6315 2450 c-3 -6 1 -7 9 -4 18 7 21 14 7 14 -6 0 -13 -4 -16 -10z"/>
<path d="M6268 2433 c7 -3 16 -2 19 1 4 3 -2 6 -13 5 -11 0 -14 -3 -6 -6z"/>
<path d="M3727 2306 c3 -13 0 -33 -6 -44 -9 -17 -8 -20 14 -18 14 0 27 7 30
14 5 14 41 16 50 2 4 -7 14 -5 28 5 12 8 28 15 37 15 13 0 13 -1 0 -10 -11 -7
-4 -10 25 -9 22 0 33 3 25 6 -8 3 -23 13 -33 21 -15 13 -22 14 -37 4 -12 -7
-21 -8 -25 -2 -4 6 -11 7 -17 4 -5 -4 -24 4 -40 16 -17 13 -29 19 -26 14 3 -5
2 -18 -3 -29 -7 -19 -8 -19 -8 2 -1 12 -5 24 -10 27 -4 3 -6 -5 -4 -18z"/>
<path d="M3928 2283 c7 -3 16 -2 19 1 4 3 -2 6 -13 5 -11 0 -14 -3 -6 -6z"/>
<path d="M3965 2260 c-13 -6 -15 -9 -5 -9 8 0 22 4 30 9 18 12 2 12 -25 0z"/>
<path d="M6398 2263 c6 -2 18 -2 25 0 6 3 1 5 -13 5 -14 0 -19 -2 -12 -5z"/>
<path d="M3908 2243 c6 -2 18 -2 25 0 6 3 1 5 -13 5 -14 0 -19 -2 -12 -5z"/>
<path d="M6671 2114 c0 -11 3 -14 6 -6 3 7 2 16 -1 19 -3 4 -6 -2 -5 -13z"/>
<path d="M4020 2038 c0 -32 -3 -39 -10 -28 -8 11 -9 7 -4 -15 16 -70 23 -68
23 8 1 42 -1 77 -4 77 -3 0 -5 -19 -5 -42z"/>
<path d="M3822 2013 c2 -10 12 -19 23 -20 11 -2 14 0 8 3 -7 3 -13 12 -13 20
0 8 -5 14 -11 14 -6 0 -9 -8 -7 -17z"/>
<path d="M3917 2011 c-3 -14 0 -17 14 -14 15 4 17 8 8 19 -15 18 -16 18 -22
-5z"/>
<path d="M6660 2015 c0 -8 4 -15 10 -15 5 0 7 7 4 15 -4 8 -8 15 -10 15 -2 0
-4 -7 -4 -15z"/>
<path d="M3786 1991 c-5 -8 35 -31 55 -31 6 0 17 -7 25 -15 9 -8 23 -15 32
-15 15 1 14 3 -3 17 -20 15 -20 15 3 10 26 -6 26 10 -1 27 -13 8 -20 8 -25 -1
-4 -7 -16 -10 -27 -8 -11 2 -26 4 -33 4 -7 1 -10 6 -7 11 3 6 2 10 -4 10 -5 0
-12 -4 -15 -9z"/>
<path d="M6495 1990 l-40 -7 35 -1 c19 0 44 3 55 8 24 10 7 10 -50 0z"/>
<path d="M6548 1973 c7 -3 16 -2 19 1 4 3 -2 6 -13 5 -11 0 -14 -3 -6 -6z"/>
<path d="M6488 1963 c6 -2 18 -2 25 0 6 3 1 5 -13 5 -14 0 -19 -2 -12 -5z"/>
<path d="M6321 1938 c-1 -16 4 -28 9 -28 12 0 12 8 0 35 -8 18 -9 17 -9 -7z"/>
<path d="M3970 1910 c8 -5 24 -9 35 -9 l20 0 -20 9 c-11 5 -27 9 -35 9 -13 1
-13 0 0 -9z"/>
<path d="M3628 1883 c7 -3 16 -2 19 1 4 3 -2 6 -13 5 -11 0 -14 -3 -6 -6z"/>
<path d="M3673 1873 c9 -2 23 -2 30 0 6 3 -1 5 -18 5 -16 0 -22 -2 -12 -5z"/>
<path d="M6695 1870 c-16 -7 -17 -9 -3 -9 9 -1 20 4 23 9 7 11 7 11 -20 0z"/>
<path d="M3649 1857 c5 -5 21 -7 37 -5 27 3 26 4 -8 9 -22 3 -34 1 -29 -4z"/>
<path d="M6615 1850 c-16 -7 -17 -9 -3 -9 9 -1 20 4 23 9 7 11 7 11 -20 0z"/>
<path d="M6359 1771 c3 -18 6 -21 9 -9 2 9 11 18 20 20 12 3 9 6 -9 9 -23 5
-25 3 -20 -20z"/>
<path d="M3888 1783 c6 -2 18 -2 25 0 6 3 1 5 -13 5 -14 0 -19 -2 -12 -5z"/>
<path d="M4001 1782 c0 -7 -10 -11 -23 -9 -13 2 -17 2 -10 0 7 -3 10 -9 7 -14
-4 -5 -1 -9 4 -9 6 0 11 -10 12 -22 0 -23 0 -23 10 2 5 13 8 33 6 45 -2 11 -5
14 -6 7z"/>
<path d="M6376 1700 c8 -56 14 -64 14 -19 0 19 -5 41 -10 49 -7 10 -8 1 -4
-30z"/>
<path d="M3974 1682 c4 -7 2 -20 -5 -28 -6 -8 -9 -17 -6 -20 3 -3 11 4 17 16
9 17 9 25 -1 34 -9 8 -10 8 -5 -2z"/>
<path d="M6741 1664 c0 -11 3 -14 6 -6 3 7 2 16 -1 19 -3 4 -6 -2 -5 -13z"/>
<path d="M6392 1620 c0 -14 3 -45 7 -70 l8 -45 1 45 c0 25 -4 56 -8 70 l-8 25
0 -25z"/>
<path d="M6753 1563 c4 -3 1 -13 -6 -21 -10 -13 -9 -14 3 -10 19 6 26 38 9 38
-7 0 -9 -3 -6 -7z"/>
<path d="M6441 1534 c0 -11 3 -14 6 -6 3 7 2 16 -1 19 -3 4 -6 -2 -5 -13z"/>
<path d="M6388 1483 c-3 -12 -21 -31 -39 -42 -19 -12 -28 -21 -22 -21 21 0 76
55 71 70 -3 10 -6 7 -10 -7z"/>
<path d="M6630 1490 c-8 -5 -10 -10 -5 -10 6 0 17 5 25 10 8 5 11 10 5 10 -5
0 -17 -5 -25 -10z"/>
<path d="M3958 1458 c7 -7 12 -16 12 -20 0 -12 -27 -10 -33 2 -3 6 -4 5 -3 -2
3 -14 56 -25 56 -11 -1 12 -26 43 -36 43 -4 0 -3 -5 4 -12z"/>
<path d="M4228 1353 c7 -3 16 -2 19 1 4 3 -2 6 -13 5 -11 0 -14 -3 -6 -6z"/>
<path d="M4268 1343 c7 -3 16 -2 19 1 4 3 -2 6 -13 5 -11 0 -14 -3 -6 -6z"/>
<path d="M27 103 c-25 -4 -27 -8 -27 -54 0 -48 1 -49 30 -49 30 0 30 1 30 55
0 30 -1 54 -2 54 -2 -1 -15 -4 -31 -6z"/>
</g>
</svg>
