<?xml version="1.0" standalone="no"?>
<!DOCTYPE svg PUBLIC "-//W3C//DTD SVG 20010904//EN"
 "http://www.w3.org/TR/2001/REC-SVG-20010904/DTD/svg10.dtd">
<svg version="1.0" xmlns="http://www.w3.org/2000/svg"
 width="1024.000000pt" height="1024.000000pt" viewBox="0 0 1024.000000 1024.000000"
 preserveAspectRatio="xMidYMid meet">
<metadata>
Created by potrace 1.16, written by Peter Selinger 2001-2019
</metadata>
<g transform="translate(0.000000,1024.000000) scale(0.100000,-0.100000)"
fill="#000000" stroke="none">
<path d="M3115 9081 c-46 -12 -68 -26 -108 -70 -47 -53 -78 -114 -133 -269
-70 -195 -100 -306 -153 -557 -12 -55 -26 -116 -31 -136 -6 -20 -10 -49 -10
-64 0 -15 -4 -44 -10 -64 -15 -58 -49 -305 -60 -436 -45 -538 -27 -904 54
-1112 l24 -62 -25 -53 c-127 -274 -171 -409 -215 -658 -44 -254 -20 -580 57
-770 85 -208 251 -377 540 -550 153 -92 396 -203 522 -239 21 -6 17 -14 -67
-155 -105 -176 -154 -287 -168 -382 -11 -75 -2 -226 15 -259 6 -11 13 -92 16
-180 4 -88 8 -176 11 -195 2 -19 7 -84 11 -145 4 -60 15 -177 26 -260 11 -82
24 -211 30 -285 5 -74 12 -153 15 -176 l6 -41 -100 -41 c-56 -23 -111 -44
-124 -47 l-24 -6 8 106 c5 59 12 114 17 123 5 10 44 35 86 57 42 22 78 43 80
46 3 4 -7 107 -25 247 -2 20 -173 -67 -283 -145 -293 -207 -454 -475 -474
-790 -15 -247 85 -554 248 -758 57 -72 149 -155 172 -155 7 0 26 -8 42 -18 28
-16 145 -17 2000 -17 l1970 0 55 22 c153 62 327 299 394 534 36 126 59 300 52
386 -14 175 -71 353 -150 472 -110 165 -373 384 -568 473 l-38 17 0 -47 c0
-26 -3 -84 -6 -129 l-7 -82 76 -48 c70 -44 77 -51 83 -88 3 -22 8 -43 11 -48
8 -14 14 -167 6 -167 -5 0 -24 10 -43 22 -81 50 -153 88 -166 88 -11 0 -14 20
-14 98 1 92 5 137 29 314 18 136 53 661 47 718 -4 44 0 69 21 125 37 97 39
254 5 365 -28 89 -106 242 -185 361 -31 47 -57 89 -57 91 0 3 10 8 23 11 53
12 269 98 354 140 351 177 568 371 663 595 16 37 41 114 56 172 27 101 28 114
29 355 0 278 -8 345 -70 556 -33 113 -118 336 -155 410 -18 35 -18 37 4 100
64 184 81 355 71 739 -9 369 -15 444 -76 860 -43 295 -172 757 -259 931 -55
108 -148 178 -236 179 -104 0 -196 -54 -429 -255 -378 -327 -621 -661 -686
-943 -10 -40 -16 -51 -28 -47 -64 19 -211 48 -346 67 -216 30 -657 33 -835 5
-105 -17 -321 -60 -361 -73 -13 -4 -18 5 -24 43 -24 169 -131 367 -304 563
-182 206 -571 553 -686 612 -43 22 -141 32 -190 19z m161 -273 c16 -12 52 -44
79 -70 28 -25 79 -70 115 -99 176 -140 423 -422 519 -594 31 -55 131 -281 131
-296 0 -3 -16 -9 -36 -12 -20 -4 -70 -23 -111 -43 -40 -20 -75 -35 -76 -33 -2
2 -18 42 -37 89 -18 47 -49 118 -67 158 -19 40 -31 78 -27 84 4 7 3 8 -4 4 -7
-4 -18 7 -28 26 -9 18 -25 43 -35 56 -10 13 -16 29 -13 36 2 6 -11 30 -29 51
-19 22 -72 90 -119 150 -98 126 -172 199 -226 222 -53 22 -64 22 -94 2 -37
-27 -57 -98 -98 -354 -34 -214 -39 -246 -50 -350 -6 -55 -15 -127 -20 -160 -9
-61 -21 -178 -41 -387 -5 -65 -9 -180 -8 -258 2 -114 -1 -143 -13 -158 -22
-24 -106 -175 -138 -247 l-27 -60 -18 93 c-28 149 -12 697 29 962 8 52 24 163
36 245 32 230 128 608 206 812 54 142 125 188 200 131z m3759 0 c41 -32 76
-118 143 -353 124 -433 208 -980 211 -1370 2 -281 -22 -529 -40 -405 -3 25 -2
47 2 48 5 2 9 9 9 15 0 8 -3 8 -11 0 -9 -9 -17 -6 -31 12 -10 13 -18 27 -17
32 4 24 -2 53 -10 48 -11 -6 -25 31 -16 44 3 6 13 7 23 4 15 -6 15 -5 3 10
-17 21 -5 22 15 2 9 -8 11 -15 5 -15 -16 0 -13 -27 4 -34 8 -3 20 -19 27 -37
l13 -31 1 43 c1 24 -1 38 -3 32 -3 -7 -9 -13 -14 -13 -6 0 -6 7 -1 18 7 13 2
25 -24 52 -19 19 -34 38 -34 43 0 4 -7 7 -15 7 -20 0 -19 -17 1 -28 13 -7 14
-13 5 -31 -7 -11 -16 -21 -21 -21 -5 0 0 -21 10 -46 11 -25 18 -50 15 -54 -3
-5 -2 -10 3 -12 16 -6 52 -76 52 -101 0 -14 5 -29 10 -32 14 -8 13 -55 -1 -55
-6 0 -9 9 -6 20 3 11 2 18 -2 16 -7 -5 -42 81 -40 98 0 5 -3 12 -8 15 -5 3
-30 45 -56 93 l-46 88 -10 207 c-11 210 -18 283 -46 472 -8 58 -24 192 -36
299 -20 192 -39 310 -80 510 -17 81 -28 109 -49 132 -52 55 -120 31 -220 -77
-180 -195 -329 -436 -431 -693 -18 -47 -34 -86 -35 -88 -1 -2 -42 17 -90 41
-49 25 -99 48 -111 51 l-22 7 25 36 c13 20 24 41 24 47 0 20 78 173 126 247
100 157 277 357 439 498 55 47 134 119 177 159 68 64 81 72 116 72 25 0 49 -8
67 -22z m-160 -544 c21 -112 20 -125 -21 -173 -20 -23 -33 -45 -29 -49 3 -4
13 1 20 11 9 13 15 15 20 7 4 -7 2 -17 -4 -23 -16 -16 -14 -30 3 -24 8 3 17 1
20 -6 4 -7 4 -1 2 11 -3 13 -2 31 2 40 4 10 12 -30 18 -88 6 -58 21 -170 34
-250 37 -247 57 -432 49 -464 -6 -29 -7 -28 -9 14 l-3 45 -6 -42 c-9 -51 -16
-60 -36 -43 -12 10 -13 16 -4 27 10 11 14 11 20 1 6 -9 9 -9 9 -1 0 16 -17 26
-25 13 -10 -17 -18 -12 -76 43 -130 121 -252 210 -356 257 l-52 23 15 29 c9
16 26 62 39 102 31 96 64 168 111 246 22 36 55 94 73 130 48 94 158 256 167
247 2 -2 10 -39 19 -83z m-3504 18 c38 -50 131 -202 194 -317 21 -38 46 -84
56 -102 16 -29 99 -266 99 -283 0 -4 -10 -10 -23 -14 -37 -9 -184 -103 -265
-169 -42 -34 -115 -100 -163 -147 l-86 -85 4 90 c2 50 8 126 13 170 5 44 15
134 21 200 6 66 17 156 25 200 8 44 18 133 23 197 12 146 40 290 54 281 6 -4
8 0 4 10 -12 30 7 17 44 -31z m3526 -194 c-3 -8 -6 -5 -6 6 -1 11 2 17 5 13 3
-3 4 -12 1 -19z m-1432 -358 c324 -43 579 -133 914 -324 178 -102 356 -258
451 -396 13 -19 28 -38 33 -41 5 -3 8 -10 8 -15 -2 -17 33 -73 42 -67 6 3 7 1
4 -4 -4 -6 2 -31 13 -54 20 -46 26 -89 12 -89 -5 0 -38 30 -73 68 -117 122
-242 220 -422 329 -126 76 -183 104 -204 97 -14 -5 -15 -4 -4 4 11 8 -14 24
-102 65 -102 49 -326 132 -382 143 -20 3 -78 17 -145 34 -123 31 -332 52 -348
35 -4 -4 2 -5 12 -1 16 5 17 4 6 -9 -10 -12 -9 -16 3 -21 24 -9 37 -60 37
-143 0 -74 -37 -356 -65 -496 -37 -187 -47 -266 -46 -380 2 -139 -9 -213 -36
-232 -44 -33 -114 -28 -162 13 -44 37 -64 109 -67 244 -2 94 -8 129 -29 189
-39 110 -67 276 -84 506 -13 172 -3 246 39 290 23 24 28 35 19 40 -7 5 -10 4
-5 -3 3 -6 2 -13 -3 -16 -5 -4 -12 -2 -16 4 -8 12 -63 5 -260 -35 -290 -60
-430 -107 -655 -220 -199 -100 -244 -125 -339 -190 -122 -83 -221 -170 -308
-268 -52 -59 -67 -61 -60 -7 11 84 117 251 230 362 230 227 510 383 902 505
193 59 273 76 450 93 104 11 537 4 640 -10z m742 -486 c-3 -3 -12 -4 -19 -1
-8 3 -5 6 6 6 11 1 17 -2 13 -5z m787 -57 c7 -6 6 -7 -4 -4 -8 2 -16 12 -17
23 -2 13 -1 15 4 4 3 -8 11 -19 17 -23z m-3279 -347 c-27 -12 -43 -12 -25 0 8
5 22 9 30 9 10 0 8 -3 -5 -9z m-165 -77 c-25 -15 -47 -29 -50 -33 -3 -3 -21
-17 -40 -29 l-35 -24 31 30 c33 31 112 82 129 83 6 0 -10 -12 -35 -27z m3558
-188 c-2 -1 -12 1 -23 6 -11 4 -14 8 -7 8 6 1 12 6 12 12 0 6 -7 9 -15 5 -18
-7 -20 5 -2 23 10 11 9 13 -4 8 -13 -4 -16 -1 -12 16 3 15 2 18 -4 10 -6 -8
-9 -1 -9 22 0 33 2 31 33 -36 19 -39 33 -73 31 -74z m-1368 100 c-7 -8 -17
-15 -22 -15 -11 0 14 29 26 30 5 0 3 -7 -4 -15z m-2320 -5 c0 -5 -5 -10 -11
-10 -5 0 -7 5 -4 10 3 6 8 10 11 10 2 0 4 -4 4 -10z m586 -19 c5 -5 57 -28
115 -50 174 -67 251 -122 345 -243 89 -114 124 -230 124 -405 l0 -118 -72 -29
c-208 -81 -337 -107 -543 -109 -245 -2 -392 55 -532 207 -134 147 -145 238
-43 388 120 178 325 339 455 358 74 11 140 11 151 1z m2437 -27 c40 -20 95
-56 122 -80 28 -24 53 -44 57 -44 4 0 42 -39 84 -87 192 -219 194 -366 8 -543
-128 -121 -237 -160 -469 -167 -209 -7 -347 18 -547 98 -71 29 -78 34 -84 64
-8 44 1 214 15 289 17 84 80 186 178 283 85 85 146 123 273 170 36 13 74 28
85 33 28 13 59 17 138 19 59 1 77 -4 140 -35z m-3323 -14 c0 -11 -42 -52 -48
-46 -2 3 2 14 10 25 8 12 18 18 21 14 4 -3 7 -1 7 5 0 7 2 12 5 12 3 0 5 -4 5
-10z m2550 7 c0 -2 -17 -19 -37 -38 l-38 -34 34 38 c33 34 41 42 41 34z m-760
-52 c0 -5 -5 -3 -10 5 -5 8 -10 20 -10 25 0 6 5 3 10 -5 5 -8 10 -19 10 -25z
m317 13 c-3 -8 -6 -5 -6 6 -1 11 2 17 5 13 3 -3 4 -12 1 -19z m261 -208 c-17
-39 -33 -68 -36 -66 -5 6 54 136 62 136 3 0 -9 -32 -26 -70z m-2295 -7 c-7
-20 -33 -60 -33 -52 0 9 31 69 35 69 3 0 2 -8 -2 -17z m-262 -90 c-12 -20 -14
-14 -5 12 4 9 9 14 11 11 3 -2 0 -13 -6 -23z m2486 -110 c-3 -10 -5 -4 -5 12
0 17 2 24 5 18 2 -7 2 -21 0 -30z m-242 -60 c22 -15 45 -32 50 -39 21 -26 128
-103 136 -98 5 3 9 -1 9 -9 0 -22 28 -29 34 -9 2 9 2 -23 -1 -72 -12 -183
-100 -364 -204 -417 -43 -21 -53 -24 -44 -9 4 6 21 17 40 24 18 8 42 27 52 43
10 15 30 40 44 56 29 30 48 87 23 66 -8 -6 -14 -17 -14 -23 0 -16 -45 -66 -60
-66 -7 0 -10 -7 -7 -15 8 -19 -13 -31 -24 -14 -5 8 -9 9 -9 3 0 -14 -49 -36
-62 -28 -6 4 -13 2 -17 -5 -11 -17 -116 4 -140 28 -27 27 -28 45 -2 31 29 -15
38 -12 14 5 -26 18 -54 10 -47 -13 5 -15 4 -15 -9 1 -8 9 -21 17 -30 17 -9 0
-21 9 -27 20 -6 11 -16 18 -21 14 -7 -4 -7 1 0 14 16 29 14 39 -3 16 -14 -18
-15 -17 -29 15 -23 54 -11 68 27 33 17 -16 47 -38 66 -48 19 -10 40 -25 45
-32 14 -18 142 -30 185 -17 20 5 53 20 73 33 21 12 40 22 43 22 3 0 11 6 19
13 29 28 56 47 65 47 14 0 26 71 21 121 0 5 -5 8 -10 5 -5 -4 -7 3 -4 14 6 24
-12 27 -21 4 -3 -9 3 -27 14 -41 20 -26 19 -43 -4 -43 -7 0 -18 -11 -24 -25
-6 -14 -16 -25 -22 -25 -12 0 -13 13 -3 24 4 4 8 15 8 24 0 11 7 16 22 15 21
-3 21 -2 5 27 -16 28 -32 39 -32 22 0 -4 -14 -16 -31 -26 -24 -14 -28 -21 -18
-28 11 -8 10 -9 -4 -4 -9 3 -33 -5 -53 -19 -98 -67 -195 -47 -315 63 l-54 50
-17 -37 -17 -36 -1 46 c0 25 -2 95 -5 155 -4 84 -3 102 6 79 5 -16 10 -50 10
-74 0 -36 2 -41 12 -28 7 8 26 24 43 34 17 10 66 46 109 81 70 56 82 62 124
62 34 0 57 -7 86 -27z m-2332 -28 c-3 -9 -8 -14 -10 -11 -3 3 -2 9 2 15 9 16
15 13 8 -4z m4234 -42 c-3 -10 -5 -2 -5 17 0 19 2 27 5 18 2 -10 2 -26 0 -35z
m-1676 0 c-10 -17 -10 -16 -11 3 0 23 13 41 18 25 2 -6 -1 -18 -7 -28z m-2294
-15 c-3 -7 -5 -2 -5 12 0 14 2 19 5 13 2 -7 2 -19 0 -25z m30 -80 c-3 -8 -6
-5 -6 6 -1 11 2 17 5 13 3 -3 4 -12 1 -19z m-356 -11 c-10 -9 -11 -8 -5 6 3
10 9 15 12 12 3 -3 0 -11 -7 -18z m388 -52 c0 -5 -6 -1 -14 9 -8 11 -15 24
-15 30 0 5 7 1 15 -10 8 -10 14 -23 14 -29z m-417 -50 c3 -13 1 -22 -3 -19 -5
3 -9 0 -9 -7 0 -7 -2 -10 -5 -7 -6 5 4 58 10 58 1 0 5 -11 7 -25z m2088 -13
c0 -5 16 -20 36 -34 l35 -26 -30 -4 c-18 -3 -31 0 -31 6 0 6 -7 23 -14 39 -8
15 -11 27 -5 27 5 0 9 -4 9 -8z m2143 -37 c-3 -9 -8 -14 -10 -11 -3 3 -2 9 2
15 9 16 15 13 8 -4z m-2043 -55 c0 -5 -9 -6 -20 -3 -11 3 -20 9 -20 13 0 5 9
6 20 3 11 -3 20 -9 20 -13z m2507 -12 c-3 -7 -5 -2 -5 12 0 14 2 19 5 13 2 -7
2 -19 0 -25z m-2182 2 c16 -18 16 -20 2 -20 -10 0 -17 6 -17 14 0 8 -6 17 -12
19 -8 3 -8 6 -2 6 6 1 19 -8 29 -19z m1665 0 c0 -5 -5 -10 -11 -10 -5 0 -7 5
-4 10 3 6 8 10 11 10 2 0 4 -4 4 -10z m-1719 -19 c4 7 11 10 15 6 17 -17 -13
-27 -40 -13 -17 9 -23 16 -14 18 7 3 17 -2 22 -10 7 -12 10 -12 17 -1z m-1748
-135 c102 -56 196 -84 346 -103 191 -24 363 -9 569 47 80 23 166 52 190 65 25
14 46 25 47 25 2 0 5 -11 7 -25 3 -16 -1 -30 -11 -37 -14 -12 -14 -11 -2 5 21
26 11 21 -75 -35 -84 -55 -222 -126 -294 -151 -122 -41 -162 -49 -280 -54
-113 -5 -135 -3 -228 21 -56 15 -126 37 -155 50 -102 45 -214 156 -268 265
-13 25 -25 51 -28 56 -3 6 22 -13 54 -41 33 -28 91 -68 128 -88z m3439 117
c-16 -38 -65 -128 -85 -155 -33 -44 -135 -118 -211 -153 -86 -39 -215 -72
-316 -80 -180 -16 -500 83 -660 204 -30 23 -60 39 -67 37 -7 -3 -13 0 -13 7 0
8 -4 7 -10 -3 -7 -11 -8 -5 -4 20 4 19 7 36 8 37 1 1 55 -18 121 -42 137 -49
217 -67 397 -89 157 -20 260 -20 363 -2 160 28 323 101 416 186 58 52 73 60
61 33z m-1765 -229 c-3 -3 -12 -4 -19 -1 -8 3 -5 6 6 6 11 1 17 -2 13 -5z
m-50 -10 c-3 -3 -12 -4 -19 -1 -8 3 -5 6 6 6 11 1 17 -2 13 -5z m360 -62 c-10
-10 -14 -22 -10 -27 5 -4 2 -5 -4 -1 -7 4 -13 3 -13 -1 0 -5 6 -15 13 -23 10
-12 9 -12 -5 -1 -21 16 -42 5 -33 -18 5 -13 4 -14 -6 -3 -11 10 -5 20 26 52
39 40 63 56 32 22z m-646 -69 c13 -17 13 -17 -6 -3 -11 8 -22 16 -24 17 -2 2
0 3 6 3 6 0 17 -8 24 -17z m624 -3 c3 -5 1 -10 -4 -10 -6 0 -11 5 -11 10 0 6
2 10 4 10 3 0 8 -4 11 -10z m-49 -12 c4 -6 3 -8 -3 -5 -6 4 -18 -2 -28 -13
-10 -11 -22 -20 -27 -20 -7 0 41 48 49 50 1 0 5 -5 9 -12z m-464 -58 c18 -11
28 -20 23 -20 -6 0 -20 7 -32 15 -12 8 -30 12 -40 9 -15 -5 -15 -4 -3 5 19 14
14 14 52 -9z m363 -10 c-3 -5 -14 -10 -23 -10 -15 0 -15 2 -2 10 20 13 33 13
25 0z m-2552 -232 c87 -196 426 -493 695 -608 37 -16 97 -45 133 -64 99 -53
343 -142 502 -182 217 -55 398 -82 677 -101 222 -14 294 -15 555 -5 397 16
627 46 890 117 129 35 374 129 491 188 28 14 75 34 105 45 53 19 114 58 340
217 208 145 309 272 376 470 l24 70 -6 -55 c-7 -71 -47 -191 -85 -257 -63
-110 -209 -233 -463 -393 -234 -146 -561 -293 -791 -355 -72 -19 -144 -40
-161 -45 -110 -33 -405 -67 -715 -82 -354 -16 -614 0 -980 62 -194 32 -341 71
-512 136 -183 69 -600 291 -738 392 -80 59 -236 200 -273 246 -76 97 -120 219
-131 362 l-6 79 24 -90 c13 -49 35 -116 49 -147z m2268 212 c17 0 10 -133 -10
-175 -23 -48 -27 -34 -6 25 8 23 14 66 14 94 l-2 51 -7 -40 -7 -40 -2 36 c0
19 -7 41 -13 48 -11 11 -10 13 5 7 10 -3 23 -6 28 -6z m231 1 c-10 -6 -13 -30
-10 -92 2 -46 7 -93 12 -104 4 -11 0 -8 -8 6 -22 38 -33 178 -15 190 8 5 19 9
24 9 6 0 4 -4 -3 -9z m1743 -30 c-15 -14 -106 -61 -118 -61 -21 0 13 24 65 46
60 26 66 28 53 15z m-135 -60 c0 -5 -27 -22 -59 -38 -32 -16 -57 -24 -55 -19
2 6 24 19 49 29 25 11 45 23 45 28 0 5 5 9 10 9 6 0 10 -4 10 -9z m-3395 -41
c3 -6 -1 -7 -9 -4 -18 7 -21 14 -7 14 6 0 13 -4 16 -10z m40 -20 c3 -5 1 -10
-4 -10 -6 0 -11 5 -11 10 0 6 2 10 4 10 3 0 8 -4 11 -10z m843 -7 c-16 -2 -40
-2 -55 0 -16 2 -3 4 27 4 30 0 43 -2 28 -4z m1655 0 c-18 -2 -48 -2 -65 0 -18
2 -4 4 32 4 36 0 50 -2 33 -4z m-1805 -10 c-10 -2 -26 -2 -35 0 -10 3 -2 5 17
5 19 0 27 -2 18 -5z m1975 0 c-7 -2 -19 -2 -25 0 -7 3 -2 5 12 5 14 0 19 -2
13 -5z m44 1 c-3 -3 -12 -4 -19 -1 -8 3 -5 6 6 6 11 1 17 -2 13 -5z m-2128 -8
c-2 -2 -44 -6 -94 -9 -55 -3 -74 -2 -50 2 42 9 151 14 144 7z m1667 -18 c-13
-13 -36 -36 -50 -53 -20 -23 -25 -26 -26 -12 0 9 5 17 10 17 6 0 24 16 41 35
17 19 35 35 41 35 5 0 -2 -10 -16 -22z m511 16 c-3 -3 -12 -4 -19 -1 -8 3 -5
6 6 6 11 1 17 -2 13 -5z m398 -19 c-22 -14 -47 -25 -55 -24 -8 0 -1 7 17 15
17 7 34 18 38 24 3 5 14 10 23 10 10 0 0 -11 -23 -25z m-262 8 c-7 -2 -19 -2
-25 0 -7 3 -2 5 12 5 14 0 19 -2 13 -5z m-2525 -10 c-10 -2 -28 -2 -40 0 -13
2 -5 4 17 4 22 1 32 -1 23 -4z m2692 -14 c16 -6 6 -6 -28 -3 -29 3 -65 10 -80
14 -18 6 -8 7 28 3 30 -3 66 -10 80 -14z m-2821 -3 c-2 -2 -26 -6 -54 -10 -34
-4 -43 -3 -30 3 19 9 93 15 84 7z m1213 -48 c-19 -16 -36 -27 -39 -24 -3 2 10
18 29 34 18 17 35 28 38 25 3 -2 -10 -18 -28 -35z m-387 2 c10 -11 16 -20 13
-20 -3 0 -13 9 -23 20 -10 11 -16 20 -13 20 3 0 13 -9 23 -20z m-155 -34 c0
-14 -4 -28 -10 -31 -6 -4 -9 4 -7 17 1 14 -3 22 -10 21 -7 -2 -13 2 -13 7 0 6
9 10 20 10 15 0 20 -7 20 -24z m1250 14 c0 -5 -4 -10 -10 -10 -5 0 -10 5 -10
10 0 6 5 10 10 10 6 0 10 -4 10 -10z m182 -9 c-5 -3 -12 -13 -15 -21 -3 -9 -6
-4 -6 12 -1 21 3 26 15 21 9 -3 11 -9 6 -12z m-1629 2 c-7 -2 -21 -2 -30 0
-10 3 -4 5 12 5 17 0 24 -2 18 -5z m80 0 c-7 -2 -19 -2 -25 0 -7 3 -2 5 12 5
14 0 19 -2 13 -5z m1760 0 c-34 -2 -93 -2 -130 0 -37 2 -9 3 62 3 72 0 102 -1
68 -3z m-1930 -10 c-7 -2 -21 -2 -30 0 -10 3 -4 5 12 5 17 0 24 -2 18 -5z
m759 -13 c-23 -19 -122 -45 -145 -37 -6 2 17 9 52 15 36 7 72 19 80 27 8 8 20
15 26 15 5 -1 0 -9 -13 -20z m472 -9 c-2 -3 -12 3 -22 13 -16 17 -16 18 5 5
12 -7 20 -15 17 -18z m-1301 12 c-7 -2 -19 -2 -25 0 -7 3 -2 5 12 5 14 0 19
-2 13 -5z m1527 -23 c-8 -5 -22 -9 -30 -9 -10 0 -8 3 5 9 27 12 43 12 25 0z
m-55 -15 c6 -2 -15 -4 -45 -4 -30 0 -61 3 -68 8 -12 7 90 4 113 -4z m-1108
-27 c-3 -7 -5 -2 -5 12 0 14 2 19 5 13 2 -7 2 -19 0 -25z m1400 0 c-3 -8 -6
-5 -6 6 -1 11 2 17 5 13 3 -3 4 -12 1 -19z m-694 -12 c4 -10 1 -13 -8 -9 -8 3
-12 9 -9 14 7 12 11 11 17 -5z m-1102 -22 c-30 -8 -56 -12 -59 -10 -6 7 57 24
88 24 14 1 1 -6 -29 -14z m437 -26 c19 -22 9 -24 -12 -2 -9 8 -16 23 -15 32 0
14 2 14 6 2 3 -8 12 -23 21 -32z m1775 35 c-7 -2 -19 -2 -25 0 -7 3 -2 5 12 5
14 0 19 -2 13 -5z m-1079 -29 c3 -8 2 -12 -4 -9 -6 3 -10 10 -10 16 0 14 7 11
14 -7z m-74 -4 c0 -5 -5 -10 -11 -10 -5 0 -7 5 -4 10 3 6 8 10 11 10 2 0 4 -4
4 -10z m679 -35 c-20 -31 -45 -48 -104 -73 -5 -3 8 9 31 26 22 16 51 43 65 59
32 41 38 32 8 -12z m-703 3 c4 -6 3 -8 -4 -4 -6 3 -13 2 -17 -4 -3 -5 -12 -10
-18 -10 -7 0 -3 7 7 15 24 18 23 18 32 3z m-56 -37 c-8 -5 -26 -12 -40 -15
l-25 -7 25 15 c14 9 32 15 40 15 13 0 13 -1 0 -8z m301 -39 c-12 -4 -67 24
-76 38 -4 6 14 0 40 -12 25 -12 42 -24 36 -26z m-384 2 c-3 -3 -12 -4 -19 -1
-8 3 -5 6 6 6 11 1 17 -2 13 -5z m-896 -25 c-18 -11 -35 -18 -38 -15 -5 5 46
35 62 36 6 0 -5 -9 -24 -21z m1622 14 c3 -5 -11 -9 -31 -10 -29 -1 -33 0 -17
7 26 11 43 12 48 3z m-790 -10 c-7 -2 -19 -2 -25 0 -7 3 -2 5 12 5 14 0 19 -2
13 -5z m-80 -10 c-13 -2 -35 -2 -50 0 -16 2 -5 4 22 4 28 0 40 -2 28 -4z m640
0 c-7 -2 -19 -2 -25 0 -7 3 -2 5 12 5 14 0 19 -2 13 -5z m1065 -757 c23 -35
42 -69 42 -75 0 -6 -15 -18 -32 -27 -18 -9 -73 -41 -123 -70 -76 -45 -138 -74
-330 -154 -17 -7 -92 -30 -185 -56 -55 -16 -150 -30 -150 -23 0 4 13 10 30 14
16 4 32 11 35 16 3 4 22 16 41 25 19 9 33 19 30 21 -2 2 -12 0 -23 -6 -39 -21
-109 -50 -138 -57 -26 -6 -27 -8 -10 -15 18 -7 17 -8 -5 -8 -14 -1 -32 -6 -40
-11 -12 -7 -17 -2 -25 25 -19 62 -151 182 -249 226 -25 11 -46 22 -46 23 0 2
41 4 91 5 128 2 236 14 514 56 163 25 307 65 452 125 37 16 70 29 73 29 3 0
24 -28 48 -63z m-2559 19 c147 -43 328 -86 501 -119 122 -22 198 -31 453 -52
42 -3 75 -10 71 -15 -3 -5 -15 -9 -28 -9 -12 0 -56 -22 -98 -50 -77 -51 -141
-117 -173 -180 -23 -45 -22 -45 -37 -32 -18 14 -83 32 -138 38 -111 12 -437
120 -510 168 -20 13 -63 37 -96 54 -32 17 -78 44 -102 61 l-42 31 35 70 c19
39 38 70 42 70 3 0 58 -16 122 -35z m-275 -304 c9 -14 247 -143 367 -200 59
-28 148 -64 198 -81 95 -31 305 -80 346 -80 24 0 24 -1 19 -87 -3 -49 -7 -112
-10 -142 l-6 -53 -49 6 c-60 8 -290 65 -304 75 -5 5 -32 14 -60 21 -75 20
-254 99 -404 179 -74 39 -143 73 -153 77 -24 7 -32 42 -26 122 7 93 60 199 82
163z m3001 -47 c28 -63 41 -145 31 -196 -6 -30 -15 -37 -94 -75 -48 -23 -107
-54 -131 -68 -25 -15 -65 -35 -90 -45 -25 -10 -71 -29 -101 -43 -66 -30 -277
-104 -340 -119 -25 -5 -95 -20 -156 -32 l-111 -22 -7 95 c-3 53 -9 117 -12
144 l-7 47 55 0 c126 0 452 101 658 205 93 47 233 135 245 155 15 24 37 6 60
-46z m-1371 -23 c52 -26 134 -111 161 -167 10 -21 24 -89 31 -153 30 -267 36
-333 31 -338 -14 -13 -121 -17 -389 -16 -329 1 -388 4 -388 18 1 93 24 354 35
397 36 143 116 230 250 275 62 20 211 11 269 -16z m-1546 -547 c70 -37 178
-87 240 -111 111 -43 398 -125 484 -138 l43 -7 1 -201 c0 -233 17 -345 66
-442 16 -33 34 -65 40 -72 6 -8 5 -39 -2 -90 -7 -45 -9 -112 -6 -163 9 -113
33 -386 52 -590 30 -324 33 -355 26 -360 -4 -3 -110 -3 -237 0 -228 6 -229 6
-64 8 l167 2 4 27 c5 36 -22 273 -72 638 -22 160 -45 328 -50 375 -14 117 -64
455 -90 599 -6 30 -10 73 -10 95 l0 42 -85 11 c-83 11 -296 79 -435 138 -36
15 -94 38 -129 50 -35 13 -67 29 -71 36 -12 22 -19 219 -9 219 6 0 67 -30 137
-66z m2912 4 c0 -35 -3 -86 -6 -115 -6 -50 -8 -52 -53 -68 -25 -10 -93 -38
-151 -63 -182 -78 -355 -131 -482 -147 -44 -6 -48 -9 -48 -33 0 -26 -13 -106
-45 -272 -15 -78 -59 -394 -95 -680 -11 -91 -29 -226 -40 -300 -11 -74 -24
-184 -30 -245 -6 -60 -15 -134 -21 -163 -15 -74 -10 -80 58 -85 32 -2 -2 -4
-75 -5 -127 -2 -133 -1 -127 17 7 23 12 62 25 199 6 59 15 132 20 162 33 195
60 490 64 685 3 145 6 166 29 220 41 98 60 260 54 461 l-6 170 107 17 c120 19
279 63 392 108 119 48 342 150 380 175 19 13 38 23 43 23 4 1 7 -27 7 -61z
m-1342 -368 c95 -10 178 -38 207 -70 12 -14 16 -41 16 -131 0 -63 -5 -129 -10
-146 -23 -77 -88 -134 -204 -180 -67 -26 -82 -28 -212 -28 l-140 0 -76 37
c-89 44 -158 113 -178 177 -13 46 -13 207 1 258 10 37 39 56 120 77 63 17 337
21 476 6z m-1550 -49 c98 -25 233 -34 345 -24 63 7 87 6 87 -3 0 -6 -24 -34
-53 -62 -56 -53 -129 -95 -206 -118 -48 -14 -159 -18 -223 -8 -42 7 -39 -1
-56 149 -10 87 -8 99 15 91 8 -3 49 -15 91 -25z m2858 2 c-3 -16 -8 -67 -12
-115 -6 -85 -7 -87 -37 -97 -43 -16 -163 -13 -230 4 -86 22 -153 60 -218 124
-70 68 -75 84 -21 68 93 -27 376 -10 467 29 47 21 57 18 51 -13z m-2831 -431
c71 -22 364 -21 417 2 33 14 88 22 88 13 0 -2 -40 -44 -89 -94 -101 -103 -163
-139 -268 -155 -57 -9 -82 -8 -146 6 l-77 17 0 47 c0 26 -5 76 -10 111 -10 71
-6 86 19 75 9 -4 39 -14 66 -22z m2295 -4 c119 -29 306 -24 429 13 23 7 44 10
47 6 3 -3 0 -55 -7 -116 -14 -125 0 -111 -133 -131 -106 -17 -206 10 -306 81
-53 37 -159 148 -160 167 0 13 -2 14 130 -20z m925 -38 c3 -6 -1 -7 -9 -4 -18
7 -21 14 -7 14 6 0 13 -4 16 -10z m45 -42 c0 -6 -6 -5 -15 2 -8 7 -15 14 -15
16 0 2 7 1 15 -2 8 -4 15 -11 15 -16z m-3844 -10 c4 -7 4 -10 -1 -6 -4 4 -14
3 -22 -3 -8 -8 -13 -8 -13 -1 0 6 6 13 13 15 6 3 13 6 14 6 1 1 5 -5 9 -11z
m3824 -8 c0 -5 -2 -10 -4 -10 -3 0 -8 5 -11 10 -3 6 -1 10 4 10 6 0 11 -4 11
-10z m-3944 -92 c-31 -30 -56 -51 -56 -45 0 12 99 111 106 104 3 -2 -20 -29
-50 -59z m4082 -3 c-3 -3 -9 2 -12 12 -6 14 -5 15 5 6 7 -7 10 -15 7 -18z
m107 -141 c35 -70 43 -104 26 -104 -5 0 -12 17 -16 38 -8 46 -57 138 -73 135
-6 -2 -9 3 -6 11 3 7 -2 19 -11 26 -8 7 -15 18 -15 24 1 22 62 -60 95 -130z
m-4245 72 c0 -2 -7 -9 -15 -16 -13 -11 -14 -10 -9 4 5 14 24 23 24 12z m3980
-46 c-5 -22 -8 -27 -9 -13 -1 21 9 56 14 51 2 -2 0 -19 -5 -38z m-4035 -29
c-21 -43 -29 -39 -8 4 9 19 18 33 21 31 2 -2 -4 -18 -13 -35z m-15 -62 c0 -5
-4 -9 -10 -9 -5 0 -10 7 -10 16 0 8 5 12 10 9 6 -3 10 -10 10 -16z m3981 -79
l98 -30 3 -115 c3 -97 1 -115 -12 -115 -51 1 -242 87 -289 131 -12 12 -20 27
-17 35 3 7 8 54 12 102 l7 89 50 -33 c28 -19 95 -47 148 -64z m-3417 -41 l6
-84 -46 -29 c-51 -32 -199 -90 -257 -101 l-38 -7 3 113 3 113 134 47 c73 27
143 54 155 62 19 13 22 13 27 -7 4 -13 9 -60 13 -107z m3755 -531 c-51 -130
-152 -247 -231 -268 -49 -14 -71 -8 -38 10 30 16 109 79 168 134 24 23 59 71
78 109 19 37 36 67 39 67 3 0 -5 -24 -16 -52z m-4168 -172 c35 -32 76 -65 92
-74 15 -9 27 -20 27 -25 0 -8 -19 -4 -66 14 -49 18 -145 124 -187 206 -31 59
-17 58 27 -3 23 -33 72 -86 107 -118z m787 -103 c-10 -2 -26 -2 -35 0 -10 3
-2 5 17 5 19 0 27 -2 18 -5z m2065 0 c-18 -2 -48 -2 -65 0 -18 2 -4 4 32 4 36
0 50 -2 33 -4z"/>
<path d="M3700 8100 c0 -5 5 -10 11 -10 5 0 7 5 4 10 -3 6 -8 10 -11 10 -2 0
-4 -4 -4 -10z"/>
<path d="M2951 7017 c-13 -21 -12 -21 5 -5 10 10 16 20 13 22 -3 3 -11 -5 -18
-17z"/>
<path d="M2876 6954 c-36 -34 -37 -37 -21 -53 17 -15 17 -15 12 1 -3 9 0 19 7
21 16 6 61 67 49 67 -4 0 -25 -17 -47 -36z"/>
<path d="M2812 6898 c-7 -7 -11 -30 -11 -52 2 -34 3 -36 6 -11 2 17 12 36 21
43 10 8 13 15 6 22 -7 7 -14 6 -22 -2z"/>
<path d="M2877 6873 c-4 -3 -7 -11 -7 -17 0 -6 5 -5 12 2 6 6 9 14 7 17 -3 3
-9 2 -12 -2z"/>
<path d="M2839 6674 c-9 -19 -13 -36 -10 -39 7 -4 36 64 29 70 -1 1 -10 -13
-19 -31z"/>
<path d="M6376 7963 c-6 -14 -5 -15 5 -6 7 7 10 15 7 18 -3 3 -9 -2 -12 -12z"/>
<path d="M6347 7903 c3 -7 6 -13 8 -13 2 0 5 6 8 13 3 8 -1 14 -8 14 -7 0 -11
-6 -8 -14z"/>
<path d="M7203 7022 c0 -22 3 -29 8 -20 5 7 9 9 10 3 1 -5 2 -14 4 -20 1 -5 3
-16 3 -24 2 -11 5 -11 17 -1 8 7 15 18 14 24 0 7 -2 6 -6 -1 -2 -7 -9 -13 -14
-13 -4 0 -6 7 -2 16 4 10 0 22 -9 28 -8 6 -17 18 -20 26 -3 8 -6 0 -5 -18z"/>
<path d="M7230 6876 c0 -11 40 -86 45 -86 3 0 -4 19 -16 43 -23 45 -29 54 -29
43z"/>
<path d="M7330 6780 c0 -5 5 -10 10 -10 6 0 10 5 10 10 0 6 -4 10 -10 10 -5 0
-10 -4 -10 -10z"/>
<path d="M7310 6699 c7 -11 14 -19 16 -16 7 7 -7 37 -17 37 -6 0 -5 -9 1 -21z"/>
<path d="M6786 8019 c-23 -27 -15 -35 9 -9 10 11 16 22 14 25 -3 2 -13 -5 -23
-16z"/>
<path d="M6880 7909 c0 -5 5 -7 10 -4 6 3 10 8 10 11 0 2 -4 4 -10 4 -5 0 -10
-5 -10 -11z"/>
<path d="M6660 7850 c0 -5 5 -10 11 -10 5 0 7 5 4 10 -3 6 -8 10 -11 10 -2 0
-4 -4 -4 -10z"/>
<path d="M6895 7800 c-3 -5 -1 -10 4 -10 6 0 11 5 11 10 0 6 -2 10 -4 10 -3 0
-8 -4 -11 -10z"/>
<path d="M6800 7770 c0 -5 5 -10 10 -10 6 0 10 5 10 10 0 6 -4 10 -10 10 -5 0
-10 -4 -10 -10z"/>
<path d="M6900 7718 c0 -49 5 -47 14 5 4 23 3 37 -4 37 -5 0 -10 -19 -10 -42z"/>
<path d="M6536 7735 c-9 -26 -7 -32 5 -12 6 10 9 21 6 23 -2 3 -7 -2 -11 -11z"/>
<path d="M6882 7730 c0 -14 2 -19 5 -12 2 6 2 18 0 25 -3 6 -5 1 -5 -13z"/>
<path d="M6517 7675 c3 -8 9 -12 14 -9 12 7 11 11 -5 17 -10 4 -13 1 -9 -8z"/>
<path d="M6641 7664 c0 -11 3 -14 6 -6 3 7 2 16 -1 19 -3 4 -6 -2 -5 -13z"/>
<path d="M6883 7635 c0 -22 2 -30 4 -17 2 12 2 30 0 40 -3 9 -5 -1 -4 -23z"/>
<path d="M6912 7630 c0 -19 2 -27 5 -17 2 9 2 25 0 35 -3 9 -5 1 -5 -18z"/>
<path d="M6913 7545 c-6 -14 -8 -25 -4 -25 8 0 31 -95 31 -128 0 -12 4 -22 9
-22 12 0 21 26 20 53 -1 20 -2 20 -9 -3 -6 -19 -8 -9 -9 38 -1 51 -4 62 -18
62 -13 0 -14 3 -5 12 13 13 16 38 5 38 -5 0 -13 -11 -20 -25z"/>
<path d="M6684 7482 c23 -26 22 -26 30 -6 3 9 2 12 -5 9 -5 -4 -18 -1 -27 6
-13 11 -12 8 2 -9z"/>
<path d="M6758 7433 c6 -2 10 -8 8 -12 -3 -4 4 -7 15 -7 19 0 19 1 3 13 -10 7
-23 13 -28 12 -6 0 -5 -3 2 -6z"/>
<path d="M6869 7343 c-13 -15 -12 -15 9 -4 23 12 28 21 13 21 -5 0 -15 -7 -22
-17z"/>
<path d="M6925 7350 c-3 -5 -1 -10 4 -10 6 0 11 5 11 10 0 6 -2 10 -4 10 -3 0
-8 -4 -11 -10z"/>
<path d="M3311 8062 c5 -15 20 -34 32 -44 18 -14 19 -18 7 -32 -11 -14 -10
-20 11 -39 l24 -22 -23 -3 c-18 -3 -22 -10 -22 -43 0 -46 15 -52 24 -9 4 24
11 30 31 30 14 0 25 -4 25 -10 0 -5 6 -10 14 -10 8 0 17 -7 20 -16 3 -8 11
-12 17 -8 9 5 7 11 -4 19 -10 7 -17 15 -17 19 0 11 28 6 33 -6 2 -7 7 -10 11
-7 4 4 -38 52 -93 108 -69 69 -97 92 -90 73z m79 -92 c0 -5 -4 -10 -10 -10 -5
0 -10 5 -10 10 0 6 5 10 10 10 6 0 10 -4 10 -10z"/>
<path d="M3310 8010 c0 -5 5 -10 10 -10 6 0 10 5 10 10 0 6 -4 10 -10 10 -5 0
-10 -4 -10 -10z"/>
<path d="M3280 7920 c0 -22 -4 -40 -10 -40 -5 0 -10 -9 -10 -20 0 -11 6 -20
14 -20 14 0 36 85 28 108 -9 27 -22 10 -22 -28z"/>
<path d="M3250 7776 c0 -8 4 -17 9 -20 5 -4 7 3 4 14 -6 23 -13 26 -13 6z"/>
<path d="M3602 7725 c0 -16 2 -22 5 -12 2 9 2 23 0 30 -3 6 -5 -1 -5 -18z"/>
<path d="M3243 7645 c0 -22 2 -30 4 -17 2 12 2 30 0 40 -3 9 -5 -1 -4 -23z"/>
<path d="M3317 7673 c-6 -10 1 -134 8 -141 3 -3 5 29 5 71 0 73 -3 87 -13 70z"/>
<path d="M3241 7590 c0 -8 6 -40 13 -70 12 -52 13 -53 18 -23 2 18 2 30 -1 27
-3 -3 -11 14 -17 38 -7 24 -12 36 -13 28z"/>
<path d="M3360 7505 c0 -9 6 -12 15 -9 8 4 15 10 15 15 0 5 -7 9 -15 9 -8 0
-15 -7 -15 -15z"/>
<path d="M3221 7454 c0 -11 3 -14 6 -6 3 7 2 16 -1 19 -3 4 -6 -2 -5 -13z"/>
<path d="M3400 7420 c0 -5 5 -10 11 -10 5 0 7 5 4 10 -3 6 -8 10 -11 10 -2 0
-4 -4 -4 -10z"/>
<path d="M3375 7390 c-3 -6 1 -7 9 -4 18 7 21 14 7 14 -6 0 -13 -4 -16 -10z"/>
<path d="M3205 7300 c-3 -5 -1 -10 4 -10 6 0 11 5 11 10 0 6 -2 10 -4 10 -3 0
-8 -4 -11 -10z"/>
<path d="M4890 5596 c0 -8 11 -16 25 -18 14 -3 25 -2 25 2 0 4 -11 12 -25 18
-20 9 -25 9 -25 -2z"/>
<path d="M4750 2951 c13 -26 17 -28 70 -35 l45 -7 -58 31 c-69 35 -71 36 -57
11z"/>
<path d="M4800 2900 c0 -5 5 -10 10 -10 6 0 10 5 10 10 0 6 -4 10 -10 10 -5 0
-10 -4 -10 -10z"/>
<path d="M5294 2903 c15 -4 16 -7 5 -14 -10 -6 -6 -9 14 -9 38 0 30 24 -9 27
-17 1 -21 -1 -10 -4z"/>
<path d="M5176 2885 c4 -8 11 -15 18 -16 6 0 2 -4 -9 -9 -16 -7 -17 -9 -3 -9
9 -1 23 5 31 13 7 8 25 17 38 19 13 3 5 5 -18 4 -23 -1 -39 1 -37 5 3 5 -2 8
-10 8 -10 0 -13 -6 -10 -15z"/>
<path d="M4998 2883 c7 -3 16 -2 19 1 4 3 -2 6 -13 5 -11 0 -14 -3 -6 -6z"/>
<path d="M5243 2863 c9 -2 23 -2 30 0 6 3 -1 5 -18 5 -16 0 -22 -2 -12 -5z"/>
<path d="M27 103 c-25 -4 -27 -8 -27 -54 0 -48 1 -49 30 -49 30 0 30 1 30 55
0 30 -1 54 -2 54 -2 -1 -15 -4 -31 -6z"/>
</g>
</svg>
