<?xml version="1.0" standalone="no"?>
<!DOCTYPE svg PUBLIC "-//W3C//DTD SVG 20010904//EN"
 "http://www.w3.org/TR/2001/REC-SVG-20010904/DTD/svg10.dtd">
<svg version="1.0" xmlns="http://www.w3.org/2000/svg"
 width="1024.000000pt" height="1024.000000pt" viewBox="0 0 1024.000000 1024.000000"
 preserveAspectRatio="xMidYMid meet">
<metadata>
Created by potrace 1.16, written by Peter Selinger 2001-2019
</metadata>
<g transform="translate(0.000000,1024.000000) scale(0.100000,-0.100000)"
fill="#000000" stroke="none">
<path d="M4540 8819 c-388 -42 -1022 -213 -1192 -320 -50 -32 -116 -113 -138
-167 -13 -33 -10 -241 6 -477 l6 -90 -31 -14 c-37 -15 -92 -69 -129 -124 -21
-31 -27 -56 -33 -130 -5 -70 -16 -118 -47 -202 -68 -187 -119 -337 -142 -420
-29 -106 -187 -605 -246 -775 -25 -74 -54 -162 -64 -195 -10 -33 -47 -154 -83
-270 -36 -115 -93 -311 -126 -435 -33 -124 -81 -299 -106 -390 -25 -91 -59
-212 -75 -270 -68 -245 -189 -737 -256 -1038 -3 -18 -9 -22 -24 -17 -30 9 -56
-2 -68 -31 -36 -78 17 -268 96 -341 14 -13 48 -30 76 -38 73 -22 355 -42 771
-55 198 -6 479 -15 625 -20 146 -6 315 -10 375 -10 l110 0 0 -539 0 -539 -110
-36 c-60 -19 -157 -48 -215 -65 -383 -106 -496 -151 -625 -248 -223 -168 -347
-389 -362 -643 -11 -188 22 -297 122 -407 61 -68 128 -114 195 -136 107 -35
196 -38 1187 -38 538 0 1298 0 1688 0 1182 -1 1446 0 1536 5 101 6 204 28 260
57 162 82 251 310 220 560 -19 144 -57 238 -162 394 -112 167 -214 249 -395
316 -96 35 -305 96 -514 148 -107 27 -214 54 -237 60 l-43 12 0 548 0 548 318
7 c391 8 732 21 1052 41 135 8 317 19 405 25 222 13 274 32 318 113 18 35 22
58 22 132 -1 78 -5 97 -28 142 -14 28 -35 54 -46 58 -23 7 -27 19 -51 165 -31
189 -125 631 -180 845 -28 110 -62 245 -76 300 -14 54 -34 131 -45 170 -107
367 -229 756 -354 1125 -41 124 -102 317 -135 430 -79 273 -72 252 -119 364
-31 72 -45 120 -51 180 -25 238 -55 377 -99 463 -48 95 -99 145 -185 181 -42
18 -82 32 -90 32 -22 0 -28 17 -16 41 18 32 82 499 75 539 -9 50 -53 126 -92
161 -43 37 -118 75 -185 94 -29 8 -116 33 -193 55 -143 42 -360 96 -495 124
-239 49 -234 48 -890 51 -344 2 -663 -1 -710 -6z m1015 -180 c2 -3 -2 -61 -10
-129 -8 -69 -22 -210 -30 -315 -8 -104 -22 -282 -31 -395 -20 -254 -15 -383
21 -500 29 -95 95 -347 95 -362 0 -5 -3 -7 -7 -5 -7 4 -202 -13 -312 -28 -24
-3 -50 -12 -58 -20 -12 -12 -11 -15 9 -20 13 -2 48 -6 78 -8 30 -2 -124 -4
-343 -5 -375 -2 -398 -1 -393 16 2 9 10 53 16 97 24 170 43 265 78 395 37 135
37 136 35 320 -3 375 -26 798 -49 927 -6 30 -4 32 28 36 41 6 867 2 873 -4z
m-1055 -11 c0 -7 9 -197 20 -423 25 -524 25 -687 0 -780 -58 -212 -102 -398
-120 -502 -11 -65 -20 -118 -20 -118 -38 0 -113 -8 -135 -15 -16 -5 -64 -14
-105 -20 -119 -18 -238 -50 -321 -85 -84 -35 -198 -112 -228 -153 -11 -15 -21
-25 -24 -22 -3 3 -12 84 -21 180 -9 96 -23 216 -31 265 -8 50 -21 151 -30 225
-9 74 -27 200 -40 280 -58 346 -99 806 -75 849 5 11 27 25 47 32 21 6 49 19
63 29 92 62 618 208 930 259 79 13 90 12 90 -1z m1715 -74 c123 -29 477 -129
513 -144 16 -7 22 -16 18 -28 -3 -9 -7 -28 -10 -42 -3 -14 -14 -72 -26 -130
-11 -58 -27 -145 -36 -195 -8 -49 -19 -110 -23 -135 -5 -25 -19 -103 -31 -175
-12 -71 -23 -132 -26 -136 -2 -4 -22 -114 -44 -245 -22 -132 -45 -264 -51
-294 -42 -222 -50 -270 -52 -309 -1 -30 2 -46 12 -49 9 -3 11 0 6 8 -6 9 -4
11 4 5 9 -5 10 -10 2 -18 -7 -7 -14 -7 -23 0 -39 30 -232 86 -405 118 -51 9
-93 21 -93 26 0 5 3 8 8 8 28 -5 26 13 -19 169 -112 384 -124 494 -115 1008 6
365 14 478 43 570 l15 50 112 -17 c61 -10 161 -30 221 -45z m572 -170 c-3 -3
-12 -4 -19 -1 -8 3 -5 6 6 6 11 1 17 -2 13 -5z m73 -34 c8 -5 11 -10 5 -10 -5
0 -17 5 -25 10 -8 5 -10 10 -5 10 6 0 17 -5 25 -10z m-5 -267 c-4 -35 -9 -63
-11 -60 -2 2 -1 37 2 78 4 41 9 68 12 61 2 -8 1 -43 -3 -79z m-18 -130 c-3
-10 -5 -4 -5 12 0 17 2 24 5 18 2 -7 2 -21 0 -30z m-10 -70 c-3 -10 -5 -4 -5
12 0 17 2 24 5 18 2 -7 2 -21 0 -30z m-10 -70 c-3 -10 -5 -2 -5 17 0 19 2 27
5 18 2 -10 2 -26 0 -35z m-10 -45 c-3 -8 -6 -5 -6 6 -1 11 2 17 5 13 3 -3 4
-12 1 -19z m-20 -130 c-3 -8 -6 -5 -6 6 -1 11 2 17 5 13 3 -3 4 -12 1 -19z
m-10 -80 c-3 -8 -6 -5 -6 6 -1 11 2 17 5 13 3 -3 4 -12 1 -19z m-10 -70 c-3
-7 -5 -2 -5 12 0 14 2 19 5 13 2 -7 2 -19 0 -25z m-12 -88 c-4 -34 -9 -59 -12
-57 -2 3 -1 33 3 66 4 34 9 60 11 57 3 -3 2 -32 -2 -66z m-3500 -102 c13 -28
22 -55 19 -60 -3 -4 -41 -8 -86 -8 -72 0 -79 2 -73 18 4 9 14 36 22 60 14 40
17 42 54 42 38 0 41 -2 64 -52z m3705 48 c0 -3 -4 -8 -10 -11 -5 -3 -10 -1
-10 4 0 6 5 11 10 11 6 0 10 -2 10 -4z m210 -110 c0 -5 -6 -3 -14 3 -8 7 -29
9 -53 5 -45 -7 -54 5 -43 61 4 26 10 31 45 35 l40 5 12 -50 c7 -27 12 -54 13
-59z m-433 47 c-3 -10 -5 -2 -5 17 0 19 2 27 5 18 2 -10 2 -26 0 -35z m-10
-55 c-3 -7 -5 -2 -5 12 0 14 2 19 5 13 2 -7 2 -19 0 -25z m230 16 c-3 -3 -12
-4 -19 -1 -8 3 -5 6 6 6 11 1 17 -2 13 -5z m-240 -76 c-3 -7 -5 -2 -5 12 0 14
2 19 5 13 2 -7 2 -19 0 -25z m-10 -60 c-3 -8 -6 -5 -6 6 -1 11 2 17 5 13 3 -3
4 -12 1 -19z m-12 -83 c-4 -25 -9 -44 -12 -41 -2 2 -1 25 2 51 4 25 9 44 12
41 2 -2 1 -25 -2 -51z m-148 23 c-3 -8 -6 -5 -6 6 -1 11 2 17 5 13 3 -3 4 -12
1 -19z m-750 -10 c-3 -8 -6 -5 -6 6 -1 11 2 17 5 13 3 -3 4 -12 1 -19z m-2549
-18 c-21 -13 -48 -66 -48 -96 0 -18 8 -25 38 -33 20 -6 47 -11 59 -11 12 0 24
-8 26 -17 3 -10 6 11 7 47 l3 65 7 -65 c4 -36 10 -84 14 -107 l8 -43 -210 0
-211 0 24 58 c13 31 38 92 56 135 l33 77 106 0 c73 -1 100 -4 88 -10z m3890 3
c-27 -2 -69 -2 -95 0 -27 2 -5 3 47 3 52 0 74 -1 48 -3z m97 -23 c-3 -14 2
-46 11 -70 26 -73 33 -100 25 -100 -10 0 -40 88 -50 146 -6 40 -5 51 6 51 10
0 12 -8 8 -27z m-558 -87 c-3 -10 -5 -2 -5 17 0 19 2 27 5 18 2 -10 2 -26 0
-35z m487 15 c8 -13 17 -34 21 -48 10 -32 52 -76 87 -91 15 -6 28 -15 28 -20
0 -5 -102 -8 -227 -8 -158 1 -213 4 -178 10 76 12 90 24 110 90 20 65 28 75
65 82 58 10 80 7 94 -15z m-497 -70 c-3 -8 -6 -5 -6 6 -1 11 2 17 5 13 3 -3 4
-12 1 -19z m-754 -45 c-7 -2 -21 -2 -30 0 -10 3 -4 5 12 5 17 0 24 -2 18 -5z
m744 -35 c-3 -8 -6 -5 -6 6 -1 11 2 17 5 13 3 -3 4 -12 1 -19z m-597 -172
c137 -35 302 -86 318 -99 7 -6 12 -35 12 -80 0 -78 5 -85 13 -18 2 24 11 48
18 53 11 8 10 9 -3 4 -12 -3 -18 0 -18 10 0 11 4 12 19 5 32 -18 112 -81 137
-109 26 -30 32 -51 9 -32 -10 9 -15 9 -15 1 0 -6 5 -12 10 -12 6 -1 14 -2 20
-3 18 -2 40 -44 41 -78 1 -18 -2 -126 -6 -239 l-8 -206 -76 80 c-42 44 -75 84
-73 89 1 5 -2 7 -7 4 -5 -4 -22 4 -38 17 -76 63 -310 159 -468 193 -135 30
-1024 45 -1378 24 -288 -17 -422 -41 -577 -104 -82 -33 -225 -134 -300 -210
-35 -36 -68 -66 -72 -66 -4 0 -8 35 -8 79 0 43 -5 135 -10 205 l-11 127 37 69
c36 70 53 86 55 53 0 -10 7 1 16 24 18 53 96 122 177 158 102 45 193 65 416
89 19 2 402 3 850 1 l815 -2 105 -27z m506 3 c3 -6 -5 -3 -20 6 -14 10 -26 19
-26 22 0 7 39 -17 46 -28z m74 -55 c0 -3 -13 4 -30 16 -16 12 -30 24 -30 26 0
3 14 -4 30 -16 17 -12 30 -24 30 -26z m-3366 8 c-8 -5 -7 -32 2 -97 20 -129
47 -221 65 -217 11 3 12 1 1 -10 -14 -14 -315 -21 -472 -11 l-76 5 53 157 c30
86 56 162 58 169 3 9 51 12 192 12 103 0 183 -4 177 -8z m101 -4 c8 -28 12
-160 4 -146 -5 9 -10 45 -11 81 l-2 65 -28 -5 c-16 -2 -28 0 -28 6 0 15 60 14
65 -1z m3999 4 c2 -4 19 -75 36 -157 17 -83 33 -158 36 -167 5 -17 -13 -18
-288 -17 -180 0 -285 4 -271 9 25 10 32 33 63 200 11 63 23 121 25 128 3 9 52
12 199 12 107 0 197 -4 200 -8z m-4067 -74 c-3 -8 -6 -5 -6 6 -1 11 2 17 5 13
3 -3 4 -12 1 -19z m91 -188 l0 -35 -8 30 c-4 17 -8 41 -8 55 -1 23 0 23 8 5 5
-11 8 -36 8 -55z m3437 -69 c-6 -5 -25 10 -25 20 0 5 6 4 14 -3 8 -7 12 -15
11 -17z m-3907 -217 c142 9 178 9 300 1 72 -5 102 -4 102 4 0 7 20 11 50 11
l50 0 0 -37 c0 -21 2 -69 5 -108 3 -48 2 -62 -4 -45 -5 14 -9 42 -10 62 -1 53
-10 71 -27 57 -15 -12 -19 -6 -27 41 -3 14 -3 -20 -1 -75 2 -55 7 -198 10
-317 l6 -218 27 -1 c20 -1 18 -3 -11 -8 -52 -11 -113 -54 -126 -90 -38 -100
-33 -93 -65 -87 -16 3 -186 6 -377 6 l-347 0 19 58 c10 31 34 116 52 187 l33
130 74 7 c41 4 130 9 199 12 211 10 240 14 265 30 46 30 25 112 -33 134 -15 6
-119 13 -231 16 -113 4 -206 8 -207 9 -3 3 64 216 72 228 2 4 24 2 49 -3 25
-5 94 -7 153 -4z m2801 -10 c23 -26 81 -56 226 -115 153 -63 405 -256 405
-311 l-1 -23 -15 25 c-33 53 -195 141 -293 160 -172 32 -350 -6 -516 -111 -60
-38 -69 -41 -111 -34 -41 6 -48 4 -70 -22 -27 -31 -54 -103 -54 -142 0 -66
112 -160 201 -169 41 -4 61 3 180 61 74 35 151 70 172 77 65 21 151 8 265 -38
88 -36 112 -42 175 -42 39 1 95 7 122 14 37 10 52 10 57 2 11 -16 8 -120 -6
-196 -11 -64 -11 -65 -46 -68 -19 -2 -37 -7 -40 -12 -3 -5 -29 6 -58 24 -84
54 -175 78 -289 78 -146 1 -261 -42 -413 -153 -64 -46 -74 -50 -136 -53 -80
-5 -108 -23 -143 -91 -21 -40 -25 -62 -26 -139 0 -122 27 -236 67 -281 25 -29
33 -33 49 -25 40 22 18 -10 -34 -49 -72 -55 -137 -82 -216 -90 -138 -13 -253
17 -356 94 -33 25 -74 48 -91 51 -39 7 -87 -16 -111 -53 -23 -35 -25 -155 -3
-198 25 -50 144 -141 214 -165 82 -27 216 -50 293 -50 215 0 454 135 497 281
20 67 21 62 -9 120 -21 43 -25 67 -29 172 -5 132 -13 190 -27 181 -5 -3 -9 0
-9 5 0 6 21 11 48 11 36 0 57 6 83 26 51 39 155 84 231 100 59 12 77 12 140
-1 40 -8 100 -26 133 -40 70 -29 128 -31 185 -9 23 9 44 14 47 10 10 -9 -42
-258 -74 -356 -28 -88 -142 -296 -202 -370 -20 -25 -45 -56 -55 -70 -41 -53
-495 -495 -561 -546 -115 -88 -198 -158 -202 -170 -2 -6 10 -17 27 -24 16 -7
30 -16 30 -21 0 -12 -501 -11 -520 1 -8 5 -10 10 -5 11 6 0 -48 16 -119 35
-132 34 -305 115 -404 187 -66 48 -190 155 -206 178 -7 11 -36 43 -63 72 -27
29 -65 80 -83 115 -37 66 -69 82 -90 43 -13 -25 -13 -34 0 -26 6 4 10 3 9 -2
-3 -20 2 -34 11 -28 6 3 7 17 4 30 -3 12 -1 26 4 29 15 9 23 -23 11 -46 -6
-11 -8 -22 -5 -26 3 -3 6 0 6 7 0 7 5 9 10 6 7 -4 6 -14 -1 -28 -9 -18 -9 -20
2 -10 10 10 16 9 31 -4 13 -12 18 -12 18 -3 0 7 12 -5 26 -26 15 -21 30 -40
35 -42 4 -2 6 -16 3 -31 -5 -22 -1 -32 17 -45 13 -9 19 -16 13 -16 -5 0 -15 5
-22 12 -7 7 -12 8 -12 2 0 -17 48 -54 63 -49 17 7 31 -21 15 -31 -5 -4 -40 23
-77 60 -55 55 -63 68 -51 77 13 9 12 10 -3 5 -18 -6 -46 29 -130 158 -52 81
-55 88 -86 208 -30 115 -90 505 -110 708 -13 134 -31 451 -31 553 0 91 26 221
43 210 6 -4 8 0 4 10 -3 9 -2 27 4 39 8 21 9 20 4 -5 -8 -40 4 -30 75 63 101
129 220 208 366 240 49 10 103 23 119 28 17 6 50 15 75 23 64 18 125 46 140
64 11 13 84 15 624 15 l612 0 23 -26z m1598 12 c-13 -10 -16 -21 -11 -41 5
-19 10 -23 17 -16 14 14 27 14 27 0 0 -5 -4 -8 -9 -4 -5 3 -12 -3 -16 -14 -4
-12 -19 -21 -46 -25 -54 -9 -112 -39 -138 -72 -35 -45 -44 -100 -32 -197 2
-17 79 -86 117 -105 43 -22 243 -75 329 -87 88 -13 90 -16 114 -102 22 -83 29
-140 11 -95 l-9 22 -314 0 -313 0 -12 33 c-22 60 -64 100 -113 106 l-44 6 3
100 c3 97 8 156 33 393 l12 112 206 0 c176 -1 203 -3 188 -14z m213 -5 c5 -11
10 -28 9 -38 0 -12 -5 -7 -12 12 -11 28 -15 30 -54 27 -26 -2 -43 1 -43 7 0 6
20 11 45 11 34 0 47 -5 55 -19z m17 -83 c-3 -8 -6 -5 -6 6 -1 11 2 17 5 13 3
-3 4 -12 1 -19z m53 -136 c0 -3 -69 -2 -152 2 -84 4 -176 3 -204 -2 -39 -7
-51 -6 -51 4 0 7 3 11 7 9 12 -8 322 15 341 25 10 6 19 16 19 23 0 8 -4 7 -10
-3 -5 -8 -12 -11 -16 -7 -4 4 -2 13 4 19 7 7 12 21 12 33 1 16 50 -86 50 -103z
m-1264 -4 l19 -23 -25 20 c-14 11 -27 21 -29 22 -2 2 0 3 6 3 5 0 18 -10 29
-22z m823 -32 c-16 -28 -20 -47 -16 -81 4 -43 -5 -61 -16 -31 -11 27 1 83 24
119 31 46 36 41 8 -7z m-3722 2 c-3 -7 -5 -2 -5 12 0 14 2 19 5 13 2 -7 2 -19
0 -25z m3003 -60 c0 -5 -11 2 -25 16 -14 14 -25 28 -25 32 0 4 11 -3 25 -16
14 -13 25 -27 25 -32z m-2990 -164 c0 -91 -3 -163 -7 -161 -8 5 -5 327 2 327
3 0 5 -75 5 -166z m270 146 c0 -5 -4 -10 -10 -10 -5 0 -10 5 -10 10 0 6 5 10
10 10 6 0 10 -4 10 -10z m2735 -10 c3 -5 1 -10 -4 -10 -6 0 -11 5 -11 10 0 6
2 10 4 10 3 0 8 -4 11 -10z m-2743 -42 c-7 -7 -12 -8 -12 -2 0 14 12 26 19 19
2 -3 -1 -11 -7 -17z m3976 -169 c-3 -20 -5 -19 -9 9 -3 20 -2 29 4 23 5 -5 7
-19 5 -32z m-2371 -1 c-3 -8 -6 -5 -6 6 -1 11 2 17 5 13 3 -3 4 -12 1 -19z
m348 -28 c-3 -5 -12 -10 -18 -10 -7 0 -6 4 3 10 19 12 23 12 15 0z m1115 -29
c0 -5 12 -10 28 -11 56 -2 70 -4 66 -12 -3 -4 3 -8 14 -8 23 0 90 -56 79 -66
-4 -4 -7 -2 -7 4 0 23 -140 84 -162 71 -22 -15 -37 -10 -35 11 1 19 17 29 17
11z m-1204 -38 c-10 -10 -19 5 -10 18 6 11 8 11 12 0 2 -7 1 -15 -2 -18z
m-145 0 c13 -17 13 -17 -6 -3 -11 8 -22 16 -24 17 -2 2 0 3 6 3 6 0 17 -8 24
-17z m68 -22 c9 -6 5 -8 -13 -8 -15 0 -29 3 -32 8 -7 11 27 11 45 0z m2230
-51 c0 -9 -4 -8 -9 5 -5 11 -9 27 -9 35 0 9 4 8 9 -5 5 -11 9 -27 9 -35z m-22
-37 c-3 -10 -5 -2 -5 17 0 19 2 27 5 18 2 -10 2 -26 0 -35z m30 -15 c-3 -7 -5
-2 -5 12 0 14 2 19 5 13 2 -7 2 -19 0 -25z m12 -24 c2 -2 -167 -4 -377 -4
-209 0 -383 3 -386 8 -4 7 755 4 763 -4z m-4345 -188 c-3 -8 1 -20 9 -27 12
-12 10 -16 -15 -32 -29 -17 -30 -17 -66 4 -49 30 -31 12 51 -50 40 -30 67 -45
67 -36 0 7 -8 16 -19 20 -10 3 -27 15 -37 27 -19 20 -19 21 3 14 12 -4 24 -2
28 3 4 7 -1 9 -12 5 -17 -5 -17 -5 0 6 24 15 31 7 17 -19 -7 -14 -7 -21 0 -21
5 0 10 6 11 13 0 10 38 -107 39 -123 0 -3 -39 -3 -87 -1 l-88 3 25 -28 25 -29
-32 29 c-29 26 -91 138 -107 193 -6 19 -2 22 46 28 28 4 68 13 87 21 47 17 62
17 55 0z m3606 -45 c0 -25 -39 -153 -51 -167 -16 -20 -199 8 -199 30 0 23 75
83 164 130 59 31 86 33 86 7z m-3970 -19 c0 -29 27 -138 41 -160 5 -10 22 -48
38 -85 16 -40 50 -94 81 -130 l53 -62 -48 45 c-72 67 -76 70 -82 70 -15 0 8
-81 33 -116 32 -44 153 -154 187 -169 12 -5 24 -13 27 -17 3 -4 26 -16 52 -28
67 -29 69 -47 5 -54 -29 -3 -296 -9 -594 -12 l-543 -6 0 -28 c0 -25 4 -29 33
-33 25 -3 22 -4 -14 -5 -26 -1 -61 -5 -79 -9 -30 -6 -33 -4 -26 13 5 10 16 53
26 94 10 41 29 116 43 165 14 50 31 108 36 130 l10 40 360 -3 359 -2 21 26
c35 45 25 116 -20 139 -23 12 -88 15 -353 15 l-325 0 13 33 c7 17 21 64 30
102 l17 70 309 0 310 1 0 -24z m4789 -1 c-14 -19 -21 -43 -21 -75 0 -39 -3
-46 -19 -46 -11 0 -17 -4 -14 -10 3 -5 1 -10 -4 -10 -6 0 -11 -4 -11 -9 0 -5
9 -7 21 -4 11 3 31 0 44 -7 13 -7 33 -10 44 -7 12 3 21 1 21 -4 0 -5 -130 -9
-305 -9 l-306 0 -24 -25 c-28 -27 -30 -26 -13 10 6 14 17 25 23 25 7 0 20 9
30 20 10 11 21 17 26 14 11 -6 32 72 33 123 l1 43 248 0 248 0 -22 -29z
m-2345 -66 c-4 -8 -8 -15 -10 -15 -2 0 -4 7 -4 15 0 8 4 15 10 15 5 0 7 -7 4
-15z m1436 -135 c-12 -16 -26 -30 -33 -30 -6 0 2 14 18 30 16 17 30 30 33 30
2 0 -6 -13 -18 -30z m231 -16 c-5 -16 -10 -21 -10 -12 -1 18 10 51 15 45 2 -1
-1 -16 -5 -33z m-3664 -16 c-3 -8 -6 -5 -6 6 -1 11 2 17 5 13 3 -3 4 -12 1
-19z m3020 -20 c-3 -7 -5 -2 -5 12 0 14 2 19 5 13 2 -7 2 -19 0 -25z m343 2
c-8 -5 -22 -9 -30 -9 -10 0 -8 3 5 9 27 12 43 12 25 0z m409 -92 c21 -16 47
-18 305 -19 154 0 290 -4 301 -9 17 -7 16 -9 -10 -9 -16 -1 -25 -5 -20 -9 6
-4 11 -19 13 -34 6 -61 63 -223 87 -248 14 -15 25 -29 25 -34 0 -9 -1126 -1
-1162 9 -38 10 -35 23 8 31 52 10 178 96 261 178 55 55 81 92 115 161 l43 89
6 -44 c4 -28 14 -50 28 -62z m-762 15 c-3 -10 -5 -2 -5 17 0 19 2 27 5 18 2
-10 2 -26 0 -35z m-10 -70 c-3 -10 -5 -4 -5 12 0 17 2 24 5 18 2 -7 2 -21 0
-30z m1450 21 c-3 -3 -12 -4 -19 -1 -8 3 -5 6 6 6 11 1 17 -2 13 -5z m30 -46
c-3 -8 -6 -5 -6 6 -1 11 2 17 5 13 3 -3 4 -12 1 -19z m-4673 -37 c-2 -3 -12 3
-22 13 -16 17 -16 18 5 5 12 -7 20 -15 17 -18z m224 -63 c7 -7 11 -23 11 -37
-1 -25 -2 -25 -8 3 -3 16 -12 31 -20 34 -8 3 -11 0 -7 -7 8 -13 4 -14 -18 -5
-9 3 -16 10 -16 15 0 13 44 11 58 -3z m1979 6 c-3 -3 -12 -4 -19 -1 -8 3 -5 6
6 6 11 1 17 -2 13 -5z m2511 -64 c0 -9 -3 -7 -8 5 -5 11 -8 29 -8 40 0 16 2
15 8 -5 4 -14 8 -32 8 -40z m-4471 -52 c-3 -7 -5 -2 -5 12 0 14 2 19 5 13 2
-7 2 -19 0 -25z m4480 0 c-3 -7 -5 -2 -5 12 0 14 2 19 5 13 2 -7 2 -19 0 -25z
m-1593 -62 c-10 -42 -19 -74 -21 -72 -3 2 3 39 12 81 10 42 19 74 21 72 3 -2
-3 -39 -12 -81z m1573 -102 c-3 -3 -12 -4 -19 -1 -8 3 -5 6 6 6 11 1 17 -2 13
-5z m-1614 -49 c-3 -9 -8 -14 -10 -11 -3 3 -2 9 2 15 9 16 15 13 8 -4z m-22
-66 c-5 -13 -10 -19 -10 -12 -1 15 10 45 15 40 3 -2 0 -15 -5 -28z m-33 -80
c-6 -16 -12 -28 -14 -26 -5 5 13 57 20 57 3 0 0 -14 -6 -31z m-3347 -39 l588
0 7 -60 c4 -33 11 -60 16 -60 15 0 68 -40 68 -51 0 -5 -10 -1 -22 11 -12 11
-27 20 -32 21 -6 0 -319 0 -696 -1 -443 0 -696 -4 -718 -11 -63 -21 -73 -99
-18 -154 l33 -35 94 0 c66 0 90 3 79 10 -10 7 196 10 632 8 355 -2 644 0 641
5 -2 4 6 6 18 4 13 -2 25 -9 27 -15 2 -7 8 -10 13 -6 23 14 5 -36 -33 -90 -28
-40 -45 -76 -49 -106 l-6 -45 -2 47 c0 26 3 49 8 52 5 3 11 15 14 27 4 16 3
19 -6 10 -14 -14 -30 -15 -22 -1 3 6 2 10 -3 10 -5 0 -12 10 -15 22 -4 12 -9
19 -12 16 -4 -3 -2 -16 5 -27 6 -12 8 -26 5 -31 -4 -6 -98 -10 -241 -10 l-234
0 0 -57 c0 -32 -3 -69 -7 -81 l-6 -24 -361 7 c-433 8 -703 19 -712 28 -11 11
46 290 91 442 l41 140 54 6 c30 4 82 5 114 3 32 -2 324 -4 647 -4z m5053 -33
c-3 -16 -12 -40 -20 -55 -12 -23 -12 -28 1 -38 11 -8 -181 -11 -708 -13 -820
-2 -767 4 -777 -82 -3 -26 -8 -38 -11 -28 -19 45 30 119 79 119 46 0 61 19 63
78 l2 53 689 -3 688 -3 -6 -28z m-1741 -2 c-3 -9 -8 -14 -10 -11 -3 3 -2 9 2
15 9 16 15 13 8 -4z m-2601 -90 c9 -22 24 -58 33 -80 9 -22 13 -35 7 -30 -5 6
-20 36 -32 67 -13 31 -26 55 -30 53 -3 -2 -12 1 -20 7 -12 8 -12 9 3 4 17 -5
25 9 8 16 -4 2 -12 14 -16 28 l-7 25 19 -25 c11 -14 27 -43 35 -65z m272 33
c-3 -5 0 -8 5 -8 6 0 11 -4 11 -10 0 -15 -24 -2 -38 21 -16 26 -5 46 13 22 7
-10 11 -21 9 -25z m2310 20 c-4 -7 -31 -46 -61 -85 -48 -65 -63 -81 -63 -69 0
4 54 75 73 96 8 8 22 27 32 43 17 26 33 39 19 15z m220 -84 c3 -8 2 -12 -4 -9
-6 3 -10 1 -10 -6 0 -7 -2 -10 -5 -7 -5 5 4 38 10 38 2 0 6 -7 9 -16z m-38
-63 c-1 -16 -4 -27 -9 -24 -4 2 -11 -6 -16 -19 -6 -13 -10 -18 -10 -11 -1 11
30 83 34 83 1 0 2 -13 1 -29z m1633 -62 c-15 -37 -1 -51 46 -47 27 3 30 0 37
-37 12 -72 12 -73 -34 -72 -170 2 -419 -6 -450 -14 -24 -6 -38 -16 -39 -27 -1
-15 -2 -15 -6 1 -3 11 -11 16 -19 13 -8 -3 -246 -6 -528 -6 -456 -1 -513 -2
-513 -16 0 -9 18 -23 39 -32 41 -18 59 -49 37 -63 -10 -6 -7 -9 10 -9 17 0 22
-4 17 -15 -4 -12 -2 -13 12 -6 27 14 194 19 180 5 -12 -12 -340 -32 -353 -22
-6 6 -5 16 3 28 6 11 12 40 12 66 0 25 5 54 10 65 7 13 7 19 0 19 -5 0 -10 5
-10 11 0 5 5 7 12 3 8 -5 9 -2 5 9 -3 9 -2 19 3 22 6 4 10 -6 11 -22 1 -26 2
-25 15 12 8 22 22 50 32 62 l17 22 635 2 c349 1 669 5 710 8 l75 6 20 41 c22
46 34 40 14 -7z m-1954 21 c-3 -5 -11 -10 -16 -10 -6 0 -7 5 -4 10 3 6 11 10
16 10 6 0 7 -4 4 -10z m-25 -23 c0 -2 -10 -12 -22 -23 l-23 -19 19 23 c18 21
26 27 26 19z m-1965 -27 c3 -5 1 -10 -4 -10 -6 0 -11 5 -11 10 0 6 2 10 4 10
3 0 8 -4 11 -10z m2470 -20 c3 -5 1 -10 -4 -10 -6 0 -11 -6 -11 -12 0 -7 -5
-20 -10 -28 -9 -13 -11 -13 -20 0 -5 8 -10 20 -10 25 0 6 4 4 9 -4 7 -11 11
-10 20 6 5 11 7 23 4 27 -3 3 -1 6 5 6 6 0 14 -4 17 -10z m-2403 -40 c23 -22
40 -40 36 -40 -3 0 -26 18 -50 40 -23 22 -40 40 -36 40 3 0 26 -18 50 -40z
m1823 10 c-10 -11 -22 -20 -28 -20 -5 0 1 9 14 20 31 25 37 25 14 0z m-1901
-11 c-5 -9 1 -10 20 -5 28 7 37 -8 10 -18 -19 -7 -47 12 -38 25 3 5 7 9 10 9
3 0 2 -5 -2 -11z m56 -39 c-19 -13 -30 -13 -30 0 0 6 10 10 23 10 18 0 19 -2
7 -10z m1780 -4 c0 -2 -8 -10 -17 -17 -16 -13 -17 -12 -4 4 13 16 21 21 21 13z
m558 -10 c-7 -8 -15 -12 -17 -11 -5 6 10 25 20 25 5 0 4 -6 -3 -14z m-2318 0
c0 -11 -19 -15 -25 -6 -3 5 1 10 9 10 9 0 16 -2 16 -4z m1706 -41 c-20 -15
-36 -19 -36 -10 0 5 38 23 50 24 3 0 -4 -6 -14 -14z m-2319 -37 c-3 -8 -6 -5
-6 6 -1 11 2 17 5 13 3 -3 4 -12 1 -19z m406 -4 c-7 -20 79 -192 124 -243 45
-53 205 -181 283 -227 l59 -35 1 -537 c0 -295 3 -608 7 -694 l6 -158 -24 -2
c-13 0 -1 -4 26 -8 29 -4 -49 -8 -181 -8 -210 -2 -232 0 -238 15 -4 9 -11 88
-16 174 -6 87 -15 190 -21 231 -5 40 -15 345 -20 678 -5 333 -12 658 -15 724
-4 83 -3 117 4 112 6 -4 9 -13 5 -22z m3374 20 c-3 -3 -12 -4 -19 -1 -8 3 -5
6 6 6 11 1 17 -2 13 -5z m-1497 -8 c0 -2 -12 -11 -27 -20 l-28 -17 24 20 c23
21 31 25 31 17z m1147 -21 c3 -9 4 -17 2 -19 -10 -9 -259 -14 -259 -5 0 5 -15
9 -32 10 -32 1 -31 2 12 14 25 7 96 13 158 14 93 1 114 -2 119 -14z m603 -23
c0 -16 -3 -32 -7 -36 -5 -4 -8 -13 -8 -19 0 -8 -22 -13 -62 -14 -35 0 -63 2
-63 6 0 4 24 7 53 6 l52 0 -2 35 c-2 31 -1 32 7 10 8 -24 8 -24 9 8 1 39 21
43 21 4z m-3265 -16 c16 -12 37 -20 45 -19 10 2 11 1 2 -3 -10 -5 -9 -10 5
-21 13 -10 9 -10 -12 2 -16 9 -46 30 -65 47 -37 31 -25 29 25 -6z m1435 3
c-43 -34 -67 -42 -30 -10 19 17 40 31 45 31 6 0 -1 -9 -15 -21z m973 -26 c-13
-2 -33 -2 -45 0 -13 2 -3 4 22 4 25 0 35 -2 23 -4z m124 1 c-3 -3 -12 -4 -19
-1 -8 3 -5 6 6 6 11 1 17 -2 13 -5z m753 -9 c0 -8 -4 -15 -10 -15 -5 0 -7 7
-4 15 4 8 8 15 10 15 2 0 4 -7 4 -15z m-4023 -27 c-3 -7 -5 -2 -5 12 0 14 2
19 5 13 2 -7 2 -19 0 -25z m3956 25 c-7 -2 -19 -2 -25 0 -7 3 -2 5 12 5 14 0
19 -2 13 -5z m-1858 -13 c-3 -5 -16 -15 -28 -21 -21 -10 -21 -9 2 10 25 23 36
27 26 11z m1418 -17 c-7 -2 -19 -2 -25 0 -7 3 -2 5 12 5 14 0 19 -2 13 -5z
m-970 -208 c-5 -8 -7 17 -6 58 3 114 7 129 10 39 2 -45 0 -89 -4 -97z m-4060
158 c-7 -2 -19 -2 -25 0 -7 3 -2 5 12 5 14 0 19 -2 13 -5z m3497 -3 c-8 -5
-26 -9 -40 -9 -23 1 -23 2 5 9 43 11 52 11 35 0z m-3422 -7 c-10 -2 -26 -2
-35 0 -10 3 -2 5 17 5 19 0 27 -2 18 -5z m105 -10 c-13 -2 -33 -2 -45 0 -13 2
-3 4 22 4 25 0 35 -2 23 -4z m2470 0 c-40 -2 -107 -2 -150 0 -43 1 -10 3 72 3
83 0 118 -2 78 -3z m750 0 c-18 -2 -48 -2 -65 0 -18 2 -4 4 32 4 36 0 50 -2
33 -4z m-2950 -10 c-13 -2 -33 -2 -45 0 -13 2 -3 4 22 4 25 0 35 -2 23 -4z
m240 -10 c-13 -2 -35 -2 -50 0 -16 2 -5 4 22 4 28 0 40 -2 28 -4z m3240 -97
c-18 -24 -63 -56 -79 -56 -5 0 3 8 16 17 14 10 34 28 45 40 27 30 41 29 18 -1z
m-619 -140 c-3 -45 -8 -83 -10 -85 -3 -3 -154 -7 -338 -9 l-333 -4 -7 32 c-3
18 -6 58 -6 89 l0 56 351 1 350 1 -7 -81z m-866 -33 c-1 -101 -5 -89 -10 30
-2 37 0 67 5 67 4 0 6 -44 5 -97z m1352 82 c-6 -8 -9 -18 -6 -24 3 -5 -4 -7
-16 -4 -18 4 -20 2 -8 -6 8 -5 11 -13 7 -17 -3 -4 -13 -1 -22 6 -13 11 -11 16
17 36 39 27 45 29 28 9z m257 -237 c-1 -46 -3 -9 -3 82 0 91 2 128 3 83 2 -46
2 -120 0 -165z m-307 168 c0 -3 -7 -6 -16 -6 -8 0 -12 5 -9 10 8 12 -5 13 -25
1 -8 -6 -18 -7 -23 -4 -6 3 3 11 19 18 23 9 32 9 41 -1 7 -7 13 -15 13 -18z
m-452 -272 c2 -1 0 -43 -3 -93 l-8 -91 -321 0 -321 0 -3 100 -4 99 329 -6
c180 -3 329 -7 331 -9z m759 -316 c-2 -35 -3 -7 -3 62 0 69 1 97 3 63 2 -35 2
-91 0 -125z m-761 -61 c0 -1 -1 -48 -4 -104 l-4 -103 -304 -1 c-167 -1 -310
-2 -316 -3 -10 -1 -14 26 -16 98 -1 55 0 106 3 114 5 13 48 14 323 8 174 -4
317 -8 318 -9z m-17 -412 c6 -7 -19 -222 -36 -305 -19 -95 -29 -114 -103 -190
-99 -100 -198 -131 -300 -95 -60 21 -62 11 -3 -18 53 -26 141 -34 156 -14 7 9
10 9 14 0 6 -17 21 -16 40 3 9 8 25 13 35 11 14 -4 18 -1 14 9 -4 9 -2 12 5 8
6 -3 29 9 52 27 40 32 34 14 -8 -24 -68 -62 -215 -78 -303 -33 -56 29 -139
107 -153 144 -6 15 -13 130 -16 257 l-6 230 304 -3 c167 -2 305 -5 308 -7z
m-1539 -234 l0 -69 -35 -6 c-19 -4 -35 -10 -35 -14 0 -27 60 -150 96 -196 52
-66 110 -110 220 -167 88 -45 156 -57 322 -58 102 -1 138 -15 186 -74 25 -30
48 -48 69 -52 18 -4 52 -24 77 -45 52 -43 92 -65 138 -75 18 -3 30 -11 27 -15
-7 -12 117 -50 162 -50 19 0 67 11 106 24 40 13 92 29 117 35 70 18 118 42
134 66 10 15 30 26 58 30 57 10 72 18 133 79 73 74 131 91 273 82 133 -9 194
2 299 54 116 57 182 121 216 207 29 74 59 201 51 215 -8 12 -3 11 182 -35 98
-25 179 -50 188 -60 10 -9 15 -17 11 -17 -11 0 49 -46 80 -62 17 -9 62 -25
100 -38 39 -12 75 -26 80 -30 6 -5 29 -13 53 -19 23 -7 42 -16 42 -22 0 -14
-23 -58 -94 -179 -99 -170 -270 -326 -469 -429 -124 -64 -187 -87 -287 -101
-37 -5 -789 -10 -1721 -11 l-1657 -3 -68 41 c-67 39 -153 79 -184 85 -25 5
-30 20 -30 104 0 141 56 309 140 420 110 145 240 223 515 307 66 20 179 54
250 76 113 35 223 66 248 70 4 0 7 -30 7 -68z m2517 -13 c-3 -8 -6 -5 -6 6 -1
11 2 17 5 13 3 -3 4 -12 1 -19z m-624 -145 c-7 -2 -19 -2 -25 0 -7 3 -2 5 12
5 14 0 19 -2 13 -5z m-432 -126 c-10 -9 -11 -8 -5 6 3 10 9 15 12 12 3 -3 0
-11 -7 -18z m2188 -616 c-7 -23 -14 -39 -16 -37 -3 2 1 23 8 45 7 23 14 39 16
37 3 -2 -1 -23 -8 -45z m-37 -83 c-7 -7 -12 -8 -12 -2 0 14 12 26 19 19 2 -3
-1 -11 -7 -17z m-42 -53 c0 -7 -98 -55 -112 -55 -7 0 12 13 42 29 58 30 70 34
70 26z m-167 -72 c-7 -2 -21 -2 -30 0 -10 3 -4 5 12 5 17 0 24 -2 18 -5z
m-4240 -10 c-13 -2 -33 -2 -45 0 -13 2 -3 4 22 4 25 0 35 -2 23 -4z m4165 0
c-10 -2 -26 -2 -35 0 -10 3 -2 5 17 5 19 0 27 -2 18 -5z m-3050 -10 c-197 -2
-519 -2 -715 0 -197 1 -36 2 357 2 393 0 554 -1 358 -2z m2040 0 c-302 -2
-794 -2 -1096 0 -301 1 -54 2 548 2 602 0 849 -1 548 -2z m685 0 c-13 -2 -33
-2 -45 0 -13 2 -3 4 22 4 25 0 35 -2 23 -4z"/>
<path d="M4635 6929 l20 -22 -22 5 c-19 5 -23 2 -23 -15 0 -17 2 -19 9 -8 5 7
14 10 20 7 6 -4 11 -2 11 4 0 8 6 8 21 0 39 -21 29 -4 -14 24 -37 25 -40 25
-22 5z"/>
<path d="M4424 7184 c0 -30 2 -33 9 -16 5 12 5 26 0 36 -7 12 -9 7 -9 -20z"/>
<path d="M4350 7167 c0 -14 -4 -28 -10 -32 -5 -3 -7 -12 -4 -19 3 -8 1 -17 -5
-21 -17 -10 -13 -25 4 -19 9 4 15 19 15 38 0 24 3 28 10 16 7 -11 8 -5 4 20
-9 44 -14 51 -14 17z"/>
<path d="M4370 7080 c0 -5 5 -10 11 -10 5 0 7 5 4 10 -3 6 -8 10 -11 10 -2 0
-4 -4 -4 -10z"/>
<path d="M4291 6966 c-6 -25 -8 -52 -5 -61 4 -9 3 -20 -3 -24 -5 -3 -17 -21
-26 -40 -13 -27 -14 -31 -2 -21 12 10 15 10 15 -1 1 -16 30 18 30 35 0 5 -7 1
-15 -10 -10 -13 -14 -15 -15 -5 0 8 7 22 15 31 13 14 31 140 20 140 -1 0 -8
-20 -14 -44z"/>
<path d="M4351 6944 c0 -11 3 -14 6 -6 3 7 2 16 -1 19 -3 4 -6 -2 -5 -13z"/>
<path d="M4380 6946 c0 -10 -9 -20 -20 -23 -11 -3 -20 -12 -20 -19 0 -8 3 -13
8 -11 8 2 12 -6 12 -32 0 -12 -9 -21 -26 -25 -15 -4 -24 -9 -21 -12 2 -3 16
-2 29 1 21 5 26 15 36 68 6 33 9 63 7 66 -3 2 -5 -4 -5 -13z"/>
<path d="M4337 6873 c-4 -3 -7 -11 -7 -17 0 -6 5 -5 12 2 6 6 9 14 7 17 -3 3
-9 2 -12 -2z"/>
<path d="M6418 6433 c6 -3 10 -9 6 -14 -8 -13 10 -11 23 2 13 13 36 3 28 -12
-3 -5 1 -6 11 -2 15 5 14 7 -2 17 -11 6 -32 11 -49 12 -16 1 -24 -1 -17 -3z"/>
<path d="M6483 6360 c0 -24 2 -26 14 -14 12 12 12 16 0 28 -12 12 -14 10 -14
-14z"/>
<path d="M6403 6250 c0 -41 2 -58 4 -37 2 20 2 54 0 75 -2 20 -4 3 -4 -38z"/>
<path d="M6586 6285 c9 -14 18 -25 20 -25 2 0 -2 11 -8 25 -6 14 -15 25 -20
25 -5 0 -1 -11 8 -25z"/>
<path d="M6590 6176 c0 -8 4 -17 9 -20 5 -4 7 3 4 14 -6 23 -13 26 -13 6z"/>
<path d="M6573 6135 c0 -22 2 -30 4 -17 2 12 2 30 0 40 -3 9 -5 -1 -4 -23z"/>
<path d="M6592 6100 c0 -14 2 -19 5 -12 2 6 2 18 0 25 -3 6 -5 1 -5 -13z"/>
<path d="M6572 6025 c0 -16 2 -22 5 -12 2 9 2 23 0 30 -3 6 -5 -1 -5 -18z"/>
<path d="M6505 5940 c3 -5 8 -10 11 -10 2 0 4 5 4 10 0 6 -5 10 -11 10 -5 0
-7 -4 -4 -10z"/>
<path d="M6540 5936 c0 -8 4 -17 9 -20 5 -4 7 3 4 14 -6 23 -13 26 -13 6z"/>
<path d="M6575 5870 c3 -5 8 -10 11 -10 2 0 4 5 4 10 0 6 -5 10 -11 10 -5 0
-7 -4 -4 -10z"/>
<path d="M3382 6000 c0 -14 2 -19 5 -12 2 6 2 18 0 25 -3 6 -5 1 -5 -13z"/>
<path d="M2594 5265 c-11 -27 2 -37 14 -11 7 16 8 26 1 26 -5 0 -12 -7 -15
-15z"/>
<path d="M2658 5255 c2 -14 8 -25 12 -25 4 0 12 11 18 25 11 23 10 25 -12 25
-19 0 -22 -4 -18 -25z"/>
<path d="M2880 5271 c47 -3 81 -9 75 -12 -5 -3 -27 -5 -47 -3 -21 1 -35 -2
-32 -7 8 -13 62 -11 124 6 69 18 166 20 173 3 3 -8 6 -6 6 5 1 16 -14 17 -191
15 -138 -1 -169 -3 -108 -7z"/>
<path d="M2738 5263 c7 -3 16 -2 19 1 4 3 -2 6 -13 5 -11 0 -14 -3 -6 -6z"/>
<path d="M2738 5243 c12 -2 32 -2 45 0 12 2 2 4 -23 4 -25 0 -35 -2 -22 -4z"/>
<path d="M4169 5721 c-31 -10 -104 -43 -162 -75 -138 -74 -170 -122 -132 -195
17 -35 62 -54 106 -47 30 4 32 3 16 -9 -17 -12 -17 -17 -5 -54 l14 -40 76 44
c104 59 138 68 219 63 58 -5 86 -15 201 -71 202 -100 218 -102 338 -42 92 46
114 73 113 135 -1 58 -21 95 -77 139 -52 41 -123 43 -83 2 12 -13 -1 -6 -163
81 -121 66 -202 88 -314 87 -59 0 -111 -6 -147 -18z"/>
<path d="M4070 5146 c-69 -20 -228 -103 -244 -128 -21 -33 -29 -84 -17 -106
15 -29 65 -45 121 -40 39 4 48 2 40 -7 -14 -17 -2 -45 19 -45 9 0 59 12 110
25 108 28 154 31 226 11 48 -13 76 -26 190 -92 43 -24 59 -28 123 -27 82 2
106 15 117 64 4 16 2 44 -4 62 -26 79 -242 235 -384 278 -73 22 -226 24 -297
5z"/>
<path d="M3850 3916 c0 -2 6 -9 14 -15 10 -9 15 -8 20 4 4 10 -1 15 -14 15
-11 0 -20 -2 -20 -4z"/>
<path d="M4750 3789 c-62 -26 -88 -77 -70 -138 7 -24 6 -37 -1 -42 -17 -10 28
-89 82 -140 59 -56 155 -106 234 -120 33 -6 102 -9 153 -6 82 4 101 9 169 42
96 47 167 116 183 176 7 24 19 58 26 76 31 69 6 131 -62 153 -46 15 -91 7
-184 -35 -152 -68 -199 -68 -349 0 -86 38 -144 50 -181 34z m-20 -185 c0 -8
-19 -13 -24 -6 -3 5 1 9 9 9 8 0 15 -2 15 -3z m88 -34 c13 -16 18 -30 13 -30
-5 0 -16 11 -25 24 -8 14 -28 27 -43 29 -28 4 -28 4 3 6 23 1 35 -6 52 -29z"/>
<path d="M3973 3765 c0 -8 4 -12 9 -9 5 3 6 10 3 15 -9 13 -12 11 -12 -6z"/>
<path d="M4020 3725 c7 -8 17 -15 22 -15 6 0 5 7 -2 15 -7 8 -17 15 -22 15 -6
0 -5 -7 2 -15z"/>
<path d="M4030 3670 c0 -5 5 -10 11 -10 5 0 7 5 4 10 -3 6 -8 10 -11 10 -2 0
-4 -4 -4 -10z"/>
<path d="M5300 3281 c0 -10 24 -21 48 -21 11 0 6 6 -12 15 -33 18 -36 18 -36
6z"/>
<path d="M7433 4836 c38 -6 65 -14 61 -18 -4 -5 0 -8 9 -8 10 0 17 5 17 10 0
6 47 10 118 11 164 2 120 7 -93 11 -154 4 -170 3 -112 -6z"/>
<path d="M7693 4813 c9 -2 23 -2 30 0 6 3 -1 5 -18 5 -16 0 -22 -2 -12 -5z"/>
<path d="M2558 3593 c45 -2 119 -2 165 0 45 1 8 3 -83 3 -91 0 -128 -2 -82 -3z"/>
<path d="M3163 3593 c9 -2 23 -2 30 0 6 3 -1 5 -18 5 -16 0 -22 -2 -12 -5z"/>
<path d="M3581 3564 c0 -11 3 -14 6 -6 3 7 2 16 -1 19 -3 4 -6 -2 -5 -13z"/>
<path d="M6578 3343 c12 -2 32 -2 45 0 12 2 2 4 -23 4 -25 0 -35 -2 -22 -4z"/>
<path d="M6573 3313 c15 -2 37 -2 50 0 12 2 0 4 -28 4 -27 0 -38 -2 -22 -4z"/>
<path d="M4021 3284 c0 -11 3 -14 6 -6 3 7 2 16 -1 19 -3 4 -6 -2 -5 -13z"/>
<path d="M4032 3190 c0 -14 2 -19 5 -12 2 6 2 18 0 25 -3 6 -5 1 -5 -13z"/>
<path d="M4042 3095 c0 -16 2 -22 5 -12 2 9 2 23 0 30 -3 6 -5 -1 -5 -18z"/>
<path d="M4051 2384 c0 -11 3 -14 6 -6 3 7 2 16 -1 19 -3 4 -6 -2 -5 -13z"/>
<path d="M4053 2120 c0 -25 2 -35 4 -22 2 12 2 32 0 45 -2 12 -4 2 -4 -23z"/>
<path d="M4052 2020 c0 -14 2 -19 5 -12 2 6 2 18 0 25 -3 6 -5 1 -5 -13z"/>
<path d="M4178 1533 c12 -2 32 -2 45 0 12 2 2 4 -23 4 -25 0 -35 -2 -22 -4z"/>
<path d="M4368 1533 c6 -2 18 -2 25 0 6 3 1 5 -13 5 -14 0 -19 -2 -12 -5z"/>
<path d="M5340 3012 c-24 -12 -54 -32 -65 -44 l-20 -21 25 17 c27 18 44 21 35
6 -4 -6 5 -10 19 -10 24 0 35 -13 19 -23 -5 -2 -2 -2 6 0 8 2 11 -2 7 -12 -8
-22 7 -18 22 6 17 27 26 73 13 65 -5 -4 -11 4 -13 16 l-3 23 -45 -23z m44 -47
c3 -8 1 -15 -4 -15 -6 0 -10 7 -10 15 0 8 2 15 4 15 2 0 6 -7 10 -15z"/>
<path d="M5400 2919 c0 -5 5 -7 10 -4 6 3 10 8 10 11 0 2 -4 4 -10 4 -5 0 -10
-5 -10 -11z"/>
<path d="M5293 2913 c9 -2 23 -2 30 0 6 3 -1 5 -18 5 -16 0 -22 -2 -12 -5z"/>
<path d="M27 103 c-25 -4 -27 -8 -27 -54 0 -48 1 -49 30 -49 30 0 30 1 30 55
0 30 -1 54 -2 54 -2 -1 -15 -4 -31 -6z"/>
</g>
</svg>
