<?xml version="1.0" standalone="no"?>
<!DOCTYPE svg PUBLIC "-//W3C//DTD SVG 20010904//EN"
 "http://www.w3.org/TR/2001/REC-SVG-20010904/DTD/svg10.dtd">
<svg version="1.0" xmlns="http://www.w3.org/2000/svg"
 width="1024.000000pt" height="1024.000000pt" viewBox="0 0 1024.000000 1024.000000"
 preserveAspectRatio="xMidYMid meet">
<metadata>
Created by potrace 1.16, written by Peter Selinger 2001-2019
</metadata>
<g transform="translate(0.000000,1024.000000) scale(0.100000,-0.100000)"
fill="#000000" stroke="none">
<path d="M5385 9003 c-517 -12 -980 -58 -1355 -134 -588 -120 -796 -200 -965
-373 -100 -102 -171 -266 -205 -476 -36 -221 -74 -638 -100 -1090 -35 -618
-72 -1288 -85 -1550 -9 -168 -22 -390 -30 -495 -8 -104 -22 -296 -30 -425 -32
-507 -102 -1298 -145 -1660 -75 -623 -106 -1099 -81 -1245 38 -219 200 -391
447 -475 220 -76 347 -80 2269 -79 1691 0 2719 10 2920 29 228 21 362 66 404
134 38 60 69 160 82 261 16 121 16 533 0 830 -6 116 -18 347 -26 515 -8 168
-20 375 -25 460 -5 85 -16 301 -25 480 -8 179 -19 420 -25 535 -18 390 -11
903 20 1525 18 354 23 932 11 1180 -12 237 -45 558 -81 770 -51 307 -189 615
-356 793 -67 72 -189 164 -274 207 -296 149 -924 252 -1715 280 -262 9 -353
10 -630 3z m735 -148 c488 -17 1138 -108 1381 -195 370 -132 555 -357 683
-832 105 -388 139 -1124 95 -2068 -32 -690 -32 -1408 -2 -2050 12 -256 27
-577 33 -715 6 -137 15 -313 20 -390 5 -77 11 -363 14 -635 2 -272 2 -469 -1
-436 -6 84 -23 94 -238 151 -33 9 -71 19 -85 23 -33 10 -127 -5 -154 -23 -21
-15 -21 -15 4 -14 14 0 56 -5 94 -12 66 -12 69 -14 87 -53 10 -23 19 -55 19
-73 0 -27 -8 -38 -52 -71 -29 -22 -70 -46 -90 -53 -40 -14 -50 -34 -20 -41 48
-13 161 63 187 125 18 44 7 113 -21 134 -23 17 -13 26 18 18 37 -9 93 -59 112
-99 30 -64 15 -146 -38 -203 -26 -27 -28 -33 -30 -63 -1 -12 -18 -16 -75 -18
-42 -2 -79 2 -85 8 -7 7 -5 10 6 10 9 0 26 9 39 20 20 17 16 17 -26 -4 -80
-39 -133 -47 -395 -56 -290 -11 -1976 -11 -1940 -1 15 5 -7 8 -57 7 -46 0 -83
-3 -83 -8 0 -5 -12 -6 -27 -3 -16 3 -41 2 -58 -2 l-30 -7 40 -12 c40 -12 39
-12 -40 -14 -44 -1 -210 -5 -370 -10 -342 -9 -1563 5 -1750 21 -153 13 -264
34 -322 61 -59 28 -126 96 -158 162 -34 71 -32 109 23 361 40 188 55 276 68
408 l6 67 52 1 c65 1 96 10 110 31 19 31 -4 38 -74 23 -36 -8 -69 -14 -74 -15
-5 0 -6 43 -2 103 5 56 8 122 8 147 0 26 2 34 5 18 2 -14 10 -32 18 -38 11 -9
17 -6 30 14 9 14 15 35 13 48 -2 19 -8 22 -30 20 -25 -3 -28 0 -28 29 0 18 9
105 20 193 69 564 120 1219 97 1243 -4 3 -7 -3 -7 -14 0 -23 -26 -36 -104 -53
-34 -8 -52 -8 -60 0 -7 7 0 10 22 10 18 0 32 4 32 10 0 5 -13 7 -32 3 -22 -4
-29 -3 -24 5 4 7 19 12 34 12 19 0 23 3 14 9 -11 7 -11 9 2 14 23 9 20 44 -4
57 -14 8 -19 17 -15 30 3 10 0 22 -7 27 -22 13 -41 80 -29 100 10 17 10 17 11
0 0 -29 17 -10 22 24 4 27 3 30 -7 15 -10 -14 -12 -10 -10 22 1 29 -3 42 -17
51 -17 11 -18 6 -18 -79 0 -59 4 -90 11 -90 7 0 10 -16 8 -44 -3 -32 -1 -42 9
-39 6 3 12 0 12 -6 0 -6 -8 -11 -18 -11 -14 0 -19 8 -20 33 -1 17 -4 88 -7
157 l-6 125 31 -35 c64 -73 142 -174 161 -212 21 -41 39 -48 60 -22 10 13 10
23 -4 62 -11 31 -17 78 -17 136 0 84 1 88 18 74 55 -48 143 -64 162 -29 7 15
6 23 -6 35 -17 17 -21 18 -109 20 -43 1 -59 5 -57 14 1 7 -5 15 -13 18 -10 4
-15 18 -14 43 1 23 3 28 6 14 25 -130 35 313 27 1197 -6 676 -1 950 30 1517
l5 78 -11 -67 c-11 -69 -27 -90 -30 -40 -1 18 -3 12 -8 -18 l-7 -45 -2 45 c-1
40 -3 43 -14 25 -11 -18 -13 -16 -18 25 -6 44 -6 44 -8 -15 -2 -68 -9 -105
-22 -105 -5 0 -9 12 -9 28 0 15 4 22 8 16 4 -7 8 54 9 135 2 151 17 322 34
401 5 25 11 59 14 75 2 17 11 68 20 115 9 47 20 111 26 143 22 131 62 239 113
306 14 19 26 40 26 46 0 15 113 89 190 124 36 17 122 46 192 65 111 30 207 52
528 121 108 23 603 83 785 95 369 24 761 29 1185 15z m-2912 -450 c-23 -27
-34 -33 -22 -12 14 23 26 37 35 37 5 0 -1 -11 -13 -25z m-141 -3517 c-3 -8 -6
-5 -6 6 -1 11 2 17 5 13 3 -3 4 -12 1 -19z m-210 -315 c-2 -21 -4 -6 -4 32 0
39 2 55 4 38 2 -18 2 -50 0 -70z m-20 -405 c-3 -8 -6 -5 -6 6 -1 11 2 17 5 13
3 -3 4 -12 1 -19z m5500 -2760 c-3 -7 -5 -2 -5 12 0 14 2 19 5 13 2 -7 2 -19
0 -25z m-10 -40 c-3 -8 -6 -5 -6 6 -1 11 2 17 5 13 3 -3 4 -12 1 -19z"/>
<path d="M4962 8753 c2 -17 9 -28 18 -28 9 0 16 11 18 28 3 22 -1 27 -18 27
-17 0 -21 -5 -18 -27z"/>
<path d="M5396 8749 c-14 -11 -26 -26 -26 -32 0 -6 7 -1 16 11 18 27 69 30 78
6 9 -23 -21 -54 -53 -55 -23 -2 -23 -2 -4 -6 58 -11 101 67 47 87 -32 13 -27
13 -58 -11z"/>
<path d="M3433 8513 c0 -8 7 -11 14 -8 8 3 17 5 19 5 2 0 4 4 4 9 0 6 -8 9
-18 8 -10 0 -19 -7 -19 -14z"/>
<path d="M5855 8505 c-56 -10 -251 -26 -425 -35 -373 -20 -432 -52 -434 -235
-1 -64 3 -88 21 -121 32 -60 69 -101 118 -129 177 -104 748 -51 888 83 35 32
57 73 57 103 0 16 7 11 33 -27 18 -26 57 -64 86 -85 102 -70 218 -92 486 -93
l201 -1 37 -31 c42 -34 140 -66 342 -109 222 -49 274 -45 348 24 55 50 60 72
61 246 1 224 -8 239 -175 276 -262 57 -500 94 -739 115 -157 14 -854 28 -905
19z m62 -120 c17 -36 18 -47 7 -53 -9 -5 -11 -20 -7 -48 5 -36 9 -42 29 -40
19 1 23 5 19 21 -4 14 -2 13 8 -5 8 -14 17 -42 20 -63 5 -35 4 -38 -16 -35
-12 2 -25 7 -28 11 -9 12 -360 10 -481 -2 -59 -7 -151 -12 -203 -13 -86 -2
-98 0 -118 20 -17 18 -19 26 -11 40 6 9 17 17 25 17 38 1 99 18 110 31 9 11 7
14 -12 14 -31 0 -89 35 -89 54 0 25 90 47 238 56 79 5 171 14 205 20 84 13
119 17 208 18 l75 2 21 -45z m323 26 c0 -4 -12 -13 -27 -20 -16 -8 -36 -17
-46 -22 -10 -5 -42 -9 -72 -8 -45 2 -57 6 -70 25 -8 13 -15 27 -15 31 0 4 52
7 115 5 63 -2 115 -7 115 -11z m475 -21 c3 -5 15 -10 26 -10 10 0 19 -4 19
-10 0 -5 6 -10 14 -10 8 0 16 -6 19 -12 2 -7 2 -3 0 10 -3 19 1 22 26 22 16 0
31 -6 35 -15 7 -18 26 -16 43 5 10 13 12 11 13 -12 0 -16 -4 -28 -9 -28 -4 0
-6 -11 -3 -25 2 -13 1 -33 -3 -42 -4 -10 -7 -31 -7 -48 1 -19 -1 -25 -6 -15
-30 61 -71 89 -86 58 -3 -7 -3 -3 0 9 4 17 2 21 -9 17 -19 -7 -32 27 -15 38
11 6 11 8 0 8 -24 0 -23 -27 2 -74 14 -26 28 -46 33 -46 4 1 9 -3 11 -8 1 -5
-11 -15 -29 -21 -42 -14 -44 -14 -28 5 12 15 11 16 -11 9 -14 -4 -28 -13 -32
-19 -5 -8 -11 -7 -20 2 -9 9 -9 12 5 12 9 0 17 3 17 8 0 4 10 12 22 17 12 6
24 16 26 23 3 9 -11 5 -39 -10 -40 -21 -57 -23 -174 -23 -171 0 -285 12 -292
32 -8 20 41 115 69 132 13 8 41 18 63 22 65 11 313 10 320 -1z m488 -56 c173
-19 325 -47 366 -68 32 -17 45 -47 39 -87 -9 -66 -346 -80 -549 -23 l-61 17 6
36 c10 61 36 141 47 141 5 0 74 -7 152 -16z m-1261 -53 c-4 -11 -7 -10 -13 5
-12 29 -10 36 5 22 7 -7 11 -19 8 -27z m538 -124 c69 -1 145 2 170 6 32 6 41
5 30 -2 -13 -9 -12 -11 3 -11 10 0 16 -4 13 -9 -3 -5 1 -11 9 -15 8 -3 15 -1
15 5 0 6 6 9 13 6 6 -2 11 -10 9 -17 -1 -6 7 -14 18 -17 11 -3 20 -9 20 -14 0
-5 16 -9 35 -9 29 0 36 4 41 25 3 14 3 36 0 50 -5 18 -2 25 9 25 12 0 15 -13
15 -63 l0 -62 -200 -2 c-110 -1 -200 1 -200 5 0 4 31 6 68 4 38 -2 84 1 103 7
27 8 19 9 -43 5 -43 -4 -90 -3 -105 2 l-28 8 35 6 35 7 -32 2 c-18 0 -33 4
-33 9 0 12 -68 30 -78 20 -14 -14 -58 -5 -54 11 2 9 -4 12 -18 8 -11 -3 -18
-2 -16 2 3 4 -4 7 -14 7 -18 0 -18 -2 3 -25 20 -21 20 -23 2 -13 -36 21 -55
39 -55 54 0 13 6 13 53 1 29 -8 107 -15 177 -16z m-547 -24 c4 -19 1 -32 -9
-40 -32 -24 -160 -38 -354 -38 l-195 0 -62 33 c-35 18 -63 36 -63 40 0 4 49 8
108 10 59 2 132 7 162 11 30 5 134 9 231 10 l177 1 5 -27z m1163 -32 c38 -5
134 -15 214 -21 127 -11 154 -10 214 4 38 9 70 15 72 13 5 -5 -23 -92 -40
-126 -29 -56 -56 -73 -103 -67 -135 18 -453 172 -453 219 0 5 6 4 13 -2 8 -6
45 -15 83 -20z m-725 -9 c-7 -2 -18 1 -23 6 -8 8 -4 9 13 5 13 -4 18 -8 10
-11z"/>
<path d="M5626 8312 c-14 -24 64 -59 107 -48 20 5 27 13 27 31 0 24 -3 25 -64
25 -36 0 -67 -4 -70 -8z"/>
<path d="M5921 8214 c0 -11 3 -14 6 -6 3 7 2 16 -1 19 -3 4 -6 -2 -5 -13z"/>
<path d="M6058 8389 c-8 -6 1 -9 25 -9 20 0 37 2 37 4 0 9 -50 12 -62 5z"/>
<path d="M6740 8358 c0 -12 7 -18 23 -17 15 0 17 2 7 6 -8 3 -18 11 -22 17 -5
7 -8 4 -8 -6z"/>
<path d="M6834 8311 c3 -5 15 -7 26 -4 28 7 25 13 -6 13 -14 0 -23 -4 -20 -9z"/>
<path d="M7283 8250 c-25 -10 -30 -41 -10 -58 6 -6 29 -13 50 -17 l38 -7 -26
38 -27 39 44 6 43 6 -45 1 c-25 0 -55 -3 -67 -8z"/>
<path d="M6813 8063 c9 -2 23 -2 30 0 6 3 -1 5 -18 5 -16 0 -22 -2 -12 -5z"/>
<path d="M4565 8403 c-136 -7 -514 -72 -540 -93 -5 -4 -35 -15 -65 -24 -30 -9
-66 -24 -80 -32 -16 -10 -18 -13 -5 -8 140 49 248 77 355 89 25 3 57 8 72 11
15 3 35 1 44 -4 11 -6 -6 -11 -62 -16 -123 -11 -193 -27 -369 -83 -117 -38
-188 -76 -225 -123 -17 -22 -40 -40 -51 -40 -10 0 -26 -11 -35 -25 -15 -23
-15 -29 5 -92 11 -38 31 -86 44 -108 47 -82 171 -147 309 -161 73 -7 399 26
541 56 236 48 346 94 397 164 36 48 70 134 66 167 -3 21 -61 281 -72 317 -3
12 -151 14 -329 5z m291 -20 c-18 -5 -18 -6 5 -19 23 -13 21 -13 -26 -13 -36
-1 -46 2 -35 9 8 5 11 10 5 11 -18 1 29 18 50 17 19 0 19 0 1 -5z m-116 -13
c-25 -7 -25 -7 5 -12 17 -3 8 -4 -20 -3 -27 2 -59 7 -70 11 -14 5 -17 4 -10
-4 6 -5 18 -12 28 -14 11 -1 -55 -3 -145 -4 -166 0 -162 3 37 24 98 10 211 12
175 2z m130 -40 c0 -5 -14 -7 -32 -3 -46 8 -48 13 -5 13 21 0 37 -4 37 -10z
m-15 -38 c-3 -3 -11 0 -18 7 -9 10 -8 11 6 5 10 -3 15 -9 12 -12z m1 -59 c-7
-7 -26 7 -26 19 0 6 6 6 15 -2 9 -7 13 -15 11 -17z m-274 -23 c88 -13 173 -45
203 -78 14 -15 20 -29 15 -30 -6 -2 -8 -18 -4 -38 9 -47 -13 -76 -78 -107
-100 -48 -98 -48 -98 28 0 62 -1 66 -27 77 -49 21 -84 50 -79 64 3 9 -7 20
-27 30 -37 19 -67 44 -67 56 0 11 79 10 162 -2z m-340 -74 c52 -23 200 -125
165 -113 -35 13 -197 -15 -392 -67 -103 -28 -189 -14 -215 34 -27 51 16 159
58 146 9 -3 46 1 82 8 36 8 106 15 157 15 77 1 101 -3 145 -23z m210 -153 c21
-19 23 -44 6 -61 -7 -7 -13 -18 -13 -25 0 -16 -61 -31 -267 -67 -186 -31 -323
-38 -392 -19 -58 16 -96 58 -95 106 0 21 3 32 6 26 2 -7 11 -13 19 -13 8 0 14
-8 14 -17 0 -14 2 -15 9 -4 7 11 17 12 54 2 69 -17 123 -14 253 15 389 84 378
82 406 57z"/>
<path d="M3185 8155 c-3 -8 -7 -22 -10 -30 -2 -8 0 -17 4 -20 5 -2 11 11 13
30 4 36 1 46 -7 20z"/>
<path d="M3172 8050 c0 -19 2 -27 5 -17 2 9 2 25 0 35 -3 9 -5 1 -5 -18z"/>
<path d="M3157 7965 c-13 -74 -17 -185 -6 -185 7 0 9 26 7 70 -2 39 1 71 5 73
5 1 7 20 5 42 l-3 40 -8 -40z"/>
<path d="M3111 7918 c0 -20 -5 -40 -11 -43 -13 -8 -13 -35 0 -35 12 0 23 60
17 91 -3 17 -5 13 -6 -13z"/>
<path d="M3083 7914 c-3 -8 -1 -20 6 -27 8 -8 11 -4 11 16 0 30 -7 35 -17 11z"/>
<path d="M3073 7820 c0 -30 2 -43 4 -27 2 15 2 39 0 55 -2 15 -4 2 -4 -28z"/>
<path d="M3122 7815 c0 -16 2 -22 5 -12 2 9 2 23 0 30 -3 6 -5 -1 -5 -18z"/>
<path d="M3102 7790 c0 -19 2 -27 5 -17 2 9 2 25 0 35 -3 9 -5 1 -5 -18z"/>
<path d="M3140 7746 c0 -10 -5 -71 -11 -137 -6 -65 -9 -124 -7 -131 3 -7 10
51 17 130 7 79 10 146 7 149 -3 4 -6 -2 -6 -11z"/>
<path d="M6160 7659 c-164 -24 -287 -103 -357 -231 -33 -59 -32 -136 2 -172
16 -17 32 -26 41 -22 9 3 20 6 26 6 7 0 6 5 -1 14 -6 8 -14 36 -17 62 -5 44
-2 52 22 78 37 39 136 83 214 95 87 14 272 -2 341 -29 28 -11 113 -52 188 -90
174 -88 223 -107 351 -136 132 -30 280 -40 390 -26 47 7 134 16 193 22 60 5
131 18 158 27 44 16 51 16 59 3 14 -22 12 -29 -8 -23 -23 6 -39 -25 -76 -150
-41 -135 -101 -191 -238 -221 -119 -27 -168 -28 -291 -6 -317 54 -592 174
-767 335 -68 63 -132 105 -182 120 -28 8 -53 13 -56 11 -2 -3 26 -18 63 -35
48 -22 92 -55 153 -114 48 -46 97 -89 110 -96 12 -7 20 -16 17 -21 -3 -5 0
-12 6 -16 8 -4 9 -3 5 4 -11 18 -1 14 41 -14 46 -31 198 -104 218 -104 7 0 17
-4 20 -10 3 -5 15 -10 26 -10 11 0 17 -4 14 -10 -3 -5 0 -7 8 -4 8 3 61 -8
118 -25 143 -41 207 -51 318 -51 154 0 277 35 352 97 16 14 33 23 36 19 4 -3
-2 -13 -13 -22 -10 -8 -13 -13 -6 -9 18 9 38 -5 21 -16 -10 -6 -10 -9 -2 -9
16 0 26 17 13 25 -7 4 -7 12 0 26 6 10 7 19 3 19 -4 0 0 7 10 15 11 7 25 11
32 9 7 -3 16 -1 20 5 3 7 0 8 -9 5 -34 -13 -13 6 44 41 33 20 68 44 77 53 15
16 16 13 10 -38 -4 -30 -12 -118 -18 -195 -6 -77 -15 -144 -20 -149 -16 -18
-278 -19 -444 -2 -88 9 -221 21 -295 27 -74 5 -227 22 -340 37 -193 25 -205
28 -208 49 -2 12 -27 40 -58 64 -60 46 -129 133 -119 149 4 6 1 9 -6 8 -7 -2
-19 10 -27 25 -18 37 -129 155 -161 171 -40 21 -91 30 -91 16 0 -14 78 -117
93 -123 18 -7 89 -102 122 -162 15 -27 35 -59 45 -70 16 -18 40 -58 40 -68 0
-2 -96 -4 -212 -6 -117 -1 -227 -4 -244 -7 l-31 -6 -7 69 c-4 37 -20 109 -36
159 -16 49 -39 130 -51 180 -61 251 -302 455 -536 454 -162 -1 -295 -40 -453
-134 -156 -92 -345 -177 -455 -205 -128 -32 -415 -55 -415 -32 0 5 -11 11 -23
15 -28 7 -127 83 -127 98 0 6 8 7 18 3 23 -9 285 -17 306 -9 31 12 4 24 -55
24 -33 0 -103 5 -157 10 -86 9 -110 17 -209 65 -106 51 -113 53 -123 35 -14
-25 -12 -86 5 -205 8 -55 15 -140 15 -190 0 -49 5 -121 9 -160 l9 -70 74 -68
c145 -135 335 -244 513 -294 76 -21 118 -26 266 -30 215 -6 404 15 803 89 430
79 506 89 862 107 260 14 569 -11 969 -79 307 -52 469 -61 630 -36 135 22 146
27 161 68 67 194 64 623 -5 743 -29 51 -101 62 -432 68 -328 6 -575 32 -694
72 -78 27 -430 113 -480 117 -27 3 -75 1 -105 -3z m245 -89 c3 -6 -1 -7 -9 -4
-18 7 -21 14 -7 14 6 0 13 -4 16 -10z m202 -76 c-5 -5 -57 13 -57 20 0 3 14 0
31 -6 16 -6 28 -12 26 -14z m-1651 7 c-3 -5 -33 -17 -67 -27 -47 -14 -56 -20
-42 -26 12 -6 7 -7 -14 -3 -18 2 -33 0 -33 -5 0 -6 -11 -10 -25 -10 -14 0 -25
5 -25 11 0 6 6 9 14 6 7 -3 23 1 35 10 12 8 50 23 84 33 76 22 80 22 73 11z
m429 -2 c-67 -10 -101 -22 -40 -14 22 3 65 5 95 6 41 0 50 3 35 9 -15 7 -11 9
20 7 34 -2 41 -6 43 -25 l4 -24 -119 2 c-65 1 -151 -3 -192 -9 -67 -11 -93
-10 -79 5 3 3 25 6 49 8 76 5 85 9 39 16 l-45 7 45 3 45 3 -35 7 c-23 5 5 7
80 7 104 1 109 0 55 -8z m-391 -28 c10 -11 30 -22 44 -26 26 -7 25 -8 -22 -26
-45 -18 -77 -18 -47 0 16 10 -18 21 -66 21 -18 0 -33 5 -33 11 0 5 4 8 9 5 4
-3 25 4 47 14 47 24 47 24 68 1z m2099 -32 c166 -13 281 -18 337 -14 119 10
291 8 303 -4 12 -12 -29 -35 -46 -25 -6 4 -9 4 -5 0 15 -17 -89 -86 -130 -86
-10 0 -22 -4 -28 -9 -10 -11 -150 -32 -197 -30 -34 2 -31 3 108 27 59 11 63
10 -90 22 -66 5 -140 12 -165 16 -35 4 -42 3 -30 -6 12 -9 7 -10 -22 -5 -24 4
-38 2 -38 -5 0 -5 8 -10 18 -10 9 0 35 -3 57 -6 38 -6 39 -6 20 9 -29 23 3 23
35 0 14 -10 26 -17 28 -15 7 7 32 0 32 -9 0 -9 -21 -10 -72 -5 -90 8 -174 29
-171 44 2 7 -11 9 -35 7 -36 -5 -36 -4 -9 7 15 7 27 15 27 20 0 11 -18 10 -25
-2 -3 -5 -12 -7 -20 -3 -8 3 -15 0 -15 -6 0 -6 -5 -11 -12 -11 -9 0 -9 3 0 12
18 18 15 28 -8 28 -11 0 -20 -4 -20 -10 0 -5 -11 -10 -24 -10 -20 0 -22 4 -18
26 2 14 11 28 18 30 47 14 49 17 14 25 -19 4 -39 4 -44 -1 -10 -10 -36 -2 -36
11 0 11 -33 13 263 -12z m-288 1 c-3 -5 -1 -10 6 -10 7 0 10 -3 6 -6 -9 -9
-28 6 -22 17 4 5 8 9 11 9 3 0 2 -4 -1 -10z m-1696 -14 c-2 -3 -40 -18 -84
-35 -86 -33 -89 -22 -3 14 47 20 99 32 87 21z m1757 -11 c-11 -8 -22 -12 -25
-9 -6 6 19 24 34 24 6 -1 1 -7 -9 -15z m-2142 -19 c-2 -18 27 -22 57 -6 15 8
19 7 19 -5 0 -8 -6 -15 -12 -15 -9 0 -8 -4 2 -10 11 -7 5 -10 -25 -11 -22 -1
-45 -1 -52 0 -6 1 -14 -3 -18 -9 -8 -12 -55 -13 -55 -1 0 5 12 12 27 16 21 5
24 8 12 16 -7 5 -21 9 -29 9 -13 0 -13 -1 0 -10 13 -8 12 -10 -4 -10 -14 0
-17 -5 -12 -22 3 -13 6 -33 6 -45 0 -15 6 -23 18 -24 9 -1 -5 -5 -33 -9 -75
-12 -315 -12 -315 0 0 6 6 10 14 10 26 0 171 52 231 84 71 36 146 65 160 62 6
-2 9 -11 9 -20z m2076 9 c14 -8 21 -14 15 -14 -5 0 -21 6 -35 14 -14 8 -20 14
-15 14 6 0 21 -6 35 -14z m60 -25 c0 -5 -2 -10 -4 -10 -3 0 -8 5 -11 10 -3 6
-1 10 4 10 6 0 11 -4 11 -10z m-1991 -26 c2 -2 -4 -4 -15 -4 -11 0 -30 -7 -42
-16 -30 -21 -39 -12 -15 14 16 17 55 20 72 6z m-1135 -53 c81 -65 283 -141
445 -167 130 -22 347 -14 448 15 93 27 264 95 328 130 67 38 137 59 215 67
117 11 321 -32 377 -80 23 -20 26 -30 27 -92 1 -38 5 -72 11 -76 5 -4 7 -9 5
-11 -3 -2 -106 -29 -230 -61 -254 -64 -256 -65 -401 -135 -185 -89 -337 -116
-494 -87 -166 31 -259 58 -345 101 -164 82 -354 242 -421 355 -59 100 -51 110
35 41z m1034 9 c15 -1 14 -3 -2 -15 -27 -21 -42 -19 -42 5 0 13 5 19 14 15 7
-3 21 -5 30 -5z m902 -142 c0 -30 20 -110 44 -177 9 -24 16 -45 16 -47 0 -1
-26 -5 -57 -9 -113 -12 -187 -26 -262 -52 -84 -28 -166 -67 -176 -83 -4 -6
-16 -8 -28 -5 -15 4 -18 3 -9 -3 10 -7 4 -16 -25 -38 -21 -15 -46 -36 -57 -46
-13 -12 -28 -15 -50 -12 -25 5 -28 3 -16 -6 13 -10 12 -11 -3 -6 -10 3 -46 6
-80 6 -59 1 -61 1 -37 15 25 14 25 14 3 15 -29 0 -29 16 -1 31 17 9 24 9 33
-5 11 -14 14 -13 35 9 30 31 40 32 40 1 0 -14 5 -28 10 -31 6 -4 10 12 10 40
0 43 3 48 30 58 45 17 36 31 -16 23 -25 -3 -43 -2 -40 3 3 4 -7 6 -22 3 -18
-3 -24 -1 -17 5 14 14 98 45 91 34 -9 -14 28 -19 42 -5 9 10 7 13 -11 16 -18
2 55 33 232 96 10 4 12 1 6 -7 -5 -9 0 -8 16 2 30 19 158 57 193 57 27 0 31
10 27 58 -2 28 16 89 30 98 5 3 14 -5 19 -18 9 -20 10 -20 9 -3 -2 34 1 41 11
25 5 -8 10 -27 10 -42z m-1848 -123 c35 -25 91 -63 126 -86 34 -22 62 -45 62
-51 0 -5 6 -8 12 -6 7 3 50 -15 96 -39 45 -24 90 -43 100 -43 11 0 13 -3 5 -8
-6 -4 6 -8 28 -8 21 -1 45 -6 52 -13 8 -6 16 -9 19 -6 3 3 32 -2 64 -11 36 -9
115 -17 201 -20 156 -5 198 4 328 67 39 19 63 25 69 19 6 -6 18 -10 27 -10 20
0 35 -18 24 -28 -3 -3 -9 -1 -14 6 -4 6 -20 13 -36 16 -17 2 -24 1 -17 -1 13
-5 17 -23 4 -23 -4 0 -14 6 -21 13 -10 10 -14 8 -23 -7 -6 -11 -21 -29 -33
-40 -12 -12 -21 -29 -19 -38 2 -14 -5 -18 -27 -18 -35 0 -37 7 -6 21 17 7 14
8 -13 2 -38 -8 -131 -7 -170 2 -19 4 -21 3 -10 -5 8 -5 27 -10 43 -10 15 0 27
-4 27 -9 0 -5 36 -12 81 -16 44 -4 78 -10 75 -12 -9 -10 -231 19 -239 31 -6 7
-7 4 -3 -7 3 -10 6 -26 6 -34 0 -14 20 -15 168 -11 152 5 162 4 112 -8 -69
-16 -467 -18 -595 -3 -201 24 -518 143 -619 232 -33 29 -50 57 -27 42 17 -10
31 32 31 93 0 32 3 62 7 65 15 16 45 5 105 -38z m1901 -212 c-13 -2 -23 -9
-23 -15 0 -6 9 -8 20 -5 11 3 18 1 15 -4 -9 -14 -124 -45 -215 -59 -47 -6 -96
-16 -109 -21 -15 -6 -28 -6 -34 0 -11 11 8 15 147 36 54 8 102 17 105 21 3 4
-5 4 -19 1 -41 -9 -177 -17 -150 -9 l25 8 -30 6 c-16 4 -34 2 -39 -3 -6 -6 -5
-9 5 -9 22 0 -11 -20 -35 -20 -15 0 -16 3 -6 15 10 12 9 15 -7 15 -16 0 -19
-6 -18 -29 2 -28 0 -30 -29 -25 -29 4 -29 4 -7 -6 31 -14 28 -16 -44 -30 -120
-23 -115 -24 -70 15 71 62 131 83 283 100 75 9 142 18 147 20 6 2 33 3 60 3
28 0 40 -3 28 -5z"/>
<path d="M5388 7473 c17 -2 47 -2 65 0 17 2 3 4 -33 4 -36 0 -50 -2 -32 -4z"/>
<path d="M4930 7460 c-12 -8 -11 -10 8 -10 12 0 22 5 22 10 0 13 -11 13 -30 0z"/>
<path d="M4998 7433 c6 -2 18 -2 25 0 6 3 1 5 -13 5 -14 0 -19 -2 -12 -5z"/>
<path d="M7498 7413 c7 -3 16 -2 19 1 4 3 -2 6 -13 5 -11 0 -14 -3 -6 -6z"/>
<path d="M7280 7395 c0 -11 10 -15 38 -14 32 2 33 3 8 6 -22 4 -26 7 -15 14
11 7 9 9 -8 9 -14 0 -23 -6 -23 -15z"/>
<path d="M7550 7406 c0 -2 14 -6 30 -8 17 -3 30 -1 30 4 0 4 -13 8 -30 8 -16
0 -30 -2 -30 -4z"/>
<path d="M7208 7383 c6 -2 18 -2 25 0 6 3 1 5 -13 5 -14 0 -19 -2 -12 -5z"/>
<path d="M7435 7385 c25 -9 107 -12 94 -4 -8 5 -34 8 -59 8 -25 0 -40 -2 -35
-4z"/>
<path d="M7128 7373 c6 -2 18 -2 25 0 6 3 1 5 -13 5 -14 0 -19 -2 -12 -5z"/>
<path d="M7620 7370 c0 -6 -10 -15 -22 -20 -14 -5 -17 -9 -7 -9 23 -1 55 24
41 33 -7 4 -12 2 -12 -4z"/>
<path d="M7343 7363 c9 -2 23 -2 30 0 6 3 -1 5 -18 5 -16 0 -22 -2 -12 -5z"/>
<path d="M7440 7361 c0 -5 19 -11 43 -13 31 -2 42 -7 41 -19 -1 -11 5 -14 22
-11 28 5 32 22 6 22 -10 0 -22 4 -27 9 -15 13 -85 23 -85 12z"/>
<path d="M7548 7353 c7 -3 16 -2 19 1 4 3 -2 6 -13 5 -11 0 -14 -3 -6 -6z"/>
<path d="M7045 7330 c-8 -13 5 -13 25 0 13 8 13 10 -2 10 -9 0 -20 -4 -23 -10z"/>
<path d="M7453 7333 c9 -2 23 -2 30 0 6 3 -1 5 -18 5 -16 0 -22 -2 -12 -5z"/>
<path d="M4690 7400 c-8 -5 -11 -12 -7 -16 4 -4 15 0 24 9 18 18 8 23 -17 7z"/>
<path d="M4520 7320 c-9 -6 -10 -10 -3 -10 6 0 15 5 18 10 8 12 4 12 -15 0z"/>
<path d="M5233 6923 c9 -2 25 -2 35 0 9 3 1 5 -18 5 -19 0 -27 -2 -17 -5z"/>
<path d="M5155 6910 c-3 -5 1 -10 9 -10 8 0 18 5 21 10 3 6 -1 10 -9 10 -8 0
-18 -4 -21 -10z"/>
<path d="M5277 6863 c3 -7 8 -13 12 -13 4 0 15 6 24 13 15 11 14 12 -12 12
-19 0 -27 -4 -24 -12z"/>
<path d="M5225 6840 c-10 -12 -13 -20 -7 -20 7 0 12 4 12 9 0 5 8 11 18 13 11
2 13 6 6 10 -6 4 -19 -1 -29 -12z"/>
<path d="M5124 6778 c-4 -5 -1 -15 5 -21 8 -8 16 -6 31 8 19 20 19 20 -5 21
-14 1 -28 -3 -31 -8z m26 -8 c0 -5 -4 -10 -10 -10 -5 0 -10 5 -10 10 0 6 5 10
10 10 6 0 10 -4 10 -10z"/>
<path d="M5008 6713 c6 -2 18 -2 25 0 6 3 1 5 -13 5 -14 0 -19 -2 -12 -5z"/>
<path d="M3860 6996 c0 -2 8 -10 18 -17 15 -13 16 -12 3 4 -13 16 -21 21 -21
13z"/>
<path d="M3997 6889 c5 -20 18 -25 27 -11 2 4 -4 13 -14 19 -15 10 -17 9 -13
-8z"/>
<path d="M4168 6818 c5 -5 16 -8 23 -6 8 3 3 7 -10 11 -17 4 -21 3 -13 -5z"/>
<path d="M4105 6810 c11 -5 27 -9 35 -9 9 0 8 4 -5 9 -11 5 -27 9 -35 9 -9 0
-8 -4 5 -9z"/>
<path d="M3902 6801 c-11 -6 -10 -10 4 -15 9 -3 19 -4 22 -1 3 3 0 5 -7 5 -7
0 -9 5 -6 10 7 12 4 12 -13 1z"/>
<path d="M4807 6763 c-10 -3 -30 -11 -45 -19 -27 -15 -27 -15 13 -8 22 4 42
10 45 14 3 4 14 10 25 13 l20 5 -20 0 c-11 0 -28 -2 -38 -5z"/>
<path d="M4008 6753 c6 -2 18 -2 25 0 6 3 1 5 -13 5 -14 0 -19 -2 -12 -5z"/>
<path d="M4335 6750 c-13 -5 -1 -8 38 -7 35 1 51 4 40 8 -24 10 -53 10 -78 -1z"/>
<path d="M4463 6739 c-6 -6 -35 -14 -64 -19 l-54 -8 45 -1 c25 0 51 3 59 8 8
5 25 3 43 -7 l31 -15 -29 -12 c-26 -11 -27 -12 -9 -18 21 -6 86 -11 123 -8 24
1 27 8 13 30 -8 12 -12 12 -24 2 -9 -7 -18 -8 -21 -3 -3 6 2 13 12 17 15 7 14
9 -8 15 -14 5 -41 8 -62 9 -20 1 -38 6 -40 11 -2 7 -7 7 -15 -1z"/>
<path d="M4285 6730 c-3 -5 1 -10 10 -10 9 0 13 5 10 10 -3 6 -8 10 -10 10 -2
0 -7 -4 -10 -10z"/>
<path d="M4180 6700 c-23 -7 -23 -8 -3 -9 12 -1 25 4 28 9 3 6 5 10 3 9 -2 -1
-14 -5 -28 -9z"/>
<path d="M4248 6703 c7 -3 16 -2 19 1 4 3 -2 6 -13 5 -11 0 -14 -3 -6 -6z"/>
<path d="M4298 6693 c7 -3 16 -2 19 1 4 3 -2 6 -13 5 -11 0 -14 -3 -6 -6z"/>
<path d="M4353 6693 c9 -2 23 -2 30 0 6 3 -1 5 -18 5 -16 0 -22 -2 -12 -5z"/>
<path d="M4233 6683 c9 -2 23 -2 30 0 6 3 -1 5 -18 5 -16 0 -22 -2 -12 -5z"/>
<path d="M4298 6673 c7 -3 16 -2 19 1 4 3 -2 6 -13 5 -11 0 -14 -3 -6 -6z"/>
<path d="M4378 6663 c7 -3 16 -2 19 1 4 3 -2 6 -13 5 -11 0 -14 -3 -6 -6z"/>
<path d="M5520 6800 c0 -5 6 -10 14 -10 8 0 18 5 21 10 3 6 -3 10 -14 10 -12
0 -21 -4 -21 -10z"/>
<path d="M5318 6763 c7 -3 16 -2 19 1 4 3 -2 6 -13 5 -11 0 -14 -3 -6 -6z"/>
<path d="M5280 6720 c0 -5 5 -10 11 -10 5 0 7 5 4 10 -3 6 -8 10 -11 10 -2 0
-4 -4 -4 -10z"/>
<path d="M5208 6703 c6 -2 18 -2 25 0 6 3 1 5 -13 5 -14 0 -19 -2 -12 -5z"/>
<path d="M3352 7523 c5 -26 38 -29 38 -4 0 15 -6 21 -21 21 -14 0 -19 -5 -17
-17z"/>
<path d="M3031 7504 c0 -11 3 -14 6 -6 3 7 2 16 -1 19 -3 4 -6 -2 -5 -13z"/>
<path d="M3022 7460 c0 -14 2 -19 5 -12 2 6 2 18 0 25 -3 6 -5 1 -5 -13z"/>
<path d="M3022 7390 c0 -19 2 -27 5 -17 2 9 2 25 0 35 -3 9 -5 1 -5 -18z"/>
<path d="M3316 7166 c-23 -36 -22 -86 2 -86 24 0 52 31 52 57 0 11 -8 27 -19
37 -17 16 -19 15 -35 -8z"/>
<path d="M6407 7079 c7 -7 15 -10 18 -7 3 3 -2 9 -12 12 -14 6 -15 5 -6 -5z"/>
<path d="M6450 7046 c7 -7 13 -7 20 0 6 6 3 10 -10 10 -13 0 -16 -4 -10 -10z"/>
<path d="M7800 7025 c-7 -8 -19 -15 -26 -15 -8 0 -14 -4 -14 -9 0 -14 48 0 55
16 8 22 0 26 -15 8z"/>
<path d="M6515 7010 c3 -5 11 -10 16 -10 6 0 7 5 4 10 -3 6 -11 10 -16 10 -6
0 -7 -4 -4 -10z"/>
<path d="M6381 6978 c5 -10 11 -18 12 -18 2 0 3 8 3 18 0 10 -6 19 -13 19 -8
0 -9 -6 -2 -19z"/>
<path d="M6565 6970 c-3 -6 1 -7 9 -4 18 7 21 14 7 14 -6 0 -13 -4 -16 -10z"/>
<path d="M6525 6870 c-3 -5 -1 -10 4 -10 6 0 11 5 11 10 0 6 -2 10 -4 10 -3 0
-8 -4 -11 -10z"/>
<path d="M5963 6823 c9 -2 23 -2 30 0 6 3 -1 5 -18 5 -16 0 -22 -2 -12 -5z"/>
<path d="M7068 6823 c7 -3 16 -2 19 1 4 3 -2 6 -13 5 -11 0 -14 -3 -6 -6z"/>
<path d="M7038 6803 c7 -3 16 -2 19 1 4 3 -2 6 -13 5 -11 0 -14 -3 -6 -6z"/>
<path d="M6180 6563 c-92 -8 -214 -27 -302 -48 -106 -26 -125 -32 -453 -140
-317 -105 -328 -107 -660 -131 -444 -31 -602 2 -864 180 -110 75 -189 88 -242
40 -22 -20 -26 -102 -8 -182 7 -37 6 -90 -5 -208 -23 -246 -3 -371 68 -428 39
-31 203 -105 311 -139 172 -56 394 -74 690 -58 992 54 1145 61 1551 70 270 7
485 6 660 -1 407 -16 674 3 789 57 95 46 154 158 170 325 8 84 -10 203 -37
251 -39 71 -104 101 -248 119 -90 11 -299 61 -465 112 -55 16 -149 45 -210 64
-115 35 -447 101 -550 110 -108 9 -159 11 -195 7z m-62 -62 c34 1 35 2 12 10
-16 5 31 7 124 4 82 -2 152 -7 155 -12 3 -4 20 -10 36 -12 17 -1 33 -8 36 -13
4 -6 15 -7 26 -4 13 4 29 -1 43 -12 21 -17 21 -19 5 -35 -9 -9 -12 -17 -6 -17
23 0 10 -26 -19 -37 -21 -8 -30 -8 -34 1 -3 8 -7 8 -13 0 -5 -7 -69 -13 -168
-17 -143 -5 -158 -4 -140 9 13 10 33 14 60 10 37 -5 38 -4 11 6 -20 7 -39 7
-66 -1 -45 -13 -146 -14 -115 -1 l20 9 -20 -1 c-11 0 -31 -3 -45 -7 -24 -7
-24 -8 10 -16 19 -5 49 -8 65 -7 49 1 -103 -35 -200 -48 -49 -7 -139 -25 -200
-40 -143 -36 -260 -52 -354 -49 -42 2 -82 -1 -90 -5 -7 -5 -63 -10 -125 -11
-61 -1 -133 -3 -161 -5 -49 -3 -49 -3 -15 -10 27 -6 23 -7 -18 -4 -34 3 -51 1
-47 -6 4 -6 -11 -8 -42 -5 -41 4 -43 3 -18 -5 24 -8 19 -8 -25 -5 -66 5 -138
-4 -118 -16 11 -7 -153 -3 -195 6 -9 2 -14 -1 -11 -6 7 -12 -24 -6 -136 28
-94 28 -260 87 -220 78 40 -9 299 -45 360 -50 97 -9 370 -12 370 -5 0 4 32 10
71 14 39 3 113 16 166 27 52 11 101 18 109 15 8 -3 13 -2 10 3 -3 5 20 12 51
16 31 4 65 11 77 15 12 5 60 21 109 36 79 24 87 29 87 52 0 20 2 22 15 12 8
-6 18 -9 23 -6 6 3 68 22 138 41 71 19 169 46 218 59 52 14 101 22 118 19 20
-4 28 -1 29 8 0 10 2 11 6 2 2 -8 21 -13 41 -12z m599 -67 c-3 -3 -12 -4 -19
-1 -8 3 -5 6 6 6 11 1 17 -2 13 -5z m-79 -11 c-10 -2 -26 -2 -35 0 -10 3 -2 5
17 5 19 0 27 -2 18 -5z m172 -13 c18 -12 2 -12 -25 0 -13 6 -15 9 -5 9 8 0 22
-4 30 -9z m79 -16 c10 -9 -35 -3 -49 6 -11 8 -7 9 15 4 17 -4 32 -8 34 -10z
m101 -28 l35 -13 -39 -7 c-21 -4 -41 -5 -44 -2 -3 3 6 6 19 6 23 1 22 2 -6 15
-38 17 -12 18 35 1z m125 -31 c11 -2 49 -11 85 -20 36 -9 76 -19 90 -22 14 -2
45 -10 70 -18 25 -7 90 -23 145 -35 216 -47 235 -52 249 -71 7 -10 16 -16 20
-12 3 4 4 -9 1 -28 -4 -23 -3 -28 3 -15 8 18 9 18 15 2 10 -25 21 -126 14
-126 -17 0 -36 14 -31 22 4 6 10 5 16 -3 7 -10 8 -7 4 11 -3 14 -6 34 -6 44 0
28 -10 13 -20 -27 -6 -27 -4 -39 9 -53 15 -16 13 -16 -14 1 -16 10 -38 26 -48
35 -22 21 -85 40 -151 46 -131 12 -240 50 -385 135 -30 18 -78 40 -105 51 -47
18 -23 20 29 3 16 -6 17 -5 5 4 -13 10 -13 12 0 20 23 15 6 23 -25 11 -15 -6
-30 -9 -32 -6 -3 2 5 7 16 11 31 10 25 33 -11 45 l-33 10 35 -6 c19 -3 44 -7
55 -9z m-98 -1 c-3 -3 -12 -4 -19 -1 -8 3 -5 6 6 6 11 1 17 -2 13 -5z m-37 -8
c0 -2 -7 -6 -15 -10 -8 -3 -15 -1 -15 4 0 6 7 10 15 10 8 0 15 -2 15 -4z m80
-2 c0 -19 -30 -32 -56 -24 l-29 8 33 1 c17 1 32 6 32 11 0 6 5 10 10 10 6 0
10 -3 10 -6z m-459 -29 c147 -25 305 -82 529 -190 226 -109 285 -127 438 -140
92 -8 117 -22 127 -72 12 -57 -48 -90 -210 -113 -136 -19 -414 -5 -485 24 -19
8 -120 34 -225 56 -104 23 -230 55 -278 71 -64 21 -107 29 -158 29 -114 0
-323 -37 -592 -104 -176 -45 -291 -68 -379 -77 -90 -9 -128 -17 -128 -26 0 -7
-10 -15 -22 -18 -13 -2 -73 -16 -135 -30 -61 -14 -154 -29 -205 -35 -124 -13
-328 -13 -308 0 11 7 6 8 -18 4 -26 -5 -31 -4 -26 9 3 10 -2 18 -16 22 -37 12
-14 17 25 6 21 -5 35 -8 32 -4 -3 3 2 14 12 25 17 18 32 19 289 16 149 -2 265
0 259 3 -7 4 -142 9 -302 12 -254 5 -308 8 -435 31 -230 42 -381 77 -432 101
-49 24 -77 19 -33 -5 13 -7 22 -18 18 -23 -3 -6 -2 -8 3 -5 5 3 18 2 29 -3 19
-8 19 -8 -2 -15 -56 -16 0 -101 120 -181 38 -26 48 -39 22 -30 -8 4 -17 2 -20
-3 -4 -7 -13 -6 -25 0 -10 5 -25 10 -32 9 -9 0 -9 -2 2 -6 8 -4 21 -13 30 -21
8 -8 10 -13 4 -11 -5 2 -54 22 -109 43 -55 22 -125 54 -157 73 -75 44 -84 71
-72 219 8 93 7 110 -7 128 -37 48 -42 66 -23 87 23 26 132 79 161 79 26 0 199
-54 353 -110 271 -98 434 -101 940 -19 135 22 367 67 515 100 472 105 720 130
926 94z m416 -21 c-3 -3 -12 -4 -19 -1 -8 3 -5 6 6 6 11 1 17 -2 13 -5z
m-2044 -111 c-7 -2 -21 -2 -30 0 -10 3 -4 5 12 5 17 0 24 -2 18 -5z m2847
-214 c0 -6 -4 -7 -10 -4 -5 3 -10 11 -10 16 0 6 5 7 10 4 6 -3 10 -11 10 -16z
m-1437 -6 c4 -3 17 -7 30 -9 12 -1 66 -18 119 -38 54 -19 146 -45 205 -56 59
-11 126 -25 148 -30 22 -6 54 -12 71 -15 17 -3 49 -12 70 -21 79 -33 646 -17
693 20 12 9 13 3 8 -44 -9 -78 -34 -98 -177 -137 -62 -16 -254 -28 -246 -14 3
5 -10 11 -30 14 -47 8 -166 75 -158 89 4 6 3 8 -3 5 -5 -3 -25 4 -44 17 -70
48 -126 56 -464 73 -263 13 -357 14 -530 4 -115 -6 -233 -11 -262 -11 -30 0
-53 -5 -55 -12 -5 -14 -58 -3 -58 12 0 6 11 8 24 4 14 -3 33 -1 43 5 15 9 13
10 -11 5 -19 -5 -27 -3 -23 3 4 6 19 13 34 16 16 3 66 17 113 31 185 55 484
108 503 89z m-699 -159 c9 -23 8 -24 -16 -23 -22 0 -22 1 -3 10 15 7 11 8 -15
3 -19 -3 -53 -8 -75 -10 -31 -3 -26 0 25 15 36 10 68 19 71 20 4 0 10 -6 13
-15z m371 -43 c-28 -7 -27 -8 20 -15 28 -5 76 -8 108 -7 33 1 57 -3 57 -9 0
-7 -49 -10 -140 -8 -77 2 -140 6 -140 11 0 4 -14 7 -32 7 -17 0 -29 2 -26 5 6
7 119 22 158 23 22 0 21 -1 -5 -7z m184 -7 c2 -2 -27 -4 -65 -3 -44 0 -62 3
-49 8 18 7 104 3 114 -5z m566 0 c74 -6 177 -29 213 -48 32 -17 101 -86 86
-86 -6 0 -14 3 -18 7 -4 4 -15 8 -24 8 -9 0 -17 7 -17 15 0 8 -13 20 -30 26
-16 7 -29 17 -27 23 1 7 -3 11 -10 10 -34 -4 -59 2 -52 13 5 8 -9 9 -56 5 -35
-4 -84 -7 -109 -8 l-46 -1 35 -8 c19 -5 46 -7 60 -4 22 4 23 3 5 -5 l-20 -10
20 -1 c18 -1 17 -2 -4 -11 -13 -5 -29 -8 -35 -5 -6 2 -2 5 9 6 11 1 -2 7 -30
14 -33 9 -110 13 -229 12 -99 0 -167 2 -150 5 16 4 83 8 149 10 104 2 111 3
55 8 -47 5 -58 8 -40 13 14 4 3 5 -25 3 -27 -1 -68 -7 -89 -13 -24 -6 -46 -7
-55 -2 -12 6 0 11 39 16 54 8 54 8 20 15 -37 8 271 2 375 -7z m-2252 -1 c-7
-2 -21 -2 -30 0 -10 3 -4 5 12 5 17 0 24 -2 18 -5z m1810 0 c-7 -2 -21 -2 -30
0 -10 3 -4 5 12 5 17 0 24 -2 18 -5z m-485 -24 c21 0 46 -4 57 -9 13 -5 -2 -7
-40 -4 -46 3 -54 1 -35 -6 22 -9 21 -9 -9 -5 -18 3 -41 6 -50 6 -9 1 -2 5 14
9 l30 8 -35 2 -35 2 30 7 c17 4 32 3 33 -1 2 -4 20 -8 40 -9z m-175 -16 c-7
-2 -21 -2 -30 0 -10 3 -4 5 12 5 17 0 24 -2 18 -5z m412 -3 c29 -4 39 -8 23
-9 -16 0 -28 -5 -28 -11 0 -5 -3 -9 -7 -9 -5 1 -12 0 -18 -2 -5 -2 82 -6 195
-9 l205 -6 -245 0 c-135 -1 -227 2 -205 5 26 4 41 12 43 23 3 13 -6 18 -40 21
-36 3 -37 4 -8 4 19 1 58 -2 85 -7z m775 1 c0 -5 -9 -7 -20 -4 -11 3 -20 7
-20 9 0 2 9 4 20 4 11 0 20 -4 20 -9z m-1243 -7 c-3 -3 -12 -4 -19 -1 -8 3 -5
6 6 6 11 1 17 -2 13 -5z m383 -14 c16 -4 -4 -7 -55 -7 -62 0 -71 2 -40 7 53 9
65 9 95 0z m683 -17 c-7 -2 -19 -2 -25 0 -7 3 -2 5 12 5 14 0 19 -2 13 -5z
m-1288 -27 c-11 -8 -26 -11 -34 -8 -11 4 -7 9 14 18 36 15 46 9 20 -10z m1128
17 c-7 -2 -19 -2 -25 0 -7 3 -2 5 12 5 14 0 19 -2 13 -5z m320 0 c-7 -2 -19
-2 -25 0 -7 3 -2 5 12 5 14 0 19 -2 13 -5z m-245 -10 c-10 -2 -28 -2 -40 0
-13 2 -5 4 17 4 22 1 32 -1 23 -4z m-1248 -27 c8 -3 5 -4 -7 -2 -13 2 -26 0
-29 -5 -3 -5 -10 -9 -16 -9 -6 0 -3 8 8 19 10 10 21 15 24 11 3 -4 12 -10 20
-14z m1417 18 c-3 -3 -12 -4 -19 -1 -8 3 -5 6 6 6 11 1 17 -2 13 -5z m-2677
-24 c13 -8 13 -10 -2 -10 -9 0 -20 5 -23 10 -8 13 5 13 25 0z"/>
<path d="M6198 6503 c23 -2 61 -2 85 0 23 2 4 4 -43 4 -47 0 -66 -2 -42 -4z"/>
<path d="M5988 6493 c-10 -3 -18 -12 -17 -21 0 -11 2 -12 6 -4 2 6 9 10 14 6
5 -3 9 -1 9 5 0 6 20 8 53 4 28 -3 50 -4 47 -1 -8 8 -92 16 -112 11z"/>
<path d="M6240 6490 l-105 -6 95 -1 c52 -1 113 2 135 6 47 10 34 10 -125 1z"/>
<path d="M6408 6482 c-26 -5 -22 -22 5 -22 32 0 54 16 30 22 -10 2 -26 2 -35
0z"/>
<path d="M6414 6411 c-5 -5 -18 -11 -29 -14 -11 -3 7 -5 40 -5 33 0 53 2 45 5
-8 3 -22 9 -31 14 -9 4 -20 4 -25 0z"/>
<path d="M6480 6416 c0 -2 7 -6 15 -10 8 -3 15 -1 15 4 0 6 -7 10 -15 10 -8 0
-15 -2 -15 -4z"/>
<path d="M5938 6363 c-10 -2 -18 -13 -18 -24 0 -19 2 -19 22 -5 14 10 27 12
38 6 12 -6 23 -5 36 5 18 14 18 14 -8 15 -14 0 -32 2 -40 4 -7 2 -21 2 -30 -1z"/>
<path d="M5740 6310 c-21 -7 -21 -8 -5 -9 11 0 27 4 35 9 18 11 5 11 -30 0z"/>
<path d="M5670 6300 c8 -5 20 -10 25 -10 6 0 3 5 -5 10 -8 5 -19 10 -25 10 -5
0 -3 -5 5 -10z"/>
<path d="M5588 6263 c7 -3 16 -2 19 1 4 3 -2 6 -13 5 -11 0 -14 -3 -6 -6z"/>
<path d="M5208 6223 c6 -2 18 -2 25 0 6 3 1 5 -13 5 -14 0 -19 -2 -12 -5z"/>
<path d="M4385 6180 c11 -5 27 -9 35 -9 9 0 8 4 -5 9 -11 5 -27 9 -35 9 -9 0
-8 -4 5 -9z"/>
<path d="M4673 6173 c9 -2 25 -2 35 0 9 3 1 5 -18 5 -19 0 -27 -2 -17 -5z"/>
<path d="M7208 6283 c7 -3 16 -2 19 1 4 3 -2 6 -13 5 -11 0 -14 -3 -6 -6z"/>
<path d="M7156 6257 c-6 -26 0 -37 22 -36 13 0 13 2 3 6 -10 4 -5 10 15 18
l29 11 -32 11 c-28 10 -32 9 -37 -10z"/>
<path d="M7308 6263 c7 -3 16 -2 19 1 4 3 -2 6 -13 5 -11 0 -14 -3 -6 -6z"/>
<path d="M7348 6253 c6 -2 18 -2 25 0 6 3 1 5 -13 5 -14 0 -19 -2 -12 -5z"/>
<path d="M7408 6243 c6 -2 18 -2 25 0 6 3 1 5 -13 5 -14 0 -19 -2 -12 -5z"/>
<path d="M7215 6200 c4 -6 11 -8 16 -5 14 9 11 15 -7 15 -8 0 -12 -5 -9 -10z"/>
<path d="M7625 6192 c15 -4 9 -8 -25 -18 l-45 -14 40 6 c22 3 51 8 64 11 17 4
22 2 17 -6 -4 -6 -16 -11 -26 -11 -22 0 -27 -12 -22 -55 2 -20 11 -35 20 -38
10 -3 25 -8 35 -12 10 -4 17 -3 17 4 0 6 -10 11 -22 12 -13 0 -17 3 -10 6 6 2
12 13 12 24 0 20 15 26 25 9 3 -5 17 -10 31 -10 19 0 24 5 24 24 0 23 -22 55
-38 57 -10 1 -41 5 -82 11 -19 3 -26 3 -15 0z"/>
<path d="M7528 6183 c7 -3 16 -2 19 1 4 3 -2 6 -13 5 -11 0 -14 -3 -6 -6z"/>
<path d="M7338 6143 c7 -3 16 -2 19 1 4 3 -2 6 -13 5 -11 0 -14 -3 -6 -6z"/>
<path d="M7398 6113 c7 -3 16 -2 19 1 4 3 -2 6 -13 5 -11 0 -14 -3 -6 -6z"/>
<path d="M7718 6073 c7 -3 16 -2 19 1 4 3 -2 6 -13 5 -11 0 -14 -3 -6 -6z"/>
<path d="M7725 6040 c3 -5 8 -10 11 -10 2 0 4 5 4 10 0 6 -5 10 -11 10 -5 0
-7 -4 -4 -10z"/>
<path d="M5208 5753 c7 -3 16 -2 19 1 4 3 -2 6 -13 5 -11 0 -14 -3 -6 -6z"/>
<path d="M3950 5670 c8 -5 20 -10 25 -10 6 0 3 5 -5 10 -8 5 -19 10 -25 10 -5
0 -3 -5 5 -10z"/>
<path d="M7520 5630 c0 -5 5 -10 11 -10 5 0 7 5 4 10 -3 6 -8 10 -11 10 -2 0
-4 -4 -4 -10z"/>
<path d="M5978 5723 c7 -3 16 -2 19 1 4 3 -2 6 -13 5 -11 0 -14 -3 -6 -6z"/>
<path d="M6720 5719 c0 -5 19 -9 42 -9 49 0 47 5 -4 13 -21 3 -38 2 -38 -4z"/>
<path d="M7050 5630 c0 -5 5 -10 11 -10 5 0 7 5 4 10 -3 6 -8 10 -11 10 -2 0
-4 -4 -4 -10z"/>
<path d="M3395 6450 c3 -5 8 -10 11 -10 2 0 4 5 4 10 0 6 -5 10 -11 10 -5 0
-7 -4 -4 -10z"/>
<path d="M7979 6353 c3 -59 12 -73 44 -73 13 0 15 4 8 18 -5 9 -17 38 -26 65
-9 26 -20 47 -23 47 -4 0 -5 -26 -3 -57z"/>
<path d="M7971 5708 c-10 -27 5 -52 26 -44 8 3 12 2 9 -3 -6 -10 10 -25 37
-34 15 -6 17 1 17 48 l0 55 -40 0 c-33 0 -42 -4 -49 -22z"/>
<path d="M4460 5253 c-14 -2 -88 -8 -165 -13 -133 -8 -130 -8 55 -3 107 3 229
8 270 13 l75 7 -105 0 c-58 0 -116 -2 -130 -4z"/>
<path d="M3660 5175 c1 -84 33 -170 115 -300 37 -60 84 -139 103 -174 33 -60
33 -64 13 -58 -11 3 -19 1 -15 -4 3 -5 14 -9 24 -9 13 0 35 -28 74 -97 30 -54
53 -99 51 -101 -2 -2 -36 1 -77 7 -162 25 -225 58 -260 138 -16 35 -18 59 -14
155 4 94 4 105 -5 68 -6 -25 -22 -85 -36 -134 -31 -110 -28 -164 13 -207 41
-43 108 -83 199 -120 72 -30 90 -33 175 -32 52 0 149 11 215 22 105 19 168 23
515 27 217 3 431 9 475 15 165 22 245 86 245 199 0 41 -37 212 -67 305 -19 61
-64 137 -112 188 -41 43 -97 63 -350 122 -192 44 -264 51 -421 35 -95 -9 -180
-9 -355 -1 -126 6 -292 12 -367 14 l-138 3 0 -61z m447 -1 c-3 -3 -12 -4 -19
-1 -8 3 -5 6 6 6 11 1 17 -2 13 -5z m800 -65 c17 1 34 -2 37 -7 8 -13 -94 -7
-124 7 -22 10 -21 11 15 5 22 -3 54 -5 72 -5z m156 -24 c31 -4 59 -11 62 -15
2 -4 -15 -4 -38 1 -23 4 -59 8 -79 9 -20 0 -40 5 -44 11 -5 8 0 10 17 6 13 -3
50 -9 82 -12z m-363 -16 c25 -6 90 -30 145 -54 107 -46 205 -78 270 -89 l41
-7 12 -122 c10 -90 10 -141 2 -196 -12 -88 -14 -91 -48 -91 -22 0 -34 12 -67
62 -47 73 -83 118 -95 118 -10 0 70 -123 102 -157 l21 -23 -116 0 -117 0 0 68
c0 129 -53 295 -111 347 -37 33 -43 35 -110 35 -39 0 -79 5 -90 10 -17 9 -19
7 -19 -18 0 -34 17 -51 87 -86 42 -21 58 -36 77 -74 34 -67 66 -166 73 -223 5
-46 4 -49 -22 -59 -36 -14 -120 -2 -150 21 -13 11 -39 52 -58 92 -98 201 -118
249 -129 300 -11 50 -10 62 8 104 19 48 20 48 74 54 62 7 153 2 220 -12z m213
4 c-7 -2 -19 -2 -25 0 -7 3 -2 5 12 5 14 0 19 -2 13 -5z m-654 -25 c7 -11 29
-75 47 -142 39 -135 126 -321 185 -396 25 -31 51 -52 75 -60 53 -18 29 -26
-96 -34 -109 -7 -143 -11 -245 -25 -101 -14 -99 -15 -112 39 -6 26 -23 74 -37
105 -15 31 -24 61 -20 66 3 5 1 8 -4 7 -13 -4 -47 47 -128 190 -37 64 -84 143
-106 174 -57 86 -57 86 -1 91 26 2 134 4 238 5 185 2 191 1 204 -20z m744 15
c-7 -2 -19 -2 -25 0 -7 3 -2 5 12 5 14 0 19 -2 13 -5z m-15 -25 c2 -4 13 -6
25 -4 12 1 16 1 8 -1 -12 -4 -12 -6 0 -15 22 -15 -31 2 -71 23 l-35 18 35 -6
c19 -3 36 -10 38 -15z m199 11 c41 -14 35 -49 -9 -49 -19 0 -27 -4 -22 -12 9
-14 -38 -6 -87 16 -32 14 -33 14 -8 15 14 1 30 -4 36 -10 13 -13 43 -5 43 12
0 6 -6 9 -13 6 -8 -3 -29 -1 -48 4 l-34 9 38 -5 c20 -2 37 0 37 5 0 4 10 6 23
3 18 -4 19 -3 7 6 -19 14 -1 14 37 0z m0 -241 c-3 -7 -5 -2 -5 12 0 14 2 19 5
13 2 -7 2 -19 0 -25z m130 -324 c-3 -3 -12 -4 -19 -1 -8 3 -5 6 6 6 11 1 17
-2 13 -5z"/>
<path d="M4625 4683 c-39 -10 -36 -20 7 -20 31 0 38 2 23 8 -16 6 -12 8 17 8
20 1 39 -4 41 -11 3 -8 6 -6 6 5 1 13 -7 17 -36 16 -21 -1 -47 -3 -58 -6z"/>
<path d="M4251 4675 c2 -6 19 -40 38 -76 37 -72 36 -94 -4 -109 -60 -23 -81
-14 -122 51 -79 125 -78 124 -106 124 -31 1 -36 -11 -9 -20 11 -3 24 -18 31
-33 30 -66 95 -162 114 -168 12 -4 39 -6 60 -6 20 1 37 -3 37 -8 0 -15 57 -12
63 3 4 9 8 8 17 -3 9 -12 10 -8 6 20 -9 51 -75 185 -104 212 -13 13 -23 18
-21 13z m89 -235 c0 -5 -5 -10 -11 -10 -5 0 -7 5 -4 10 3 6 8 10 11 10 2 0 4
-4 4 -10z"/>
<path d="M5175 5020 c3 -5 10 -10 16 -10 5 0 9 5 9 10 0 6 -7 10 -16 10 -8 0
-12 -4 -9 -10z"/>
<path d="M5595 5198 c-23 -27 -26 -39 -22 -74 6 -55 45 -139 119 -252 71 -110
135 -242 143 -298 4 -24 -1 -73 -14 -129 -14 -65 -17 -91 -9 -97 39 -23 438
-15 531 12 57 17 97 58 108 110 13 69 11 135 -7 187 -18 56 -90 201 -110 224
-21 24 -18 27 29 24 23 -2 139 -3 258 -4 l217 -1 40 -32 c43 -35 49 -45 82
-151 22 -74 60 -138 100 -173 l25 -22 -35 0 c-19 0 -57 -5 -83 -11 -26 -6 -87
-14 -136 -18 l-87 -6 -37 56 c-20 30 -40 63 -43 71 -10 26 -61 20 -80 -9 -15
-24 -15 -28 1 -71 23 -60 65 -108 120 -134 39 -19 77 -23 287 -36 436 -25 772
-15 862 25 47 20 56 41 56 130 0 69 -54 275 -94 363 -20 42 -36 79 -36 82 0 3
26 6 58 6 70 0 85 9 80 46 -2 23 -9 30 -33 35 l-30 7 33 1 c28 1 32 4 32 30 0
24 -6 31 -32 40 -40 12 -428 17 -908 12 -289 -2 -381 0 -495 14 -214 26 -294
10 -338 -67 -37 -64 -16 -145 69 -274 34 -50 114 -215 141 -289 18 -49 23 -85
12 -85 -5 0 -9 11 -9 24 0 26 -12 30 -132 42 -57 6 -68 4 -68 -9 0 -16 20 -27
51 -27 10 0 19 -4 19 -10 0 -5 5 -10 11 -10 5 0 7 5 4 10 -4 7 2 9 18 5 14 -4
36 -2 49 5 22 11 22 10 4 -4 -11 -9 -24 -16 -29 -16 -4 0 -5 -4 -2 -10 3 -5 1
-10 -6 -10 -7 0 -10 -3 -7 -6 4 -3 18 2 33 12 l26 17 -12 -25 c-10 -24 -16
-26 -120 -32 -61 -4 -152 -4 -204 0 l-94 7 20 51 c26 65 21 161 -13 271 -64
200 -88 286 -102 365 -17 93 -39 122 -99 134 -61 12 -84 7 -112 -26z m1158
-95 c-7 -2 -19 -2 -25 0 -7 3 -2 5 12 5 14 0 19 -2 13 -5z m177 -18 l85 -14
-85 5 c-47 3 -103 9 -125 14 l-40 8 40 0 c22 0 78 -6 125 -13z m125 -15 c-27
-12 -43 -12 -25 0 8 5 22 9 30 9 10 0 8 -3 -5 -9z m144 6 c-2 -2 -26 -6 -53
-9 -30 -3 -43 -1 -35 4 13 8 97 13 88 5z m-765 -22 c156 -6 234 -14 471 -45
321 -43 497 -75 511 -93 14 -20 6 -73 -12 -80 -13 -5 -223 7 -335 20 -53 6
-56 8 -78 49 -14 26 -34 48 -52 55 -24 11 -33 9 -65 -10 -36 -23 -39 -23 -301
-17 -277 6 -296 9 -289 51 2 11 1 15 -1 9 -3 -7 -9 -13 -14 -13 -16 0 -10 26
11 45 19 17 19 19 2 32 -15 13 -13 14 22 8 22 -4 81 -8 130 -11z m1296 10 c-8
-1 -114 -4 -235 -6 -121 -2 -200 -1 -175 3 45 6 438 9 410 3z m117 -10 c-3 -3
-12 -4 -19 -1 -8 3 -5 6 6 6 11 1 17 -2 13 -5z m-1584 -11 c3 -5 -1 -14 -8
-20 -11 -10 -13 -9 -12 7 1 20 12 26 20 13z m1407 -148 c39 -20 47 -37 76
-163 32 -145 31 -233 -5 -246 -9 -3 -22 -9 -29 -12 -7 -4 -10 0 -6 9 11 31
-207 50 -256 22 -14 -8 -32 -14 -40 -14 -8 0 0 6 18 14 49 22 110 73 128 108
21 39 12 105 -21 165 -14 24 -25 50 -25 57 0 7 16 27 35 44 40 35 79 40 125
16z m-475 -65 c77 -6 158 -11 180 -13 l40 -2 13 -84 c19 -117 14 -127 -88
-160 -40 -12 -173 -1 -208 18 -26 14 -62 81 -91 170 -26 79 -26 94 -3 87 9 -3
80 -10 157 -16z m-75 -320 c13 -8 13 -10 -2 -10 -9 0 -20 5 -23 10 -8 13 5 13
25 0z m-773 -52 c-3 -8 -6 -5 -6 6 -1 11 2 17 5 13 3 -3 4 -12 1 -19z m911 13
c21 -7 43 -6 59 0 29 11 45 3 23 -11 -20 -13 -57 -11 -105 5 -46 15 -26 20 23
6z m132 -1 c0 -5 -7 -10 -15 -10 -8 0 -15 5 -15 10 0 6 7 10 15 10 8 0 15 -4
15 -10z m237 -6 c-3 -3 -12 -4 -19 -1 -8 3 -5 6 6 6 11 1 17 -2 13 -5z m60
-26 c-3 -8 -6 -5 -6 6 -1 11 2 17 5 13 3 -3 4 -12 1 -19z m56 15 c-7 -2 -21
-2 -30 0 -10 3 -4 5 12 5 17 0 24 -2 18 -5z m-1386 -29 c-3 -3 -12 -4 -19 -1
-8 3 -5 6 6 6 11 1 17 -2 13 -5z m1368 -4 c4 -6 -15 -9 -52 -8 l-58 1 50 7
c28 4 51 8 52 8 1 1 5 -2 8 -8z m-552 -17 c-7 -2 -19 -2 -25 0 -7 3 -2 5 12 5
14 0 19 -2 13 -5z m325 0 c-43 -2 -113 -2 -155 0 -43 1 -8 3 77 3 85 0 120 -2
78 -3z"/>
<path d="M5245 4300 c-128 -62 -181 -75 -380 -96 -38 -4 -59 -10 -45 -12 46
-8 240 19 309 42 64 22 201 91 201 101 0 6 8 10 -85 -35z"/>
<path d="M2966 4266 c5 -12 4 -17 -3 -13 -17 10 -47 -18 -37 -34 16 -25 44
-20 44 8 0 22 2 24 15 13 22 -18 18 -3 -6 23 -18 19 -19 19 -13 3z"/>
<path d="M7076 4244 c-14 -14 -14 -18 -1 -44 43 -84 137 -76 134 11 -2 34 -2
34 -6 4 -6 -40 -20 -55 -53 -55 -30 0 -58 26 -65 59 -4 21 2 24 65 34 15 3 8
5 -17 6 -26 0 -47 -5 -57 -15z"/>
<path d="M3535 4218 c-9 -23 -2 -61 13 -66 14 -4 15 31 2 63 -7 18 -9 18 -15
3z"/>
<path d="M6540 4220 c0 -5 4 -10 9 -10 6 0 13 5 16 10 3 6 -1 10 -9 10 -9 0
-16 -4 -16 -10z"/>
<path d="M5560 4190 c-13 -25 -6 -40 21 -40 16 0 20 6 17 27 -4 34 -23 41 -38
13z"/>
<path d="M3018 4182 c-3 -11 0 -19 7 -19 7 0 10 8 7 19 -2 10 -6 18 -7 18 -1
0 -5 -8 -7 -18z"/>
<path d="M7295 4180 c-9 -15 28 -74 49 -78 19 -4 36 13 36 36 0 8 -10 11 -32
7 -25 -5 -30 -3 -21 6 6 6 9 18 6 25 -6 16 -29 18 -38 4z"/>
<path d="M7461 4143 c-1 -23 23 -32 67 -25 37 7 25 22 -17 22 -22 0 -42 5 -44
13 -3 6 -6 2 -6 -10z"/>
<path d="M5687 4133 c-12 -11 -8 -31 7 -36 9 -4 14 2 14 19 0 24 -8 30 -21 17z"/>
<path d="M5803 4128 c0 -7 -4 -21 -8 -30 -5 -12 -3 -18 7 -18 19 0 38 20 38
42 0 20 -36 26 -37 6z"/>
<path d="M7151 4048 c-139 -7 -170 -12 -198 -29 -32 -20 -33 -22 -33 -92 0
-94 15 -145 89 -303 65 -142 84 -202 69 -228 -7 -12 -5 -14 6 -10 7 3 17 1 20
-5 11 -16 -12 -49 -44 -66 -32 -17 -90 -20 -90 -5 0 5 -7 7 -15 4 -15 -6 -125
42 -125 54 0 4 -16 25 -35 47 -19 22 -53 69 -75 105 -23 36 -68 108 -101 160
-34 52 -76 126 -96 164 -82 161 -114 183 -253 173 -80 -6 -114 -19 -160 -58
-22 -18 -25 -29 -24 -78 1 -55 5 -66 101 -294 36 -86 40 -145 14 -214 -19 -51
-44 -211 -35 -222 2 -2 50 2 106 9 63 8 278 16 558 19 498 7 490 6 516 66 18
44 18 79 -2 146 -23 78 -146 346 -193 420 -22 35 -39 65 -37 66 5 6 226 -17
289 -29 32 -6 68 -19 81 -29 34 -27 92 -152 122 -265 31 -116 33 -228 13 -655
-9 -192 -10 -298 -2 -425 7 -108 8 -187 2 -219 -5 -27 -15 -85 -21 -128 l-12
-77 28 -29 c15 -16 47 -36 69 -44 42 -15 257 -60 262 -55 2 2 17 37 35 78 40
95 78 246 49 197 -11 -18 -196 -111 -245 -123 -31 -8 -31 0 8 116 l31 95 8
695 c4 382 9 779 11 881 l4 186 -165 7 c-195 7 -309 6 -530 -6z m499 -82 c-52
-18 -105 -37 -117 -44 -31 -17 -53 -15 -23 3 40 23 74 38 90 41 8 2 35 9 60
18 25 8 54 15 65 14 11 0 -23 -14 -75 -32z m-340 14 c15 -5 -1 -6 -40 -3 -36
3 -67 7 -69 9 -8 7 84 2 109 -6z m85 -20 c7 -12 -12 -12 -40 0 -18 8 -17 9 7
9 15 1 30 -3 33 -9z m42 -16 c-3 -3 -12 -4 -19 -1 -8 3 -5 6 6 6 11 1 17 -2
13 -5z m-985 -206 c50 -92 82 -143 168 -266 28 -40 47 -78 44 -84 -4 -6 -3 -8
3 -5 6 4 22 -8 36 -27 l26 -33 -27 5 c-27 5 -27 5 -8 -17 14 -16 22 -18 32
-10 10 8 21 5 44 -14 46 -39 96 -52 196 -52 73 1 89 -2 79 -12 -15 -14 -373
-18 -421 -3 -21 6 5 9 91 10 66 1 108 5 93 9 -15 3 -36 13 -46 21 -10 8 -28
16 -41 18 -13 1 -36 17 -51 34 l-28 32 -161 1 c-156 0 -161 1 -154 20 3 11 6
52 6 90 0 73 -31 180 -78 275 -12 25 -26 59 -29 76 l-7 32 72 4 c47 2 74 8 77
17 5 16 22 -8 84 -121z m1336 23 c14 -8 32 -211 19 -211 -4 0 -18 25 -32 55
-13 30 -37 74 -51 97 -25 39 -26 42 -8 55 20 15 53 17 72 4z m-1471 -453 c-3
-8 -6 -5 -6 6 -1 11 2 17 5 13 3 -3 4 -12 1 -19z m116 -45 c-7 -2 -19 -2 -25
0 -7 3 -2 5 12 5 14 0 19 -2 13 -5z m322 -13 c4 -6 -24 -9 -77 -8 l-83 2 75 6
c41 4 76 7 77 8 1 1 5 -2 8 -8z m-252 -37 c-13 -2 -33 -2 -45 0 -13 2 -3 4 22
4 25 0 35 -2 23 -4z m-150 -10 c-7 -2 -19 -2 -25 0 -7 3 -2 5 12 5 14 0 19 -2
13 -5z"/>
<path d="M6370 3730 l-65 -7 68 -1 c39 -1 67 2 67 8 0 6 -1 9 -2 8 -2 -1 -32
-4 -68 -8z"/>
<path d="M6278 3723 c7 -3 16 -2 19 1 4 3 -2 6 -13 5 -11 0 -14 -3 -6 -6z"/>
<path d="M3547 3984 c-13 -14 -7 -52 10 -58 22 -9 35 6 31 35 -3 23 -27 37
-41 23z"/>
<path d="M5570 3984 c-48 -11 -446 -36 -686 -43 -168 -5 -290 -13 -302 -20
-28 -15 -71 -106 -82 -176 -8 -51 -7 -65 10 -100 36 -74 87 -123 174 -167 92
-46 146 -83 146 -101 0 -7 -15 -22 -32 -32 -26 -16 -51 -20 -118 -20 -110 0
-172 27 -236 99 -55 63 -117 217 -134 335 -14 91 -34 125 -86 147 -46 19 -141
17 -276 -5 -62 -10 -134 -22 -159 -25 l-46 -7 -6 -92 c-4 -51 -13 -168 -21
-262 -8 -93 -17 -246 -21 -339 l-7 -169 114 7 c62 4 154 14 203 22 50 7 164
19 255 25 592 38 599 40 662 177 38 82 45 139 24 180 -21 40 -78 78 -131 88
-22 3 -51 16 -63 28 -30 26 -55 74 -49 90 13 33 327 65 361 37 20 -17 139
-226 174 -306 16 -38 37 -95 45 -125 28 -96 27 -95 169 -92 307 6 448 29 488
77 24 29 16 121 -20 221 -18 49 -58 167 -90 261 -87 258 -139 315 -260 287z
m-14 -53 c-3 -4 5 -6 18 -4 35 7 128 -83 150 -144 10 -27 24 -61 33 -78 l16
-30 -31 29 c-19 17 -28 35 -25 45 4 12 2 13 -4 3 -8 -10 -16 -8 -37 9 -32 25
-143 40 -236 32 -30 -3 -71 0 -90 6 l-35 10 43 -5 c23 -3 60 -3 83 1 65 11 45
18 -83 30 -94 9 -104 26 -13 23 47 -1 69 3 82 14 10 9 32 20 48 24 17 4 38 15
48 25 18 19 43 27 33 10z m-101 -11 c-11 -5 -33 -8 -50 -8 -29 1 -29 1 5 8 49
10 69 10 45 0z m-200 -20 c-3 -5 -23 -10 -43 -10 -27 0 -33 -3 -22 -10 8 -5
33 -7 55 -4 30 4 36 3 25 -5 -8 -6 -28 -11 -45 -12 -16 0 -39 -5 -50 -10 -14
-7 -3 -8 37 -4 33 3 59 1 63 -5 3 -5 21 -10 38 -11 44 -1 25 -7 -56 -17 -37
-5 -64 -5 -60 -1 4 4 26 9 48 12 25 2 15 4 -30 5 -48 1 -65 -1 -55 -8 12 -8
11 -10 -7 -10 -30 0 -54 10 -47 21 3 5 -10 9 -28 9 -25 0 -30 -3 -18 -10 11
-7 2 -9 -30 -5 -62 7 -37 -3 35 -15 57 -9 56 -9 -20 -3 -44 3 -81 9 -83 14 -2
5 -8 9 -14 9 -6 0 -6 -6 2 -15 7 -8 25 -15 41 -15 15 0 31 -4 34 -10 3 -5 5
-10 3 -10 -9 0 -238 49 -273 59 -48 13 -83 36 -72 48 5 4 128 9 273 9 146 1
268 5 271 8 10 10 35 7 28 -4z m173 -87 c-10 -2 -26 -2 -35 0 -10 3 -2 5 17 5
19 0 27 -2 18 -5z m-99 -29 c10 -9 -45 -3 -59 6 -11 7 -5 8 20 4 19 -4 37 -8
39 -10z m-173 -6 c-66 -5 -103 -5 -110 2 -7 7 26 10 100 9 l109 -2 -99 -9z
m-952 -73 c3 -9 4 -21 1 -25 -3 -5 -1 -11 5 -15 5 -3 10 -22 10 -40 l0 -35
-145 2 -145 1 6 51 c3 28 7 56 9 62 2 7 47 12 128 13 107 2 125 0 131 -14z
m1445 -42 c132 -163 207 -294 196 -337 -5 -15 -4 -17 3 -8 8 11 10 11 15 -1 6
-16 -13 -67 -25 -67 -3 0 -4 -9 -1 -20 7 -25 -2 -26 -202 -40 -161 -10 -289
-12 -269 -4 16 7 1 93 -32 193 -28 85 -105 224 -151 272 l-25 27 104 9 c57 6
160 11 230 12 l127 1 30 -37z m-954 -12 c-6 -5 -25 10 -25 20 0 5 6 4 14 -3 8
-7 12 -15 11 -17z m-469 -88 c13 -45 49 -103 96 -157 97 -109 312 -186 444
-158 44 9 51 -1 9 -11 -15 -4 -13 -5 8 -6 17 -1 27 -7 27 -16 0 -8 5 -15 11
-15 6 0 8 9 4 20 -5 15 -2 20 12 21 16 0 16 1 -2 9 -19 8 -19 9 1 9 27 1 40
-26 16 -32 -12 -3 -11 -5 6 -6 17 -1 22 -7 22 -26 0 -25 -11 -30 -52 -27 -10
1 -18 -3 -18 -10 0 -6 -3 -8 -7 -5 -3 4 -12 2 -18 -3 -7 -6 -125 -12 -286 -15
-151 -3 -317 -9 -369 -14 -52 -5 -139 -10 -193 -11 l-97 -1 9 23 c5 13 16 73
25 133 9 61 24 156 34 213 l16 102 148 0 c133 0 149 -2 154 -17z m1654 -307
c0 -13 -7 -27 -16 -30 -12 -5 -15 -2 -10 10 3 8 6 22 6 30 0 8 5 14 10 14 6 0
10 -11 10 -24z"/>
<path d="M5600 3901 c0 -6 4 -13 10 -16 6 -3 7 1 4 9 -7 18 -14 21 -14 7z"/>
<path d="M5030 3880 l-55 -7 67 -1 c37 -1 70 3 73 8 7 11 2 11 -85 0z"/>
<path d="M5083 3853 c9 -2 23 -2 30 0 6 3 -1 5 -18 5 -16 0 -22 -2 -12 -5z"/>
<path d="M5393 3240 c0 -25 2 -35 4 -22 2 12 2 32 0 45 -2 12 -4 2 -4 -23z"/>
<path d="M5768 3263 c7 -3 16 -2 19 1 4 3 -2 6 -13 5 -11 0 -14 -3 -6 -6z"/>
<path d="M5421 3214 c0 -11 3 -14 6 -6 3 7 2 16 -1 19 -3 4 -6 -2 -5 -13z"/>
<path d="M5768 3223 c6 -2 18 -2 25 0 6 3 1 5 -13 5 -14 0 -19 -2 -12 -5z"/>
<path d="M5493 3193 c9 -2 25 -2 35 0 9 3 1 5 -18 5 -19 0 -27 -2 -17 -5z"/>
<path d="M4320 3353 c13 -3 30 -12 38 -21 12 -16 13 -15 8 1 -3 10 -6 21 -6
23 0 2 -15 3 -32 3 -27 -1 -29 -3 -8 -6z"/>
<path d="M4390 3321 c0 -9 30 -24 36 -18 2 1 -6 8 -16 15 -11 7 -20 8 -20 3z"/>
<path d="M4336 3301 c-6 -10 63 -26 72 -17 3 3 -4 6 -16 6 -11 0 -24 5 -27 10
-8 12 -22 13 -29 1z"/>
<path d="M4538 3243 c7 -3 16 -2 19 1 4 3 -2 6 -13 5 -11 0 -14 -3 -6 -6z"/>
<path d="M4575 3230 c3 -5 11 -10 16 -10 6 0 7 5 4 10 -3 6 -11 10 -16 10 -6
0 -7 -4 -4 -10z"/>
<path d="M4640 3230 c0 -5 5 -10 11 -10 5 0 7 5 4 10 -3 6 -8 10 -11 10 -2 0
-4 -4 -4 -10z"/>
<path d="M4518 3213 c7 -3 16 -2 19 1 4 3 -2 6 -13 5 -11 0 -14 -3 -6 -6z"/>
<path d="M4753 3213 c9 -2 25 -2 35 0 9 3 1 5 -18 5 -19 0 -27 -2 -17 -5z"/>
<path d="M4648 3203 c7 -3 16 -2 19 1 4 3 -2 6 -13 5 -11 0 -14 -3 -6 -6z"/>
<path d="M4849 3208 c-5 -18 -6 -38 -1 -34 7 8 12 36 6 36 -2 0 -4 -1 -5 -2z"/>
<path d="M4795 3180 c-3 -6 1 -7 9 -4 18 7 21 14 7 14 -6 0 -13 -4 -16 -10z"/>
<path d="M4658 3173 c12 -2 30 -2 40 0 9 3 -1 5 -23 4 -22 0 -30 -2 -17 -4z"/>
<path d="M4728 3153 c6 -2 18 -2 25 0 6 3 1 5 -13 5 -14 0 -19 -2 -12 -5z"/>
<path d="M3319 3856 c-24 -46 -21 -76 9 -76 29 0 42 21 42 66 0 59 -22 64 -51
10z"/>
<path d="M3520 3841 c0 -23 14 -41 31 -41 22 0 23 8 5 33 -14 18 -36 23 -36 8z"/>
<path d="M3213 3783 c-26 -10 -12 -42 40 -89 l52 -49 3 32 c2 25 -5 43 -29 73
-32 39 -41 44 -66 33z"/>
<path d="M3306 3567 c-6 -27 1 -78 14 -91 6 -6 19 -5 35 2 21 10 25 18 25 56
0 31 -5 46 -16 50 -31 12 -52 6 -58 -17z"/>
<path d="M3207 3468 c-8 -30 23 -82 52 -86 35 -5 45 11 31 52 -18 55 -72 77
-83 34z"/>
<path d="M7917 2943 c-4 -3 -7 -19 -7 -35 0 -23 4 -28 24 -28 13 0 27 7 30 16
8 21 8 20 -10 38 -17 17 -27 20 -37 9z"/>
<path d="M5850 2883 c-41 -2 -149 -10 -240 -18 -180 -17 -190 -21 -190 -79 0
-32 14 -92 31 -138 6 -14 23 -31 37 -36 15 -6 137 -14 271 -17 134 -4 256 -11
270 -17 64 -24 114 -104 115 -183 1 -39 -9 -72 -43 -145 -44 -96 -62 -190 -43
-218 17 -25 76 -28 317 -19 166 6 308 5 462 -3 307 -17 424 -5 455 47 26 45
48 133 48 192 0 31 -16 118 -35 193 -19 76 -44 188 -55 249 -29 152 -30 155
-79 163 -28 4 -51 2 -70 -9 -65 -33 -98 -180 -66 -293 17 -60 35 -90 35 -58 0
21 52 126 62 126 4 0 8 -93 8 -206 0 -177 -2 -205 -14 -195 -9 8 -16 8 -20 2
-13 -20 -98 -60 -134 -62 -65 -4 -86 0 -117 26 l-30 24 31 -4 c17 -2 37 1 45
6 12 7 12 9 -1 10 -47 3 -63 7 -77 22 -15 15 -15 24 -2 99 28 162 11 325 -45
435 -56 111 -63 112 -496 111 -195 -1 -389 -3 -430 -5z m-236 -103 c-44 -48
-67 -53 -58 -12 9 35 13 40 49 45 17 2 34 5 38 6 4 0 -9 -17 -29 -39z m854
-54 c197 -1 212 -4 212 -41 0 -5 -5 -3 -10 5 -9 13 -10 13 -10 0 -1 -12 -3
-12 -11 2 -7 13 -15 15 -31 9 -12 -4 -67 -6 -122 -5 -67 2 -91 0 -71 -5 l30
-9 -33 -1 c-19 -1 -31 -5 -27 -11 5 -9 -27 -14 -72 -13 -7 1 -10 -3 -7 -8 3
-5 -12 -9 -33 -10 -21 0 -64 -2 -95 -5 -34 -3 -66 -1 -78 6 -12 7 -54 14 -92
16 -39 3 -79 9 -89 14 -10 6 -24 10 -31 9 -7 0 -4 -5 7 -10 13 -6 -9 -8 -69
-4 -106 6 -136 13 -136 30 0 9 57 15 214 25 118 7 218 10 223 8 4 -3 31 -2 58
2 28 4 57 5 65 2 8 -3 102 -6 208 -6z m55 -43 c-7 -2 -21 -2 -30 0 -10 3 -4 5
12 5 17 0 24 -2 18 -5z m94 -75 c13 -17 30 -97 38 -178 9 -91 22 -146 46 -194
23 -45 33 -89 18 -80 -5 3 -7 10 -4 15 12 19 -17 8 -43 -16 -21 -20 -28 -22
-30 -10 -5 21 -12 19 -42 -10 -24 -23 -38 -26 -113 -31 -73 -4 -87 -2 -87 11
0 11 -11 15 -44 15 -27 0 -48 6 -56 15 -8 9 -26 15 -46 13 -19 -1 -34 -3 -34
-4 0 -2 5 -15 11 -31 13 -35 2 -25 -20 19 -16 32 -16 34 14 98 26 58 30 75 29
155 -1 58 -7 106 -18 134 -13 35 -14 46 -4 53 7 4 81 8 164 8 161 0 225 7 202
21 -8 5 -9 9 -2 9 6 0 16 -6 21 -12z m-114 -5 c-13 -2 -33 -2 -45 0 -13 2 -3
4 22 4 25 0 35 -2 23 -4z m-313 -473 c-6 -12 -14 -19 -17 -17 -2 3 1 15 7 27
6 12 14 19 17 17 2 -3 -1 -15 -7 -27z m-2 -43 c11 4 8 -2 -7 -16 -28 -25 -32
-24 -24 9 4 14 8 19 10 13 3 -7 12 -9 21 -6z m159 -13 c-3 -3 -12 -4 -19 -1
-8 3 -5 6 6 6 11 1 17 -2 13 -5z m68 -5 c-16 -7 -14 -8 15 -8 19 1 76 0 125
-2 l90 -3 -120 -6 c-126 -5 -165 -3 -165 10 0 8 28 17 60 18 9 0 7 -3 -5 -9z"/>
<path d="M6271 2716 c9 -9 89 -14 89 -5 0 5 -21 9 -47 9 -25 0 -44 -2 -42 -4z"/>
<path d="M6290 2680 c8 -5 31 -9 50 -9 l35 1 -30 8 c-16 4 -39 8 -50 9 -16 1
-17 -1 -5 -9z"/>
<path d="M6224 2172 c8 -8 125 -6 133 2 4 4 -25 6 -65 5 -40 -1 -70 -4 -68 -7z"/>
<path d="M6650 2170 c0 -5 5 -10 10 -10 6 0 10 5 10 10 0 6 -4 10 -10 10 -5 0
-10 -4 -10 -10z"/>
<path d="M5128 2868 c-26 -19 -61 -197 -54 -269 12 -117 79 -267 164 -366 65
-76 82 -103 81 -130 0 -10 -3 -13 -5 -8 -2 6 -21 9 -42 7 -40 -4 -158 23 -180
40 -19 16 -24 4 -11 -28 7 -16 11 -35 10 -41 -1 -9 16 -13 56 -14 55 -2 56 -2
18 -8 l-40 -7 35 -12 c31 -10 28 -11 -35 -6 -38 3 -80 8 -92 11 -20 5 -51 44
-83 107 -8 16 -38 55 -66 87 -28 31 -64 83 -79 114 -31 63 -76 214 -102 343
-16 77 -18 82 -42 82 -15 0 -93 -5 -176 -10 -82 -6 -264 -17 -404 -25 -293
-17 -305 -21 -290 -82 21 -94 13 -140 -51 -268 -33 -66 -67 -147 -75 -180 -21
-85 -34 -198 -28 -245 5 -39 7 -40 44 -40 21 0 41 6 46 13 5 8 10 0 13 -23 4
-29 11 -37 40 -47 50 -17 209 -16 331 3 248 37 437 65 476 71 37 5 44 10 54
40 29 88 -28 227 -123 303 -143 114 -236 145 -278 90 -11 -14 -20 -29 -20 -35
0 -5 53 -37 118 -70 116 -59 117 -59 82 -66 -19 -4 -71 -11 -115 -14 -90 -7
-240 -31 -255 -40 -6 -3 -10 -15 -10 -26 0 -11 -7 -34 -16 -50 -15 -30 -15
-31 8 -24 13 4 40 16 60 26 54 28 148 47 268 55 58 3 110 10 116 15 19 16 38
0 62 -50 27 -58 28 -81 5 -81 -10 0 -83 -7 -163 -14 -80 -8 -225 -18 -322 -22
-149 -6 -178 -5 -178 7 0 29 78 440 84 446 2 3 19 4 37 5 19 0 81 8 139 19 58
10 119 20 135 23 17 3 -4 2 -45 -1 -41 -4 -94 -7 -117 -7 -22 -1 -39 -5 -36
-10 4 -5 -7 -6 -23 -2 -19 4 -24 3 -15 -2 9 -7 0 -9 -28 -8 l-41 1 0 60 0 60
143 2 c78 1 188 9 245 17 57 9 138 19 181 22 76 6 78 6 84 -17 12 -44 8 -71
-12 -76 -16 -4 -17 -10 -10 -44 5 -21 15 -56 23 -76 8 -21 22 -67 31 -103 23
-92 80 -203 127 -246 22 -20 70 -50 107 -68 66 -31 67 -31 231 -31 91 0 257 4
370 9 274 11 291 21 276 159 -11 111 -96 251 -175 291 -14 8 -60 21 -102 30
-84 18 -143 47 -237 113 -72 51 -69 30 -31 216 11 55 19 101 16 103 -12 12
-94 14 -109 2z m358 -568 c51 -22 98 -82 154 -199 23 -46 40 -85 38 -86 -2 -1
-56 -6 -120 -9 l-117 -7 8 28 c9 33 -8 78 -67 174 -22 36 -48 81 -57 99 l-17
33 68 -7 c38 -4 87 -15 110 -26z"/>
<path d="M5406 2188 c4 -6 65 0 73 8 2 2 -14 3 -36 1 -23 -1 -39 -5 -37 -9z"/>
<path d="M5537 2177 c-3 -8 1 -14 8 -14 7 0 11 6 8 14 -3 7 -6 13 -8 13 -2 0
-5 -6 -8 -13z"/>
<path d="M5427 2155 c3 -8 9 -12 14 -9 12 7 11 11 -5 17 -10 4 -13 1 -9 -8z"/>
<path d="M5466 2031 c-4 -7 -5 -15 -2 -18 9 -9 19 4 14 18 -4 11 -6 11 -12 0z"/>
<path d="M7870 2605 c0 -19 0 -37 0 -40 0 -3 8 -7 19 -11 25 -7 51 21 51 57 0
27 -3 29 -35 29 -33 0 -35 -2 -35 -35z"/>
<path d="M3144 2486 c-7 -28 3 -67 20 -78 17 -12 61 -9 74 4 18 18 14 63 -6
81 -10 10 -33 17 -50 17 -25 0 -33 -5 -38 -24z"/>
<path d="M4493 2503 c9 -2 23 -2 30 0 6 3 -1 5 -18 5 -16 0 -22 -2 -12 -5z"/>
<path d="M4413 2493 c9 -2 23 -2 30 0 6 3 -1 5 -18 5 -16 0 -22 -2 -12 -5z"/>
<path d="M4333 2483 c9 -2 23 -2 30 0 6 3 -1 5 -18 5 -16 0 -22 -2 -12 -5z"/>
<path d="M3157 2349 c-40 -30 -50 -55 -36 -81 18 -33 40 -47 75 -48 40 0 64
27 64 72 0 60 -58 93 -103 57z"/>
<path d="M4510 2101 c0 -6 4 -13 10 -16 6 -3 7 1 4 9 -7 18 -14 21 -14 7z"/>
<path d="M4333 2093 c9 -2 23 -2 30 0 6 3 -1 5 -18 5 -16 0 -22 -2 -12 -5z"/>
<path d="M3372 1860 c0 -14 2 -19 5 -12 2 6 2 18 0 25 -3 6 -5 1 -5 -13z"/>
<path d="M6210 1806 c0 -2 7 -9 15 -16 9 -7 15 -8 15 -2 0 5 -7 12 -15 16 -8
3 -15 4 -15 2z"/>
<path d="M6397 1803 c-14 -13 -6 -33 13 -33 13 0 20 7 20 20 0 19 -20 27 -33
13z"/>
<path d="M7737 1651 c-57 -12 -89 -49 -94 -108 -5 -57 10 -89 54 -119 34 -23
102 -38 127 -28 9 3 16 17 16 30 0 22 -4 24 -45 24 -35 0 -51 6 -80 31 -44 39
-46 75 -7 111 27 25 90 49 77 29 -10 -17 31 -49 71 -57 42 -8 69 4 69 32 0 40
-106 72 -188 55z"/>
<path d="M5818 1593 c29 -2 74 -2 100 0 26 2 2 3 -53 3 -55 0 -76 -1 -47 -3z"/>
<path d="M7418 1583 c7 -3 16 -2 19 1 4 3 -2 6 -13 5 -11 0 -14 -3 -6 -6z"/>
<path d="M7338 1573 c7 -3 16 -2 19 1 4 3 -2 6 -13 5 -11 0 -14 -3 -6 -6z"/>
<path d="M7018 1563 c7 -3 16 -2 19 1 4 3 -2 6 -13 5 -11 0 -14 -3 -6 -6z"/>
<path d="M7083 1563 c9 -2 23 -2 30 0 6 3 -1 5 -18 5 -16 0 -22 -2 -12 -5z"/>
<path d="M7218 1563 c12 -2 32 -2 45 0 12 2 2 4 -23 4 -25 0 -35 -2 -22 -4z"/>
<path d="M5156 1553 c-38 -4 -38 -4 -16 -20 12 -9 46 -17 74 -18 67 -3 75 -5
51 -15 -12 -4 5 -6 41 -3 39 4 68 1 80 -6 16 -10 12 -11 -21 -6 -29 5 -37 4
-29 -5 6 -6 35 -14 64 -19 31 -5 56 -15 62 -25 5 -9 22 -16 38 -16 20 0 30 -5
30 -15 0 -8 3 -15 8 -16 4 0 17 -2 29 -3 31 -4 83 20 83 38 0 8 8 19 17 25 13
7 -2 8 -47 4 -36 -3 -69 -9 -74 -14 -15 -13 -23 -11 -23 6 0 8 10 15 21 16 18
1 18 2 -4 9 -19 6 -11 8 33 9 42 1 58 5 55 14 -6 16 -52 21 -87 9 -21 -7 -53
-5 -122 10 -154 32 -147 30 -124 39 21 8 -67 9 -139 2z m314 -79 c0 -2 -12 -4
-26 -4 -14 0 -23 4 -20 9 6 8 46 4 46 -5z"/>
<path d="M5368 1553 c7 -3 16 -2 19 1 4 3 -2 6 -13 5 -11 0 -14 -3 -6 -6z"/>
<path d="M7078 1543 c23 -2 61 -2 85 0 23 2 4 4 -43 4 -47 0 -66 -2 -42 -4z"/>
<path d="M7425 1530 c27 -12 43 -12 25 0 -8 5 -22 9 -30 9 -10 0 -8 -3 5 -9z"/>
<path d="M4808 1523 c6 -2 18 -2 25 0 6 3 1 5 -13 5 -14 0 -19 -2 -12 -5z"/>
<path d="M5937 1513 c-3 -5 -8 -22 -11 -39 -6 -28 -4 -32 20 -38 29 -8 84 1
84 13 0 12 -23 37 -50 55 -27 18 -37 20 -43 9z"/>
<path d="M4505 1500 l-60 -7 62 -1 c34 -1 65 3 68 8 3 6 3 9 -2 8 -4 -1 -35
-4 -68 -8z"/>
<path d="M3921 1496 c6 -7 408 -10 415 -4 3 3 -91 6 -208 7 -117 1 -210 0
-207 -3z"/>
<path d="M4375 1490 c18 -5 23 -8 11 -9 -11 0 -17 -3 -14 -6 3 -4 18 -3 34 1
25 6 26 8 9 15 -11 4 -31 7 -45 7 -23 0 -22 -1 5 -8z"/>
<path d="M5056 1492 c-2 -4 -2 -13 2 -19 9 -13 123 -73 140 -73 6 0 12 -4 12
-8 0 -9 -70 -102 -76 -102 -2 0 -15 18 -29 40 -34 54 -70 70 -152 70 -62 0
-81 -5 -121 -36 -2 -1 -7 -18 -11 -36 -8 -32 -6 -34 20 -36 19 -2 32 4 39 18
6 11 16 17 26 13 9 -3 14 0 12 8 -2 8 3 13 10 12 6 -2 12 3 12 10 0 8 3 7 10
-3 9 -15 -6 -44 -20 -35 -4 2 -15 -4 -25 -15 -16 -18 -16 -18 5 -13 14 4 20 1
18 -8 -4 -18 58 -25 77 -9 8 7 18 9 24 6 5 -3 12 0 14 6 3 8 6 6 6 -4 1 -20
21 -24 37 -8 6 6 43 11 83 12 l72 3 16 54 c17 59 11 83 -23 89 -10 2 -23 8
-28 12 -12 12 36 0 52 -13 8 -7 12 -5 12 5 0 10 -21 22 -57 32 -32 10 -71 22
-87 27 -36 11 -63 12 -70 1z m-99 -197 c0 -8 -4 -12 -9 -9 -5 3 -6 10 -3 15 9
13 12 11 12 -6z"/>
<path d="M5190 1490 c8 -5 20 -10 25 -10 6 0 3 5 -5 10 -8 5 -19 10 -25 10 -5
0 -3 -5 5 -10z"/>
<path d="M3778 1483 c12 -2 32 -2 45 0 12 2 2 4 -23 4 -25 0 -35 -2 -22 -4z"/>
<path d="M5598 1463 c7 -3 16 -2 19 1 4 3 -2 6 -13 5 -11 0 -14 -3 -6 -6z"/>
<path d="M5805 1461 c-11 -5 -27 -20 -34 -34 -18 -33 -1 -57 39 -57 21 0 30 7
40 29 22 54 2 81 -45 62z"/>
<path d="M4308 1453 c6 -2 18 -2 25 0 6 3 1 5 -13 5 -14 0 -19 -2 -12 -5z"/>
<path d="M5329 1441 c8 -5 21 -7 29 -3 10 3 13 1 8 -6 -5 -8 -2 -10 8 -6 25
10 8 24 -27 24 -23 0 -28 -3 -18 -9z"/>
<path d="M5390 1420 c-8 -5 -11 -12 -7 -17 5 -4 11 -3 15 3 4 6 14 14 22 17
13 5 13 5 0 6 -8 0 -22 -3 -30 -9z"/>
<path d="M5445 1400 c-3 -5 -12 -7 -20 -3 -8 3 -15 3 -15 0 0 -13 30 -14 40
-1 7 8 10 14 7 14 -3 0 -8 -4 -12 -10z"/>
<path d="M5289 1388 c-1 -7 -1 -16 0 -20 0 -5 -3 -8 -7 -8 -4 0 -8 -9 -8 -19
0 -11 4 -17 9 -14 5 3 7 0 5 -8 -3 -8 -11 -13 -17 -11 -6 1 -11 -2 -11 -8 0
-13 6 -13 30 2 16 10 23 10 36 -4 16 -16 16 -17 -7 -12 -19 3 -18 2 5 -7 16
-6 31 -8 35 -3 3 5 14 9 24 10 9 0 35 1 57 2 31 2 40 6 40 20 0 47 -187 124
-191 80z m111 -96 c3 -3 -8 -2 -24 2 -31 8 -75 36 -76 49 0 7 84 -37 100 -51z"/>
<path d="M5650 1380 c0 -5 5 -10 11 -10 5 0 7 5 4 10 -3 6 -8 10 -11 10 -2 0
-4 -4 -4 -10z"/>
<path d="M4926 1328 c3 -5 10 -6 15 -3 13 9 11 12 -6 12 -8 0 -12 -4 -9 -9z"/>
<path d="M5223 1273 c-12 -2 -27 -11 -34 -20 -14 -17 -21 -43 -11 -41 4 1 15
-2 25 -7 17 -7 57 25 70 57 3 7 6 3 6 -9 1 -20 6 -23 41 -23 22 0 40 5 40 10
0 6 -15 10 -34 10 -21 0 -36 6 -40 15 -5 15 -19 17 -63 8z"/>
<path d="M7228 1273 c12 -2 30 -2 40 0 9 3 -1 5 -23 4 -22 0 -30 -2 -17 -4z"/>
<path d="M5090 1250 c-14 -11 -20 -20 -15 -19 13 0 50 28 44 33 -2 3 -15 -4
-29 -14z"/>
<path d="M5575 1260 c28 -12 37 -12 30 0 -3 6 -16 10 -28 9 -21 0 -21 -1 -2
-9z"/>
<path d="M27 103 c-25 -4 -27 -8 -27 -54 0 -48 1 -49 30 -49 30 0 30 1 30 55
0 30 -1 54 -2 54 -2 -1 -15 -4 -31 -6z"/>
</g>
</svg>
