<?xml version="1.0" standalone="no"?>
<!DOCTYPE svg PUBLIC "-//W3C//DTD SVG 20010904//EN"
 "http://www.w3.org/TR/2001/REC-SVG-20010904/DTD/svg10.dtd">
<svg version="1.0" xmlns="http://www.w3.org/2000/svg"
 width="1024.000000pt" height="1024.000000pt" viewBox="0 0 1024.000000 1024.000000"
 preserveAspectRatio="xMidYMid meet">
<metadata>
Created by potrace 1.16, written by Peter Selinger 2001-2019
</metadata>
<g transform="translate(0.000000,1024.000000) scale(0.100000,-0.100000)"
fill="#000000" stroke="none">
<path d="M5162 9423 c-35 -70 -95 -228 -156 -418 -107 -331 -199 -719 -266
-1125 -16 -96 -41 -231 -55 -300 -23 -106 -27 -159 -32 -351 -10 -392 40 -704
159 -1009 32 -80 88 -261 88 -283 0 -7 -9 -30 -19 -50 -11 -22 -14 -33 -6 -27
7 6 15 7 17 3 3 -4 3 -1 1 7 -2 8 17 -7 42 -35 43 -48 58 -74 33 -59 -7 4 -8
3 -4 -5 4 -6 11 -9 16 -6 11 7 33 -22 25 -35 -4 -6 -3 -9 2 -8 11 4 134 -127
127 -135 -3 -3 3 -4 13 -3 10 0 17 -5 16 -11 -2 -7 3 -12 10 -10 6 1 11 -4 10
-10 -2 -7 3 -12 10 -10 6 1 11 -4 10 -10 -2 -7 1 -12 5 -10 9 2 105 -69 146
-108 12 -11 24 -19 27 -18 3 1 6 -4 6 -12 0 -8 -4 -12 -9 -9 -4 3 -8 -1 -8 -8
0 -8 -5 -6 -11 5 -12 21 -26 22 -26 2 0 -8 4 -12 9 -9 4 3 8 -1 8 -9 0 -20 96
-81 111 -71 8 4 9 3 5 -5 -5 -7 8 -19 36 -31 24 -11 54 -28 68 -38 24 -16 25
-16 10 2 -14 18 -13 18 8 12 15 -5 22 -3 22 5 0 7 -3 9 -7 6 -3 -4 -14 0 -24
9 -10 9 -25 14 -34 10 -9 -3 -13 -2 -10 4 3 6 14 10 23 10 13 0 12 5 -8 21
-18 14 -19 18 -5 11 110 -52 165 -75 232 -98 70 -23 119 -45 68 -31 -11 3 -33
9 -50 13 -46 10 -18 -13 30 -25 36 -9 36 -10 7 -7 -18 1 -36 -2 -39 -7 -4 -6
14 -8 48 -5 30 3 48 3 41 1 -6 -3 -9 -9 -6 -14 3 -6 12 -5 21 2 12 10 16 10
24 -2 5 -8 9 -9 9 -3 0 7 52 11 163 10 119 0 177 4 220 16 57 16 57 16 58 -5
1 -12 5 35 10 105 9 156 32 230 101 334 122 182 309 318 550 399 160 53 181
56 478 63 l275 7 70 35 c239 120 575 677 523 869 -6 20 -20 47 -31 60 -35 38
-186 147 -402 289 l-200 131 -28 64 c-125 287 -461 542 -844 641 -202 53 -539
72 -735 43 l-86 -13 -75 150 c-41 83 -103 212 -137 286 -34 74 -114 238 -177
363 l-116 228 -44 -43 c-39 -38 -44 -47 -41 -80 2 -21 1 -34 -3 -30 -18 20
-109 162 -128 199 -11 23 -48 85 -80 138 l-59 95 -30 -57z m99 -280 c13 -16
12 -17 -3 -4 -10 7 -18 15 -18 17 0 8 8 3 21 -13z m-74 -65 c-3 -8 -6 -5 -6 6
-1 11 2 17 5 13 3 -3 4 -12 1 -19z m-4 -123 c-3 -9 -8 -14 -10 -11 -3 3 -2 9
2 15 9 16 15 13 8 -4z m9 -72 c-3 -16 -7 -22 -10 -15 -4 13 4 42 11 42 2 0 2
-12 -1 -27z m-15 -65 c-3 -13 -13 -68 -23 -123 -18 -110 -30 -142 -20 -55 13
111 30 200 39 200 5 0 7 -10 4 -22z m-63 -160 c-14 -20 -15 -20 -9 -3 4 11 10
40 14 65 l6 45 3 -42 c2 -29 -3 -51 -14 -65z m-27 0 c-3 -7 -5 -2 -5 12 0 14
2 19 5 13 2 -7 2 -19 0 -25z m229 -53 c13 -20 14 -28 4 -40 -7 -8 -9 -22 -6
-31 3 -9 0 -30 -8 -47 -30 -70 -36 -89 -37 -110 0 -13 -3 -16 -6 -8 -3 7 2 42
12 78 10 35 15 67 11 70 -3 4 -6 -2 -7 -13 -1 -15 -3 -13 -9 6 l-8 25 -1 -27
c-1 -16 -4 -28 -8 -28 -5 0 -9 -24 -10 -52 -1 -34 -7 -56 -17 -64 -17 -12 -23
-49 -6 -39 6 3 7 -1 4 -10 -6 -14 -8 -14 -20 2 -19 26 -17 46 15 155 22 76 61
153 78 157 2 1 10 -10 19 -24z m-229 -47 c-3 -7 -5 -2 -5 12 0 14 2 19 5 13 2
-7 2 -19 0 -25z m-30 -100 c-3 -8 -6 -5 -6 6 -1 11 2 17 5 13 3 -3 4 -12 1
-19z m-9 -73 c-3 -3 -9 2 -12 12 -6 14 -5 15 5 6 7 -7 10 -15 7 -18z m32 15
c0 -5 -5 -10 -11 -10 -5 0 -7 5 -4 10 3 6 8 10 11 10 2 0 4 -4 4 -10z m6 -115
c-14 -97 -16 -101 -21 -32 -1 27 25 139 32 133 1 -1 -4 -47 -11 -101z m-29 -2
c-1 -38 1 -93 5 -123 4 -34 3 -45 -2 -30 -4 14 -9 41 -10 60 -1 29 -3 32 -10
15 -5 -11 -9 -34 -9 -52 -1 -17 -5 -34 -10 -37 -5 -3 -6 16 -4 42 4 37 2 44
-7 32 -10 -12 -11 -10 -6 10 3 14 6 39 7 55 1 29 1 29 8 5 6 -21 9 -16 20 33
7 31 14 57 16 57 2 0 3 -30 2 -67z m-30 25 c-3 -8 -6 -5 -6 6 -1 11 2 17 5 13
3 -3 4 -12 1 -19z m637 -13 c5 -22 4 -26 -4 -15 -5 8 -10 24 -10 34 0 26 6 18
14 -19z m-27 -47 c-3 -8 -6 -5 -6 6 -1 11 2 17 5 13 3 -3 4 -12 1 -19z m43 8
c0 -3 -4 -8 -10 -11 -5 -3 -10 -1 -10 4 0 6 5 11 10 11 6 0 10 -2 10 -4z
m-483 -148 c-3 -8 -6 -5 -6 6 -1 11 2 17 5 13 3 -3 4 -12 1 -19z m-177 -52 c0
-26 -6 -18 -14 19 -5 22 -4 26 4 15 5 -8 10 -24 10 -34z m37 12 c-3 -8 -6 -5
-6 6 -1 11 2 17 5 13 3 -3 4 -12 1 -19z m679 -13 c-3 -8 -11 -15 -18 -15 -10
0 -10 2 0 9 7 4 12 12 11 17 -3 17 3 29 8 16 3 -7 2 -19 -1 -27z m-549 -7 c-3
-7 -5 -2 -5 12 0 14 2 19 5 13 2 -7 2 -19 0 -25z m-140 -50 c-3 -7 -5 -2 -5
12 0 14 2 19 5 13 2 -7 2 -19 0 -25z m403 8 c0 -10 -213 -121 -270 -141 l-36
-13 5 32 c3 19 6 24 9 14 2 -10 7 -18 12 -18 5 0 7 6 4 13 -2 7 0 24 6 38 10
23 10 23 6 1 -4 -19 -1 -22 17 -16 22 6 22 6 2 -10 -21 -16 -22 -16 67 11 10
3 15 10 11 16 -3 6 -1 7 6 3 6 -4 18 -3 25 3 11 9 127 71 134 71 1 0 2 -2 2
-4z m-283 -58 c-3 -8 -6 -5 -6 6 -1 11 2 17 5 13 3 -3 4 -12 1 -19z m-130 -20
c-3 -8 -6 -5 -6 6 -1 11 2 17 5 13 3 -3 4 -12 1 -19z m-36 -195 c-4 -28 -6
-32 -9 -15 -3 22 3 52 11 52 1 0 1 -17 -2 -37z m2251 -38 c26 -7 26 -3 65
-330 5 -37 8 -45 14 -30 21 55 -4 296 -35 334 -18 22 30 4 94 -36 63 -40 130
-101 171 -157 28 -37 28 -39 12 -70 -34 -67 -124 -165 -177 -193 -48 -25 -143
-21 -207 9 -83 39 -328 266 -368 341 -13 24 -12 29 3 46 21 23 67 46 156 77
55 20 79 23 156 19 51 -2 103 -7 116 -10z m-2285 -137 c-3 -8 -6 -5 -6 6 -1
11 2 17 5 13 3 -3 4 -12 1 -19z m3247 -587 c68 -47 70 -52 46 -104 -12 -25
-29 -52 -40 -62 -17 -15 -22 -13 -91 36 -71 50 -116 95 -106 105 9 9 121 54
135 54 7 0 32 -13 56 -29z m-2784 -1621 c0 -5 5 -10 11 -10 5 0 7 4 4 10 -4 6
1 7 11 3 14 -5 12 -8 -11 -20 -25 -14 -26 -15 -8 -28 10 -8 15 -15 11 -15 -4
0 -21 14 -38 30 -17 17 -26 30 -21 30 5 0 13 -4 16 -10 3 -5 11 -10 17 -10 7
0 6 6 -2 15 -9 10 -9 15 -1 15 6 0 11 -4 11 -10z m86 -37 c-3 -4 0 -13 7 -21
9 -12 9 -16 -1 -19 -6 -3 -9 -9 -6 -15 5 -7 1 -7 -12 0 -12 7 -19 22 -19 45
-1 32 1 35 18 26 10 -6 16 -13 13 -16z m49 -73 c3 -5 2 -10 -4 -10 -5 0 -13 5
-16 10 -3 6 -2 10 4 10 5 0 13 -4 16 -10z m384 -86 c9 -8 -45 -2 -64 6 -14 7
-8 8 20 3 22 -3 42 -7 44 -9z m44 -11 c-7 -2 -19 -2 -25 0 -7 3 -2 5 12 5 14
0 19 -2 13 -5z"/>
<path d="M5231 8434 c0 -11 3 -14 6 -6 3 7 2 16 -1 19 -3 4 -6 -2 -5 -13z"/>
<path d="M5221 8394 c0 -11 3 -14 6 -6 3 7 2 16 -1 19 -3 4 -6 -2 -5 -13z"/>
<path d="M7061 7602 c-1 -118 44 -351 64 -330 5 5 -32 270 -48 353 l-15 70 -1
-93z"/>
<path d="M5499 5292 c9 -7 10 -11 2 -15 -7 -4 -8 -5 0 -4 15 3 13 21 -3 25
-10 3 -10 2 1 -6z"/>
<path d="M2585 6964 c-113 -17 -294 -68 -360 -101 -27 -14 -102 -57 -165 -96
-257 -158 -390 -359 -450 -682 -6 -33 -17 -182 -25 -331 -8 -161 -20 -299 -30
-339 -34 -148 -105 -235 -450 -550 -276 -253 -409 -409 -559 -660 -130 -216
-258 -598 -302 -900 -21 -150 -29 -483 -15 -670 26 -338 137 -985 222 -1279
39 -139 103 -283 159 -360 73 -99 217 -201 350 -248 99 -34 309 -39 1735 -36
l1370 3 46 21 c164 76 197 279 60 371 -19 13 -29 23 -22 23 6 0 20 9 31 20 17
17 20 33 20 113 0 116 -12 157 -58 206 -29 30 -56 45 -122 67 l-85 28 -428 5
-429 6 68 95 c37 52 107 156 157 230 213 318 395 528 572 657 88 64 270 176
353 216 34 16 62 35 63 41 1 21 48 -211 68 -339 46 -290 113 -740 161 -1075
53 -373 67 -446 99 -508 41 -80 122 -133 245 -159 58 -12 114 -13 311 -7 132
4 646 8 1142 8 l901 1 26 24 c104 98 2 361 -175 452 -87 44 -128 49 -430 49
l-287 0 -5 23 c-7 34 -95 373 -202 782 -54 204 -123 471 -155 595 -55 216
-129 481 -150 535 -9 24 -8 26 10 20 159 -50 470 -105 600 -105 l75 0 -4 48
c-4 51 -13 62 -50 62 -13 0 -105 20 -205 45 -170 41 -336 96 -486 160 -136 57
-414 206 -545 290 -165 106 -383 252 -465 311 -157 113 -428 344 -546 466
-181 188 -369 452 -449 630 -24 54 -35 68 -52 68 -17 0 -21 -4 -16 -17 5 -12
3 -14 -7 -8 -10 6 -12 3 -8 -13 6 -23 -7 -31 -15 -9 -3 9 -64 -3 -233 -46
-126 -31 -312 -73 -414 -93 -642 -123 -800 -162 -1025 -252 -358 -144 -643
-329 -896 -583 -174 -174 -266 -312 -373 -562 -73 -168 -171 -488 -199 -647
-2 -14 -5 -4 -6 23 0 26 12 136 29 244 44 285 94 434 259 760 143 285 279 448
546 661 311 247 352 282 427 365 159 177 175 223 188 527 5 118 12 240 15 270
11 93 52 251 84 323 68 151 188 297 307 373 114 73 287 126 409 126 96 0 150
-14 290 -74 189 -81 274 -75 323 22 57 113 -2 231 -155 309 -161 81 -433 111
-668 75z m1123 -1869 c-3 -3 -9 2 -12 12 -6 14 -5 15 5 6 7 -7 10 -15 7 -18z
m1609 -1997 c-3 -7 -5 -2 -5 12 0 14 2 19 5 13 2 -7 2 -19 0 -25z m14 -295
l-8 -198 0 235 c-1 157 2 222 8 198 5 -22 5 -123 0 -235z m-14 -495 c-1 -51
-3 -12 -3 87 0 99 2 141 3 93 2 -48 2 -129 0 -180z m57 -458 c25 -102 59 -246
76 -320 18 -74 40 -165 50 -202 l17 -68 -78 -1 c-44 -1 -86 -1 -94 -1 -56 0
-52 -26 -48 305 4 370 13 545 24 502 5 -16 29 -113 53 -215z m-2147 -456 c-3
-3 -12 -4 -19 -1 -8 3 -5 6 6 6 11 1 17 -2 13 -5z m2332 -339 c0 -5 -6 1 -14
15 -8 14 -14 30 -14 35 0 6 6 -1 14 -15 8 -14 14 -29 14 -35z m-102 3 c-3 -8
-6 -5 -6 6 -1 11 2 17 5 13 3 -3 4 -12 1 -19z m-39 -85 c-3 -43 -10 -34 -13
18 -3 29 -1 38 6 29 5 -8 8 -29 7 -47z m-243 26 c11 -17 -1 -21 -15 -4 -8 9
-8 15 -2 15 6 0 14 -5 17 -11z m414 -34 c0 -5 -4 -3 -9 5 -5 8 -9 22 -9 30 0
16 17 -16 18 -35z m168 -7 c-3 -8 -6 -5 -6 6 -1 11 2 17 5 13 3 -3 4 -12 1
-19z m-489 -27 c-7 -11 -16 -17 -21 -14 -4 3 0 11 10 19 24 18 25 17 11 -5z
m99 -13 c-3 -8 -6 -5 -6 6 -1 11 2 17 5 13 3 -3 4 -12 1 -19z m373 -18 c0 -5
-5 -10 -11 -10 -5 0 -7 5 -4 10 3 6 8 10 11 10 2 0 4 -4 4 -10z"/>
<path d="M4831 5827 c-8 -11 -6 -18 10 -33 22 -19 22 -19 10 4 -16 30 -6 41
15 16 14 -18 15 -18 4 4 -12 25 -23 28 -39 9z"/>
<path d="M4931 5803 c7 -12 15 -20 18 -17 3 2 -3 12 -13 22 -17 16 -18 16 -5
-5z"/>
<path d="M4783 5755 c0 -8 4 -12 9 -9 5 3 6 10 3 15 -9 13 -12 11 -12 -6z"/>
<path d="M4935 5720 c-3 -5 11 -26 31 -47 20 -21 32 -31 25 -22 -6 9 -7 20 -3
24 4 5 2 5 -5 1 -13 -7 -45 32 -37 46 3 4 3 8 0 8 -3 0 -8 -4 -11 -10z"/>
<path d="M4831 5693 c7 -12 15 -20 18 -17 3 2 -3 12 -13 22 -17 16 -18 16 -5
-5z"/>
<path d="M4856 5645 c4 -8 11 -15 16 -15 6 0 5 6 -2 15 -7 8 -14 15 -16 15 -2
0 -1 -7 2 -15z"/>
<path d="M4876 5611 c-4 -5 -2 -12 3 -16 6 -3 7 -13 4 -23 -7 -18 -5 -17 15 9
10 13 9 19 -2 28 -9 8 -16 8 -20 2z"/>
<path d="M4897 5557 c-10 -16 -13 -28 -7 -32 6 -4 10 -3 9 2 -4 22 3 25 17 7
8 -10 12 -12 8 -4 -4 8 -3 12 1 7 18 -15 11 -46 -12 -56 -13 -6 -23 -19 -23
-31 0 -17 4 -20 23 -15 17 5 19 4 7 -4 -20 -14 -26 -14 -44 5 -9 8 -16 12 -16
7 0 -12 66 -73 79 -73 7 0 9 -5 5 -11 -8 -14 42 -66 81 -85 17 -8 21 -12 10
-9 -34 9 72 -82 260 -222 45 -33 192 -118 255 -146 161 -72 333 -126 366 -113
8 3 13 2 10 -3 -7 -11 140 -35 155 -25 7 4 9 3 6 -3 -7 -11 105 -24 241 -28
l82 -3 0 38 c0 20 -3 65 -6 99 l-7 61 -56 0 c-84 0 -374 38 -465 60 -43 11
-83 17 -89 13 -5 -3 -7 -1 -3 5 4 6 -7 13 -26 17 -90 20 -325 140 -486 249
-44 30 -84 51 -88 48 -4 -4 -4 -2 -1 4 4 7 -10 24 -31 40 -20 15 -69 56 -108
90 -39 35 -75 60 -79 56 -5 -4 -5 -2 -2 4 3 6 -6 26 -21 44 l-28 33 -17 -26z
m88 -97 c3 -5 1 -10 -4 -10 -6 0 -11 5 -11 10 0 6 2 10 4 10 3 0 8 -4 11 -10z
m1182 -684 c0 -8 -6 -12 -15 -9 -11 5 -11 7 0 14 7 5 13 9 14 9 0 0 1 -6 1
-14z m50 -2 c-3 -3 -12 -4 -19 -1 -8 3 -5 6 6 6 11 1 17 -2 13 -5z m10 -30
c-3 -3 -12 -4 -19 -1 -8 3 -5 6 6 6 11 1 17 -2 13 -5z"/>
<path d="M4780 5527 c0 -2 15 -16 33 -33 l32 -29 -29 33 c-28 30 -36 37 -36
29z"/>
<path d="M5167 5488 c9 -11 22 -17 29 -14 15 6 37 -18 27 -28 -4 -4 0 -4 10 0
14 5 16 2 11 -12 -6 -17 -5 -17 10 1 17 20 17 20 13 -2 -3 -15 4 -27 24 -42
16 -12 26 -16 23 -8 -6 17 25 19 45 3 12 -9 12 -8 0 11 -7 13 -20 25 -27 28
-7 2 -11 1 -8 -4 9 -14 -26 -23 -38 -11 -8 8 -7 10 5 5 10 -4 16 0 16 9 0 8
-6 12 -13 9 -7 -2 -11 3 -11 14 1 9 -4 18 -11 18 -7 0 -17 7 -23 15 -9 13 -10
12 -5 -2 7 -22 -7 -23 -24 -3 -9 10 -9 15 -1 15 6 0 11 4 11 8 0 5 -6 9 -14 9
-8 0 -14 -3 -13 -6 1 -3 -2 -6 -8 -6 -5 0 -9 2 -8 5 1 3 -7 6 -17 6 -18 0 -18
-1 -3 -18z"/>
<path d="M4866 5485 c-9 -26 -7 -32 5 -12 6 10 9 21 6 23 -2 3 -7 -2 -11 -11z"/>
<path d="M4685 5460 c10 -11 20 -20 23 -20 3 0 -3 9 -13 20 -10 11 -20 20 -23
20 -3 0 3 -9 13 -20z"/>
<path d="M4261 5431 c-36 -21 -67 -43 -69 -49 -2 -7 13 -40 34 -74 181 -306
405 -563 667 -764 452 -349 872 -543 1400 -648 95 -19 173 -33 174 -32 2 2 0
70 -4 153 l-6 151 -52 5 c-113 12 -174 74 -190 196 l-8 56 -12 -48 c-18 -66
-56 -112 -110 -132 -56 -22 -103 -16 -213 25 -112 43 -173 98 -201 182 -12 34
-21 80 -22 102 l0 41 -15 -40 c-24 -66 -45 -80 -115 -79 -79 2 -192 57 -251
123 l-40 46 6 105 c5 100 5 103 -10 70 -8 -19 -29 -50 -46 -67 -49 -50 -95
-46 -189 16 -142 93 -201 170 -215 279 -5 46 -2 58 26 108 17 31 29 58 26 61
-3 3 -26 -13 -52 -36 -32 -28 -56 -41 -76 -41 -60 0 -127 56 -153 129 -13 39
-13 49 0 94 29 99 18 114 -56 77 -80 -41 -86 -42 -113 -13 -14 15 -23 30 -20
35 12 19 -36 4 -95 -31z"/>
<path d="M4720 5425 c0 -9 63 -89 78 -98 7 -5 9 -13 6 -19 -4 -7 -2 -8 4 -4 6
4 18 -4 27 -18 9 -13 24 -27 33 -31 9 -3 -6 18 -34 47 -28 29 -65 70 -82 91
-18 21 -32 35 -32 32z"/>
<path d="M4033 5302 l-33 -17 25 -37 c14 -20 25 -42 25 -48 0 -6 5 -8 12 -4 7
4 8 3 4 -4 -11 -18 135 -227 150 -214 4 4 4 2 1 -4 -8 -14 52 -86 65 -78 7 4
8 2 4 -4 -18 -30 445 -500 604 -613 393 -277 751 -457 1135 -568 127 -37 329
-82 398 -90 l69 -7 -6 29 c-3 16 -6 45 -6 63 0 27 -4 34 -22 38 -519 99 -838
210 -1163 404 -267 159 -435 292 -674 531 -103 102 -189 185 -194 183 -4 -1
-6 2 -5 7 4 13 -102 132 -112 126 -4 -3 -7 3 -6 13 0 9 -5 16 -11 15 -7 -2
-12 0 -11 5 3 8 -104 154 -145 197 -14 16 -34 43 -44 62 -20 38 -18 38 -60 15z
m281 -428 c3 -8 2 -12 -4 -9 -6 3 -10 10 -10 16 0 14 7 11 14 -7z m153 -169
c0 -8 -4 -12 -9 -9 -5 3 -6 10 -3 15 9 13 12 11 12 -6z"/>
<path d="M5570 5266 c0 -2 7 -7 16 -10 8 -3 12 -2 9 4 -6 10 -25 14 -25 6z"/>
<path d="M4890 5236 c0 -2 8 -10 18 -17 15 -13 16 -12 3 4 -13 16 -21 21 -21
13z"/>
<path d="M5640 5180 c-9 -6 -10 -10 -3 -10 6 0 15 5 18 10 8 12 4 12 -15 0z"/>
<path d="M4964 5158 c-4 -6 -3 -8 3 -5 13 8 36 -17 25 -28 -4 -5 -1 -5 6 -1
11 6 10 12 -4 27 -20 22 -21 22 -30 7z"/>
<path d="M5733 5134 c7 -8 51 -16 77 -15 20 1 22 -1 10 -9 -13 -9 -13 -10 0
-9 8 0 24 4 35 9 16 6 17 9 5 13 -19 7 -133 17 -127 11z"/>
<path d="M5870 5100 c-8 -5 -10 -10 -5 -10 6 0 17 5 25 10 8 5 11 10 5 10 -5
0 -17 -5 -25 -10z"/>
<path d="M5905 5090 c-3 -5 -1 -10 4 -10 6 0 11 5 11 10 0 6 -2 10 -4 10 -3 0
-8 -4 -11 -10z"/>
<path d="M5948 5083 c7 -3 16 -2 19 1 4 3 -2 6 -13 5 -11 0 -14 -3 -6 -6z"/>
<path d="M5998 5063 c6 -2 18 -2 25 0 6 3 1 5 -13 5 -14 0 -19 -2 -12 -5z"/>
<path d="M6075 5060 c-3 -6 1 -7 9 -4 18 7 21 14 7 14 -6 0 -13 -4 -16 -10z"/>
<path d="M5146 5011 c-5 -8 5 -20 30 -34 6 -3 11 0 11 7 0 7 -7 13 -16 12 -9
0 -15 5 -13 12 2 14 -4 16 -12 3z"/>
<path d="M5203 4965 c0 -8 4 -12 9 -9 5 3 6 10 3 15 -9 13 -12 11 -12 -6z"/>
<path d="M5230 4956 c0 -2 8 -10 18 -17 15 -13 16 -12 3 4 -13 16 -21 21 -21
13z"/>
<path d="M5370 4860 c-9 -6 -10 -10 -3 -10 6 0 15 5 18 10 8 12 4 12 -15 0z"/>
<path d="M5366 4832 c-2 -4 4 -8 14 -8 10 0 16 4 14 8 -3 4 -9 8 -14 8 -5 0
-11 -4 -14 -8z"/>
<path d="M5564 4765 c13 -10 15 -15 6 -15 -7 0 -11 -3 -7 -6 3 -3 13 -2 22 3
13 8 12 11 -12 21 -26 11 -27 11 -9 -3z"/>
<path d="M5748 4693 c12 -2 20 -8 17 -12 -2 -5 8 -6 23 -3 l27 6 -25 7 c-14 4
-34 7 -45 7 -16 -1 -16 -2 3 -5z"/>
<path d="M6168 4583 c7 -3 16 -2 19 1 4 3 -2 6 -13 5 -11 0 -14 -3 -6 -6z"/>
<path d="M6421 4464 c0 -11 3 -14 6 -6 3 7 2 16 -1 19 -3 4 -6 -2 -5 -13z"/>
<path d="M6432 4385 c0 -16 2 -22 5 -12 2 9 2 23 0 30 -3 6 -5 -1 -5 -18z"/>
<path d="M6442 4295 c0 -16 2 -22 5 -12 2 9 2 23 0 30 -3 6 -5 -1 -5 -18z"/>
<path d="M27 103 c-25 -4 -27 -8 -27 -54 0 -48 1 -49 30 -49 30 0 30 1 30 55
0 30 -1 54 -2 54 -2 -1 -15 -4 -31 -6z"/>
</g>
</svg>
