<?xml version="1.0" standalone="no"?>
<!DOCTYPE svg PUBLIC "-//W3C//DTD SVG 20010904//EN"
 "http://www.w3.org/TR/2001/REC-SVG-20010904/DTD/svg10.dtd">
<svg version="1.0" xmlns="http://www.w3.org/2000/svg"
 width="1024.000000pt" height="1024.000000pt" viewBox="0 0 1024.000000 1024.000000"
 preserveAspectRatio="xMidYMid meet">
<metadata>
Created by potrace 1.16, written by Peter Selinger 2001-2019
</metadata>
<g transform="translate(0.000000,1024.000000) scale(0.100000,-0.100000)"
fill="#000000" stroke="none">
<path d="M3902 10097 c-16 -19 -29 -87 -42 -216 -6 -62 -17 -145 -25 -183 -8
-38 -15 -86 -16 -106 0 -35 -1 -33 -23 28 -57 161 -135 314 -197 385 -23 26
-41 36 -76 41 -55 8 -58 4 -73 -91 -66 -414 -195 -964 -294 -1250 l-45 -130
-128 -7 c-485 -28 -635 -66 -830 -215 -78 -59 -128 -113 -250 -270 -123 -158
-186 -223 -215 -223 -14 0 -39 -5 -56 -11 -34 -12 -46 -34 -89 -181 -25 -84
-27 -108 -28 -254 l0 -161 49 -98 c64 -130 172 -245 279 -299 117 -58 165 -67
432 -75 224 -7 245 -10 318 -35 144 -49 199 -86 242 -164 58 -103 66 -215 24
-327 -11 -27 -19 -54 -19 -59 0 -20 60 112 68 149 l8 40 54 2 c84 4 410 32
453 39 20 4 37 12 37 19 0 34 136 460 224 705 25 69 75 220 112 335 37 116 83
255 104 310 21 55 63 190 94 300 32 110 70 245 86 300 32 110 69 284 97 445
19 114 24 423 11 600 l-8 95 79 37 79 36 25 -26 c14 -15 50 -61 79 -102 l54
-76 -88 4 -88 4 0 -55 0 -55 38 -6 c20 -3 64 -8 97 -12 95 -11 100 -14 134
-104 17 -44 38 -110 47 -147 8 -37 20 -75 25 -86 16 -28 7 -29 -33 -2 -50 34
-149 65 -208 65 -62 0 -67 -8 -78 -134 l-8 -88 65 6 c36 3 118 9 182 12 l115
7 27 -199 c15 -110 29 -211 32 -225 4 -25 2 -26 -57 -33 -34 -3 -145 -6 -249
-6 -216 0 -211 2 -229 -88 -6 -31 -17 -79 -25 -106 l-14 -48 37 6 c77 13 232
25 385 30 l157 5 0 -280 0 -279 -243 6 c-223 6 -256 5 -390 -16 l-146 -22 -34
-104 c-39 -118 -44 -112 68 -88 52 12 155 17 407 21 l336 5 6 -54 c3 -29 10
-127 16 -218 5 -91 13 -195 17 -232 6 -64 5 -68 -15 -68 -11 0 -60 -14 -109
-30 -161 -56 -245 -71 -448 -80 -198 -10 -422 -27 -489 -39 -44 -7 -50 -19
-79 -144 -18 -80 -32 -75 148 -51 301 39 761 139 957 207 l95 33 12 -69 c10
-63 10 -71 -6 -83 -16 -12 -15 -13 14 -14 27 0 34 -4 39 -27 21 -100 48 -166
94 -231 64 -92 169 -204 183 -195 5 3 7 2 4 -4 -4 -6 0 -19 8 -29 14 -18 14
-16 10 16 l-5 35 11 -38 c10 -33 9 -40 -7 -52 -35 -27 -91 -40 -109 -25 -17
14 -105 137 -105 147 0 18 -326 353 -335 344 -3 -2 -18 -4 -35 -3 -26 1 -30
-3 -30 -27 0 -26 -5 -29 -67 -45 -38 -10 -113 -26 -168 -37 -139 -27 -145 -28
-187 -35 -41 -7 -46 -15 -24 -33 11 -9 24 -8 56 3 23 8 48 12 54 10 7 -3 23 0
37 5 23 9 22 10 -10 10 -60 1 -29 9 77 20 63 7 119 19 144 31 22 11 44 17 49
15 4 -3 10 1 12 7 4 10 6 10 6 1 1 -7 8 -10 17 -6 23 9 53 -29 103 -134 l44
-91 -6 -86 c-6 -88 1 -104 31 -74 9 9 12 9 12 0 0 -7 -14 -15 -31 -19 -31 -6
-31 -6 -27 -60 l5 -54 -61 -62 c-94 -96 -186 -114 -238 -47 -13 17 -38 49 -56
72 -19 23 -45 65 -59 92 -14 28 -35 64 -47 81 -11 16 -44 73 -71 125 -28 52
-56 94 -63 93 -6 -2 -9 4 -6 12 7 17 -14 48 -26 40 -4 -3 -10 4 -13 15 -3 11
-10 20 -17 20 -6 0 -8 -4 -5 -10 4 -6 -3 -6 -21 0 -15 6 -29 8 -33 5 -3 -4 -6
-154 -6 -335 l-1 -329 -34 -68 c-41 -79 -83 -113 -142 -113 -70 0 -99 44 -208
315 -82 203 -142 375 -136 390 3 10 -1 12 -17 9 -12 -2 -73 -9 -134 -16 -62
-6 -113 -14 -113 -17 0 -3 -55 -5 -123 -3 -67 2 -134 -1 -147 -7 -22 -9 -20
-10 20 -11 l45 -2 -45 -12 c-44 -11 -42 -11 55 -14 55 -2 167 2 249 8 82 5
151 9 153 6 6 -5 -15 -136 -47 -296 -16 -80 -39 -196 -51 -258 -32 -161 -78
-222 -178 -238 -36 -6 -52 -3 -87 17 -57 30 -85 84 -117 224 -23 97 -63 391
-72 530 -3 42 -7 50 -24 51 -17 1 -21 -5 -21 -33 0 -19 -20 -85 -44 -146 -25
-62 -57 -157 -71 -212 -22 -84 -40 -135 -92 -262 -4 -9 -33 -13 -98 -13 l-93
0 -11 -32 c-20 -65 -41 -161 -47 -213 -11 -88 50 -252 212 -575 305 -610 504
-1119 620 -1590 120 -489 167 -787 219 -1387 l6 -72 -140 0 c-400 -2 -569
-132 -620 -476 -21 -144 30 -248 149 -304 l55 -26 684 -3 c752 -3 745 -3 829
58 55 40 74 81 116 246 45 179 80 386 130 764 53 398 68 603 70 977 0 155 4
283 7 283 14 0 331 -333 383 -401 83 -111 141 -220 177 -328 84 -253 183 -470
260 -567 87 -109 158 -160 408 -290 73 -38 89 -50 70 -52 -13 -1 -202 -6 -419
-10 -383 -8 -397 -9 -448 -31 -61 -27 -140 -109 -177 -182 -14 -26 -30 -77
-37 -113 -8 -43 -17 -66 -26 -66 -11 0 -12 -10 -7 -43 17 -101 73 -185 149
-222 l53 -26 1960 1 c1078 0 1973 4 1989 9 116 33 184 138 184 282 l0 57 74
46 c327 204 531 754 566 1518 8 192 1 513 -16 638 -74 572 -170 949 -363 1432
-94 235 -266 580 -446 893 -197 342 -274 507 -315 668 -69 278 103 367 479
247 107 -34 136 -36 210 -14 76 22 130 80 159 167 34 103 26 206 -24 312 -27
57 -129 165 -189 201 -103 60 -333 74 -570 34 -210 -35 -348 -99 -468 -216
-209 -205 -241 -489 -101 -879 64 -176 154 -359 319 -650 66 -117 281 -540
344 -679 211 -461 336 -937 376 -1431 25 -319 17 -590 -26 -844 -55 -326 -189
-603 -317 -657 -44 -18 -42 -18 -42 10 0 44 -135 597 -192 786 -171 568 -404
1006 -716 1345 -215 233 -392 364 -717 529 -98 49 -202 90 -420 162 -413 137
-499 174 -729 317 -283 175 -595 459 -928 843 -18 20 -18 21 89 64 60 24 122
48 139 54 l31 11 -67 60 c-37 33 -134 123 -216 200 -82 77 -170 158 -195 181
l-46 40 -7 105 c-4 57 -14 169 -22 249 -29 278 -34 408 -34 885 -1 659 -11
791 -76 1085 -74 329 -135 469 -300 690 -48 63 -88 121 -91 128 -9 22 -34 13
-113 -42 l-78 -53 -5 33 c-7 41 -68 182 -143 329 -71 138 -112 179 -142 142z
m-397 -397 c-4 -85 -10 -186 -15 -225 -12 -110 -79 -440 -90 -443 -6 -2 -10
-11 -10 -20 0 -9 -20 -98 -45 -197 -25 -99 -45 -192 -45 -207 0 -25 -3 -26
-60 -30 -33 -1 -60 -3 -60 -3 6 0 60 124 60 136 0 11 5 19 11 19 6 0 8 9 4 21
-5 13 -3 19 3 15 12 -7 26 25 14 33 -5 3 0 35 10 71 16 59 18 47 3 -26 -4 -24
-3 -23 8 6 18 44 29 112 17 105 -4 -3 -6 4 -3 16 4 14 8 17 13 9 5 -8 10 -1
15 19 4 18 4 35 1 38 -3 4 -6 -4 -6 -17 0 -13 -3 -21 -6 -18 -3 3 -2 23 2 44
5 29 9 34 14 20 3 -11 6 2 7 30 0 27 11 96 25 154 14 58 31 137 37 175 7 39
23 135 37 215 13 80 30 183 36 230 l13 85 8 -50 c4 -27 5 -120 2 -205z m402
113 c-2 -16 -4 -5 -4 22 0 28 2 40 4 28 2 -13 2 -35 0 -50z m-20 -155 c-3 -8
-6 -5 -6 6 -1 11 2 17 5 13 3 -3 4 -12 1 -19z m-107 -208 c0 -11 -4 -20 -9
-20 -5 0 -7 9 -4 20 3 11 7 20 9 20 2 0 4 -9 4 -20z m7 -77 c-3 -10 -5 -4 -5
12 0 17 2 24 5 18 2 -7 2 -21 0 -30z m-56 -40 c-12 -20 -14 -14 -5 12 4 9 9
14 11 11 3 -2 0 -13 -6 -23z m43 -32 c-4 -23 -9 -40 -11 -37 -3 3 -2 23 2 46
4 23 9 39 11 37 3 -2 2 -23 -2 -46z m-50 -7 c3 -8 2 -12 -4 -9 -6 3 -10 10
-10 16 0 14 7 11 14 -7z m-21 -49 c-3 -9 -8 -14 -10 -11 -3 3 -2 9 2 15 9 16
15 13 8 -4z m38 -72 c-11 -37 -25 -88 -31 -112 -6 -23 -13 -41 -15 -39 -4 3
37 166 44 181 1 1 4 12 8 25 3 12 8 21 10 18 2 -2 -5 -35 -16 -73z m-354 -679
c-3 -3 -12 -4 -19 -1 -8 3 -5 6 6 6 11 1 17 -2 13 -5z m-831 -238 c40 -14 75
-26 80 -26 14 0 -40 26 -72 35 -16 4 -24 9 -17 12 10 4 251 -72 262 -82 2 -2
-10 -20 -26 -38 -17 -19 -43 -59 -58 -89 -66 -131 -193 -248 -308 -284 -29 -9
-97 -18 -153 -21 -95 -5 -102 -4 -122 17 -25 27 -52 102 -52 144 0 93 81 257
151 307 89 63 187 71 315 25z m1629 -1936 c-3 -5 -10 -10 -16 -10 -5 0 -9 5
-9 10 0 6 7 10 16 10 8 0 12 -4 9 -10z m975 -16 c0 -8 -19 -13 -24 -6 -3 5 1
9 9 9 8 0 15 -2 15 -3z m-1113 -26 c-3 -8 -6 -5 -6 6 -1 11 2 17 5 13 3 -3 4
-12 1 -19z m72 -62 c-3 -3 -11 5 -18 17 -13 21 -12 21 5 5 10 -10 16 -20 13
-22z m782 -13 c13 -16 12 -17 -3 -4 -10 7 -18 15 -18 17 0 8 8 3 21 -13z
m-745 -23 c0 -12 -4 -16 -9 -11 -5 5 -6 14 -3 20 10 15 12 14 12 -9z m-781
-30 c14 -7 8 -8 -20 -3 -22 3 -42 7 -44 9 -9 8 45 2 64 -6z m55 -4 c-7 -7 -13
-7 -20 0 -6 6 -3 10 10 10 13 0 16 -4 10 -10z m696 -18 l29 -33 -32 29 c-31
28 -38 36 -30 36 2 0 16 -15 33 -32z m-899 6 c-3 -3 -12 -4 -19 -1 -8 3 -5 6
6 6 11 1 17 -2 13 -5z m1583 -94 c0 -5 -5 -10 -11 -10 -5 0 -7 5 -4 10 3 6 8
10 11 10 2 0 4 -4 4 -10z m946 -1980 c0 -12 -4 -16 -9 -11 -5 5 -6 14 -3 20
10 15 12 14 12 -9z m-81 -100 c-9 -18 -19 -30 -21 -27 -3 2 3 18 13 35 23 40
29 33 8 -8z"/>
<path d="M2386 8097 c-9 -43 -4 -263 7 -273 16 -16 17 10 9 157 -6 119 -10
145 -16 116z"/>
<path d="M3902 6259 c-28 -8 -32 -12 -22 -24 7 -8 24 -15 39 -14 14 0 20 3 14
6 -28 11 -11 20 17 10 25 -10 33 -9 40 3 5 8 10 18 10 23 0 10 -57 7 -98 -4z"/>
<path d="M3700 6228 c-155 -22 -155 -22 -70 -31 36 -4 46 -3 30 3 -23 7 -22 8
11 9 70 2 131 14 117 22 -7 5 -15 8 -18 7 -3 0 -34 -5 -70 -10z"/>
<path d="M3760 6200 c0 -5 7 -7 15 -4 8 4 15 8 15 10 0 2 -7 4 -15 4 -8 0 -15
-4 -15 -10z"/>
<path d="M3500 6190 c0 -5 7 -7 15 -4 8 4 15 8 15 10 0 2 -7 4 -15 4 -8 0 -15
-4 -15 -10z"/>
<path d="M3588 6183 c7 -3 16 -2 19 1 4 3 -2 6 -13 5 -11 0 -14 -3 -6 -6z"/>
<path d="M2786 6105 c-13 -19 -14 -30 -6 -45 6 -11 13 -20 16 -20 2 0 0 9 -6
19 -14 27 -13 36 3 22 14 -11 27 -5 27 12 0 5 -7 6 -16 3 -14 -5 -15 -4 -4 9
7 9 11 18 8 21 -3 2 -13 -7 -22 -21z"/>
<path d="M2754 6043 c4 -7 3 -13 -2 -13 -18 0 -22 -31 -7 -63 9 -20 13 -23 9
-8 -4 15 -2 21 5 17 20 -13 25 44 6 62 -10 10 -15 11 -11 5z m13 -45 c-3 -8
-6 -5 -6 6 -1 11 2 17 5 13 3 -3 4 -12 1 -19z"/>
<path d="M2695 5949 c-4 -5 -4 -13 -1 -16 3 -4 6 0 6 8 0 11 2 11 10 -1 6 -9
10 -10 10 -3 0 17 -17 25 -25 12z"/>
<path d="M2696 5895 c-9 -26 -7 -32 5 -12 6 10 9 21 6 23 -2 3 -7 -2 -11 -11z"/>
<path d="M2660 5885 c-7 -9 -11 -17 -9 -20 3 -2 10 5 17 15 14 24 10 26 -8 5z"/>
<path d="M2666 5853 c-6 -14 -5 -15 5 -6 7 7 10 15 7 18 -3 3 -9 -2 -12 -12z"/>
<path d="M4522 5858 c-16 -16 -15 -35 2 -41 9 -4 17 2 21 15 9 25 -7 42 -23
26z"/>
<path d="M2617 5784 c-4 -4 -7 -11 -7 -15 0 -9 27 -5 37 6 4 4 3 5 -4 2 -6 -4
-13 -2 -15 4 -2 5 -7 7 -11 3z"/>
<path d="M3846 5644 c-3 -9 -4 -20 -1 -24 9 -15 35 1 35 21 0 23 -25 25 -34 3z"/>
<path d="M3110 5460 c0 -20 5 -30 15 -30 9 0 15 9 15 24 0 13 -7 26 -15 30
-11 4 -15 -2 -15 -24z"/>
<path d="M27 103 c-25 -4 -27 -8 -27 -54 0 -48 1 -49 30 -49 30 0 30 1 30 55
0 30 -1 54 -2 54 -2 -1 -15 -4 -31 -6z"/>
</g>
</svg>
