<?xml version="1.0" standalone="no"?>
<!DOCTYPE svg PUBLIC "-//W3C//DTD SVG 20010904//EN"
 "http://www.w3.org/TR/2001/REC-SVG-20010904/DTD/svg10.dtd">
<svg version="1.0" xmlns="http://www.w3.org/2000/svg"
 width="1024.000000pt" height="1024.000000pt" viewBox="0 0 1024.000000 1024.000000"
 preserveAspectRatio="xMidYMid meet">
<metadata>
Created by potrace 1.16, written by Peter Selinger 2001-2019
</metadata>
<g transform="translate(0.000000,1024.000000) scale(0.100000,-0.100000)"
fill="#000000" stroke="none">
<path d="M4846 9104 c-38 -7 -92 -24 -120 -38 -49 -24 -60 -25 -321 -30 -267
-5 -699 -26 -937 -45 -68 -6 -206 -15 -308 -21 -290 -17 -415 -50 -528 -136
-100 -78 -143 -146 -231 -369 -43 -110 -104 -272 -136 -360 -139 -392 -211
-590 -262 -720 -30 -77 -66 -169 -80 -205 -13 -36 -40 -103 -59 -150 -64 -153
-124 -321 -124 -344 0 -29 20 -47 95 -84 50 -25 267 -112 338 -136 14 -4 16
-12 11 -33 -8 -30 -10 -36 -154 -378 -110 -261 -272 -655 -305 -740 -12 -33
-46 -116 -75 -185 -28 -69 -62 -154 -75 -190 -13 -36 -87 -218 -166 -405 -241
-579 -258 -627 -355 -1050 -25 -111 -13 -265 36 -441 45 -165 141 -318 244
-388 25 -17 46 -38 46 -48 0 -9 -25 -142 -55 -295 -31 -153 -67 -339 -81 -413
-13 -74 -40 -209 -59 -300 -133 -642 -130 -625 -130 -780 1 -132 3 -152 28
-223 67 -192 194 -306 393 -354 105 -25 1597 -30 2519 -8 446 11 1360 20 2660
26 1142 5 2004 12 2037 18 239 39 381 181 435 435 29 137 -1 375 -73 572 -65
179 -77 225 -138 529 -41 202 -103 486 -124 565 -11 41 -23 98 -27 127 -6 47
-5 52 15 58 11 4 47 28 78 54 140 117 242 392 258 691 8 141 -6 206 -76 370
-27 63 -76 185 -109 270 -33 85 -87 220 -121 300 -34 80 -88 210 -120 290 -32
80 -93 231 -137 335 -116 277 -137 329 -228 550 -134 327 -267 635 -360 835
-71 151 -95 209 -95 224 0 6 42 24 93 40 119 36 337 123 359 143 10 9 18 26
18 38 0 12 -34 114 -76 226 -42 112 -104 285 -139 384 -35 99 -107 302 -160
450 -53 149 -112 313 -130 365 -113 326 -192 499 -269 592 -131 157 -262 217
-535 243 -149 14 -433 39 -571 50 -36 3 -281 12 -546 19 -403 12 -487 17 -520
31 -21 9 -75 25 -119 36 -97 23 -321 25 -429 3z m457 -139 c41 -13 57 -23 57
-35 0 -84 -46 -420 -58 -420 -3 0 -10 7 -17 17 -10 14 -15 8 -30 -40 -9 -30
-36 -93 -59 -139 l-41 -83 -70 0 c-54 0 -76 4 -97 20 -15 11 -65 77 -111 146
l-84 127 3 -47 c3 -48 -6 -3 -45 222 -31 179 -31 180 30 207 89 38 172 50 324
46 95 -3 158 -10 198 -21z m-690 -190 c9 -69 14 -132 11 -140 -4 -8 -2 -15 4
-15 5 0 13 -25 17 -56 9 -77 68 -302 89 -343 22 -41 19 -43 -79 -71 -38 -12
-95 -29 -125 -40 -30 -10 -80 -25 -111 -33 l-56 -14 -52 266 c-29 146 -59 290
-67 320 -8 29 -13 55 -11 58 3 2 36 7 73 10 38 3 77 9 86 14 9 5 33 9 52 9 20
0 36 5 36 11 0 6 -8 8 -17 5 -10 -3 -61 -10 -113 -16 -52 -6 -102 -13 -110
-15 -11 -4 -22 15 -43 72 -15 42 -25 78 -23 80 2 2 89 8 192 12 104 4 198 9
210 9 19 2 22 -8 37 -123z m1050 103 c81 -1 147 -6 147 -10 0 -5 -11 -54 -24
-111 -31 -134 -62 -304 -90 -502 -16 -108 -27 -159 -35 -157 -7 1 -35 4 -64 7
-42 4 -245 44 -254 50 -2 1 8 37 21 81 13 44 33 154 45 244 12 91 26 187 31
213 6 27 10 82 10 124 l0 75 33 -5 c17 -4 98 -7 180 -9z m914 -23 c46 -4 83
-10 83 -13 0 -11 -46 -151 -51 -156 -2 -2 -56 4 -119 15 -72 11 -156 18 -225
17 l-110 -2 125 -6 c147 -7 292 -30 264 -41 -12 -5 -4 -7 20 -4 35 3 38 2 32
-18 -33 -111 -82 -324 -109 -470 -18 -98 -35 -175 -38 -173 -5 5 -215 32 -483
63 -87 9 -164 22 -171 28 -11 8 -7 55 25 255 22 135 46 283 54 330 9 47 16
108 16 136 0 28 2 53 4 55 6 6 583 -8 683 -16z m-2475 -65 c9 -41 26 -129 38
-195 23 -132 60 -315 91 -442 10 -45 19 -86 19 -91 0 -5 -42 -17 -92 -26 -51
-10 -113 -21 -138 -26 -92 -19 -168 -30 -305 -44 -77 -8 -148 -18 -157 -21
-13 -5 -18 1 -23 32 -13 75 -47 177 -105 313 -56 133 -101 260 -99 284 0 6 4
2 9 -9 7 -16 9 -17 9 -3 1 19 14 24 84 34 75 10 48 16 -32 6 -61 -7 -73 -6
-80 7 -13 23 -63 212 -58 217 12 12 572 42 742 40 l79 -1 18 -75z m2908 29
c126 -12 230 -34 288 -61 55 -26 58 -33 25 -51 -80 -41 -121 -65 -118 -69 9
-9 -92 -105 -122 -117 -42 -17 -50 -43 -62 -221 -6 -80 -16 -162 -21 -182 -16
-55 -66 -103 -130 -123 -60 -20 -296 -33 -310 -19 -5 5 -1 49 10 99 10 50 28
144 40 210 30 170 89 391 141 533 10 26 2 26 259 1z m-3837 -66 c3 -38 14 -95
23 -128 9 -33 18 -70 18 -82 1 -12 3 -20 5 -17 7 7 71 -161 66 -174 -3 -7 0
-10 5 -7 6 3 11 1 11 -4 2 -16 4 -23 19 -56 16 -37 119 -339 116 -342 -1 -1
-31 -7 -66 -12 -97 -16 -186 -14 -223 6 -61 31 -206 200 -192 223 3 5 0 7 -8
4 -14 -5 -55 52 -169 231 -32 50 -129 161 -139 158 -4 -1 -10 4 -13 13 -4 10
-1 13 7 9 6 -4 3 1 -8 9 -19 16 -17 18 45 82 44 44 89 77 137 101 73 36 115
43 324 51 l36 2 6 -67z m-611 -369 c2 -10 11 -26 21 -36 9 -10 17 -27 17 -39
0 -13 4 -18 12 -13 8 5 9 0 6 -14 -4 -12 -3 -20 2 -17 12 7 42 -44 36 -61 -3
-8 -2 -12 4 -9 5 3 41 -50 81 -117 39 -68 107 -179 149 -248 42 -69 90 -150
105 -180 15 -29 37 -66 48 -82 l20 -27 -40 -58 c-22 -32 -48 -78 -58 -103 -22
-57 -31 -223 -16 -304 6 -33 10 -60 8 -62 -1 -1 -213 -5 -471 -10 -399 -6
-468 -5 -464 7 3 8 31 79 63 159 58 146 68 174 155 420 132 374 180 515 180
528 0 7 24 75 54 150 29 75 57 146 61 157 7 20 7 20 15 -2 5 -12 10 -29 12
-39z m5110 -254 c33 -102 93 -275 133 -385 40 -110 107 -306 150 -435 43 -129
88 -259 101 -289 14 -30 23 -55 22 -56 -9 -6 -969 32 -975 39 -3 2 7 76 21
163 14 87 26 173 26 191 0 17 5 32 11 32 6 0 8 -11 5 -27 -23 -109 -31 -228
-16 -218 6 3 10 18 10 32 0 15 3 24 6 20 12 -11 -7 -79 -20 -74 -9 4 -11 -4
-9 -27 9 -69 12 -76 41 -75 l27 1 -27 11 c-28 11 -37 31 -19 41 5 3 12 -4 15
-17 6 -21 8 -20 26 13 11 21 19 28 20 18 0 -9 -4 -20 -10 -23 -5 -3 -10 -11
-10 -16 0 -5 9 -1 21 10 15 14 19 26 14 43 -3 13 -3 18 2 11 6 -8 13 -7 28 4
14 11 16 17 8 20 -19 7 -17 63 2 63 8 0 15 8 15 18 0 9 5 24 11 32 8 11 9 6 4
-20 -5 -26 -4 -31 4 -20 7 9 11 10 11 3 0 -6 -4 -15 -10 -18 -5 -3 -10 -16
-11 -28 -1 -21 -2 -20 -10 3 -7 22 -8 20 -5 -10 2 -26 -3 -43 -20 -63 -13 -16
-24 -35 -24 -42 0 -8 -8 -19 -17 -24 -10 -6 -13 -11 -7 -11 19 0 62 64 97 142
39 90 41 178 8 275 -12 37 -21 88 -21 125 0 71 -8 110 -21 103 -4 -3 -6 -12
-2 -20 3 -9 -1 -15 -11 -15 -23 0 -20 -17 4 -23 11 -3 20 -11 19 -19 0 -10 -2
-10 -6 0 -2 6 -12 12 -22 12 -26 0 -43 21 -30 37 8 9 8 13 0 13 -6 0 -13 -11
-17 -25 -5 -22 -9 -24 -22 -13 -13 11 -15 10 -9 -4 8 -23 -2 -50 -16 -41 -6 3
-7 1 -3 -6 4 -6 2 -18 -4 -26 -19 -23 0 -18 20 5 17 20 18 20 18 -6 0 -16 -3
-21 -8 -14 -6 9 -11 7 -19 -6 -9 -16 -12 -17 -21 -4 -5 8 -8 20 -5 27 2 6 -1
14 -8 17 -8 3 -9 7 -1 13 33 26 132 223 216 433 37 94 64 153 140 307 l59 122
31 -57 c16 -31 57 -140 90 -242z m-2835 188 c-3 -7 -5 -2 -5 12 0 14 2 19 5
13 2 -7 2 -19 0 -25z m954 -533 c145 -9 311 -22 369 -31 139 -19 310 -62 335
-83 47 -40 64 -47 252 -107 63 -20 129 -53 148 -74 9 -10 35 -51 57 -92 21
-40 37 -63 35 -50 -3 12 -1 22 3 22 9 0 7 -58 -11 -262 -9 -101 -26 -197 -80
-448 -6 -25 -19 -97 -29 -160 -25 -145 -64 -341 -89 -445 -33 -134 -49 -214
-70 -361 -25 -168 -39 -245 -47 -253 -3 -3 -3 12 1 33 6 28 5 37 -4 32 -6 -4
-11 -11 -11 -16 0 -4 -28 -55 -61 -112 -34 -56 -87 -148 -117 -203 -30 -55
-59 -101 -64 -103 -4 -2 -8 -7 -8 -12 0 -12 -71 -119 -135 -205 -29 -38 -120
-135 -201 -215 -252 -247 -330 -303 -423 -303 -41 0 -57 5 -67 18 -8 10 -17
16 -20 12 -4 -4 -1 -14 6 -22 10 -12 10 -19 2 -27 -7 -7 -12 -23 -12 -36 l0
-24 20 23 19 24 0 -35 c-1 -31 -2 -32 -8 -10 -7 21 -9 15 -16 -33 -4 -32 -5
-61 -1 -64 3 -4 6 5 6 20 0 14 3 28 8 30 4 3 7 -23 7 -57 0 -46 5 -67 17 -80
14 -13 15 -22 8 -36 -19 -35 -28 -30 -35 18 -9 65 -72 313 -92 365 -9 23 -25
54 -35 69 -11 16 -17 32 -13 38 3 5 0 20 -8 32 -12 20 -12 27 0 48 l15 25 -6
-25 c-2 -14 1 -38 9 -55 9 -19 14 -24 14 -12 1 9 5 17 11 17 5 0 7 -6 4 -13
-3 -8 1 -19 9 -25 12 -10 13 -8 9 13 -2 14 -1 25 4 24 27 -5 43 4 48 26 6 22
9 23 31 13 14 -6 27 -9 30 -7 14 15 -45 289 -63 289 -4 0 -7 25 -7 56 0 67
-12 79 -123 131 -98 46 -194 65 -322 65 -131 0 -234 -21 -328 -67 -85 -42
-104 -70 -108 -159 -2 -32 -6 -61 -10 -65 -4 -3 -4 3 0 14 5 14 4 17 -4 9 -6
-6 -14 -66 -19 -133 -5 -67 -11 -124 -13 -126 -3 -3 -28 -6 -56 -7 l-52 -2 -2
-61 c-1 -33 -1 -80 0 -105 4 -71 2 -72 -80 -42 -66 25 -158 77 -166 94 -2 4
-10 4 -18 1 -8 -3 -14 0 -12 6 2 6 -20 32 -48 58 -29 27 -68 70 -89 97 -20 26
-51 64 -68 84 -18 20 -54 61 -82 92 -27 31 -64 72 -80 91 -17 19 -53 66 -80
104 -26 39 -53 75 -60 80 -6 6 -22 26 -35 45 -13 19 -30 41 -37 48 -7 7 -38
66 -70 132 -31 65 -61 116 -66 113 -6 -3 -7 -1 -4 4 4 6 0 30 -9 54 -9 24 -16
58 -15 74 0 28 -102 347 -118 370 -21 28 -92 275 -111 383 -6 35 -24 109 -41
165 -77 269 -148 663 -135 750 12 74 37 137 70 172 18 19 30 38 27 41 -3 4 0
4 7 0 7 -4 28 2 47 14 36 22 47 37 20 26 -22 -8 -18 2 6 15 15 8 19 8 15 0
-11 -17 -1 -14 82 28 42 21 127 58 187 81 61 24 115 46 120 50 6 4 21 11 35
15 14 4 39 13 55 21 27 12 217 39 520 75 256 30 1113 38 1526 14z m1192 -325
c3 -11 1 -18 -4 -14 -5 3 -9 12 -9 20 0 20 7 17 13 -6z m174 -12 c-3 -8 -6 -5
-6 6 -1 11 2 17 5 13 3 -3 4 -12 1 -19z m-170 -50 c-3 -8 -6 -5 -6 6 -1 11 2
17 5 13 3 -3 4 -12 1 -19z m206 -120 c2 -42 0 -83 -4 -90 -5 -7 -9 28 -9 81 0
112 7 117 13 9z m114 25 c-3 -10 -5 -4 -5 12 0 17 2 24 5 18 2 -7 2 -21 0 -30z
m-4402 -414 c88 -1 96 -3 99 -23 3 -11 23 -102 45 -201 23 -99 41 -182 41
-185 0 -10 -540 -12 -553 -2 -13 11 -162 70 -242 97 -54 17 -258 94 -316 119
-60 25 -63 34 -31 117 l28 74 404 5 c223 3 410 4 417 3 7 -1 55 -3 108 -4z
m4906 -15 l307 -6 6 -37 c3 -20 7 -45 8 -55 2 -15 -5 -23 -27 -29 -74 -23
-419 -145 -469 -165 -40 -17 -76 -62 -76 -96 0 -17 -6 -18 -52 -12 -29 3 -156
9 -281 13 -204 5 -227 8 -222 22 4 9 12 48 19 86 7 39 24 120 37 182 l23 111
211 -4 c115 -2 348 -7 516 -10z m-5117 -500 l254 -7 6 -39 c6 -35 75 -321 91
-374 l6 -21 -447 -6 c-246 -4 -449 -5 -451 -4 -2 2 17 51 41 108 65 152 136
334 136 348 0 9 16 11 55 7 30 -3 169 -8 309 -12z m4719 0 c20 -4 37 -10 37
-15 0 -5 14 -37 30 -71 17 -34 30 -74 30 -89 0 -45 -43 -130 -93 -183 -26 -27
-49 -57 -53 -68 -5 -18 -18 -19 -230 -18 -123 1 -225 4 -227 8 -2 4 8 72 24
152 15 80 34 178 40 218 l13 72 195 0 c108 0 213 -3 234 -6z m-4050 -499 c5
-28 4 -34 -3 -20 -8 19 -14 73 -6 64 2 -2 6 -22 9 -44z m4427 -76 c107 -6 200
-15 206 -20 6 -5 14 -22 17 -38 3 -15 19 -57 35 -92 16 -35 41 -95 56 -134 14
-38 32 -81 39 -95 l13 -25 -100 3 c-56 1 -162 7 -236 13 -164 12 -610 28 -815
29 -185 0 -228 6 -216 29 13 25 60 229 67 294 l7 59 366 -6 c201 -4 454 -12
561 -17z m-4550 -16 c0 -24 40 -258 55 -319 l5 -22 -365 -1 c-200 -1 -467 -6
-592 -11 -125 -5 -267 -10 -316 -10 l-87 0 19 39 c11 21 38 89 59 152 37 106
61 167 70 179 7 9 275 16 715 18 l437 2 0 -27z m217 -175 c-3 -8 -6 -5 -6 6
-1 11 2 17 5 13 3 -3 4 -12 1 -19z m-7 -49 c0 -16 5 -29 10 -29 6 0 10 -4 10
-10 0 -5 -6 -9 -12 -7 -7 1 -11 -5 -9 -13 2 -8 6 -33 7 -55 2 -22 1 -31 -2
-20 -26 106 -33 145 -28 159 9 24 24 9 24 -25z m3217 -171 c-3 -7 -5 -2 -5 12
0 14 2 19 5 13 2 -7 2 -19 0 -25z m-3183 -28 c10 -13 9 -13 -6 -1 -10 7 -18
21 -17 30 0 13 1 14 6 1 3 -8 11 -22 17 -30z m29 10 c3 -11 1 -18 -4 -14 -5 3
-9 12 -9 20 0 20 7 17 13 -6z m3657 -35 c192 -7 589 -33 600 -40 4 -3 104 -9
221 -15 117 -6 215 -13 217 -15 14 -14 121 -299 115 -307 -3 -6 -1 -8 5 -4 6
3 15 -9 22 -31 7 -21 17 -44 23 -50 12 -16 -154 -17 -389 -3 -89 5 -414 14
-724 20 -310 5 -565 12 -567 14 -3 2 7 51 20 108 14 56 35 156 48 221 l24 118
110 -5 c60 -3 184 -8 275 -11z m-3952 -2 c111 -5 122 -8 122 -25 0 -22 72
-365 86 -410 5 -16 -31 -17 -578 -18 -321 0 -708 -3 -860 -6 -153 -4 -278 -4
-278 0 0 4 6 17 14 29 12 18 143 348 158 395 4 15 70 20 443 31 327 10 746 12
893 4z m282 -63 c0 -5 -2 -10 -4 -10 -3 0 -8 5 -11 10 -3 6 -1 10 4 10 6 0 11
-4 11 -10z m3137 -12 c-3 -8 -6 -5 -6 6 -1 11 2 17 5 13 3 -3 4 -12 1 -19z
m-3140 -55 c-3 -10 -5 -2 -5 17 0 19 2 27 5 18 2 -10 2 -26 0 -35z m3113 -40
c-11 -17 -11 -17 -6 0 3 10 6 24 7 30 0 9 2 9 5 0 3 -7 0 -20 -6 -30z m-3072
-82 c9 -18 18 -28 20 -22 2 6 8 8 14 5 6 -4 5 -9 -3 -15 -9 -5 -3 -18 27 -47
43 -43 66 -71 78 -92 9 -18 -107 103 -140 146 -15 19 -26 49 -29 80 -4 47 -4
47 6 14 6 -19 18 -50 27 -69z m3041 9 c-13 -22 -26 -40 -30 -40 -4 0 4 18 18
40 15 22 28 40 30 40 3 0 -6 -18 -18 -40z m-3023 10 c0 -12 -4 -16 -9 -11 -5
5 -6 14 -3 20 10 15 12 14 12 -9z m2972 -73 c6 10 13 15 16 12 10 -9 -98 -145
-210 -265 -51 -55 -156 -174 -170 -192 -8 -9 -14 -12 -14 -6 0 5 13 23 30 39
16 16 28 30 26 32 -2 2 8 16 23 32 14 15 51 56 81 90 30 35 64 72 75 84 11 12
19 26 17 30 -1 5 2 6 8 2 5 -3 10 -3 10 2 0 4 12 22 28 38 65 72 64 72 52 97
-10 21 -10 22 4 5 14 -18 15 -18 24 0z m-1274 -12 c79 -21 155 -55 165 -74 8
-15 -21 -16 -320 -17 -323 0 -330 0 -327 19 2 16 19 24 78 39 201 50 305 59
404 33z m-1619 -13 c-3 -3 -11 0 -18 7 -9 10 -8 11 6 5 10 -3 15 -9 12 -12z
m2808 -57 c-3 -9 -8 -14 -10 -11 -3 3 -2 9 2 15 9 16 15 13 8 -4z m-2702 -107
c16 -29 2 -21 -22 15 -17 23 -18 28 -6 18 10 -8 23 -23 28 -33z m1808 -1 c0
-21 -1 -21 -8 -2 -8 20 -8 20 -15 -1 -5 -16 -13 -21 -29 -17 -18 4 -19 3 -7
-7 12 -9 11 -10 -7 -5 -12 3 -30 2 -40 -3 -20 -10 -43 -5 -43 9 0 5 18 9 39 9
28 0 49 7 68 24 31 27 43 25 42 -7z m-814 -25 c-6 -7 -45 9 -45 18 0 4 11 3
24 -3 14 -7 23 -13 21 -15z m78 1 c-7 -2 -21 -2 -30 0 -10 3 -4 5 12 5 17 0
24 -2 18 -5z m362 -3 c-3 -5 1 -10 9 -10 9 0 16 -4 16 -10 0 -5 -18 -10 -40
-10 -22 0 -40 4 -40 8 0 5 -18 8 -40 7 -23 -1 -40 3 -40 9 0 7 -3 8 -8 1 -4
-6 -17 -10 -29 -9 -13 1 -33 2 -45 3 -19 1 -20 3 -8 11 20 13 233 13 225 0z
m125 0 c-14 -4 -19 -8 -11 -9 8 -1 11 -4 8 -7 -4 -4 -12 -2 -19 4 -7 6 -29 12
-48 15 -19 2 -6 4 30 4 46 1 58 -1 40 -7z m255 -18 c-3 -3 -11 0 -18 7 -9 10
-8 11 6 5 10 -3 15 -9 12 -12z m1365 -2 c107 -5 389 -15 625 -21 383 -10 431
-13 440 -27 22 -36 125 -393 125 -432 0 -6 -258 -10 -756 -10 l-757 0 6 27 c3
16 15 93 27 173 12 80 25 163 30 185 5 22 10 56 10 76 0 42 6 50 34 44 12 -3
109 -9 216 -15z m-3089 -12 c6 -11 8 -22 5 -25 -3 -3 -1 -14 5 -24 7 -13 18
-18 39 -15 17 2 33 -1 37 -7 3 -6 1 -7 -5 -3 -16 10 -15 -6 1 -24 6 -8 0 -4
-15 9 -16 14 -28 21 -28 16 0 -5 12 -22 28 -39 15 -17 19 -24 9 -17 -9 8 -44
44 -77 81 -56 63 -58 68 -35 68 15 0 30 -9 36 -20z m1688 5 c0 -5 -4 -17 -8
-28 -7 -17 -8 -17 -13 8 -4 19 -1 27 8 27 8 0 14 -3 13 -7z m-1915 -77 c-3
-21 -1 -26 8 -20 10 5 11 4 1 -7 -7 -7 -13 -17 -13 -22 0 -4 6 -5 13 -1 8 5 7
2 -2 -9 -11 -14 -12 -23 -2 -43 6 -14 10 -48 10 -77 l-2 -52 -7 40 c-15 84
-29 172 -35 219 l-5 49 19 -25 c13 -17 19 -34 15 -52z m1960 29 c-5 -26 -10
-33 -17 -26 -8 8 -8 14 1 23 7 7 12 21 12 32 0 10 3 17 6 14 3 -3 2 -23 -2
-43z m-2144 -22 c6 -32 15 -71 20 -88 7 -26 34 -156 59 -291 l8 -42 -343 -7
c-630 -14 -1488 2 -1637 30 l-34 7 17 32 c9 18 49 116 90 219 l75 187 245 3
c135 1 525 3 867 5 l622 2 11 -57z m2117 35 c-3 -8 -6 -5 -6 6 -1 11 2 17 5
13 3 -3 4 -12 1 -19z m-1897 -53 c13 -14 21 -25 18 -25 -2 0 -15 11 -28 25
-13 14 -21 25 -18 25 2 0 15 -11 28 -25z m1940 -33 c0 -15 -2 -15 -10 -2 -13
20 -13 33 0 25 6 -3 10 -14 10 -23z m-1891 -16 c9 -11 9 -16 -1 -22 -7 -4 -10
-4 -6 1 4 4 3 14 -3 22 -6 7 -9 13 -6 13 2 0 10 -6 16 -14z m1861 5 c0 -6 -4
-13 -10 -16 -5 -3 -10 1 -10 9 0 9 5 16 10 16 6 0 10 -4 10 -9z m-1542 -26
c-25 -29 -25 -29 -34 -13 -5 7 -3 8 6 3 10 -6 12 -4 7 9 -4 9 -3 14 2 11 5 -3
12 -1 16 5 3 5 10 10 16 10 5 0 -1 -11 -13 -25z m865 8 c-7 -2 -19 -2 -25 0
-7 3 -2 5 12 5 14 0 19 -2 13 -5z m405 -8 c41 1 54 -8 30 -19 -7 -3 3 -4 22
-1 27 4 30 3 15 -4 -17 -8 -18 -10 -2 -10 9 -1 17 -5 17 -11 0 -5 -19 -3 -41
5 -56 20 -370 20 -449 1 -82 -20 -160 -54 -203 -87 -35 -28 -57 -31 -57 -8 0
6 4 8 9 5 5 -3 12 1 15 10 4 9 9 14 12 11 4 -3 36 9 73 28 108 55 164 68 284
69 59 0 107 3 107 8 0 5 15 6 33 3 99 -16 96 -16 57 0 l-35 15 35 -8 c19 -4
54 -7 78 -7z m-1 9 c-3 -3 -12 -4 -19 -1 -8 3 -5 6 6 6 11 1 17 -2 13 -5z m93
-6 c0 -4 -6 -8 -14 -8 -8 0 -17 4 -20 8 -2 4 4 8 15 8 10 0 19 -4 19 -8z m35
-7 c-3 -6 -11 -11 -17 -11 -6 0 -6 6 2 15 14 17 26 13 15 -4z m1092 -43 c-2
-13 -4 -3 -4 22 0 25 2 35 4 23 2 -13 2 -33 0 -45z m-2536 26 c13 -14 17 -23
9 -19 -13 5 -46 45 -37 45 2 0 14 -11 28 -26z m-230 -26 c-11 -11 -13 -10 -7
0 4 7 2 21 -5 30 -12 15 -11 15 6 0 16 -15 17 -20 6 -30z m1122 35 c-7 -2 -19
-2 -25 0 -7 3 -2 5 12 5 14 0 19 -2 13 -5z m1541 -43 c-57 -58 -70 -66 -24
-13 18 20 37 42 44 49 6 7 15 13 20 14 5 0 -13 -22 -40 -50z m-2274 -7 c0 -8
-9 -17 -20 -20 -11 -3 -20 -10 -20 -16 0 -6 -3 -8 -6 -5 -3 4 0 17 7 30 11 21
11 22 -4 9 -20 -16 -23 0 -5 29 11 18 14 18 30 3 10 -9 18 -23 18 -30z m-356
9 c3 -5 -1 -9 -9 -9 -8 0 -12 4 -9 9 3 4 7 8 9 8 2 0 6 -4 9 -8z m1666 -34 c0
-13 -10 -9 -36 11 -13 10 -21 21 -17 24 6 7 52 -24 53 -35z m680 -13 c-19 -19
-39 -35 -44 -35 -13 0 54 67 68 69 6 1 -5 -15 -24 -34z m-2305 4 c11 -17 -1
-21 -15 -4 -8 9 -8 15 -2 15 6 0 14 -5 17 -11z m246 2 c-12 -8 -6 -19 31 -55
25 -25 48 -46 50 -46 3 0 6 12 6 26 0 30 16 52 26 35 4 -6 2 -11 -4 -11 -6 0
-9 -4 -5 -9 3 -5 0 -21 -7 -36 l-12 -26 -58 58 c-54 53 -60 73 -23 73 6 0 3
-4 -4 -9z m141 -45 c-4 -7 -8 -5 -10 7 -2 9 -8 17 -13 17 -5 0 -9 5 -9 12 0 6
8 3 20 -7 11 -10 16 -23 12 -29z m2135 15 c0 -11 -4 -18 -8 -16 -11 7 -50 -45
-43 -57 5 -7 3 -8 -5 -3 -8 4 -25 -6 -47 -29 -19 -20 -37 -36 -41 -36 -5 0
131 150 144 159 1 0 1 -8 0 -18z m160 -13 c-3 -7 -5 -2 -5 12 0 14 2 19 5 13
2 -7 2 -19 0 -25z m-474 -23 c-3 -8 -1 -15 5 -15 5 0 12 7 16 15 3 8 11 15 18
15 7 0 2 -10 -10 -22 -23 -22 -24 -23 -37 -4 -8 10 -12 23 -9 28 9 14 24 -1
17 -17z m-2380 -5 c-3 -12 -8 -19 -11 -16 -5 6 5 36 12 36 2 0 2 -9 -1 -20z
m985 5 c3 -3 -2 -13 -11 -22 -8 -10 -23 -32 -31 -48 l-16 -30 4 35 c3 19 5 38
5 43 1 4 6 6 12 5 6 -2 14 3 17 11 2 8 0 11 -6 7 -6 -3 -13 -2 -17 3 -6 10 33
6 43 -4z m-359 -43 c-20 -14 -49 -10 -49 7 0 5 15 9 34 8 33 -1 34 -2 15 -15z
m1691 8 c0 -5 -4 -10 -10 -10 -5 0 -10 5 -10 10 0 6 5 10 10 10 6 0 10 -4 10
-10z m527 -22 c-3 -7 -5 -2 -5 12 0 14 2 19 5 13 2 -7 2 -19 0 -25z m-2840 0
c-3 -8 -6 -5 -6 6 -1 11 2 17 5 13 3 -3 4 -12 1 -19z m673 2 c-24 -15 -36 -11
-14 4 10 8 21 12 24 10 2 -3 -2 -9 -10 -14z m1655 -21 c-22 -22 -49 -45 -60
-51 -11 -6 3 12 30 40 28 28 54 51 60 51 5 1 -9 -17 -30 -40z m-1987 -40 c31
-40 32 -41 3 -9 -17 19 -36 35 -41 35 -6 0 -9 3 -7 7 1 4 -7 15 -18 24 -19 15
-19 16 4 2 14 -8 40 -34 59 -59z m240 39 c-12 -7 -4 -12 15 -9 5 1 5 -3 2 -9
-5 -8 -12 -6 -24 4 -10 10 -21 12 -27 7 -5 -6 -13 -4 -20 3 -8 9 -2 12 28 12
23 0 33 -3 26 -8z m-561 -48 c3 -8 5 -19 4 -25 -2 -5 2 -35 9 -65 6 -30 16
-80 22 -110 23 -123 55 -208 79 -215 23 -8 25 -25 3 -25 -26 0 -10 -24 23 -32
25 -6 32 -15 37 -43 4 -20 2 -42 -4 -53 -9 -14 -10 -12 -7 12 3 18 -1 35 -10
44 -12 13 -13 11 -8 -9 9 -37 9 -80 0 -126 -5 -29 -4 -43 3 -43 6 0 9 6 6 14
-3 8 0 32 6 55 11 41 25 53 33 29 2 -7 2 -2 0 12 -8 44 7 15 22 -44 8 -31 18
-88 21 -126 4 -39 10 -70 14 -70 16 0 18 31 5 82 -7 29 -19 78 -26 108 -13 59
-45 166 -57 190 -13 28 -8 94 8 97 28 5 154 -102 277 -237 173 -189 181 -201
189 -272 4 -32 13 -65 20 -73 10 -10 14 -46 15 -127 1 -106 2 -109 10 -50 8
66 18 106 24 100 3 -2 -2 -42 -10 -88 -7 -47 -16 -148 -20 -225 -4 -77 -11
-147 -16 -155 -5 -9 -6 0 -2 23 9 59 -9 43 -42 -36 -37 -92 -95 -189 -109
-184 -15 5 -47 93 -90 247 -20 74 -46 162 -56 195 l-18 60 3 -50 c2 -27 1 -42
-2 -32 -4 14 -8 16 -18 7 -16 -14 -38 -4 -29 12 4 7 2 8 -5 4 -6 -4 -14 -1
-17 8 -3 8 -12 17 -20 20 -11 4 -12 2 -4 -14 5 -10 10 -38 10 -62 1 -24 7 -61
15 -83 16 -43 19 -73 5 -40 -13 31 -13 -36 1 -91 6 -25 9 -48 5 -51 -12 -12
-16 5 -21 86 -2 45 -6 85 -9 89 -2 4 -7 32 -11 62 -4 30 -11 77 -16 104 -11
59 -11 65 0 48 5 -9 8 -2 9 19 0 17 6 45 13 60 6 16 8 37 4 46 -6 15 -9 14
-21 -12 -13 -28 -14 -27 -9 30 6 68 -17 166 -30 131 -5 -11 -3 -21 6 -27 10
-6 14 -31 15 -86 1 -43 5 -94 9 -113 4 -19 4 -32 0 -28 -9 8 -45 159 -75 313
-32 161 -57 278 -94 423 -45 177 -73 312 -79 387 -3 33 -3 51 -1 40 3 -11 8
-27 11 -35z m563 -2 c0 -6 -6 -5 -15 2 -8 7 -15 14 -15 16 0 2 7 1 15 -2 8 -4
15 -11 15 -16z m1946 -10 c4 -6 3 -8 -4 -4 -6 3 -17 -2 -24 -12 -7 -10 -20
-22 -28 -27 -8 -4 -2 6 14 23 34 36 32 36 42 20z m-1885 -44 c18 -20 25 -31
14 -24 -18 11 -61 60 -52 60 1 0 19 -16 38 -36z m27 17 c-4 9 -1 16 8 16 18 0
18 -11 1 -26 -11 -8 -18 -6 -33 12 l-19 22 24 -20 c19 -15 23 -16 19 -4z
m-256 -26 c27 -30 27 -31 5 -32 -14 -2 -17 1 -9 6 9 6 8 12 -8 26 -11 10 -20
23 -20 28 0 6 1 8 3 6 1 -2 14 -18 29 -34z m488 -22 c0 -24 -3 -33 -9 -25 -7
12 -4 62 5 62 2 0 4 -17 4 -37z m1210 -78 c-63 -63 -116 -113 -118 -111 -6 7
18 46 28 46 6 0 10 7 10 15 0 8 4 14 9 13 5 -2 37 26 72 62 56 56 91 85 109
89 2 1 -47 -51 -110 -114z m-637 73 c70 -75 114 -357 138 -867 10 -222 4 -421
-12 -421 -5 0 -9 -8 -9 -17 0 -10 -8 -31 -17 -48 -9 -16 -24 -44 -33 -62 -10
-17 -28 -45 -41 -62 -13 -16 -37 -47 -54 -67 -16 -21 -29 -44 -29 -51 1 -9 -5
-12 -17 -8 -13 4 -19 2 -19 -9 0 -9 -7 -16 -15 -16 -8 0 -15 -7 -15 -15 0 -8
5 -15 12 -15 9 0 9 -3 0 -12 -10 -10 -15 -10 -21 1 -5 7 -14 10 -20 7 -17 -11
-13 -26 6 -19 12 5 14 3 8 -7 -5 -9 -4 -11 3 -6 9 5 12 -7 12 -40 0 -30 6 -54
17 -66 20 -23 33 -23 33 -1 0 13 9 8 35 -17 30 -29 38 -32 46 -20 8 11 9 8 4
-14 -5 -24 -4 -26 8 -15 8 8 16 21 20 29 5 13 6 13 6 0 1 -21 -34 -77 -67
-105 -15 -14 -56 -35 -92 -47 -60 -21 -80 -23 -251 -21 -143 1 -195 5 -224 17
l-37 16 5 212 c5 243 55 746 97 978 5 30 17 107 25 170 9 63 25 171 36 240 10
69 19 130 19 137 0 6 9 14 19 18 11 3 23 16 27 28 10 34 80 117 126 151 107
79 221 98 271 44z m977 24 c0 -4 -13 -21 -28 -37 -39 -41 -288 -275 -337 -316
-49 -41 -55 -50 -47 -64 3 -5 -2 -4 -11 4 -15 12 -17 12 -11 -4 4 -10 3 -16
-2 -13 -5 4 -8 -17 -5 -49 1 -31 6 -51 10 -46 3 6 6 -24 7 -66 1 -43 7 -108
14 -145 7 -37 10 -69 7 -72 -3 -3 -10 25 -15 63 -6 37 -16 102 -23 143 -27
169 -27 184 -7 199 70 49 182 149 303 269 155 154 145 145 145 134z m-1582
-47 c-3 -3 -9 2 -12 12 -6 14 -5 15 5 6 7 -7 10 -15 7 -18z m-153 -12 c1 -12
-2 -20 -7 -17 -5 4 -7 13 -4 21 4 11 2 13 -9 10 -8 -4 -17 -2 -19 2 -3 5 4 8
16 7 14 -1 22 -8 23 -23z m41 8 c0 -11 -5 -17 -13 -14 -10 4 -11 9 -2 19 15
18 15 18 15 -5z m125 -86 c-6 -45 -9 -51 -10 -24 -1 40 10 110 16 94 1 -6 -1
-37 -6 -70z m-2846 45 c234 -17 620 -21 1245 -13 338 5 616 8 616 8 1 0 4 -19
7 -42 5 -40 3 -42 -40 -73 -24 -18 -56 -36 -71 -40 -18 -5 -21 -9 -9 -9 16 -1
15 -6 -11 -38 -40 -52 -64 -98 -83 -163 l-16 -55 -204 -6 c-112 -4 -544 -12
-959 -18 -415 -7 -785 -14 -822 -16 -38 -2 -68 -3 -68 -1 0 1 27 76 61 167 33
90 62 173 64 184 1 11 15 46 29 79 l26 58 52 -6 c29 -3 112 -10 183 -16z
m2436 3 c13 -16 12 -17 -3 -4 -17 13 -22 21 -14 21 2 0 10 -8 17 -17z m4055 3
c3 -8 0 -24 -6 -36 -7 -13 -8 -20 -2 -16 6 4 13 -23 17 -71 7 -71 50 -260 70
-307 8 -19 2 -19 -251 -13 -142 4 -532 10 -866 14 -335 3 -608 8 -608 9 0 3
36 267 44 319 2 17 5 46 5 66 l1 36 93 -4 c79 -3 1449 11 1485 15 7 1 15 -4
18 -12z m-3776 0 c0 -3 -4 -8 -10 -11 -5 -3 -10 -1 -10 4 0 6 5 11 10 11 6 0
10 -2 10 -4z m1310 -10 c0 -8 -4 -17 -8 -20 -4 -2 -8 4 -8 15 0 10 4 19 8 19
4 0 8 -6 8 -14z m-1226 -24 c2 -4 -4 -8 -14 -8 -10 0 -16 4 -14 8 3 4 9 8 14
8 5 0 11 -4 14 -8z m1961 -42 c-4 -23 -9 -39 -11 -37 -3 2 -2 23 2 46 4 23 9
40 11 37 3 -3 2 -23 -2 -46z m-2175 -35 c19 -19 31 -35 28 -35 -2 0 -21 16
-41 35 -20 19 -33 35 -28 35 4 0 22 -16 41 -35z m2149 -107 c-6 -40 -16 -80
-21 -88 -7 -11 -8 -8 -4 10 3 14 10 55 17 92 7 38 14 66 17 64 2 -3 -2 -38 -9
-78z m-2069 27 c13 -14 21 -25 18 -25 -2 0 -15 11 -28 25 -13 14 -21 25 -18
25 2 0 15 -11 28 -25z m71 -62 c13 -16 12 -17 -3 -4 -17 13 -22 21 -14 21 2 0
10 -8 17 -17z m-601 -3 c0 -5 -2 -10 -4 -10 -3 0 -8 5 -11 10 -3 6 -1 10 4 10
6 0 11 -4 11 -10z m2435 -51 c-11 -32 -17 -142 -18 -289 -1 -118 -2 -128 -10
-80 -7 41 -11 50 -17 35 -4 -11 -3 -21 1 -23 5 -2 8 -22 8 -45 l-2 -42 -7 35
-6 35 -7 -35 c-14 -79 -18 -199 -7 -220 8 -15 8 -29 -1 -55 -10 -26 -10 -40
-1 -59 9 -21 8 -29 -9 -48 -18 -21 -20 -21 -15 -3 3 11 2 34 -3 50 -7 27 -8
25 -15 -29 -4 -33 -12 -71 -18 -85 -5 -14 -13 -49 -18 -78 -5 -28 -19 -73 -31
-100 -12 -26 -23 -63 -23 -80 0 -18 -3 -27 -7 -21 -6 9 -11 9 -23 -1 -35 -29
-96 -13 -83 21 3 8 9 3 15 -12 6 -14 11 -19 11 -12 1 8 -8 25 -18 39 l-20 24
2 -38 c2 -30 -1 -39 -14 -40 -24 -2 -69 -50 -70 -76 -5 -97 -4 -189 3 -193 4
-3 6 -10 4 -17 -1 -7 -1 -9 1 -5 2 4 11 4 19 1 18 -7 18 4 -1 24 -9 8 -13 18
-10 21 3 3 11 -3 19 -13 14 -19 15 -19 50 0 20 11 36 23 36 28 0 4 11 12 25
17 14 5 24 15 23 21 -2 6 4 14 12 16 13 4 13 3 0 -6 -11 -8 -11 -11 -2 -11 7
0 15 7 18 15 4 8 15 15 25 15 17 0 24 11 20 33 -1 4 8 3 19 -3 27 -15 25 4 -2
24 l-23 17 23 -11 c13 -7 29 -7 40 -2 9 5 26 8 38 7 19 -1 20 4 21 124 1 69
-2 132 -7 140 -5 9 -7 -6 -4 -35 l3 -49 -8 45 c-4 25 -5 57 0 72 4 15 3 43 -1
64 -8 34 -7 35 7 21 10 -10 16 -33 16 -64 0 -36 2 -42 7 -23 4 14 5 37 3 51
-3 15 0 30 6 33 13 9 15 36 2 36 -5 0 -11 -6 -14 -12 -2 -7 -2 -2 0 12 3 14 9
27 14 30 5 3 10 19 12 36 3 16 8 42 12 58 5 16 4 31 -2 35 -6 3 -13 35 -16 71
l-5 65 13 -60 c8 -36 13 -49 14 -32 1 15 5 27 11 27 5 0 9 12 10 28 1 70 3 82
11 82 5 0 9 15 9 33 l-1 32 -14 -25 -15 -25 5 33 c3 17 7 46 10 62 2 17 1 30
-4 30 -5 0 -9 36 -9 80 -1 75 0 80 20 80 20 0 21 -3 14 -86 -3 -48 -9 -99 -12
-113 -4 -24 -4 -24 9 4 8 17 12 35 10 41 -2 5 3 27 12 47 8 20 15 49 15 64 0
32 41 205 47 199 3 -2 -3 -37 -11 -78 -25 -112 -75 -398 -96 -543 -10 -71 -27
-188 -39 -260 -20 -131 -28 -272 -16 -312 6 -18 -2 -26 -63 -56 -86 -43 -232
-137 -292 -186 l-45 -38 -2 176 c-1 172 -18 337 -50 491 -8 41 -16 96 -17 122
0 27 -4 48 -8 48 -5 0 -8 15 -7 33 l1 32 13 -35 c7 -19 14 -53 16 -75 l2 -40
8 45 c6 36 7 30 4 -30 -3 -75 11 -174 23 -166 4 2 7 -18 6 -45 0 -27 3 -46 8
-42 6 3 8 -3 7 -13 -2 -11 1 -30 5 -43 6 -18 10 -20 17 -10 9 15 1 61 -12 69
-4 3 -5 18 -1 35 4 26 6 27 13 10 6 -16 8 -13 8 13 1 18 -4 43 -11 55 -11 21
-11 21 -20 2 -6 -15 -7 -13 -3 8 3 16 2 34 -4 40 -12 16 21 145 59 232 5 11
20 49 33 85 35 94 119 260 168 333 23 34 68 90 101 125 32 34 58 67 58 72 0 6
5 10 11 10 6 0 8 -9 4 -21z m-1754 -61 c-3 -21 -6 -26 -9 -15 -3 17 3 47 11
47 2 0 1 -15 -2 -32z m1746 -175 c-3 -10 -5 -2 -5 17 0 19 2 27 5 18 2 -10 2
-26 0 -35z m-1783 -17 c-3 -21 -9 -35 -11 -32 -3 3 -2 21 1 42 4 20 10 34 12
31 3 -3 2 -21 -2 -41z m3541 -6 c457 -14 887 -31 911 -35 18 -4 23 -18 39
-106 17 -101 18 -289 1 -307 -4 -4 -128 -10 -274 -13 -147 -3 -393 -11 -547
-18 -275 -12 -1697 -12 -1709 -1 -3 3 12 100 34 215 22 116 40 226 40 245 l0
35 597 -3 c329 -2 738 -7 908 -12z m-4355 -21 c0 -24 45 -245 94 -461 4 -17
-34 -18 -682 -18 -771 0 -1340 12 -1637 35 -110 9 -206 18 -212 20 -10 3 -13
56 -13 220 l0 215 463 1 c254 1 671 5 927 8 256 4 599 8 763 9 l297 2 0 -31z
m791 -60 c-6 -24 -9 -28 -10 -12 -1 24 9 56 16 50 2 -3 0 -20 -6 -38z m-14
-61 c-3 -8 -6 -5 -6 6 -1 11 2 17 5 13 3 -3 4 -12 1 -19z m-22 -78 c-7 -30
-14 -46 -14 -35 -1 22 19 99 24 93 2 -1 -3 -28 -10 -58z m1325 25 c0 -5 -5 -3
-10 5 -13 21 -13 -2 1 -37 6 -15 13 -50 14 -78 3 -42 2 -45 -6 -20 -5 17 -6
38 -3 48 3 9 1 17 -4 17 -12 0 -25 77 -16 92 7 11 24 -8 24 -27z m511 -17 c-4
-35 -6 -38 -9 -15 -3 26 3 57 10 57 2 0 1 -19 -1 -42z m16 -10 c-3 -8 -6 -5
-6 6 -1 11 2 17 5 13 3 -3 4 -12 1 -19z m-51 -116 c-12 -11 -14 4 -8 53 l7 50
3 -49 c2 -26 1 -51 -2 -54z m61 61 c-3 -10 -5 -4 -5 12 0 17 2 24 5 18 2 -7 2
-21 0 -30z m-2347 -70 c-11 -17 -11 -17 -6 0 3 10 6 24 7 30 0 9 2 9 5 0 3 -7
0 -20 -6 -30z m1900 -157 c0 -3 -4 -8 -10 -11 -5 -3 -10 -1 -10 4 0 6 5 11 10
11 6 0 10 -2 10 -4z m-4458 -66 c212 -27 447 -33 1375 -34 528 -1 959 2 956 7
-2 4 15 6 39 6 24 -1 35 -3 26 -6 -10 -2 -18 -12 -18 -21 -1 -41 -108 -131
-185 -155 -218 -70 -475 -89 -1099 -85 -466 4 -471 4 -566 63 -92 56 -260 95
-442 102 l-138 6 -25 50 c-41 84 -42 83 77 67z m2688 -32 c0 -38 -5 -34 -13
10 -4 21 -3 31 3 27 6 -3 10 -20 10 -37z m2097 -10 c-3 -7 -5 -2 -5 12 0 14 2
19 5 13 2 -7 2 -19 0 -25z m2183 8 c0 -40 -91 -131 -158 -157 -54 -22 -72 -23
-380 -25 -178 -2 -375 -8 -438 -14 -106 -10 -449 -56 -589 -80 -33 -5 -115
-13 -182 -16 -67 -4 -120 -11 -117 -16 3 -4 -22 -8 -56 -8 -54 0 -61 2 -56 18
14 46 37 174 43 239 l6 72 571 -5 c314 -3 688 -1 831 4 143 5 320 10 393 10
l132 2 0 -24z m-2163 -8 c-3 -8 -6 -5 -6 6 -1 11 2 17 5 13 3 -3 4 -12 1 -19z
m-10 -40 c-3 -8 -6 -5 -6 6 -1 11 2 17 5 13 3 -3 4 -12 1 -19z m-2092 2 c3 -5
1 -10 -4 -10 -6 0 -11 5 -11 10 0 6 2 10 4 10 3 0 8 -4 11 -10z m1762 -52 c-3
-8 -6 -5 -6 6 -1 11 2 17 5 13 3 -3 4 -12 1 -19z m350 -80 c-3 -7 -5 -2 -5 12
0 14 2 19 5 13 2 -7 2 -19 0 -25z m-1817 -271 c3 -150 5 -273 5 -274 0 0 -13
9 -29 22 -20 16 -25 25 -16 30 8 5 11 4 7 -2 -4 -6 0 -14 9 -17 14 -5 15 21
12 258 -1 145 -1 262 2 259 3 -2 7 -127 10 -276z m1743 186 c-3 -7 -10 -13
-15 -13 -6 0 -7 7 -4 16 3 9 6 23 7 32 0 13 2 13 8 -3 5 -11 6 -26 4 -32z m84
25 c-3 -8 -6 -5 -6 6 -1 11 2 17 5 13 3 -3 4 -12 1 -19z m-2201 -113 c-4 -14
-11 -23 -15 -20 -12 7 -8 -22 4 -32 4 -4 5 -2 1 4 -5 9 -2 11 10 6 10 -4 15
-2 11 3 -3 6 -1 16 4 24 7 11 8 9 6 -8 -2 -13 -10 -28 -18 -33 -13 -8 -12 -10
10 -13 5 0 25 -19 45 -40 20 -22 36 -37 36 -33 0 9 30 -20 50 -48 11 -16 9
-16 -11 3 -13 12 -61 52 -107 89 -57 46 -80 69 -72 77 5 5 10 18 10 28 0 21
16 24 23 6 3 -7 6 -4 6 6 1 11 4 17 7 13 4 -3 3 -18 0 -32z m1124 5 c0 -5 -5
-10 -11 -10 -5 0 -7 5 -4 10 3 6 8 10 11 10 2 0 4 -4 4 -10z m-950 -130 c0 -5
-4 -10 -10 -10 -5 0 -10 5 -10 10 0 6 5 10 10 10 6 0 10 -4 10 -10z m4403 3
c-13 -2 -35 -2 -50 0 -16 2 -5 4 22 4 28 0 40 -2 28 -4z m-560 -10 c-7 -2 -19
-2 -25 0 -7 3 -2 5 12 5 14 0 19 -2 13 -5z m256 -2 c8 -5 -5 -7 -35 -4 -27 3
-51 7 -53 9 -9 8 75 3 88 -5z m369 -56 c0 -16 -2 -15 -8 5 -4 14 -8 34 -8 45
0 16 2 15 8 -5 4 -14 8 -34 8 -45z m-1261 49 c-3 -3 -12 -4 -19 -1 -8 3 -5 6
6 6 11 1 17 -2 13 -5z m146 -1 c-13 -2 -33 -2 -45 0 -13 2 -3 4 22 4 25 0 35
-2 23 -4z m-5982 -35 c-3 -21 -6 -26 -9 -15 -3 17 3 47 11 47 2 0 1 -15 -2
-32z m2385 6 c21 -15 70 -52 107 -83 99 -81 140 -114 168 -133 13 -10 17 -15
8 -12 -39 13 -25 -41 45 -176 50 -96 174 -199 305 -255 155 -65 516 -120 631
-97 31 7 66 12 78 12 32 0 189 53 237 80 40 22 125 80 135 91 3 3 26 19 51 37
63 43 130 119 175 200 60 108 212 230 411 331 60 30 66 28 58 -21 -10 -61 -45
-124 -123 -223 -5 -6 -6 -17 -4 -24 3 -8 0 -11 -7 -7 -6 4 -11 0 -11 -10 0
-33 -171 -275 -284 -400 -154 -174 -507 -266 -870 -229 -187 20 -261 31 -283
44 -17 10 -17 10 2 11 11 1 14 4 7 7 -7 3 -19 0 -26 -6 -14 -12 -79 -4 -71 9
3 5 -3 6 -12 4 -24 -7 -213 51 -300 91 -17 8 -34 15 -39 15 -12 0 -166 92
-219 131 -95 70 -325 315 -325 347 0 6 -4 12 -9 12 -18 0 -61 129 -61 183 0
97 0 97 100 97 77 0 92 -3 126 -26z m-2199 10 c-3 -3 -12 -4 -19 -1 -8 3 -5 6
6 6 11 1 17 -2 13 -5z m3353 -9 c10 -12 10 -15 -4 -15 -9 0 -16 7 -16 15 0 8
2 15 4 15 2 0 9 -7 16 -15z m-1947 -2 c-7 -2 -21 -2 -30 0 -10 3 -4 5 12 5 17
0 24 -2 18 -5z m2787 -23 c0 -5 -2 -10 -4 -10 -3 0 -8 5 -11 10 -3 6 -1 10 4
10 6 0 11 -4 11 -10z m-1738 -7 c-8 -3 1 -15 24 -34 20 -16 41 -26 48 -22 6 3
8 3 4 -2 -4 -4 -2 -15 5 -24 10 -13 10 -14 -3 -5 -88 64 -115 96 -77 93 8 0 8
-2 -1 -6z m988 -24 c0 -5 -4 -9 -10 -9 -5 0 -10 7 -10 16 0 8 5 12 10 9 6 -3
10 -10 10 -16z m1764 -16 c-36 -55 -42 -69 -31 -88 5 -10 5 -15 0 -12 -5 3
-15 -8 -22 -25 -13 -28 -12 -32 4 -45 18 -13 18 -13 1 -13 -11 0 -25 8 -33 18
-14 16 -14 16 -9 0 3 -10 0 -17 -6 -15 -13 2 -29 -58 -21 -82 4 -14 4 -14 -6
-1 -9 13 -11 11 -11 -7 0 -12 -4 -25 -10 -28 -6 -3 -10 4 -10 17 0 17 -7 9
-26 -29 -15 -29 -30 -50 -35 -47 -5 3 2 22 14 42 13 20 26 45 30 55 4 11 12
15 18 11 8 -4 9 -3 5 4 -11 18 4 37 16 21 7 -11 8 -9 4 4 -4 11 2 31 14 47 11
15 20 33 20 40 0 6 5 8 12 4 7 -4 8 -3 4 4 -7 11 84 165 93 157 2 -3 -5 -17
-15 -32z m-5407 -5 c-3 -7 -5 -2 -5 12 0 14 2 19 5 13 2 -7 2 -19 0 -25z
m7120 10 c-3 -8 -6 -5 -6 6 -1 11 2 17 5 13 3 -3 4 -12 1 -19z m-4397 2 c0 -5
-4 -10 -10 -10 -5 0 -10 5 -10 10 0 6 5 10 10 10 6 0 10 -4 10 -10z m4407 -62
c-3 -7 -5 -2 -5 12 0 14 2 19 5 13 2 -7 2 -19 0 -25z m-4347 -20 c0 -6 -6 -5
-15 2 -8 7 -15 14 -15 16 0 2 7 1 15 -2 8 -4 15 -11 15 -16z m3817 16 c-3 -3
-12 -4 -19 -1 -8 3 -5 6 6 6 11 1 17 -2 13 -5z m-30 -20 c-3 -3 -12 -4 -19 -1
-8 3 -5 6 6 6 11 1 17 -2 13 -5z m570 -36 c-3 -7 -5 -2 -5 12 0 14 2 19 5 13
2 -7 2 -19 0 -25z m-7141 -9 c-3 -17 -1 -40 5 -51 9 -16 8 -19 -2 -13 -9 6
-11 3 -6 -9 4 -10 7 -29 7 -42 0 -20 5 -24 33 -25 18 -1 24 -3 14 -6 -10 -3
-29 -2 -41 1 -18 4 -22 11 -19 30 3 13 1 31 -4 40 -6 11 -9 2 -8 -31 l0 -48
55 -5 c68 -6 36 -19 -36 -14 l-49 3 41 -13 c129 -41 807 -54 1132 -22 95 9
221 26 280 37 123 23 292 35 346 25 44 -8 96 -52 140 -118 18 -26 36 -45 41
-40 5 4 5 1 1 -6 -5 -8 -2 -21 7 -30 8 -9 22 -32 32 -51 13 -27 19 -31 27 -20
8 11 8 10 4 -5 -5 -13 22 -58 90 -155 113 -158 133 -183 147 -174 6 3 7 1 3
-6 -10 -15 13 -43 28 -34 6 3 8 3 4 -2 -11 -12 31 -66 45 -59 7 4 9 3 4 -1
-10 -11 93 -116 106 -108 6 3 7 1 4 -4 -11 -18 80 -72 188 -112 17 -6 127 -13
250 -16 121 -3 267 -7 324 -10 57 -3 102 -2 98 1 -3 3 -34 6 -69 7 -46 0 -55
2 -33 7 17 4 40 12 50 19 20 12 20 12 0 5 -11 -3 -31 -8 -45 -10 -22 -4 -23
-3 -5 5 16 8 13 10 -20 10 -30 1 -36 4 -25 11 12 8 12 10 1 10 -8 0 -12 2 -9
5 3 3 48 -3 99 -14 212 -46 310 -47 642 -10 98 11 183 18 190 15 7 -2 -4 -5
-23 -7 l-35 -2 35 -7 c30 -6 31 -8 10 -10 -21 -2 -20 -4 10 -10 l35 -7 -37 -2
c-20 0 -40 -5 -43 -11 -8 -13 119 -13 335 1 217 13 258 27 381 128 132 109
255 252 400 465 80 117 181 274 192 297 15 31 34 56 75 98 l42 43 613 -7 c643
-7 688 -8 731 -24 14 -6 26 -8 26 -5 0 3 13 -3 29 -12 54 -32 116 -155 187
-374 65 -197 70 -339 14 -397 -26 -27 -70 -64 -70 -58 0 3 -17 -2 -37 -11 -21
-9 -83 -24 -138 -34 -55 -10 -89 -19 -75 -20 14 -1 34 -5 45 -10 15 -7 12 -9
-15 -5 -89 11 -144 13 -120 6 30 -10 15 -18 -40 -23 -19 -2 18 -4 83 -4 100 1
121 -2 131 -16 10 -13 28 -16 89 -15 42 1 77 4 77 8 0 4 66 6 148 4 125 -3
144 -1 129 10 -17 13 -16 14 15 17 27 2 34 8 40 33 5 21 6 16 3 -15 -5 -42 -4
-44 11 -25 9 13 13 29 9 45 -7 29 -23 114 -28 150 -8 60 -31 140 -40 140 -9 0
-6 -26 7 -65 7 -20 7 -20 -5 0 -12 19 -12 19 -21 0 -5 -13 -6 -7 -2 15 4 19
10 58 14 85 4 28 9 43 13 35 10 -28 57 -249 57 -273 0 -25 25 -111 41 -140 6
-11 8 -22 5 -25 -3 -3 -606 -9 -1338 -13 -733 -5 -1452 -13 -1598 -18 -270
-10 -3929 -6 -4349 4 -123 3 -246 11 -273 16 l-50 11 7 47 c6 42 36 204 146
771 51 260 56 280 76 280 12 0 14 -7 9 -31z m1869 -17 c13 -23 22 -42 21 -42
-2 0 -20 20 -40 44 -23 29 -30 43 -20 42 8 -1 26 -21 39 -44z m-1815 30 c0
-14 -11 -21 -26 -15 -21 8 -17 23 6 23 11 0 20 -4 20 -8z m85 -12 c3 -5 -3
-10 -14 -10 -11 0 -23 5 -26 10 -3 6 3 10 14 10 11 0 23 -4 26 -10z m62 -6
c-3 -3 -12 -4 -19 -1 -8 3 -5 6 6 6 11 1 17 -2 13 -5z m218 -14 c47 -6 32 -7
-72 -7 -73 1 -127 5 -120 9 15 9 111 9 192 -2z m6397 -14 c15 -22 8 -28 -24
-21 -41 9 -42 10 -34 30 6 18 45 12 58 -9z m335 2 c-3 -8 -6 -5 -6 6 -1 11 2
17 5 13 3 -3 4 -12 1 -19z m-6962 2 c19 -8 19 -9 -2 -9 -12 -1 -25 4 -28 9 -7
12 2 12 30 0z m413 3 c-21 -2 -55 -2 -75 0 -21 2 -4 4 37 4 41 0 58 -2 38 -4z
m435 0 c-13 -2 -33 -2 -45 0 -13 2 -3 4 22 4 25 0 35 -2 23 -4z m160 0 c-13
-2 -33 -2 -45 0 -13 2 -3 4 22 4 25 0 35 -2 23 -4z m5540 -6 c8 -22 -7 -37
-31 -30 -25 6 -27 14 -10 31 16 16 35 15 41 -1z m-5808 -5 c28 -4 -42 -7 -155
-7 -113 0 -185 3 -160 6 62 8 254 9 315 1z m-498 -9 c-20 -2 -52 -2 -70 0 -17
2 0 4 38 4 39 0 53 -2 32 -4z m90 1 c-3 -3 -12 -4 -19 -1 -8 3 -5 6 6 6 11 1
17 -2 13 -5z m640 0 c-3 -3 -12 -4 -19 -1 -8 3 -5 6 6 6 11 1 17 -2 13 -5z
m6000 -41 c-3 -10 -5 -4 -5 12 0 17 2 24 5 18 2 -7 2 -21 0 -30z m-4393 19 c2
-4 -4 -8 -14 -8 -10 0 -16 4 -14 8 3 4 9 8 14 8 5 0 11 -4 14 -8z m4066 -8
c-1 -10 -32 -7 -64 6 -15 7 -10 8 22 6 23 -2 42 -7 42 -12z m-4894 -55 c21
-34 55 -87 75 -118 30 -46 35 -60 26 -78 -9 -21 -11 -21 -23 -5 -16 21 -18 8
-3 -21 16 -30 5 -19 -25 26 -27 39 -28 47 -2 21 13 -13 16 -13 16 -1 0 8 -9
22 -20 32 -11 10 -20 13 -20 8 0 -6 -7 -13 -14 -16 -10 -4 -13 -1 -9 9 6 17
-13 19 -21 2 -3 -7 -3 -1 0 15 6 26 -9 39 -19 17 -3 -6 -4 -5 -3 2 4 21 46 18
46 -3 0 -11 5 -19 10 -19 13 0 13 4 -5 46 -8 19 -10 32 -4 28 8 -4 9 1 4 17
-9 30 -21 38 -51 34 -15 -1 -21 2 -17 11 3 8 0 14 -6 14 -6 0 -11 -5 -11 -12
0 -6 -3 -9 -6 -6 -6 7 25 58 35 58 4 0 25 -28 47 -61z m864 36 c11 -13 10 -14
-4 -9 -9 3 -16 10 -16 15 0 13 6 11 20 -6z m-35 -15 c-3 -5 -12 -10 -18 -10
-7 0 -6 4 3 10 19 12 23 12 15 0z m4402 -22 c-3 -8 -6 -5 -6 6 -1 11 2 17 5
13 3 -3 4 -12 1 -19z m-6899 -15 c-10 -2 -28 -2 -40 0 -13 2 -5 4 17 4 22 1
32 -1 23 -4z m-101 -9 c-3 -3 -12 -4 -19 -1 -8 3 -5 6 6 6 11 1 17 -2 13 -5z
m7027 -101 l5 -48 -13 55 c-8 30 -17 66 -21 80 -4 18 -2 16 9 -7 8 -18 17 -54
20 -80z m-7071 90 c-7 -2 -19 -2 -25 0 -7 3 -2 5 12 5 14 0 19 -2 13 -5z m166
-9 c10 -9 -35 -3 -49 6 -11 8 -7 9 15 4 17 -4 32 -8 34 -10z m714 9 c-7 -2
-19 -2 -25 0 -7 3 -2 5 12 5 14 0 19 -2 13 -5z m222 -3 c-11 -5 -29 -8 -40 -8
-16 0 -15 2 5 8 34 11 60 11 35 0z m-795 -4 c0 -3 -4 -8 -10 -11 -5 -3 -10 -1
-10 4 0 6 5 11 10 11 6 0 10 -2 10 -4z m4869 -17 c1 8 3 12 6 9 3 -3 2 -13 -1
-22 -5 -14 -9 -15 -15 -4 -5 7 -8 20 -8 28 0 10 3 8 9 -5 5 -12 9 -14 9 -6z
m-5116 4 c-13 -2 -33 -2 -45 0 -13 2 -3 4 22 4 25 0 35 -2 23 -4z m145 -10
c-10 -2 -26 -2 -35 0 -10 3 -2 5 17 5 19 0 27 -2 18 -5z m765 0 c-7 -2 -21 -2
-30 0 -10 3 -4 5 12 5 17 0 24 -2 18 -5z m4087 -84 c0 -6 -4 -8 -10 -4 -5 3
-17 -9 -27 -27 -17 -32 -18 -37 -22 -68 -1 -11 -3 -12 -9 -3 -11 18 -117 -121
-106 -139 4 -7 4 -10 -1 -6 -4 4 -15 2 -23 -5 -22 -17 -10 3 43 73 23 30 63
88 90 127 42 64 65 82 65 52z m-3207 -62 c6 -22 6 -22 -14 2 -22 27 -26 49 -5
32 8 -6 16 -22 19 -34z m133 -52 c26 -38 73 -100 105 -138 36 -41 56 -73 53
-82 -4 -11 -2 -13 9 -10 9 4 26 -7 43 -28 35 -41 159 -140 179 -143 7 -1 24
-10 37 -19 l23 -17 -24 7 c-18 6 -22 4 -16 -6 5 -8 4 -11 -1 -6 -5 5 -9 14 -9
20 0 7 -10 11 -22 9 -14 -2 -26 5 -33 18 -7 12 -18 19 -25 16 -8 -3 -17 0 -21
6 -5 7 -2 8 6 3 8 -5 11 -3 8 6 -3 8 -11 13 -17 11 -7 -1 -23 11 -37 27 -14
17 -31 28 -37 25 -7 -2 -23 7 -36 22 -25 28 -43 26 -20 -3 13 -16 12 -17 -3
-5 -13 11 -17 11 -21 0 -2 -7 -3 -7 -2 2 2 8 6 24 11 34 5 12 4 17 -3 13 -6
-4 -9 3 -8 16 2 13 -10 37 -27 57 l-30 35 5 -30 c4 -16 4 -24 1 -17 -3 6 -10
10 -15 6 -12 -7 -11 3 1 25 7 14 4 23 -11 37 -12 11 -27 31 -35 46 -8 16 -20
27 -27 25 -6 -1 -12 7 -12 18 0 25 -14 47 -25 40 -5 -3 -14 4 -20 16 -10 17
-9 20 1 14 9 -6 10 -3 5 11 -10 25 -5 19 50 -61z m5137 -112 c7 -46 10 -83 6
-83 -3 0 -10 29 -14 65 -3 36 -10 63 -13 61 -4 -2 -7 8 -7 22 -1 15 -4 50 -7
77 l-7 50 14 -55 c8 -30 21 -92 28 -137z m-5143 39 c0 -5 -7 -9 -15 -9 -8 0
-12 4 -9 9 3 4 9 8 15 8 5 0 9 -4 9 -8z m48 -30 c20 -18 28 -33 22 -41 -5 -10
-13 -4 -26 18 -10 17 -22 31 -26 31 -4 0 -8 5 -8 10 0 15 5 13 38 -18z m-67
-19 c-12 -20 -14 -14 -5 12 4 9 9 14 11 11 3 -2 0 -13 -6 -23z m59 -22 c0 -5
16 -24 35 -42 19 -19 35 -38 35 -44 0 -5 -4 -4 -9 4 -5 7 -14 11 -20 7 -7 -5
-8 -1 -4 10 5 14 3 15 -18 4 -19 -10 -22 -10 -12 0 10 10 8 19 -8 42 -11 15
-16 28 -10 28 6 0 11 -4 11 -9z m4947 -33 c-3 -7 -5 -2 -5 12 0 14 2 19 5 13
2 -7 2 -19 0 -25z m-2135 5 c-6 -2 -9 -10 -5 -16 3 -7 2 -9 -2 -4 -5 4 -34
-16 -64 -45 l-56 -53 60 63 c33 34 64 62 70 61 5 0 4 -3 -3 -6z m2275 -15 c-3
-8 -6 -5 -6 6 -1 11 2 17 5 13 3 -3 4 -12 1 -19z m-5097 2 c0 -5 -2 -10 -4
-10 -3 0 -8 5 -11 10 -3 6 -1 10 4 10 6 0 11 -4 11 -10z m100 -10 c0 -5 -4
-10 -10 -10 -5 0 -10 5 -10 10 0 6 5 10 10 10 6 0 10 -4 10 -10z m4867 -52
c-3 -8 -6 -5 -6 6 -1 11 2 17 5 13 3 -3 4 -12 1 -19z m140 -20 c-3 -7 -5 -2
-5 12 0 14 2 19 5 13 2 -7 2 -19 0 -25z m-5009 -39 c9 -12 9 -16 -1 -16 -7 0
-14 9 -14 20 -1 11 -1 18 0 16 2 -2 8 -11 15 -20z m2522 -49 c-42 -36 -117
-86 -95 -62 15 15 129 101 135 101 3 0 -15 -17 -40 -39z m-2422 -46 c17 -3 27
-12 20 -19 -11 -12 -48 -13 -54 -3 -4 7 -2 8 4 4 16 -10 15 7 0 23 -11 11 -10
12 2 5 8 -5 21 -9 28 -10z m2296 -39 c-10 -8 -23 -15 -28 -15 -6 0 -1 7 10 15
10 8 23 15 28 15 6 0 1 -7 -10 -15z m-1989 -34 c6 -3 12 -6 15 -7 3 0 16 -6
30 -12 25 -12 24 -12 -6 -8 -27 3 -84 32 -84 42 0 4 29 -6 45 -15z m-252 -10
c-4 -3 -11 -10 -15 -15 -4 -4 -6 1 -5 12 1 12 6 18 15 15 7 -3 10 -9 5 -12z
m21 -19 c3 -5 -1 -9 -9 -9 -8 0 -12 4 -9 9 3 4 7 8 9 8 2 0 6 -4 9 -8z m2161
-13 c5 -5 -5 -4 -23 2 -17 6 -32 13 -32 16 0 7 43 -8 55 -18z m-138 -23 c-15
-7 -24 -16 -20 -20 4 -4 -1 -4 -12 0 -17 7 -16 9 10 20 17 7 35 13 40 13 6 0
-2 -6 -18 -13z m-1941 -21 c-1 -8 -8 -21 -16 -28 -10 -10 -11 -9 -4 3 5 8 9
18 10 23 3 14 4 17 8 17 2 0 3 -7 2 -15z m358 5 c17 -5 67 -19 111 -30 71 -17
74 -19 25 -13 -30 3 -64 6 -75 5 -14 -1 -16 1 -7 7 9 5 -4 11 -35 15 -48 6
-95 26 -64 26 8 0 28 -4 45 -10z m1526 -5 c0 -2 -9 -9 -19 -15 -14 -7 -22 -7
-27 2 -4 6 -3 8 4 4 6 -3 13 -2 17 4 6 10 25 14 25 5z m2567 -21 c-3 -3 -12
-4 -19 -1 -8 3 -5 6 6 6 11 1 17 -2 13 -5z m-2770 -40 c-3 -3 -12 -4 -19 -1
-8 3 -5 6 6 6 11 1 17 -2 13 -5z m2696 -1 c-7 -2 -19 -2 -25 0 -7 3 -2 5 12 5
14 0 19 -2 13 -5z m-4292 -20 c12 -16 12 -17 -1 -7 -8 6 -22 14 -30 17 -13 5
-12 6 1 6 9 1 23 -7 30 -16z m1536 11 c-3 -3 -12 -4 -19 -1 -8 3 -5 6 6 6 11
1 17 -2 13 -5z m2890 0 c-3 -3 -12 -4 -19 -1 -8 3 -5 6 6 6 11 1 17 -2 13 -5z
m-4360 -20 c-3 -3 -12 -4 -19 -1 -8 3 -5 6 6 6 11 1 17 -2 13 -5z m56 -1 c-7
-2 -21 -2 -30 0 -10 3 -4 5 12 5 17 0 24 -2 18 -5z m34 -19 c-3 -3 -12 -4 -19
-1 -8 3 -5 6 6 6 11 1 17 -2 13 -5z m236 -1 c-7 -2 -19 -2 -25 0 -7 3 -2 5 12
5 14 0 19 -2 13 -5z m-1428 -149 c1604 -14 5079 -14 5325 0 41 3 64 2 50 0
-14 -3 -65 -25 -115 -49 -115 -57 -181 -74 -330 -85 -160 -12 -392 -19 -335
-10 39 6 34 7 -37 8 -45 1 -83 -1 -85 -6 -1 -4 -39 -4 -83 -1 -80 6 -60 11 52
13 56 1 65 14 14 22 -41 7 -59 33 -23 35 9 0 26 2 37 4 11 2 69 7 130 10 60 3
112 8 115 11 6 6 -923 -6 -929 -12 -2 -2 74 -5 170 -5 96 -1 217 -5 269 -9 93
-7 91 -7 -70 -10 l-165 -3 135 -9 c80 -6 165 -6 208 -1 50 6 69 6 62 -1 -7 -7
-106 -11 -288 -10 l-277 1 195 -7 c107 -4 206 -12 220 -18 18 -8 20 -11 8 -11
-10 -1 -18 -5 -18 -11 0 -6 -28 -10 -62 -10 -41 0 -58 -3 -49 -9 9 -6 -7 -11
-52 -16 -36 -4 -70 -5 -75 -1 -5 3 -24 1 -43 -4 -35 -9 -105 -13 -469 -30
-118 -5 -318 -16 -445 -24 -126 -8 -320 -18 -430 -21 -110 -3 -239 -8 -287
-11 -65 -4 -88 -2 -88 7 0 8 12 10 40 5 27 -4 40 -3 40 5 0 8 22 9 78 4 42 -4
74 -4 70 0 -10 11 -228 13 -228 3 0 -4 -18 -8 -39 -8 -22 0 -41 -4 -43 -9 -1
-5 -56 -11 -120 -13 l-118 -4 0 43 c0 24 5 43 10 43 6 0 10 18 10 39 0 37 2
40 33 44 28 3 26 4 -10 5 l-43 2 0 -45 0 -45 -160 0 c-100 0 -160 4 -160 10 0
6 -18 10 -40 10 -36 0 -40 -2 -40 -25 0 -22 -4 -25 -40 -25 -29 0 -40 4 -40
15 0 11 -11 15 -40 15 -29 0 -40 -4 -40 -15 0 -12 -16 -15 -80 -15 -64 0 -80
-3 -80 -15 0 -12 -20 -15 -120 -15 -73 0 -120 -4 -120 -10 0 -6 30 -10 68 -11
64 -1 66 -1 37 -14 -42 -18 -150 -26 -215 -15 -47 8 -43 8 30 3 47 -3 82 -2
77 3 -4 4 -96 10 -205 14 l-197 7 163 1 c100 1 162 6 162 12 0 6 -47 10 -120
10 -100 0 -120 3 -120 15 0 11 -11 15 -40 15 -29 0 -40 4 -40 15 0 8 5 15 10
15 6 0 10 18 10 40 0 25 5 40 13 41 6 1 305 3 662 5 358 3 743 5 857 7 114 1
200 -1 190 -6 -11 -5 -8 -6 9 -2 15 2 62 7 105 10 223 16 209 22 -36 16 -526
-12 -3423 -7 -3760 8 -173 7 -330 17 -349 22 -23 6 -31 5 -24 -2 15 -15 262
-37 378 -34 65 2 88 0 65 -5 -32 -7 -30 -8 20 -8 30 -1 125 -3 210 -5 85 -3
183 -5 218 -6 l62 -1 0 -50 0 -50 40 0 40 0 0 40 0 40 40 0 c22 0 40 4 40 9 0
10 197 21 268 14 l52 -6 0 -38 0 -39 -160 0 -160 0 0 -44 c0 -44 0 -45 38 -49
20 -2 9 -3 -25 0 -35 2 -70 6 -78 9 -8 4 -15 2 -15 -4 0 -11 57 -22 120 -22
46 0 46 -14 0 -23 -14 -3 7 -3 45 0 39 3 67 2 63 -1 -3 -4 -44 -9 -90 -12
-278 -14 -449 -24 -493 -29 -35 -4 -46 -3 -35 5 8 5 10 10 4 10 -5 0 -16 -6
-22 -12 -10 -10 -78 -13 -270 -13 -289 0 -343 9 -408 70 -32 30 -34 37 -34 94
0 34 5 105 12 157 l11 96 31 -6 c17 -3 823 -13 1791 -22z m-1178 -110 c-3 -3
-12 -4 -19 -1 -8 3 -5 6 6 6 11 1 17 -2 13 -5z m3056 -1 c-7 -2 -21 -2 -30 0
-10 3 -4 5 12 5 17 0 24 -2 18 -5z m-2126 -9 c-3 -3 -12 -4 -19 -1 -8 3 -5 6
6 6 11 1 17 -2 13 -5z m784 -4 c15 0 19 -8 19 -40 l0 -40 -40 0 c-40 0 -40 0
-40 39 0 39 -1 40 -37 44 -21 2 -11 3 21 1 32 -2 67 -4 77 -4z m-221 -40 c0
-17 -7 -20 -40 -20 -22 0 -40 -4 -40 -10 0 -5 -18 -10 -40 -10 -29 0 -40 4
-40 15 0 11 11 15 40 15 29 0 40 4 40 15 0 11 11 15 40 15 33 0 40 -3 40 -20z
m4078 -7 c-16 -2 -40 -2 -55 0 -16 2 -3 4 27 4 30 0 43 -2 28 -4z m-175 -10
c-13 -2 -33 -2 -45 0 -13 2 -3 4 22 4 25 0 35 -2 23 -4z m-4710 -110 c-7 -2
-19 -2 -25 0 -7 3 -2 5 12 5 14 0 19 -2 13 -5z m1807 -3 c35 -5 9 -6 -70 -2
-69 2 -127 6 -129 8 -8 7 143 2 199 -6z m483 3 c-7 -2 -21 -2 -30 0 -10 3 -4
5 12 5 17 0 24 -2 18 -5z m-2046 -9 c-3 -3 -12 -4 -19 -1 -8 3 -5 6 6 6 11 1
17 -2 13 -5z m1826 -1 c-13 -2 -33 -2 -45 0 -13 2 -3 4 22 4 25 0 35 -2 23 -4z
m-1925 -10 c-10 -2 -28 -2 -40 0 -13 2 -5 4 17 4 22 1 32 -1 23 -4z m725 0
c-13 -2 -33 -2 -45 0 -13 2 -3 4 22 4 25 0 35 -2 23 -4z m-430 -10 c-7 -2 -19
-2 -25 0 -7 3 -2 5 12 5 14 0 19 -2 13 -5z m-368 -13 c-44 -11 -65 -11 -65 0
0 6 21 9 48 9 42 -1 44 -2 17 -9z m128 3 c-7 -2 -19 -2 -25 0 -7 3 -2 5 12 5
14 0 19 -2 13 -5z"/>
<path d="M5078 8753 c7 -3 16 -2 19 1 4 3 -2 6 -13 5 -11 0 -14 -3 -6 -6z"/>
<path d="M5220 8701 c0 -5 7 -11 15 -15 8 -3 15 -1 15 3 0 5 -7 11 -15 15 -8
3 -15 1 -15 -3z"/>
<path d="M5230 8660 c0 -5 5 -10 11 -10 5 0 7 5 4 10 -3 6 -8 10 -11 10 -2 0
-4 -4 -4 -10z"/>
<path d="M5293 8585 c0 -22 2 -30 4 -17 2 12 2 30 0 40 -3 9 -5 -1 -4 -23z"/>
<path d="M5111 8535 c-6 -36 -14 -102 -17 -147 -3 -44 -7 -85 -10 -90 -3 -4 1
-8 9 -8 8 0 18 8 21 17 14 35 27 281 16 288 -4 3 -13 -24 -19 -60z"/>
<path d="M5183 8520 c0 -25 2 -35 4 -22 2 12 2 32 0 45 -2 12 -4 2 -4 -23z"/>
<path d="M5153 8505 c0 -22 2 -30 4 -17 2 12 2 30 0 40 -3 9 -5 -1 -4 -23z"/>
<path d="M4508 8753 c6 -2 18 -2 25 0 6 3 1 5 -13 5 -14 0 -19 -2 -12 -5z"/>
<path d="M4540 8736 c0 -2 7 -7 16 -10 8 -3 12 -2 9 4 -6 10 -25 14 -25 6z"/>
<path d="M4581 8714 c0 -11 3 -14 6 -6 3 7 2 16 -1 19 -3 4 -6 -2 -5 -13z"/>
<path d="M5468 8723 c7 -3 16 -2 19 1 4 3 -2 6 -13 5 -11 0 -14 -3 -6 -6z"/>
<path d="M5520 8721 c0 -8 230 -3 239 5 2 2 -50 4 -117 4 -67 0 -122 -4 -122
-9z"/>
<path d="M5702 8555 c0 -16 2 -22 5 -12 2 9 2 23 0 30 -3 6 -5 -1 -5 -18z"/>
<path d="M5686 8325 c-9 -26 -7 -32 5 -12 6 10 9 21 6 23 -2 3 -7 -2 -11 -11z"/>
<path d="M5650 8149 c0 -5 5 -7 10 -4 6 3 10 8 10 11 0 2 -4 4 -10 4 -5 0 -10
-5 -10 -11z"/>
<path d="M5518 8133 c6 -2 18 -2 25 0 6 3 1 5 -13 5 -14 0 -19 -2 -12 -5z"/>
<path d="M6566 8625 c-9 -26 -7 -32 5 -12 6 10 9 21 6 23 -2 3 -7 -2 -11 -11z"/>
<path d="M5897 8571 c-4 -17 -3 -21 5 -13 5 5 8 16 6 23 -3 8 -7 3 -11 -10z"/>
<path d="M6197 8572 c-22 -24 -21 -39 2 -52 63 -33 130 9 85 54 -21 22 -67 20
-87 -2z"/>
<path d="M6522 8455 c0 -16 2 -22 5 -12 2 9 2 23 0 30 -3 6 -5 -1 -5 -18z"/>
<path d="M6492 8315 c0 -16 2 -22 5 -12 2 9 2 23 0 30 -3 6 -5 -1 -5 -18z"/>
<path d="M6481 8254 c0 -11 3 -14 6 -6 3 7 2 16 -1 19 -3 4 -6 -2 -5 -13z"/>
<path d="M6416 8085 c-9 -26 -7 -32 5 -12 6 10 9 21 6 23 -2 3 -7 -2 -11 -11z"/>
<path d="M4102 8690 c0 -14 2 -19 5 -12 2 6 2 18 0 25 -3 6 -5 1 -5 -13z"/>
<path d="M3925 8690 c-26 -5 -10 -6 49 -4 48 1 91 5 94 8 7 8 -94 5 -143 -4z"/>
<path d="M3738 8663 c7 -3 16 -2 19 1 4 3 -2 6 -13 5 -11 0 -14 -3 -6 -6z"/>
<path d="M4008 8663 c7 -3 16 -2 19 1 4 3 -2 6 -13 5 -11 0 -14 -3 -6 -6z"/>
<path d="M3673 8653 c9 -2 23 -2 30 0 6 3 -1 5 -18 5 -16 0 -22 -2 -12 -5z"/>
<path d="M3570 8640 c-17 -6 -9 -7 25 -3 28 3 52 7 54 9 8 7 -54 2 -79 -6z"/>
<path d="M4112 8620 c0 -14 2 -19 5 -12 2 6 2 18 0 25 -3 6 -5 1 -5 -13z"/>
<path d="M3515 8620 c4 -6 11 -8 16 -5 14 9 11 15 -7 15 -8 0 -12 -5 -9 -10z"/>
<path d="M3918 8543 c7 -3 16 -2 19 1 4 3 -2 6 -13 5 -11 0 -14 -3 -6 -6z"/>
<path d="M3633 8486 c-18 -15 -38 -22 -57 -20 -34 3 -35 5 39 -45 51 -35 68
-41 113 -41 43 0 58 5 77 25 39 38 33 51 -37 83 -61 28 -100 28 -135 -2z"/>
<path d="M4181 8274 c0 -11 3 -14 6 -6 3 7 2 16 -1 19 -3 4 -6 -2 -5 -13z"/>
<path d="M4192 8225 c0 -16 2 -22 5 -12 2 9 2 23 0 30 -3 6 -5 -1 -5 -18z"/>
<path d="M6763 8673 c9 -2 25 -2 35 0 9 3 1 5 -18 5 -19 0 -27 -2 -17 -5z"/>
<path d="M6883 8663 c15 -2 39 -2 55 0 15 2 2 4 -28 4 -30 0 -43 -2 -27 -4z"/>
<path d="M6967 8653 c-3 -4 30 -8 74 -8 43 0 79 3 79 6 0 9 -147 11 -153 2z"/>
<path d="M6972 8260 c0 -14 2 -19 5 -12 2 6 2 18 0 25 -3 6 -5 1 -5 -13z"/>
<path d="M6962 8180 c0 -14 2 -19 5 -12 2 6 2 18 0 25 -3 6 -5 1 -5 -13z"/>
<path d="M3028 8653 c6 -2 18 -2 25 0 6 3 1 5 -13 5 -14 0 -19 -2 -12 -5z"/>
<path d="M2585 8270 c-3 -5 -1 -10 4 -10 6 0 11 5 11 10 0 6 -2 10 -4 10 -3 0
-8 -4 -11 -10z"/>
<path d="M2650 8081 c0 -6 4 -13 10 -16 6 -3 7 1 4 9 -7 18 -14 21 -14 7z"/>
<path d="M2752 7920 c-18 -29 -15 -38 4 -12 9 13 14 25 12 27 -2 2 -9 -5 -16
-15z"/>
<path d="M2790 7835 c-10 -12 -10 -21 -1 -38 l11 -22 -6 23 c-3 13 0 29 6 37
7 8 10 15 7 15 -2 0 -10 -7 -17 -15z"/>
<path d="M2962 7610 c-7 -12 -8 -20 -2 -20 5 0 10 6 10 13 0 7 7 4 15 -7 8
-11 14 -27 14 -35 -1 -13 -2 -13 -6 1 -2 9 -13 16 -24 15 -22 -1 -24 -8 -6
-26 10 -11 10 -13 0 -7 -7 4 -13 3 -13 -2 0 -6 -14 -15 -30 -21 -36 -12 -42
-25 -38 -82 l3 -44 13 43 c7 23 19 42 26 42 19 0 27 -38 12 -53 -21 -21 -36
-54 -37 -84 l-1 -28 -8 25 c-7 23 -8 22 -9 -10 -2 -58 -19 -113 -36 -123 -10
-5 -25 -17 -34 -26 -10 -10 -21 -16 -27 -14 -5 2 -22 -7 -38 -20 l-28 -23 36
0 c20 0 36 4 36 8 0 4 8 8 18 8 14 0 15 -2 2 -10 -12 -8 -10 -10 10 -11 14 0
19 -3 12 -6 -10 -4 -9 -10 5 -26 12 -14 13 -18 3 -12 -13 8 -13 7 -1 -8 11
-14 11 -17 0 -18 -8 0 -5 -4 6 -10 15 -7 10 -8 -21 -5 -23 2 -48 0 -55 -5 -9
-6 4 -9 38 -9 61 0 83 7 83 26 0 8 4 14 9 14 5 0 12 8 15 18 3 9 4 2 2 -15 -1
-18 1 -33 6 -33 4 0 8 70 8 155 0 97 -4 155 -10 155 -5 0 -10 4 -10 10 0 5 7
7 15 4 8 -4 16 -1 16 5 1 6 3 16 4 21 1 6 3 18 4 27 0 9 4 13 8 10 3 -4 18 12
31 34 14 23 33 50 43 60 25 25 24 28 -11 65 -16 18 -26 35 -22 39 4 5 2 5 -5
2 -6 -4 -13 -3 -15 3 -2 6 -9 1 -16 -10z m68 -70 c0 -5 -2 -10 -4 -10 -3 0 -8
5 -11 10 -3 6 -1 10 4 10 6 0 11 -4 11 -10z m-26 -19 c3 -5 -2 -17 -12 -28 -9
-10 -13 -13 -8 -6 5 8 6 17 2 20 -4 4 -11 1 -16 -7 -6 -8 -10 -10 -10 -4 0 12
20 34 31 34 4 0 10 -4 13 -9z m-87 -233 c-3 -8 -6 -5 -6 6 -1 11 2 17 5 13 3
-3 4 -12 1 -19z m0 -140 c-2 -13 -4 -5 -4 17 -1 22 1 32 4 23 2 -10 2 -28 0
-40z m-57 32 c0 -5 -5 -10 -11 -10 -5 0 -7 5 -4 10 3 6 8 10 11 10 2 0 4 -4 4
-10z m30 -28 c0 -5 -6 -9 -12 -9 -7 0 -22 -4 -33 -7 -13 -5 -12 -2 5 8 29 17
40 20 40 8z"/>
<path d="M2702 7080 c0 -14 2 -19 5 -12 2 6 2 18 0 25 -3 6 -5 1 -5 -13z"/>
<path d="M7497 8143 c3 -7 6 -13 8 -13 2 0 5 6 8 13 3 8 -1 14 -8 14 -7 0 -11
-6 -8 -14z"/>
<path d="M7297 7670 c3 -11 7 -20 9 -20 2 0 4 9 4 20 0 11 -4 20 -9 20 -5 0
-7 -9 -4 -20z"/>
<path d="M5280 7780 c0 -13 20 -13 40 0 12 8 9 10 -12 10 -16 0 -28 -4 -28
-10z"/>
<path d="M5368 7783 c6 -2 18 -2 25 0 6 3 1 5 -13 5 -14 0 -19 -2 -12 -5z"/>
<path d="M5445 7776 c-44 -7 -125 -12 -180 -11 -55 0 -81 -1 -57 -3 25 -2 45
-9 49 -17 3 -10 10 -12 22 -6 21 12 111 2 111 -13 0 -6 5 -4 10 4 5 8 10 10
10 4 0 -6 7 -11 15 -11 8 0 12 4 10 8 -9 14 34 17 46 3 9 -11 8 -14 -1 -14 -9
0 -8 -6 4 -19 16 -17 15 -19 -26 -25 -126 -21 -440 -27 -825 -16 -88 3 -159 2
-157 -1 2 -3 118 -9 259 -13 301 -8 1273 4 1231 15 -16 4 -43 6 -60 4 -26 -4
-27 -4 -6 3 l24 8 -22 16 c-17 11 -20 17 -10 21 7 3 -2 6 -20 6 -23 1 -31 -3
-26 -11 5 -8 0 -9 -17 -5 -13 4 -34 7 -46 7 -13 0 -22 5 -20 13 1 9 -21 13
-80 15 -65 2 -83 6 -83 17 0 9 11 15 28 16 l27 1 -30 8 c-42 11 -88 10 -180
-4z m138 -3 c-13 -2 -33 -2 -45 0 -13 2 -3 4 22 4 25 0 35 -2 23 -4z m-83 -7
c0 -8 -51 -13 -56 -5 -3 5 9 9 25 9 17 0 31 -2 31 -4z m70 -26 c0 -11 -4 -20
-10 -20 -5 0 -10 -9 -10 -20 0 -11 -7 -20 -15 -20 -11 0 -15 11 -15 40 0 36 3
40 25 40 18 0 25 -5 25 -20z m178 -64 c3 -3 -11 -6 -31 -6 -20 0 -37 4 -37 10
0 9 57 6 68 -4z m-245 -13 c-13 -2 -33 -2 -45 0 -13 2 -3 4 22 4 25 0 35 -2
23 -4z m305 0 c-10 -2 -26 -2 -35 0 -10 3 -2 5 17 5 19 0 27 -2 18 -5z"/>
<path d="M5053 7773 c9 -2 23 -2 30 0 6 3 -1 5 -18 5 -16 0 -22 -2 -12 -5z"/>
<path d="M4728 7763 c7 -3 16 -2 19 1 4 3 -2 6 -13 5 -11 0 -14 -3 -6 -6z"/>
<path d="M4808 7763 c6 -2 18 -2 25 0 6 3 1 5 -13 5 -14 0 -19 -2 -12 -5z"/>
<path d="M5760 7750 c0 -5 18 -10 40 -10 22 0 40 5 40 10 0 6 -18 10 -40 10
-22 0 -40 -4 -40 -10z"/>
<path d="M5916 7735 c-10 -28 -7 -30 46 -28 29 1 68 2 86 2 17 1 32 5 32 11 0
9 -19 13 -111 25 -37 5 -48 3 -53 -10z"/>
<path d="M4698 7673 c7 -3 16 -2 19 1 4 3 -2 6 -13 5 -11 0 -14 -3 -6 -6z"/>
<path d="M4958 7668 c6 -6 18 -8 28 -6 14 3 12 5 -9 10 -19 3 -25 2 -19 -4z"/>
<path d="M5037 7668 c5 -10 186 -8 228 1 17 4 -29 7 -101 6 -73 0 -130 -3
-127 -7z"/>
<path d="M5998 7668 c6 -6 18 -8 28 -6 14 3 12 5 -9 10 -19 3 -25 2 -19 -4z"/>
<path d="M4298 7663 c7 -3 16 -2 19 1 4 3 -2 6 -13 5 -11 0 -14 -3 -6 -6z"/>
<path d="M4368 7663 c6 -2 18 -2 25 0 6 3 1 5 -13 5 -14 0 -19 -2 -12 -5z"/>
<path d="M6103 7663 c15 -2 37 -2 50 0 12 2 0 4 -28 4 -27 0 -38 -2 -22 -4z"/>
<path d="M3741 7389 c-119 -9 -168 -22 -262 -71 -190 -97 -239 -202 -167 -356
17 -37 30 -74 29 -82 -2 -13 0 -13 8 -1 7 11 16 10 47 -10 21 -12 59 -41 84
-64 108 -93 122 -105 130 -105 4 0 19 -9 34 -21 15 -12 65 -38 111 -59 47 -20
83 -39 80 -41 -2 -3 4 -5 13 -6 9 0 55 -10 102 -22 55 -15 130 -24 215 -28
151 -6 235 7 367 59 46 18 89 32 95 32 7 -1 11 2 8 6 -3 5 14 20 37 34 24 14
60 41 82 61 55 50 60 43 5 -9 -34 -32 -43 -48 -38 -62 3 -11 4 -26 2 -34 -3
-10 -1 -9 7 3 6 9 8 22 4 29 -5 7 -3 8 5 4 7 -5 21 0 33 11 11 10 3 -7 -18
-38 -39 -57 -50 -60 -67 -16 -9 24 -37 22 -37 -3 0 -13 7 -20 19 -20 26 0 33
-25 12 -44 -25 -23 -38 -20 -16 4 17 18 17 20 1 20 -9 0 -21 10 -26 23 -5 12
-9 16 -9 9 -1 -7 4 -22 9 -33 8 -14 7 -19 -1 -19 -8 0 -8 -4 1 -15 10 -12 9
-16 -6 -21 -11 -4 -27 -15 -37 -26 -17 -17 -43 -26 -34 -10 3 4 -6 8 -19 8
-21 2 -23 0 -9 -10 14 -10 12 -14 -15 -30 -17 -10 -34 -16 -37 -13 -2 3 5 11
17 17 17 9 19 14 9 26 -6 8 -7 14 -2 14 17 0 53 37 53 54 0 11 12 19 33 23
l32 7 -29 7 c-17 5 -32 6 -35 4 -2 -3 2 -5 9 -5 8 0 -1 -11 -18 -24 -36 -26
-118 -42 -137 -26 -9 7 -21 7 -40 -2 -26 -12 -26 -12 -4 -20 12 -5 37 -6 56
-2 37 7 63 -8 62 -35 0 -11 -3 -9 -9 7 -5 12 -17 21 -27 21 -17 -1 -17 -2 0
-6 34 -9 16 -23 -31 -23 -37 0 -49 -4 -49 -15 0 -10 10 -15 27 -15 14 0 35 -6
46 -14 18 -14 17 -15 -18 -30 -46 -20 -61 -20 -28 -1 33 19 21 19 -21 0 -19
-8 -28 -14 -20 -15 28 0 4 -9 -44 -15 -61 -9 -71 -15 -23 -15 120 0 366 135
459 252 43 54 75 116 65 126 -3 3 -1 11 5 19 9 9 8 13 0 13 -6 0 -11 7 -11 16
0 47 -154 204 -261 267 -70 41 -230 96 -354 122 -186 39 -411 27 -610 -30
-114 -33 -127 -33 -119 3 10 42 40 68 128 111 114 56 227 75 411 68 335 -13
625 -122 788 -295 l47 -51 0 -131 c0 -143 -25 -301 -100 -636 -56 -247 -66
-325 -51 -396 7 -32 19 -65 27 -73 9 -8 13 -19 9 -25 -4 -6 1 -7 11 -3 14 5
16 3 11 -11 -4 -10 -3 -15 4 -11 5 4 16 1 24 -5 35 -29 139 -69 209 -81 74
-11 233 -8 284 7 13 4 22 2 22 -5 0 -5 -8 -8 -17 -5 -11 4 -14 3 -7 -3 15 -12
25 -43 13 -43 -6 0 -7 -4 -4 -10 3 -5 1 -10 -6 -10 -7 0 -42 -20 -78 -44 -54
-36 -77 -46 -126 -50 -41 -4 -55 -3 -45 4 11 7 4 8 -23 6 -38 -3 -87 12 -87
27 0 10 18 9 25 -3 10 -16 25 -12 19 5 -4 8 -12 15 -20 15 -8 0 -23 6 -34 13
-17 10 -22 9 -30 -2 -19 -32 82 -81 166 -81 43 0 133 23 143 37 3 4 32 25 64
46 39 25 57 43 53 53 -7 18 3 44 16 44 6 0 5 -7 -2 -15 -7 -9 -10 -18 -7 -22
9 -8 43 35 58 72 6 17 24 55 38 85 38 81 35 187 -13 390 -20 85 -45 200 -56
255 -10 55 -30 150 -44 210 -13 61 -27 160 -31 222 -5 101 -4 117 16 162 52
122 248 249 464 300 302 73 561 74 700 4 38 -19 115 -81 115 -93 0 -4 -21 -2
-47 6 -152 47 -535 12 -792 -72 -179 -58 -320 -161 -405 -296 -20 -32 -35 -58
-34 -59 21 -5 37 -6 35 -1 -1 4 1 8 6 10 8 2 8 -5 -5 -37 -11 -30 -3 -55 17
-48 9 4 12 1 8 -9 -3 -9 22 -43 73 -94 85 -86 174 -157 174 -140 0 6 4 9 8 6
5 -3 9 8 9 24 0 17 -4 30 -9 30 -5 0 -6 -4 -3 -10 3 -5 1 -10 -5 -10 -7 0 -9
-7 -6 -16 4 -10 1 -14 -6 -11 -7 2 -13 12 -13 22 0 10 -6 20 -14 23 -8 3 -11
0 -7 -7 4 -6 3 -11 -3 -11 -19 0 -21 18 -5 35 21 21 63 37 75 29 5 -3 16 1 24
9 13 13 13 16 -1 21 -8 3 -12 2 -9 -4 3 -6 1 -10 -4 -10 -6 0 -11 8 -11 18 0
13 -2 14 -9 3 -6 -10 -10 -10 -16 -1 -4 6 -14 9 -22 6 -9 -4 -11 -2 -7 6 5 7
2 9 -8 6 -10 -4 -23 4 -37 23 -15 20 -29 28 -46 27 -28 -3 -31 -8 -13 -26 7
-7 9 -12 4 -12 -14 0 -39 32 -30 38 16 12 16 35 0 29 -9 -4 -15 -1 -13 6 1 7
-5 12 -13 12 -16 0 -50 36 -50 54 0 6 16 -3 35 -20 38 -35 122 -88 172 -108
18 -7 30 -17 28 -22 -3 -4 3 -8 12 -8 10 0 60 -11 112 -25 159 -44 370 -34
546 26 68 23 225 99 268 130 15 11 30 18 33 16 7 -7 -18 -26 -62 -48 l-39 -18
27 -7 c18 -5 25 -11 21 -22 -5 -13 -3 -13 16 -3 40 21 32 4 -12 -23 -23 -15
-55 -46 -71 -70 -20 -31 -46 -51 -94 -74 -60 -30 -68 -31 -82 -17 -14 14 -12
15 15 9 l30 -6 -30 15 c-35 17 -18 21 19 5 19 -9 29 -8 47 4 21 16 21 16 1 14
-11 0 -18 -5 -16 -9 7 -11 -1 -10 -31 4 l-25 11 22 24 21 23 -24 2 c-35 2 -42
1 -63 -8 -14 -5 -17 -4 -12 4 9 14 -13 16 -34 2 -12 -8 -12 -10 5 -11 11 0 15
-3 8 -5 -7 -3 -20 -1 -30 4 -22 12 -82 3 -62 -9 9 -5 -1 -10 -29 -15 -34 -5
-40 -9 -31 -20 15 -18 49 -18 49 0 0 11 9 13 35 9 19 -3 40 -1 47 4 7 6 29 13
48 17 22 4 30 3 21 -3 -11 -7 -10 -10 5 -14 10 -3 -1 -4 -26 -2 -33 4 -40 2
-25 -4 20 -9 20 -10 -1 -10 -11 -1 -29 -8 -40 -16 -10 -8 -30 -15 -44 -16 -46
-3 28 -16 100 -19 l65 -2 -34 -14 c-18 -8 -40 -13 -48 -10 -8 3 -28 -1 -45
-10 -22 -11 -33 -13 -41 -5 -8 8 -4 11 12 11 20 0 21 2 11 15 -17 20 -27 19
-33 -5 -4 -14 -17 -21 -57 -26 -28 -4 -46 -10 -40 -14 7 -4 27 -3 46 3 21 6
38 7 44 1 5 -5 0 -9 -13 -10 -43 -2 -102 -13 -127 -23 -23 -10 -22 -11 10 -6
19 2 57 7 85 10 69 8 217 59 295 102 36 19 94 63 130 97 36 33 91 82 122 109
70 59 139 147 160 207 28 76 48 187 41 222 -14 78 -80 156 -180 214 -73 43
-206 92 -286 104 -143 23 -444 -1 -640 -51 -180 -46 -288 -103 -389 -206 -69
-71 -93 -115 -114 -210 -18 -84 -11 -167 32 -357 13 -60 31 -154 39 -210 9
-56 23 -132 31 -171 9 -38 15 -96 15 -127 -1 -32 3 -58 8 -58 4 0 7 12 5 28
-2 16 3 8 11 -18 21 -61 33 -156 26 -193 -5 -25 -17 -37 -60 -59 -47 -25 -64
-28 -145 -28 -104 0 -241 29 -294 62 -41 25 -72 73 -72 110 0 15 16 98 35 184
67 297 125 656 125 769 0 99 -21 155 -88 226 -105 114 -201 170 -405 234 -127
40 -234 60 -402 75 -132 11 -156 11 -294 -1z m2742 -376 c26 -8 45 -19 42 -24
-4 -5 1 -6 9 -3 20 8 20 1 2 -34 -19 -36 -68 -81 -141 -129 -196 -130 -556
-180 -732 -103 -47 20 -153 98 -153 111 0 17 226 117 322 143 81 22 206 40
403 60 67 6 197 -4 248 -21z m-2303 -7 c47 -9 117 -25 155 -37 74 -22 265
-127 264 -144 -1 -25 -86 -76 -177 -106 -154 -50 -273 -50 -462 -3 -131 33
-200 64 -293 132 -61 44 -123 123 -105 133 15 8 155 37 208 43 69 8 327 -3
410 -18z m2501 -190 c-7 -8 -9 -21 -5 -28 6 -9 3 -9 -9 1 -16 13 -16 15 -1 32
20 22 33 17 15 -5z m-71 -55 c0 -5 -7 -12 -16 -15 -14 -5 -15 -4 -4 9 14 17
20 19 20 6z m-1843 -86 c-23 -22 -33 -18 -12 5 10 11 20 18 23 16 2 -3 -3 -12
-11 -21z m749 -116 c4 -8 1 -8 -14 0 -12 6 -24 16 -28 22 -4 8 -1 8 14 0 12
-6 24 -16 28 -22z m-36 -5 c0 -2 -9 0 -20 6 -11 6 -20 13 -20 16 0 2 9 0 20
-6 11 -6 20 -13 20 -16z m29 -68 c-2 -2 -13 8 -23 22 l-19 27 24 -22 c12 -12
21 -24 18 -27z m-1089 18 c0 -2 -9 -4 -21 -4 -11 0 -18 4 -14 10 5 8 35 3 35
-6z m1717 -10 c-3 -3 -12 -4 -19 -1 -8 3 -5 6 6 6 11 1 17 -2 13 -5z"/>
<path d="M6428 6983 c7 -3 16 -2 19 1 4 3 -2 6 -13 5 -11 0 -14 -3 -6 -6z"/>
<path d="M6924 7031 l0 -75 13 49 c6 27 10 51 8 54 -3 2 -6 -2 -6 -10 -1 -8
-5 2 -9 21 -5 25 -6 15 -6 -39z"/>
<path d="M6923 6890 c0 -25 2 -35 4 -22 2 12 2 32 0 45 -2 12 -4 2 -4 -23z"/>
<path d="M6877 6898 c-3 -9 0 -19 7 -21 15 -6 27 -75 14 -83 -4 -3 -8 8 -8 25
0 47 -17 45 -29 -4 -13 -50 -5 -106 11 -83 7 9 8 7 3 -7 -4 -11 -9 -31 -11
-45 -2 -14 -1 -17 2 -7 3 9 9 15 14 12 5 -3 12 11 15 32 4 21 10 49 14 63 4
14 4 50 1 80 -4 30 -8 46 -9 35 -2 -19 -3 -19 -10 -1 -6 17 -8 17 -14 4z m0
-90 c-3 -8 -6 -5 -6 6 -1 11 2 17 5 13 3 -3 4 -12 1 -19z m-6 -45 c-8 -15 -10
-15 -11 -2 0 17 10 32 18 25 2 -3 -1 -13 -7 -23z"/>
<path d="M3400 6843 c5 -2 10 -9 10 -14 0 -14 -28 -11 -33 4 -2 6 -8 8 -13 4
-5 -4 -3 -12 4 -16 7 -4 14 -18 17 -30 5 -28 24 -53 35 -46 5 3 10 2 13 -2 2
-5 2 -2 1 5 -2 6 2 12 9 13 7 0 2 4 -10 9 -13 5 -23 14 -23 21 0 6 7 8 16 5 8
-3 12 -2 9 4 -9 14 8 12 25 -2 12 -11 12 -10 1 5 -8 10 -21 15 -31 12 -13 -4
-17 -1 -16 11 0 9 -5 18 -12 20 -7 1 -8 0 -2 -3z m18 -89 c-4 -3 -12 5 -18 18
-12 22 -12 22 6 6 10 -10 15 -20 12 -24z"/>
<path d="M3468 6763 c7 -3 16 -2 19 1 4 3 -2 6 -13 5 -11 0 -14 -3 -6 -6z"/>
<path d="M3534 6731 c4 -5 0 -12 -6 -14 -8 -3 -6 -6 5 -6 9 -1 17 -8 17 -16 0
-18 -16 -20 -26 -3 -5 8 -11 6 -20 -6 -13 -18 -34 -14 -34 5 0 6 3 8 8 6 4 -3
13 1 19 9 8 8 9 15 3 19 -6 3 -10 2 -10 -4 0 -5 -14 -8 -31 -6 l-31 4 23 -26
c40 -42 166 -150 134 -114 -21 24 -25 32 -12 28 11 -4 16 -3 12 3 -4 6 4 14
17 19 13 6 19 10 14 10 -6 1 -1 8 10 16 16 13 16 14 1 9 -13 -5 -16 -2 -11 12
5 15 4 16 -4 5 -8 -12 -15 -9 -36 14 -14 15 -26 32 -26 36 0 5 -5 9 -11 9 -5
0 -8 -4 -5 -9z m-19 -61 c-6 -18 -4 -19 21 -10 30 12 67 4 62 -12 -2 -6 -13
-18 -25 -25 -18 -12 -24 -11 -48 9 -18 16 -24 29 -20 41 10 24 18 22 10 -3z"/>
<path d="M6841 6724 c0 -11 3 -14 6 -6 3 7 2 16 -1 19 -3 4 -6 -2 -5 -13z"/>
<path d="M6831 6674 c0 -11 3 -14 6 -6 3 7 2 16 -1 19 -3 4 -6 -2 -5 -13z"/>
<path d="M3645 6650 c-3 -5 1 -10 10 -10 9 0 13 5 10 10 -3 6 -8 10 -10 10 -2
0 -7 -4 -10 -10z"/>
<path d="M4696 6651 c-4 -7 -5 -15 -2 -18 9 -9 19 4 14 18 -4 11 -6 11 -12 0z"/>
<path d="M5435 6640 c3 -5 8 -10 11 -10 2 0 4 5 4 10 0 6 -5 10 -11 10 -5 0
-7 -4 -4 -10z"/>
<path d="M3676 6633 c-13 -14 -4 -30 27 -48 48 -28 58 -40 44 -54 -8 -8 -8
-11 1 -11 17 0 15 -17 -2 -23 -11 -4 -13 -1 -9 10 5 12 1 14 -18 9 -13 -3 -18
-3 -11 0 18 8 15 24 -5 25 -12 0 -13 2 -5 6 7 3 19 -1 27 -7 10 -8 15 -9 15
-2 0 14 -25 20 -72 18 -48 -1 -54 -10 -24 -30 18 -11 27 -13 32 -4 4 7 3 8 -4
4 -8 -5 -10 -1 -5 9 4 13 8 14 13 4 5 -7 6 -18 4 -24 -6 -14 168 -105 256
-135 33 -11 72 -19 87 -19 26 2 25 2 -7 9 -22 5 -27 8 -13 9 30 2 37 16 7 16
-13 0 -24 -3 -24 -7 0 -5 -7 -8 -16 -8 -9 0 -14 6 -12 12 3 7 -4 21 -14 32
-16 18 -17 21 -2 38 9 9 26 20 37 24 28 9 2 24 -38 23 l-30 -1 30 -8 c27 -7
28 -8 5 -8 -30 -1 -76 16 -47 17 21 1 23 31 2 31 -8 0 -23 4 -33 9 -9 5 -36
15 -60 22 -29 8 -38 15 -30 21 7 4 9 8 3 9 -30 2 -60 10 -65 17 -8 12 -37 22
-44 15z m75 -37 c9 0 15 -6 12 -13 -5 -13 -19 -8 -53 18 -12 9 -11 10 5 3 11
-4 27 -7 36 -8z m-96 -56 c3 -6 -1 -7 -9 -4 -18 7 -21 14 -7 14 6 0 13 -4 16
-10z m170 -90 c3 -5 -4 -6 -15 -3 -11 3 -22 9 -25 13 -3 5 4 6 15 3 11 -3 22
-9 25 -13z m95 -22 c0 -10 -5 -18 -11 -18 -5 0 -7 5 -4 11 4 5 -1 20 -12 31
-18 21 -18 21 5 7 12 -8 22 -22 22 -31z m-43 6 c-3 -3 -12 -4 -19 -1 -8 3 -5
6 6 6 11 1 17 -2 13 -5z"/>
<path d="M6375 6610 c-14 -6 -15 -9 -5 -10 9 0 3 -7 -14 -16 -15 -9 -37 -13
-49 -10 -15 4 -17 2 -8 -7 11 -11 16 -10 85 18 14 6 17 5 12 -3 -5 -8 -1 -9
16 -3 13 4 23 15 23 22 0 17 -32 21 -60 9z"/>
<path d="M4598 6583 c7 -3 16 -2 19 1 4 3 -2 6 -13 5 -11 0 -14 -3 -6 -6z"/>
<path d="M6823 6555 c-3 -9 -3 -18 -1 -21 3 -3 8 4 11 16 6 23 -1 27 -10 5z"/>
<path d="M6407 6539 c-4 -16 -3 -18 9 -8 16 13 19 29 5 29 -5 0 -11 -9 -14
-21z"/>
<path d="M4445 6530 c-3 -5 -1 -10 4 -10 6 0 11 5 11 10 0 6 -2 10 -4 10 -3 0
-8 -4 -11 -10z"/>
<path d="M6781 6504 c0 -11 3 -14 6 -6 3 7 2 16 -1 19 -3 4 -6 -2 -5 -13z"/>
<path d="M5672 6501 c-11 -7 -10 -9 3 -14 11 -5 14 -3 9 5 -5 8 -2 9 9 5 10
-4 24 -10 32 -13 8 -3 15 -1 15 5 0 6 -6 11 -14 11 -8 0 -20 2 -28 5 -7 3 -19
1 -26 -4z"/>
<path d="M5763 6500 c2 -8 12 -16 23 -17 13 -2 15 -1 4 4 -8 3 -19 11 -23 17
-6 7 -7 6 -4 -4z"/>
<path d="M5818 6503 c7 -3 16 -2 19 1 4 3 -2 6 -13 5 -11 0 -14 -3 -6 -6z"/>
<path d="M5998 6503 c6 -2 18 -2 25 0 6 3 1 5 -13 5 -14 0 -19 -2 -12 -5z"/>
<path d="M4283 6493 c9 -2 25 -2 35 0 9 3 1 5 -18 5 -19 0 -27 -2 -17 -5z"/>
<path d="M4133 6483 c9 -2 23 -2 30 0 6 3 -1 5 -18 5 -16 0 -22 -2 -12 -5z"/>
<path d="M5978 6483 c7 -3 16 -2 19 1 4 3 -2 6 -13 5 -11 0 -14 -3 -6 -6z"/>
<path d="M6756 6423 c-10 -32 -20 -64 -23 -72 -3 -8 -1 -11 5 -7 5 3 16 29 23
58 10 42 14 49 20 33 8 -20 8 -20 8 0 0 11 -3 26 -8 33 -5 9 -14 -6 -25 -45z"/>
<path d="M6836 6455 c-3 -8 -1 -15 4 -15 6 0 10 7 10 15 0 8 -2 15 -4 15 -2 0
-6 -7 -10 -15z"/>
<path d="M6818 6412 c-3 -11 0 -19 7 -19 7 0 10 8 7 19 -2 10 -6 18 -7 18 -1
0 -5 -8 -7 -18z"/>
<path d="M5630 6389 c-11 -7 -7 -8 15 -4 17 3 24 2 18 -1 -7 -3 -13 -10 -13
-15 0 -16 19 -10 29 9 8 14 5 18 -12 20 -12 1 -29 -3 -37 -9z"/>
<path d="M6028 6393 c6 -2 18 -2 25 0 6 3 1 5 -13 5 -14 0 -19 -2 -12 -5z"/>
<path d="M4138 6383 c7 -3 16 -2 19 1 4 3 -2 6 -13 5 -11 0 -14 -3 -6 -6z"/>
<path d="M4298 6373 c7 -3 16 -2 19 1 4 3 -2 6 -13 5 -11 0 -14 -3 -6 -6z"/>
<path d="M6790 6370 c0 -5 5 -10 10 -10 6 0 10 5 10 10 0 6 -4 10 -10 10 -5 0
-10 -4 -10 -10z"/>
<path d="M6821 6364 c0 -11 3 -14 6 -6 3 7 2 16 -1 19 -3 4 -6 -2 -5 -13z"/>
<path d="M6765 6350 c-3 -5 -1 -10 4 -10 6 0 11 5 11 10 0 6 -2 10 -4 10 -3 0
-8 -4 -11 -10z"/>
<path d="M4098 6343 c12 -2 32 -2 45 0 12 2 2 4 -23 4 -25 0 -35 -2 -22 -4z"/>
<path d="M4218 6343 c7 -3 16 -2 19 1 4 3 -2 6 -13 5 -11 0 -14 -3 -6 -6z"/>
<path d="M5759 6327 c4 -4 35 -7 67 -5 l59 3 -67 5 c-37 3 -63 1 -59 -3z"/>
<path d="M5311 5934 c0 -11 3 -14 6 -6 3 7 2 16 -1 19 -3 4 -6 -2 -5 -13z"/>
<path d="M4701 5690 c-1 -21 16 -46 26 -37 4 5 3 11 -3 15 -6 4 -14 14 -17 22
-5 13 -5 13 -6 0z"/>
<path d="M4730 5645 c-16 -19 3 -50 70 -117 35 -36 50 -44 58 -36 7 7 12 17
12 22 0 6 -5 5 -12 -2 -14 -14 -32 -16 -24 -3 3 5 -1 12 -9 15 -16 6 -39 55
-31 63 3 3 16 -6 30 -20 27 -28 72 -43 78 -26 2 7 19 8 53 2 28 -5 61 -6 75
-2 20 6 16 7 -18 8 -24 1 -57 9 -73 18 -26 15 -31 16 -39 3 -5 -8 -12 -11 -17
-7 -4 5 -1 12 7 18 13 8 13 10 1 18 -8 5 -21 7 -29 3 -11 -4 -13 -1 -7 7 6 10
3 11 -14 2 -27 -15 -47 -5 -30 15 10 12 9 13 -5 8 -10 -4 -15 -13 -12 -20 3
-7 1 -16 -4 -19 -9 -6 -15 17 -11 39 2 9 -18 26 -30 26 -4 0 -12 -7 -19 -15z
m35 -27 c-1 -13 4 -29 12 -36 7 -7 13 -18 13 -24 0 -15 -36 33 -44 60 -5 15
-3 22 7 22 8 0 13 -9 12 -22z"/>
<path d="M4988 5563 c7 -3 16 -2 19 1 4 3 -2 6 -13 5 -11 0 -14 -3 -6 -6z"/>
<path d="M5048 5563 c7 -3 16 -2 19 1 4 3 -2 6 -13 5 -11 0 -14 -3 -6 -6z"/>
<path d="M5178 5563 c7 -3 16 -2 19 1 4 3 -2 6 -13 5 -11 0 -14 -3 -6 -6z"/>
<path d="M5228 5563 c6 -2 18 -2 25 0 6 3 1 5 -13 5 -14 0 -19 -2 -12 -5z"/>
<path d="M5113 5553 c9 -2 23 -2 30 0 6 3 -1 5 -18 5 -16 0 -22 -2 -12 -5z"/>
<path d="M5128 5533 c7 -3 16 -2 19 1 4 3 -2 6 -13 5 -11 0 -14 -3 -6 -6z"/>
<path d="M4917 5514 c3 -7 9 -14 14 -14 14 0 10 17 -5 23 -10 4 -13 1 -9 -9z"/>
<path d="M4964 5479 c-3 -6 -1 -16 5 -22 8 -8 11 -5 11 11 0 24 -5 28 -16 11z"/>
<path d="M4176 5429 c-28 -22 -35 -66 -14 -87 30 -30 91 1 100 53 11 54 -37
73 -86 34z"/>
<path d="M4281 5357 c-15 -15 -14 -60 1 -75 26 -26 78 -7 78 28 0 32 -59 67
-79 47z"/>
<path d="M5600 4551 c0 -10 19 -25 25 -20 1 2 -3 10 -11 17 -8 7 -14 8 -14 3z"/>
<path d="M5460 4505 c7 -9 15 -13 17 -11 7 7 -7 26 -19 26 -6 0 -6 -6 2 -15z"/>
<path d="M5535 4320 c-3 -6 1 -7 9 -4 18 7 21 14 7 14 -6 0 -13 -4 -16 -10z"/>
<path d="M3231 5124 c0 -11 3 -14 6 -6 3 7 2 16 -1 19 -3 4 -6 -2 -5 -13z"/>
<path d="M3272 4990 c0 -14 2 -19 5 -12 2 6 2 18 0 25 -3 6 -5 1 -5 -13z"/>
<path d="M3281 4944 c0 -11 3 -14 6 -6 3 7 2 16 -1 19 -3 4 -6 -2 -5 -13z"/>
<path d="M3800 4784 c0 -3 7 -12 15 -20 16 -17 18 -14 9 10 -6 15 -24 23 -24
10z"/>
<path d="M2466 4699 c-17 -41 -10 -66 25 -84 24 -13 30 -13 43 1 18 18 21 66
6 95 -17 31 -59 25 -74 -12z"/>
<path d="M3850 3703 c1 -5 7 -30 15 -58 13 -48 14 -48 14 -15 1 43 -8 80 -20
80 -5 0 -9 -3 -9 -7z"/>
<path d="M3841 3614 c0 -11 3 -14 6 -6 3 7 2 16 -1 19 -3 4 -6 -2 -5 -13z"/>
<path d="M3935 3480 c4 -39 3 -42 -7 -20 l-11 25 -6 -25 c-4 -14 -5 -38 -2
-55 l6 -30 3 29 c3 22 6 26 13 15 7 -12 9 -11 9 3 0 9 4 18 9 20 4 2 2 21 -5
43 l-14 40 5 -45z"/>
<path d="M3962 3380 c0 -14 2 -19 5 -12 2 6 2 18 0 25 -3 6 -5 1 -5 -13z"/>
<path d="M3931 3374 c0 -11 3 -14 6 -6 3 7 2 16 -1 19 -3 4 -6 -2 -5 -13z"/>
<path d="M3951 3294 c0 -11 3 -14 6 -6 3 7 2 16 -1 19 -3 4 -6 -2 -5 -13z"/>
<path d="M3995 3196 c-3 -14 -7 -37 -10 -51 -3 -14 -1 -25 4 -25 4 0 11 21 14
48 6 52 1 70 -8 28z"/>
<path d="M4920 3604 c-16 -41 -12 -61 16 -83 33 -26 99 -29 108 -5 12 31 6 81
-12 97 -11 10 -36 17 -61 17 -35 0 -43 -4 -51 -26z"/>
<path d="M4591 3344 c0 -11 3 -14 6 -6 3 7 2 16 -1 19 -3 4 -6 -2 -5 -13z"/>
<path d="M4763 2653 c-12 -2 -25 -16 -31 -32 -11 -31 -14 -30 68 -37 45 -3 59
-1 79 16 33 28 21 50 -28 50 -22 0 -45 2 -53 4 -7 2 -23 1 -35 -1z"/>
<path d="M4730 2569 c0 -5 5 -7 10 -4 6 3 10 8 10 11 0 2 -4 4 -10 4 -5 0 -10
-5 -10 -11z"/>
<path d="M4968 2293 c7 -3 16 -2 19 1 4 3 -2 6 -13 5 -11 0 -14 -3 -6 -6z"/>
<path d="M1410 4051 c0 -5 5 -13 10 -16 6 -3 10 -2 10 4 0 5 -4 13 -10 16 -5
3 -10 2 -10 -4z"/>
<path d="M1483 4033 c9 -2 23 -2 30 0 6 3 -1 5 -18 5 -16 0 -22 -2 -12 -5z"/>
<path d="M1418 4013 c7 -3 16 -2 19 1 4 3 -2 6 -13 5 -11 0 -14 -3 -6 -6z"/>
<path d="M1625 4010 c73 -8 281 -13 274 -6 -2 2 -80 6 -174 9 -104 3 -143 2
-100 -3z"/>
<path d="M3278 4008 c5 -5 16 -8 23 -6 8 3 3 7 -10 11 -17 4 -21 3 -13 -5z"/>
<path d="M1928 4003 c7 -3 16 -2 19 1 4 3 -2 6 -13 5 -11 0 -14 -3 -6 -6z"/>
<path d="M2660 4000 l-345 -5 323 -3 c206 -1 322 -6 322 -12 0 -13 61 -13 96
0 15 6 64 13 108 16 122 8 105 14 -35 12 -68 -2 -279 -5 -469 -8z"/>
<path d="M2023 3993 c15 -2 39 -2 55 0 15 2 2 4 -28 4 -30 0 -43 -2 -27 -4z"/>
<path d="M1826 3750 c21 -8 149 -11 141 -4 -2 2 -39 6 -83 8 -43 2 -70 0 -58
-4z"/>
<path d="M2523 3753 c9 -2 23 -2 30 0 6 3 -1 5 -18 5 -16 0 -22 -2 -12 -5z"/>
<path d="M2678 3753 c23 -2 61 -2 85 0 23 2 4 4 -43 4 -47 0 -66 -2 -42 -4z"/>
<path d="M2843 3753 c9 -2 23 -2 30 0 6 3 -1 5 -18 5 -16 0 -22 -2 -12 -5z"/>
<path d="M2938 3753 c12 -2 30 -2 40 0 9 3 -1 5 -23 4 -22 0 -30 -2 -17 -4z"/>
<path d="M1338 3743 c7 -3 16 -2 19 1 4 3 -2 6 -13 5 -11 0 -14 -3 -6 -6z"/>
<path d="M2018 3743 c12 -2 32 -2 45 0 12 2 2 4 -23 4 -25 0 -35 -2 -22 -4z"/>
<path d="M2138 3743 c7 -3 16 -2 19 1 4 3 -2 6 -13 5 -11 0 -14 -3 -6 -6z"/>
<path d="M6640 4070 c0 -11 78 -31 139 -35 l56 -4 -56 9 c-30 5 -74 15 -97 23
-23 8 -42 11 -42 7z"/>
<path d="M7733 4043 c15 -2 39 -2 55 0 15 2 2 4 -28 4 -30 0 -43 -2 -27 -4z"/>
<path d="M7578 4033 c7 -3 16 -2 19 1 4 3 -2 6 -13 5 -11 0 -14 -3 -6 -6z"/>
<path d="M6703 4023 c9 -2 23 -2 30 0 6 3 -1 5 -18 5 -16 0 -22 -2 -12 -5z"/>
<path d="M6893 4023 c9 -2 25 -2 35 0 9 3 1 5 -18 5 -19 0 -27 -2 -17 -5z"/>
<path d="M6968 4023 c6 -2 18 -2 25 0 6 3 1 5 -13 5 -14 0 -19 -2 -12 -5z"/>
<path d="M7343 4019 c15 -4 49 -4 75 0 43 8 41 8 -28 8 -50 -1 -66 -3 -47 -8z"/>
<path d="M6738 3813 c12 -2 32 -2 45 0 12 2 2 4 -23 4 -25 0 -35 -2 -22 -4z"/>
<path d="M6978 3813 c12 -2 32 -2 45 0 12 2 2 4 -23 4 -25 0 -35 -2 -22 -4z"/>
<path d="M6733 3783 c59 -2 154 -2 210 0 56 1 8 3 -108 3 -115 0 -161 -2 -102
-3z"/>
<path d="M7158 3783 c23 -2 61 -2 85 0 23 2 4 4 -43 4 -47 0 -66 -2 -42 -4z"/>
<path d="M5850 2874 c0 -11 7 -29 16 -40 14 -18 15 -18 8 6 -3 14 -10 32 -15
40 -7 12 -8 11 -9 -6z"/>
<path d="M5874 2878 c3 -7 9 -21 12 -30 4 -10 11 -18 16 -18 5 0 7 6 4 13 -3
6 -9 20 -12 30 -4 9 -11 17 -16 17 -5 0 -7 -6 -4 -12z"/>
<path d="M5821 2624 c0 -11 3 -14 6 -6 3 7 2 16 -1 19 -3 4 -6 -2 -5 -13z"/>
<path d="M6140 2610 c-9 -6 -10 -10 -3 -10 6 0 15 5 18 10 8 12 4 12 -15 0z"/>
<path d="M8538 3173 c7 -3 16 -2 19 1 4 3 -2 6 -13 5 -11 0 -14 -3 -6 -6z"/>
<path d="M3698 2993 c7 -3 16 -2 19 1 4 3 -2 6 -13 5 -11 0 -14 -3 -6 -6z"/>
<path d="M2058 2783 c7 -3 16 -2 19 1 4 3 -2 6 -13 5 -11 0 -14 -3 -6 -6z"/>
<path d="M2378 2783 c7 -3 16 -2 19 1 4 3 -2 6 -13 5 -11 0 -14 -3 -6 -6z"/>
<path d="M2453 2783 c9 -2 23 -2 30 0 6 3 -1 5 -18 5 -16 0 -22 -2 -12 -5z"/>
<path d="M2298 2773 c7 -3 16 -2 19 1 4 3 -2 6 -13 5 -11 0 -14 -3 -6 -6z"/>
<path d="M3807 2220 c9 -16 21 -30 25 -30 5 0 -1 14 -14 30 -12 17 -23 30 -25
30 -2 0 4 -13 14 -30z"/>
<path d="M6095 2129 c-11 -17 1 -21 15 -4 8 9 8 15 2 15 -6 0 -14 -5 -17 -11z"/>
<path d="M5820 2000 c-13 -8 -12 -10 3 -10 9 0 17 5 17 10 0 12 -1 12 -20 0z"/>
<path d="M5726 1975 c-23 -17 -14 -20 15 -5 12 7 19 7 19 1 0 -6 -9 -15 -21
-21 -11 -7 -18 -14 -15 -17 3 -3 19 6 36 21 17 14 27 26 22 26 -6 0 -16 2 -24
5 -7 2 -22 -2 -32 -10z"/>
<path d="M4051 1917 c2 -1 13 -9 24 -17 19 -14 19 -14 6 3 -7 9 -18 17 -24 17
-6 0 -8 -1 -6 -3z"/>
<path d="M5565 1850 c-4 -6 3 -10 14 -10 25 0 27 6 6 13 -8 4 -17 2 -20 -3z"/>
<path d="M5844 1829 c-10 -17 13 -36 27 -22 12 12 4 33 -11 33 -5 0 -12 -5
-16 -11z m26 -9 c0 -5 -4 -10 -10 -10 -5 0 -10 5 -10 10 0 6 5 10 10 10 6 0
10 -4 10 -10z"/>
<path d="M4375 1810 c3 -5 10 -10 16 -10 5 0 9 5 9 10 0 6 -7 10 -16 10 -8 0
-12 -4 -9 -10z"/>
<path d="M4258 1793 c7 -3 16 -2 19 1 4 3 -2 6 -13 5 -11 0 -14 -3 -6 -6z"/>
<path d="M4355 1750 c-3 -5 1 -10 9 -10 9 0 16 5 16 10 0 6 -4 10 -9 10 -6 0
-13 -4 -16 -10z"/>
<path d="M4460 1740 c0 -5 5 -10 10 -10 6 0 10 5 10 10 0 6 -4 10 -10 10 -5 0
-10 -4 -10 -10z"/>
<path d="M5760 1740 c0 -5 4 -10 9 -10 6 0 13 5 16 10 3 6 -1 10 -9 10 -9 0
-16 -4 -16 -10z"/>
<path d="M4893 1733 c9 -2 23 -2 30 0 6 3 -1 5 -18 5 -16 0 -22 -2 -12 -5z"/>
<path d="M4445 1710 c28 -12 37 -12 30 0 -3 6 -16 10 -28 9 -21 0 -21 -1 -2
-9z"/>
<path d="M5185 1710 c19 -8 103 -14 94 -6 -2 2 -29 6 -59 9 -34 3 -47 2 -35
-3z"/>
<path d="M4898 1703 c12 -2 32 -2 45 0 12 2 2 4 -23 4 -25 0 -35 -2 -22 -4z"/>
<path d="M5120 1700 c0 -5 -19 -11 -42 -12 l-43 -1 37 -4 c21 -2 49 2 65 11
26 14 27 15 6 16 -13 0 -23 -4 -23 -10z"/>
<path d="M4545 1670 c27 -12 43 -12 25 0 -8 5 -22 9 -30 9 -10 0 -8 -3 5 -9z"/>
<path d="M4735 1670 c-17 -7 -18 -9 -2 -9 9 -1 26 -6 37 -13 26 -16 39 -2 14
17 -22 16 -22 17 -49 5z"/>
<path d="M5558 1673 c7 -3 16 -2 19 1 4 3 -2 6 -13 5 -11 0 -14 -3 -6 -6z"/>
<path d="M4675 1660 c-13 -6 -15 -9 -5 -9 8 0 22 4 30 9 18 12 2 12 -25 0z"/>
<path d="M5126 1633 c-13 -13 -5 -33 14 -33 11 0 20 3 20 6 0 11 -28 33 -34
27z"/>
<path d="M4943 1593 c9 -2 23 -2 30 0 6 3 -1 5 -18 5 -16 0 -22 -2 -12 -5z"/>
<path d="M5048 1593 c7 -3 16 -2 19 1 4 3 -2 6 -13 5 -11 0 -14 -3 -6 -6z"/>
<path d="M5175 1590 l-90 -7 108 0 c60 0 102 4 95 9 -7 4 -15 7 -18 6 -3 -1
-45 -5 -95 -8z"/>
<path d="M6856 2335 c-3 -9 -6 -22 -5 -28 0 -7 5 -1 10 12 5 13 8 26 5 28 -2
2 -6 -3 -10 -12z"/>
<path d="M1461 2184 c0 -11 3 -14 6 -6 3 7 2 16 -1 19 -3 4 -6 -2 -5 -13z"/>
<path d="M2195 1816 c-38 -16 -58 -57 -45 -90 17 -45 82 -44 133 2 33 31 35
65 5 86 -27 19 -53 20 -93 2z"/>
<path d="M7495 1270 c-11 -5 -53 -9 -92 -9 -58 -1 -73 -4 -73 -16 0 -8 5 -15
10 -15 6 0 10 5 10 10 0 6 31 10 74 10 46 0 84 6 102 15 23 12 25 15 9 14 -11
0 -29 -4 -40 -9z"/>
<path d="M7566 1263 c-21 -3 -45 -11 -53 -19 -8 -8 -13 -14 -11 -14 2 0 28 7
58 15 64 17 120 19 120 5 0 -5 10 -10 23 -9 12 0 16 3 8 6 -11 5 -11 7 0 14
14 9 -67 10 -145 2z"/>
<path d="M7883 1263 c9 -2 23 -2 30 0 6 3 -1 5 -18 5 -16 0 -22 -2 -12 -5z"/>
<path d="M7978 1263 c7 -3 16 -2 19 1 4 3 -2 6 -13 5 -11 0 -14 -3 -6 -6z"/>
<path d="M5498 1233 c7 -3 16 -2 19 1 4 3 -2 6 -13 5 -11 0 -14 -3 -6 -6z"/>
<path d="M8523 1233 c9 -2 23 -2 30 0 6 3 -1 5 -18 5 -16 0 -22 -2 -12 -5z"/>
<path d="M5160 1210 l-45 -7 42 -1 c23 -1 45 3 48 8 3 6 5 9 3 8 -2 0 -23 -4
-48 -8z"/>
<path d="M3391 2215 c0 -5 6 -19 14 -29 8 -11 15 -15 15 -10 0 6 -7 19 -15 30
-8 10 -14 15 -14 9z"/>
<path d="M3470 2097 c0 -14 30 -80 35 -75 3 2 -4 22 -15 44 -10 21 -19 35 -20
31z"/>
<path d="M3524 2006 c6 -34 12 -41 19 -24 2 8 -2 23 -10 33 -13 19 -14 18 -9
-9z"/>
<path d="M3781 1663 c0 -5 14 -19 32 -32 l32 -25 -29 32 c-31 33 -36 37 -35
25z"/>
<path d="M7898 1043 c7 -3 16 -2 19 1 4 3 -2 6 -13 5 -11 0 -14 -3 -6 -6z"/>
<path d="M6283 1023 c9 -2 23 -2 30 0 6 3 -1 5 -18 5 -16 0 -22 -2 -12 -5z"/>
<path d="M6738 1023 c12 -2 32 -2 45 0 12 2 2 4 -23 4 -25 0 -35 -2 -22 -4z"/>
<path d="M5897 1010 c17 -4 49 -4 70 0 32 6 26 8 -32 8 -53 0 -62 -2 -38 -8z"/>
<path d="M5702 1005 c3 -3 43 -7 89 -9 48 -2 75 0 64 5 -22 8 -162 12 -153 4z"/>
<path d="M5968 993 c6 -2 18 -2 25 0 6 3 1 5 -13 5 -14 0 -19 -2 -12 -5z"/>
<path d="M1498 973 c7 -3 16 -2 19 1 4 3 -2 6 -13 5 -11 0 -14 -3 -6 -6z"/>
<path d="M1585 970 c-13 -5 -14 -9 -5 -9 8 0 24 4 35 9 13 5 14 9 5 9 -8 0
-24 -4 -35 -9z"/>
<path d="M5658 973 c7 -3 16 -2 19 1 4 3 -2 6 -13 5 -11 0 -14 -3 -6 -6z"/>
<path d="M5928 973 c7 -3 16 -2 19 1 4 3 -2 6 -13 5 -11 0 -14 -3 -6 -6z"/>
<path d="M6698 973 c7 -3 16 -2 19 1 4 3 -2 6 -13 5 -11 0 -14 -3 -6 -6z"/>
<path d="M5103 963 c15 -2 39 -2 55 0 15 2 2 4 -28 4 -30 0 -43 -2 -27 -4z"/>
<path d="M5503 963 c9 -2 23 -2 30 0 6 3 -1 5 -18 5 -16 0 -22 -2 -12 -5z"/>
<path d="M7768 953 c7 -3 16 -2 19 1 4 3 -2 6 -13 5 -11 0 -14 -3 -6 -6z"/>
<path d="M7123 943 c32 -2 81 -2 110 0 29 2 3 3 -58 3 -60 0 -84 -1 -52 -3z"/>
<path d="M5448 873 c7 -3 16 -2 19 1 4 3 -2 6 -13 5 -11 0 -14 -3 -6 -6z"/>
<path d="M5788 863 c12 -2 30 -2 40 0 9 3 -1 5 -23 4 -22 0 -30 -2 -17 -4z"/>
<path d="M5488 853 c28 -2 76 -2 105 0 28 2 5 3 -53 3 -58 0 -81 -1 -52 -3z"/>
<path d="M6048 843 c6 -2 18 -2 25 0 6 3 1 5 -13 5 -14 0 -19 -2 -12 -5z"/>
<path d="M5560 830 l-45 -7 40 -1 c22 0 49 3 60 8 23 10 9 10 -55 0z"/>
<path d="M5858 833 c12 -2 32 -2 45 0 12 2 2 4 -23 4 -25 0 -35 -2 -22 -4z"/>
<path d="M2160 790 c0 -5 18 -10 40 -10 22 0 40 5 40 10 0 6 -18 10 -40 10
-22 0 -40 -4 -40 -10z"/>
<path d="M2278 753 c23 -2 61 -2 85 0 23 2 4 4 -43 4 -47 0 -66 -2 -42 -4z"/>
<path d="M1738 703 c7 -3 16 -2 19 1 4 3 -2 6 -13 5 -11 0 -14 -3 -6 -6z"/>
<path d="M27 103 c-25 -4 -27 -8 -27 -54 0 -48 1 -49 30 -49 30 0 30 1 30 55
0 30 -1 54 -2 54 -2 -1 -15 -4 -31 -6z"/>
</g>
</svg>
